<?xml version="1.0" standalone="no"?>
<!DOCTYPE svg PUBLIC "-//W3C//DTD SVG 1.1//EN" "http://www.w3.org/Graphics/SVG/1.1/DTD/svg11.dtd" >
<svg xmlns="http://www.w3.org/2000/svg" xmlns:xlink="http://www.w3.org/1999/xlink" version="1.1">
<metadata></metadata>
<defs>
<font id="pt_sans_narrowbold" horiz-adv-x="1017" >
<font-face units-per-em="2048" ascent="1536" descent="-512" />
<missing-glyph horiz-adv-x="435" />
<glyph unicode="fi" horiz-adv-x="979" d="M19 839v226h115v59q0 203 88.5 295.5t259.5 92.5q123 0 221 -20t159 -53l-65 -208q-51 26 -116 40.5t-140 14.5q-49 0 -78.5 -15t-47 -43.5t-22.5 -70t-5 -92.5h492v-1065h-254v839h-238v-839h-254v839h-115z" />
<glyph unicode="fl" horiz-adv-x="1047" d="M19 839v226h115v59q0 100 19.5 175t63 124t113.5 72t170 23q43 0 97.5 -4t107.5 -9t99 -11.5t72 -13.5v-1137q0 -140 63 -140q19 0 38 4t47 17l28 -203q-30 -17 -89.5 -34t-129.5 -17q-104 0 -157.5 54.5t-53.5 182.5v1071q-19 4 -53 9.5t-67 5.5q-75 0 -94.5 -55.5 t-19.5 -172.5h121v-226h-121v-839h-254v839h-115z" />
<glyph unicode="&#xd;" horiz-adv-x="435" />
<glyph unicode=" "  horiz-adv-x="435" />
<glyph unicode="&#x09;" horiz-adv-x="435" />
<glyph unicode="&#xa0;" horiz-adv-x="435" />
<glyph unicode="!" horiz-adv-x="534" d="M153 138q0 79 41.5 119.5t110.5 40.5q75 0 115 -40.5t40 -119.5q0 -77 -42 -119.5t-113 -42.5t-111.5 42.5t-40.5 119.5zM177 790v701h262v-701l-51 -347h-160z" />
<glyph unicode="&#x22;" horiz-adv-x="746" d="M156 1031v460h218l-65 -460h-153zM441 1031v460h219l-66 -460h-153z" />
<glyph unicode="#" d="M32 437l45 202h124l47 235h-128l44 201h121l62 307h209l-62 -307h147l62 307h206l-61 -307h125l-46 -201h-118l-47 -235h124l-47 -202h-115l-64 -329h-209l65 329h-148l-63 -329h-207l64 329h-130zM409 639h147l45 235h-148z" />
<glyph unicode="$" d="M115 1118q0 166 81 263t217 127v196h203v-188q75 -4 132 -20t108 -41l-70 -222q-32 17 -74.5 31t-95.5 20v-420q55 -34 109.5 -73t98 -92t71 -121.5t27.5 -160.5q0 -183 -83 -289.5t-223 -139.5v-201h-203v185q-102 4 -174.5 24.5t-114.5 48.5l69 227q33 -23 89.5 -42 t130.5 -27v468q-55 32 -108 70.5t-95 90.5t-68.5 121t-26.5 165zM368 1136q0 -66 38.5 -112t95.5 -87v352q-77 -9 -105.5 -54.5t-28.5 -98.5zM528 205q69 12 103 62t34 123t-38.5 120.5t-98.5 87.5v-393z" />
<glyph unicode="%" horiz-adv-x="1532" d="M87 0zM87 1154q0 98 23.5 166t66 112t101.5 64t128 20q71 0 130 -18t101.5 -60.5t67 -112t24.5 -171.5t-24.5 -171t-67 -111.5t-101.5 -61t-130 -18.5q-70 0 -128.5 18.5t-101 61t-66 111.5t-23.5 171zM171 96l1054 1424l149 -123l-1052 -1427zM313 1154 q0 -102 22 -143.5t71 -41.5q26 0 44.5 7.5t30 28.5t17 57.5t5.5 91.5q0 109 -23.5 147.5t-73.5 38.5q-49 0 -71 -38.5t-22 -147.5zM828 364q0 98 23.5 166t66 112t101.5 64t128 20q71 0 130 -18t101.5 -60.5t67 -112t24.5 -171.5t-24.5 -171t-67 -111.5t-101.5 -61 t-130 -18.5q-70 0 -128.5 18.5t-101 61t-66 111.5t-23.5 171zM1054 364q0 -102 22 -143.5t71 -41.5q26 0 44.5 7.5t30 28.5t17 57.5t5.5 91.5q0 109 -23.5 147.5t-73.5 38.5q-49 0 -71 -38.5t-22 -147.5z" />
<glyph unicode="&#x26;" horiz-adv-x="1428" d="M149 413q0 81 22 153.5t63 136t95.5 118.5t115.5 97q-45 71 -73.5 145.5t-28.5 154.5q0 53 16.5 107.5t55 98t99.5 70t148 26.5q84 0 143 -22t96.5 -59t54.5 -86.5t17 -102.5q0 -89 -53 -184t-174 -184q53 -100 113.5 -201.5t134.5 -194.5q41 53 69 126t51 152l189 -87 q-10 -38 -29.5 -87t-43 -97t-46.5 -91.5t-44 -73.5q53 -62 98.5 -99.5t90.5 -64.5l-130 -194q-57 28 -111.5 72.5t-105.5 104.5q-64 -73 -156.5 -125t-231.5 -52q-96 0 -177.5 29t-141.5 85t-93 139.5t-33 189.5zM402 433q0 -109 61 -169.5t159 -60.5q69 0 126 34.5t87 77.5 q-85 113 -154 220.5t-118 210.5q-75 -75 -118 -146.5t-43 -166.5zM596 1205q0 -93 62 -191q62 53 89.5 101t27.5 90q0 49 -22.5 80.5t-69.5 31.5q-42 0 -64.5 -31.5t-22.5 -80.5z" />
<glyph unicode="'" horiz-adv-x="461" d="M156 1031v460h218l-65 -460h-153z" />
<glyph unicode="(" horiz-adv-x="591" d="M102 518q0 117 16 246.5t51.5 260.5t91.5 257t139 234l171 -95q-57 -100 -97.5 -212t-67 -229.5t-38.5 -235.5t-12 -226q0 -102 13 -219.5t38.5 -235.5t67 -229t98.5 -200l-177 -103q-81 102 -136 224.5t-90.5 251.5t-51.5 260t-16 251z" />
<glyph unicode=")" horiz-adv-x="591" d="M19 -370q63 106 105 219t66.5 227.5t35 230t10.5 223.5q0 102 -12.5 220.5t-40 237t-68 229t-96.5 202.5l177 97q81 -102 136.5 -224.5t90.5 -251t51 -259.5t16 -251q0 -117 -16 -247t-51 -260.5t-91.5 -256.5t-140.5 -235z" />
<glyph unicode="*" horiz-adv-x="687" d="M61 1163v152h116l106 -35l-96 88l-53 99l128 75l51 -91l28 -120l23 110l55 101l126 -72l-57 -104l-90 -86l118 32h110v-149h-106l-111 34l95 -96l47 -85l-127 -75l-52 92l-33 130l-22 -117l-55 -101l-128 75l57 102l84 73l-100 -32h-114z" />
<glyph unicode="+" horiz-adv-x="945" d="M73 609v226h283v311h234v-311h284v-226h-284v-313h-234v313h-283z" />
<glyph unicode="," horiz-adv-x="417" d="M59 -211q49 26 87.5 82t42.5 114q-44 -2 -81 35t-37 118q0 73 42.5 114.5t105.5 41.5q82 0 125.5 -57.5t43.5 -159.5q0 -94 -26.5 -162t-65 -114t-82 -74t-76.5 -40z" />
<glyph unicode="-" horiz-adv-x="634" d="M96 490v243h443v-243h-443z" />
<glyph unicode="." horiz-adv-x="408" d="M73 138q0 79 41.5 119.5t109.5 40.5q74 0 115 -40.5t41 -119.5q0 -77 -42 -119.5t-114 -42.5q-71 0 -111 42.5t-40 119.5z" />
<glyph unicode="/" horiz-adv-x="742" d="M-38 -224l626 1740l194 -75l-624 -1739z" />
<glyph unicode="0" d="M75 748q0 209 28.5 355.5t83.5 239t136.5 135t185.5 42.5q110 0 192.5 -42.5t136.5 -135t80.5 -239t26.5 -355.5q0 -211 -29.5 -359.5t-85 -241t-136 -135t-185.5 -42.5q-111 0 -193 43.5t-135 139t-79.5 242t-26.5 353.5zM328 748q0 -285 42.5 -418.5t141.5 -133.5 q46 0 81 30t56.5 96t32.5 170t11 256q0 283 -42 415t-142 132q-49 0 -83 -29.5t-55.5 -96t-32 -171t-10.5 -250.5z" />
<glyph unicode="1" d="M110 1116l412 400h149v-1290h238v-226h-724v226h243v837l28 144l-88 -125l-140 -109z" />
<glyph unicode="2" d="M128 1390q69 60 157.5 95t210.5 35q77 0 143 -24t114 -73t75.5 -121.5t27.5 -167.5q0 -111 -32 -227.5t-81.5 -227t-109.5 -211t-117 -176.5l-94 -87v-12l127 33h331v-226h-748v147q45 55 97 126.5t104.5 151t101.5 166t86 173t59.5 169.5t22.5 156q0 89 -42.5 144.5 t-132.5 55.5q-55 0 -110.5 -24.5t-93.5 -59.5z" />
<glyph unicode="3" d="M138 36l69 214q45 -24 98 -39t121 -15q104 0 158.5 70.5t54.5 178.5q0 240 -239 240h-125v146l211 358l102 95l-141 -18h-291v225h681v-151l-247 -403l-78 -57v-11l78 13q59 -4 114.5 -31.5t97 -79t66 -128t24.5 -181.5q0 -126 -34.5 -217.5t-95.5 -153t-143 -91.5 t-176 -30q-79 0 -166.5 17t-138.5 49z" />
<glyph unicode="4" d="M36 415v158l545 929h222v-870h187v-217h-187v-415h-240v415h-527zM260 616l108 16h195v331l23 191h-9l-63 -172l-169 -285z" />
<glyph unicode="5" d="M122 28l65 214q79 -39 203 -39q115 0 174.5 74.5t59.5 191.5q0 134 -70 193.5t-202 59.5l-139 -9v778h620v-247h-402v-305l69 8q173 -6 275.5 -127t102.5 -341q0 -125 -36.5 -221t-99.5 -160t-150.5 -96t-189.5 -32q-76 0 -153.5 16t-126.5 42z" />
<glyph unicode="6" d="M92 535q0 217 52 388.5t140 295t202.5 199t239.5 102.5l64 -205q-83 -21 -155 -68.5t-130 -113.5t-97.5 -150t-58.5 -178q37 51 92 83t136 32q77 0 142 -28t113 -85t74.5 -143.5t26.5 -201.5q0 -114 -30.5 -205t-85.5 -155t-130 -98t-165 -34q-94 0 -173 33t-136 101.5 t-89 176t-32 254.5zM337 477q0 -55 10.5 -105.5t32.5 -90t55.5 -62.5t80.5 -23q77 0 124.5 65t47.5 186q0 130 -43.5 189t-132.5 59q-64 0 -109 -36.5t-64 -85.5q-2 -24 -2 -48.5v-47.5z" />
<glyph unicode="7" d="M110 1248v243h808v-81l-483 -1410h-248l403 1165l77 105l-106 -22h-451z" />
<glyph unicode="8" d="M106 358q0 77 17 137.5t47.5 108.5t67.5 86t79 70q-83 66 -131 152.5t-48 213.5q0 181 101.5 287.5t278.5 106.5q162 0 262 -93.5t100 -265.5q0 -126 -47 -213.5t-134 -161.5q106 -75 159.5 -168.5t53.5 -235.5q0 -96 -31 -173t-85 -130t-129 -81t-163 -28 q-89 0 -161.5 27t-125.5 76t-82 121t-29 164zM339 407q0 -90 44.5 -150.5t125.5 -60.5q72 0 115 46t43 140q0 53 -17.5 95.5t-46 75.5t-64 60.5t-68.5 53.5q-75 -58 -103.5 -125t-28.5 -135zM382 1122q0 -49 13.5 -86t37 -67t54.5 -54.5t64 -45.5q49 58 74 114t25 129 q0 87 -39.5 135t-94.5 48q-71 0 -102.5 -52t-31.5 -121z" />
<glyph unicode="9" d="M79 1024q0 226 107.5 361t309.5 135q198 0 316.5 -140t118.5 -421q0 -248 -53 -427.5t-142.5 -299t-207 -183.5t-243.5 -79l-59 213q191 39 297.5 167.5t136.5 311.5q-40 -53 -87 -74t-122 -21q-65 0 -132 26.5t-120.5 83t-86.5 142.5t-33 205zM323 1039 q0 -122 52.5 -184.5t133.5 -62.5q61 0 104 22.5t66 63.5q4 24 5 49t1 49q0 65 -10 124t-33.5 101.5t-60 68t-87.5 25.5q-81 0 -126 -68t-45 -188z" />
<glyph unicode=":" horiz-adv-x="534" d="M164 0zM165 138q0 79 41.5 119.5t109.5 40.5q74 0 115 -40.5t41 -119.5q0 -77 -42 -119.5t-114 -42.5q-71 0 -111 42.5t-40 119.5zM165 909q0 79 41.5 119.5t109.5 40.5q74 0 115 -40.5t41 -119.5q0 -77 -42 -119.5t-114 -42.5q-71 0 -111 42.5t-40 119.5z" />
<glyph unicode=";" horiz-adv-x="534" d="M142 0zM142 -211q49 26 87.5 82t42.5 114q-44 -2 -81 35t-37 118q0 73 42.5 114.5t105.5 41.5q82 0 125.5 -57.5t43.5 -159.5q0 -94 -26.5 -162t-65 -114t-82 -74t-76.5 -40zM156 909q0 79 41.5 119.5t109.5 40.5q74 0 115 -40.5t41 -119.5q0 -77 -42 -119.5t-114 -42.5 q-71 0 -111 42.5t-40 119.5z" />
<glyph unicode="&#x3c;" horiz-adv-x="945" d="M75 607v149l662 473l127 -172l-395 -297l-160 -75l158 -65l407 -292l-128 -172z" />
<glyph unicode="=" horiz-adv-x="945" d="M81 409v225h783v-225h-783zM81 409zM81 817v225h783v-225h-783z" />
<glyph unicode="&#x3e;" horiz-adv-x="945" d="M73 1059l132 168l667 -449v-150l-659 -468l-132 170l398 294l157 77l-157 63z" />
<glyph unicode="?" horiz-adv-x="813" d="M41 1404q65 49 154.5 82.5t217.5 33.5q170 0 267.5 -92.5t97.5 -260.5q0 -100 -24 -169t-60 -121t-77.5 -95t-77 -89.5t-59.5 -106.5t-24 -143h-216q-8 98 9 171.5t47 130t68 101t72.5 88.5t57 91.5t22.5 108.5q0 74 -35.5 117.5t-116.5 43.5q-55 0 -117 -22.5 t-107 -60.5zM207 138q0 79 41.5 119.5t109.5 40.5q75 0 115.5 -40.5t40.5 -119.5q0 -77 -41.5 -119.5t-114.5 -42.5q-71 0 -111 42.5t-40 119.5z" />
<glyph unicode="@" horiz-adv-x="1876" d="M122 502q0 224 71 401t190 298.5t274.5 185.5t326.5 64q162 0 303.5 -48t245 -143t163.5 -236.5t60 -328.5q0 -141 -42 -261.5t-112 -207t-165 -135t-201 -48.5q-88 0 -149 44.5t-56 154.5h-7q-48 -81 -117.5 -140t-169.5 -59q-91 0 -155 81t-64 225q0 143 35 269 t94.5 220.5t138 150t169.5 55.5q59 0 101.5 -21t79.5 -58l53 66h140l-83 -582q-26 -193 61 -193q43 0 84.5 25.5t75 78.5t53.5 136t20 199q0 146 -41.5 251.5t-116.5 173t-177 99t-223 31.5q-136 0 -254.5 -54t-204.5 -152.5t-136 -234.5t-50 -303q0 -325 161.5 -495.5 t453.5 -170.5q55 0 122.5 15t120.5 43l61 -185q-68 -36 -149 -54.5t-182 -18.5q-169 0 -315 51t-254 156.5t-171 268.5t-63 386zM752 411q0 -75 24.5 -115t75.5 -40q47 0 94.5 52t79.5 116l49 362q-38 45 -99 45q-49 0 -89.5 -35.5t-70.5 -94t-47 -134t-17 -156.5z" />
<glyph unicode="A" horiz-adv-x="1067" d="M-6 0l432 1502h210l435 -1502h-281l-91 337h-352l-87 -337h-266zM405 558h247l-85 347l-35 235h-8l-36 -237z" />
<glyph unicode="B" horiz-adv-x="1043" d="M96 10v1470q70 12 173 22t206 10q94 0 180.5 -15t151.5 -55t102.5 -111.5t37.5 -184.5q0 -55 -11 -109.5t-36.5 -102.5t-67.5 -84.5t-99 -54.5v-13q51 -12 97 -38t79.5 -70t54 -107t20.5 -148q0 -115 -39.5 -199t-106.5 -137t-156.5 -78.5t-189.5 -25.5h-77t-101 3 t-111.5 9.5t-106.5 18.5zM364 224q17 -7 58.5 -10t75.5 -3q90 0 147.5 57.5t57.5 168.5q0 71 -19 112t-51 63t-73.5 29t-86.5 7h-109v-424zM364 858h62q24 0 55 3t49 8q62 24 105.5 77t43.5 138q0 55 -14.5 93.5t-40.5 60.5t-61 32t-75 10q-88 0 -124 -8v-414z" />
<glyph unicode="C" horiz-adv-x="972" d="M61 748q0 225 48.5 374.5t126 238t178 124t202.5 35.5q104 0 182 -16.5t127 -38.5l-53 -236q-41 21 -95.5 33t-128.5 12q-147 0 -226 -128t-79 -400q0 -118 18.5 -214.5t57.5 -167t99.5 -109t146.5 -38.5q74 0 127.5 20.5t95.5 47.5l53 -226q-55 -47 -147.5 -68 t-184.5 -21q-115 0 -214 39.5t-173.5 131t-117.5 240.5t-43 367z" />
<glyph unicode="D" horiz-adv-x="1138" d="M96 -2v1493q38 7 86 10t98 6t97 4t83 1q176 0 295 -54t190 -153.5t100.5 -237.5t29.5 -309q0 -156 -28.5 -297.5t-100.5 -249t-196 -171.5t-311 -64q-28 0 -75 2.5t-98 6t-97.5 6.5t-72.5 7zM364 232q6 -2 22 -3t34.5 -2t34.5 -2t22 -1q96 0 158 44.5t96.5 119t49 171.5 t14.5 203q0 98 -12 190t-45 161t-94 111t-156 42q-35 0 -69.5 -1.5t-54.5 -6.5v-1026z" />
<glyph unicode="E" horiz-adv-x="915" d="M96 0v1491h745v-247h-477v-366h433v-248h-433v-382h486v-248h-754z" />
<glyph unicode="F" horiz-adv-x="892" d="M96 0v1491h745v-247h-477v-388h439v-247h-439v-609h-268z" />
<glyph unicode="G" horiz-adv-x="1069" d="M61 746q0 213 47.5 359.5t125 239t181 134t217.5 41.5q102 0 186.5 -18t140.5 -41l-56 -232q-43 19 -99 32t-137 13q-75 0 -135.5 -30t-102 -94t-64 -165t-22.5 -241q0 -271 81.5 -399t216.5 -128q42 0 81.5 12.5t69.5 40.5v305l-245 34v162h461v-661 q-79 -75 -184.5 -107.5t-209.5 -32.5q-126 0 -228.5 44.5t-174 140t-111 241t-39.5 350.5z" />
<glyph unicode="H" horiz-adv-x="1134" d="M96 0v1491h268v-613h407v613h268v-1491h-268v630h-407v-630h-268z" />
<glyph unicode="I" horiz-adv-x="506" d="M120 0v1491h268v-1491h-268z" />
<glyph unicode="J" horiz-adv-x="614" d="M-36 24l62 226q45 -28 104 -28q75 0 92.5 62.5t17.5 179.5v1027h269v-1084q0 -98 -16 -178t-52 -136.5t-96 -87.5t-149 -31q-62 0 -123 13t-109 37z" />
<glyph unicode="K" horiz-adv-x="1104" d="M96 0v1491h268v-662l53 25l313 637h303l-340 -629l-101 -78l103 -81l394 -703h-329l-338 639h-58v-639h-268z" />
<glyph unicode="L" horiz-adv-x="902" d="M96 0v1491h268v-1243h524v-248h-792z" />
<glyph unicode="M" horiz-adv-x="1413" d="M96 0v1491h258l311 -645l51 -186h8l49 190l292 641h254v-1491h-269v769l30 286h-11l-79 -256l-242 -524h-90l-258 526l-79 258h-12l40 -288v-771h-253z" />
<glyph unicode="N" horiz-adv-x="1149" d="M96 0v1502h207l427 -750l93 -258h12l-34 254v743h254v-1501h-207l-424 743l-98 261h-11l34 -257v-737h-253z" />
<glyph unicode="O" horiz-adv-x="1177" d="M61 746q0 379 130 576.5t397 197.5q138 0 238.5 -54t164.5 -155t94.5 -245t30.5 -320q0 -380 -133 -578t-395 -198q-141 0 -239.5 54.5t-162.5 155.5t-94.5 245t-30.5 321zM343 746q0 -114 12.5 -210.5t42.5 -167t76 -111t114 -40.5q123 0 185 126t62 403q0 108 -13 205 t-41.5 168.5t-75.5 113t-117 41.5q-245 0 -245 -528z" />
<glyph unicode="P" horiz-adv-x="1015" d="M96 0v1476q77 16 168.5 26t182.5 10q98 0 193 -18t169.5 -71t121.5 -150.5t47 -252.5q0 -140 -39.5 -238.5t-106 -159.5t-152.5 -89.5t-178 -28.5h-27t-40.5 1t-42 4t-28.5 5v-514h-268zM364 754q12 -4 47.5 -7t48.5 -3q46 0 89 12.5t76 43.5t52.5 85t19.5 137 q0 71 -18.5 120t-49.5 77.5t-71 41.5t-85 13q-65 0 -109 -11v-509z" />
<glyph unicode="Q" horiz-adv-x="1177" d="M61 746q0 379 130 576.5t397 197.5q138 0 238.5 -54t164.5 -155t94.5 -245t30.5 -320q0 -380 -133 -578t-395 -198q-141 0 -239.5 54.5t-162.5 155.5t-94.5 245t-30.5 321zM343 746q0 -114 12.5 -210.5t42.5 -167t76 -111t114 -40.5q123 0 185 126t62 403q0 108 -13 205 t-41.5 168.5t-75.5 113t-117 41.5q-245 0 -245 -528zM352 -79q50 12 101 13q73 0 146.5 -21t149.5 -46t155.5 -46.5t166.5 -21.5q39 0 79.5 6t82.5 18v-240q-42 -15 -86 -21.5t-86 -6.5q-90 0 -174 21.5t-162.5 48t-152.5 47.5t-139 21q-21 0 -42 -2t-39 -8v238z" />
<glyph unicode="R" horiz-adv-x="1071" d="M96 0v1476q87 18 187.5 27t172.5 9q91 0 178.5 -18t154.5 -66t108.5 -130t41.5 -207q0 -181 -67 -295.5t-184 -156.5l85 -68l275 -571h-309l-260 588l-115 28v-616h-268zM364 799h92q99 0 150.5 60.5t51.5 188.5q0 96 -42.5 157t-133.5 61q-35 0 -66.5 -3t-51.5 -9v-455z " />
<glyph unicode="S" horiz-adv-x="934" d="M41 53l87 241q43 -26 117 -51.5t160 -25.5q213 0 213 167q0 68 -40.5 115.5t-101.5 90t-132.5 87.5t-132 104.5t-100.5 141t-40 197.5q0 108 32.5 184t90.5 124t136.5 70t167.5 22q108 0 202.5 -21t155.5 -58l-83 -236q-37 26 -108 47.5t-153 21.5q-84 0 -128.5 -34.5 t-44.5 -99.5q0 -59 40 -105.5t101 -89t132 -88.5t132 -106t101.5 -142.5t40.5 -195.5t-33 -196t-93.5 -137t-146 -82t-189.5 -28q-132 0 -231 25.5t-152 57.5z" />
<glyph unicode="T" horiz-adv-x="1006" d="M17 1244v247h973v-247h-351v-1244h-269v1244h-353z" />
<glyph unicode="U" horiz-adv-x="1096" d="M89 488v1003h269v-956q0 -175 46.5 -244t156.5 -69q104 0 148.5 73t44.5 240v956h254v-967q0 -290 -118.5 -420t-326.5 -130q-246 0 -360 127t-114 387z" />
<glyph unicode="V" horiz-adv-x="1071" d="M-21 1491h317l222 -875l29 -256h9l34 258l217 873h284l-452 -1501h-204z" />
<glyph unicode="W" horiz-adv-x="1526" d="M-4 1491h296l145 -820l21 -269h9l23 273l201 816h187l193 -820l24 -269h8l23 273l132 816h274l-335 -1501h-189l-209 821l-28 233h-11l-25 -235l-209 -819h-198z" />
<glyph unicode="X" horiz-adv-x="1124" d="M12 0l364 758l-329 733h323l173 -426l40 -162l39 162l181 426h290l-341 -718l358 -773h-313l-201 458l-45 166l-42 -166l-200 -458h-297z" />
<glyph unicode="Y" horiz-adv-x="1053" d="M-8 1491h319l207 -564l21 -163h10l24 167l202 560h288l-403 -935v-556h-268v553z" />
<glyph unicode="Z" horiz-adv-x="947" d="M45 0v248l498 908l89 88h-587v247h858v-247l-501 -916l-87 -80h588v-248h-858z" />
<glyph unicode="[" horiz-adv-x="587" d="M96 -490v1981h443v-219h-198v-1542h198v-220h-443z" />
<glyph unicode="\" horiz-adv-x="770" d="M-38 1439l200 75l633 -1733l-199 -79z" />
<glyph unicode="]" horiz-adv-x="585" d="M49 -270h196v1542h-196v219h441v-1981h-441v220z" />
<glyph unicode="^" horiz-adv-x="911" d="M38 880l348 622h144l330 -622h-253l-119 260l-37 155l-44 -157l-126 -258h-243z" />
<glyph unicode="_" horiz-adv-x="795" d="M0 -260h797v-217h-797v217z" />
<glyph unicode="`" horiz-adv-x="616" d="M128 1470v64h258l104 -329h-141z" />
<glyph unicode="a" horiz-adv-x="878" d="M36 294q0 192 136 273q116 69 303 69q32 0 66 -2q3 34 3 63q0 77 -20 117q-26 56 -113 55q-64 0 -132 -15t-121 -43l-64 191q63 38 159 61t218 23q181 0 252.5 -93.5t71.5 -266.5q0 -100 -5 -196q-6 -98 -8 -190q-1 -26 -1 -52q0 -64 4 -126q5 -86 28 -164h-206l-40 130 h-9q-34 -61 -96 -102t-155 -41q-126 0 -198.5 84t-72.5 225zM298 337q0 -66 27 -100t73 -34q58 0 94 28.5t53 62.5v177q-29 4 -57 4q-18 0 -36 -2q-44 -4 -78.5 -19t-55 -43.5t-20.5 -73.5z" />
<glyph unicode="b" horiz-adv-x="943" d="M92 43v1448h253v-495h7q76 94 219 95q151 0 235 -126t84 -404q0 -303 -119 -445t-326 -142q-113 0 -208 21.5t-145 47.5zM345 230q43 -23 111 -23h6q81 0 123.5 77.5t42.5 260.5q0 162 -33.5 237.5t-106.5 75.5q-106 0 -143 -110v-518z" />
<glyph unicode="c" horiz-adv-x="744" d="M53 532q0 279 100.5 420t293.5 141q96 0 157 -17t107 -43l-59 -210q-38 18 -73.5 27.5t-84.5 9.5q-89 0 -134 -77.5t-45 -250.5q0 -144 46 -235.5t145 -91.5q54 0 91 13.5t70 35.5l53 -197q-53 -42 -127.5 -63.5t-149.5 -21.5q-108 0 -182 39.5t-120.5 113t-67 177 t-20.5 230.5z" />
<glyph unicode="d" horiz-adv-x="947" d="M53 516q0 281 100.5 427t297.5 146q51 0 85.5 -7t66.5 -21v430h253v-1117q0 -89 2 -178.5t18 -197.5h-179l-35 124h-8q-73 -149 -254 -150q-162 0 -254.5 128t-92.5 416zM315 506q0 -146 35 -223.5t110 -77.5q57 0 91.5 28.5t51.5 83.5v503q-21 18 -48 27t-69 9 q-86 0 -128.5 -76.5t-42.5 -273.5z" />
<glyph unicode="e" horiz-adv-x="911" d="M53 532q0 288 114 425.5t317 137.5q68 0 131.5 -20t114 -68t81 -128t30.5 -202q0 -47 -5 -100t-16 -115h-517q4 -132 55 -202.5t164 -70.5q69 0 125 21.5t86 45.5l78 -177q-53 -47 -144.5 -77t-191.5 -30q-110 0 -190 38.5t-131.5 110.5t-76 175.5t-24.5 235.5zM311 630 h294q1 22 1 42q0 91 -26 143q-32 63 -101 63q-81 0 -121.5 -65t-46.5 -183z" />
<glyph unicode="f" horiz-adv-x="567" d="M17 839v226h115v59q0 203 75.5 293.5t216.5 90.5t234 -38l-46 -216q-39 15 -68.5 18.5t-61.5 3.5q-62 0 -79 -48t-17 -163h181v-226h-181v-839h-254v839h-115z" />
<glyph unicode="g" horiz-adv-x="943" d="M53 512q0 296 116 436.5t331 140.5q116 0 207.5 -18.5t146.5 -44.5v-1026q0 -232 -106.5 -341.5t-296.5 -109.5q-132 0 -206 20t-115 43l53 215q47 -18 101.5 -35.5t128.5 -17.5q108 0 150 59t42 177v59h-7q-30 -43 -79.5 -64.5t-128.5 -21.5q-168 0 -252.5 126.5 t-84.5 402.5zM315 522q0 -321 145 -321q57 0 90 27.5t51 78.5v532q-24 11 -52.5 17t-66.5 6q-80 0 -123.5 -76.5t-43.5 -263.5z" />
<glyph unicode="h" horiz-adv-x="955" d="M92 0v1491h253v-522h7q42 55 103 89.5t152 34.5q66 0 115 -19t83 -64t51.5 -121t17.5 -190v-699h-254v643q0 115 -26.5 166t-97.5 51q-51 0 -93.5 -36t-57.5 -91v-733h-253z" />
<glyph unicode="i" horiz-adv-x="478" d="M83 0zM83 1366q0 63 40.5 104.5t114.5 41.5q75 0 119.5 -40.5t44.5 -105.5q0 -66 -44.5 -104.5t-119.5 -38.5t-115 39.5t-40 103.5zM113 0v1065h253v-1065h-253z" />
<glyph unicode="j" horiz-adv-x="478" d="M-34 -203q11 -1 20 -1q74 0 100 54q29 61 29 180v1035h253v-1110q0 -193 -67 -295.5t-214 -102.5q-59 0 -121 15v225zM0 0zM83 1366q0 63 40.5 104.5t114.5 41.5q75 0 119.5 -40.5t44.5 -105.5q0 -66 -44.5 -104.5t-119.5 -38.5t-115 39.5t-40 103.5z" />
<glyph unicode="k" horiz-adv-x="876" d="M92 0v1491h253v-879l51 29l177 424h275l-196 -422l-91 -72l99 -73l218 -498h-286l-187 441h-60v-441h-253z" />
<glyph unicode="l" horiz-adv-x="516" d="M96 209v1282h253v-1146q0 -75 15.5 -106.5t48.5 -31.5q19 0 39.5 4t45.5 15l24 -205q-26 -17 -88 -32t-125 -15q-106 0 -159.5 53.5t-53.5 181.5z" />
<glyph unicode="m" horiz-adv-x="1411" d="M92 0v1065h195l32 -128h7q40 66 101 110t161 44q83 0 135 -36.5t82 -127.5q41 77 107 120.5t155 43.5q71 0 121 -18t80.5 -63t45.5 -123t15 -196v-691h-254v648q0 108 -19 159t-85 51q-53 0 -86 -30.5t-48 -83.5v-744h-254v620q0 134 -21 186t-83 52q-51 0 -84 -33 t-50 -79v-746h-253z" />
<glyph unicode="n" horiz-adv-x="955" d="M92 0v1065h202l29 -124h7q38 62 104 106t173 44q64 0 114 -19.5t84 -63t51.5 -117.5t17.5 -182v-709h-254v648q0 117 -27.5 163.5t-94.5 46.5q-55 0 -95.5 -34t-57.5 -85v-739h-253z" />
<glyph unicode="o" horiz-adv-x="947" d="M53 532q0 283 111 422t309 139q213 0 317 -141t104 -420q0 -284 -110.5 -422t-310.5 -138q-420 0 -420 560zM315 532q0 -160 36.5 -247t121.5 -87q81 0 120 75.5t39 258.5q0 165 -35.5 250t-123.5 85q-75 0 -116.5 -75.5t-41.5 -259.5z" />
<glyph unicode="p" horiz-adv-x="951" d="M92 -426v1491h189l26 -122h6q49 77 110 112.5t150 35.5q162 0 244 -122.5t82 -407.5t-102 -438t-297 -153q-51 0 -87.5 9t-67.5 27v-432h-253zM345 238q21 -21 47.5 -31.5t69.5 -10.5q85 0 129.5 84t44.5 287q0 151 -33.5 224t-112.5 73q-106 0 -145 -125v-501z" />
<glyph unicode="q" horiz-adv-x="943" d="M53 512q0 285 121.5 431t345.5 146q96 0 188.5 -19.5t145.5 -43.5v-1452h-253v501h-9q-30 -47 -77.5 -76t-128.5 -29q-158 0 -245.5 134t-87.5 408zM315 522q0 -325 145 -326q57 0 90 29t51 82v530q-43 25 -114 25h-5q-84 0 -125.5 -79.5t-41.5 -260.5z" />
<glyph unicode="r" horiz-adv-x="624" d="M92 0v1065h193l30 -128h8q29 71 81 110t120 39q51 0 100 -21l-30 -252q-51 19 -94 20q-57 0 -98.5 -32t-56.5 -90v-711h-253z" />
<glyph unicode="s" horiz-adv-x="744" d="M41 49l69 205q45 -26 103.5 -45.5t123.5 -19.5q49 0 80.5 22.5t31.5 71.5q0 45 -28.5 76t-73 57.5t-94.5 54t-95 68t-74 98.5t-29 145q0 149 81 230t238 81q94 0 177 -20.5t132 -50.5l-59 -195q-41 16 -98 32.5t-113 16.5q-104 0 -104 -88q0 -40 28.5 -66.5t73.5 -52.5 t95 -53.5t95 -69.5t73.5 -101t28.5 -147q0 -146 -89.5 -236t-266.5 -90q-87 0 -171 21.5t-135 55.5z" />
<glyph unicode="t" horiz-adv-x="618" d="M8 839v226h118v201l254 78v-279h206v-226h-206v-465q0 -91 17.5 -129t64.5 -38q32 0 57.5 6t55.5 19l32 -202q-46 -24 -108 -40t-131 -16q-122 0 -182 70.5t-60 236.5v558h-118z" />
<glyph unicode="u" horiz-adv-x="949" d="M83 372v693h254v-637q0 -125 23.5 -174t84.5 -49q59 0 100 43.5t58 105.5v711h253v-742q0 -87 6.5 -170.5t23.5 -152.5h-191l-45 145h-7q-41 -75 -110 -124t-171 -49q-66 0 -117.5 18t-87 63t-55 123t-19.5 196z" />
<glyph unicode="v" horiz-adv-x="849" d="M-28 1065h296l147 -556l26 -168h8l24 171l132 553h273l-358 -1075h-171z" />
<glyph unicode="w" horiz-adv-x="1268" d="M-15 1065h275l114 -535l20 -189h8l29 191l130 533h189l149 -545l26 -177h8l22 179l100 543h229l-262 -1075h-199l-161 593l-16 137h-14l-14 -141l-154 -589h-206z" />
<glyph unicode="x" horiz-adv-x="934" d="M8 0l275 545l-253 520h298l109 -252l40 -136l45 136l110 252h275l-255 -512l273 -553h-289l-130 277l-46 151l-49 -151l-130 -277h-273z" />
<glyph unicode="y" horiz-adv-x="851" d="M-21 1065h304l150 -598l27 -166h11l19 168l124 596h260l-267 -961q-36 -126 -68.5 -226t-68 -170t-81.5 -107.5t-110 -37.5q-45 0 -86.5 7.5t-70.5 24.5l42 218q28 -11 57 -10t53 21t43.5 62.5t31.5 113.5z" />
<glyph unicode="z" horiz-adv-x="811" d="M51 0v226l345 522l94 91h-439v226h705v-226l-341 -530l-92 -83h433v-226h-705z" />
<glyph unicode="{" horiz-adv-x="666" d="M69 398v205q68 0 104 44t36 137v456q0 113 43.5 183t149.5 70h228v-217h-87q-49 0 -70.5 -30t-21.5 -98v-432q0 -94 -35.5 -142t-85.5 -58v-22q49 -8 85 -64t36 -145v-430q0 -65 20.5 -96t73.5 -31h85v-218h-228q-193 0 -193 252v447q0 108 -36.5 148.5t-103.5 40.5z" />
<glyph unicode="|" horiz-adv-x="400" d="M96 -277v1768h209v-1768h-209z" />
<glyph unicode="}" horiz-adv-x="666" d="M36 -272h88q49 0 70 29.5t21 97.5v432q0 94 36 142t86 59v21q-49 8 -85.5 63.5t-36.5 145.5v430q0 66 -20 97t-73 31h-86v217h228q194 0 194 -249v-449q0 -109 36 -149.5t104 -40.5v-205q-69 0 -104.5 -43.5t-35.5 -137.5v-457q0 -116 -46 -184t-154 -68h-222v218z" />
<glyph unicode="~" horiz-adv-x="945" d="M49 805q83 81 151 111.5t126 30.5q50 0 95.5 -16.5t85.5 -37.5t79.5 -38.5t82.5 -17.5q32 0 64.5 13.5t69.5 45.5l93 -219q-63 -57 -116.5 -79.5t-100.5 -22.5q-49 0 -92.5 18.5t-85 40.5t-83.5 41.5t-86 19.5q-43 0 -91 -22.5t-105 -80.5z" />
<glyph unicode="&#xa1;" horiz-adv-x="532" d="M73 925q0 79 41.5 119t109.5 40q74 0 115 -40t41 -119q0 -77 -42 -120t-114 -43q-71 0 -111 43t-40 120zM94 275l48 345h163l51 -345v-701h-262v701z" />
<glyph unicode="&#xa2;" d="M149 532q0 234 86 376t249 176v194h238v-194q91 -15 150 -51l-55 -204q-26 10 -56.5 17.5t-59.5 11.5v-653q43 6 74.5 18.5t55.5 28.5l51 -193q-30 -24 -71.5 -41.5t-88.5 -27.5v-203h-238v192q-92 15 -156 60.5t-103.5 118t-57.5 167t-18 207.5zM398 532 q0 -123 33 -206.5t106 -112.5v641q-69 -24 -104 -101.5t-35 -220.5z" />
<glyph unicode="&#xa3;" d="M94 0v232h4q53 2 95.5 25.5t70.5 62t42.5 87.5t14.5 102q0 61 -12 113h-215v213h128q-26 55 -45 123t-19 166q0 102 29.5 177t81.5 124t125 72t159 23q108 0 197 -21t157 -58l-80 -218q-37 21 -95.5 39t-139.5 18t-127 -49t-46 -151q0 -75 22.5 -131.5t52.5 -113.5h250 v-213h-177q4 -21 6 -41t2 -44q0 -62 -19 -134.5t-56 -117.5l-95 -74v-13l140 34h390v-232h-841z" />
<glyph unicode="&#xa4;" d="M-30 384l148 151l69 34q-24 38 -36.5 85t-12.5 104t14 106.5t39 92.5l-73 31l-148 150l148 155l150 -149l37 -71q38 30 90 43.5t109 13.5q56 0 111.5 -14.5t93.5 -40.5l37 69l148 149l152 -155l-150 -150l-71 -31q53 -79 53 -199q0 -57 -14 -107t-39 -86l71 -30l150 -151 l-152 -154l-148 146l-35 71q-36 -26 -93 -40.5t-114 -14.5t-109 13.5t-90 41.5l-37 -71l-150 -146zM349 760q0 -70 44 -117t113 -47q71 0 115 47.5t44 116.5t-44 118t-115 49q-70 0 -113.5 -49t-43.5 -118z" />
<glyph unicode="&#xa5;" d="M-26 1491h320l206 -564l22 -163h10l24 167l202 560h288l-335 -775h167v-169h-235v-123h235v-168h-235v-256h-269v256h-234v168h234v123h-234v169h165z" />
<glyph unicode="&#xa6;" horiz-adv-x="400" d="M96 -277v730h209v-730h-209zM96 760v731h209v-731h-209z" />
<glyph unicode="&#xa7;" horiz-adv-x="945" d="M81 752q0 65 26.5 129t75.5 113l75 30q-49 37 -81 88t-32 140q0 116 78 192t244 76q102 0 197.5 -20t142.5 -45l-63 -211q-45 21 -109 36t-119 15q-64 0 -91 -24.5t-27 -56.5q0 -41 34.5 -64.5t86.5 -42t113 -41t113 -62t85.5 -102.5t33.5 -163q0 -65 -26.5 -130.5 t-73.5 -114.5l-79 -30q49 -34 81.5 -86t32.5 -140q0 -130 -87.5 -199t-242.5 -69q-120 0 -204 23.5t-139 57.5l65 205q43 -24 102 -42t131 -18q64 0 92.5 21t28.5 66q0 40 -34 62.5t-86.5 43t-111.5 44t-111.5 63t-86.5 100t-34 156.5zM335 756q0 -71 52 -110t141 -73 q37 26 60.5 69t23.5 93q0 73 -53 108t-144 71q-36 -26 -58 -65.5t-22 -92.5z" />
<glyph unicode="&#xa8;" horiz-adv-x="919" d="M128 1386q0 69 37.5 107.5t98.5 38.5q59 0 95.5 -38.5t36.5 -107.5q0 -63 -36.5 -100.5t-95.5 -37.5q-61 0 -98.5 37.5t-37.5 100.5zM524 1386q0 69 36 107.5t98 38.5t98 -38.5t36 -107.5q0 -63 -36 -100.5t-98 -37.5q-61 0 -97.5 37.5t-36.5 100.5z" />
<glyph unicode="&#xa9;" horiz-adv-x="1543" d="M108 634q0 153 51.5 276t141 209t210.5 132t262 46q138 0 259.5 -46t211 -132t140.5 -208.5t51 -276.5q0 -152 -51 -275t-140.5 -209.5t-210.5 -132t-260 -45.5q-153 0 -277 45.5t-209.5 132t-132 209.5t-46.5 275zM292 634q0 -115 35 -205t99 -154t152.5 -98.5 t194.5 -34.5q104 0 193 34.5t152.5 98.5t98.5 154.5t35 204.5q0 116 -35 206.5t-98.5 154.5t-152 97.5t-193.5 33.5q-106 0 -194.5 -33.5t-152.5 -97.5t-99 -154.5t-35 -206.5zM464 634q0 167 83 258.5t222 91.5q68 0 120 -16t101 -43l-59 -165q-32 17 -60 22.5t-51 5.5 q-54 0 -82.5 -36t-28.5 -118q0 -152 124 -152q61 0 114 27l57 -166q-41 -26 -103 -42t-132 -16q-147 0 -226 95t-79 254z" />
<glyph unicode="&#xaa;" horiz-adv-x="738" d="M61 1012q0 71 31.5 117t84.5 74t123 37.5t147 5.5q4 55 -12 80.5t-75 25.5q-69 0 -124 -14.5t-94 -32.5l-46 132q46 30 131.5 50.5t194.5 20.5q141 0 193 -59t52 -179q0 -73 -2.5 -142t-2.5 -134q0 -51 2.5 -96.5t10.5 -88.5h-187l-28 94h-7q-20 -37 -64 -69.5 t-119 -32.5q-97 0 -153 58.5t-56 152.5zM281 1039q0 -34 18 -54t46 -20q49 0 70.5 19.5t31.5 39.5v96q-71 8 -118.5 -7.5t-47.5 -73.5z" />
<glyph unicode="&#xab;" horiz-adv-x="862" d="M47 551l279 490l162 -108l-162 -292l-84 -88l84 -76l170 -288l-159 -108zM392 556l266 460l145 -96l-147 -284l-81 -83l81 -74l157 -278l-144 -99z" />
<glyph unicode="&#xac;" horiz-adv-x="945" d="M85 646v226h784v-476h-239v250h-545z" />
<glyph unicode="&#xad;" horiz-adv-x="634" d="M96 490v243h443v-243h-443z" />
<glyph unicode="&#xae;" horiz-adv-x="1266" d="M115 1029q0 123 41.5 220t113 163t165 100t199.5 34q109 0 203 -34t164 -100t110.5 -163t40.5 -220q0 -124 -41.5 -221t-111.5 -163t-165 -99.5t-200 -33.5q-108 0 -202.5 33.5t-165 99.5t-111 163t-40.5 221zM290 1029q0 -90 27.5 -156t75.5 -109.5t110 -65t131 -21.5 q73 0 136 21.5t110 64t72.5 109.5t25.5 157q0 89 -28 155t-74.5 109.5t-108.5 66t-133 22.5q-156 0 -250 -93.5t-94 -259.5zM445 792v476q30 8 83 13t100 5q77 0 132 -31.5t55 -110.5q0 -57 -36.5 -89.5t-93.5 -36.5l52 -26l119 -200h-112l-116 192l-87 28v-220h-96z M541 1067h62q55 0 82.5 16t27.5 57q0 63 -104 63q-20 0 -39 -1t-29 -7v-128z" />
<glyph unicode="&#xaf;" horiz-adv-x="834" d="M128 1207v195h579v-195h-579z" />
<glyph unicode="&#xb0;" horiz-adv-x="774" d="M94 1167q0 79 22 145t61.5 112t95 71t121.5 25q136 0 220.5 -91.5t84.5 -261.5q0 -167 -84.5 -258.5t-220.5 -91.5q-134 0 -217 91.5t-83 258.5zM285 1167q0 -71 30 -118t81 -47q49 0 79.5 47.5t30.5 117.5q0 73 -30.5 121.5t-79.5 48.5q-51 0 -81 -47.5t-30 -122.5z" />
<glyph unicode="&#xb1;" horiz-adv-x="945" d="M81 311v226h783v-226h-783zM81 839v226h275v305h234v-305h274v-226h-274v-200h-234v200h-275z" />
<glyph unicode="&#xb2;" horiz-adv-x="750" d="M98 809v142q49 39 105.5 93.5t104.5 115t78.5 123t30.5 123.5q0 108 -98 108q-46 0 -87 -14t-70 -33l-64 177q61 43 134 59t134 16q128 0 200.5 -67t72.5 -195q0 -64 -16 -120.5t-41.5 -106.5t-59.5 -94.5t-71 -85.5l-83 -54v-8l105 24h190v-203h-565zM98 809z" />
<glyph unicode="&#xb3;" horiz-adv-x="750" d="M106 795zM106 845l45 183q79 -40 158 -40q77 0 107.5 32t30.5 83q0 49 -32.5 77.5t-118.5 28.5h-83v81l128 173l81 59l-107 -12h-197v193h510v-128l-148 -199l-65 -41v-8l58 6q90 -4 142 -67t52 -178q0 -77 -26.5 -132.5t-71.5 -91t-102.5 -53t-121.5 -17.5 q-70 0 -132 13.5t-107 37.5z" />
<glyph unicode="&#xb4;" horiz-adv-x="598" d="M128 1205l89 329h254v-64l-201 -265h-142z" />
<glyph unicode="&#xb5;" horiz-adv-x="1012" d="M85 -426v1491h254v-612q0 -127 36 -189.5t117 -62.5q75 0 117.5 37t63.5 101v726h254v-718q0 -87 5 -175.5t23 -171.5h-191l-59 136h-8q-26 -68 -79 -115t-141 -47q-63 0 -99.5 28t-66.5 71h-8l36 -215v-284h-254z" />
<glyph unicode="&#xb6;" horiz-adv-x="953" d="M45 1059q0 93 23.5 172t67 136.5t105.5 90.5t135 33h144v-1768h-207v903q-59 0 -109.5 33.5t-85.5 90.5t-54 136t-19 173zM652 -277v1768h206v-1768h-206z" />
<glyph unicode="&#xb7;" horiz-adv-x="451" d="M73 509zM73 670q0 79 41.5 119.5t109.5 40.5q74 0 115 -40.5t41 -119.5q0 -77 -42 -119.5t-114 -42.5q-71 0 -111 42.5t-40 119.5z" />
<glyph unicode="&#xb8;" horiz-adv-x="648" d="M128 -435l14 120q77 -13 112.5 -2.5t35.5 47.5q0 59 -150 67l105 203h162l-43 -92q73 -8 115.5 -45.5t42.5 -114.5q0 -61 -35.5 -102.5t-90.5 -65t-125 -27.5t-143 12z" />
<glyph unicode="&#xb9;" horiz-adv-x="750" d="M77 809zM77 1480l279 239h174v-707h149v-203h-541v203h167v357l19 98l-56 -69l-97 -65z" />
<glyph unicode="&#xba;" horiz-adv-x="744" d="M53 1154q0 98 23.5 166t66 112t101.5 64t128 20q71 0 130 -18t101.5 -60.5t67 -112t24.5 -171.5t-24.5 -171t-67 -111.5t-101.5 -61t-130 -18.5q-70 0 -128.5 18.5t-101 61t-66 111.5t-23.5 171zM279 1154q0 -102 22 -143.5t71 -41.5q26 0 44.5 7.5t30 28.5t17 57.5 t5.5 91.5q0 109 -23.5 147.5t-73.5 38.5q-49 0 -71 -38.5t-22 -147.5z" />
<glyph unicode="&#xbb;" horiz-adv-x="860" d="M49 925l142 95l278 -453l-266 -461l-146 92l150 288l78 83l-78 74zM364 933l160 108l291 -470l-278 -490l-163 104l158 297l86 87l-86 77z" />
<glyph unicode="&#xbc;" horiz-adv-x="1594" d="M68 1270l279 236h173v-910h-224v563l20 97l-56 -69l-96 -67zM69 0zM339 57l732 1466l173 -84l-728 -1469zM821 170v137l376 599h190v-553h130v-183h-130v-170h-202v170h-364zM1004 339l91 14h90v179l15 118h-11l-39 -109l-80 -139z" />
<glyph unicode="&#xbd;" horiz-adv-x="1639" d="M66 0zM66 1270l279 236h173v-910h-224v563l20 97l-56 -69l-96 -67zM339 57l732 1466l173 -84l-728 -1469zM994 0v142q49 39 105.5 93.5t104.5 115t78.5 123t30.5 123.5q0 108 -98 108q-46 0 -87 -14t-70 -33l-64 177q61 43 134 59t134 16q128 0 200.5 -67t72.5 -195 q0 -64 -16 -120.5t-41.5 -106.5t-59.5 -94.5t-71 -85.5l-83 -54v-8l105 24h190v-203h-565z" />
<glyph unicode="&#xbe;" horiz-adv-x="1630" d="M80 632l45 183q79 -40 158 -40q77 0 107.5 32t30.5 83q0 49 -32.5 77.5t-118.5 28.5h-83v81l128 173l81 59l-107 -12h-197v193h510v-128l-148 -199l-65 -41v-8l58 6q90 -4 142 -67t52 -178q0 -77 -26.5 -132.5t-71.5 -91t-102.5 -53t-121.5 -17.5q-70 0 -132 13.5 t-107 37.5zM81 0zM378 57l732 1466l173 -84l-728 -1469zM856 170v137l376 599h190v-553h130v-183h-130v-170h-202v170h-364zM1039 339l91 14h90v179l15 118h-11l-39 -109l-80 -139z" />
<glyph unicode="&#xbf;" horiz-adv-x="815" d="M38 -96q0 100 23.5 168t59 119t76.5 91.5t76.5 87.5t60 107t24.5 147h219q9 -106 -9.5 -183t-48 -134t-68 -101t-72.5 -84.5t-56 -84t-22 -100.5q0 -71 34.5 -118t115.5 -47q55 0 119 22.5t109 58.5l96 -194q-66 -49 -155.5 -79.5t-214.5 -30.5q-171 0 -269 95.5 t-98 259.5zM309 925q0 79 41.5 119t109.5 40q75 0 115.5 -40t40.5 -119q0 -77 -42 -120t-114 -43q-71 0 -111 43t-40 120z" />
<glyph unicode="&#xc0;" horiz-adv-x="1067" d="M-6 0l432 1502h210l435 -1502h-281l-91 337h-352l-87 -337h-266zM0 0zM234 1789v64h303l174 -251h-200zM405 558h247l-85 347l-35 235h-8l-36 -237z" />
<glyph unicode="&#xc1;" horiz-adv-x="1067" d="M-6 0l432 1502h210l435 -1502h-281l-91 337h-352l-87 -337h-266zM0 0zM356 1602l175 251h304v-64l-281 -187h-198zM405 558h247l-85 347l-35 235h-8l-36 -237z" />
<glyph unicode="&#xc2;" horiz-adv-x="1067" d="M-6 0l432 1502h210l435 -1502h-281l-91 337h-352l-87 -337h-266zM0 0zM213 1571v86l232 196h185l221 -198v-84h-180l-100 88l-37 73l-38 -71l-106 -90h-177zM405 558h247l-85 347l-35 235h-8l-36 -237z" />
<glyph unicode="&#xc3;" horiz-adv-x="1067" d="M-6 0l432 1502h210l435 -1502h-281l-91 337h-352l-87 -337h-266zM0 0zM175 1695q61 79 119 107.5t113 28.5q40 0 81 -11t79 -24t73 -24.5t69 -11.5q31 0 58.5 11.5t52.5 41.5l58 -134q-55 -62 -105.5 -85t-99.5 -23q-40 0 -80 12t-76.5 25t-73 24.5t-73.5 11.5 q-36 0 -70 -15t-70 -58zM405 558h247l-85 347l-35 235h-8l-36 -237z" />
<glyph unicode="&#xc4;" horiz-adv-x="1067" d="M-6 0l432 1502h210l435 -1502h-281l-91 337h-352l-87 -337h-266zM0 0zM201 1699q0 55 32.5 89.5t114.5 34.5q74 0 107 -33.5t33 -90.5q0 -55 -33 -87.5t-107 -32.5q-82 0 -114.5 32.5t-32.5 87.5zM405 558h247l-85 347l-35 235h-8l-36 -237zM589 1699q0 55 32.5 89.5 t109.5 34.5q79 0 112 -33.5t33 -90.5q0 -55 -33 -87.5t-112 -32.5q-77 0 -109.5 32.5t-32.5 87.5z" />
<glyph unicode="&#xc5;" horiz-adv-x="1067" d="M-6 0l423 1472q-65 20 -93 64.5t-28 105.5q0 39 10.5 73.5t38 61.5t72.5 42t115 15q130 0 184.5 -51t54.5 -141q0 -57 -29 -104t-96 -68l425 -1470h-281l-91 337h-352l-87 -337h-266zM405 558h247l-85 347l-35 235h-8l-36 -237zM456 1642q0 -65 76 -65q45 0 62.5 15.5 t17.5 49.5q0 37 -18.5 55t-61.5 18q-76 0 -76 -73z" />
<glyph unicode="&#xc6;" horiz-adv-x="1526" d="M-51 0l746 1491h756v-247h-478v-366h433v-248h-433v-382h486v-248h-754v368h-307l-168 -368h-281zM0 0zM500 590h205v522h-10l-56 -207z" />
<glyph unicode="&#xc7;" horiz-adv-x="972" d="M61 748q0 225 48.5 374.5t126 238t178 124t202.5 35.5q104 0 182 -16.5t127 -38.5l-53 -236q-41 21 -95.5 33t-128.5 12q-147 0 -226 -128t-79 -400q0 -118 18.5 -214.5t57.5 -167t99.5 -109t146.5 -38.5q74 0 127.5 20.5t95.5 47.5l53 -226q-47 -38 -117 -58t-145 -27 l-29 -66q73 -8 115 -45.5t42 -114.5q0 -49 -22.5 -84.5t-61 -60.5t-89.5 -37.5t-106 -12.5q-57 0 -115 12l15 103q90 -8 118.5 11.5t28.5 50.5q0 59 -149 67l92 179q-98 13 -181 62t-144 140.5t-96.5 232t-35.5 337.5z" />
<glyph unicode="&#xc8;" horiz-adv-x="915" d="M96 0v1491h745v-247h-477v-366h433v-248h-433v-382h486v-248h-754zM96 0zM156 1789v64h303l174 -251h-200z" />
<glyph unicode="&#xc9;" horiz-adv-x="915" d="M96 0v1491h745v-247h-477v-366h433v-248h-433v-382h486v-248h-754zM96 0zM324 1602l175 251h304v-64l-281 -187h-198z" />
<glyph unicode="&#xca;" horiz-adv-x="915" d="M96 0v1491h745v-247h-477v-366h433v-248h-433v-382h486v-248h-754zM96 0zM143 1571v86l232 196h185l221 -198v-84h-180l-100 88l-37 73l-38 -71l-106 -90h-177z" />
<glyph unicode="&#xcb;" horiz-adv-x="915" d="M96 0v1491h745v-247h-477v-366h433v-248h-433v-382h486v-248h-754zM96 0zM128 1699q0 55 32.5 89.5t114.5 34.5q74 0 107 -33.5t33 -90.5q0 -55 -33 -87.5t-107 -32.5q-82 0 -114.5 32.5t-32.5 87.5zM516 1699q0 55 32.5 89.5t109.5 34.5q79 0 112 -33.5t33 -90.5 q0 -55 -33 -87.5t-112 -32.5q-77 0 -109.5 32.5t-32.5 87.5z" />
<glyph unicode="&#xcc;" horiz-adv-x="506" d="M-45 1789v64h303l174 -251h-200zM0 0zM120 0v1491h268v-1491h-268z" />
<glyph unicode="&#xcd;" horiz-adv-x="506" d="M79 0zM79 1602l175 251h304v-64l-281 -187h-198zM120 0v1491h268v-1491h-268z" />
<glyph unicode="&#xce;" horiz-adv-x="506" d="M-63 1571v86l232 196h185l221 -198v-84h-180l-100 88l-37 73l-38 -71l-106 -90h-177zM0 0zM120 0v1491h268v-1491h-268z" />
<glyph unicode="&#xcf;" horiz-adv-x="506" d="M-81 1699q0 55 32.5 89.5t114.5 34.5q74 0 107 -33.5t33 -90.5q0 -55 -33 -87.5t-107 -32.5q-82 0 -114.5 32.5t-32.5 87.5zM0 0zM120 0v1491h268v-1491h-268zM307 1699q0 55 32.5 89.5t109.5 34.5q79 0 112 -33.5t33 -90.5q0 -55 -33 -87.5t-112 -32.5 q-77 0 -109.5 32.5t-32.5 87.5z" />
<glyph unicode="&#xd0;" horiz-adv-x="1181" d="M-6 685v169h144v637q39 7 86.5 10t97.5 6t97.5 4t82.5 1q177 0 295.5 -54t190 -153.5t101 -237.5t29.5 -309q0 -156 -28.5 -297.5t-101 -249t-196 -171.5t-310.5 -64q-29 0 -75.5 2.5t-97.5 6t-98 6.5t-73 7v687h-144zM407 232q6 -2 22 -3t34.5 -2t34.5 -2t22 -1 q96 0 157.5 44.5t96.5 119t49 171.5t14 203q0 98 -12 190t-44.5 161t-93.5 111t-157 42q-34 0 -69 -1.5t-54 -6.5v-404h229v-169h-229v-453z" />
<glyph unicode="&#xd1;" horiz-adv-x="1149" d="M96 0v1502h207l427 -750l93 -258h12l-34 254v743h254v-1501h-207l-424 743l-98 261h-11l34 -257v-737h-253zM96 0zM222 1695q61 79 119 107.5t113 28.5q40 0 81 -11t79 -24t73 -24.5t69 -11.5q31 0 58.5 11.5t52.5 41.5l58 -134q-55 -62 -105.5 -85t-99.5 -23 q-40 0 -80 12t-76.5 25t-73 24.5t-73.5 11.5q-36 0 -70 -15t-70 -58z" />
<glyph unicode="&#xd2;" horiz-adv-x="1177" d="M61 0zM61 746q0 379 130 576.5t397 197.5q138 0 238.5 -54t164.5 -155t94.5 -245t30.5 -320q0 -380 -133 -578t-395 -198q-141 0 -239.5 54.5t-162.5 155.5t-94.5 245t-30.5 321zM256 1789v64h303l174 -251h-200zM343 746q0 -114 12.5 -210.5t42.5 -167t76 -111 t114 -40.5q123 0 185 126t62 403q0 108 -13 205t-41.5 168.5t-75.5 113t-117 41.5q-245 0 -245 -528z" />
<glyph unicode="&#xd3;" horiz-adv-x="1177" d="M61 0zM61 746q0 379 130 576.5t397 197.5q138 0 238.5 -54t164.5 -155t94.5 -245t30.5 -320q0 -380 -133 -578t-395 -198q-141 0 -239.5 54.5t-162.5 155.5t-94.5 245t-30.5 321zM343 746q0 -114 12.5 -210.5t42.5 -167t76 -111t114 -40.5q123 0 185 126t62 403 q0 108 -13 205t-41.5 168.5t-75.5 113t-117 41.5q-245 0 -245 -528zM467 1602l175 251h304v-64l-281 -187h-198z" />
<glyph unicode="&#xd4;" horiz-adv-x="1177" d="M61 0zM61 746q0 379 130 576.5t397 197.5q138 0 238.5 -54t164.5 -155t94.5 -245t30.5 -320q0 -380 -133 -578t-395 -198q-141 0 -239.5 54.5t-162.5 155.5t-94.5 245t-30.5 321zM266 1571v86l232 196h185l221 -198v-84h-180l-100 88l-37 73l-38 -71l-106 -90h-177z M343 746q0 -114 12.5 -210.5t42.5 -167t76 -111t114 -40.5q123 0 185 126t62 403q0 108 -13 205t-41.5 168.5t-75.5 113t-117 41.5q-245 0 -245 -528z" />
<glyph unicode="&#xd5;" horiz-adv-x="1177" d="M61 0zM61 746q0 379 130 576.5t397 197.5q138 0 238.5 -54t164.5 -155t94.5 -245t30.5 -320q0 -380 -133 -578t-395 -198q-141 0 -239.5 54.5t-162.5 155.5t-94.5 245t-30.5 321zM234 1695q61 79 119 107.5t113 28.5q40 0 81 -11t79 -24t73 -24.5t69 -11.5 q31 0 58.5 11.5t52.5 41.5l58 -134q-55 -62 -105.5 -85t-99.5 -23q-40 0 -80 12t-76.5 25t-73 24.5t-73.5 11.5q-36 0 -70 -15t-70 -58zM343 746q0 -114 12.5 -210.5t42.5 -167t76 -111t114 -40.5q123 0 185 126t62 403q0 108 -13 205t-41.5 168.5t-75.5 113t-117 41.5 q-245 0 -245 -528z" />
<glyph unicode="&#xd6;" horiz-adv-x="1177" d="M61 0zM61 746q0 379 130 576.5t397 197.5q138 0 238.5 -54t164.5 -155t94.5 -245t30.5 -320q0 -380 -133 -578t-395 -198q-141 0 -239.5 54.5t-162.5 155.5t-94.5 245t-30.5 321zM250 1699q0 55 32.5 89.5t114.5 34.5q74 0 107 -33.5t33 -90.5q0 -55 -33 -87.5 t-107 -32.5q-82 0 -114.5 32.5t-32.5 87.5zM343 746q0 -114 12.5 -210.5t42.5 -167t76 -111t114 -40.5q123 0 185 126t62 403q0 108 -13 205t-41.5 168.5t-75.5 113t-117 41.5q-245 0 -245 -528zM638 1699q0 55 32.5 89.5t109.5 34.5q79 0 112 -33.5t33 -90.5 q0 -55 -33 -87.5t-112 -32.5q-77 0 -109.5 32.5t-32.5 87.5z" />
<glyph unicode="&#xd7;" horiz-adv-x="945" d="M73 439l250 283l-246 274l161 156l237 -264l236 264l163 -156l-246 -274l246 -279l-163 -156l-236 264l-239 -266z" />
<glyph unicode="&#xd8;" horiz-adv-x="1177" d="M61 746q0 379 130 576.5t397 197.5q152 0 266 -69l38 72l169 -88l-69 -130q64 -102 94 -242.5t30 -316.5q0 -380 -133 -578t-395 -198q-77 0 -140.5 17t-117.5 47l-34 -64l-168 91l59 116q-65 102 -95.5 245t-30.5 324zM343 746q0 -66 4.5 -125.5t12.5 -116.5l368 703 q-55 66 -140 67q-246 0 -245 -528zM453 275q53 -58 135 -58q123 0 185 126t62 403q0 61 -4 117.5t-14 109.5z" />
<glyph unicode="&#xd9;" horiz-adv-x="1096" d="M89 0zM89 488v1003h269v-956q0 -175 46.5 -244t156.5 -69q104 0 148.5 73t44.5 240v956h254v-967q0 -290 -118.5 -420t-326.5 -130q-246 0 -360 127t-114 387zM217 1789v64h303l174 -251h-200z" />
<glyph unicode="&#xda;" horiz-adv-x="1096" d="M89 0zM89 488v1003h269v-956q0 -175 46.5 -244t156.5 -69q104 0 148.5 73t44.5 240v956h254v-967q0 -290 -118.5 -420t-326.5 -130q-246 0 -360 127t-114 387zM456 1602l175 251h304v-64l-281 -187h-198z" />
<glyph unicode="&#xdb;" horiz-adv-x="1096" d="M89 0zM89 488v1003h269v-956q0 -175 46.5 -244t156.5 -69q104 0 148.5 73t44.5 240v956h254v-967q0 -290 -118.5 -420t-326.5 -130q-246 0 -360 127t-114 387zM236 1571v86l232 196h185l221 -198v-84h-180l-100 88l-37 73l-38 -71l-106 -90h-177z" />
<glyph unicode="&#xdc;" horiz-adv-x="1096" d="M89 0zM89 488v1003h269v-956q0 -175 46.5 -244t156.5 -69q104 0 148.5 73t44.5 240v956h254v-967q0 -290 -118.5 -420t-326.5 -130q-246 0 -360 127t-114 387zM215 1699q0 55 32.5 89.5t114.5 34.5q74 0 107 -33.5t33 -90.5q0 -55 -33 -87.5t-107 -32.5 q-82 0 -114.5 32.5t-32.5 87.5zM603 1699q0 55 32.5 89.5t109.5 34.5q79 0 112 -33.5t33 -90.5q0 -55 -33 -87.5t-112 -32.5q-77 0 -109.5 32.5t-32.5 87.5z" />
<glyph unicode="&#xdd;" horiz-adv-x="1053" d="M-8 1491h319l207 -564l21 -163h10l24 167l202 560h288l-403 -935v-556h-268v553zM0 0zM390 1602l175 251h304v-64l-281 -187h-198z" />
<glyph unicode="&#xde;" horiz-adv-x="1015" d="M96 0v1491h268v-156q41 2 83 2q98 0 193 -18t169.5 -71t121.5 -149.5t47 -252.5q0 -139 -39.5 -236.5t-106 -159.5t-152.5 -91t-178 -29h-27q-18 0 -40 1t-42.5 3.5t-28.5 4.5v-339h-268zM364 581q12 -4 47.5 -7t48.5 -3q46 0 89 11.5t75 43.5t51.5 85t19.5 137 q0 72 -18.5 120t-48.5 76.5t-70 41.5t-85 13q-65 0 -109 -10v-508z" />
<glyph unicode="&#xdf;" horiz-adv-x="1138" d="M19 839v226h115v24q0 115 29.5 196t83.5 129.5t126 71t159 22.5q90 0 166.5 -20.5t133 -62t88.5 -102t32 -141.5q0 -74 -32 -124t-71.5 -90.5t-71 -77t-31.5 -81.5q0 -40 25.5 -68t65 -53.5t85 -53t85 -68t65 -97t25.5 -139.5q0 -71 -21 -135.5t-65 -113.5t-109 -79 t-152 -30q-81 0 -155.5 20t-125.5 53l66 200q42 -23 83.5 -39.5t101.5 -16.5q55 0 89 38.5t34 93.5q0 49 -25.5 81.5t-65 60t-85 54t-85 62t-65 86.5t-25.5 125q0 77 32 126t70 87t70.5 73.5t32.5 82.5q0 55 -47 90t-103 35q-77 0 -118 -47.5t-41 -181.5v-1055h-254v839 h-115z" />
<glyph unicode="&#xe0;" horiz-adv-x="878" d="M36 0zM36 294q0 192 136.5 273t368.5 67q10 124 -16.5 179.5t-113.5 55.5q-64 0 -132 -15t-121 -43l-64 191q63 38 159 61t218 23q181 0 252.5 -93.5t71.5 -266.5q0 -100 -5.5 -196.5t-7.5 -189t3 -179t28 -163.5h-206l-40 130h-9q-34 -61 -96 -102t-155 -41 q-126 0 -198.5 84t-72.5 225zM189 1470v64h258l104 -329h-141zM298 337q0 -66 27 -100t73 -34q58 0 94 28.5t53 62.5v177q-49 6 -93.5 2t-78.5 -19t-54.5 -43.5t-20.5 -73.5z" />
<glyph unicode="&#xe1;" horiz-adv-x="878" d="M36 0zM36 294q0 192 136.5 273t368.5 67q10 124 -16.5 179.5t-113.5 55.5q-64 0 -132 -15t-121 -43l-64 191q63 38 159 61t218 23q181 0 252.5 -93.5t71.5 -266.5q0 -100 -5.5 -196.5t-7.5 -189t3 -179t28 -163.5h-206l-40 130h-9q-34 -61 -96 -102t-155 -41 q-126 0 -198.5 84t-72.5 225zM298 337q0 -66 27 -100t73 -34q58 0 94 28.5t53 62.5v177q-49 6 -93.5 2t-78.5 -19t-54.5 -43.5t-20.5 -73.5zM329 1205l89 329h254v-64l-201 -265h-142z" />
<glyph unicode="&#xe2;" horiz-adv-x="878" d="M36 0zM36 294q0 192 136.5 273t368.5 67q10 124 -16.5 179.5t-113.5 55.5q-64 0 -132 -15t-121 -43l-64 191q63 38 159 61t218 23q181 0 252.5 -93.5t71.5 -266.5q0 -100 -5.5 -196.5t-7.5 -189t3 -179t28 -163.5h-206l-40 130h-9q-34 -61 -96 -102t-155 -41 q-126 0 -198.5 84t-72.5 225zM156 1171l215 388h181l194 -388h-198l-69 141l-27 104l-28 -104l-79 -141h-189zM298 337q0 -66 27 -100t73 -34q58 0 94 28.5t53 62.5v177q-49 6 -93.5 2t-78.5 -19t-54.5 -43.5t-20.5 -73.5z" />
<glyph unicode="&#xe3;" horiz-adv-x="878" d="M36 0zM36 294q0 192 136.5 273t368.5 67q10 124 -16.5 179.5t-113.5 55.5q-64 0 -132 -15t-121 -43l-64 191q63 38 159 61t218 23q181 0 252.5 -93.5t71.5 -266.5q0 -100 -5.5 -196.5t-7.5 -189t3 -179t28 -163.5h-206l-40 130h-9q-34 -61 -96 -102t-155 -41 q-126 0 -198.5 84t-72.5 225zM128 1397q61 79 114.5 108t98.5 29q39 0 71.5 -14t64.5 -32t64 -32.5t64 -14.5q24 0 49 11t55 39l47 -130q-57 -68 -107.5 -93.5t-92.5 -25.5q-38 0 -71.5 13t-65 28.5t-64 29.5t-63.5 14q-28 0 -55.5 -12t-57.5 -41zM298 337q0 -66 27 -100 t73 -34q58 0 94 28.5t53 62.5v177q-49 6 -93.5 2t-78.5 -19t-54.5 -43.5t-20.5 -73.5z" />
<glyph unicode="&#xe4;" horiz-adv-x="878" d="M36 0zM36 294q0 192 136.5 273t368.5 67q10 124 -16.5 179.5t-113.5 55.5q-64 0 -132 -15t-121 -43l-64 191q63 38 159 61t218 23q181 0 252.5 -93.5t71.5 -266.5q0 -100 -5.5 -196.5t-7.5 -189t3 -179t28 -163.5h-206l-40 130h-9q-34 -61 -96 -102t-155 -41 q-126 0 -198.5 84t-72.5 225zM120 1386q0 69 37.5 107.5t98.5 38.5q59 0 95.5 -38.5t36.5 -107.5q0 -63 -36.5 -100.5t-95.5 -37.5q-61 0 -98.5 37.5t-37.5 100.5zM298 337q0 -66 27 -100t73 -34q58 0 94 28.5t53 62.5v177q-49 6 -93.5 2t-78.5 -19t-54.5 -43.5t-20.5 -73.5 zM516 1386q0 69 36 107.5t98 38.5t98 -38.5t36 -107.5q0 -63 -36 -100.5t-98 -37.5q-61 0 -97.5 37.5t-36.5 100.5z" />
<glyph unicode="&#xe5;" horiz-adv-x="878" d="M36 0zM36 294q0 192 136.5 273t368.5 67q10 124 -16.5 179.5t-113.5 55.5q-64 0 -132 -15t-121 -43l-64 191q63 38 159 61t218 23q181 0 252.5 -93.5t71.5 -266.5q0 -100 -5.5 -196.5t-7.5 -189t3 -179t28 -163.5h-206l-40 130h-9q-34 -61 -96 -102t-155 -41 q-126 0 -198.5 84t-72.5 225zM243 1378q0 96 52 149.5t155 53.5q98 0 153 -50.5t55 -152.5q0 -89 -54 -143.5t-154 -54.5t-153.5 53t-53.5 145zM298 337q0 -66 27 -100t73 -34q58 0 94 28.5t53 62.5v177q-49 6 -93.5 2t-78.5 -19t-54.5 -43.5t-20.5 -73.5zM385 1378 q0 -36 18.5 -54.5t46.5 -18.5q65 0 65 73q0 41 -18 59t-47 18q-28 0 -46.5 -17t-18.5 -60z" />
<glyph unicode="&#xe6;" horiz-adv-x="1390" d="M36 0zM36 296q0 98 35 165t100 109t159 59t209 10q2 18 2 35v33q0 83 -27.5 120t-100.5 37q-66 0 -134 -18.5t-121 -48.5l-66 191q68 45 166 71.5t204 26.5q89 0 146 -27.5t93 -87.5q43 62 111 93t153 31q69 0 133.5 -20t114.5 -69t80 -130t30 -203q0 -47 -5.5 -100 t-16.5 -113h-513q4 -141 53 -206t161 -65q65 0 121.5 20.5t86.5 44.5l83 -177q-53 -43 -142.5 -74t-198.5 -31q-232 0 -330 173h-10q-45 -73 -114.5 -117.5t-186.5 -44.5q-128 0 -201.5 87.5t-73.5 225.5zM298 337q0 -59 25.5 -93.5t74.5 -34.5q60 0 96 28.5t53 67.5v170 q-49 4 -93.5 1t-79.5 -19t-55.5 -44.5t-20.5 -75.5zM795 628h291q6 116 -25.5 183t-101.5 67q-81 0 -119.5 -64t-44.5 -186z" />
<glyph unicode="&#xe7;" horiz-adv-x="744" d="M53 532q0 279 100.5 420t293.5 141q96 0 157 -17t107 -43l-59 -210q-38 18 -73.5 27.5t-84.5 9.5q-89 0 -134 -77.5t-45 -250.5q0 -144 46 -235.5t145 -91.5q54 0 91 13.5t70 35.5l53 -197q-39 -32 -88 -49.5t-104 -28.5l-32 -71q73 -8 115.5 -45.5t42.5 -114.5 q0 -49 -22.5 -84.5t-61 -60.5t-89 -37.5t-107.5 -12.5t-114 12l15 103q89 -8 118 11.5t29 50.5q0 59 -150 67l92 182q-171 28 -241 175t-70 378z" />
<glyph unicode="&#xe8;" horiz-adv-x="911" d="M53 0zM53 532q0 288 114 425.5t317 137.5q68 0 131.5 -20t114 -68t81 -128t30.5 -202q0 -47 -5 -100t-16 -115h-517q4 -132 55 -202.5t164 -70.5q69 0 125 21.5t86 45.5l78 -177q-53 -47 -144.5 -77t-191.5 -30q-110 0 -190 38.5t-131.5 110.5t-76 175.5t-24.5 235.5z M215 1470v64h258l104 -329h-141zM311 630h294q7 122 -25 185t-101 63q-81 0 -121.5 -65t-46.5 -183z" />
<glyph unicode="&#xe9;" horiz-adv-x="911" d="M53 0zM53 532q0 288 114 425.5t317 137.5q68 0 131.5 -20t114 -68t81 -128t30.5 -202q0 -47 -5 -100t-16 -115h-517q4 -132 55 -202.5t164 -70.5q69 0 125 21.5t86 45.5l78 -177q-53 -47 -144.5 -77t-191.5 -30q-110 0 -190 38.5t-131.5 110.5t-76 175.5t-24.5 235.5z M311 630h294q7 122 -25 185t-101 63q-81 0 -121.5 -65t-46.5 -183zM386 1205l89 329h254v-64l-201 -265h-142z" />
<glyph unicode="&#xea;" horiz-adv-x="911" d="M53 0zM53 532q0 288 114 425.5t317 137.5q68 0 131.5 -20t114 -68t81 -128t30.5 -202q0 -47 -5 -100t-16 -115h-517q4 -132 55 -202.5t164 -70.5q69 0 125 21.5t86 45.5l78 -177q-53 -47 -144.5 -77t-191.5 -30q-110 0 -190 38.5t-131.5 110.5t-76 175.5t-24.5 235.5z M166 1171l215 388h181l194 -388h-198l-69 141l-27 104l-28 -104l-79 -141h-189zM311 630h294q7 122 -25 185t-101 63q-81 0 -121.5 -65t-46.5 -183z" />
<glyph unicode="&#xeb;" horiz-adv-x="911" d="M53 0zM53 532q0 288 114 425.5t317 137.5q68 0 131.5 -20t114 -68t81 -128t30.5 -202q0 -47 -5 -100t-16 -115h-517q4 -132 55 -202.5t164 -70.5q69 0 125 21.5t86 45.5l78 -177q-53 -47 -144.5 -77t-191.5 -30q-110 0 -190 38.5t-131.5 110.5t-76 175.5t-24.5 235.5z M138 1386q0 69 37.5 107.5t98.5 38.5q59 0 95.5 -38.5t36.5 -107.5q0 -63 -36.5 -100.5t-95.5 -37.5q-61 0 -98.5 37.5t-37.5 100.5zM311 630h294q7 122 -25 185t-101 63q-81 0 -121.5 -65t-46.5 -183zM534 1386q0 69 36 107.5t98 38.5t98 -38.5t36 -107.5q0 -63 -36 -100.5 t-98 -37.5q-61 0 -97.5 37.5t-36.5 100.5z" />
<glyph unicode="&#xec;" horiz-adv-x="478" d="M-10 1470v64h258l104 -329h-141zM0 0zM113 0v1065h253v-1065h-253z" />
<glyph unicode="&#xed;" horiz-adv-x="478" d="M113 0v1065h253v-1065h-253zM113 0zM126 1205l89 329h254v-64l-201 -265h-142z" />
<glyph unicode="&#xee;" horiz-adv-x="478" d="M-57 1171l215 388h181l194 -388h-198l-69 141l-27 104l-28 -104l-79 -141h-189zM0 0zM113 0v1065h253v-1065h-253z" />
<glyph unicode="&#xef;" horiz-adv-x="478" d="M-91 1386q0 69 37.5 107.5t98.5 38.5q59 0 95.5 -38.5t36.5 -107.5q0 -63 -36.5 -100.5t-95.5 -37.5q-61 0 -98.5 37.5t-37.5 100.5zM0 0zM113 0v1065h253v-1065h-253zM305 1386q0 69 36 107.5t98 38.5t98 -38.5t36 -107.5q0 -63 -36 -100.5t-98 -37.5q-61 0 -97.5 37.5 t-36.5 100.5z" />
<glyph unicode="&#xf0;" horiz-adv-x="974" d="M57 522q0 130 30.5 230t83.5 169t126 105.5t161 36.5q61 0 115.5 -19.5t88.5 -59.5q-38 149 -134 243l-123 -97l-88 106l102 79q-63 38 -132 61l103 144q45 -14 100 -40q42 -19 85 -47l100 77l85 -106l-79 -62q19 -19 39 -43q57 -63 100.5 -155t70.5 -212.5t27 -275.5 q0 -183 -31 -313t-88 -213t-139.5 -121.5t-184.5 -38.5q-207 0 -312.5 144t-105.5 408zM303 520q0 -173 52 -248.5t137 -75.5q40 0 73 21t58 69.5t38.5 124t13.5 185.5q0 12 -1 36t-2 47.5t-3 47t-4 35.5q-29 39 -76.5 57t-96.5 18q-94 0 -141.5 -83t-47.5 -234z" />
<glyph unicode="&#xf1;" horiz-adv-x="955" d="M92 0v1065h202l29 -124h7q38 62 104 106t173 44q64 0 114 -19.5t84 -63t51.5 -117.5t17.5 -182v-709h-254v648q0 117 -27.5 163.5t-94.5 46.5q-55 0 -95.5 -34t-57.5 -85v-739h-253zM92 0zM164 1397q61 79 114.5 108t98.5 29q39 0 71.5 -14t64.5 -32t64 -32.5t64 -14.5 q24 0 49 11t55 39l47 -130q-57 -68 -107.5 -93.5t-92.5 -25.5q-38 0 -71.5 13t-65 28.5t-64 29.5t-63.5 14q-28 0 -55.5 -12t-57.5 -41z" />
<glyph unicode="&#xf2;" horiz-adv-x="947" d="M53 0zM53 532q0 283 111 422t309 139q213 0 317 -141t104 -420q0 -284 -110.5 -422t-310.5 -138q-420 0 -420 560zM215 1470v64h258l104 -329h-141zM315 532q0 -160 36.5 -247t121.5 -87q81 0 120 75.5t39 258.5q0 165 -35.5 250t-123.5 85q-75 0 -116.5 -75.5 t-41.5 -259.5z" />
<glyph unicode="&#xf3;" horiz-adv-x="947" d="M53 0zM53 532q0 283 111 422t309 139q213 0 317 -141t104 -420q0 -284 -110.5 -422t-310.5 -138q-420 0 -420 560zM315 532q0 -160 36.5 -247t121.5 -87q81 0 120 75.5t39 258.5q0 165 -35.5 250t-123.5 85q-75 0 -116.5 -75.5t-41.5 -259.5zM388 1205l89 329h254v-64 l-201 -265h-142z" />
<glyph unicode="&#xf4;" horiz-adv-x="947" d="M53 0zM53 532q0 283 111 422t309 139q213 0 317 -141t104 -420q0 -284 -110.5 -422t-310.5 -138q-420 0 -420 560zM181 1171l215 388h181l194 -388h-198l-69 141l-27 104l-28 -104l-79 -141h-189zM315 532q0 -160 36.5 -247t121.5 -87q81 0 120 75.5t39 258.5 q0 165 -35.5 250t-123.5 85q-75 0 -116.5 -75.5t-41.5 -259.5z" />
<glyph unicode="&#xf5;" horiz-adv-x="947" d="M53 0zM53 532q0 283 111 422t309 139q213 0 317 -141t104 -420q0 -284 -110.5 -422t-310.5 -138q-420 0 -420 560zM156 1397q61 79 114.5 108t98.5 29q39 0 71.5 -14t64.5 -32t64 -32.5t64 -14.5q24 0 49 11t55 39l47 -130q-57 -68 -107.5 -93.5t-92.5 -25.5 q-38 0 -71.5 13t-65 28.5t-64 29.5t-63.5 14q-28 0 -55.5 -12t-57.5 -41zM315 532q0 -160 36.5 -247t121.5 -87q81 0 120 75.5t39 258.5q0 165 -35.5 250t-123.5 85q-75 0 -116.5 -75.5t-41.5 -259.5z" />
<glyph unicode="&#xf6;" horiz-adv-x="947" d="M53 0zM53 532q0 283 111 422t309 139q213 0 317 -141t104 -420q0 -284 -110.5 -422t-310.5 -138q-420 0 -420 560zM136 1386q0 69 37.5 107.5t98.5 38.5q59 0 95.5 -38.5t36.5 -107.5q0 -63 -36.5 -100.5t-95.5 -37.5q-61 0 -98.5 37.5t-37.5 100.5zM315 532 q0 -160 36.5 -247t121.5 -87q81 0 120 75.5t39 258.5q0 165 -35.5 250t-123.5 85q-75 0 -116.5 -75.5t-41.5 -259.5zM532 1386q0 69 36 107.5t98 38.5t98 -38.5t36 -107.5q0 -63 -36 -100.5t-98 -37.5q-61 0 -97.5 37.5t-36.5 100.5z" />
<glyph unicode="&#xf7;" horiz-adv-x="945" d="M81 609v228h783v-228h-783zM321 335q0 79 42 119t110 40q75 0 115 -40.5t40 -118.5q0 -77 -41.5 -119.5t-113.5 -42.5q-71 0 -111.5 42.5t-40.5 119.5zM321 1114q0 79 42 119.5t110 40.5q75 0 115 -40.5t40 -119.5q0 -77 -41.5 -119.5t-113.5 -42.5q-71 0 -111.5 42.5 t-40.5 119.5z" />
<glyph unicode="&#xf8;" horiz-adv-x="953" d="M59 532q0 285 111 424t312 139q104 0 185 -38l38 63l169 -104l-59 -98q86 -138 86 -386q0 -284 -110 -423t-309 -139q-60 0 -109.5 12t-91.5 33l-41 -66l-171 108l63 109q-73 137 -73 366zM317 532q0 -70 6 -127l250 426q-36 38 -91 38q-80 0 -122.5 -76.5t-42.5 -260.5z M382 242q38 -46 100 -46q81 0 121 74.5t40 261.5q0 41 -2 76t-7 67z" />
<glyph unicode="&#xf9;" horiz-adv-x="949" d="M83 0zM83 372v693h254v-637q0 -125 23.5 -174t84.5 -49q59 0 100 43.5t58 105.5v711h253v-742q0 -87 6.5 -170.5t23.5 -152.5h-191l-45 145h-7q-41 -75 -110 -124t-171 -49q-66 0 -117.5 18t-87 63t-55 123t-19.5 196zM203 1470v64h258l104 -329h-141z" />
<glyph unicode="&#xfa;" horiz-adv-x="949" d="M83 0zM83 372v693h254v-637q0 -125 23.5 -174t84.5 -49q59 0 100 43.5t58 105.5v711h253v-742q0 -87 6.5 -170.5t23.5 -152.5h-191l-45 145h-7q-41 -75 -110 -124t-171 -49q-66 0 -117.5 18t-87 63t-55 123t-19.5 196zM362 1205l89 329h254v-64l-201 -265h-142z" />
<glyph unicode="&#xfb;" horiz-adv-x="949" d="M83 0zM83 372v693h254v-637q0 -125 23.5 -174t84.5 -49q59 0 100 43.5t58 105.5v711h253v-742q0 -87 6.5 -170.5t23.5 -152.5h-191l-45 145h-7q-41 -75 -110 -124t-171 -49q-66 0 -117.5 18t-87 63t-55 123t-19.5 196zM177 1171l215 388h181l194 -388h-198l-69 141 l-27 104l-28 -104l-79 -141h-189z" />
<glyph unicode="&#xfc;" horiz-adv-x="949" d="M83 0zM83 372v693h254v-637q0 -125 23.5 -174t84.5 -49q59 0 100 43.5t58 105.5v711h253v-742q0 -87 6.5 -170.5t23.5 -152.5h-191l-45 145h-7q-41 -75 -110 -124t-171 -49q-66 0 -117.5 18t-87 63t-55 123t-19.5 196zM134 1386q0 69 37.5 107.5t98.5 38.5 q59 0 95.5 -38.5t36.5 -107.5q0 -63 -36.5 -100.5t-95.5 -37.5q-61 0 -98.5 37.5t-37.5 100.5zM530 1386q0 69 36 107.5t98 38.5t98 -38.5t36 -107.5q0 -63 -36 -100.5t-98 -37.5q-61 0 -97.5 37.5t-36.5 100.5z" />
<glyph unicode="&#xfd;" horiz-adv-x="851" d="M-21 1065h304l150 -598l27 -166h11l19 168l124 596h260l-267 -961q-36 -126 -68.5 -226t-68 -170t-81.5 -107.5t-110 -37.5q-45 0 -86.5 7.5t-70.5 24.5l42 218q28 -11 57 -10t53 21t43.5 62.5t31.5 113.5zM0 0zM347 1205l89 329h254v-64l-201 -265h-142z" />
<glyph unicode="&#xfe;" horiz-adv-x="949" d="M92 -426v1917h253v-505h7q36 49 88 79t133 30q162 0 242.5 -127t80.5 -407q0 -137 -25 -246.5t-75 -186.5t-125 -117.5t-173 -40.5q-51 0 -87.5 9t-65.5 25v-430h-253zM345 236q21 -19 47.5 -29.5t71.5 -10.5q85 0 127.5 84t42.5 287q0 149 -32.5 225.5t-111.5 76.5 q-55 0 -90.5 -32t-54.5 -89v-512z" />
<glyph unicode="&#xff;" horiz-adv-x="851" d="M-21 1065h304l150 -598l27 -166h11l19 168l124 596h260l-267 -961q-36 -126 -68.5 -226t-68 -170t-81.5 -107.5t-110 -37.5q-45 0 -86.5 7.5t-70.5 24.5l42 218q28 -11 57 -10t53 21t43.5 62.5t31.5 113.5zM0 0zM102 1386q0 69 37.5 107.5t98.5 38.5q59 0 95.5 -38.5 t36.5 -107.5q0 -63 -36.5 -100.5t-95.5 -37.5q-61 0 -98.5 37.5t-37.5 100.5zM498 1386q0 69 36 107.5t98 38.5t98 -38.5t36 -107.5q0 -63 -36 -100.5t-98 -37.5q-61 0 -97.5 37.5t-36.5 100.5z" />
<glyph unicode="&#x100;" horiz-adv-x="1067" d="M-6 0l432 1502h210l435 -1502h-281l-91 337h-352l-87 -337h-266zM0 0zM224 1634v189h616v-189h-616zM405 558h247l-85 347l-35 235h-8l-36 -237z" />
<glyph unicode="&#x101;" horiz-adv-x="878" d="M36 0zM36 294q0 192 136.5 273t368.5 67q10 124 -16.5 179.5t-113.5 55.5q-64 0 -132 -15t-121 -43l-64 191q63 38 159 61t218 23q181 0 252.5 -93.5t71.5 -266.5q0 -100 -5.5 -196.5t-7.5 -189t3 -179t28 -163.5h-206l-40 130h-9q-34 -61 -96 -102t-155 -41 q-126 0 -198.5 84t-72.5 225zM154 1207v195h579v-195h-579zM298 337q0 -66 27 -100t73 -34q58 0 94 28.5t53 62.5v177q-49 6 -93.5 2t-78.5 -19t-54.5 -43.5t-20.5 -73.5z" />
<glyph unicode="&#x102;" horiz-adv-x="1067" d="M-6 0l432 1502h210l435 -1502h-281l-91 337h-352l-87 -337h-266zM0 0zM189 1789l98 75q36 -55 104 -86.5t149 -31.5q86 0 146 32.5t97 85.5l93 -66q-24 -63 -59.5 -109.5t-81.5 -76t-96 -43.5t-101 -14q-46 0 -96.5 13t-98.5 40.5t-88.5 72t-65.5 108.5zM405 558h247 l-85 347l-35 235h-8l-36 -237z" />
<glyph unicode="&#x103;" horiz-adv-x="878" d="M36 0zM36 294q0 192 136.5 273t368.5 67q10 124 -16.5 179.5t-113.5 55.5q-64 0 -132 -15t-121 -43l-64 191q63 38 159 61t218 23q181 0 252.5 -93.5t71.5 -266.5q0 -100 -5.5 -196.5t-7.5 -189t3 -179t28 -163.5h-206l-40 130h-9q-34 -61 -96 -102t-155 -41 q-126 0 -198.5 84t-72.5 225zM132 1467l120 65q30 -64 83 -96t114 -32t110.5 31.5t72.5 96.5l118 -56q-4 -55 -28.5 -104t-64 -87.5t-93.5 -61t-117 -22.5q-122 0 -207 70.5t-108 195.5zM298 337q0 -66 27 -100t73 -34q58 0 94 28.5t53 62.5v177q-49 6 -93.5 2t-78.5 -19 t-54.5 -43.5t-20.5 -73.5z" />
<glyph unicode="&#x104;" horiz-adv-x="1067" d="M-6 0l432 1502h210l435 -1502h-40q-100 -49 -100 -156q0 -53 37.5 -79.5t104.5 5.5l39 -124q-13 -12 -34 -25t-48.5 -23.5t-61 -18t-65.5 -7.5q-108 0 -164 53.5t-56 138.5q0 89 54 151q43 51 109 85h-56l-91 337h-352l-87 -337h-266zM405 558h247l-85 347l-35 235h-8 l-36 -237z" />
<glyph unicode="&#x105;" horiz-adv-x="878" d="M36 294q0 192 136.5 273t368.5 67q10 124 -16.5 179.5t-113.5 55.5q-64 0 -132 -15t-121 -43l-64 191q63 38 159 61t218 23q181 0 252.5 -93.5t71.5 -266.5q0 -100 -5.5 -196.5t-7.5 -189t3 -179t28 -163.5h-42q-96 -51 -96 -154q0 -53 37.5 -79.5t104.5 5.5l39 -124 q-13 -12 -34 -25t-48.5 -23.5t-61 -18t-64.5 -7.5q-108 0 -164 53.5t-56 138.5t49 145.5t126 96.5l-36 122h-9q-34 -61 -96 -102t-155 -41q-126 0 -198.5 84t-72.5 225zM298 337q0 -66 27 -100t73 -34q58 0 94 28.5t53 62.5v177q-49 6 -93.5 2t-78.5 -19t-54.5 -43.5 t-20.5 -73.5z" />
<glyph unicode="&#x106;" horiz-adv-x="972" d="M61 0zM61 748q0 225 48.5 374.5t126 238t178 124t202.5 35.5q104 0 182 -16.5t127 -38.5l-53 -236q-41 21 -95.5 33t-128.5 12q-147 0 -226 -128t-79 -400q0 -118 18.5 -214.5t57.5 -167t99.5 -109t146.5 -38.5q74 0 127.5 20.5t95.5 47.5l53 -226q-55 -47 -147.5 -68 t-184.5 -21q-115 0 -214 39.5t-173.5 131t-117.5 240.5t-43 367zM475 1602l175 251h304v-64l-281 -187h-198z" />
<glyph unicode="&#x107;" horiz-adv-x="744" d="M53 0zM53 532q0 279 100.5 420t293.5 141q96 0 157 -17t107 -43l-59 -210q-38 18 -73.5 27.5t-84.5 9.5q-89 0 -134 -77.5t-45 -250.5q0 -144 46 -235.5t145 -91.5q54 0 91 13.5t70 35.5l53 -197q-53 -42 -127.5 -63.5t-149.5 -21.5q-108 0 -182 39.5t-120.5 113t-67 177 t-20.5 230.5zM345 1205l89 329h254v-64l-201 -265h-142z" />
<glyph unicode="&#x108;" horiz-adv-x="972" d="M61 0zM61 748q0 225 48.5 374.5t126 238t178 124t202.5 35.5q104 0 182 -16.5t127 -38.5l-53 -236q-41 21 -95.5 33t-128.5 12q-147 0 -226 -128t-79 -400q0 -118 18.5 -214.5t57.5 -167t99.5 -109t146.5 -38.5q74 0 127.5 20.5t95.5 47.5l53 -226q-55 -47 -147.5 -68 t-184.5 -21q-115 0 -214 39.5t-173.5 131t-117.5 240.5t-43 367zM279 1571v86l232 196h185l221 -198v-84h-180l-100 88l-37 73l-38 -71l-106 -90h-177z" />
<glyph unicode="&#x109;" horiz-adv-x="744" d="M53 0zM53 532q0 279 100.5 420t293.5 141q96 0 157 -17t107 -43l-59 -210q-38 18 -73.5 27.5t-84.5 9.5q-89 0 -134 -77.5t-45 -250.5q0 -144 46 -235.5t145 -91.5q54 0 91 13.5t70 35.5l53 -197q-53 -42 -127.5 -63.5t-149.5 -21.5q-108 0 -182 39.5t-120.5 113t-67 177 t-20.5 230.5zM81 1171l215 388h181l194 -388h-198l-69 141l-27 104l-28 -104l-79 -141h-189z" />
<glyph unicode="&#x10c;" horiz-adv-x="972" d="M61 0zM61 748q0 225 48.5 374.5t126 238t178 124t202.5 35.5q104 0 182 -16.5t127 -38.5l-53 -236q-41 21 -95.5 33t-128.5 12q-147 0 -226 -128t-79 -400q0 -118 18.5 -214.5t57.5 -167t99.5 -109t146.5 -38.5q74 0 127.5 20.5t95.5 47.5l53 -226q-55 -47 -147.5 -68 t-184.5 -21q-115 0 -214 39.5t-173.5 131t-117.5 240.5t-43 367zM279 1770v83h193l90 -95l36 -65l37 63l95 97h187v-85l-231 -199h-186z" />
<glyph unicode="&#x10d;" horiz-adv-x="744" d="M53 0zM53 532q0 279 100.5 420t293.5 141q96 0 157 -17t107 -43l-59 -210q-38 18 -73.5 27.5t-84.5 9.5q-89 0 -134 -77.5t-45 -250.5q0 -144 46 -235.5t145 -91.5q54 0 91 13.5t70 35.5l53 -197q-53 -42 -127.5 -63.5t-149.5 -21.5q-108 0 -182 39.5t-120.5 113t-67 177 t-20.5 230.5zM128 1559h209l68 -140l28 -104l27 104l79 140h194l-215 -388h-188z" />
<glyph unicode="&#x10e;" horiz-adv-x="1138" d="M96 0zM96 -2v1493q38 7 86 10t98 6t97 4t83 1q176 0 295 -54t190 -153.5t100.5 -237.5t29.5 -309q0 -156 -28.5 -297.5t-100.5 -249t-196 -171.5t-311 -64q-28 0 -75 2.5t-98 6t-97.5 6.5t-72.5 7zM169 1770v83h193l90 -95l36 -65l37 63l95 97h187v-85l-231 -199h-186z M364 232q6 -2 22 -3t34.5 -2t34.5 -2t22 -1q96 0 158 44.5t96.5 119t49 171.5t14.5 203q0 98 -12 190t-45 161t-94 111t-156 42q-35 0 -69.5 -1.5t-54.5 -6.5v-1026z" />
<glyph unicode="&#x10f;" horiz-adv-x="947" d="M53 0zM53 516q0 281 100.5 427t297.5 146q51 0 85.5 -7t66.5 -21v430h253v-1117q0 -89 2 -178.5t18 -197.5h-179l-35 124h-8q-73 -149 -254 -150q-162 0 -254.5 128t-92.5 416zM315 506q0 -146 35 -223.5t110 -77.5q57 0 91.5 28.5t51.5 83.5v503q-21 18 -48 27t-69 9 q-86 0 -128.5 -76.5t-42.5 -273.5zM901 1116q30 77 45.5 177t15.5 198h222q-5 -61 -23 -128.5t-43.5 -127.5t-54 -106.5t-49.5 -67.5z" />
<glyph unicode="&#x110;" horiz-adv-x="1181" d="M-6 685v169h144v637q39 7 86.5 10t97.5 6t97.5 4t82.5 1q177 0 295.5 -54t190 -153.5t101 -237.5t29.5 -309q0 -156 -28.5 -297.5t-101 -249t-196 -171.5t-310.5 -64q-29 0 -75.5 2.5t-97.5 6t-98 6.5t-73 7v687h-144zM0 0zM407 232q6 -2 22 -3t34.5 -2t34.5 -2t22 -1 q96 0 157.5 44.5t96.5 119t49 171.5t14 203q0 98 -12 190t-44.5 161t-93.5 111t-157 42q-34 0 -69 -1.5t-54 -6.5v-404h229v-169h-229v-453z" />
<glyph unicode="&#x111;" horiz-adv-x="962" d="M53 516q0 281 100.5 427t297.5 146q51 0 85.5 -7t66.5 -21v136h-256v169h256v125h253v-125h130v-169h-130v-823q0 -89 2 -178.5t18 -197.5h-179l-35 124h-8q-73 -149 -254 -150q-162 0 -254.5 128t-92.5 416zM315 506q0 -146 35 -223.5t110 -77.5q57 0 91.5 28.5 t51.5 83.5v503q-21 18 -48 27t-69 9q-86 0 -128.5 -76.5t-42.5 -273.5z" />
<glyph unicode="&#x112;" horiz-adv-x="915" d="M96 0v1491h745v-247h-477v-366h433v-248h-433v-382h486v-248h-754zM96 0zM158 1634v189h616v-189h-616z" />
<glyph unicode="&#x113;" horiz-adv-x="911" d="M53 0zM53 532q0 288 114 425.5t317 137.5q68 0 131.5 -20t114 -68t81 -128t30.5 -202q0 -47 -5 -100t-16 -115h-517q4 -132 55 -202.5t164 -70.5q69 0 125 21.5t86 45.5l78 -177q-53 -47 -144.5 -77t-191.5 -30q-110 0 -190 38.5t-131.5 110.5t-76 175.5t-24.5 235.5z M169 1207v195h579v-195h-579zM311 630h294q7 122 -25 185t-101 63q-81 0 -121.5 -65t-46.5 -183z" />
<glyph unicode="&#x116;" horiz-adv-x="915" d="M96 0v1491h745v-247h-477v-366h433v-248h-433v-382h486v-248h-754zM96 0zM317 1701q0 53 41.5 91.5t122.5 38.5q83 0 125.5 -37.5t42.5 -92.5t-43 -93.5t-125 -38.5q-81 0 -122.5 38.5t-41.5 93.5z" />
<glyph unicode="&#x117;" horiz-adv-x="911" d="M53 0zM53 532q0 288 114 425.5t317 137.5q68 0 131.5 -20t114 -68t81 -128t30.5 -202q0 -47 -5 -100t-16 -115h-517q4 -132 55 -202.5t164 -70.5q69 0 125 21.5t86 45.5l78 -177q-53 -47 -144.5 -77t-191.5 -30q-110 0 -190 38.5t-131.5 110.5t-76 175.5t-24.5 235.5z M311 630h294q7 122 -25 185t-101 63q-81 0 -121.5 -65t-46.5 -183zM311 1366q0 63 40.5 104.5t114.5 41.5q75 0 119.5 -40.5t44.5 -105.5q0 -66 -44.5 -104.5t-119.5 -38.5t-115 39.5t-40 103.5z" />
<glyph unicode="&#x118;" horiz-adv-x="915" d="M96 0v1491h745v-247h-477v-366h433v-248h-433v-382h486v-248h-51q-100 -47 -100 -156q0 -53 37 -79.5t105 5.5l39 -124q-13 -12 -34 -25t-49 -23.5t-61 -18t-65 -7.5q-108 0 -164 53.5t-56 138.5q0 81 45 140.5t118 95.5h-518z" />
<glyph unicode="&#x119;" horiz-adv-x="896" d="M53 532q0 288 114 425.5t317 137.5q68 0 131.5 -20t114 -68t81 -128t30.5 -202q0 -47 -5 -100t-16 -115h-517q4 -132 55 -202.5t164 -70.5q69 0 125 21.5t86 45.5l78 -177q-45 -41 -114 -67q-30 -20 -51 -50q-39 -51 -37 -109q0 -28 10.5 -50t31 -35t48 -10.5t61.5 20.5 l39 -132q-26 -26 -86.5 -51.5t-129.5 -25.5q-101 0 -156 59t-55 142q0 100 63 171q14 16 32 31q-106 2 -184 38q-79 39 -130 111t-75.5 175.5t-24.5 235.5zM311 630h294q7 122 -25 185t-101 63q-81 0 -121.5 -65t-46.5 -183z" />
<glyph unicode="&#x11a;" horiz-adv-x="915" d="M96 0v1491h745v-247h-477v-366h433v-248h-433v-382h486v-248h-754zM96 0zM147 1770v83h193l90 -95l36 -65l37 63l95 97h187v-85l-231 -199h-186z" />
<glyph unicode="&#x11b;" horiz-adv-x="911" d="M53 0zM53 532q0 288 114 425.5t317 137.5q68 0 131.5 -20t114 -68t81 -128t30.5 -202q0 -47 -5 -100t-16 -115h-517q4 -132 55 -202.5t164 -70.5q69 0 125 21.5t86 45.5l78 -177q-53 -47 -144.5 -77t-191.5 -30q-110 0 -190 38.5t-131.5 110.5t-76 175.5t-24.5 235.5z M164 1559h209l68 -140l28 -104l27 104l79 140h194l-215 -388h-188zM311 630h294q7 122 -25 185t-101 63q-81 0 -121.5 -65t-46.5 -183z" />
<glyph unicode="&#x11c;" horiz-adv-x="1069" d="M61 0zM61 746q0 213 47.5 359.5t125 239t181 134t217.5 41.5q102 0 186.5 -18t140.5 -41l-56 -232q-43 19 -99 32t-137 13q-75 0 -135.5 -30t-102 -94t-64 -165t-22.5 -241q0 -271 81.5 -399t216.5 -128q42 0 81.5 12.5t69.5 40.5v305l-245 34v162h461v-661 q-79 -75 -184.5 -107.5t-209.5 -32.5q-126 0 -228.5 44.5t-174 140t-111 241t-39.5 350.5zM246 1571v86l232 196h185l221 -198v-84h-180l-100 88l-37 73l-38 -71l-106 -90h-177z" />
<glyph unicode="&#x11d;" horiz-adv-x="943" d="M53 0zM53 512q0 296 116 436.5t331 140.5q116 0 207.5 -18.5t146.5 -44.5v-1026q0 -232 -106.5 -341.5t-296.5 -109.5q-132 0 -206 20t-115 43l53 215q47 -18 101.5 -35.5t128.5 -17.5q108 0 150 59t42 177v59h-7q-30 -43 -79.5 -64.5t-128.5 -21.5q-168 0 -252.5 126.5 t-84.5 402.5zM177 1171l215 388h181l194 -388h-198l-69 141l-27 104l-28 -104l-79 -141h-189zM315 522q0 -321 145 -321q57 0 90 27.5t51 78.5v532q-24 11 -52.5 17t-66.5 6q-80 0 -123.5 -76.5t-43.5 -263.5z" />
<glyph unicode="&#x11e;" horiz-adv-x="1069" d="M61 0zM61 746q0 213 47.5 359.5t125 239t181 134t217.5 41.5q102 0 186.5 -18t140.5 -41l-56 -232q-43 19 -99 32t-137 13q-75 0 -135.5 -30t-102 -94t-64 -165t-22.5 -241q0 -271 81.5 -399t216.5 -128q42 0 81.5 12.5t69.5 40.5v305l-245 34v162h461v-661 q-79 -75 -184.5 -107.5t-209.5 -32.5q-126 0 -228.5 44.5t-174 140t-111 241t-39.5 350.5zM246 1789l98 75q36 -55 104 -86.5t149 -31.5q86 0 146 32.5t97 85.5l93 -66q-24 -63 -59.5 -109.5t-81.5 -76t-96 -43.5t-101 -14q-46 0 -96.5 13t-98.5 40.5t-88.5 72t-65.5 108.5z " />
<glyph unicode="&#x11f;" horiz-adv-x="943" d="M53 0zM53 512q0 296 116 436.5t331 140.5q116 0 207.5 -18.5t146.5 -44.5v-1026q0 -232 -106.5 -341.5t-296.5 -109.5q-132 0 -206 20t-115 43l53 215q47 -18 101.5 -35.5t128.5 -17.5q108 0 150 59t42 177v59h-7q-30 -43 -79.5 -64.5t-128.5 -21.5q-168 0 -252.5 126.5 t-84.5 402.5zM166 1467l120 65q30 -64 83 -96t114 -32t110.5 31.5t72.5 96.5l118 -56q-4 -55 -28.5 -104t-64 -87.5t-93.5 -61t-117 -22.5q-122 0 -207 70.5t-108 195.5zM315 522q0 -321 145 -321q57 0 90 27.5t51 78.5v532q-24 11 -52.5 17t-66.5 6q-80 0 -123.5 -76.5 t-43.5 -263.5z" />
<glyph unicode="&#x122;" horiz-adv-x="1069" d="M61 0zM61 746q0 213 47.5 359.5t125 239t181 134t217.5 41.5q102 0 186.5 -18t140.5 -41l-56 -232q-43 19 -99 32t-137 13q-75 0 -135.5 -30t-102 -94t-64 -165t-22.5 -241q0 -271 81.5 -399t216.5 -128q42 0 81.5 12.5t69.5 40.5v305l-245 34v162h461v-661 q-79 -75 -184.5 -107.5t-209.5 -32.5q-126 0 -228.5 44.5t-174 140t-111 241t-39.5 350.5zM504 -226q0 62 38.5 99.5t93.5 37.5q66 0 107.5 -47t41.5 -143q0 -70 -21.5 -123.5t-52 -89.5t-64 -58.5t-58.5 -30.5l-70 97q28 17 53.5 50.5t29.5 79.5q-32 2 -65 32.5t-33 95.5z " />
<glyph unicode="&#x123;" horiz-adv-x="943" d="M53 0zM53 512q0 296 116 436.5t331 140.5q116 0 207.5 -18.5t146.5 -44.5v-1026q0 -232 -106.5 -341.5t-296.5 -109.5q-132 0 -206 20t-115 43l53 215q47 -18 101.5 -35.5t128.5 -17.5q108 0 150 59t42 177v59h-7q-30 -43 -79.5 -64.5t-128.5 -21.5q-168 0 -252.5 126.5 t-84.5 402.5zM315 522q0 -321 145 -321q57 0 90 27.5t51 78.5v532q-24 11 -52.5 17t-66.5 6q-80 0 -123.5 -76.5t-43.5 -263.5zM364 1363q0 70 21.5 123.5t52 89.5t64 58.5t58.5 30.5l70 -97q-28 -17 -53.5 -50.5t-29.5 -79.5q32 -2 65 -32.5t33 -95.5q0 -62 -38.5 -99.5 t-93.5 -37.5q-66 0 -107.5 47t-41.5 143z" />
<glyph unicode="&#x124;" horiz-adv-x="1134" d="M96 0v1491h268v-613h407v613h268v-1491h-268v630h-407v-630h-268zM96 0zM262 1571v86l232 196h185l221 -198v-84h-180l-100 88l-37 73l-38 -71l-106 -90h-177z" />
<glyph unicode="&#x125;" horiz-adv-x="955" d="M92 0v1491h253v-522h7q42 55 103 89.5t152 34.5q66 0 115 -19t83 -64t51.5 -121t17.5 -190v-699h-254v643q0 115 -26.5 166t-97.5 51q-51 0 -93.5 -36t-57.5 -91v-733h-253zM92 0zM162 1571v86l232 196h185l221 -198v-84h-180l-100 88l-37 73l-38 -71l-106 -90h-177z" />
<glyph unicode="&#x126;" horiz-adv-x="1207" d="M4 1103v167h130v221h268v-221h407v221h268v-221h126v-167h-126v-1103h-268v630h-407v-630h-268v1103h-130zM402 878h407v225h-407v-225z" />
<glyph unicode="&#x127;" horiz-adv-x="970" d="M-19 1197v169h125v125h254v-125h283v-169h-283v-228h6q43 55 103.5 89.5t152.5 34.5q65 0 114.5 -19t83.5 -64t51 -121t17 -190v-699h-254v643q0 115 -26.5 166t-95.5 51q-51 0 -94.5 -36t-57.5 -91v-733h-254v1197h-125z" />
<glyph unicode="&#x12a;" horiz-adv-x="506" d="M-47 1634v189h616v-189h-616zM0 0zM120 0v1491h268v-1491h-268z" />
<glyph unicode="&#x12b;" horiz-adv-x="478" d="M-51 1207v195h579v-195h-579zM0 0zM113 0v1065h253v-1065h-253z" />
<glyph unicode="&#x12e;" horiz-adv-x="506" d="M34 -236q0 81 42 140.5t113 95.5h-69v1491h268v-1491h-26q-36 -26 -58.5 -63t-22.5 -93q0 -55 37.5 -81.5t105.5 7.5l38 -126q-26 -24 -85.5 -49.5t-126.5 -25.5q-104 0 -160 54t-56 141z" />
<glyph unicode="&#x12f;" horiz-adv-x="474" d="M24 -234q0 81 40 139.5t113 94.5h-64v1065h253v-1065h-23q-38 -30 -61.5 -68t-21.5 -88q0 -55 42.5 -81.5t108.5 15.5l38 -132q-26 -26 -86 -51.5t-129 -25.5q-104 0 -157 55t-53 142zM79 1366q0 63 40.5 104.5t114.5 41.5q75 0 119.5 -40.5t44.5 -105.5 q0 -66 -44.5 -104.5t-119.5 -38.5t-115 39.5t-40 103.5z" />
<glyph unicode="&#x130;" horiz-adv-x="506" d="M89 0zM90 1701q0 53 41.5 91.5t122.5 38.5q83 0 125.5 -37.5t42.5 -92.5t-43 -93.5t-125 -38.5q-81 0 -122.5 38.5t-41.5 93.5zM120 0v1491h268v-1491h-268z" />
<glyph unicode="&#x131;" horiz-adv-x="478" d="M113 0v1065h253v-1065h-253z" />
<glyph unicode="&#x134;" horiz-adv-x="614" d="M-36 24l62 226q45 -28 104 -28q75 0 92.5 62.5t17.5 179.5v1027h269v-1084q0 -98 -16 -178t-52 -136.5t-96 -87.5t-149 -31q-62 0 -123 13t-109 37zM0 0zM47 1571v86l232 196h185l221 -198v-84h-180l-100 88l-37 73l-38 -71l-106 -90h-177z" />
<glyph unicode="&#x135;" horiz-adv-x="478" d="M-53 1171l215 388h181l194 -388h-198l-69 141l-27 104l-28 -104l-79 -141h-189zM-34 -203q91 -8 120 53t29 180v1035h253v-1110q0 -193 -67 -295.5t-214 -102.5q-59 0 -121 15v225zM0 0z" />
<glyph unicode="&#x136;" horiz-adv-x="1104" d="M96 0v1491h268v-662l53 25l313 637h303l-340 -629l-101 -78l103 -81l394 -703h-329l-338 639h-58v-639h-268zM96 0zM396 -226q0 62 38.5 99.5t93.5 37.5q66 0 107.5 -47t41.5 -143q0 -70 -21.5 -123.5t-52 -89.5t-64 -58.5t-58.5 -30.5l-70 97q28 17 53.5 50.5t29.5 79.5 q-32 2 -65 32.5t-33 95.5z" />
<glyph unicode="&#x137;" horiz-adv-x="876" d="M92 0v1491h253v-879l51 29l177 424h275l-196 -422l-91 -72l99 -73l218 -498h-286l-187 441h-60v-441h-253zM92 0zM307 -226q0 62 38.5 99.5t93.5 37.5q66 0 107.5 -47t41.5 -143q0 -70 -21.5 -123.5t-52 -89.5t-64 -58.5t-58.5 -30.5l-70 97q28 17 53.5 50.5t29.5 79.5 q-32 2 -65 32.5t-33 95.5z" />
<glyph unicode="&#x139;" horiz-adv-x="902" d="M96 0v1491h268v-1243h524v-248h-792zM96 0zM160 1602l175 251h304v-64l-281 -187h-198z" />
<glyph unicode="&#x13a;" horiz-adv-x="516" d="M96 0zM96 209v1282h253v-1146q0 -75 15.5 -106.5t48.5 -31.5q19 0 39.5 4t45.5 15l24 -205q-26 -17 -88 -32t-125 -15q-106 0 -159.5 53.5t-53.5 181.5zM118 1602l175 251h304v-64l-281 -187h-198z" />
<glyph unicode="&#x13b;" horiz-adv-x="902" d="M96 0v1491h268v-1243h524v-248h-792zM96 0zM319 -226q0 62 38.5 99.5t93.5 37.5q66 0 107.5 -47t41.5 -143q0 -70 -21.5 -123.5t-52 -89.5t-64 -58.5t-58.5 -30.5l-70 97q28 17 53.5 50.5t29.5 79.5q-32 2 -65 32.5t-33 95.5z" />
<glyph unicode="&#x13c;" horiz-adv-x="516" d="M96 0zM96 209v1282h253v-1146q0 -75 15.5 -106.5t48.5 -31.5q19 0 39.5 4t45.5 15l24 -205q-26 -17 -88 -32t-125 -15q-106 0 -159.5 53.5t-53.5 181.5zM162 -226q0 62 38.5 99.5t93.5 37.5q66 0 107.5 -47t41.5 -143q0 -70 -21.5 -123.5t-52 -89.5t-64 -58.5 t-58.5 -30.5l-70 97q28 17 53.5 50.5t29.5 79.5q-32 2 -65 32.5t-33 95.5z" />
<glyph unicode="&#x13d;" horiz-adv-x="902" d="M96 0v1491h268v-1243h524v-248h-792zM96 0zM563 1116q30 77 45.5 177t15.5 198h222q-5 -61 -23 -128.5t-43.5 -127.5t-54 -106.5t-49.5 -67.5z" />
<glyph unicode="&#x13e;" horiz-adv-x="516" d="M96 0zM96 209v1282h253v-1146q0 -75 15.5 -106.5t48.5 -31.5q19 0 39.5 4t45.5 15l24 -205q-26 -17 -88 -32t-125 -15q-106 0 -159.5 53.5t-53.5 181.5zM397 1116q30 77 45.5 177t15.5 198h222q-5 -61 -23 -128.5t-43.5 -127.5t-54 -106.5t-49.5 -67.5z" />
<glyph unicode="&#x141;" horiz-adv-x="923" d="M6 419v262l112 85v725h268v-518l179 139v-269l-179 -136v-459h523v-248h-791v502z" />
<glyph unicode="&#x142;" horiz-adv-x="567" d="M2 396v262l134 102v731h254v-534l171 132v-269l-171 -129v-346q0 -75 14.5 -106.5t48.5 -31.5q19 0 40 4t46 15l24 -205q-26 -17 -88 -32t-126 -15q-106 0 -159.5 53.5t-53.5 181.5v289z" />
<glyph unicode="&#x143;" horiz-adv-x="1149" d="M96 0v1502h207l427 -750l93 -258h12l-34 254v743h254v-1501h-207l-424 743l-98 261h-11l34 -257v-737h-253zM96 0zM471 1602l175 251h304v-64l-281 -187h-198z" />
<glyph unicode="&#x144;" horiz-adv-x="955" d="M92 0v1065h202l29 -124h7q38 62 104 106t173 44q64 0 114 -19.5t84 -63t51.5 -117.5t17.5 -182v-709h-254v648q0 117 -27.5 163.5t-94.5 46.5q-55 0 -95.5 -34t-57.5 -85v-739h-253zM92 0zM392 1205l89 329h254v-64l-201 -265h-142z" />
<glyph unicode="&#x145;" horiz-adv-x="1149" d="M96 0v1502h207l427 -750l93 -258h12l-34 254v743h254v-1501h-207l-424 743l-98 261h-11l34 -257v-737h-253zM96 0zM456 -226q0 62 38.5 99.5t93.5 37.5q66 0 107.5 -47t41.5 -143q0 -70 -21.5 -123.5t-52 -89.5t-64 -58.5t-58.5 -30.5l-70 97q28 17 53.5 50.5t29.5 79.5 q-32 2 -65 32.5t-33 95.5z" />
<glyph unicode="&#x146;" horiz-adv-x="955" d="M92 0v1065h202l29 -124h7q38 62 104 106t173 44q64 0 114 -19.5t84 -63t51.5 -117.5t17.5 -182v-709h-254v648q0 117 -27.5 163.5t-94.5 46.5q-55 0 -95.5 -34t-57.5 -85v-739h-253zM92 0zM339 -226q0 62 38.5 99.5t93.5 37.5q66 0 107.5 -47t41.5 -143 q0 -70 -21.5 -123.5t-52 -89.5t-64 -58.5t-58.5 -30.5l-70 97q28 17 53.5 50.5t29.5 79.5q-32 2 -65 32.5t-33 95.5z" />
<glyph unicode="&#x147;" horiz-adv-x="1149" d="M96 0v1502h207l427 -750l93 -258h12l-34 254v743h254v-1501h-207l-424 743l-98 261h-11l34 -257v-737h-253zM96 0zM266 1770v83h193l90 -95l36 -65l37 63l95 97h187v-85l-231 -199h-186z" />
<glyph unicode="&#x148;" horiz-adv-x="955" d="M92 0v1065h202l29 -124h7q38 62 104 106t173 44q64 0 114 -19.5t84 -63t51.5 -117.5t17.5 -182v-709h-254v648q0 117 -27.5 163.5t-94.5 46.5q-55 0 -95.5 -34t-57.5 -85v-739h-253zM92 0zM181 1559h209l68 -140l28 -104l27 104l79 140h194l-215 -388h-188z" />
<glyph unicode="&#x14c;" horiz-adv-x="1177" d="M61 0zM61 746q0 379 130 576.5t397 197.5q138 0 238.5 -54t164.5 -155t94.5 -245t30.5 -320q0 -380 -133 -578t-395 -198q-141 0 -239.5 54.5t-162.5 155.5t-94.5 245t-30.5 321zM286 1634v189h616v-189h-616zM343 746q0 -114 12.5 -210.5t42.5 -167t76 -111t114 -40.5 q123 0 185 126t62 403q0 108 -13 205t-41.5 168.5t-75.5 113t-117 41.5q-245 0 -245 -528z" />
<glyph unicode="&#x14d;" horiz-adv-x="947" d="M53 0zM53 532q0 283 111 422t309 139q213 0 317 -141t104 -420q0 -284 -110.5 -422t-310.5 -138q-420 0 -420 560zM181 1207v195h579v-195h-579zM315 532q0 -160 36.5 -247t121.5 -87q81 0 120 75.5t39 258.5q0 165 -35.5 250t-123.5 85q-75 0 -116.5 -75.5t-41.5 -259.5 z" />
<glyph unicode="&#x150;" horiz-adv-x="1177" d="M61 0zM61 746q0 379 130 576.5t397 197.5q138 0 238.5 -54t164.5 -155t94.5 -245t30.5 -320q0 -380 -133 -578t-395 -198q-141 0 -239.5 54.5t-162.5 155.5t-94.5 245t-30.5 321zM317 1579l102 232h256v-35l-175 -197h-183zM343 746q0 -114 12.5 -210.5t42.5 -167 t76 -111t114 -40.5q123 0 185 126t62 403q0 108 -13 205t-41.5 168.5t-75.5 113t-117 41.5q-245 0 -245 -528zM617 1579l168 232h266v-35l-250 -197h-184z" />
<glyph unicode="&#x151;" horiz-adv-x="947" d="M53 0zM53 532q0 283 111 422t309 139q213 0 317 -141t104 -420q0 -284 -110.5 -422t-310.5 -138q-420 0 -420 560zM238 1216l61 275h230v-34l-136 -241h-155zM315 532q0 -160 36.5 -247t121.5 -87q81 0 120 75.5t39 258.5q0 165 -35.5 250t-123.5 85q-75 0 -116.5 -75.5 t-41.5 -259.5zM500 1216l128 275h242v-34l-211 -241h-159z" />
<glyph unicode="&#x152;" horiz-adv-x="1603" d="M61 746q0 376 130 575t388 199q64 0 116.5 -9t88.5 -20h743v-247h-475v-366h430v-248h-430v-382h484v-248h-752q-34 -12 -93 -21t-112 -9q-136 0 -233.5 55.5t-160.5 156.5t-93.5 244t-30.5 320zM343 746q0 -114 13.5 -210.5t45 -167t80 -111t121.5 -40.5q49 0 91.5 8.5 t89.5 32.5v963q-34 24 -83 38.5t-111 14.5q-122 0 -184.5 -129t-62.5 -399z" />
<glyph unicode="&#x153;" horiz-adv-x="1484" d="M53 532q0 277 109.5 420t310.5 143q120 0 187.5 -44.5t105.5 -100.5q41 55 108 100t183 45q68 0 132.5 -20t115 -68t80 -129t29.5 -201q0 -49 -5 -101t-16 -114h-515q4 -136 54 -207.5t159 -71.5q73 0 129 25.5t85 51.5l83 -177q-53 -49 -147.5 -81t-196.5 -32 q-96 0 -170.5 39.5t-117.5 108.5q-43 -69 -112 -108.5t-175 -39.5q-211 0 -313.5 145t-102.5 417zM315 532q0 -152 37.5 -244t120.5 -92q81 0 119 79t38 257q0 161 -34.5 249t-122.5 88q-75 0 -116.5 -76.5t-41.5 -260.5zM884 630h294q9 116 -22 184t-104 68 q-85 0 -123.5 -71.5t-44.5 -180.5z" />
<glyph unicode="&#x154;" horiz-adv-x="1071" d="M96 0v1476q87 18 187.5 27t172.5 9q91 0 178.5 -18t154.5 -66t108.5 -130t41.5 -207q0 -181 -67 -295.5t-184 -156.5l85 -68l275 -571h-309l-260 588l-115 28v-616h-268zM96 0zM331 1602l175 251h304v-64l-281 -187h-198zM364 799h92q99 0 150.5 60.5t51.5 188.5 q0 96 -42.5 157t-133.5 61q-35 0 -66.5 -3t-51.5 -9v-455z" />
<glyph unicode="&#x155;" horiz-adv-x="624" d="M92 0v1065h193l30 -128h8q29 71 81 110t120 39q51 0 100 -21l-30 -252q-51 19 -94 20q-57 0 -98.5 -32t-56.5 -90v-711h-253zM92 0zM222 1205l89 329h254v-64l-201 -265h-142z" />
<glyph unicode="&#x156;" horiz-adv-x="1071" d="M96 0v1476q87 18 187.5 27t172.5 9q91 0 178.5 -18t154.5 -66t108.5 -130t41.5 -207q0 -181 -67 -295.5t-184 -156.5l85 -68l275 -571h-309l-260 588l-115 28v-616h-268zM96 0zM364 799h92q99 0 150.5 60.5t51.5 188.5q0 96 -42.5 157t-133.5 61q-35 0 -66.5 -3t-51.5 -9 v-455zM409 -226q0 62 38.5 99.5t93.5 37.5q66 0 107.5 -47t41.5 -143q0 -70 -21.5 -123.5t-52 -89.5t-64 -58.5t-58.5 -30.5l-70 97q28 17 53.5 50.5t29.5 79.5q-32 2 -65 32.5t-33 95.5z" />
<glyph unicode="&#x157;" horiz-adv-x="624" d="M92 0v1065h193l30 -128h8q29 71 81 110t120 39q51 0 100 -21l-30 -252q-51 19 -94 20q-57 0 -98.5 -32t-56.5 -90v-711h-253zM92 0zM130 -226q0 62 38.5 99.5t93.5 37.5q66 0 107.5 -47t41.5 -143q0 -70 -21.5 -123.5t-52 -89.5t-64 -58.5t-58.5 -30.5l-70 97 q28 17 53.5 50.5t29.5 79.5q-32 2 -65 32.5t-33 95.5z" />
<glyph unicode="&#x158;" horiz-adv-x="1071" d="M98 0v1476q87 18 187.5 27t172.5 9q91 0 178.5 -18t154.5 -66t108.5 -130t41.5 -207q0 -181 -67 -295.5t-184 -156.5l85 -68l275 -571h-309l-260 588l-115 28v-616h-268zM98 0zM143 1770v83h193l90 -95l36 -65l37 63l95 97h187v-85l-231 -199h-186zM366 799h92 q99 0 150.5 60.5t51.5 188.5q0 96 -42.5 157t-133.5 61q-35 0 -66.5 -3t-51.5 -9v-455z" />
<glyph unicode="&#x159;" horiz-adv-x="624" d="M43 0zM43 1559h209l68 -140l28 -104l27 104l79 140h194l-215 -388h-188zM92 0v1065h193l30 -128h8q29 71 81 110t120 39q51 0 100 -21l-30 -252q-51 19 -94 20q-57 0 -98.5 -32t-56.5 -90v-711h-253z" />
<glyph unicode="&#x15a;" horiz-adv-x="934" d="M41 0zM41 53l87 241q43 -26 117 -51.5t160 -25.5q213 0 213 167q0 68 -40.5 115.5t-101.5 90t-132.5 87.5t-132 104.5t-100.5 141t-40 197.5q0 108 32.5 184t90.5 124t136.5 70t167.5 22q108 0 202.5 -21t155.5 -58l-83 -236q-37 26 -108 47.5t-153 21.5 q-84 0 -128.5 -34.5t-44.5 -99.5q0 -59 40 -105.5t101 -89t132 -88.5t132 -106t101.5 -142.5t40.5 -195.5t-33 -196t-93.5 -137t-146 -82t-189.5 -28q-132 0 -231 25.5t-152 57.5zM354 1602l175 251h304v-64l-281 -187h-198z" />
<glyph unicode="&#x15b;" horiz-adv-x="744" d="M41 0zM41 49l69 205q45 -26 103.5 -45.5t123.5 -19.5q49 0 80.5 22.5t31.5 71.5q0 45 -28.5 76t-73 57.5t-94.5 54t-95 68t-74 98.5t-29 145q0 149 81 230t238 81q94 0 177 -20.5t132 -50.5l-59 -195q-41 16 -98 32.5t-113 16.5q-104 0 -104 -88q0 -40 28.5 -66.5 t73.5 -52.5t95 -53.5t95 -69.5t73.5 -101t28.5 -147q0 -146 -89.5 -236t-266.5 -90q-87 0 -171 21.5t-135 55.5zM281 1205l89 329h254v-64l-201 -265h-142z" />
<glyph unicode="&#x15c;" horiz-adv-x="934" d="M41 0zM41 53l87 241q43 -26 117 -51.5t160 -25.5q213 0 213 167q0 68 -40.5 115.5t-101.5 90t-132.5 87.5t-132 104.5t-100.5 141t-40 197.5q0 108 32.5 184t90.5 124t136.5 70t167.5 22q108 0 202.5 -21t155.5 -58l-83 -236q-37 26 -108 47.5t-153 21.5 q-84 0 -128.5 -34.5t-44.5 -99.5q0 -59 40 -105.5t101 -89t132 -88.5t132 -106t101.5 -142.5t40.5 -195.5t-33 -196t-93.5 -137t-146 -82t-189.5 -28q-132 0 -231 25.5t-152 57.5zM179 1571v86l232 196h185l221 -198v-84h-180l-100 88l-37 73l-38 -71l-106 -90h-177z" />
<glyph unicode="&#x15d;" horiz-adv-x="744" d="M41 0zM41 49l69 205q45 -26 103.5 -45.5t123.5 -19.5q49 0 80.5 22.5t31.5 71.5q0 45 -28.5 76t-73 57.5t-94.5 54t-95 68t-74 98.5t-29 145q0 149 81 230t238 81q94 0 177 -20.5t132 -50.5l-59 -195q-41 16 -98 32.5t-113 16.5q-104 0 -104 -88q0 -40 28.5 -66.5 t73.5 -52.5t95 -53.5t95 -69.5t73.5 -101t28.5 -147q0 -146 -89.5 -236t-266.5 -90q-87 0 -171 21.5t-135 55.5zM81 1171l215 388h181l194 -388h-198l-69 141l-27 104l-28 -104l-79 -141h-189z" />
<glyph unicode="&#x15e;" horiz-adv-x="934" d="M41 53l87 243q43 -26 117 -51.5t160 -25.5q213 0 213 165q0 68 -40.5 115.5t-101.5 90t-132.5 87.5t-132 104.5t-100.5 141t-40 197.5q0 108 32.5 184t90.5 124t136.5 70t167.5 22q108 0 202.5 -21t155.5 -58l-83 -236q-37 26 -108 47.5t-153 21.5q-84 0 -128.5 -34.5 t-44.5 -99.5q0 -59 40 -105.5t101 -89t132 -88.5t132 -106t101.5 -142.5t40.5 -195.5q0 -196 -95.5 -303.5t-260.5 -130.5l-32 -71q73 -8 115.5 -45.5t42.5 -114.5q0 -49 -22 -84.5t-60.5 -60.5t-89.5 -37.5t-108 -12.5t-114 12l15 103q89 -8 118 11.5t29 50.5q0 59 -149 67 l89 175q-110 4 -193.5 28t-129.5 53z" />
<glyph unicode="&#x15f;" horiz-adv-x="744" d="M41 49l69 205q45 -26 103.5 -45.5t123.5 -19.5q49 0 80.5 22.5t31.5 71.5q0 45 -28.5 76t-73 57.5t-94.5 54t-95 68t-74 98.5t-29 145q0 149 81 230t238 81q94 0 177 -20.5t132 -50.5l-59 -195q-41 16 -98 32.5t-113 16.5q-104 0 -104 -88q0 -40 28.5 -66.5t73.5 -52.5 t95 -53.5t95 -69.5t73.5 -101t28.5 -147q0 -125 -64 -208.5t-190 -106.5l-34 -75q73 -8 115.5 -45.5t42.5 -114.5q0 -49 -22.5 -84.5t-61 -60.5t-89.5 -37.5t-106 -12.5q-57 0 -115 12l14 103q90 -8 119 11.5t29 50.5q0 59 -150 67l92 179q-73 6 -136.5 25.5t-105.5 47.5z " />
<glyph unicode="&#x160;" horiz-adv-x="934" d="M41 0zM41 53l87 241q43 -26 117 -51.5t160 -25.5q213 0 213 167q0 68 -40.5 115.5t-101.5 90t-132.5 87.5t-132 104.5t-100.5 141t-40 197.5q0 108 32.5 184t90.5 124t136.5 70t167.5 22q108 0 202.5 -21t155.5 -58l-83 -236q-37 26 -108 47.5t-153 21.5 q-84 0 -128.5 -34.5t-44.5 -99.5q0 -59 40 -105.5t101 -89t132 -88.5t132 -106t101.5 -142.5t40.5 -195.5t-33 -196t-93.5 -137t-146 -82t-189.5 -28q-132 0 -231 25.5t-152 57.5zM179 1770v83h193l90 -95l36 -65l37 63l95 97h187v-85l-231 -199h-186z" />
<glyph unicode="&#x161;" horiz-adv-x="744" d="M41 0zM41 49l69 205q45 -26 103.5 -45.5t123.5 -19.5q49 0 80.5 22.5t31.5 71.5q0 45 -28.5 76t-73 57.5t-94.5 54t-95 68t-74 98.5t-29 145q0 149 81 230t238 81q94 0 177 -20.5t132 -50.5l-59 -195q-41 16 -98 32.5t-113 16.5q-104 0 -104 -88q0 -40 28.5 -66.5 t73.5 -52.5t95 -53.5t95 -69.5t73.5 -101t28.5 -147q0 -146 -89.5 -236t-266.5 -90q-87 0 -171 21.5t-135 55.5zM75 1559h209l68 -140l28 -104l27 104l79 140h194l-215 -388h-188z" />
<glyph unicode="&#x162;" horiz-adv-x="1006" d="M17 0zM17 1244v247h973v-247h-351v-1244h-269v1244h-353zM360 -226q0 62 38.5 99.5t93.5 37.5q66 0 107.5 -47t41.5 -143q0 -70 -21.5 -123.5t-52 -89.5t-64 -58.5t-58.5 -30.5l-70 97q28 17 53.5 50.5t29.5 79.5q-32 2 -65 32.5t-33 95.5z" />
<glyph unicode="&#x163;" horiz-adv-x="618" d="M8 0zM8 839v226h118v201l254 78v-279h206v-226h-206v-465q0 -91 17.5 -129t64.5 -38q32 0 57.5 6t55.5 19l32 -202q-46 -24 -108 -40t-131 -16q-122 0 -182 70.5t-60 236.5v558h-118zM189 -226q0 62 38.5 99.5t93.5 37.5q66 0 107.5 -47t41.5 -143q0 -70 -21.5 -123.5 t-52 -89.5t-64 -58.5t-58.5 -30.5l-70 97q28 17 53.5 50.5t29.5 79.5q-32 2 -65 32.5t-33 95.5z" />
<glyph unicode="&#x164;" horiz-adv-x="1006" d="M17 0zM17 1244v247h973v-247h-351v-1244h-269v1244h-353zM183 1770v83h193l90 -95l36 -65l37 63l95 97h187v-85l-231 -199h-186z" />
<glyph unicode="&#x165;" horiz-adv-x="632" d="M8 0zM8 839v226h118v201l254 78v-279h206v-226h-206v-465q0 -91 17.5 -129t64.5 -38q32 0 57.5 6t55.5 19l32 -202q-46 -24 -108 -40t-131 -16q-122 0 -182 70.5t-60 236.5v558h-118zM427 1165q30 77 45.5 177t15.5 198h222q-5 -61 -23 -128.5t-43.5 -127.5t-54 -106.5 t-49.5 -67.5z" />
<glyph unicode="&#x16a;" horiz-adv-x="1096" d="M89 0zM89 488v1003h269v-956q0 -175 46.5 -244t156.5 -69q104 0 148.5 73t44.5 240v956h254v-967q0 -290 -118.5 -420t-326.5 -130q-246 0 -360 127t-114 387zM246 1634v189h616v-189h-616z" />
<glyph unicode="&#x16b;" horiz-adv-x="949" d="M83 0zM83 372v693h254v-637q0 -125 23.5 -174t84.5 -49q59 0 100 43.5t58 105.5v711h253v-742q0 -87 6.5 -170.5t23.5 -152.5h-191l-45 145h-7q-41 -75 -110 -124t-171 -49q-66 0 -117.5 18t-87 63t-55 123t-19.5 196zM183 1207v195h579v-195h-579z" />
<glyph unicode="&#x16c;" horiz-adv-x="1096" d="M89 0zM89 488v1003h269v-956q0 -175 46.5 -244t156.5 -69q104 0 148.5 73t44.5 240v956h254v-967q0 -290 -118.5 -420t-326.5 -130q-246 0 -360 127t-114 387zM205 1789l98 75q36 -55 104 -86.5t149 -31.5q86 0 146 32.5t97 85.5l93 -66q-24 -63 -59.5 -109.5t-81.5 -76 t-96 -43.5t-101 -14q-46 0 -96.5 13t-98.5 40.5t-88.5 72t-65.5 108.5z" />
<glyph unicode="&#x16d;" horiz-adv-x="949" d="M83 0zM83 372v693h254v-637q0 -125 23.5 -174t84.5 -49q59 0 100 43.5t58 105.5v711h253v-742q0 -87 6.5 -170.5t23.5 -152.5h-191l-45 145h-7q-41 -75 -110 -124t-171 -49q-66 0 -117.5 18t-87 63t-55 123t-19.5 196zM166 1467l120 65q30 -64 83 -96t114 -32t110.5 31.5 t72.5 96.5l118 -56q-4 -55 -28.5 -104t-64 -87.5t-93.5 -61t-117 -22.5q-122 0 -207 70.5t-108 195.5z" />
<glyph unicode="&#x16e;" horiz-adv-x="1096" d="M89 0zM89 488v1003h269v-956q0 -175 46.5 -244t156.5 -69q104 0 148.5 73t44.5 240v956h254v-967q0 -290 -118.5 -420t-326.5 -130q-246 0 -360 127t-114 387zM321 1644q0 39 10.5 74t38.5 61.5t72.5 41.5t114.5 15q130 0 184.5 -51t54.5 -141q0 -38 -12 -72t-39.5 -58.5 t-73 -39.5t-114.5 -15q-132 0 -184 52t-52 133zM480 1644q0 -65 77 -65q45 0 62 15.5t17 49.5q0 37 -18 55t-61 18q-77 0 -77 -73z" />
<glyph unicode="&#x16f;" horiz-adv-x="949" d="M83 0zM83 372v693h254v-637q0 -125 23.5 -174t84.5 -49q59 0 100 43.5t58 105.5v711h253v-742q0 -87 6.5 -170.5t23.5 -152.5h-191l-45 145h-7q-41 -75 -110 -124t-171 -49q-66 0 -117.5 18t-87 63t-55 123t-19.5 196zM260 1378q0 96 52 149.5t155 53.5q98 0 153 -50.5 t55 -152.5q0 -89 -54 -143.5t-154 -54.5t-153.5 53t-53.5 145zM402 1378q0 -36 18.5 -54.5t46.5 -18.5q65 0 65 73q0 41 -18 59t-47 18q-28 0 -46.5 -17t-18.5 -60z" />
<glyph unicode="&#x170;" horiz-adv-x="1096" d="M89 0zM89 488v1003h269v-956q0 -175 46.5 -244t156.5 -69q104 0 148.5 73t44.5 240v956h254v-967q0 -290 -118.5 -420t-326.5 -130q-246 0 -360 127t-114 387zM275 1579l102 232h256v-35l-175 -197h-183zM575 1579l168 232h266v-35l-250 -197h-184z" />
<glyph unicode="&#x171;" horiz-adv-x="949" d="M83 0zM83 372v693h254v-637q0 -125 23.5 -174t84.5 -49q59 0 100 43.5t58 105.5v711h253v-742q0 -87 6.5 -170.5t23.5 -152.5h-191l-45 145h-7q-41 -75 -110 -124t-171 -49q-66 0 -117.5 18t-87 63t-55 123t-19.5 196zM226 1216l61 275h230v-34l-136 -241h-155zM488 1216 l128 275h242v-34l-211 -241h-159z" />
<glyph unicode="&#x172;" horiz-adv-x="1096" d="M89 488v1003h269v-956q0 -175 46.5 -244t156.5 -69q104 0 148.5 73t44.5 240v956h254v-967q0 -290 -120 -420q-49 -55 -117 -87q-90 -69 -90 -164q0 -26 11 -49t29 -36t44.5 -14.5t61.5 16.5l37 -126q-28 -24 -87 -49.5t-127 -25.5q-106 0 -160.5 59t-54.5 144 q0 88 55 157q21 24 45 45q-224 6 -332 126q-114 128 -114 388z" />
<glyph unicode="&#x173;" horiz-adv-x="949" d="M83 372v693h254v-637q0 -125 23.5 -174t84.5 -49q59 0 100 43.5t58 105.5v711h253v-742q0 -87 6.5 -170.5t23.5 -152.5h-34q-106 -45 -106 -158q0 -28 10 -49t30.5 -32t49 -7t63.5 22l38 -132q-28 -26 -87.5 -51.5t-127.5 -25.5q-104 0 -158.5 55t-54.5 142t49 148.5 t133 97.5l-41 135h-7q-41 -75 -110 -124t-171 -49q-66 0 -117.5 18t-87 63t-55 123t-19.5 196z" />
<glyph unicode="&#x178;" horiz-adv-x="1053" d="M-8 1491h319l207 -564l21 -163h10l24 167l202 560h288l-403 -935v-556h-268v553zM0 0zM199 1699q0 55 32.5 89.5t114.5 34.5q74 0 107 -33.5t33 -90.5q0 -55 -33 -87.5t-107 -32.5q-82 0 -114.5 32.5t-32.5 87.5zM587 1699q0 55 32.5 89.5t109.5 34.5q79 0 112 -33.5 t33 -90.5q0 -55 -33 -87.5t-112 -32.5q-77 0 -109.5 32.5t-32.5 87.5z" />
<glyph unicode="&#x179;" horiz-adv-x="947" d="M45 0v248l498 908l89 88h-587v247h858v-247l-501 -916l-87 -80h588v-248h-858zM45 0zM341 1602l175 251h304v-64l-281 -187h-198z" />
<glyph unicode="&#x17a;" horiz-adv-x="811" d="M51 0v226l345 522l94 91h-439v226h705v-226l-341 -530l-92 -83h433v-226h-705zM51 0zM305 1205l89 329h254v-64l-201 -265h-142z" />
<glyph unicode="&#x17b;" horiz-adv-x="947" d="M45 0v248l498 908l89 88h-587v247h858v-247l-501 -916l-87 -80h588v-248h-858zM45 0zM315 1701q0 53 41.5 91.5t122.5 38.5q83 0 125.5 -37.5t42.5 -92.5t-43 -93.5t-125 -38.5q-81 0 -122.5 38.5t-41.5 93.5z" />
<glyph unicode="&#x17c;" horiz-adv-x="811" d="M51 0v226l345 522l94 91h-439v226h705v-226l-341 -530l-92 -83h433v-226h-705zM51 0zM252 1366q0 63 40.5 104.5t114.5 41.5q75 0 119.5 -40.5t44.5 -105.5q0 -66 -44.5 -104.5t-119.5 -38.5t-115 39.5t-40 103.5z" />
<glyph unicode="&#x17d;" horiz-adv-x="947" d="M45 0v248l498 908l89 88h-587v247h858v-247l-501 -916l-87 -80h588v-248h-858zM45 0zM149 1770v83h193l90 -95l36 -65l37 63l95 97h187v-85l-231 -199h-186z" />
<glyph unicode="&#x17e;" horiz-adv-x="811" d="M51 0v226l345 522l94 91h-439v226h705v-226l-341 -530l-92 -83h433v-226h-705zM51 0zM107 1559h209l68 -140l28 -104l27 104l79 140h194l-215 -388h-188z" />
<glyph unicode="&#x17f;" horiz-adv-x="465" d="M19 839v226h115v59q0 203 74.5 293.5t206.5 90.5q85 0 143 -13t107 -36l-51 -203q-39 15 -66.5 20.5t-61.5 5.5q-64 0 -81 -48.5t-17 -164.5v-1069h-254v839h-115z" />
<glyph unicode="&#x192;" d="M-104 -394l47 213q75 -36 161 -36q120 0 148 234l102 822h-132v226h168l19 142q10 79 28.5 138t52.5 98t86 58t131 19q28 0 66 -4t78.5 -11t78 -19t62.5 -25l-61 -201q-77 35 -162 35q-53 0 -76.5 -37t-34.5 -122l-8 -71h210v-226h-244l-124 -912q-10 -79 -30.5 -145.5 t-56 -117t-90.5 -79t-136 -28.5q-30 0 -69 3t-79.5 9.5t-77 16t-57.5 20.5z" />
<glyph unicode="&#x1f4;" horiz-adv-x="1069" d="M61 0zM61 746q0 213 47.5 359.5t125 239t181 134t217.5 41.5q102 0 186.5 -18t140.5 -41l-56 -232q-43 19 -99 32t-137 13q-75 0 -135.5 -30t-102 -94t-64 -165t-22.5 -241q0 -271 81.5 -399t216.5 -128q42 0 81.5 12.5t69.5 40.5v305l-245 34v162h461v-661 q-79 -75 -184.5 -107.5t-209.5 -32.5q-126 0 -228.5 44.5t-174 140t-111 241t-39.5 350.5zM502 1602l175 251h304v-64l-281 -187h-198z" />
<glyph unicode="&#x1f5;" horiz-adv-x="943" d="M53 0zM53 512q0 296 116 436.5t331 140.5q116 0 207.5 -18.5t146.5 -44.5v-1026q0 -232 -106.5 -341.5t-296.5 -109.5q-132 0 -206 20t-115 43l53 215q47 -18 101.5 -35.5t128.5 -17.5q108 0 150 59t42 177v59h-7q-30 -43 -79.5 -64.5t-128.5 -21.5q-168 0 -252.5 126.5 t-84.5 402.5zM315 522q0 -321 145 -321q57 0 90 27.5t51 78.5v532q-24 11 -52.5 17t-66.5 6q-80 0 -123.5 -76.5t-43.5 -263.5zM409 1205l89 329h254v-64l-201 -265h-142z" />
<glyph unicode="&#x218;" horiz-adv-x="934" d="M41 0zM41 53l87 241q43 -26 117 -51.5t160 -25.5q213 0 213 167q0 68 -40.5 115.5t-101.5 90t-132.5 87.5t-132 104.5t-100.5 141t-40 197.5q0 108 32.5 184t90.5 124t136.5 70t167.5 22q108 0 202.5 -21t155.5 -58l-83 -236q-37 26 -108 47.5t-153 21.5 q-84 0 -128.5 -34.5t-44.5 -99.5q0 -59 40 -105.5t101 -89t132 -88.5t132 -106t101.5 -142.5t40.5 -195.5t-33 -196t-93.5 -137t-146 -82t-189.5 -28q-132 0 -231 25.5t-152 57.5zM317 -226q0 62 38.5 99.5t93.5 37.5q66 0 107.5 -47t41.5 -143q0 -70 -21.5 -123.5 t-52 -89.5t-64 -58.5t-58.5 -30.5l-70 97q28 17 53.5 50.5t29.5 79.5q-32 2 -65 32.5t-33 95.5z" />
<glyph unicode="&#x219;" horiz-adv-x="744" d="M41 0zM41 49l69 205q45 -26 103.5 -45.5t123.5 -19.5q49 0 80.5 22.5t31.5 71.5q0 45 -28.5 76t-73 57.5t-94.5 54t-95 68t-74 98.5t-29 145q0 149 81 230t238 81q94 0 177 -20.5t132 -50.5l-59 -195q-41 16 -98 32.5t-113 16.5q-104 0 -104 -88q0 -40 28.5 -66.5 t73.5 -52.5t95 -53.5t95 -69.5t73.5 -101t28.5 -147q0 -146 -89.5 -236t-266.5 -90q-87 0 -171 21.5t-135 55.5zM232 -226q0 62 38.5 99.5t93.5 37.5q66 0 107.5 -47t41.5 -143q0 -70 -21.5 -123.5t-52 -89.5t-64 -58.5t-58.5 -30.5l-70 97q28 17 53.5 50.5t29.5 79.5 q-32 2 -65 32.5t-33 95.5z" />
<glyph unicode="&#x237;" horiz-adv-x="478" d="M-34 -203q91 -8 120 53t29 180v1035h253v-1110q0 -193 -67 -295.5t-214 -102.5q-59 0 -121 15v225z" />
<glyph unicode="&#x2bc;" horiz-adv-x="400" d="M61 994zM61 1372q0 61 37.5 99.5t92.5 38.5q69 0 108.5 -48t39.5 -133q0 -83 -23.5 -141t-56.5 -97t-69.5 -62t-61.5 -35l-65 107q37 17 65 51.5t32 83.5q-36 2 -67.5 34.5t-31.5 101.5z" />
<glyph unicode="&#x2c6;" horiz-adv-x="845" d="M128 1171l215 388h181l194 -388h-198l-69 141l-27 104l-28 -104l-79 -141h-189z" />
<glyph unicode="&#x2c7;" horiz-adv-x="860" d="M128 1559h209l68 -140l28 -104l27 104l79 140h194l-215 -388h-188z" />
<glyph unicode="&#x2d8;" horiz-adv-x="872" d="M128 1467l120 65q30 -64 83 -96t114 -32t110.5 31.5t72.5 96.5l118 -56q-4 -55 -28.5 -104t-64 -87.5t-93.5 -61t-117 -22.5q-122 0 -207 70.5t-108 195.5z" />
<glyph unicode="&#x2d9;" horiz-adv-x="574" d="M128 1366q0 63 40.5 104.5t114.5 41.5q75 0 119.5 -40.5t44.5 -105.5q0 -66 -44.5 -104.5t-119.5 -38.5t-115 39.5t-40 103.5z" />
<glyph unicode="&#x2da;" horiz-adv-x="670" d="M128 1378q0 96 52 149.5t155 53.5q98 0 153 -50.5t55 -152.5q0 -89 -54 -143.5t-154 -54.5t-153.5 53t-53.5 145zM270 1378q0 -36 18.5 -54.5t46.5 -18.5q65 0 65 73q0 41 -18 59t-47 18q-28 0 -46.5 -17t-18.5 -60z" />
<glyph unicode="&#x2db;" horiz-adv-x="683" d="M128 -228q0 90 53 151.5t136 97.5h189q-132 -47 -132 -168q0 -53 37.5 -80t106.5 5l38 -123q-12 -13 -34 -26t-49.5 -23.5t-60 -17.5t-65.5 -7q-108 0 -163.5 53t-55.5 138z" />
<glyph unicode="&#x2dc;" horiz-adv-x="882" d="M128 1397q61 79 114.5 108t98.5 29q39 0 71.5 -14t64.5 -32t64 -32.5t64 -14.5q24 0 49 11t55 39l47 -130q-57 -68 -107.5 -93.5t-92.5 -25.5q-38 0 -71.5 13t-65 28.5t-64 29.5t-63.5 14q-28 0 -55.5 -12t-57.5 -41z" />
<glyph unicode="&#x2dd;" horiz-adv-x="888" d="M128 1216l61 275h230v-34l-136 -241h-155zM390 1216l128 275h242v-34l-211 -241h-159z" />
<glyph unicode="&#x301;" horiz-adv-x="4" d="M-736 1205l89 329h254v-64l-201 -265h-142zM-394 1205z" />
<glyph unicode="&#x394;" horiz-adv-x="1034" d="M21 0v151l416 1351h161l420 -1351v-151h-997zM298 230h441l-183 634l-36 239h-11l-38 -241z" />
<glyph unicode="&#x3a9;" horiz-adv-x="1347" d="M92 0v226h178l149 -25v49l-82 22q-100 60 -171.5 206t-71.5 368q0 164 41.5 290.5t118 211.5t183 128.5t236.5 43.5q136 0 243.5 -46.5t183 -135t115 -215.5t39.5 -286q0 -110 -19 -201t-52 -161t-76.5 -120t-90.5 -80l-87 -25v-49l148 25h179v-226h-532v400q42 11 86 43 t80.5 86t59.5 130t23 176q0 87 -16 168t-50.5 142.5t-92.5 98t-141 36.5q-143 0 -221 -109.5t-78 -341.5q0 -96 21.5 -172t57 -130t80 -86t89.5 -41v-400h-530z" />
<glyph unicode="&#x3c0;" horiz-adv-x="1230" d="M24 886q36 90 107.5 134.5t166.5 44.5h858v-226h-144v-516q0 -59 14.5 -84.5t40.5 -25.5q17 0 38 4.5t39 8.5l38 -188q-38 -16 -95.5 -33t-141.5 -17q-106 0 -146.5 63.5t-40.5 174.5v613h-221v-839h-254v839h-23q-71 0 -107 -79z" />
<glyph unicode="&#x401;" horiz-adv-x="915" d="M96 0v1491h745v-247h-477v-366h433v-248h-433v-382h486v-248h-754zM96 0zM128 1699q0 55 32.5 89.5t114.5 34.5q74 0 107 -33.5t33 -90.5q0 -55 -33 -87.5t-107 -32.5q-82 0 -114.5 32.5t-32.5 87.5zM516 1699q0 55 32.5 89.5t109.5 34.5q79 0 112 -33.5t33 -90.5 q0 -55 -33 -87.5t-112 -32.5q-77 0 -109.5 32.5t-32.5 87.5z" />
<glyph unicode="&#x402;" horiz-adv-x="1309" d="M17 1244v247h971v-247h-352v-319q31 14 92.5 31t153.5 17q69 0 134.5 -21t117 -74t82 -147.5t30.5 -236.5q0 -124 -22.5 -218.5t-71.5 -159.5t-129 -98t-196 -33q-88 0 -111 9v234q14 -2 39 -3t50 -1q81 0 120.5 60.5t39.5 194.5q0 77 -14 125t-37.5 74.5t-58.5 37 t-75 10.5q-41 0 -81.5 -14.5t-62.5 -28.5v-683h-268v1244h-351z" />
<glyph unicode="&#x403;" horiz-adv-x="811" d="M96 0v1491h731v-247h-463v-1244h-268zM96 0zM331 1602l175 251h304v-64l-281 -187h-198z" />
<glyph unicode="&#x404;" horiz-adv-x="1010" d="M61 748q0 225 48.5 374.5t126 238t178 124t202.5 35.5q104 0 186 -16.5t131 -38.5l-53 -236q-41 21 -99.5 33t-132.5 12q-128 0 -206 -96t-97 -300h475v-222h-477q6 -98 29.5 -179t63 -138.5t97 -89.5t134.5 -32q75 0 131 20.5t98 47.5l54 -226q-29 -24 -68 -40.5 t-84.5 -27t-94.5 -16t-94 -5.5q-115 0 -214 39.5t-173.5 131t-117.5 240.5t-43 367z" />
<glyph unicode="&#x405;" horiz-adv-x="934" d="M41 0zM41 53l87 241q43 -26 117 -51.5t160 -25.5q213 0 213 167q0 68 -40.5 115.5t-101.5 90t-132.5 87.5t-132 104.5t-100.5 141t-40 197.5q0 108 32.5 184t90.5 124t136.5 70t167.5 22q108 0 202.5 -21t155.5 -58l-83 -236q-37 26 -108 47.5t-153 21.5 q-84 0 -128.5 -34.5t-44.5 -99.5q0 -59 40 -105.5t101 -89t132 -88.5t132 -106t101.5 -142.5t40.5 -195.5t-33 -196t-93.5 -137t-146 -82t-189.5 -28q-132 0 -231 25.5t-152 57.5z" />
<glyph unicode="&#x406;" horiz-adv-x="506" d="M120 0v1491h268v-1491h-268zM120 0z" />
<glyph unicode="&#x407;" horiz-adv-x="521" d="M17 1687q0 136 113 136t112 -136q0 -132 -112 -132q-113 0 -113 132zM126 0v1491h268v-1491h-268zM281 1687q0 136 111 136q113 0 112 -136q0 -132 -112 -132q-111 0 -111 132z" />
<glyph unicode="&#x408;" horiz-adv-x="614" d="M-36 24l62 226q45 -28 104 -28q75 0 92.5 62.5t17.5 179.5v1027h269v-1084q0 -98 -16 -178t-52 -136.5t-96 -87.5t-149 -31q-62 0 -123 13t-109 37zM0 0z" />
<glyph unicode="&#x409;" horiz-adv-x="1650" d="M-26 15l30 243q39 -15 77.5 -1.5t63.5 69.5q26 46 45 136.5t32.5 233.5t21.5 339t12 456h748v-536q12 2 32.5 6t43.5 6t48.5 4t44.5 2q90 0 170 -21t139.5 -74t94.5 -146t35 -236q0 -256 -123 -386.5t-390 -130.5q-24 0 -67.5 1t-94.5 4.5t-104 10.5t-98 17v1232h-226 q-15 -405 -40.5 -676.5t-98.5 -414.5q-26 -51 -58.5 -84t-65.5 -51t-67 -25.5t-61 -7.5q-45 0 -79.5 7.5t-64.5 22.5zM1004 238q18 -6 49 -9t61 -3q100 0 158.5 57.5t58.5 200.5q0 74 -17 122t-45.5 74.5t-68 36t-86.5 9.5q-24 0 -61 -6.5t-49 -12.5v-469z" />
<glyph unicode="&#x40a;" horiz-adv-x="1683" d="M96 0v1491h268v-588h407v588h268v-573q8 2 27.5 5.5t44.5 5.5t50.5 4t43.5 2q90 0 170 -18t141 -68t96.5 -139.5t35.5 -230.5q0 -257 -126.5 -378.5t-385.5 -121.5q-24 0 -68 1t-96 4.5t-105.5 8.5t-95.5 13v650h-407v-656h-268zM1039 236q17 -4 49 -7t62 -3 q104 0 161 54.5t57 186.5q0 69 -15.5 111t-44 66.5t-68 34t-88.5 9.5q-26 0 -64 -6.5t-49 -10.5v-435z" />
<glyph unicode="&#x40b;" horiz-adv-x="1343" d="M17 1244v247h971v-247h-352v-388q45 30 122 57.5t183 27.5q77 0 138 -22.5t104.5 -72t67 -127.5t23.5 -189v-530h-268v449q0 132 -38.5 192t-128.5 60q-61 0 -115.5 -19.5t-87.5 -51.5v-630h-268v1244h-351z" />
<glyph unicode="&#x40c;" horiz-adv-x="1104" d="M96 0v1491h268v-662l53 25l313 637h303l-340 -629l-101 -78l103 -81l394 -703h-329l-338 639h-58v-639h-268zM96 0zM386 1602l175 251h304v-64l-281 -187h-198z" />
<glyph unicode="&#x40e;" horiz-adv-x="1010" d="M-21 1491h317l228 -650l32 -198h11l27 205l168 643h277l-332 -1031q-38 -122 -72 -210t-74.5 -147.5t-91 -88.5t-122.5 -29q-57 0 -98.5 10.5t-86.5 40.5l66 226q30 -17 53.5 -22.5t48.5 -7.5q79 0 109 162zM0 0zM183 1823l242 39q13 -130 120 -130q106 0 119 128 l218 -33q-17 -138 -105 -200t-234 -62q-75 0 -136.5 13t-108.5 42.5t-77 78.5t-38 124z" />
<glyph unicode="&#x40f;" horiz-adv-x="1115" d="M96 0v1491h268v-1243h388v1243h268v-1491h-347l-25 -372h-175l-34 372h-343z" />
<glyph unicode="&#x410;" horiz-adv-x="1067" d="M-6 0l432 1502h210l435 -1502h-281l-91 337h-352l-87 -337h-266zM0 0zM405 558h247l-85 347l-35 235h-8l-36 -237z" />
<glyph unicode="&#x411;" horiz-adv-x="1012" d="M96 12v1479h782v-247h-514v-324q32 7 77 13t87 6q102 0 183 -24.5t138.5 -78.5t88.5 -141.5t31 -212.5q0 -252 -125.5 -377.5t-372.5 -125.5q-30 0 -77 2t-100.5 5.5t-105.5 9.5t-92 16zM364 228q19 -4 55.5 -7.5t70.5 -3.5q89 0 143.5 55.5t54.5 187.5q0 79 -17 125.5 t-46 72t-68 34.5t-86 9q-24 0 -59.5 -5t-47.5 -11v-457z" />
<glyph unicode="&#x412;" horiz-adv-x="1043" d="M96 0zM96 10v1470q70 12 173 22t206 10q94 0 180.5 -15t151.5 -55t102.5 -111.5t37.5 -184.5q0 -55 -11 -109.5t-36.5 -102.5t-67.5 -84.5t-99 -54.5v-13q51 -12 97 -38t79.5 -70t54 -107t20.5 -148q0 -115 -39.5 -199t-106.5 -137t-156.5 -78.5t-189.5 -25.5h-77t-101 3 t-111.5 9.5t-106.5 18.5zM364 224q17 -7 58.5 -10t75.5 -3q90 0 147.5 57.5t57.5 168.5q0 71 -19 112t-51 63t-73.5 29t-86.5 7h-109v-424zM364 858h62q24 0 55 3t49 8q62 24 105.5 77t43.5 138q0 55 -14.5 93.5t-40.5 60.5t-61 32t-75 10q-88 0 -124 -8v-414z" />
<glyph unicode="&#x413;" horiz-adv-x="811" d="M96 0v1491h731v-247h-463v-1244h-268z" />
<glyph unicode="&#x414;" horiz-adv-x="1226" d="M0 248h130q12 23 39 106t55 234t45.5 375t15.5 528h759v-1243h153v-514h-189l-26 266h-767l-26 -266h-189v514zM409 248h366v996h-236q-11 -377 -50.5 -632.5t-79.5 -363.5z" />
<glyph unicode="&#x415;" horiz-adv-x="915" d="M96 0v1491h745v-247h-477v-366h433v-248h-433v-382h486v-248h-754zM96 0z" />
<glyph unicode="&#x416;" horiz-adv-x="1492" d="M-10 0l297 656l99 81l-96 76l-278 678h311l222 -641h67v641h252v-666l63 29l223 637h301l-266 -656l-86 -71l104 -87l301 -677h-324l-249 650h-67v-650h-252v675l-61 -29l-250 -646h-311z" />
<glyph unicode="&#x417;" horiz-adv-x="925" d="M26 45l70 238q40 -24 111.5 -45t166.5 -21q88 0 152 56.5t64 177.5q0 104 -58.5 156.5t-205.5 57.5q-24 0 -32.5 1t-35.5 1h-49v217h51q32 0 79 2t74 13q57 16 97.5 63.5t40.5 121.5q0 104 -50 145t-139 41q-73 0 -135.5 -22.5t-98.5 -46.5l-69 232q21 13 60 28t87 28 t102 20t109 7q81 0 157 -16t133 -57t91.5 -114t34.5 -185q0 -108 -45.5 -202t-148.5 -139v-13q110 -30 171.5 -119.5t61.5 -242.5q0 -121 -40 -208.5t-107 -143t-154 -81t-181 -25.5q-115 0 -211 20t-153 55z" />
<glyph unicode="&#x418;" horiz-adv-x="1164" d="M96 0v1491h268v-780l-23 -217h11l85 232l423 765h209v-1491h-268v795l22 211h-12l-81 -226l-423 -780h-211z" />
<glyph unicode="&#x419;" horiz-adv-x="1164" d="M96 0v1491h268v-780l-23 -217h11l85 232l423 765h209v-1491h-268v795l22 211h-12l-81 -226l-423 -780h-211zM96 0zM252 1823l242 39q13 -130 120 -130q106 0 119 128l218 -33q-17 -138 -105 -200t-234 -62q-75 0 -136.5 13t-108.5 42.5t-77 78.5t-38 124z" />
<glyph unicode="&#x41a;" horiz-adv-x="1104" d="M96 0v1491h268v-662l53 25l313 637h303l-340 -629l-101 -78l103 -81l394 -703h-329l-338 639h-58v-639h-268zM96 0z" />
<glyph unicode="&#x41b;" horiz-adv-x="1100" d="M-26 15l30 243q39 -15 77.5 -1.5t63.5 69.5q26 46 45 136.5t32.5 233.5t21.5 339t12 456h748v-1491h-269v1244h-226q-15 -405 -40.5 -676.5t-98.5 -414.5q-26 -51 -58.5 -84t-65.5 -51t-67 -25.5t-61 -7.5q-45 0 -79.5 7.5t-64.5 22.5z" />
<glyph unicode="&#x41c;" horiz-adv-x="1413" d="M96 0v1491h258l311 -645l51 -186h8l49 190l292 641h254v-1491h-269v769l30 286h-11l-79 -256l-242 -524h-90l-258 526l-79 258h-12l40 -288v-771h-253zM96 0z" />
<glyph unicode="&#x41d;" horiz-adv-x="1134" d="M96 0v1491h268v-613h407v613h268v-1491h-268v630h-407v-630h-268zM96 0z" />
<glyph unicode="&#x41e;" horiz-adv-x="1177" d="M61 0zM61 746q0 379 130 576.5t397 197.5q138 0 238.5 -54t164.5 -155t94.5 -245t30.5 -320q0 -380 -133 -578t-395 -198q-141 0 -239.5 54.5t-162.5 155.5t-94.5 245t-30.5 321zM343 746q0 -114 12.5 -210.5t42.5 -167t76 -111t114 -40.5q123 0 185 126t62 403 q0 108 -13 205t-41.5 168.5t-75.5 113t-117 41.5q-245 0 -245 -528z" />
<glyph unicode="&#x41f;" horiz-adv-x="1115" d="M96 0v1491h924v-1491h-268v1244h-388v-1244h-268z" />
<glyph unicode="&#x420;" horiz-adv-x="1015" d="M96 0v1476q77 16 168.5 26t182.5 10q98 0 193 -18t169.5 -71t121.5 -150.5t47 -252.5q0 -140 -39.5 -238.5t-106 -159.5t-152.5 -89.5t-178 -28.5h-27t-40.5 1t-42 4t-28.5 5v-514h-268zM96 0zM364 754q12 -4 47.5 -7t48.5 -3q46 0 89 12.5t76 43.5t52.5 85t19.5 137 q0 71 -18.5 120t-49.5 77.5t-71 41.5t-85 13q-65 0 -109 -11v-509z" />
<glyph unicode="&#x421;" horiz-adv-x="972" d="M61 0zM61 748q0 225 48.5 374.5t126 238t178 124t202.5 35.5q104 0 182 -16.5t127 -38.5l-53 -236q-41 21 -95.5 33t-128.5 12q-147 0 -226 -128t-79 -400q0 -118 18.5 -214.5t57.5 -167t99.5 -109t146.5 -38.5q74 0 127.5 20.5t95.5 47.5l53 -226q-55 -47 -147.5 -68 t-184.5 -21q-115 0 -214 39.5t-173.5 131t-117.5 240.5t-43 367z" />
<glyph unicode="&#x422;" horiz-adv-x="1006" d="M17 0zM17 1244v247h973v-247h-351v-1244h-269v1244h-353z" />
<glyph unicode="&#x423;" horiz-adv-x="1010" d="M-21 1491h317l228 -650l32 -198h11l27 205l168 643h277l-332 -1031q-38 -122 -72 -210t-74.5 -147.5t-91 -88.5t-122.5 -29q-57 0 -98.5 10.5t-86.5 40.5l66 226q30 -17 53.5 -22.5t48.5 -7.5q79 0 109 162z" />
<glyph unicode="&#x424;" horiz-adv-x="1426" d="M41 746q0 298 114.5 457.5t311.5 159.5q21 0 56 -2t56 -9v182h269v-188q32 10 76.5 13.5t71.5 3.5q86 0 157.5 -36t123.5 -109.5t80.5 -186.5t28.5 -265q0 -156 -32.5 -270t-88 -191t-132 -115.5t-162.5 -38.5q-32 0 -64.5 3.5t-58.5 11.5v-209h-269v205q-34 -6 -69 -8.5 t-77 -2.5q-86 0 -157 34t-123.5 106.5t-82 184.5t-29.5 270zM309 748q0 -177 51 -270.5t144 -93.5q15 0 42 1t46 7v734q-17 2 -38.5 3t-39.5 1q-92 0 -148.5 -90t-56.5 -292zM835 388q13 -4 34 -4h43q92 0 149 90.5t57 289.5q0 173 -48 269.5t-141 96.5q-17 0 -47 -2t-47 -8 v-732z" />
<glyph unicode="&#x425;" horiz-adv-x="1124" d="M12 0l364 758l-329 733h323l173 -426l40 -162l39 162l181 426h290l-341 -718l358 -773h-313l-201 458l-45 166l-42 -166l-200 -458h-297zM12 0z" />
<glyph unicode="&#x426;" horiz-adv-x="1199" d="M96 0v1491h268v-1243h384v1243h268v-1243h155v-514h-189l-27 266h-859z" />
<glyph unicode="&#x427;" horiz-adv-x="1071" d="M73 914v577h268v-489q0 -133 38 -189.5t125 -56.5q62 0 116.5 19.5t86.5 55.5v660h269v-1491h-269v601q-42 -30 -117.5 -56.5t-178.5 -26.5q-71 0 -132.5 20t-107 66t-72 121.5t-26.5 188.5z" />
<glyph unicode="&#x428;" horiz-adv-x="1502" d="M96 0v1491h268v-1243h254v1243h268v-1243h254v1243h268v-1491h-1312z" />
<glyph unicode="&#x429;" horiz-adv-x="1601" d="M96 0v1491h268v-1243h256v1243h268v-1243h256v1243h268v-1243h162v-514h-190l-27 266h-1261z" />
<glyph unicode="&#x42a;" horiz-adv-x="1183" d="M-8 1244v247h547v-536q24 6 76 12t94 6q90 0 169 -21t139 -74t95.5 -146t35.5 -236q0 -258 -124.5 -387.5t-389.5 -129.5q-26 0 -69 1t-94.5 4.5t-103.5 10.5t-97 17v1232h-278zM539 238q16 -6 47.5 -9t61.5 -3q98 0 158.5 56.5t60.5 201.5q0 74 -17 122t-47 74.5t-69 36 t-84 9.5q-24 0 -61.5 -6.5t-49.5 -12.5v-469z" />
<glyph unicode="&#x42b;" horiz-adv-x="1422" d="M96 12v1479h268v-534q19 4 64 10t88 6q89 0 166.5 -20t135.5 -73t91.5 -146t33.5 -236q0 -262 -119 -390.5t-383 -128.5q-26 0 -66 1t-88.5 4.5t-98.5 10.5t-92 17zM364 238q17 -6 43 -9t53 -3q95 0 148.5 58.5t53.5 201.5q0 72 -15 119t-40.5 74.5t-63 37t-81.5 9.5 q-21 0 -53.5 -6.5t-44.5 -12.5v-469zM1059 0v1491h268v-1491h-268z" />
<glyph unicode="&#x42c;" horiz-adv-x="1010" d="M96 12v1479h268v-536q12 2 32.5 6t44 6t49.5 4t45 2q89 0 169 -21t139.5 -74t94.5 -146t35 -236q0 -256 -123.5 -386.5t-389.5 -130.5q-24 0 -67.5 1t-94 4.5t-104.5 10.5t-98 17zM364 238q19 -6 50 -9t61 -3q100 0 159 57.5t59 200.5q0 74 -17.5 122t-46 74.5t-68 36 t-86.5 9.5q-24 0 -61.5 -6.5t-49.5 -12.5v-469z" />
<glyph unicode="&#x42d;" horiz-adv-x="1015" d="M30 38l70 239q42 -21 112.5 -40.5t157.5 -19.5q141 0 218 103.5t87 325.5h-451v221h449q-4 90 -22.5 164.5t-55.5 128.5t-91.5 84t-131.5 30q-91 0 -160.5 -22.5t-117.5 -52.5l-62 232q69 41 166.5 65t189.5 24q128 0 233 -41.5t179 -133t114.5 -239t40.5 -358.5 q0 -226 -47.5 -376t-129 -239.5t-189 -126t-229.5 -36.5q-104 0 -192.5 21t-137.5 47z" />
<glyph unicode="&#x42e;" horiz-adv-x="1581" d="M96 0v1491h268v-613h152q16 304 136.5 473t361.5 169q138 0 235 -55t157.5 -157.5t87 -245t26.5 -316.5q0 -373 -123 -574.5t-385 -201.5q-122 0 -211.5 45.5t-150 132t-93.5 209t-41 273.5h-152v-630h-268zM784 746q0 -116 10.5 -212.5t37 -167t70 -110t110.5 -39.5 q124 0 176 125t52 404q0 110 -9.5 207t-35.5 168.5t-69.5 112t-113.5 40.5q-122 0 -175 -129t-53 -399z" />
<glyph unicode="&#x42f;" horiz-adv-x="1034" d="M10 0l244 506l106 86q-114 32 -188 139.5t-74 301.5q0 136 38.5 227.5t108.5 147t168.5 80t214.5 24.5q28 0 69.5 -2t84.5 -6t84 -12t73 -16v-1476h-268v594l-115 -41l-237 -553h-309zM380 1020q0 -134 58 -192.5t152 -58.5h81v485q-19 6 -38 9t-47 3q-43 0 -81 -12 t-66 -40.5t-43.5 -75.5t-15.5 -118z" />
<glyph unicode="&#x430;" horiz-adv-x="878" d="M36 0zM36 294q0 192 136.5 273t368.5 67q10 124 -16.5 179.5t-113.5 55.5q-64 0 -132 -15t-121 -43l-64 191q63 38 159 61t218 23q181 0 252.5 -93.5t71.5 -266.5q0 -100 -5.5 -196.5t-7.5 -189t3 -179t28 -163.5h-206l-40 130h-9q-34 -61 -96 -102t-155 -41 q-126 0 -198.5 84t-72.5 225zM298 337q0 -66 27 -100t73 -34q58 0 94 28.5t53 62.5v177q-49 6 -93.5 2t-78.5 -19t-54.5 -43.5t-20.5 -73.5z" />
<glyph unicode="&#x431;" horiz-adv-x="947" d="M53 646q0 183 18 313t51.5 219.5t79.5 142.5t101 83.5t119 43.5t134 22q92 10 162 26t102 53l5 -239q-35 -36 -102 -52t-176 -25q-65 -6 -115 -24t-85.5 -57.5t-58 -106.5t-32.5 -171h6q49 91 118 131.5t165 40.5q158 0 253.5 -116.5t95.5 -373.5q0 -298 -107.5 -442 t-307.5 -144q-101 0 -181.5 38.5t-135 119.5t-82 210t-27.5 308zM315 520q0 -153 38.5 -238.5t119.5 -85.5q85 0 122 76.5t37 247.5q0 147 -33.5 223.5t-114.5 76.5q-88 0 -128.5 -76.5t-40.5 -223.5z" />
<glyph unicode="&#x432;" horiz-adv-x="890" d="M92 2v1061q59 6 152 11.5t193 5.5q201 0 283.5 -66.5t82.5 -200.5q0 -77 -36.5 -146t-110.5 -100v-9q181 -48 181 -255q0 -161 -102.5 -239.5t-332.5 -78.5q-74 0 -162.5 4.5t-147.5 12.5zM339 205q21 -4 40 -5.5t47 -1.5q84 0 120.5 33t36.5 104q0 57 -31.5 92 t-108.5 35h-104v-257zM339 630h104q51 0 84.5 32.5t33.5 85.5q0 61 -27.5 90t-98.5 29q-37 0 -58 -1.5t-38 -3.5v-232z" />
<glyph unicode="&#x433;" horiz-adv-x="657" d="M92 0v1065h577v-232h-324v-833h-253z" />
<glyph unicode="&#x434;" horiz-adv-x="1012" d="M-4 232h102q12 24 33.5 82t41.5 158.5t35.5 247.5t15.5 345h640v-833h128v-474h-187l-27 242h-569l-28 -242h-185v474zM352 219h260v620h-163q-4 -77 -11 -166.5t-20 -173.5t-29.5 -158.5t-36.5 -121.5z" />
<glyph unicode="&#x435;" horiz-adv-x="911" d="M53 0zM53 532q0 288 114 425.5t317 137.5q68 0 131.5 -20t114 -68t81 -128t30.5 -202q0 -47 -5 -100t-16 -115h-517q4 -132 55 -202.5t164 -70.5q69 0 125 21.5t86 45.5l78 -177q-53 -47 -144.5 -77t-191.5 -30q-110 0 -190 38.5t-131.5 110.5t-76 175.5t-24.5 235.5z M311 630h294q7 122 -25 185t-101 63q-81 0 -121.5 -65t-46.5 -183z" />
<glyph unicode="&#x436;" horiz-adv-x="1238" d="M-8 0l213 488l61 63l-89 81l-167 433h269l143 -433h72v433h241v-453l64 29l142 424h269l-177 -433l-70 -67l89 -86l196 -479h-287l-156 441h-70v-441h-241v462l-66 -29l-156 -433h-280z" />
<glyph unicode="&#x437;" horiz-adv-x="752" d="M30 49l51 207q41 -24 95 -37.5t116 -13.5q156 0 155 125q0 53 -39.5 83t-145.5 30h-81v189h102q57 0 93.5 34.5t36.5 83.5q0 106 -132 106q-64 0 -112.5 -16.5t-79.5 -36.5l-57 203q55 32 144.5 54t185.5 22q305 0 305 -265q0 -79 -34.5 -147.5t-102.5 -98.5v-8 q90 -26 130.5 -90t40.5 -172q0 -69 -22.5 -127.5t-69 -101t-118.5 -68t-170 -25.5q-95 0 -168.5 20t-122.5 50z" />
<glyph unicode="&#x438;" horiz-adv-x="957" d="M92 0v1065h253v-484l-19 -166h6l77 177l288 473h170v-1065h-253v464l18 172h-6l-79 -180l-285 -456h-170z" />
<glyph unicode="&#x439;" horiz-adv-x="957" d="M92 0v1065h253v-484l-19 -166h6l77 177l288 473h170v-1065h-253v464l18 172h-6l-79 -180l-285 -456h-170zM92 0zM181 1453l215 47q6 -81 34 -117.5t70 -36.5q45 0 71.5 35t37.5 117l192 -47q-24 -145 -108 -212.5t-199 -67.5q-55 0 -108.5 15t-96.5 48.5t-71.5 86.5 t-36.5 132z" />
<glyph unicode="&#x43a;" horiz-adv-x="870" d="M92 0v1065h253v-453l51 29l179 424h273l-194 -409l-93 -83l101 -83l216 -490h-286l-190 441h-57v-441h-253z" />
<glyph unicode="&#x43b;" horiz-adv-x="921" d="M-32 19l30 221q51 -16 86.5 3t58.5 105.5t36.5 256.5t21.5 460h630v-1065h-254v833h-153q-8 -185 -23 -340.5t-47.5 -267.5t-86.5 -174.5t-141 -62.5q-53 0 -91.5 7t-66.5 24z" />
<glyph unicode="&#x43c;" horiz-adv-x="1181" d="M92 0v1065h266l193 -392l43 -143h9l45 147l179 388h264v-1065h-241v490l14 219h-10l-64 -197l-156 -321h-95l-171 321l-65 197h-13l27 -219v-490h-225z" />
<glyph unicode="&#x43d;" horiz-adv-x="945" d="M92 0v1065h253v-409h256v409h253v-1065h-253v424h-256v-424h-253z" />
<glyph unicode="&#x43e;" horiz-adv-x="947" d="M53 0zM53 532q0 283 111 422t309 139q213 0 317 -141t104 -420q0 -284 -110.5 -422t-310.5 -138q-420 0 -420 560zM315 532q0 -160 36.5 -247t121.5 -87q81 0 120 75.5t39 258.5q0 165 -35.5 250t-123.5 85q-75 0 -116.5 -75.5t-41.5 -259.5z" />
<glyph unicode="&#x43f;" horiz-adv-x="937" d="M92 0v1065h754v-1065h-254v833h-247v-833h-253z" />
<glyph unicode="&#x440;" horiz-adv-x="951" d="M92 0zM92 -426v1491h189l26 -122h6q49 77 110 112.5t150 35.5q162 0 244 -122.5t82 -407.5t-102 -438t-297 -153q-51 0 -87.5 9t-67.5 27v-432h-253zM345 238q21 -21 47.5 -31.5t69.5 -10.5q85 0 129.5 84t44.5 287q0 151 -33.5 224t-112.5 73q-106 0 -145 -125v-501z " />
<glyph unicode="&#x441;" horiz-adv-x="744" d="M53 0zM53 532q0 279 100.5 420t293.5 141q96 0 157 -17t107 -43l-59 -210q-38 18 -73.5 27.5t-84.5 9.5q-89 0 -134 -77.5t-45 -250.5q0 -144 46 -235.5t145 -91.5q54 0 91 13.5t70 35.5l53 -197q-53 -42 -127.5 -63.5t-149.5 -21.5q-108 0 -182 39.5t-120.5 113t-67 177 t-20.5 230.5z" />
<glyph unicode="&#x442;" horiz-adv-x="732" d="M2 833v232h728v-232h-232v-833h-253v833h-243z" />
<glyph unicode="&#x443;" horiz-adv-x="851" d="M-21 1065h304l150 -598l27 -166h11l19 168l124 596h260l-267 -961q-36 -126 -68.5 -226t-68 -170t-81.5 -107.5t-110 -37.5q-45 0 -86.5 7.5t-70.5 24.5l42 218q28 -11 57 -10t53 21t43.5 62.5t31.5 113.5zM0 0z" />
<glyph unicode="&#x444;" horiz-adv-x="1245" d="M45 532q0 279 93.5 416.5t272.5 137.5q24 0 45 -2t40 -7v414h254v-416q32 7 55.5 9t46.5 2q87 0 152 -28.5t108.5 -92.5t66 -165t22.5 -247q0 -278 -91.5 -430.5t-263.5 -152.5q-17 0 -48.5 3t-47.5 12v-411h-254v414q-30 -13 -63 -15.5t-59 -2.5q-160 0 -244.5 136 t-84.5 426zM298 532q0 -180 35 -264.5t110 -84.5q17 0 32 3t31 7v671q-28 9 -59 10q-36 0 -63.5 -16.5t-47 -56t-29 -105.5t-9.5 -164zM737 189q26 -6 66 -6q36 0 63.5 18t46 62t26.5 114t8 176q0 90 -8 151.5t-27.5 99t-48 54t-68.5 16.5q-17 0 -29 -3.5t-29 -8.5v-673z " />
<glyph unicode="&#x445;" horiz-adv-x="934" d="M8 0l275 545l-253 520h298l109 -252l40 -136l45 136l110 252h275l-255 -512l273 -553h-289l-130 277l-46 151l-49 -151l-130 -277h-273zM8 0z" />
<glyph unicode="&#x446;" horiz-adv-x="988" d="M92 0v1065h253v-833h241v833h253v-833h128v-474h-185l-28 242h-662z" />
<glyph unicode="&#x447;" horiz-adv-x="892" d="M51 685v380h254v-285q0 -113 20 -163t88 -50q47 0 80 13.5t54 31.5v453h254v-1065h-254v413q-26 -21 -79 -46.5t-142 -25.5q-64 0 -115 15.5t-86.5 56t-54.5 107t-19 165.5z" />
<glyph unicode="&#x448;" horiz-adv-x="1335" d="M92 0v1065h253v-833h196v833h254v-833h195v833h254v-1065h-1152z" />
<glyph unicode="&#x449;" horiz-adv-x="1390" d="M92 0v1065h253v-833h196v833h254v-833h195v833h254v-833h126v-509h-188l-26 277h-1064z" />
<glyph unicode="&#x44a;" horiz-adv-x="966" d="M-10 833v232h445v-380q42 9 85 12.5t78 3.5q89 0 153 -24.5t104.5 -68t59 -104.5t18.5 -134q0 -95 -22.5 -167.5t-73.5 -120.5t-135 -72.5t-208 -24.5q-100 0 -176 4.5t-137 10.5v833h-191zM435 224q44 -13 91 -13q77 0 111 34t34 115q0 149 -141 149q-51 0 -95 -13v-272 z" />
<glyph unicode="&#x44b;" horiz-adv-x="1258" d="M92 0v1065h253v-380q43 9 87.5 12.5t81.5 3.5q87 0 146.5 -24.5t95.5 -69t52.5 -105.5t16.5 -132q0 -95 -21.5 -167.5t-71 -120.5t-128 -72.5t-195.5 -24.5q-102 0 -180 4.5t-137 10.5zM345 224q45 -13 92 -13q68 0 97 35t29 116q0 75 -28.5 111t-95.5 36q-49 0 -94 -13 v-272zM916 0v1065h253v-1065h-253z" />
<glyph unicode="&#x44c;" horiz-adv-x="874" d="M92 0v1065h253v-380q43 9 87.5 12.5t81.5 3.5q89 0 151.5 -24.5t102 -69t56.5 -105.5t17 -132q0 -95 -22 -167.5t-71 -120.5t-130 -72.5t-199 -24.5q-110 0 -189 4.5t-138 10.5zM345 224q45 -13 94 -13q75 0 107.5 34t32.5 115q0 73 -31.5 111t-104.5 38q-55 0 -98 -15 v-270z" />
<glyph unicode="&#x44d;" horiz-adv-x="802" d="M32 34l60 211q87 -46 200 -47q104 0 148 58.5t48 186.5h-307v191h307q-6 116 -48 175.5t-135 59.5q-66 0 -115.5 -14t-85.5 -38l-68 193q116 85 318 85q195 0 295.5 -139t100.5 -424q0 -284 -110 -422t-310 -138q-79 0 -163 16t-135 46z" />
<glyph unicode="&#x44e;" horiz-adv-x="1301" d="M92 0v1065h253v-405h124q19 214 109.5 322.5t277.5 108.5q205 0 298.5 -146t93.5 -413q0 -558 -396 -558q-198 0 -284 119.5t-101 341.5h-122v-435h-253zM707 532q0 -164 32 -247.5t113 -83.5q34 0 59.5 14.5t42.5 53t24.5 102.5t7.5 161q0 175 -29.5 253.5t-108.5 78.5 q-73 0 -107 -73t-34 -259z" />
<glyph unicode="&#x44f;" horiz-adv-x="896" d="M15 0l162 343l83 68q-85 21 -138 102t-53 205q0 193 106 285t339 90q89 0 166.5 -9t130.5 -21v-1063h-253v402l-96 -26l-151 -376h-296zM330 703q0 -158 168 -162l60 4v307q-32 14 -79 15q-148 0 -149 -164z" />
<glyph unicode="&#x451;" horiz-adv-x="911" d="M53 0zM53 532q0 288 114 425.5t317 137.5q68 0 131.5 -20t114 -68t81 -128t30.5 -202q0 -47 -5 -100t-16 -115h-517q4 -132 55 -202.5t164 -70.5q69 0 125 21.5t86 45.5l78 -177q-53 -47 -144.5 -77t-191.5 -30q-110 0 -190 38.5t-131.5 110.5t-76 175.5t-24.5 235.5z M136 1345q0 69 37.5 107.5t98.5 38.5q59 0 95.5 -38.5t36.5 -107.5q0 -63 -36.5 -100.5t-95.5 -37.5q-61 0 -98.5 37.5t-37.5 100.5zM311 630h294q7 122 -25 185t-101 63q-81 0 -121.5 -65t-46.5 -183zM532 1345q0 69 36 107.5t98 38.5t98 -38.5t36 -107.5q0 -63 -36 -100.5 t-98 -37.5q-61 0 -97.5 37.5t-36.5 100.5z" />
<glyph unicode="&#x452;" horiz-adv-x="972" d="M-17 896v169h125v426h254v-426h284v-169h-284v-264h8q39 62 100.5 98t157.5 36q64 0 113 -19t82 -62.5t50 -116t17 -178.5v-456q0 -178 -66 -275.5t-212 -97.5q-29 0 -59.5 3t-64.5 12v217q91 -8 119.5 48.5t28.5 164.5v320q0 117 -26.5 163t-93.5 46q-51 0 -93.5 -33 t-60.5 -87v-415h-254v896h-125z" />
<glyph unicode="&#x453;" horiz-adv-x="657" d="M92 0v1065h577v-232h-324v-833h-253zM92 0zM277 1205l89 329h254v-64l-201 -265h-142z" />
<glyph unicode="&#x454;" horiz-adv-x="789" d="M57 532q0 271 114 415t311 144q95 0 158 -15t110 -41l-62 -215q-40 20 -80.5 29t-87.5 9q-75 0 -128 -54t-71 -174h322v-183h-324q13 -108 65.5 -174t147.5 -66q54 0 96.5 12.5t76.5 34.5l53 -201q-49 -38 -130 -58.5t-157 -20.5q-106 0 -184 39.5t-129.5 113.5t-76 177 t-24.5 228z" />
<glyph unicode="&#x455;" horiz-adv-x="744" d="M41 0zM41 49l69 205q45 -26 103.5 -45.5t123.5 -19.5q49 0 80.5 22.5t31.5 71.5q0 45 -28.5 76t-73 57.5t-94.5 54t-95 68t-74 98.5t-29 145q0 149 81 230t238 81q94 0 177 -20.5t132 -50.5l-59 -195q-41 16 -98 32.5t-113 16.5q-104 0 -104 -88q0 -40 28.5 -66.5 t73.5 -52.5t95 -53.5t95 -69.5t73.5 -101t28.5 -147q0 -146 -89.5 -236t-266.5 -90q-87 0 -171 21.5t-135 55.5z" />
<glyph unicode="&#x456;" horiz-adv-x="478" d="M81 0zM81 1366q0 63 40.5 104.5t114.5 41.5q75 0 119.5 -40.5t44.5 -105.5q0 -66 -44.5 -104.5t-119.5 -38.5t-115 39.5t-40 103.5zM113 0v1065h253v-1065h-253z" />
<glyph unicode="&#x457;" horiz-adv-x="583" d="M34 1340q0 68 29 106t90 38t89 -38t28 -106q0 -62 -27.5 -101.5t-89.5 -39.5q-61 0 -90 39.5t-29 101.5zM160 0v1065h253v-1065h-253zM313 1340q0 68 27.5 106t90.5 38t91.5 -38t28.5 -106q0 -62 -28.5 -101.5t-91.5 -39.5q-62 0 -90 39.5t-28 101.5z" />
<glyph unicode="&#x458;" horiz-adv-x="478" d="M-34 -203q91 -8 120 53t29 180v1035h253v-1110q0 -193 -67 -295.5t-214 -102.5q-59 0 -121 15v225zM0 0zM81 1366q0 63 40.5 104.5t114.5 41.5q75 0 119.5 -40.5t44.5 -105.5q0 -66 -44.5 -104.5t-119.5 -38.5t-115 39.5t-40 103.5z" />
<glyph unicode="&#x459;" horiz-adv-x="1386" d="M-6 19l30 221q51 -16 86 3t58 105.5t37 256.5t21 460h630v-380q43 9 87.5 12.5t80.5 3.5q90 0 153 -24.5t102.5 -69t56 -105.5t16.5 -132q0 -95 -22.5 -167.5t-71 -120.5t-129.5 -72.5t-198 -24.5q-110 0 -189.5 4.5t-138.5 10.5v833h-152q-8 -185 -23 -340.5t-48 -267.5 t-87.5 -174.5t-141.5 -62.5q-53 0 -91.5 7t-65.5 24zM856 224q45 -13 94 -13q74 0 107.5 34t33.5 115q0 73 -32.5 111t-103.5 38q-55 0 -99 -15v-270z" />
<glyph unicode="&#x45a;" horiz-adv-x="1386" d="M92 0v1065h253v-400h256v400h253v-384q42 6 87 10t81 4q90 0 153 -24.5t102.5 -67t57 -102.5t17.5 -131q0 -95 -22.5 -167.5t-72.5 -120.5t-130.5 -72.5t-197.5 -24.5q-111 0 -190 4.5t-138 10.5v433h-256v-433h-253zM854 224q45 -13 93 -13q75 0 109.5 35t34.5 116 q0 75 -33.5 106.5t-105.5 31.5q-53 0 -98 -12v-264z" />
<glyph unicode="&#x45b;" horiz-adv-x="972" d="M-17 896v169h125v426h254v-426h284v-169h-284v-260h8q39 58 100.5 94t157.5 36q64 0 113 -19t82 -63.5t50 -117t17 -178.5v-388h-254v330q0 108 -26.5 156.5t-93.5 48.5q-51 0 -93.5 -34t-60.5 -90v-411h-254v896h-125z" />
<glyph unicode="&#x45c;" horiz-adv-x="870" d="M92 0v1065h253v-453l51 29l179 424h273l-194 -409l-93 -83l101 -83l216 -490h-286l-190 441h-57v-441h-253zM92 0zM339 1205l89 329h254v-64l-201 -265h-142z" />
<glyph unicode="&#x45e;" horiz-adv-x="851" d="M-21 1065h304l150 -598l27 -166h11l19 168l124 596h260l-267 -961q-36 -126 -68.5 -226t-68 -170t-81.5 -107.5t-110 -37.5q-45 0 -86.5 7.5t-70.5 24.5l42 218q28 -11 57 -10t53 21t43.5 62.5t31.5 113.5zM0 0zM132 1453l215 47q6 -81 34 -117.5t70 -36.5q45 0 71.5 35 t37.5 117l192 -47q-24 -145 -108 -212.5t-199 -67.5q-55 0 -108.5 15t-96.5 48.5t-71.5 86.5t-36.5 132z" />
<glyph unicode="&#x45f;" horiz-adv-x="932" d="M92 0v1065h253v-833h245v833h253v-1065h-260l-25 -372h-174l-35 372h-257z" />
<glyph unicode="&#x462;" horiz-adv-x="1160" d="M0 1142v232h245v170h269v-170h346v-232h-346v-203q8 2 28.5 5t43.5 5.5t47.5 5t45.5 2.5q90 0 171 -20.5t141.5 -72t95.5 -141t35 -229.5q0 -256 -123 -385.5t-390 -129.5q-23 0 -67 1t-95 4.5t-104 10.5t-98 17v1130h-245zM514 238q18 -6 49 -9t61 -3q98 0 157.5 57.5 t59.5 200.5q0 74 -17 121t-45.5 73.5t-68 36t-84.5 9.5q-24 0 -61 -5.5t-51 -11.5v-469z" />
<glyph unicode="&#x463;" horiz-adv-x="966" d="M-10 872v193h191v426h254v-426h281v-193h-281v-187q42 9 87 12.5t81 3.5q90 0 152 -24.5t101.5 -69t58 -105.5t18.5 -132q0 -95 -22.5 -167.5t-73.5 -120.5t-135 -72.5t-206 -24.5q-102 0 -178 4.5t-137 10.5v872h-191zM435 224q44 -13 91 -13q77 0 111 38t34 115 q0 69 -33 105.5t-106 36.5q-53 0 -97 -12v-270z" />
<glyph unicode="&#x472;" horiz-adv-x="1175" d="M61 746q0 379 130 576.5t397 197.5q138 0 238.5 -54t164.5 -155t93.5 -245t29.5 -320q0 -380 -132 -578t-394 -198q-141 0 -239.5 54.5t-162.5 155.5t-94.5 245t-30.5 321zM343 636q6 -93 22.5 -169.5t46 -132t73 -86.5t103.5 -31q110 0 173.5 100t73.5 319h-492z M343 862h490q-6 90 -22 164.5t-46 130t-73.5 86.5t-103.5 31q-220 0 -245 -412z" />
<glyph unicode="&#x473;" horiz-adv-x="947" d="M53 532q0 275 109.5 419t310.5 144q106 0 185 -39.5t132 -113t78.5 -177t25.5 -233.5q0 -276 -110.5 -419t-310.5 -143q-106 0 -185 39.5t-131.5 113t-78 176.5t-25.5 233zM315 443q6 -130 51 -188.5t107 -58.5t106.5 52.5t52.5 194.5h-317zM315 616h317 q-10 140 -50.5 196.5t-106.5 56.5q-61 0 -106.5 -54.5t-53.5 -198.5z" />
<glyph unicode="&#x474;" horiz-adv-x="1124" d="M-26 1491h316l222 -875l29 -256h8l28 258l118 488q28 117 57.5 195.5t66.5 124.5t86.5 65t112.5 19q69 0 113 -13t83 -34l-55 -238q-31 17 -53 22t-45 5q-43 0 -68.5 -44.5t-47.5 -125.5l-313 -1092h-204z" />
<glyph unicode="&#x475;" horiz-adv-x="927" d="M-19 1065h296l145 -543l27 -179h9l21 181l39 151q26 110 52 188t59 127t76 71.5t100 22.5q45 0 86.5 -9.5t71.5 -26.5l-36 -219q-35 14 -55 14q-31 0 -58.5 -29.5t-55.5 -112.5l-234 -711h-162z" />
<glyph unicode="&#x48a;" horiz-adv-x="1254" d="M96 0v1491h268v-780l-23 -217h11l85 232l423 765h209v-1259h197v-66l-171 -443h-188l79 277h-185v795l22 211h-12l-81 -226l-423 -780h-211zM228 1823l243 39q13 -130 119 -130t119 128l218 -33q-17 -138 -104.5 -200t-234.5 -62q-75 0 -136.5 13t-108.5 42.5t-77 78.5 t-38 124z" />
<glyph unicode="&#x48b;" horiz-adv-x="1045" d="M92 0v1065h253v-484l-19 -166h6l77 177l288 473h170v-833h183v-66l-170 -443h-187l78 277h-157v464l18 172h-6l-79 -180l-285 -456h-170zM185 1453l215 47q7 -81 34.5 -117.5t69.5 -36.5q45 0 72 35t38 117l191 -47q-24 -145 -107.5 -212.5t-199.5 -67.5q-55 0 -108 15 t-95.5 48.5t-72 86.5t-37.5 132z" />
<glyph unicode="&#x48c;" horiz-adv-x="1079" d="M0 1303v181h164v177h269v-177h232v-181h-232v-348q20 6 70 12t93 6q91 0 172.5 -21t142 -75t95.5 -147.5t35 -235.5q0 -256 -123 -385.5t-390 -129.5q-24 0 -67.5 1t-94.5 4.5t-104 10.5t-98 17v1291h-164zM433 238q16 -6 47.5 -9t62.5 -3q96 0 156.5 57.5t60.5 202.5 q0 75 -17 122.5t-45.5 75t-69 38.5t-85.5 11q-24 0 -61 -6.5t-49 -13.5v-475z" />
<glyph unicode="&#x48d;" horiz-adv-x="966" d="M-10 872v193h191v426h254v-426h281v-193h-281v-187q42 9 87 12.5t81 3.5q90 0 152 -24.5t101.5 -69t58 -105.5t18.5 -132q0 -95 -22.5 -167.5t-73.5 -120.5t-135 -72.5t-206 -24.5q-102 0 -178 4.5t-137 10.5v872h-191zM0 0zM435 224q44 -13 91 -13q77 0 111 38t34 115 q0 69 -33 105.5t-106 36.5q-53 0 -97 -12v-270z" />
<glyph unicode="&#x48e;" horiz-adv-x="1015" d="M96 0v1476q77 16 168.5 26t182.5 10q98 0 193 -18t169.5 -71t121.5 -150.5t47 -252.5q0 -138 -38.5 -233.5t-102.5 -158.5l108 -159l-159 -134l-138 189q-71 -19 -146 -20h-27t-40.5 1t-42 4t-28.5 5v-514h-268zM364 754q12 -4 47.5 -7t48.5 -3q49 0 93 12l-104 153 l77 115l128 -187q19 32 31 78t12 107q0 71 -18.5 120t-49.5 77.5t-71 41.5t-85 13q-65 0 -109 -11v-509z" />
<glyph unicode="&#x48f;" horiz-adv-x="951" d="M92 -426v1491h189l26 -122h6q49 77 110 112.5t150 35.5q162 0 244 -122.5t82 -407.5q0 -293 -107 -443l84 -112l-152 -138l-100 122q-55 -19 -124 -20q-51 0 -87.5 9t-67.5 27v-432h-253zM345 238q21 -21 47.5 -31.5t69.5 -10.5q36 0 66 13l-89 114l67 88l95 -115 q17 45 26 111t9 160q0 151 -33.5 224t-112.5 73q-106 0 -145 -125v-501z" />
<glyph unicode="&#x490;" horiz-adv-x="811" d="M96 0v1491h522l36 324h173v-571h-463v-1244h-268z" />
<glyph unicode="&#x491;" horiz-adv-x="657" d="M92 0v1065h368l36 323h173v-555h-324v-833h-253z" />
<glyph unicode="&#x492;" horiz-adv-x="902" d="M2 632v185h169v674h730v-247h-462v-427h386v-185h-386v-632h-268v632h-169z" />
<glyph unicode="&#x493;" horiz-adv-x="719" d="M0 415v168h134v482h577v-232h-323v-250h285v-168h-285v-415h-254v415h-134z" />
<glyph unicode="&#x494;" horiz-adv-x="1032" d="M96 0v1491h731v-247h-463v-445q30 12 91 29.5t139 17.5q77 0 145 -23.5t120.5 -84.5t83 -166t30.5 -267q0 -143 -22 -250.5t-71 -180t-130 -108.5t-199 -36q-85 0 -108 8v236q13 -4 38 -4h54q81 0 119.5 76t38.5 248q0 92 -13 150t-37.5 92.5t-59 48t-77.5 13.5 q-38 0 -78 -13.5t-64 -26.5v-558h-268z" />
<glyph unicode="&#x495;" horiz-adv-x="943" d="M92 0v1065h570v-232h-317v-282q30 13 83.5 29t134.5 16q65 0 125 -21.5t104.5 -77.5t71 -154t26.5 -254q0 -134 -20 -235.5t-66 -168.5t-122.5 -100.5t-189.5 -33.5q-47 0 -72.5 3t-37.5 7v226q10 -2 35.5 -3t53.5 -1q79 0 115 69t36 235q0 81 -10.5 134.5t-29.5 85.5 t-48.5 44.5t-62.5 12.5q-38 0 -73.5 -10.5t-52.5 -21.5v-332h-253z" />
<glyph unicode="&#x496;" horiz-adv-x="1545" d="M-10 0l297 656l99 81l-96 76l-278 678h311l222 -641h67v641h252v-666l63 29l223 637h301l-266 -656l-86 -71l104 -87l190 -429h147v-514h-190l-27 266h-143l-249 650h-67v-650h-252v675l-61 -29l-250 -646h-311z" />
<glyph unicode="&#x497;" horiz-adv-x="1303" d="M-8 0l213 488l61 63l-89 81l-167 433h269l143 -433h72v433h241v-453l64 29l142 424h269l-177 -433l-70 -67l89 -86l100 -247h145v-474h-187l-28 242h-121l-156 441h-70v-441h-241v462l-66 -29l-156 -433h-280z" />
<glyph unicode="&#x498;" horiz-adv-x="925" d="M26 45l70 238q40 -24 111.5 -45t166.5 -21q88 0 152 56.5t64 177.5q0 104 -58.5 156.5t-205.5 57.5q-24 0 -32.5 1t-35.5 1h-49v217h51q32 0 79 2t74 13q57 16 97.5 63.5t40.5 121.5q0 104 -50 145t-139 41q-73 0 -135.5 -22.5t-98.5 -46.5l-69 232q21 13 60 28t87 28 t102 20t109 7q81 0 157 -16t133 -57t91.5 -114t34.5 -185q0 -108 -45.5 -202t-148.5 -139v-13q110 -30 171.5 -119.5t61.5 -242.5q0 -104 -30.5 -183t-81.5 -133.5t-119 -87t-145 -45.5l-23 -351h-175l-32 348q-75 10 -136 27.5t-104 41.5z" />
<glyph unicode="&#x499;" horiz-adv-x="752" d="M30 49l51 207q41 -24 95 -37.5t116 -13.5q156 0 155 125q0 53 -39.5 83t-145.5 30h-81v189h102q57 0 93.5 34.5t36.5 83.5q0 106 -132 106q-64 0 -112.5 -16.5t-79.5 -36.5l-57 203q55 32 144.5 54t185.5 22q305 0 305 -265q0 -79 -34.5 -147.5t-102.5 -98.5v-8 q90 -26 130.5 -90t40.5 -172q0 -109 -59 -193t-186 -114l-25 -366h-175l-34 357q-62 9 -109 25t-83 39z" />
<glyph unicode="&#x49a;" horiz-adv-x="1136" d="M96 0v1491h268v-662l53 25l313 637h303l-340 -629l-101 -78l103 -81l255 -455h176v-514h-189l-25 266h-152l-338 639h-58v-639h-268z" />
<glyph unicode="&#x49b;" horiz-adv-x="937" d="M92 0v1065h253v-453l51 29l179 424h273l-194 -409l-93 -83l101 -83l113 -258h150v-474h-188l-28 242h-117l-190 441h-57v-441h-253z" />
<glyph unicode="&#x49c;" horiz-adv-x="1285" d="M96 0v1491h268v-660l96 8v283h176v-266l41 4l256 631h288l-278 -627l-100 -80l100 -83l327 -701h-309l-278 636h-47v-270h-176v270h-96v-636h-268z" />
<glyph unicode="&#x49d;" horiz-adv-x="1045" d="M92 0v1065h253v-453l70 8v256h138v-240l39 5l138 424h266l-153 -411l-95 -81l100 -81l176 -492h-276l-147 441h-48v-252h-138v252h-70v-441h-253z" />
<glyph unicode="&#x49e;" horiz-adv-x="1232" d="M2 1159v204h224v128h268v-128h156v-181h-156v-353l94 29l281 633h294l-307 -627l-123 -80l113 -83l370 -701h-326l-315 639h-81v-639h-268v1159h-224z" />
<glyph unicode="&#x49f;" horiz-adv-x="892" d="M-32 1165v168h140v158h254v-158h268v-168h-268v-553l51 29l177 424h274l-195 -422l-92 -72l100 -73l217 -498h-285l-187 441h-60v-441h-254v1165h-140z" />
<glyph unicode="&#x4a0;" horiz-adv-x="1285" d="M0 1244v247h547v-662l54 25l313 637h302l-340 -629l-101 -78l101 -81l394 -703h-327l-338 639h-58v-639h-268v1199v45h-279z" />
<glyph unicode="&#x4a1;" horiz-adv-x="964" d="M-10 833v232h445v-453l53 27l179 426h270l-191 -405l-96 -81l100 -83l217 -496h-286l-187 441h-59v-441h-254v833h-191z" />
<glyph unicode="&#x4a2;" horiz-adv-x="1224" d="M96 0v1491h268v-613h407v613h268v-1243h156v-514h-189l-26 266h-209v630h-407v-630h-268zM96 0z" />
<glyph unicode="&#x4a3;" horiz-adv-x="1004" d="M92 0v1065h253v-409h256v409h253v-833h136v-474h-187l-28 242h-174v424h-256v-424h-253z" />
<glyph unicode="&#x4a4;" horiz-adv-x="1484" d="M96 0v1491h268v-613h407v613h731v-247h-463v-1244h-268v630h-407v-630h-268z" />
<glyph unicode="&#x4a5;" horiz-adv-x="1162" d="M92 0v1065h253v-409h256v409h572v-232h-319v-833h-253v424h-256v-424h-253z" />
<glyph unicode="&#x4a6;" horiz-adv-x="1683" d="M96 0v1491h924v-692q30 12 89.5 29.5t138.5 17.5q77 0 145 -23.5t121 -84.5t84.5 -166t31.5 -267q0 -139 -21.5 -245.5t-70.5 -179.5t-130 -111.5t-201 -38.5q-87 0 -110 8v236q13 -4 38.5 -4h53.5q81 0 120 78t39 246q0 88 -12.5 146t-37 93.5t-60 50t-77.5 14.5 q-37 0 -79.5 -13.5t-61.5 -26.5v-62v-496h-268v1244h-388v-1244h-268z" />
<glyph unicode="&#x4a7;" horiz-adv-x="1441" d="M92 0v1065h754v-512q30 13 83 28t134 15q63 0 122 -21.5t104.5 -77.5t72 -152.5t26.5 -248.5q0 -139 -20 -241.5t-67 -169.5t-123.5 -100.5t-191.5 -33.5q-45 0 -68.5 3t-37.5 7v226q12 -2 37.5 -3t53.5 -1q79 0 117 71t38 231q0 81 -10 134t-31.5 85.5t-50 46 t-63.5 13.5q-36 0 -71.5 -10.5t-53.5 -21.5v-332h-254v833h-247v-833h-253z" />
<glyph unicode="&#x4a8;" horiz-adv-x="1579" d="M61 748q0 386 139 579t428 193v-246q-136 0 -210.5 -125t-74.5 -391q0 -130 27.5 -231t73.5 -169t105.5 -104.5t121.5 -36.5q21 0 44.5 2.5t36.5 8.5q-75 65 -129 210t-54 344q0 332 121 499.5t339 167.5q117 0 200 -45t136.5 -125t77.5 -190.5t24 -240.5 q0 -122 -22 -224t-57.5 -183t-76.5 -137t-80 -85q11 -2 24 -2h23q47 0 94 16.5t79 43.5l83 -216q-92 -91 -268 -91q-73 0 -152 24.5t-128 78.5q-61 -49 -136 -76t-179 -27q-299 0 -454.5 203t-155.5 575zM850 790q0 -65 11 -134.5t31 -132.5t50.5 -117t73.5 -93q36 34 67 87 t54.5 120.5t36.5 147.5t13 167q0 77 -8 144t-25.5 117t-50 77.5t-79.5 27.5q-81 0 -127.5 -101t-46.5 -310z" />
<glyph unicode="&#x4a9;" horiz-adv-x="1272" d="M51 532q0 124 22.5 225t73.5 175t133 116.5t202 46.5v-226q-90 -8 -129.5 -89t-39.5 -241t59 -250.5t154 -90.5q17 0 36 3.5t30 13.5q-43 43 -76.5 139.5t-33.5 220.5q0 90 18 177t60.5 157.5t113 113t174.5 42.5q99 0 167.5 -36.5t110 -96.5t58.5 -140.5t17 -169.5 q0 -73 -15 -140t-38.5 -123t-53 -99t-59.5 -67q36 -16 83 -5.5t77 40.5l53 -183q-34 -35 -87 -54t-128 -19q-77 0 -133.5 23.5t-92.5 63.5q-57 -49 -130.5 -68t-154.5 -19q-117 0 -205.5 39.5t-147.5 112t-88.5 177t-29.5 231.5zM726 571q0 -96 27 -178t76 -133 q51 45 80.5 138.5t29.5 208.5q0 109 -24.5 170.5t-75.5 61.5q-68 0 -90.5 -72t-22.5 -196z" />
<glyph unicode="&#x4aa;" horiz-adv-x="972" d="M61 748q0 225 48.5 374.5t126 238t178 124t202.5 35.5q104 0 182 -16.5t127 -38.5l-53 -236q-41 21 -95.5 33t-128.5 12q-147 0 -226 -128t-79 -400q0 -118 18.5 -214.5t57.5 -167t99.5 -109t146.5 -38.5q74 0 127.5 20.5t95.5 47.5l53 -226q-38 -32 -96.5 -51.5 t-122.5 -28.5l-23 -351h-175l-32 353q-94 17 -173 68t-136 143.5t-89.5 229t-32.5 326.5z" />
<glyph unicode="&#x4ab;" horiz-adv-x="744" d="M53 532q0 279 100.5 420t293.5 141q96 0 157 -17t107 -43l-59 -210q-38 18 -73.5 27.5t-84.5 9.5q-89 0 -134 -77.5t-45 -250.5q0 -144 46 -235.5t145 -91.5q54 0 91 13.5t70 35.5l53 -197q-64 -51 -155 -69l-24 -360h-175l-34 357q-151 39 -215 182.5t-64 364.5z" />
<glyph unicode="&#x4ac;" horiz-adv-x="1006" d="M17 1244v247h973v-247h-351v-996h156v-514h-190l-26 266h-209v1244h-353z" />
<glyph unicode="&#x4ad;" horiz-adv-x="738" d="M2 833v232h728v-232h-232v-601h150v-474h-188l-27 242h-188v833h-243z" />
<glyph unicode="&#x4ae;" horiz-adv-x="1053" d="M-8 1491h319l207 -564l21 -163h10l24 167l202 560h288l-403 -935v-556h-268v553zM0 0z" />
<glyph unicode="&#x4af;" horiz-adv-x="868" d="M-19 1065h296l147 -618l27 -213h9l22 215l132 616h274l-315 -1067v-424h-254v424z" />
<glyph unicode="&#x4b0;" horiz-adv-x="1053" d="M-8 1491h319l207 -564l21 -163h10l24 167l202 560h288l-375 -869h245v-183h-273v-439h-268v439h-272v183h242z" />
<glyph unicode="&#x4b1;" horiz-adv-x="868" d="M-19 1065h296l147 -618l27 -213h9l22 215l132 616h274l-315 -1065h202v-168h-202v-258h-254v258h-206v168h204z" />
<glyph unicode="&#x4b2;" horiz-adv-x="1187" d="M12 0l364 758l-329 733h323l173 -426l40 -162l39 162l181 426h290l-341 -718l242 -525h184v-514h-190l-25 266h-166l-201 458l-45 166l-42 -166l-200 -458h-297z" />
<glyph unicode="&#x4b3;" horiz-adv-x="968" d="M8 0l275 545l-253 520h298l109 -252l40 -136l45 136l110 252h275l-255 -512l157 -321h150v-474h-188l-27 242h-108l-130 277l-46 151l-49 -151l-130 -277h-273z" />
<glyph unicode="&#x4b4;" horiz-adv-x="1471" d="M17 1244v247h847v-247h-228v-996h384v1243h269v-1243h156v-514h-191l-27 266h-859v1244h-351z" />
<glyph unicode="&#x4b5;" horiz-adv-x="1149" d="M2 833v232h656v-232h-160v-601h248v833h253v-833h127v-474h-187l-25 242h-669v833h-243z" />
<glyph unicode="&#x4b6;" horiz-adv-x="1160" d="M73 914v577h268v-489q0 -133 38 -189.5t125 -56.5q62 0 116.5 19.5t86.5 55.5v660h269v-1243h154v-514h-189l-25 266h-209v601q-42 -30 -117.5 -56.5t-178.5 -26.5q-71 0 -132.5 20t-107 66t-72 121.5t-26.5 188.5z" />
<glyph unicode="&#x4b7;" horiz-adv-x="964" d="M51 685v380h254v-285q0 -113 20 -163t88 -50q47 0 80 13.5t54 31.5v453h254v-833h144v-474h-187l-28 242h-183v413q-26 -21 -79 -46.5t-142 -25.5q-64 0 -115 15.5t-86.5 56t-54.5 107t-19 165.5z" />
<glyph unicode="&#x4b8;" horiz-adv-x="1156" d="M73 916v575h268v-487q0 -120 30.5 -177.5t110.5 -68.5v258h178v-243q84 18 132 56v662h269v-1491h-269v603q-23 -14 -56 -29.5t-76 -26.5v-287h-178v260q-15 -2 -28 -2h-26q-164 0 -259.5 91.5t-95.5 306.5z" />
<glyph unicode="&#x4b9;" horiz-adv-x="970" d="M49 703v362h254v-268q0 -109 21 -165.5t78 -68.5v260h141v-250q57 13 83 39v453h254v-1065h-254v413q-26 -19 -83 -43v-244h-141v213q-16 -2 -30 -2h-31q-71 0 -125 16.5t-91.5 59.5t-56.5 113t-19 177z" />
<glyph unicode="&#x4ba;" horiz-adv-x="1077" d="M96 0v1491h268v-601q45 30 122 58t183 28q75 0 136.5 -21.5t105.5 -70.5t67.5 -127t23.5 -190v-567h-269v484q0 128 -36.5 190.5t-127.5 62.5q-61 0 -116 -19t-89 -53v-665h-268z" />
<glyph unicode="&#x4bb;" horiz-adv-x="955" d="M92 0v1491h253v-522h7q42 55 103 89.5t152 34.5q66 0 115 -19t83 -64t51.5 -121t17.5 -190v-699h-254v643q0 115 -26.5 166t-97.5 51q-51 0 -93.5 -36t-57.5 -91v-733h-253zM92 0z" />
<glyph unicode="&#x4bc;" horiz-adv-x="1420" d="M0 937q2 51 15 98t32 77h219q-21 -35 -29.5 -71.5t-8.5 -69.5q0 -18 5 -38.5t20 -36.5t42.5 -25t74.5 -4q6 149 41.5 270t98.5 206.5t152.5 131t209.5 45.5q242 0 358 -158.5t116 -465.5q0 -123 -19 -266h-688q8 -193 80.5 -303t230.5 -110q76 0 142.5 27.5t128.5 74.5 l68 -232q-169 -117 -390 -117q-246 0 -381.5 167.5t-147.5 492.5h-53q-89 0 -151 24.5t-98 66t-52 97.5t-16 119zM636 862h448q2 24 3.5 44.5t1.5 43.5q0 65 -12 127.5t-37.5 109t-65 74.5t-96.5 28q-120 0 -177.5 -115t-64.5 -312z" />
<glyph unicode="&#x4bd;" horiz-adv-x="1156" d="M6 733q0 62 17.5 102.5t42.5 73.5h211q-28 -26 -46 -71.5t-18 -100.5q0 -40 22.5 -70.5t83.5 -27.5q24 225 134 340.5t291 115.5q68 0 131.5 -20t113.5 -68t81 -128t31 -202q0 -47 -5 -100t-16 -115h-517q4 -132 55 -202.5t164 -70.5q69 0 125 21.5t85 45.5l79 -177 q-53 -47 -144.5 -77t-191.5 -30q-203 0 -304 132t-116 358h-17q-140 0 -218 64t-74 207zM571 630h293q6 122 -25 185t-100 63q-81 0 -121.5 -65t-46.5 -183z" />
<glyph unicode="&#x4be;" horiz-adv-x="1407" d="M0 937q2 51 15 98t32 77h219q-21 -35 -29.5 -71.5t-8.5 -69.5q0 -18 5 -38.5t20 -36.5t42.5 -25t74.5 -4q6 149 41.5 270t98.5 206.5t152.5 131t209.5 45.5q242 0 358 -158.5t116 -465.5q0 -123 -19 -266h-688q8 -193 80.5 -303t230.5 -110q76 0 142.5 27.5t128.5 74.5 l68 -232q-124 -85 -277 -108l-24 -351h-175l-31 353q-191 37 -295.5 200.5t-116.5 448.5h-53q-89 0 -151 24.5t-98 66t-52 97.5t-16 119zM636 862h448q2 24 3.5 44.5t1.5 43.5q0 65 -12 127.5t-37.5 109t-65 74.5t-96.5 28q-120 0 -177.5 -115t-64.5 -312z" />
<glyph unicode="&#x4bf;" horiz-adv-x="1156" d="M6 733q0 62 17.5 102.5t42.5 73.5h211q-28 -26 -46 -71.5t-18 -100.5q0 -40 22.5 -70.5t83.5 -27.5q24 225 134 340.5t291 115.5q68 0 131.5 -20t113.5 -68t81 -128t31 -202q0 -47 -5 -100t-16 -115h-517q4 -132 55 -202.5t164 -70.5q69 0 125 21.5t85 45.5l79 -177 q-36 -32 -93.5 -57.5t-125.5 -36.5l-23 -357h-175l-34 357q-147 37 -220.5 160t-84.5 317h-17q-140 0 -218 64t-74 207zM571 630h293q6 122 -25 185t-100 63q-81 0 -121.5 -65t-46.5 -183z" />
<glyph unicode="&#x4c0;" horiz-adv-x="506" d="M120 0v1491h268v-1491h-268zM120 0z" />
<glyph unicode="&#x4c3;" horiz-adv-x="1089" d="M96 0v1491h268v-662l53 25l313 637h303l-328 -597l-109 -85h83q83 -26 143 -70t97.5 -116t55 -175t17.5 -245v-58q0 -301 -102 -442.5t-283 -141.5q-26 0 -53.5 2t-57.5 9v227q128 -10 178 76.5t50 288.5q0 114 -13.5 201.5t-47 148.5t-90.5 93t-145 32h-64v-639h-268z " />
<glyph unicode="&#x4c4;" horiz-adv-x="890" d="M92 0v1065h253v-462l51 25l179 437h273l-196 -424l-85 -68l69 -6q64 -21 104 -68.5t61.5 -110t28.5 -138t7 -154.5v-37q0 -260 -82 -380t-237 -120q-61 0 -124 15v223q96 -16 142.5 50t46.5 222q0 181 -43.5 268t-137.5 98h-57v-435h-253z" />
<glyph unicode="&#x4c5;" horiz-adv-x="1164" d="M-26 15l30 243q39 -15 77.5 -1.5t63.5 69.5q26 46 45 136.5t32.5 233.5t21.5 339t12 456h748v-1259h171v-66l-169 -443h-189l79 277h-161v1244h-226q-15 -405 -40.5 -676.5t-98.5 -414.5q-26 -51 -58.5 -84t-65.5 -51t-67 -25.5t-61 -7.5q-45 0 -79.5 7.5t-64.5 22.5z " />
<glyph unicode="&#x4c6;" horiz-adv-x="992" d="M-32 19l30 221q51 -16 86.5 3t58.5 105.5t36.5 256.5t21.5 460h630v-833h165v-66l-169 -443h-188l79 277h-141v833h-153q-8 -185 -23 -340.5t-47.5 -267.5t-86.5 -174.5t-141 -62.5q-53 0 -91.5 7t-66.5 24z" />
<glyph unicode="&#x4c7;" horiz-adv-x="1134" d="M96 0v1491h268v-613h407v613h268v-1491v-63q0 -377 -285 -378q-53 0 -118 13v225q45 -4 72 8t40.5 38.5t18 66t4.5 90.5v630h-407v-630h-268z" />
<glyph unicode="&#x4c8;" horiz-adv-x="945" d="M92 0v1065h253v-409h256v409h253v-1131q0 -178 -66 -275.5t-213 -97.5q-28 0 -58.5 3t-65.5 12v219q92 -8 121 44.5t29 160.5v424h-256v-424h-253z" />
<glyph unicode="&#x4c9;" horiz-adv-x="1207" d="M96 0v1491h268v-613h407v613h268v-1259h179v-66l-170 -443h-188l79 277h-168v630h-407v-630h-268z" />
<glyph unicode="&#x4ca;" horiz-adv-x="1026" d="M92 0v1065h253v-409h256v409h253v-833h177v-66l-171 -443h-187l79 277h-151v424h-256v-424h-253z" />
<glyph unicode="&#x4cb;" horiz-adv-x="1071" d="M73 914v577h268v-489q0 -133 38 -189.5t125 -56.5q62 0 116.5 19.5t86.5 55.5v660h269v-1491h-207l-25 -266h-191v514h154v353q-42 -30 -117.5 -56.5t-178.5 -26.5q-71 0 -132.5 20t-107 66t-72 121.5t-26.5 188.5z" />
<glyph unicode="&#x4cc;" horiz-adv-x="894" d="M51 726v339h254v-234q0 -122 21 -176t89 -54q45 0 79 11.5t55 28.5v424h254v-1065h-213l-25 -242h-189v443h173v242q-28 -24 -80 -46.5t-143 -22.5q-128 0 -201.5 80.5t-73.5 271.5z" />
<glyph unicode="&#x4cd;" horiz-adv-x="1500" d="M96 0v1491h258l311 -645l51 -186h8l49 190l292 641h254v-1259h195v-66l-170 -443h-188l80 277h-186v769l30 286h-11l-79 -256l-242 -524h-90l-258 526l-79 258h-12l40 -288v-771h-253z" />
<glyph unicode="&#x4ce;" horiz-adv-x="1262" d="M92 0v1065h266l193 -392l43 -143h9l45 147l179 388h264v-833h177v-66l-171 -443h-188l79 277h-138v490l14 219h-10l-64 -197l-156 -321h-95l-171 321l-65 197h-13l27 -219v-490h-225z" />
<glyph unicode="&#x4cf;" horiz-adv-x="461" d="M104 0v1491h254v-1491h-254zM104 0z" />
<glyph unicode="&#x4d0;" horiz-adv-x="1067" d="M-6 0l432 1502h210l435 -1502h-281l-91 337h-352l-87 -337h-266zM0 0zM177 1823l242 39q13 -130 120 -130q106 0 119 128l218 -33q-17 -138 -105 -200t-234 -62q-75 0 -136.5 13t-108.5 42.5t-77 78.5t-38 124zM405 558h247l-85 347l-35 235h-8l-36 -237z" />
<glyph unicode="&#x4d1;" horiz-adv-x="878" d="M36 0zM36 294q0 192 136.5 273t368.5 67q10 124 -16.5 179.5t-113.5 55.5q-64 0 -132 -15t-121 -43l-64 191q63 38 159 61t218 23q181 0 252.5 -93.5t71.5 -266.5q0 -100 -5.5 -196.5t-7.5 -189t3 -179t28 -163.5h-206l-40 130h-9q-34 -61 -96 -102t-155 -41 q-126 0 -198.5 84t-72.5 225zM132 1453l215 47q6 -81 34 -117.5t70 -36.5q45 0 71.5 35t37.5 117l192 -47q-24 -145 -108 -212.5t-199 -67.5q-55 0 -108.5 15t-96.5 48.5t-71.5 86.5t-36.5 132zM298 337q0 -66 27 -100t73 -34q58 0 94 28.5t53 62.5v177q-49 6 -93.5 2 t-78.5 -19t-54.5 -43.5t-20.5 -73.5z" />
<glyph unicode="&#x4d2;" horiz-adv-x="1067" d="M-6 0l432 1502h210l435 -1502h-281l-91 337h-352l-87 -337h-266zM0 0zM194 1699q0 55 32.5 89.5t114.5 34.5q74 0 107 -33.5t33 -90.5q0 -55 -33 -87.5t-107 -32.5q-82 0 -114.5 32.5t-32.5 87.5zM405 558h247l-85 347l-35 235h-8l-36 -237zM582 1699q0 55 32.5 89.5 t109.5 34.5q79 0 112 -33.5t33 -90.5q0 -55 -33 -87.5t-112 -32.5q-77 0 -109.5 32.5t-32.5 87.5z" />
<glyph unicode="&#x4d3;" horiz-adv-x="878" d="M36 0zM36 294q0 192 136.5 273t368.5 67q10 124 -16.5 179.5t-113.5 55.5q-64 0 -132 -15t-121 -43l-64 191q63 38 159 61t218 23q181 0 252.5 -93.5t71.5 -266.5q0 -100 -5.5 -196.5t-7.5 -189t3 -179t28 -163.5h-206l-40 130h-9q-34 -61 -96 -102t-155 -41 q-126 0 -198.5 84t-72.5 225zM111 1345q0 69 37.5 107.5t98.5 38.5q59 0 95.5 -38.5t36.5 -107.5q0 -63 -36.5 -100.5t-95.5 -37.5q-61 0 -98.5 37.5t-37.5 100.5zM298 337q0 -66 27 -100t73 -34q58 0 94 28.5t53 62.5v177q-49 6 -93.5 2t-78.5 -19t-54.5 -43.5t-20.5 -73.5 zM507 1345q0 69 36 107.5t98 38.5t98 -38.5t36 -107.5q0 -63 -36 -100.5t-98 -37.5q-61 0 -97.5 37.5t-36.5 100.5z" />
<glyph unicode="&#x4d4;" horiz-adv-x="1526" d="M-51 0l746 1491h756v-247h-478v-366h433v-248h-433v-382h486v-248h-754v368h-307l-168 -368h-281zM500 590h205v522h-10l-56 -207z" />
<glyph unicode="&#x4d5;" horiz-adv-x="1390" d="M36 296q0 98 35 165t100 109t159 59t209 10q2 18 2 35v33q0 83 -27.5 120t-100.5 37q-66 0 -134 -18.5t-121 -48.5l-66 191q68 45 166 71.5t204 26.5q89 0 146 -27.5t93 -87.5q43 62 111 93t153 31q69 0 133.5 -20t114.5 -69t80 -130t30 -203q0 -47 -5.5 -100t-16.5 -113 h-513q4 -141 53 -206t161 -65q65 0 121.5 20.5t86.5 44.5l83 -177q-53 -43 -142.5 -74t-198.5 -31q-232 0 -330 173h-10q-45 -73 -114.5 -117.5t-186.5 -44.5q-128 0 -201.5 87.5t-73.5 225.5zM298 337q0 -59 25.5 -93.5t74.5 -34.5q60 0 96 28.5t53 67.5v170q-49 4 -93.5 1 t-79.5 -19t-55.5 -44.5t-20.5 -75.5zM795 628h291q6 116 -25.5 183t-101.5 67q-81 0 -119.5 -64t-44.5 -186z" />
<glyph unicode="&#x4d6;" horiz-adv-x="915" d="M96 0v1491h745v-247h-477v-366h433v-248h-433v-382h486v-248h-754zM96 0zM120 1823l242 39q13 -130 120 -130q106 0 119 128l218 -33q-17 -138 -105 -200t-234 -62q-75 0 -136.5 13t-108.5 42.5t-77 78.5t-38 124z" />
<glyph unicode="&#x4d7;" horiz-adv-x="911" d="M53 0zM53 532q0 288 114 425.5t317 137.5q68 0 131.5 -20t114 -68t81 -128t30.5 -202q0 -47 -5 -100t-16 -115h-517q4 -132 55 -202.5t164 -70.5q69 0 125 21.5t86 45.5l78 -177q-53 -47 -144.5 -77t-191.5 -30q-110 0 -190 38.5t-131.5 110.5t-76 175.5t-24.5 235.5z M149 1453l215 47q6 -81 34 -117.5t70 -36.5q45 0 71.5 35t37.5 117l192 -47q-24 -145 -108 -212.5t-199 -67.5q-55 0 -108.5 15t-96.5 48.5t-71.5 86.5t-36.5 132zM311 630h294q7 122 -25 185t-101 63q-81 0 -121.5 -65t-46.5 -183z" />
<glyph unicode="&#x4d8;" horiz-adv-x="1109" d="M61 601q0 126 20 266h683q-4 94 -21 169.5t-50 127.5t-86.5 81t-131.5 29q-89 0 -158 -31t-112 -58l-60 234q30 18 71.5 36.5t91.5 33.5t103 23t109 8q130 0 228 -43.5t164 -138t100 -241.5t34 -351q0 -181 -28 -325t-89.5 -244t-158.5 -153.5t-238 -53.5 q-123 0 -211.5 44.5t-145.5 127t-85.5 198.5t-28.5 261zM337 539q0 -71 11.5 -131.5t37 -106t64 -72t93.5 -26.5q117 0 169 107t52 331h-423q-4 -26 -4 -52v-50z" />
<glyph unicode="&#x4d9;" horiz-adv-x="894" d="M55 409q0 47 5.5 100.5t16.5 112.5h511q-9 134 -55.5 194t-158.5 60q-68 0 -120.5 -23.5t-82.5 -47.5l-88 185q55 45 147.5 74t197.5 29q214 0 313.5 -148t99.5 -413q0 -282 -111.5 -421t-303.5 -139q-70 0 -137 22.5t-119 74t-83.5 134t-31.5 206.5zM290 453 q-8 -117 28 -190.5t108 -73.5q79 0 121.5 70.5t40.5 193.5h-298z" />
<glyph unicode="&#x4da;" horiz-adv-x="1109" d="M61 0zM61 601q0 126 20 266h683q-4 94 -21 169.5t-50 127.5t-86.5 81t-131.5 29q-89 0 -158 -31t-112 -58l-60 234q30 18 71.5 36.5t91.5 33.5t103 23t109 8q130 0 228 -43.5t164 -138t100 -241.5t34 -351q0 -181 -28 -325t-89.5 -244t-158.5 -153.5t-238 -53.5 q-123 0 -211.5 44.5t-145.5 127t-85.5 198.5t-28.5 261zM201 1699q0 55 32.5 89.5t114.5 34.5q74 0 107 -33.5t33 -90.5q0 -55 -33 -87.5t-107 -32.5q-82 0 -114.5 32.5t-32.5 87.5zM337 539q0 -71 11.5 -131.5t37 -106t64 -72t93.5 -26.5q117 0 169 107t52 331h-423 q-4 -26 -4 -52v-50zM589 1699q0 55 32.5 89.5t109.5 34.5q79 0 112 -33.5t33 -90.5q0 -55 -33 -87.5t-112 -32.5q-77 0 -109.5 32.5t-32.5 87.5z" />
<glyph unicode="&#x4db;" horiz-adv-x="894" d="M55 0zM55 409q0 47 5.5 100.5t16.5 112.5h511q-9 134 -55.5 194t-158.5 60q-68 0 -120.5 -23.5t-82.5 -47.5l-88 185q55 45 147.5 74t197.5 29q214 0 313.5 -148t99.5 -413q0 -282 -111.5 -421t-303.5 -139q-70 0 -137 22.5t-119 74t-83.5 134t-31.5 206.5zM104 1345 q0 69 37.5 107.5t98.5 38.5q59 0 95.5 -38.5t36.5 -107.5q0 -63 -36.5 -100.5t-95.5 -37.5q-61 0 -98.5 37.5t-37.5 100.5zM290 453q-8 -117 28 -190.5t108 -73.5q79 0 121.5 70.5t40.5 193.5h-298zM500 1345q0 69 36 107.5t98 38.5t98 -38.5t36 -107.5q0 -63 -36 -100.5 t-98 -37.5q-61 0 -97.5 37.5t-36.5 100.5z" />
<glyph unicode="&#x4dc;" horiz-adv-x="1492" d="M-10 0l297 656l99 81l-96 76l-278 678h311l222 -641h67v641h252v-666l63 29l223 637h301l-266 -656l-86 -71l104 -87l301 -677h-324l-249 650h-67v-650h-252v675l-61 -29l-250 -646h-311zM0 0zM407 1699q0 55 32.5 89.5t114.5 34.5q74 0 107 -33.5t33 -90.5 q0 -55 -33 -87.5t-107 -32.5q-82 0 -114.5 32.5t-32.5 87.5zM795 1699q0 55 32.5 89.5t109.5 34.5q79 0 112 -33.5t33 -90.5q0 -55 -33 -87.5t-112 -32.5q-77 0 -109.5 32.5t-32.5 87.5z" />
<glyph unicode="&#x4dd;" horiz-adv-x="1238" d="M-8 0l213 488l61 63l-89 81l-167 433h269l143 -433h72v433h241v-453l64 29l142 424h269l-177 -433l-70 -67l89 -86l196 -479h-287l-156 441h-70v-441h-241v462l-66 -29l-156 -433h-280zM0 0zM286 1345q0 69 37.5 107.5t98.5 38.5q59 0 95.5 -38.5t36.5 -107.5 q0 -63 -36.5 -100.5t-95.5 -37.5q-61 0 -98.5 37.5t-37.5 100.5zM682 1345q0 69 36 107.5t98 38.5t98 -38.5t36 -107.5q0 -63 -36 -100.5t-98 -37.5q-61 0 -97.5 37.5t-36.5 100.5z" />
<glyph unicode="&#x4de;" horiz-adv-x="925" d="M26 0zM26 45l70 238q40 -24 111.5 -45t166.5 -21q88 0 152 56.5t64 177.5q0 104 -58.5 156.5t-205.5 57.5q-24 0 -32.5 1t-35.5 1h-49v217h51q32 0 79 2t74 13q57 16 97.5 63.5t40.5 121.5q0 104 -50 145t-139 41q-73 0 -135.5 -22.5t-98.5 -46.5l-69 232q21 13 60 28 t87 28t102 20t109 7q81 0 157 -16t133 -57t91.5 -114t34.5 -185q0 -108 -45.5 -202t-148.5 -139v-13q110 -30 171.5 -119.5t61.5 -242.5q0 -121 -40 -208.5t-107 -143t-154 -81t-181 -25.5q-115 0 -211 20t-153 55zM90 1699q0 55 32.5 89.5t114.5 34.5q74 0 107 -33.5 t33 -90.5q0 -55 -33 -87.5t-107 -32.5q-82 0 -114.5 32.5t-32.5 87.5zM478 1699q0 55 32.5 89.5t109.5 34.5q79 0 112 -33.5t33 -90.5q0 -55 -33 -87.5t-112 -32.5q-77 0 -109.5 32.5t-32.5 87.5z" />
<glyph unicode="&#x4df;" horiz-adv-x="752" d="M12 0zM13 1345q0 69 37.5 107.5t98.5 38.5q59 0 95.5 -38.5t36.5 -107.5q0 -63 -36.5 -100.5t-95.5 -37.5q-61 0 -98.5 37.5t-37.5 100.5zM30 49l51 207q41 -24 95 -37.5t116 -13.5q156 0 155 125q0 53 -39.5 83t-145.5 30h-81v189h102q57 0 93.5 34.5t36.5 83.5 q0 106 -132 106q-64 0 -112.5 -16.5t-79.5 -36.5l-57 203q55 32 144.5 54t185.5 22q305 0 305 -265q0 -79 -34.5 -147.5t-102.5 -98.5v-8q90 -26 130.5 -90t40.5 -172q0 -69 -22.5 -127.5t-69 -101t-118.5 -68t-170 -25.5q-95 0 -168.5 20t-122.5 50zM409 1345 q0 69 36 107.5t98 38.5t98 -38.5t36 -107.5q0 -63 -36 -100.5t-98 -37.5q-61 0 -97.5 37.5t-36.5 100.5z" />
<glyph unicode="&#x4e0;" horiz-adv-x="962" d="M53 49l65 238q50 -30 121.5 -50t144.5 -20q108 0 170 65t62 180q0 119 -69.5 170t-216.5 51h-141v120l267 386l83 91l-106 -26h-352v237h762v-154l-287 -412l-85 -69v-10l85 26q73 -3 134.5 -29t107 -75.5t72 -125t26.5 -180.5q0 -232 -127.5 -362t-359.5 -130 q-41 0 -89 4.5t-95.5 14t-92.5 24.5t-79 36z" />
<glyph unicode="&#x4e1;" horiz-adv-x="858" d="M17 -372l85 210q45 -28 99 -45t122 -17q104 0 169.5 64t65.5 175q0 245 -281 245h-106v108l203 384l99 102l-132 -15h-298v226h713v-143l-236 -400l-83 -62v-4l63 6q57 -4 113 -32t99.5 -80t71 -127.5t27.5 -173.5q0 -118 -34.5 -210.5t-98.5 -156.5t-154.5 -97.5 t-204.5 -33.5q-75 0 -156.5 17t-145.5 60z" />
<glyph unicode="&#x4e2;" horiz-adv-x="1164" d="M96 0v1491h268v-780l-23 -217h11l85 232l423 765h209v-1491h-268v795l22 211h-12l-81 -226l-423 -780h-211zM96 0zM284 1634v189h616v-189h-616z" />
<glyph unicode="&#x4e3;" horiz-adv-x="957" d="M92 0v1065h253v-484l-19 -166h6l77 177l288 473h170v-1065h-253v464l18 172h-6l-79 -180l-285 -456h-170zM92 0zM194 1207v195h579v-195h-579z" />
<glyph unicode="&#x4e4;" horiz-adv-x="1164" d="M96 0v1491h268v-780l-23 -217h11l85 232l423 765h209v-1491h-268v795l22 211h-12l-81 -226l-423 -780h-211zM96 0zM250 1699q0 55 32.5 89.5t114.5 34.5q74 0 107 -33.5t33 -90.5q0 -55 -33 -87.5t-107 -32.5q-82 0 -114.5 32.5t-32.5 87.5zM638 1699q0 55 32.5 89.5 t109.5 34.5q79 0 112 -33.5t33 -90.5q0 -55 -33 -87.5t-112 -32.5q-77 0 -109.5 32.5t-32.5 87.5z" />
<glyph unicode="&#x4e5;" horiz-adv-x="957" d="M92 0v1065h253v-484l-19 -166h6l77 177l288 473h170v-1065h-253v464l18 172h-6l-79 -180l-285 -456h-170zM92 0zM160 1345q0 69 37.5 107.5t98.5 38.5q59 0 95.5 -38.5t36.5 -107.5q0 -63 -36.5 -100.5t-95.5 -37.5q-61 0 -98.5 37.5t-37.5 100.5zM556 1345 q0 69 36 107.5t98 38.5t98 -38.5t36 -107.5q0 -63 -36 -100.5t-98 -37.5q-61 0 -97.5 37.5t-36.5 100.5z" />
<glyph unicode="&#x4e6;" horiz-adv-x="1177" d="M61 0zM61 746q0 379 130 576.5t397 197.5q138 0 238.5 -54t164.5 -155t94.5 -245t30.5 -320q0 -380 -133 -578t-395 -198q-141 0 -239.5 54.5t-162.5 155.5t-94.5 245t-30.5 321zM252 1699q0 55 32.5 89.5t114.5 34.5q74 0 107 -33.5t33 -90.5q0 -55 -33 -87.5 t-107 -32.5q-82 0 -114.5 32.5t-32.5 87.5zM343 746q0 -114 12.5 -210.5t42.5 -167t76 -111t114 -40.5q123 0 185 126t62 403q0 108 -13 205t-41.5 168.5t-75.5 113t-117 41.5q-245 0 -245 -528zM640 1699q0 55 32.5 89.5t109.5 34.5q79 0 112 -33.5t33 -90.5 q0 -55 -33 -87.5t-112 -32.5q-77 0 -109.5 32.5t-32.5 87.5z" />
<glyph unicode="&#x4e7;" horiz-adv-x="947" d="M53 0zM53 532q0 283 111 422t309 139q213 0 317 -141t104 -420q0 -284 -110.5 -422t-310.5 -138q-420 0 -420 560zM143 1345q0 69 37.5 107.5t98.5 38.5q59 0 95.5 -38.5t36.5 -107.5q0 -63 -36.5 -100.5t-95.5 -37.5q-61 0 -98.5 37.5t-37.5 100.5zM315 532 q0 -160 36.5 -247t121.5 -87q81 0 120 75.5t39 258.5q0 165 -35.5 250t-123.5 85q-75 0 -116.5 -75.5t-41.5 -259.5zM539 1345q0 69 36 107.5t98 38.5t98 -38.5t36 -107.5q0 -63 -36 -100.5t-98 -37.5q-61 0 -97.5 37.5t-36.5 100.5z" />
<glyph unicode="&#x4e8;" horiz-adv-x="1175" d="M61 0zM61 746q0 379 130 576.5t397 197.5q138 0 238.5 -54t164.5 -155t93.5 -245t29.5 -320q0 -380 -132 -578t-394 -198q-141 0 -239.5 54.5t-162.5 155.5t-94.5 245t-30.5 321zM343 636q6 -93 22.5 -169.5t46 -132t73 -86.5t103.5 -31q110 0 173.5 100t73.5 319h-492z M343 862h490q-6 90 -22 164.5t-46 130t-73.5 86.5t-103.5 31q-220 0 -245 -412z" />
<glyph unicode="&#x4e9;" horiz-adv-x="947" d="M53 0zM53 532q0 275 109.5 419t310.5 144q106 0 185 -39.5t132 -113t78.5 -177t25.5 -233.5q0 -276 -110.5 -419t-310.5 -143q-106 0 -185 39.5t-131.5 113t-78 176.5t-25.5 233zM315 443q6 -130 51 -188.5t107 -58.5t106.5 52.5t52.5 194.5h-317zM315 616h317 q-10 140 -50.5 196.5t-106.5 56.5q-61 0 -106.5 -54.5t-53.5 -198.5z" />
<glyph unicode="&#x4ea;" horiz-adv-x="1175" d="M61 0zM61 746q0 379 130 576.5t397 197.5q138 0 238.5 -54t164.5 -155t93.5 -245t29.5 -320q0 -380 -132 -578t-394 -198q-141 0 -239.5 54.5t-162.5 155.5t-94.5 245t-30.5 321zM252 1699q0 55 32.5 89.5t114.5 34.5q74 0 107 -33.5t33 -90.5q0 -55 -33 -87.5 t-107 -32.5q-82 0 -114.5 32.5t-32.5 87.5zM343 636q6 -93 22.5 -169.5t46 -132t73 -86.5t103.5 -31q110 0 173.5 100t73.5 319h-492zM343 862h490q-6 90 -22 164.5t-46 130t-73.5 86.5t-103.5 31q-220 0 -245 -412zM640 1699q0 55 32.5 89.5t109.5 34.5q79 0 112 -33.5 t33 -90.5q0 -55 -33 -87.5t-112 -32.5q-77 0 -109.5 32.5t-32.5 87.5z" />
<glyph unicode="&#x4eb;" horiz-adv-x="947" d="M53 0zM53 532q0 275 109.5 419t310.5 144q106 0 185 -39.5t132 -113t78.5 -177t25.5 -233.5q0 -276 -110.5 -419t-310.5 -143q-106 0 -185 39.5t-131.5 113t-78 176.5t-25.5 233zM140 1345q0 69 37.5 107.5t98.5 38.5q59 0 95.5 -38.5t36.5 -107.5q0 -63 -36.5 -100.5 t-95.5 -37.5q-61 0 -98.5 37.5t-37.5 100.5zM315 443q6 -130 51 -188.5t107 -58.5t106.5 52.5t52.5 194.5h-317zM315 616h317q-10 140 -50.5 196.5t-106.5 56.5q-61 0 -106.5 -54.5t-53.5 -198.5zM536 1345q0 69 36 107.5t98 38.5t98 -38.5t36 -107.5q0 -63 -36 -100.5 t-98 -37.5q-61 0 -97.5 37.5t-36.5 100.5z" />
<glyph unicode="&#x4ec;" horiz-adv-x="1015" d="M30 0zM30 38l70 239q42 -21 112.5 -40.5t157.5 -19.5q141 0 218 103.5t87 325.5h-451v221h449q-4 90 -22.5 164.5t-55.5 128.5t-91.5 84t-131.5 30q-91 0 -160.5 -22.5t-117.5 -52.5l-62 232q69 41 166.5 65t189.5 24q128 0 233 -41.5t179 -133t114.5 -239t40.5 -358.5 q0 -226 -47.5 -376t-129 -239.5t-189 -126t-229.5 -36.5q-104 0 -192.5 21t-137.5 47zM77 1699q0 55 32.5 89.5t114.5 34.5q74 0 107 -33.5t33 -90.5q0 -55 -33 -87.5t-107 -32.5q-82 0 -114.5 32.5t-32.5 87.5zM465 1699q0 55 32.5 89.5t109.5 34.5q79 0 112 -33.5 t33 -90.5q0 -55 -33 -87.5t-112 -32.5q-77 0 -109.5 32.5t-32.5 87.5z" />
<glyph unicode="&#x4ed;" horiz-adv-x="802" d="M17 0zM18 1345q0 69 37.5 107.5t98.5 38.5q59 0 95.5 -38.5t36.5 -107.5q0 -63 -36.5 -100.5t-95.5 -37.5q-61 0 -98.5 37.5t-37.5 100.5zM32 34l60 211q87 -46 200 -47q104 0 148 58.5t48 186.5h-307v191h307q-6 116 -48 175.5t-135 59.5q-66 0 -115.5 -14t-85.5 -38 l-68 193q116 85 318 85q195 0 295.5 -139t100.5 -424q0 -284 -110 -422t-310 -138q-79 0 -163 16t-135 46zM414 1345q0 69 36 107.5t98 38.5t98 -38.5t36 -107.5q0 -63 -36 -100.5t-98 -37.5q-61 0 -97.5 37.5t-36.5 100.5z" />
<glyph unicode="&#x4ee;" horiz-adv-x="1010" d="M-21 1491h317l228 -650l32 -198h11l27 205l168 643h277l-332 -1031q-38 -122 -72 -210t-74.5 -147.5t-91 -88.5t-122.5 -29q-57 0 -98.5 10.5t-86.5 40.5l66 226q30 -17 53.5 -22.5t48.5 -7.5q79 0 109 162zM0 0zM224 1634v189h616v-189h-616z" />
<glyph unicode="&#x4ef;" horiz-adv-x="851" d="M-21 1065h304l150 -598l27 -166h11l19 168l124 596h260l-267 -961q-36 -126 -68.5 -226t-68 -170t-81.5 -107.5t-110 -37.5q-45 0 -86.5 7.5t-70.5 24.5l42 218q28 -11 57 -10t53 21t43.5 62.5t31.5 113.5zM0 0zM145 1207v195h579v-195h-579z" />
<glyph unicode="&#x4f0;" horiz-adv-x="1010" d="M-21 1491h317l228 -650l32 -198h11l27 205l168 643h277l-332 -1031q-38 -122 -72 -210t-74.5 -147.5t-91 -88.5t-122.5 -29q-57 0 -98.5 10.5t-86.5 40.5l66 226q30 -17 53.5 -22.5t48.5 -7.5q79 0 109 162zM0 0zM205 1699q0 55 32.5 89.5t114.5 34.5q74 0 107 -33.5 t33 -90.5q0 -55 -33 -87.5t-107 -32.5q-82 0 -114.5 32.5t-32.5 87.5zM593 1699q0 55 32.5 89.5t109.5 34.5q79 0 112 -33.5t33 -90.5q0 -55 -33 -87.5t-112 -32.5q-77 0 -109.5 32.5t-32.5 87.5z" />
<glyph unicode="&#x4f1;" horiz-adv-x="851" d="M-21 1065h304l150 -598l27 -166h11l19 168l124 596h260l-267 -961q-36 -126 -68.5 -226t-68 -170t-81.5 -107.5t-110 -37.5q-45 0 -86.5 7.5t-70.5 24.5l42 218q28 -11 57 -10t53 21t43.5 62.5t31.5 113.5zM0 0zM113 1345q0 69 37.5 107.5t98.5 38.5q59 0 95.5 -38.5 t36.5 -107.5q0 -63 -36.5 -100.5t-95.5 -37.5q-61 0 -98.5 37.5t-37.5 100.5zM509 1345q0 69 36 107.5t98 38.5t98 -38.5t36 -107.5q0 -63 -36 -100.5t-98 -37.5q-61 0 -97.5 37.5t-36.5 100.5z" />
<glyph unicode="&#x4f2;" horiz-adv-x="1010" d="M-21 1491h317l228 -650l32 -198h11l27 205l168 643h277l-332 -1031q-38 -122 -72 -210t-74.5 -147.5t-91 -88.5t-122.5 -29q-57 0 -98.5 10.5t-86.5 40.5l66 226q30 -17 53.5 -22.5t48.5 -7.5q79 0 109 162zM0 0zM243 1579l102 232h256v-35l-175 -197h-183zM543 1579 l168 232h266v-35l-250 -197h-184z" />
<glyph unicode="&#x4f3;" horiz-adv-x="851" d="M-21 1065h304l150 -598l27 -166h11l19 168l124 596h260l-267 -961q-36 -126 -68.5 -226t-68 -170t-81.5 -107.5t-110 -37.5q-45 0 -86.5 7.5t-70.5 24.5l42 218q28 -11 57 -10t53 21t43.5 62.5t31.5 113.5zM0 0zM213 1216l61 275h230v-34l-136 -241h-155zM475 1216 l128 275h242v-34l-211 -241h-159z" />
<glyph unicode="&#x4f4;" horiz-adv-x="1071" d="M73 0zM73 914v577h268v-489q0 -133 38 -189.5t125 -56.5q62 0 116.5 19.5t86.5 55.5v660h269v-1491h-269v601q-42 -30 -117.5 -56.5t-178.5 -26.5q-71 0 -132.5 20t-107 66t-72 121.5t-26.5 188.5zM197 1699q0 55 32.5 89.5t114.5 34.5q74 0 107 -33.5t33 -90.5 q0 -55 -33 -87.5t-107 -32.5q-82 0 -114.5 32.5t-32.5 87.5zM585 1699q0 55 32.5 89.5t109.5 34.5q79 0 112 -33.5t33 -90.5q0 -55 -33 -87.5t-112 -32.5q-77 0 -109.5 32.5t-32.5 87.5z" />
<glyph unicode="&#x4f5;" horiz-adv-x="892" d="M51 0zM51 685v380h254v-285q0 -113 20 -163t88 -50q47 0 80 13.5t54 31.5v453h254v-1065h-254v413q-26 -21 -79 -46.5t-142 -25.5q-64 0 -115 15.5t-86.5 56t-54.5 107t-19 165.5zM98 1345q0 69 37.5 107.5t98.5 38.5q59 0 95.5 -38.5t36.5 -107.5q0 -63 -36.5 -100.5 t-95.5 -37.5q-61 0 -98.5 37.5t-37.5 100.5zM494 1345q0 69 36 107.5t98 38.5t98 -38.5t36 -107.5q0 -63 -36 -100.5t-98 -37.5q-61 0 -97.5 37.5t-36.5 100.5z" />
<glyph unicode="&#x4f6;" horiz-adv-x="811" d="M96 0v1491h731v-247h-463v-996h162v-514h-189l-26 266h-215z" />
<glyph unicode="&#x4f7;" horiz-adv-x="659" d="M92 0v1065h577v-232h-324v-601h159v-474h-187l-27 242h-198z" />
<glyph unicode="&#x4f8;" horiz-adv-x="1422" d="M96 0zM96 12v1479h268v-534q19 4 64 10t88 6q89 0 166.5 -20t135.5 -73t91.5 -146t33.5 -236q0 -262 -119 -390.5t-383 -128.5q-26 0 -66 1t-88.5 4.5t-98.5 10.5t-92 17zM364 238q17 -6 43 -9t53 -3q95 0 148.5 58.5t53.5 201.5q0 72 -15 119t-40.5 74.5t-63 37 t-81.5 9.5q-21 0 -53.5 -6.5t-44.5 -12.5v-469zM368 1699q0 55 32.5 89.5t114.5 34.5q74 0 107 -33.5t33 -90.5q0 -55 -33 -87.5t-107 -32.5q-82 0 -114.5 32.5t-32.5 87.5zM756 1699q0 55 32.5 89.5t109.5 34.5q79 0 112 -33.5t33 -90.5q0 -55 -33 -87.5t-112 -32.5 q-77 0 -109.5 32.5t-32.5 87.5zM1059 0v1491h268v-1491h-268z" />
<glyph unicode="&#x4f9;" horiz-adv-x="1258" d="M92 0v1065h253v-380q43 9 87.5 12.5t81.5 3.5q87 0 146.5 -24.5t95.5 -69t52.5 -105.5t16.5 -132q0 -95 -21.5 -167.5t-71 -120.5t-128 -72.5t-195.5 -24.5q-102 0 -180 4.5t-137 10.5zM92 0zM281 1345q0 69 37.5 107.5t98.5 38.5q59 0 95.5 -38.5t36.5 -107.5 q0 -63 -36.5 -100.5t-95.5 -37.5q-61 0 -98.5 37.5t-37.5 100.5zM345 224q45 -13 92 -13q68 0 97 35t29 116q0 75 -28.5 111t-95.5 36q-49 0 -94 -13v-272zM677 1345q0 69 36 107.5t98 38.5t98 -38.5t36 -107.5q0 -63 -36 -100.5t-98 -37.5q-61 0 -97.5 37.5t-36.5 100.5z M916 0v1065h253v-1065h-253z" />
<glyph unicode="&#x4fc;" horiz-adv-x="1118" d="M12 0l364 758l-327 733h321l173 -426l40 -162l39 162l181 426h290l-341 -718l217 -454q43 -83 67.5 -179.5t24.5 -188.5q0 -191 -76 -291.5t-229 -100.5q-61 0 -124 15v225q47 -4 77 7t46 32.5t22.5 51t6.5 63.5q0 73 -24.5 142t-48.5 118l-113 245l-49 166l-40 -166 l-200 -458h-297z" />
<glyph unicode="&#x4fd;" horiz-adv-x="932" d="M8 0l275 545l-253 520h302l103 -228l44 -164l47 164l108 228h278l-256 -512l147 -281q36 -68 61.5 -157t25.5 -168q0 -187 -70 -286.5t-219 -99.5q-61 0 -124 15v217q92 -10 125.5 29.5t33.5 108.5q0 58 -20 115.5t-43 100.5l-57 109l-54 161l-51 -159l-126 -258h-277z " />
<glyph unicode="&#x510;" horiz-adv-x="941" d="M61 417q0 156 61 247.5t170 121.5v13q-98 44 -145 139t-47 206q0 104 35.5 175t93.5 115t136 63t163 19q55 0 107.5 -7t98.5 -20t82 -27.5t58 -28.5l-69 -223q-43 23 -106 41.5t-126 18.5q-94 0 -142.5 -40.5t-48.5 -134.5q0 -85 44.5 -132t101.5 -62q28 -11 73 -15 t76 -4h47v-215h-47h-37.5t-30.5 -2q-148 -5 -207 -63.5t-59 -160.5q0 -110 62 -167t160 -57q83 0 154 24.5t110 45.5l72 -216q-51 -37 -152 -69t-223 -32q-217 0 -341 107.5t-124 339.5z" />
<glyph unicode="&#x511;" horiz-adv-x="756" d="M53 298q0 109 41.5 170.5t129.5 92.5v8q-71 30 -105 98t-34 142q0 136 83.5 205.5t223.5 69.5q110 0 191.5 -20t136.5 -52l-55 -205q-37 19 -86 35t-110 16q-128 0 -128 -112q0 -49 36 -81.5t94 -32.5h102v-185h-83q-106 0 -144.5 -30.5t-38.5 -86.5q0 -55 38.5 -91 t112.5 -36q65 0 119.5 14.5t91.5 38.5l51 -207q-45 -30 -118.5 -51.5t-173.5 -21.5q-97 0 -168 24t-116.5 67t-68 102t-22.5 129z" />
<glyph unicode="&#x512;" horiz-adv-x="1113" d="M-26 17l38 241q37 -13 75.5 -3.5t72.5 71.5q26 46 45 136.5t33 233.5t21 339t11 456h748v-1554q0 -377 -285 -378q-53 0 -117 13v225q44 -4 70.5 7t41 36.5t18.5 65t4 94.5v1244h-230q-6 -203 -16 -371t-25 -303t-39.5 -239.5t-59.5 -177.5q-26 -51 -57 -84t-65 -51 t-67 -25.5t-61 -7.5q-45 0 -85.5 8.5t-70.5 23.5z" />
<glyph unicode="&#x513;" horiz-adv-x="921" d="M-32 19l30 221q51 -16 86.5 3t58.5 105.5t36.5 256.5t21.5 460h630v-1065v-66q0 -178 -66 -275.5t-214 -97.5q-28 0 -58.5 3t-64.5 12v219q92 -8 119 45q28 47 30 160v833h-153q-8 -185 -23 -340.5t-47.5 -267.5t-86.5 -174.5t-141 -62.5q-53 0 -91.5 7t-66.5 24z" />
<glyph unicode="&#x51c;" horiz-adv-x="1526" d="M-4 1491h296l145 -820l21 -269h9l23 273l201 816h187l193 -820l24 -269h8l23 273l132 816h274l-335 -1501h-189l-209 821l-28 233h-11l-25 -235l-209 -819h-198z" />
<glyph unicode="&#x51d;" horiz-adv-x="1268" d="M-15 1065h275l114 -535l20 -189h8l29 191l130 533h189l149 -545l26 -177h8l22 179l100 543h229l-262 -1075h-199l-161 593l-16 137h-14l-14 -141l-154 -589h-206z" />
<glyph unicode="&#x524;" horiz-adv-x="1205" d="M96 0v1491h924v-1243h155v-514h-189l-25 266h-209v1244h-388v-1244h-268z" />
<glyph unicode="&#x525;" horiz-adv-x="1010" d="M92 0v1065h754v-833h142v-474h-187l-28 242h-181v833h-247v-833h-253z" />
<glyph unicode="&#x526;" horiz-adv-x="1179" d="M96 0v1491h268v-601q45 30 122 58t183 28q75 0 136.5 -21.5t105.5 -70.5t67.5 -127t23.5 -190v-319h154v-514h-189l-26 266h-208v484q0 128 -36.5 190.5t-127.5 62.5q-61 0 -116 -19t-89 -53v-665h-268z" />
<glyph unicode="&#x527;" horiz-adv-x="1034" d="M92 0v1491h253v-522h7q42 55 103 89.5t152 34.5q66 0 115 -19t83 -64t51.5 -121t17.5 -190v-467h136v-474h-187l-28 242h-175v643q0 115 -26.5 166t-97.5 51q-51 0 -93.5 -36t-57.5 -91v-733h-253zM92 0z" />
<glyph unicode="&#x1e30;" horiz-adv-x="1104" d="M96 0v1491h268v-662l53 25l313 637h303l-340 -629l-101 -78l103 -81l394 -703h-329l-338 639h-58v-639h-268zM96 0zM380 1602l175 251h304v-64l-281 -187h-198z" />
<glyph unicode="&#x1e31;" horiz-adv-x="876" d="M92 0v1491h253v-879l51 29l177 424h275l-196 -422l-91 -72l99 -73l218 -498h-286l-187 441h-60v-441h-253zM92 0zM447 1205l89 329h254v-64l-201 -265h-142z" />
<glyph unicode="&#x1e3e;" horiz-adv-x="1413" d="M96 0v1491h258l311 -645l51 -186h8l49 190l292 641h254v-1491h-269v769l30 286h-11l-79 -256l-242 -524h-90l-258 526l-79 258h-12l40 -288v-771h-253zM96 0zM565 1602l175 251h304v-64l-281 -187h-198z" />
<glyph unicode="&#x1e3f;" horiz-adv-x="1411" d="M92 0v1065h195l32 -128h7q40 66 101 110t161 44q83 0 135 -36.5t82 -127.5q41 77 107 120.5t155 43.5q71 0 121 -18t80.5 -63t45.5 -123t15 -196v-691h-254v648q0 108 -19 159t-85 51q-53 0 -86 -30.5t-48 -83.5v-744h-254v620q0 134 -21 186t-83 52q-51 0 -84 -33 t-50 -79v-746h-253zM92 0zM612 1205l89 329h254v-64l-201 -265h-142z" />
<glyph unicode="&#x1e54;" horiz-adv-x="1015" d="M96 0v1476q77 16 168.5 26t182.5 10q98 0 193 -18t169.5 -71t121.5 -150.5t47 -252.5q0 -140 -39.5 -238.5t-106 -159.5t-152.5 -89.5t-178 -28.5h-27t-40.5 1t-42 4t-28.5 5v-514h-268zM96 0zM333 1602l175 251h304v-64l-281 -187h-198zM364 754q12 -4 47.5 -7t48.5 -3 q46 0 89 12.5t76 43.5t52.5 85t19.5 137q0 71 -18.5 120t-49.5 77.5t-71 41.5t-85 13q-65 0 -109 -11v-509z" />
<glyph unicode="&#x1e55;" horiz-adv-x="951" d="M92 0zM92 -426v1491h189l26 -122h6q49 77 110 112.5t150 35.5q162 0 244 -122.5t82 -407.5t-102 -438t-297 -153q-51 0 -87.5 9t-67.5 27v-432h-253zM345 238q21 -21 47.5 -31.5t69.5 -10.5q85 0 129.5 84t44.5 287q0 151 -33.5 224t-112.5 73q-106 0 -145 -125v-501z M362 1205l89 329h254v-64l-201 -265h-142z" />
<glyph unicode="&#x1e9e;" horiz-adv-x="1201" d="M96 0v1057q0 234 106.5 347.5t340.5 113.5q179 0 299.5 -53t216.5 -136l-226 -398l-64 -62v-11l64 16q136 -11 219.5 -113.5t83.5 -298.5q0 -230 -109 -361t-324 -131q-26 0 -64 4.5t-75.5 13t-70.5 19t-48 21.5l49 228q34 -19 87 -30t94 -11q87 0 133 63t46 173 q0 122 -62 179.5t-196 57.5h-80v164l221 381q-32 31 -83 46.5t-111 15.5q-57 0 -92.5 -21.5t-55 -63t-25.5 -100t-6 -132.5v-978h-268z" />
<glyph unicode="&#x2000;" horiz-adv-x="1082" />
<glyph unicode="&#x2001;" horiz-adv-x="2165" />
<glyph unicode="&#x2002;" horiz-adv-x="1082" />
<glyph unicode="&#x2003;" horiz-adv-x="2165" />
<glyph unicode="&#x2004;" horiz-adv-x="721" />
<glyph unicode="&#x2005;" horiz-adv-x="541" />
<glyph unicode="&#x2006;" horiz-adv-x="360" />
<glyph unicode="&#x2007;" horiz-adv-x="360" />
<glyph unicode="&#x2008;" horiz-adv-x="270" />
<glyph unicode="&#x2009;" horiz-adv-x="433" />
<glyph unicode="&#x200a;" horiz-adv-x="120" />
<glyph unicode="&#x2010;" horiz-adv-x="634" d="M96 490v243h443v-243h-443z" />
<glyph unicode="&#x2011;" horiz-adv-x="634" d="M96 490v243h443v-243h-443zM96 490z" />
<glyph unicode="&#x2012;" horiz-adv-x="634" d="M96 490v243h443v-243h-443z" />
<glyph unicode="&#x2013;" horiz-adv-x="1156" d="M185 498v232h784v-232h-784z" />
<glyph unicode="&#x2014;" horiz-adv-x="1439" d="M187 498v232h1063v-232h-1063z" />
<glyph unicode="&#x2018;" horiz-adv-x="404" d="M61 1361q0 84 23.5 143t58 99.5t70 64t59.5 33.5l69 -108q-36 -18 -64.5 -56.5t-34.5 -83.5q37 -4 67 -39.5t30 -96.5q0 -62 -37.5 -99.5t-92.5 -37.5q-69 0 -108.5 50t-39.5 131z" />
<glyph unicode="&#x2019;" horiz-adv-x="400" d="M61 1372q0 61 37.5 99.5t92.5 38.5q69 0 108.5 -48t39.5 -133q0 -83 -23.5 -141t-56.5 -97t-69.5 -62t-61.5 -35l-65 107q37 17 65 51.5t32 83.5q-36 2 -67.5 34.5t-31.5 101.5z" />
<glyph unicode="&#x201a;" horiz-adv-x="400" d="M61 0zM61 132q0 61 37.5 99.5t92.5 38.5q69 0 108.5 -48t39.5 -133q0 -83 -23.5 -141t-56.5 -97t-69.5 -62t-61.5 -35l-65 107q37 17 65 51.5t32 83.5q-36 2 -67.5 34.5t-31.5 101.5z" />
<glyph unicode="&#x201c;" horiz-adv-x="730" d="M61 1180zM61 1361q0 84 23.5 143t58 99.5t70 64t59.5 33.5l69 -108q-36 -18 -64.5 -56.5t-34.5 -83.5q37 -4 67 -39.5t30 -96.5q0 -62 -37.5 -99.5t-92.5 -37.5q-69 0 -108.5 50t-39.5 131zM387 1361q0 84 23.5 143t58 99.5t70 64t59.5 33.5l69 -108q-36 -18 -64.5 -56.5 t-34.5 -83.5q37 -4 67 -39.5t30 -96.5q0 -62 -37.5 -99.5t-92.5 -37.5q-69 0 -108.5 50t-39.5 131z" />
<glyph unicode="&#x201d;" horiz-adv-x="725" d="M61 994zM61 1372q0 61 37.5 99.5t92.5 38.5q69 0 108.5 -48t39.5 -133q0 -83 -23.5 -141t-56.5 -97t-69.5 -62t-61.5 -35l-65 107q37 17 65 51.5t32 83.5q-36 2 -67.5 34.5t-31.5 101.5zM387 1372q0 61 37.5 99.5t92.5 38.5q69 0 108.5 -48t39.5 -133q0 -83 -23.5 -141 t-56.5 -97t-69.5 -62t-61.5 -35l-65 107q37 17 65 51.5t32 83.5q-36 2 -67.5 34.5t-31.5 101.5z" />
<glyph unicode="&#x201e;" horiz-adv-x="725" d="M61 0zM61 132q0 61 37.5 99.5t92.5 38.5q69 0 108.5 -48t39.5 -133q0 -83 -23.5 -141t-56.5 -97t-69.5 -62t-61.5 -35l-65 107q37 17 65 51.5t32 83.5q-36 2 -67.5 34.5t-31.5 101.5zM387 132q0 61 37.5 99.5t92.5 38.5q69 0 108.5 -48t39.5 -133q0 -83 -23.5 -141 t-56.5 -97t-69.5 -62t-61.5 -35l-65 107q37 17 65 51.5t32 83.5q-36 2 -67.5 34.5t-31.5 101.5z" />
<glyph unicode="&#x2020;" horiz-adv-x="902" d="M71 862v222h195l94 -32l-30 113v326h243v-326l-30 -113l93 32h197v-222h-199l-91 32l30 -104v-790l-30 -426h-183l-30 428v788l30 104l-94 -32h-195z" />
<glyph unicode="&#x2021;" horiz-adv-x="902" d="M71 317v222h195l94 -33l-30 97v196l30 95l-94 -32h-195v222h195l94 -32l-30 107v332h243v-332l-30 -107l93 32h197v-222h-199l-91 32l30 -95v-196l-30 -97l91 33h199v-222h-197l-93 32l30 -107v-242l-32 -426h-179l-32 428v240l30 107l-94 -32h-195z" />
<glyph unicode="&#x2022;" horiz-adv-x="791" d="M122 662q0 73 20 133.5t56 103t86.5 66t109.5 23.5q122 0 199.5 -84t77.5 -242q0 -156 -77.5 -239.5t-199.5 -83.5q-119 0 -195.5 83.5t-76.5 239.5z" />
<glyph unicode="&#x2026;" horiz-adv-x="1535" d="M96 138q0 79 41.5 119.5t110.5 40.5q74 0 114 -40.5t40 -119.5q0 -77 -41.5 -119.5t-112.5 -42.5t-111.5 42.5t-40.5 119.5zM622 138q0 79 41.5 119.5t109.5 40.5q75 0 115.5 -40.5t40.5 -119.5q0 -77 -41.5 -119.5t-114.5 -42.5q-71 0 -111 42.5t-40 119.5zM1146 138 q0 79 41.5 119.5t109.5 40.5q75 0 115.5 -40.5t40.5 -119.5q0 -77 -41.5 -119.5t-114.5 -42.5q-71 0 -111 42.5t-40 119.5z" />
<glyph unicode="&#x202f;" horiz-adv-x="433" />
<glyph unicode="&#x2030;" horiz-adv-x="2244" d="M87 0zM87 1154q0 98 23.5 166t66 112t101.5 64t128 20q71 0 130 -18t101.5 -60.5t67 -112t24.5 -171.5t-24.5 -171t-67 -111.5t-101.5 -61t-130 -18.5q-70 0 -128.5 18.5t-101 61t-66 111.5t-23.5 171zM171 96l1054 1424l149 -123l-1052 -1427zM313 1154 q0 -102 22 -143.5t71 -41.5q26 0 44.5 7.5t30 28.5t17 57.5t5.5 91.5q0 109 -23.5 147.5t-73.5 38.5q-49 0 -71 -38.5t-22 -147.5zM824 364q0 98 23.5 166t66 112t101.5 64t128 20q71 0 130 -18t101.5 -60.5t67 -112t24.5 -171.5t-24.5 -171t-67 -111.5t-101.5 -61 t-130 -18.5q-70 0 -128.5 18.5t-101 61t-66 111.5t-23.5 171zM1050 364q0 -102 22 -143.5t71 -41.5q26 0 44.5 7.5t30 28.5t17 57.5t5.5 91.5q0 109 -23.5 147.5t-73.5 38.5q-49 0 -71 -38.5t-22 -147.5zM1527 364q0 98 23.5 166t66 112t101.5 64t128 20q71 0 130 -18 t101.5 -60.5t67 -112t24.5 -171.5t-24.5 -171t-67 -111.5t-101.5 -61t-130 -18.5q-70 0 -128.5 18.5t-101 61t-66 111.5t-23.5 171zM1753 364q0 -102 22 -143.5t71 -41.5q26 0 44.5 7.5t30 28.5t17 57.5t5.5 91.5q0 109 -23.5 147.5t-73.5 38.5q-49 0 -71 -38.5t-22 -147.5z " />
<glyph unicode="&#x2039;" horiz-adv-x="544" d="M47 551l279 490l156 -100l-156 -300l-84 -88l84 -76l170 -288l-159 -108z" />
<glyph unicode="&#x203a;" horiz-adv-x="547" d="M49 935l162 106l289 -470l-278 -490l-159 102l156 299l86 87l-86 77z" />
<glyph unicode="&#x2044;" horiz-adv-x="327" d="M-287 57l732 1466l173 -84l-728 -1469z" />
<glyph unicode="&#x205f;" horiz-adv-x="541" />
<glyph unicode="&#x2081;" horiz-adv-x="760" d="M79 458l279 239h174v-707h149v-203h-541v203h167v357l19 98l-56 -69l-97 -65z" />
<glyph unicode="&#x2082;" horiz-adv-x="760" d="M100 -71q49 39 105.5 93.5t104.5 115t78.5 123t30.5 123.5q0 108 -98 108q-46 0 -87 -14t-70 -33l-64 177q61 43 134 59t134 16q128 0 200.5 -67t72.5 -195q0 -64 -16 -120.5t-41.5 -106.5t-59.5 -94.5t-71 -85.5l-83 -54v-8l105 24h190v-203h-565v142z" />
<glyph unicode="&#x2083;" horiz-adv-x="760" d="M108 -177l45 183q79 -40 158 -40q77 0 107.5 32t30.5 83q0 49 -32.5 77.5t-118.5 28.5h-83v81l128 173l81 59l-107 -12h-197v193h510v-128l-148 -199l-65 -41v-8l58 6q90 -4 142 -67t52 -178q0 -77 -26.5 -132.5t-71.5 -91t-102.5 -53t-121.5 -17.5q-70 0 -132 13.5 t-107 37.5z" />
<glyph unicode="&#x2084;" horiz-adv-x="760" d="M43 -43v137l376 599h190v-553h130v-183h-130v-170h-202v170h-364zM226 126l91 14h90v179l15 118h-11l-39 -109l-80 -139z" />
<glyph unicode="&#x20ac;" d="M6 498l63 195h84v53v69h-147l63 195h106q8 49 23 93q44 149 120 241.5t173 134t204 41.5q89 0 158 -14.5t118 -33.5l-68 -214q-75 35 -202 35q-140 0 -224 -130q-38 -60 -60 -153h443l-49 -195h-417v-69v-53h381l-49 -195h-311q19 -93 58 -159q79 -138 247 -138 q134 0 219 55l51 -205q-55 -41 -141.5 -60t-165.5 -19q-117 0 -214 44.5t-167 140t-111 239.5q-12 49 -20 102h-165z" />
<glyph unicode="&#x20b4;" d="M87 490v193h809v-193h-432q-26 -34 -45 -83t-19 -94q0 -55 37.5 -90.5t127.5 -35.5q91 0 144 17.5t92 40.5l57 -196q-43 -30 -124.5 -53.5t-229.5 -23.5q-166 0 -257 76t-91 224q0 73 23.5 132.5t37.5 85.5h-130zM87 807v195h435q26 34 45 81t19 97q0 60 -32 92.5 t-103 32.5q-61 0 -111 -14.5t-92 -40.5l-75 197q32 16 61.5 30t68 23.5t87.5 14.5t119 5q156 0 239 -70t83 -214q0 -69 -24.5 -132t-50.5 -102h140v-195h-809z" />
<glyph unicode="&#x20b6;" d="M43 266v194h142v121h-142v192h142v703q75 16 154.5 26t172.5 10q95 0 180.5 -19t149 -70t102 -140.5t38.5 -230.5q0 -130 -37.5 -219t-99 -146t-141.5 -81.5t-167 -24.5h-109v-121h279v-194h-279v-266h-243v266h-142zM428 778h84q44 -2 83 10.5t68.5 43t46 82t16.5 125.5 q0 132 -53 189.5t-134 57.5q-37 0 -65.5 -2t-45.5 -8v-498z" />
<glyph unicode="&#x20b7;" d="M43 0zM43 266v194h142v121h-142v192h142v703q75 16 154.5 26t172.5 10q95 0 180.5 -19t149 -70t102 -140.5t38.5 -230.5q0 -130 -37.5 -219t-99 -146t-141.5 -81.5t-167 -24.5h-109v-121h279v-194h-279v-266h-243v266h-142zM428 778h84q44 -2 83 10.5t68.5 43t46 82 t16.5 125.5q0 132 -53 189.5t-134 57.5q-37 0 -65.5 -2t-45.5 -8v-498z" />
<glyph unicode="&#x20b9;" d="M43 0zM43 266v194h142v121h-142v192h142v703q75 16 154.5 26t172.5 10q95 0 180.5 -19t149 -70t102 -140.5t38.5 -230.5q0 -130 -37.5 -219t-99 -146t-141.5 -81.5t-167 -24.5h-109v-121h279v-194h-279v-266h-243v266h-142zM428 778h84q44 -2 83 10.5t68.5 43t46 82 t16.5 125.5q0 132 -53 189.5t-134 57.5q-37 0 -65.5 -2t-45.5 -8v-498z" />
<glyph unicode="&#x20ba;" d="M43 0zM43 266v194h142v121h-142v192h142v703q75 16 154.5 26t172.5 10q95 0 180.5 -19t149 -70t102 -140.5t38.5 -230.5q0 -130 -37.5 -219t-99 -146t-141.5 -81.5t-167 -24.5h-109v-121h279v-194h-279v-266h-243v266h-142zM428 778h84q44 -2 83 10.5t68.5 43t46 82 t16.5 125.5q0 132 -53 189.5t-134 57.5q-37 0 -65.5 -2t-45.5 -8v-498z" />
<glyph unicode="&#x20bb;" d="M43 0zM43 266v194h142v121h-142v192h142v703q75 16 154.5 26t172.5 10q95 0 180.5 -19t149 -70t102 -140.5t38.5 -230.5q0 -130 -37.5 -219t-99 -146t-141.5 -81.5t-167 -24.5h-109v-121h279v-194h-279v-266h-243v266h-142zM428 778h84q44 -2 83 10.5t68.5 43t46 82 t16.5 125.5q0 132 -53 189.5t-134 57.5q-37 0 -65.5 -2t-45.5 -8v-498z" />
<glyph unicode="&#x20bc;" d="M43 0zM43 266v194h142v121h-142v192h142v703q75 16 154.5 26t172.5 10q95 0 180.5 -19t149 -70t102 -140.5t38.5 -230.5q0 -130 -37.5 -219t-99 -146t-141.5 -81.5t-167 -24.5h-109v-121h279v-194h-279v-266h-243v266h-142zM428 778h84q44 -2 83 10.5t68.5 43t46 82 t16.5 125.5q0 132 -53 189.5t-134 57.5q-37 0 -65.5 -2t-45.5 -8v-498z" />
<glyph unicode="&#x20bd;" d="M43 0zM43 266v194h142v121h-142v192h142v703q75 16 154.5 26t172.5 10q95 0 180.5 -19t149 -70t102 -140.5t38.5 -230.5q0 -130 -37.5 -219t-99 -146t-141.5 -81.5t-167 -24.5h-109v-121h279v-194h-279v-266h-243v266h-142zM428 778h84q44 -2 83 10.5t68.5 43t46 82 t16.5 125.5q0 132 -53 189.5t-134 57.5q-37 0 -65.5 -2t-45.5 -8v-498z" />
<glyph unicode="&#x20be;" d="M43 0zM43 266v194h142v121h-142v192h142v703q75 16 154.5 26t172.5 10q95 0 180.5 -19t149 -70t102 -140.5t38.5 -230.5q0 -130 -37.5 -219t-99 -146t-141.5 -81.5t-167 -24.5h-109v-121h279v-194h-279v-266h-243v266h-142zM428 778h84q44 -2 83 10.5t68.5 43t46 82 t16.5 125.5q0 132 -53 189.5t-134 57.5q-37 0 -65.5 -2t-45.5 -8v-498z" />
<glyph unicode="&#x20bf;" d="M43 0zM43 266v194h142v121h-142v192h142v703q75 16 154.5 26t172.5 10q95 0 180.5 -19t149 -70t102 -140.5t38.5 -230.5q0 -130 -37.5 -219t-99 -146t-141.5 -81.5t-167 -24.5h-109v-121h279v-194h-279v-266h-243v266h-142zM428 778h84q44 -2 83 10.5t68.5 43t46 82 t16.5 125.5q0 132 -53 189.5t-134 57.5q-37 0 -65.5 -2t-45.5 -8v-498z" />
<glyph unicode="&#x20c0;" d="M43 0zM43 266v194h142v121h-142v192h142v703q75 16 154.5 26t172.5 10q95 0 180.5 -19t149 -70t102 -140.5t38.5 -230.5q0 -130 -37.5 -219t-99 -146t-141.5 -81.5t-167 -24.5h-109v-121h279v-194h-279v-266h-243v266h-142zM428 778h84q44 -2 83 10.5t68.5 43t46 82 t16.5 125.5q0 132 -53 189.5t-134 57.5q-37 0 -65.5 -2t-45.5 -8v-498z" />
<glyph unicode="&#x20c1;" d="M43 0zM43 266v194h142v121h-142v192h142v703q75 16 154.5 26t172.5 10q95 0 180.5 -19t149 -70t102 -140.5t38.5 -230.5q0 -130 -37.5 -219t-99 -146t-141.5 -81.5t-167 -24.5h-109v-121h279v-194h-279v-266h-243v266h-142zM428 778h84q44 -2 83 10.5t68.5 43t46 82 t16.5 125.5q0 132 -53 189.5t-134 57.5q-37 0 -65.5 -2t-45.5 -8v-498z" />
<glyph unicode="&#x20c2;" d="M43 0zM43 266v194h142v121h-142v192h142v703q75 16 154.5 26t172.5 10q95 0 180.5 -19t149 -70t102 -140.5t38.5 -230.5q0 -130 -37.5 -219t-99 -146t-141.5 -81.5t-167 -24.5h-109v-121h279v-194h-279v-266h-243v266h-142zM428 778h84q44 -2 83 10.5t68.5 43t46 82 t16.5 125.5q0 132 -53 189.5t-134 57.5q-37 0 -65.5 -2t-45.5 -8v-498z" />
<glyph unicode="&#x20c3;" d="M43 0zM43 266v194h142v121h-142v192h142v703q75 16 154.5 26t172.5 10q95 0 180.5 -19t149 -70t102 -140.5t38.5 -230.5q0 -130 -37.5 -219t-99 -146t-141.5 -81.5t-167 -24.5h-109v-121h279v-194h-279v-266h-243v266h-142zM428 778h84q44 -2 83 10.5t68.5 43t46 82 t16.5 125.5q0 132 -53 189.5t-134 57.5q-37 0 -65.5 -2t-45.5 -8v-498z" />
<glyph unicode="&#x20c4;" d="M43 0zM43 266v194h142v121h-142v192h142v703q75 16 154.5 26t172.5 10q95 0 180.5 -19t149 -70t102 -140.5t38.5 -230.5q0 -130 -37.5 -219t-99 -146t-141.5 -81.5t-167 -24.5h-109v-121h279v-194h-279v-266h-243v266h-142zM428 778h84q44 -2 83 10.5t68.5 43t46 82 t16.5 125.5q0 132 -53 189.5t-134 57.5q-37 0 -65.5 -2t-45.5 -8v-498z" />
<glyph unicode="&#x20c5;" d="M43 0zM43 266v194h142v121h-142v192h142v703q75 16 154.5 26t172.5 10q95 0 180.5 -19t149 -70t102 -140.5t38.5 -230.5q0 -130 -37.5 -219t-99 -146t-141.5 -81.5t-167 -24.5h-109v-121h279v-194h-279v-266h-243v266h-142zM428 778h84q44 -2 83 10.5t68.5 43t46 82 t16.5 125.5q0 132 -53 189.5t-134 57.5q-37 0 -65.5 -2t-45.5 -8v-498z" />
<glyph unicode="&#x20c6;" d="M43 0zM43 266v194h142v121h-142v192h142v703q75 16 154.5 26t172.5 10q95 0 180.5 -19t149 -70t102 -140.5t38.5 -230.5q0 -130 -37.5 -219t-99 -146t-141.5 -81.5t-167 -24.5h-109v-121h279v-194h-279v-266h-243v266h-142zM428 778h84q44 -2 83 10.5t68.5 43t46 82 t16.5 125.5q0 132 -53 189.5t-134 57.5q-37 0 -65.5 -2t-45.5 -8v-498z" />
<glyph unicode="&#x20c7;" d="M43 0zM43 266v194h142v121h-142v192h142v703q75 16 154.5 26t172.5 10q95 0 180.5 -19t149 -70t102 -140.5t38.5 -230.5q0 -130 -37.5 -219t-99 -146t-141.5 -81.5t-167 -24.5h-109v-121h279v-194h-279v-266h-243v266h-142zM428 778h84q44 -2 83 10.5t68.5 43t46 82 t16.5 125.5q0 132 -53 189.5t-134 57.5q-37 0 -65.5 -2t-45.5 -8v-498z" />
<glyph unicode="&#x20c8;" d="M43 0zM43 266v194h142v121h-142v192h142v703q75 16 154.5 26t172.5 10q95 0 180.5 -19t149 -70t102 -140.5t38.5 -230.5q0 -130 -37.5 -219t-99 -146t-141.5 -81.5t-167 -24.5h-109v-121h279v-194h-279v-266h-243v266h-142zM428 778h84q44 -2 83 10.5t68.5 43t46 82 t16.5 125.5q0 132 -53 189.5t-134 57.5q-37 0 -65.5 -2t-45.5 -8v-498z" />
<glyph unicode="&#x20c9;" d="M43 0zM43 266v194h142v121h-142v192h142v703q75 16 154.5 26t172.5 10q95 0 180.5 -19t149 -70t102 -140.5t38.5 -230.5q0 -130 -37.5 -219t-99 -146t-141.5 -81.5t-167 -24.5h-109v-121h279v-194h-279v-266h-243v266h-142zM428 778h84q44 -2 83 10.5t68.5 43t46 82 t16.5 125.5q0 132 -53 189.5t-134 57.5q-37 0 -65.5 -2t-45.5 -8v-498z" />
<glyph unicode="&#x20ca;" d="M43 0zM43 266v194h142v121h-142v192h142v703q75 16 154.5 26t172.5 10q95 0 180.5 -19t149 -70t102 -140.5t38.5 -230.5q0 -130 -37.5 -219t-99 -146t-141.5 -81.5t-167 -24.5h-109v-121h279v-194h-279v-266h-243v266h-142zM428 778h84q44 -2 83 10.5t68.5 43t46 82 t16.5 125.5q0 132 -53 189.5t-134 57.5q-37 0 -65.5 -2t-45.5 -8v-498z" />
<glyph unicode="&#x20cb;" d="M43 0zM43 266v194h142v121h-142v192h142v703q75 16 154.5 26t172.5 10q95 0 180.5 -19t149 -70t102 -140.5t38.5 -230.5q0 -130 -37.5 -219t-99 -146t-141.5 -81.5t-167 -24.5h-109v-121h279v-194h-279v-266h-243v266h-142zM428 778h84q44 -2 83 10.5t68.5 43t46 82 t16.5 125.5q0 132 -53 189.5t-134 57.5q-37 0 -65.5 -2t-45.5 -8v-498z" />
<glyph unicode="&#x20cc;" d="M43 0zM43 266v194h142v121h-142v192h142v703q75 16 154.5 26t172.5 10q95 0 180.5 -19t149 -70t102 -140.5t38.5 -230.5q0 -130 -37.5 -219t-99 -146t-141.5 -81.5t-167 -24.5h-109v-121h279v-194h-279v-266h-243v266h-142zM428 778h84q44 -2 83 10.5t68.5 43t46 82 t16.5 125.5q0 132 -53 189.5t-134 57.5q-37 0 -65.5 -2t-45.5 -8v-498z" />
<glyph unicode="&#x20cd;" d="M43 0zM43 266v194h142v121h-142v192h142v703q75 16 154.5 26t172.5 10q95 0 180.5 -19t149 -70t102 -140.5t38.5 -230.5q0 -130 -37.5 -219t-99 -146t-141.5 -81.5t-167 -24.5h-109v-121h279v-194h-279v-266h-243v266h-142zM428 778h84q44 -2 83 10.5t68.5 43t46 82 t16.5 125.5q0 132 -53 189.5t-134 57.5q-37 0 -65.5 -2t-45.5 -8v-498z" />
<glyph unicode="&#x20ce;" d="M43 0zM43 266v194h142v121h-142v192h142v703q75 16 154.5 26t172.5 10q95 0 180.5 -19t149 -70t102 -140.5t38.5 -230.5q0 -130 -37.5 -219t-99 -146t-141.5 -81.5t-167 -24.5h-109v-121h279v-194h-279v-266h-243v266h-142zM428 778h84q44 -2 83 10.5t68.5 43t46 82 t16.5 125.5q0 132 -53 189.5t-134 57.5q-37 0 -65.5 -2t-45.5 -8v-498z" />
<glyph unicode="&#x20cf;" d="M43 0zM43 266v194h142v121h-142v192h142v703q75 16 154.5 26t172.5 10q95 0 180.5 -19t149 -70t102 -140.5t38.5 -230.5q0 -130 -37.5 -219t-99 -146t-141.5 -81.5t-167 -24.5h-109v-121h279v-194h-279v-266h-243v266h-142zM428 778h84q44 -2 83 10.5t68.5 43t46 82 t16.5 125.5q0 132 -53 189.5t-134 57.5q-37 0 -65.5 -2t-45.5 -8v-498z" />
<glyph unicode="&#x2113;" horiz-adv-x="1064" d="M156 464l181 158v541q0 93 21.5 160t58 110t86.5 63t109 20q101 0 167.5 -63t66.5 -190q0 -159 -85.5 -335t-278.5 -363v-299q0 -93 35.5 -128.5t87.5 -35.5q53 0 117 22.5t107 46.5l35 -108q-47 -30 -122 -59.5t-150 -29.5q-134 0 -194.5 65t-60.5 203v222l-107 -94z M482 735q119 139 173 267t54 250q0 73 -29.5 104.5t-67.5 31.5q-26 0 -49.5 -7t-42 -29.5t-28.5 -62t-10 -102.5v-452z" />
<glyph unicode="&#x2116;" horiz-adv-x="1825" d="M96 0v1502h209l402 -763l90 -264h12l-34 260v756h254v-1501h-209l-398 745l-96 281h-11l34 -277v-739h-253zM1114 1154q0 98 23.5 166t66 112t101 64t128.5 20q71 0 129.5 -18t101 -60.5t67.5 -112t25 -171.5t-25 -171t-67.5 -111.5t-101 -61t-129.5 -18.5t-129 18.5 t-100.5 61t-66 111.5t-23.5 171zM1148 462v226h577v-226h-577zM1337 1154q0 -102 23.5 -143.5t72.5 -41.5q26 0 44.5 7.5t29.5 28.5t16.5 57.5t5.5 91.5q0 109 -23.5 147.5t-72.5 38.5t-72.5 -38.5t-23.5 -147.5z" />
<glyph unicode="&#x2122;" horiz-adv-x="1705" d="M53 1266v225h650v-225h-199v-542h-252v542h-199zM760 724v767h256l153 -304l38 -135h3l40 139l140 300h254v-767h-217v307l32 219h-10l-63 -181l-108 -249h-160l-110 243l-69 187h-10l44 -215v-311h-213z" />
<glyph unicode="&#x212e;" horiz-adv-x="1277" d="M94 551q0 126 39.5 233.5t111.5 186.5t173.5 124t224.5 45q132 0 233.5 -47t171.5 -127t106.5 -186.5t40.5 -228.5h-860v-385q132 -125 308 -125q264 0 412 255l73 -44q-91 -141 -210 -214.5t-275 -73.5q-126 0 -228 45.5t-173 124.5t-109.5 186.5t-38.5 230.5zM335 628 h620v309q-134 128 -314 128q-183 0 -306 -128v-309z" />
<glyph unicode="&#x2202;" horiz-adv-x="959" d="M32 422q0 128 26.5 245t82 206.5t140.5 143.5t201 54q70 0 106 -13.5t64 -37.5h10q-10 92 -49.5 151.5t-98 91.5t-128 43t-134.5 4l42 210q134 7 248 -19.5t199.5 -102t133 -208.5t47.5 -340q0 -232 -36 -398.5t-103 -272.5t-160 -156.5t-204 -50.5q-187 0 -287 118.5 t-100 331.5zM294 431q0 -107 36 -170t109 -63q63 0 106 49t68.5 130t36 186.5t10.5 218.5q-30 32 -65 48t-91 16q-89 0 -149.5 -105t-60.5 -310z" />
<glyph unicode="&#x220f;" horiz-adv-x="1132" d="M94 -426v1917h945v-1917h-261v1676h-422v-1676h-262z" />
<glyph unicode="&#x2211;" horiz-adv-x="945" d="M43 -185l317 641l68 72l-76 79l-309 643v241h858v-241h-605l84 -87l289 -618l-322 -647l-77 -83h631v-241h-858v241z" />
<glyph unicode="&#x2212;" horiz-adv-x="945" d="M81 612v225h783v-225h-783z" />
<glyph unicode="&#x2215;" horiz-adv-x="945" d="M19 0zM20 57l732 1466l173 -84l-728 -1469z" />
<glyph unicode="&#x221a;" horiz-adv-x="945" d="M-6 786v226h345l130 -362l37 -280h10l27 284l209 837h234l-405 -1501h-136l-264 796h-187z" />
<glyph unicode="&#x221e;" horiz-adv-x="1520" d="M57 742q0 104 26.5 185t73 136t110 83.5t138.5 28.5q132 0 220 -62.5t155 -157.5q79 117 168 168.5t198 51.5q69 0 126 -27.5t99.5 -80.5t67 -131t24.5 -178q0 -213 -102.5 -325t-261.5 -112q-128 0 -213 69t-147 173q-63 -122 -153 -182t-200 -60q-66 0 -125.5 29.5 t-105 82.5t-72 130.5t-26.5 178.5zM294 744q0 -84 39 -142.5t102 -58.5q55 0 110.5 55.5t93.5 125.5q-37 96 -89.5 163.5t-123.5 67.5q-61 0 -96.5 -63t-35.5 -148zM882 780q19 -45 42 -87.5t51.5 -76t59 -53.5t62.5 -20q62 0 96 59.5t34 149.5q0 38 -6.5 74t-22.5 65 t-42 46.5t-63 17.5q-53 0 -107.5 -47.5t-103.5 -127.5z" />
<glyph unicode="&#x222b;" horiz-adv-x="653" d="M-120 -396l57 209q72 -30 142 -30q69 0 93 48.5t24 166.5v1148q0 205 67 289.5t219 84.5q68 0 143.5 -13.5t122.5 -32.5l-41 -208q-38 16 -73.5 22.5t-80.5 6.5q-59 0 -81.5 -44t-22.5 -158v-1166q0 -205 -75.5 -287.5t-213.5 -82.5q-81 0 -159 14t-121 33z" />
<glyph unicode="&#x2248;" horiz-adv-x="945" d="M49 366zM49 596q83 81 151 111.5t126 30.5q50 0 95.5 -16.5t85.5 -37.5t79.5 -38.5t82.5 -17.5q32 0 64.5 13.5t69.5 45.5l93 -219q-63 -57 -116.5 -79.5t-100.5 -22.5q-49 0 -92.5 18.5t-85 40.5t-83.5 41.5t-86 19.5q-43 0 -91 -22.5t-105 -80.5zM49 1008 q83 81 151 111.5t126 30.5q50 0 95.5 -16.5t85.5 -37.5t79.5 -38.5t82.5 -17.5q32 0 64.5 13.5t69.5 45.5l93 -219q-63 -57 -116.5 -79.5t-100.5 -22.5q-49 0 -92.5 18.5t-85 40.5t-83.5 41.5t-86 19.5q-43 0 -91 -22.5t-105 -80.5z" />
<glyph unicode="&#x2260;" horiz-adv-x="911" d="M63 407v225h250l67 183h-317v226h399l89 243h220l-90 -243h167v-226h-250l-68 -183h318v-225h-401l-104 -285h-217l104 285h-167z" />
<glyph unicode="&#x2264;" horiz-adv-x="945" d="M79 880v149l663 473l127 -173l-396 -296l-160 -74l158 -67l407 -291l-128 -173zM94 431l128 181l656 -441l-128 -181z" />
<glyph unicode="&#x2265;" horiz-adv-x="945" d="M69 1329l127 173l671 -452v-149l-662 -473l-128 173l396 295l159 75l-157 66zM83 168l652 450l129 -181l-653 -447z" />
<glyph unicode="&#x25ca;" horiz-adv-x="945" d="M49 728l343 774h153l351 -763l-351 -749h-153zM283 756l152 -328l44 -183h9l42 188l132 278l-150 333l-45 181h-9l-47 -184z" />
<glyph unicode="&#x25fc;" horiz-adv-x="1064" d="M0 0v1065h1065v-1065h-1065z" />
<glyph unicode="&#x2c67;" horiz-adv-x="1224" d="M96 0v1491h268v-613h407v613h268v-1243h156v-514h-189l-26 266h-209v630h-407v-630h-268z" />
<glyph unicode="&#x2c68;" horiz-adv-x="1034" d="M92 0v1491h253v-522h7q42 55 103 89.5t152 34.5q66 0 115 -19t83 -64t51.5 -121t17.5 -190v-467h136v-474h-187l-28 242h-175v643q0 115 -26.5 166t-97.5 51q-51 0 -93.5 -36t-57.5 -91v-733h-253z" />
<glyph unicode="&#xf401;" horiz-adv-x="4" d="M-898 1602l175 251h304v-64l-281 -187h-198zM-419 1602z" />
<glyph unicode="&#xf406;" horiz-adv-x="943" d="M128 1789l98 75q36 -55 104 -86.5t149 -31.5q86 0 146 32.5t97 85.5l93 -66q-24 -63 -59.5 -109.5t-81.5 -76t-96 -43.5t-101 -14q-46 0 -96.5 13t-98.5 40.5t-88.5 72t-65.5 108.5z" />
<glyph unicode="&#xf407;" horiz-adv-x="648" d="M128 0zM128 -435l14 120q77 -13 112.5 -2.5t35.5 47.5q0 59 -150 67l105 203h162l-43 -92q73 -8 115.5 -45.5t42.5 -114.5q0 -61 -35.5 -102.5t-90.5 -65t-125 -27.5t-143 12z" />
<glyph unicode="&#xf408;" horiz-adv-x="894" d="M128 1571v86l232 196h185l221 -198v-84h-180l-100 88l-37 73l-38 -71l-106 -90h-177z" />
<glyph unicode="&#xf409;" horiz-adv-x="538" d="M130 -89zM130 -226q0 62 38.5 99.5t93.5 37.5q66 0 107.5 -47t41.5 -143q0 -70 -21.5 -123.5t-52 -89.5t-64 -58.5t-58.5 -30.5l-70 97q28 17 53.5 50.5t29.5 79.5q-32 2 -65 32.5t-33 95.5z" />
<glyph unicode="&#xf40a;" horiz-adv-x="400" d="M61 994zM61 1372q0 61 37.5 99.5t92.5 38.5q69 0 108.5 -48t39.5 -133q0 -83 -23.5 -141t-56.5 -97t-69.5 -62t-61.5 -35l-65 107q37 17 65 51.5t32 83.5q-36 2 -67.5 34.5t-31.5 101.5z" />
<glyph unicode="&#xf40b;" horiz-adv-x="587" d="M128 1701q0 53 41.5 91.5t122.5 38.5q83 0 125.5 -37.5t42.5 -92.5t-43 -93.5t-125 -38.5q-81 0 -122.5 38.5t-41.5 93.5z" />
<glyph unicode="&#xf40c;" horiz-adv-x="730" d="M128 1644q0 39 10.5 74t38.5 61.5t72.5 41.5t114.5 15q130 0 184.5 -51t54.5 -141q0 -38 -12 -72t-39.5 -58.5t-73 -39.5t-114.5 -15q-132 0 -184 52t-52 133zM287 1644q0 -65 77 -65q45 0 62 15.5t17 49.5q0 37 -18 55t-61 18q-77 0 -77 -73z" />
<glyph unicode="&#xf40d;" horiz-adv-x="957" d="M128 1695q61 79 119 107.5t113 28.5q40 0 81 -11t79 -24t73 -24.5t69 -11.5q31 0 58.5 11.5t52.5 41.5l58 -134q-55 -62 -105.5 -85t-99.5 -23q-40 0 -80 12t-76.5 25t-73 24.5t-73.5 11.5q-36 0 -70 -15t-70 -58z" />
<glyph unicode="&#xf40e;" horiz-adv-x="683" d="M128 0zM128 -228q0 90 53 151.5t136 97.5h189q-132 -47 -132 -168q0 -53 37.5 -80t106.5 5l38 -123q-12 -13 -34 -26t-49.5 -23.5t-60 -17.5t-65.5 -7q-108 0 -163.5 53t-55.5 138z" />
<glyph unicode="&#xf486;" horiz-adv-x="1043" d="M96 0zM96 10v1470q70 12 173 22t206 10q94 0 180.5 -15t151.5 -55t102.5 -111.5t37.5 -184.5q0 -55 -11 -109.5t-36.5 -102.5t-67.5 -84.5t-99 -54.5v-13q51 -12 97 -38t79.5 -70t54 -107t20.5 -148q0 -115 -39.5 -199t-106.5 -137t-156.5 -78.5t-189.5 -25.5h-77t-101 3 t-111.5 9.5t-106.5 18.5zM321 1602l175 251h304v-64l-281 -187h-198zM364 224q17 -7 58.5 -10t75.5 -3q90 0 147.5 57.5t57.5 168.5q0 71 -19 112t-51 63t-73.5 29t-86.5 7h-109v-424zM364 858h62q24 0 55 3t49 8q62 24 105.5 77t43.5 138q0 55 -14.5 93.5t-40.5 60.5 t-61 32t-75 10q-88 0 -124 -8v-414z" />
<glyph unicode="&#xf487;" horiz-adv-x="943" d="M92 0zM92 43v1448h253v-495h7q76 94 219 95q151 0 235 -126t84 -404q0 -303 -119 -445t-326 -142q-113 0 -208 21.5t-145 47.5zM345 230q45 -24 117 -23q81 0 123.5 77.5t42.5 260.5q0 162 -33.5 237.5t-106.5 75.5q-106 0 -143 -110v-518zM463 1205l89 329h254v-64 l-201 -265h-142z" />
<glyph unicode="&#xf488;" horiz-adv-x="892" d="M96 0v1491h745v-247h-477v-388h439v-247h-439v-609h-268zM96 0zM313 1602l175 251h304v-64l-281 -187h-198z" />
<glyph unicode="&#xf489;" horiz-adv-x="567" d="M17 0zM17 839v226h115v59q0 203 75.5 293.5t216.5 90.5t234 -38l-46 -216q-39 15 -68.5 18.5t-61.5 3.5q-62 0 -79 -48t-17 -163h181v-226h-181v-839h-254v839h-115zM275 1602l175 251h304v-64l-281 -187h-198z" />
<glyph unicode="&#xf49e;" horiz-adv-x="1079" d="M-26 1097v194h128v200h268v-200h390v-194h-390v-207q45 30 122 58t183 28q75 0 137 -21.5t105.5 -70.5t67 -127t23.5 -190v-567h-269v484q0 128 -36 190.5t-128 62.5q-61 0 -115.5 -19t-89.5 -53v-665h-268v1097h-128z" />
<glyph unicode="&#xf49f;" horiz-adv-x="970" d="M-19 1197v169h125v125h254v-125h283v-169h-283v-228h6q43 55 103.5 89.5t152.5 34.5q65 0 114.5 -19t83.5 -64t51 -121t17 -190v-699h-254v643q0 115 -26.5 166t-95.5 51q-51 0 -94.5 -36t-57.5 -91v-733h-254v1197h-125zM0 0z" />
<glyph unicode="&#xf4c6;" horiz-adv-x="1073" d="M73 914v577h268v-489q0 -133 38 -189.5t125 -56.5q62 0 116.5 19.5t86.5 55.5v660h269v-1552q0 -194 -75.5 -287t-221.5 -93q-53 0 -116 13v225q91 -10 117.5 46.5t26.5 158.5v599q-42 -30 -117.5 -56.5t-178.5 -26.5q-71 0 -132.5 20t-107 66t-72 121.5t-26.5 188.5z " />
<glyph unicode="&#xf4c7;" horiz-adv-x="892" d="M51 685v380h254v-285q0 -113 20 -163t88 -50q47 0 80 13.5t54 31.5v453h254v-1131q0 -178 -66 -275.5t-213 -97.5q-28 0 -58.5 3t-65.5 12v219q92 -8 120.5 44.5t28.5 160.5v413q-26 -21 -79 -46.5t-142 -25.5q-64 0 -115 15.5t-86.5 56t-54.5 107t-19 165.5z" />
<glyph unicode="&#xf4cc;" horiz-adv-x="1010" d="M-21 1491h317l228 -650l32 -198h11l27 205l168 643h277l-332 -1031q-38 -122 -72 -210t-74.5 -147.5t-91 -88.5t-122.5 -29q-57 0 -98.5 10.5t-86.5 40.5l66 226q30 -17 53.5 -22.5t48.5 -7.5q79 0 109 162zM0 0zM347 1602l175 251h304v-64l-281 -187h-198z" />
<glyph unicode="&#xf4cd;" horiz-adv-x="851" d="M-21 1065h304l150 -598l27 -166h11l19 168l124 596h260l-267 -961q-36 -126 -68.5 -226t-68 -170t-81.5 -107.5t-110 -37.5q-45 0 -86.5 7.5t-70.5 24.5l42 218q28 -11 57 -10t53 21t43.5 62.5t31.5 113.5zM0 0zM347 1205l89 329h254v-64l-201 -265h-142z" />
<glyph unicode="&#xf4d6;" horiz-adv-x="1015" d="M30 0zM30 38l70 239q42 -21 112.5 -40.5t157.5 -19.5q141 0 218 103.5t87 325.5h-451v221h449q-4 90 -22.5 164.5t-55.5 128.5t-91.5 84t-131.5 30q-91 0 -160.5 -22.5t-117.5 -52.5l-62 232q69 41 166.5 65t189.5 24q128 0 233 -41.5t179 -133t114.5 -239t40.5 -358.5 q0 -226 -47.5 -376t-129 -239.5t-189 -126t-229.5 -36.5q-104 0 -192.5 21t-137.5 47zM248 1701q0 53 41.5 91.5t122.5 38.5q83 0 125.5 -37.5t42.5 -92.5t-43 -93.5t-125 -38.5q-81 0 -122.5 38.5t-41.5 93.5z" />
<glyph unicode="&#xf4d7;" horiz-adv-x="802" d="M32 0zM32 34l60 211q87 -46 200 -47q104 0 148 58.5t48 186.5h-307v191h307q-6 116 -48 175.5t-135 59.5q-66 0 -115.5 -14t-85.5 -38l-68 193q116 85 318 85q195 0 295.5 -139t100.5 -424q0 -284 -110 -422t-310 -138q-79 0 -163 16t-135 46zM177 1366q0 63 40.5 104.5 t114.5 41.5q75 0 119.5 -40.5t44.5 -105.5q0 -66 -44.5 -104.5t-119.5 -38.5t-115 39.5t-40 103.5z" />
<glyph unicode="&#xf50a;" horiz-adv-x="925" d="M26 0zM26 45l70 238q40 -24 111.5 -45t166.5 -21q88 0 152 56.5t64 177.5q0 104 -58.5 156.5t-205.5 57.5q-24 0 -32.5 1t-35.5 1h-49v217h51q32 0 79 2t74 13q57 16 97.5 63.5t40.5 121.5q0 104 -50 145t-139 41q-73 0 -135.5 -22.5t-98.5 -46.5l-69 232q21 13 60 28 t87 28t102 20t109 7q81 0 157 -16t133 -57t91.5 -114t34.5 -185q0 -108 -45.5 -202t-148.5 -139v-13q110 -30 171.5 -119.5t61.5 -242.5q0 -104 -30.5 -183t-81.5 -133.5t-119 -87t-145 -45.5l-23 -351h-175l-32 348q-75 10 -136 27.5t-104 41.5z" />
<glyph unicode="&#xf50b;" horiz-adv-x="752" d="M30 0zM30 49l51 207q41 -24 95 -37.5t116 -13.5q156 0 155 125q0 53 -39.5 83t-145.5 30h-81v189h102q57 0 93.5 34.5t36.5 83.5q0 106 -132 106q-64 0 -112.5 -16.5t-79.5 -36.5l-57 203q55 32 144.5 54t185.5 22q305 0 305 -265q0 -79 -34.5 -147.5t-102.5 -98.5v-8 q90 -26 130.5 -90t40.5 -172q0 -109 -59 -193t-186 -114l-25 -366h-175l-34 357q-62 9 -109 25t-83 39z" />
<glyph unicode="&#xf50c;" horiz-adv-x="972" d="M61 0zM61 780q0 225 48.5 374.5t126 238t178 124t202.5 35.5q104 0 182 -16.5t127 -38.5l-53 -236q-41 21 -95.5 33t-128.5 12q-147 0 -226 -128t-79 -400q0 -118 18.5 -214.5t57.5 -167t99.5 -109t146.5 -38.5q74 0 127.5 20.5t95.5 47.5l53 -226q-47 -38 -117 -58 t-145 -27l-29 -66q73 -8 115 -45.5t42 -114.5q0 -49 -22.5 -84.5t-61 -60.5t-89.5 -37.5t-106 -12.5q-57 0 -115 12l15 103q90 -8 118.5 11.5t28.5 50.5q0 59 -149 67l92 179q-98 13 -181 62t-144 140.5t-96.5 232t-35.5 337.5z" />
<glyph unicode="&#xf50d;" horiz-adv-x="744" d="M53 0zM53 532q0 279 100.5 420t293.5 141q96 0 157 -17t107 -43l-59 -210q-38 18 -73.5 27.5t-84.5 9.5q-89 0 -134 -77.5t-45 -250.5q0 -144 46 -235.5t145 -91.5q54 0 91 13.5t70 35.5l53 -197q-39 -32 -88 -49.5t-104 -28.5l-32 -71q73 -8 115.5 -45.5t42.5 -114.5 q0 -49 -22.5 -84.5t-61 -60.5t-89 -37.5t-107.5 -12.5t-114 12l15 103q89 -8 118 11.5t29 50.5q0 59 -150 67l92 182q-171 28 -241 175t-70 378z" />
<glyph unicode="&#xf50e;" horiz-adv-x="1067" d="M-6 0l432 1502h210l435 -1502h-281l-91 337h-352l-87 -337h-266zM0 0zM230 1634v189h616v-189h-616zM405 558h247l-85 347l-35 235h-8l-36 -237z" />
<glyph unicode="&#xf50f;" horiz-adv-x="878" d="M36 0zM36 294q0 192 136.5 273t368.5 67q10 124 -16.5 179.5t-113.5 55.5q-64 0 -132 -15t-121 -43l-64 191q63 38 159 61t218 23q181 0 252.5 -93.5t71.5 -266.5q0 -100 -5.5 -196.5t-7.5 -189t3 -179t28 -163.5h-206l-40 130h-9q-34 -61 -96 -102t-155 -41 q-126 0 -198.5 84t-72.5 225zM154 1207v195h579v-195h-579zM298 337q0 -66 27 -100t73 -34q58 0 94 28.5t53 62.5v177q-49 6 -93.5 2t-78.5 -19t-54.5 -43.5t-20.5 -73.5z" />
<glyph unicode="&#xf510;" horiz-adv-x="915" d="M96 0v1491h745v-247h-477v-366h433v-248h-433v-382h486v-248h-754zM96 0zM162 1634v189h616v-189h-616z" />
<glyph unicode="&#xf511;" horiz-adv-x="911" d="M53 0zM53 532q0 288 114 425.5t317 137.5q68 0 131.5 -20t114 -68t81 -128t30.5 -202q0 -47 -5 -100t-16 -115h-517q4 -132 55 -202.5t164 -70.5q69 0 125 21.5t86 45.5l78 -177q-53 -47 -144.5 -77t-191.5 -30q-110 0 -190 38.5t-131.5 110.5t-76 175.5t-24.5 235.5z M171 1207v195h579v-195h-579zM311 630h294q7 122 -25 185t-101 63q-81 0 -121.5 -65t-46.5 -183z" />
<glyph unicode="&#xf512;" horiz-adv-x="915" d="M96 0v1491h745v-247h-477v-366h433v-248h-433v-382h486v-248h-754zM96 0zM126 1699q0 55 32.5 89.5t114.5 34.5q74 0 107 -33.5t33 -90.5q0 -55 -33 -87.5t-107 -32.5q-82 0 -114.5 32.5t-32.5 87.5zM154 1924v189h616v-189h-616zM514 1699q0 55 32.5 89.5t109.5 34.5 q79 0 112 -33.5t33 -90.5q0 -55 -33 -87.5t-112 -32.5q-77 0 -109.5 32.5t-32.5 87.5z" />
<glyph unicode="&#xf513;" horiz-adv-x="911" d="M53 0zM53 532q0 288 114 425.5t317 137.5q68 0 131.5 -20t114 -68t81 -128t30.5 -202q0 -47 -5 -100t-16 -115h-517q4 -132 55 -202.5t164 -70.5q69 0 125 21.5t86 45.5l78 -177q-53 -47 -144.5 -77t-191.5 -30q-110 0 -190 38.5t-131.5 110.5t-76 175.5t-24.5 235.5z M132 1313q0 69 37.5 107.5t98.5 38.5q59 0 95.5 -38.5t36.5 -107.5q0 -63 -36.5 -100.5t-95.5 -37.5q-61 0 -98.5 37.5t-37.5 100.5zM156 1598v189h616v-189h-616zM311 630h294q7 122 -25 185t-101 63q-81 0 -121.5 -65t-46.5 -183zM528 1313q0 69 36 107.5t98 38.5 t98 -38.5t36 -107.5q0 -63 -36 -100.5t-98 -37.5q-61 0 -97.5 37.5t-36.5 100.5z" />
<glyph unicode="&#xf514;" horiz-adv-x="915" d="M96 0v1491h745v-247h-477v-366h433v-248h-433v-382h486v-248h-754zM96 0zM118 2126l242 39q13 -130 120 -130q106 0 119 128l218 -33q-17 -138 -105 -200t-234 -62q-75 0 -136.5 13t-108.5 42.5t-77 78.5t-38 124zM128 1699q0 55 32.5 89.5t114.5 34.5q74 0 107 -33.5 t33 -90.5q0 -55 -33 -87.5t-107 -32.5q-82 0 -114.5 32.5t-32.5 87.5zM516 1699q0 55 32.5 89.5t109.5 34.5q79 0 112 -33.5t33 -90.5q0 -55 -33 -87.5t-112 -32.5q-77 0 -109.5 32.5t-32.5 87.5z" />
<glyph unicode="&#xf515;" horiz-adv-x="911" d="M53 0zM53 532q0 288 114 425.5t317 137.5q68 0 131.5 -20t114 -68t81 -128t30.5 -202q0 -47 -5 -100t-16 -115h-517q4 -132 55 -202.5t164 -70.5q69 0 125 21.5t86 45.5l78 -177q-53 -47 -144.5 -77t-191.5 -30q-110 0 -190 38.5t-131.5 110.5t-76 175.5t-24.5 235.5z M118 1787l242 39q13 -130 120 -130q106 0 119 128l218 -33q-17 -138 -105 -200t-234 -62q-75 0 -136.5 13t-108.5 42.5t-77 78.5t-38 124zM132 1313q0 69 37.5 107.5t98.5 38.5q59 0 95.5 -38.5t36.5 -107.5q0 -63 -36.5 -100.5t-95.5 -37.5q-61 0 -98.5 37.5t-37.5 100.5z M311 630h294q7 122 -25 185t-101 63q-81 0 -121.5 -65t-46.5 -183zM528 1313q0 69 36 107.5t98 38.5t98 -38.5t36 -107.5q0 -63 -36 -100.5t-98 -37.5q-61 0 -97.5 37.5t-36.5 100.5z" />
<glyph unicode="&#xf516;" horiz-adv-x="925" d="M26 0zM26 45l70 238q40 -24 111.5 -45t166.5 -21q88 0 152 56.5t64 177.5q0 104 -58.5 156.5t-205.5 57.5q-24 0 -32.5 1t-35.5 1h-49v217h51q32 0 79 2t74 13q57 16 97.5 63.5t40.5 121.5q0 104 -50 145t-139 41q-73 0 -135.5 -22.5t-98.5 -46.5l-69 232q21 13 60 28 t87 28t102 20t109 7q81 0 157 -16t133 -57t91.5 -114t34.5 -185q0 -108 -45.5 -202t-148.5 -139v-13q110 -30 171.5 -119.5t61.5 -242.5q0 -121 -40 -208.5t-107 -143t-154 -81t-181 -25.5q-115 0 -211 20t-153 55zM118 1770v83h193l90 -95l36 -65l37 63l95 97h187v-85 l-231 -199h-186z" />
<glyph unicode="&#xf517;" horiz-adv-x="752" d="M30 0zM30 49l51 207q41 -24 95 -37.5t116 -13.5q156 0 155 125q0 53 -39.5 83t-145.5 30h-81v189h102q57 0 93.5 34.5t36.5 83.5q0 106 -132 106q-64 0 -112.5 -16.5t-79.5 -36.5l-57 203q55 32 144.5 54t185.5 22q305 0 305 -265q0 -79 -34.5 -147.5t-102.5 -98.5v-8 q90 -26 130.5 -90t40.5 -172q0 -69 -22.5 -127.5t-69 -101t-118.5 -68t-170 -25.5q-95 0 -168.5 20t-122.5 50zM79 1559h209l68 -140l28 -104l27 104l79 140h194l-215 -388h-188z" />
<glyph unicode="&#xf518;" horiz-adv-x="1177" d="M61 0zM61 746q0 379 130 576.5t397 197.5q138 0 238.5 -54t164.5 -155t94.5 -245t30.5 -320q0 -380 -133 -578t-395 -198q-141 0 -239.5 54.5t-162.5 155.5t-94.5 245t-30.5 321zM286 1634v189h616v-189h-616zM343 746q0 -114 12.5 -210.5t42.5 -167t76 -111t114 -40.5 q123 0 185 126t62 403q0 108 -13 205t-41.5 168.5t-75.5 113t-117 41.5q-245 0 -245 -528z" />
<glyph unicode="&#xf519;" horiz-adv-x="947" d="M53 0zM53 532q0 283 111 422t309 139q213 0 317 -141t104 -420q0 -284 -110.5 -422t-310.5 -138q-420 0 -420 560zM185 1207v195h579v-195h-579zM315 532q0 -160 36.5 -247t121.5 -87q81 0 120 75.5t39 258.5q0 165 -35.5 250t-123.5 85q-75 0 -116.5 -75.5t-41.5 -259.5 z" />
<glyph unicode="&#xf51a;" horiz-adv-x="1177" d="M61 0zM61 746q0 379 130 576.5t397 197.5q138 0 238.5 -54t164.5 -155t94.5 -245t30.5 -320q0 -380 -133 -578t-395 -198q-141 0 -239.5 54.5t-162.5 155.5t-94.5 245t-30.5 321zM236 1823l242 39q13 -130 120 -130q106 0 119 128l218 -33q-17 -138 -105 -200t-234 -62 q-75 0 -136.5 13t-108.5 42.5t-77 78.5t-38 124zM343 746q0 -114 12.5 -210.5t42.5 -167t76 -111t114 -40.5q123 0 185 126t62 403q0 108 -13 205t-41.5 168.5t-75.5 113t-117 41.5q-245 0 -245 -528z" />
<glyph unicode="&#xf51b;" horiz-adv-x="947" d="M53 0zM53 532q0 283 111 422t309 139q213 0 317 -141t104 -420q0 -284 -110.5 -422t-310.5 -138q-420 0 -420 560zM162 1453l215 47q6 -81 34 -117.5t70 -36.5q45 0 71.5 35t37.5 117l192 -47q-24 -145 -108 -212.5t-199 -67.5q-55 0 -108.5 15t-96.5 48.5t-71.5 86.5 t-36.5 132zM315 532q0 -160 36.5 -247t121.5 -87q81 0 120 75.5t39 258.5q0 165 -35.5 250t-123.5 85q-75 0 -116.5 -75.5t-41.5 -259.5z" />
<glyph unicode="&#xf51c;" horiz-adv-x="1175" d="M61 0zM61 746q0 379 130 576.5t397 197.5q138 0 238.5 -54t164.5 -155t93.5 -245t29.5 -320q0 -380 -132 -578t-394 -198q-141 0 -239.5 54.5t-162.5 155.5t-94.5 245t-30.5 321zM238 1823l242 39q13 -130 120 -130q106 0 119 128l218 -33q-17 -138 -105 -200t-234 -62 q-75 0 -136.5 13t-108.5 42.5t-77 78.5t-38 124zM343 636q6 -93 22.5 -169.5t46 -132t73 -86.5t103.5 -31q110 0 173.5 100t73.5 319h-492zM343 862h490q-6 90 -22 164.5t-46 130t-73.5 86.5t-103.5 31q-220 0 -245 -412z" />
<glyph unicode="&#xf51d;" horiz-adv-x="947" d="M53 0zM53 532q0 275 109.5 419t310.5 144q106 0 185 -39.5t132 -113t78.5 -177t25.5 -233.5q0 -276 -110.5 -419t-310.5 -143q-106 0 -185 39.5t-131.5 113t-78 176.5t-25.5 233zM162 1453l215 47q6 -81 34 -117.5t70 -36.5q45 0 71.5 35t37.5 117l192 -47 q-24 -145 -108 -212.5t-199 -67.5q-55 0 -108.5 15t-96.5 48.5t-71.5 86.5t-36.5 132zM315 443q6 -130 51 -188.5t107 -58.5t106.5 52.5t52.5 194.5h-317zM315 616h317q-10 140 -50.5 196.5t-106.5 56.5q-61 0 -106.5 -54.5t-53.5 -198.5z" />
<glyph unicode="&#xf51e;" horiz-adv-x="1175" d="M61 0zM61 746q0 379 130 576.5t397 197.5q138 0 238.5 -54t164.5 -155t93.5 -245t29.5 -320q0 -380 -132 -578t-394 -198q-141 0 -239.5 54.5t-162.5 155.5t-94.5 245t-30.5 321zM238 2126l242 39q13 -130 120 -130q106 0 119 128l218 -33q-17 -138 -105 -200t-234 -62 q-75 0 -136.5 13t-108.5 42.5t-77 78.5t-38 124zM252 1699q0 55 32.5 89.5t114.5 34.5q74 0 107 -33.5t33 -90.5q0 -55 -33 -87.5t-107 -32.5q-82 0 -114.5 32.5t-32.5 87.5zM343 636q6 -93 22.5 -169.5t46 -132t73 -86.5t103.5 -31q110 0 173.5 100t73.5 319h-492zM343 862 h490q-6 90 -22 164.5t-46 130t-73.5 86.5t-103.5 31q-220 0 -245 -412zM640 1699q0 55 32.5 89.5t109.5 34.5q79 0 112 -33.5t33 -90.5q0 -55 -33 -87.5t-112 -32.5q-77 0 -109.5 32.5t-32.5 87.5z" />
<glyph unicode="&#xf51f;" horiz-adv-x="947" d="M53 0zM53 532q0 275 109.5 419t310.5 144q106 0 185 -39.5t132 -113t78.5 -177t25.5 -233.5q0 -276 -110.5 -419t-310.5 -143q-106 0 -185 39.5t-131.5 113t-78 176.5t-25.5 233zM126 1778l242 39q13 -130 120 -130q106 0 119 128l218 -33q-17 -138 -105 -200t-234 -62 q-75 0 -136.5 13t-108.5 42.5t-77 78.5t-38 124zM140 1303q0 69 37.5 107.5t98.5 38.5q59 0 95.5 -38.5t36.5 -107.5q0 -63 -36.5 -100.5t-95.5 -37.5q-61 0 -98.5 37.5t-37.5 100.5zM315 443q6 -130 51 -188.5t107 -58.5t106.5 52.5t52.5 194.5h-317zM315 616h317 q-10 140 -50.5 196.5t-106.5 56.5q-61 0 -106.5 -54.5t-53.5 -198.5zM536 1303q0 69 36 107.5t98 38.5t98 -38.5t36 -107.5q0 -63 -36 -100.5t-98 -37.5q-61 0 -97.5 37.5t-36.5 100.5z" />
</font>
</defs>
</svg>
