<?xml version="1.0" standalone="no"?>
<!DOCTYPE svg PUBLIC "-//W3C//DTD SVG 1.1//EN" "http://www.w3.org/Graphics/SVG/1.1/DTD/svg11.dtd" >
<svg xmlns="http://www.w3.org/2000/svg" xmlns:xlink="http://www.w3.org/1999/xlink" version="1.1">
<metadata></metadata>
<defs>
<font id="pt_sans_narrowregular" horiz-adv-x="957" >
<font-face units-per-em="2048" ascent="1536" descent="-512" />
<missing-glyph horiz-adv-x="451" />
<glyph unicode="fi" horiz-adv-x="929" d="M34 927v138h130v59q0 201 81 291.5t237 90.5q104 0 182 -20.5t126 -46.5l-48 -127q-51 31 -114 43.5t-132 12.5q-59 0 -94.5 -20.5t-54.5 -60t-24.5 -95.5t-5.5 -127h484v-1065h-153v927h-331v-927h-153v927h-130z" />
<glyph unicode="fl" horiz-adv-x="998" d="M34 927v138h130v59q0 201 71.5 296.5t239.5 95.5q35 0 80.5 -3t90.5 -8t84 -11.5t62 -15.5v-1236q0 -70 20.5 -99.5t56.5 -29.5q47 0 107 23l10 -124q-28 -16 -76 -27t-93 -11q-81 0 -129.5 51.5t-48.5 175.5v1160q-24 5 -69.5 11t-90.5 6q-55 0 -87 -21.5t-49 -61 t-21.5 -97.5t-4.5 -133h169v-138h-169v-927h-153v927h-130z" />
<glyph unicode="&#xd;" horiz-adv-x="451" />
<glyph unicode=" "  horiz-adv-x="451" />
<glyph unicode="&#x09;" horiz-adv-x="451" />
<glyph unicode="&#xa0;" horiz-adv-x="451" />
<glyph unicode="!" horiz-adv-x="525" d="M187 96q0 59 29 89t78 30t77.5 -29.5t28.5 -89.5q0 -62 -28.5 -92t-77.5 -30t-78 30t-29 92zM215 752v739h159v-739l-31 -376h-95z" />
<glyph unicode="&#x22;" horiz-adv-x="608" d="M153 1080v411h148l-56 -411h-92zM153 1080zM377 1080v411h148l-56 -411h-92z" />
<glyph unicode="#" d="M51 479l28 128h130l57 298h-130l28 128h128l64 335h130l-64 -335h174l66 335h130l-64 -335h130l-29 -128h-126l-57 -298h127l-29 -128h-122l-69 -355h-131l68 355h-175l-67 -355h-130l67 355h-134zM339 607h177l57 298h-177z" />
<glyph unicode="$" d="M134 38l49 145q36 -24 95 -40.5t141 -20.5v594q-53 34 -104 73.5t-90.5 90.5t-64 118t-24.5 158q0 141 71.5 236t211.5 118v194h128v-188q83 -4 139 -16.5t104 -36.5l-48 -138q-37 19 -81.5 32t-113.5 17v-545q53 -39 106.5 -79.5t95 -92.5t67 -119t25.5 -156 q0 -153 -75 -260t-219 -137v-198h-128v187q-96 2 -167 18t-118 46zM296 1163q0 -92 44 -155t111 -114v476q-87 -17 -121 -78t-34 -129zM516 122q75 16 120 79t45 169q0 100 -47.5 164t-117.5 116v-528z" />
<glyph unicode="%" horiz-adv-x="1356" d="M118 0zM118 1154q0 98 20 167t57 113t87 63t108 19q57 0 107 -18t87.5 -59.5t58 -112t20.5 -172.5t-20.5 -172t-58 -111.5t-87.5 -60t-107 -18.5t-107.5 18.5t-87.5 60t-57 111.5t-20 172zM196 38l908 1480l99 -63l-908 -1481zM256 1154q0 -138 37 -191.5t97 -53.5 q30 0 54.5 11t41.5 37.5t26.5 74.5t9.5 122q0 73 -9.5 121t-26.5 75.5t-42 38.5t-54 11q-32 0 -56.5 -11t-41.5 -38.5t-26.5 -75.5t-9.5 -121zM744 364q0 98 20 167t57 113t87 63t108 19q57 0 107 -18t87.5 -59.5t58 -112t20.5 -172.5t-20.5 -172t-58 -111.5t-87.5 -60 t-107 -18.5t-107.5 18.5t-87.5 60t-57 111.5t-20 172zM882 364q0 -138 37 -191.5t97 -53.5q30 0 54.5 11t41.5 37.5t26.5 74.5t9.5 122q0 73 -9.5 121t-26.5 75.5t-42 38.5t-54 11q-32 0 -56.5 -11t-41.5 -38.5t-26.5 -75.5t-9.5 -121z" />
<glyph unicode="&#x26;" horiz-adv-x="1396" d="M193 400q0 86 26 161t67.5 140t95 119t108.5 96q-43 77 -74.5 157.5t-31.5 170.5q0 51 13.5 100t45.5 87.5t81 61.5t119 23q73 0 122.5 -21t80 -55t44 -77.5t13.5 -90.5q0 -92 -57.5 -188t-174.5 -188q28 -59 63 -124t74.5 -130t81 -128t81.5 -116q39 53 72.5 142.5 t55.5 172.5l124 -48q-10 -37 -30 -88t-42.5 -103t-46.5 -100t-45 -80q70 -83 118 -128.5t97 -80.5l-96 -111q-95 55 -209 199q-30 -39 -67.5 -74.5t-83 -63t-102 -44.5t-122.5 -17q-83 0 -156.5 27t-127.5 80t-85.5 133t-31.5 186zM347 402q0 -70 21.5 -124t58.5 -90.5 t85.5 -55.5t101.5 -19q40 0 80.5 14.5t75.5 38t63 52t47 59.5q-49 61 -96 131.5t-89.5 141t-78 136.5t-58.5 121q-44 -43 -82.5 -85.5t-67 -90.5t-45 -104t-16.5 -125zM537 1244q0 -64 20 -125.5t52 -126.5q88 75 120.5 137t32.5 111q0 59 -24.5 102.5t-87.5 43.5 q-59 0 -86 -40.5t-27 -101.5z" />
<glyph unicode="'" horiz-adv-x="384" d="M153 1080v411h148l-56 -411h-92z" />
<glyph unicode="(" horiz-adv-x="496" d="M102 518q0 117 15 246.5t49.5 260.5t90.5 257t137 234l96 -57q-69 -108 -113.5 -227.5t-71 -242t-38 -243t-11.5 -228.5q0 -102 12.5 -224.5t41.5 -246.5t73.5 -241t106.5 -211l-100 -64q-81 102 -135 224.5t-88.5 251.5t-49.5 260t-15 251z" />
<glyph unicode=")" horiz-adv-x="498" d="M8 1457l96 59q79 -102 136.5 -224.5t91.5 -251t49 -259.5t15 -251q0 -117 -15 -247t-49 -260.5t-90.5 -256.5t-137.5 -235l-94 60q69 108 113.5 228t71.5 241t37 241.5t10 228.5q0 102 -13.5 225t-42 247t-72 242.5t-106.5 212.5z" />
<glyph unicode="*" horiz-adv-x="618" d="M63 1182v109h95l106 -23l-81 87l-47 86l94 57l42 -82l33 -111l34 111l45 80l93 -51l-49 -86l-81 -91l117 23h89v-109h-82l-115 23l83 -93l43 -75l-92 -53l-45 81l-40 117l-33 -113l-44 -79l-94 54l49 80l75 81l-100 -23h-95z" />
<glyph unicode="+" horiz-adv-x="882" d="M73 656v139h295v331h146v-331h295v-139h-295v-337h-146v337h-295z" />
<glyph unicode="," horiz-adv-x="344" d="M66 -240q28 14 52 38.5t40.5 54t24.5 63t8 65.5q-42 -12 -78 17.5t-36 93.5q0 53 30.5 85t79.5 32q55 0 90.5 -44.5t35.5 -140.5q0 -71 -18 -127.5t-47 -99t-63 -70.5t-65 -40z" />
<glyph unicode="-" horiz-adv-x="618" d="M100 535v146h420v-146h-420z" />
<glyph unicode="." horiz-adv-x="329" d="M83 96q0 59 28.5 89t77.5 30t78 -29.5t29 -89.5q0 -62 -29 -92t-78 -30t-77.5 30t-28.5 92z" />
<glyph unicode="/" horiz-adv-x="628" d="M-59 -254l626 1770l118 -46l-622 -1768z" />
<glyph unicode="0" d="M81 746q0 205 25.5 351.5t76.5 239t126 136t170 43.5q102 0 178 -43.5t125 -136t72.5 -239.5t23.5 -351q0 -207 -25.5 -352.5t-77 -239t-125 -137t-168.5 -43.5q-104 0 -180 44.5t-125 139t-72.5 240t-23.5 348.5zM240 746q0 -305 58 -469t186 -164q123 0 179.5 150 t56.5 483q0 302 -54 467t-187 165q-123 0 -181 -148.5t-58 -483.5z" />
<glyph unicode="1" d="M128 1154l388 362h78v-1374h233v-142h-626v142h240v1038l19 125l-72 -102l-179 -144z" />
<glyph unicode="2" d="M118 0v69q40 49 92 123t108 162.5t111 187.5t97.5 201.5t69 202.5t26.5 192q0 108 -49 174t-147 66q-61 0 -119.5 -23.5t-101.5 -57.5l-60 111q59 51 141 79.5t174 28.5q158 0 240 -96.5t82 -254.5q0 -118 -35.5 -245.5t-89.5 -252t-120 -239.5t-130 -204l-88 -94v-6 l114 18h374v-142h-689z" />
<glyph unicode="3" d="M156 24l42 138q40 -24 92.5 -36.5t120.5 -12.5q57 0 105.5 23.5t83 66t54 101t19.5 129.5q0 158 -69 230t-193 72h-128v62l247 477l84 89l-118 -15h-334v143h618v-62l-274 -509l-63 -62v-4l61 13q66 0 126.5 -27t102.5 -79t68 -128.5t26 -179.5q0 -115 -33.5 -204 t-89.5 -150t-132 -93t-161 -32q-75 0 -140.5 13t-114.5 37z" />
<glyph unicode="4" d="M43 458v72l564 984h113v-918h198v-138h-198v-458h-149v458h-528zM207 581l116 15h248v477l21 183h-6l-64 -163l-235 -408z" />
<glyph unicode="5" d="M136 15l39 136q38 -19 85 -26t108 -7q122 0 197.5 88t77.5 247q-2 165 -77.5 243.5t-209.5 78.5l-141 -11v727h545v-149h-404v-435l72 7q171 -2 269 -117.5t100 -329.5q-2 -120 -35.5 -211.5t-90.5 -154.5t-134 -95t-165 -32q-146 0 -236 41z" />
<glyph unicode="6" d="M108 500q0 226 46.5 403t125 304.5t185 205.5t228.5 103l42 -123q-95 -26 -174 -85.5t-139 -145t-99.5 -192t-54.5 -226.5q28 57 93 99.5t161 42.5q153 0 245.5 -108.5t94.5 -328.5q-2 -106 -26.5 -194.5t-72 -150t-117 -96t-156.5 -34.5q-179 0 -280.5 130t-101.5 396z M258 526.5q0 -26.5 2 -49.5q-2 -70 11.5 -135t42.5 -116t73 -82t103 -31q96 0 156.5 85.5t60.5 236.5q0 313 -225 313q-82 0 -139.5 -51t-80.5 -116q-4 -28 -4 -54.5z" />
<glyph unicode="7" d="M120 1344v147h726v-58l-490 -1433h-153l429 1258l77 105l-102 -19h-487z" />
<glyph unicode="8" d="M124 345q0 143 58 243t174 181q-43 32 -80.5 67.5t-65 80t-43.5 99.5t-16 128q0 173 90.5 272.5t248.5 99.5q146 0 232.5 -90.5t86.5 -247.5q0 -121 -46.5 -215t-146.5 -183q44 -32 85 -70.5t71.5 -86.5t47.5 -109t17 -140q0 -181 -97 -290.5t-269 -109.5q-83 0 -147 28 t-108.5 77t-68 117t-23.5 149zM270 368q0 -108 53 -181.5t156 -73.5q84 0 144 60.5t60 192.5q0 66 -18.5 117.5t-51 91t-73 72t-84.5 62.5q-98 -73 -142 -162t-44 -179zM301 1148q0 -57 17 -103t46.5 -83t68 -68t81.5 -59q73 73 110.5 146.5t37.5 162.5q0 118 -52 176 t-122 58q-45 0 -80.5 -18t-58.5 -50t-35.5 -73.5t-12.5 -88.5z" />
<glyph unicode="9" horiz-adv-x="959" d="M98 1039q0 221 94.5 349t282.5 128q179 0 278 -132t99 -404q0 -241 -45 -418.5t-123.5 -300.5t-185 -193t-230.5 -94l-40 126q205 53 317.5 214t142.5 404q-44 -62 -98.5 -87.5t-144.5 -25.5q-69 0 -131 26.5t-110 80.5t-77 136.5t-29 190.5zM254 1057q0 -151 61 -232 t164 -81q82 0 138 34.5t82 90.5q4 29 4 53.5v48.5q0 81 -14 154.5t-42.5 130t-73.5 89.5t-106 33q-100 0 -156.5 -87.5t-56.5 -233.5z" />
<glyph unicode=":" horiz-adv-x="404" d="M162 0zM162 96q0 59 28.5 89t77.5 30t78 -29.5t29 -89.5q0 -62 -29 -92t-78 -30t-77.5 30t-28.5 92zM162 954q0 59 28.5 89t77.5 30t78 -29.5t29 -89.5q0 -62 -29 -92t-78 -30t-77.5 30t-28.5 92z" />
<glyph unicode=";" horiz-adv-x="459" d="M149 0zM149 -240q28 14 52 38.5t40.5 54t24.5 63t8 65.5q-42 -12 -78 17.5t-36 93.5q0 53 30.5 85t79.5 32q55 0 90.5 -44.5t35.5 -140.5q0 -71 -18 -127.5t-47 -99t-63 -70.5t-65 -40zM181 954q0 59 28.5 89t77.5 30t78 -29.5t29 -89.5q0 -62 -29 -92t-78 -30t-77.5 30 t-28.5 92z" />
<glyph unicode="&#x3c;" horiz-adv-x="882" d="M77 650v61l639 476l83 -116l-407 -309l-158 -81l156 -67l417 -307l-81 -116z" />
<glyph unicode="=" horiz-adv-x="882" d="M75 477v143h732v-143h-732zM75 477zM75 829v143h732v-143h-732z" />
<glyph unicode="&#x3e;" horiz-adv-x="882" d="M77 307l417 307l156 67l-158 81l-407 309l83 116l639 -476v-61l-649 -459z" />
<glyph unicode="?" horiz-adv-x="760" d="M66 1419q63 42 139 69.5t185 27.5q153 0 232 -89.5t79 -244.5q0 -91 -23.5 -164t-57.5 -133t-75 -116t-75.5 -114.5t-58 -125.5t-23.5 -153h-128q-6 94 12 167t50 133.5t69 113.5t71 110t56.5 119.5t22.5 141.5q0 97 -42.5 157t-144.5 60q-62 0 -121.5 -22.5 t-106.5 -56.5zM228 96q0 59 28.5 89t78.5 30q49 0 77.5 -29.5t28.5 -89.5q0 -62 -28.5 -92t-77.5 -30t-78 30t-29 92z" />
<glyph unicode="@" horiz-adv-x="1825" d="M145 502q0 220 65 393.5t174.5 292.5t256.5 183t311 64q158 0 291 -46.5t230.5 -140.5t152.5 -232t55 -321q0 -147 -38.5 -273t-103.5 -217.5t-151.5 -144t-184.5 -52.5q-40 0 -73 11t-53 36.5t-29 68t0 104.5h-9q-24 -43 -55.5 -82.5t-68.5 -70t-81 -49t-90 -18.5 q-90 0 -153 80t-63 231q0 158 35 294.5t96 236.5t142 156.5t172 56.5q62 0 101.5 -21.5t75.5 -57.5l53 62h71l-87 -620q-19 -142 -12 -211.5t63 -69.5q55 0 110.5 36t99 106.5t70 173t26.5 234.5q0 151 -43.5 264.5t-121.5 190.5t-188.5 116t-245.5 39q-138 0 -259 -56 t-210.5 -160.5t-142 -249t-52.5 -323.5q0 -185 47.5 -322t135 -228.5t207 -136t264.5 -44.5q51 0 118 13t116 38l38 -119q-72 -34 -143.5 -48t-149.5 -14q-156 0 -295.5 48.5t-245 152t-167 264.5t-61.5 382zM675 356q0 -96 29 -152.5t97 -56.5q32 0 66 23t67 60.5 t62.5 84.5t51.5 94l58 443q-29 38 -57.5 55.5t-70.5 17.5q-64 0 -119.5 -48t-96 -128t-64 -182.5t-23.5 -210.5z" />
<glyph unicode="A" horiz-adv-x="1006" d="M10 0l450 1514h87l449 -1514h-165l-122 417h-422l-119 -417h-158zM330 561h341l-130 459l-41 224h-4l-40 -228z" />
<glyph unicode="B" horiz-adv-x="1002" d="M136 10v1468q64 12 150 21t187 9q73 0 145.5 -14t129.5 -52t92.5 -107t35.5 -183q0 -55 -13 -110.5t-40.5 -104.5t-69.5 -87.5t-101 -57.5v-8q51 -10 98 -35t83 -69t57.5 -106t21.5 -150q0 -115 -36.5 -199.5t-99.5 -137.5t-145 -78.5t-173 -25.5h-70t-83.5 3.5t-88 8.5 t-80.5 15zM296 145q13 -5 33 -7t44.5 -4t50.5 -3t47 -1q57 0 106 18t86.5 54t59 88.5t21.5 122.5q0 87 -26.5 141.5t-69.5 84.5t-97.5 41t-111.5 11h-143v-546zM296 829h88q30 0 68 2t64 6q79 32 135 103.5t56 175.5q0 71 -19 118.5t-52 75t-77.5 39.5t-94.5 12 q-55 0 -100 -3t-68 -8v-521z" />
<glyph unicode="C" horiz-adv-x="974" d="M92 746q0 213 43.5 359.5t115.5 238t167.5 132t195.5 40.5q102 0 169 -14.5t116 -36.5l-39 -144q-43 24 -100 36.5t-132 12.5t-140.5 -33.5t-117 -107t-81 -192.5t-29.5 -291q0 -311 106.5 -467.5t283.5 -156.5q73 0 130 20t98 47l38 -132q-53 -45 -134 -64t-170 -19 q-114 0 -209.5 42.5t-165 135.5t-107.5 240t-38 354z" />
<glyph unicode="D" horiz-adv-x="1118" d="M136 -2v1493q35 7 76.5 10t84 4t84 2t77.5 1q156 0 264.5 -53t176.5 -152.5t97.5 -237.5t29.5 -309q0 -153 -28.5 -294t-96.5 -247.5t-180 -170t-280 -63.5q-28 0 -70.5 1t-88.5 4.5t-85 5.5t-61 6zM296 136q9 -2 31 -3t46.5 -2t47 -2t32.5 -1q118 0 196.5 51t124.5 137 t65 200t19 242q0 114 -16.5 222.5t-60.5 192t-119 136t-195 52.5h-46t-48.5 -2t-43.5 -4.5t-33 -4.5v-1214z" />
<glyph unicode="E" horiz-adv-x="913" d="M136 0v1491h663v-147h-503v-505h462v-146h-462v-546h513v-147h-673z" />
<glyph unicode="F" horiz-adv-x="878" d="M136 0v1491h663v-147h-503v-527h468v-146h-468v-671h-160z" />
<glyph unicode="G" horiz-adv-x="1047" d="M92 746q0 209 44.5 354.5t120 238t172.5 135t199 42.5t171.5 -13.5t118.5 -37.5l-38 -144q-43 24 -101.5 36.5t-135.5 12.5q-75 0 -142.5 -32.5t-122.5 -105.5t-86.5 -192.5t-31.5 -293.5q0 -320 101 -472t278 -152q110 0 184 53v434l-276 41v94h412v-657 q-59 -55 -153.5 -84t-189.5 -29q-120 0 -216.5 44.5t-165 140t-105.5 240t-37 347.5z" />
<glyph unicode="H" horiz-adv-x="1140" d="M136 0v1491h160v-656h550v656h160v-1491h-160v688h-550v-688h-160z" />
<glyph unicode="I" horiz-adv-x="496" d="M168 0v1491h160v-1491h-160z" />
<glyph unicode="J" horiz-adv-x="512" d="M-55 12l34 139q21 -13 47.5 -19t54.5 -6q39 0 62 17t35.5 48t16 74.5t3.5 98.5v1127h160v-1156q0 -175 -56.5 -265.5t-197.5 -90.5q-34 0 -82 8.5t-77 24.5z" />
<glyph unicode="K" horiz-adv-x="1049" d="M136 0v1491h160v-694l74 30l388 664h183l-390 -643l-74 -68l88 -85l431 -695h-201l-423 691h-76v-691h-160z" />
<glyph unicode="L" horiz-adv-x="882" d="M136 0v1491h160v-1344h558v-147h-718z" />
<glyph unicode="M" horiz-adv-x="1356" d="M136 0v1491h134l360 -733l53 -175h5l51 177l341 731h141v-1491h-160v980l19 225h-9l-67 -211l-301 -647h-53l-315 647l-67 211h-8l30 -225v-980h-154z" />
<glyph unicode="N" horiz-adv-x="1145" d="M136 0v1514h96l552 -967l88 -224h8l-24 224v944h154v-1515h-98l-548 969l-92 235h-6l24 -235v-945h-154z" />
<glyph unicode="O" horiz-adv-x="1168" d="M92 746q0 379 121.5 574.5t369.5 195.5q135 0 228.5 -54t152 -154.5t86 -243t27.5 -318.5q0 -380 -122 -576t-372 -196q-132 0 -225.5 54.5t-153 154.5t-86 243t-26.5 320zM260 746q0 -126 18 -239t56 -198t100 -136t149 -51q161 0 243.5 153t82.5 471q0 123 -17.5 236 t-56 199.5t-100.5 137.5t-152 51q-158 0 -240.5 -153.5t-82.5 -470.5z" />
<glyph unicode="P" horiz-adv-x="959" d="M136 0v1476q69 18 145.5 25t151.5 7q85 0 167.5 -19t149.5 -70t109 -140.5t42 -228.5q0 -134 -39 -228t-104 -152t-149.5 -85t-173.5 -27h-28t-40.5 1.5t-41.5 3.5t-29 4v-567h-160zM296 713q9 -4 27 -5t37.5 -2t37 -1h26.5q60 0 115 15t97.5 54t69.5 106t27 170 q0 90 -25 149t-64 95.5t-92.5 51.5t-110.5 15q-43 0 -82.5 -3t-62.5 -10v-635z" />
<glyph unicode="Q" horiz-adv-x="1168" d="M92 746q0 379 121.5 574.5t369.5 195.5q135 0 228.5 -54t152 -154.5t86 -243t27.5 -318.5q0 -380 -122 -576t-372 -196q-132 0 -225.5 54.5t-153 154.5t-86 243t-26.5 320zM260 746q0 -126 18 -239t56 -198t100 -136t149 -51q161 0 243.5 153t82.5 471q0 123 -17.5 236 t-56 199.5t-100.5 137.5t-152 51q-158 0 -240.5 -153.5t-82.5 -470.5zM362 -106q47 12 94 12q70 0 141.5 -21t143.5 -46.5t150 -47t161 -21.5q77 0 153 21v-145q-42 -14 -81.5 -20t-79.5 -6q-85 0 -167 22.5t-158 48.5t-146.5 48.5t-133.5 22.5q-39 0 -77 -14v146z" />
<glyph unicode="R" horiz-adv-x="1022" d="M136 0v1476q71 16 154.5 24t154.5 8q83 0 157.5 -20.5t130 -68t88.5 -125.5t33 -195q0 -177 -73.5 -283.5t-194.5 -142.5l81 -79l294 -594h-186l-319 650l-160 31v-681h-160zM296 788h128q122 0 191.5 74.5t69.5 228.5q0 117 -58 193.5t-174 76.5q-42 0 -88 -3t-69 -10 v-560z" />
<glyph unicode="S" horiz-adv-x="911" d="M71 51l55 147q40 -28 113.5 -52t167.5 -24q119 0 193.5 58t74.5 184q0 83 -42.5 145t-106.5 114t-137.5 102t-137.5 110.5t-106.5 140t-42.5 189.5q0 179 107.5 265t280.5 86q106 0 189 -19t134 -48l-51 -142q-38 24 -109.5 43.5t-164.5 19.5q-116 0 -171 -57t-55 -142 q0 -75 42.5 -132t106.5 -108t137.5 -103.5t137.5 -116t106.5 -144.5t42.5 -193q0 -187 -110.5 -293.5t-313.5 -106.5q-128 0 -209.5 23.5t-130.5 53.5z" />
<glyph unicode="T" horiz-adv-x="951" d="M30 1344v147h892v-147h-366v-1344h-160v1344h-366z" />
<glyph unicode="U" horiz-adv-x="1109" d="M136 458v1033h160v-950q0 -116 15 -194.5t49 -127t85 -70t126 -21.5q140 0 194.5 97.5t54.5 315.5v950h153v-999q0 -270 -105.5 -390.5t-298.5 -120.5q-226 0 -329.5 117t-103.5 360z" />
<glyph unicode="V" horiz-adv-x="985" d="M-4 1491h177l291 -1020l38 -229h4l43 233l278 1016h163l-451 -1515h-86z" />
<glyph unicode="W" horiz-adv-x="1431" d="M10 1491h173l205 -987l25 -248h4l26 253l238 982h92l239 -985l25 -250h2l30 253l189 982h161l-333 -1515h-98l-236 983l-30 228h-6l-31 -230l-236 -981h-100z" />
<glyph unicode="X" horiz-adv-x="1064" d="M41 0l392 758l-358 733h191l232 -505l43 -126l42 126l246 505h177l-372 -718l388 -773h-187l-258 535l-49 132l-44 -132l-265 -535h-178z" />
<glyph unicode="Y" horiz-adv-x="968" d="M10 1491h188l269 -650l27 -130h4l28 135l260 645h173l-392 -897v-594h-160v592z" />
<glyph unicode="Z" horiz-adv-x="934" d="M61 0v147l593 1111l70 86h-663v147h813v-147l-595 -1118l-68 -79h663v-147h-813z" />
<glyph unicode="[" horiz-adv-x="527" d="M136 -490v1981h333v-139h-179v-1704h179v-138h-333z" />
<glyph unicode="\" horiz-adv-x="672" d="M-59 1467l130 49l632 -1766l-128 -48z" />
<glyph unicode="]" horiz-adv-x="529" d="M61 -352h179v1704h-179v139h333v-1981h-333v138z" />
<glyph unicode="^" horiz-adv-x="876" d="M85 927l322 587h64l295 -587h-159l-132 287l-38 147l-51 -149l-154 -285h-147z" />
<glyph unicode="_" horiz-adv-x="711" d="M0 -298h711v-139h-711v139z" />
<glyph unicode="`" horiz-adv-x="542" d="M128 1489v45h177l110 -318h-87z" />
<glyph unicode="a" horiz-adv-x="851" d="M61 285q0 91 31.5 153t87.5 100.5t134 54.5t174 16h42t45 -2q6 66 6 117q0 122 -36 170.5t-132 48.5q-59 0 -129.5 -18t-117.5 -45l-51 122q62 38 150.5 59t185.5 21q90 0 144.5 -26.5t85 -72.5t40 -104.5t9.5 -122.5q0 -128 -5 -249t-5 -230q0 -81 5 -150.5t21 -130.5 h-118l-36 126h-9q-32 -55 -93.5 -96t-166.5 -41q-115 0 -188.5 80t-73.5 220zM222 303q0 -86 41.5 -132.5t106.5 -46.5q90 0 139 42.5t68 93.5v226q-21 2 -42 3t-43 1q-51 0 -100 -8.5t-87.5 -29.5t-60.5 -57.5t-22 -91.5z" />
<glyph unicode="b" horiz-adv-x="923" d="M126 55v1436h153v-507h6q87 106 233 107q164 0 246 -130t82 -412q0 -287 -110 -427.5t-310 -140.5q-97 0 -178.5 22.5t-121.5 51.5zM279 156q30 -17 73.5 -26.5t92.5 -9.5q110 0 175 105t65 324q0 92 -11.5 165.5t-35.5 126.5t-63.5 82t-95.5 29q-77 0 -126.5 -46 t-73.5 -124v-626z" />
<glyph unicode="c" horiz-adv-x="758" d="M79 532q0 273 96.5 416t277.5 143q84 0 143.5 -15t102.5 -39l-43 -134q-85 49 -185 49q-115 0 -174 -101t-59 -319q0 -87 13 -163.5t42.5 -133t76.5 -89.5t118 -33q55 0 103 19t78 45l44 -124q-53 -41 -121 -60t-143 -19q-102 0 -172 39.5t-113.5 113.5t-64 177 t-20.5 228z" />
<glyph unicode="d" horiz-adv-x="921" d="M79 530q0 273 103 413.5t285 140.5q61 0 97.5 -7.5t78.5 -24.5v439h154v-1125q0 -108 2 -196.5t14 -173.5h-104l-34 128h-8q-31 -64 -94.5 -107t-153.5 -43q-173 0 -256.5 134t-83.5 422zM238 528q0 -93 12 -169t36.5 -131t64 -85t96.5 -30q153 0 196 181v602 q-30 26 -67 37.5t-99 11.5q-113 0 -176 -101.5t-63 -315.5z" />
<glyph unicode="e" horiz-adv-x="878" d="M79 532q0 273 100 416t283 143q59 0 118 -15t106 -60t75.5 -126t28.5 -211q0 -36 -3 -77t-7 -86h-542q0 -92 15 -166.5t47 -126.5t82.5 -81t123.5 -29q58 0 114.5 21.5t86.5 50.5l55 -112q-51 -47 -130 -73t-165 -26q-100 0 -174 39.5t-121.5 113.5t-70 176t-22.5 229z M240 643h403v24q0 143 -45 211q-49 74 -134 74q-98 0 -155 -74.5t-69 -234.5z" />
<glyph unicode="f" horiz-adv-x="547" d="M34 927v138h130v59q0 201 57.5 290.5t195.5 89.5q55 0 100.5 -6.5t91.5 -27.5l-38 -133q-39 17 -71.5 23t-62.5 6q-43 0 -66.5 -17.5t-35.5 -54t-15 -92.5t-3 -137h222v-138h-222v-927h-153v927h-130z" />
<glyph unicode="g" horiz-adv-x="919" d="M79 528q0 275 105.5 415.5t311.5 140.5q100 0 173 -19t128 -45v-1069q0 -207 -91.5 -304.5t-266.5 -97.5q-106 0 -174.5 18t-111.5 41l45 132q42 -19 93.5 -36t125.5 -17q130 0 178 72.5t48 242.5v79h-7q-34 -49 -87 -77t-136 -28q-173 0 -253.5 133t-80.5 419zM238 530 q0 -89 11 -164.5t36.5 -132t65 -87.5t96.5 -31q81 0 128 43t68 127v627q-62 33 -158 33h-6q-108 0 -174.5 -98.5t-66.5 -316.5z" />
<glyph unicode="h" horiz-adv-x="937" d="M126 0v1491h153v-526h6q43 55 105.5 90.5t156.5 35.5q71 0 123 -19.5t86 -66t51.5 -124.5t17.5 -193v-688h-154v648q0 149 -35 226.5t-140 77.5q-75 0 -135 -53t-82 -135v-764h-153z" />
<glyph unicode="i" horiz-adv-x="461" d="M124 1388q0 51 28.5 83.5t75.5 32.5t78 -31.5t31 -84.5q0 -51 -31 -79.5t-78 -28.5t-75.5 30t-28.5 78zM151 0v1065h154v-1065h-154z" />
<glyph unicode="j" horiz-adv-x="457" d="M8 -309q47 0 76 19.5t45 59t20 97.5t4 137v1061h154v-1122q0 -220 -71 -317q-56 -78 -169 -78q-28 0 -59 5v138zM124 1388q0 51 28.5 83.5t75.5 32.5t78 -31.5t31 -84.5q0 -51 -31 -79.5t-78 -28.5t-75.5 30t-28.5 78z" />
<glyph unicode="k" horiz-adv-x="825" d="M126 0v1491h153v-908l70 31l249 451h177l-251 -431l-75 -67l88 -83l274 -484h-185l-268 479h-79v-479h-153z" />
<glyph unicode="l" horiz-adv-x="496" d="M136 203v1288h154v-1237q0 -75 20 -107t56 -32q45 0 105 23l15 -123q-28 -17 -78 -28t-91 -11q-81 0 -131 50.5t-50 176.5z" />
<glyph unicode="m" horiz-adv-x="1386" d="M126 0v1065h108l28 -113h6q45 61 107 100t157 39q82 0 134 -35.5t82 -124.5q38 75 109.5 117.5t156.5 42.5q71 0 121 -18t80.5 -64t45.5 -122t15 -190v-697h-154v677q0 138 -26.5 206.5t-122.5 68.5q-81 0 -128.5 -50t-66.5 -136v-766h-154v632q0 86 -5 146.5t-22.5 99 t-47 56.5t-78.5 18q-73 0 -123 -56.5t-69 -129.5v-766h-153z" />
<glyph unicode="n" horiz-adv-x="934" d="M126 0v1065h110l28 -113h6q41 57 110 98t165 41q69 0 121 -19.5t87 -65t53.5 -122.5t18.5 -193v-691h-154v650q0 160 -37.5 231t-133.5 71q-85 0 -140 -51t-81 -126v-775h-153z" />
<glyph unicode="o" horiz-adv-x="919" d="M79 532q0 288 99 423.5t282 135.5q195 0 288 -139t93 -420q0 -290 -100 -424t-281 -134q-196 0 -288.5 139t-92.5 419zM238 532q0 -93 12 -170t38.5 -132t69 -86t102.5 -31q110 0 165.5 99t55.5 320q0 92 -11.5 170t-38 133t-69 86t-102.5 31q-108 0 -165 -100t-57 -320z " />
<glyph unicode="p" horiz-adv-x="925" d="M126 -426v1491h108l24 -115h8q79 140 248 141q168 0 252 -126t84 -412q0 -134 -27.5 -241t-78.5 -183t-125 -115.5t-163 -39.5q-62 0 -98.5 8t-78.5 30v-438h-153zM279 168q30 -26 67.5 -40.5t98.5 -14.5q113 0 179.5 115t66.5 328q0 90 -12 162t-37.5 124t-65 81 t-97.5 29q-156 0 -200 -190v-594z" />
<glyph unicode="q" horiz-adv-x="919" d="M79 528q0 275 108.5 415.5t314.5 140.5q90 0 171 -21.5t124 -44.5v-1444h-154v513h-9q-34 -53 -86 -83t-135 -30q-169 0 -251.5 135.5t-82.5 418.5zM238 530q0 -89 11 -166t35.5 -133t64 -87t96.5 -31q81 0 128 47t70 136v613q-60 36 -168 36q-110 0 -173.5 -101.5 t-63.5 -313.5z" />
<glyph unicode="r" horiz-adv-x="583" d="M126 0v1065h108l28 -113h6q30 61 78 96.5t116 35.5q49 0 111 -19l-30 -156q-55 19 -98 20q-69 0 -111 -39.5t-55 -105.5v-784h-153z" />
<glyph unicode="s" horiz-adv-x="719" d="M61 41l47 134q43 -26 101.5 -44t120.5 -18q70 0 119 35t49 114q0 66 -29.5 108.5t-75.5 77t-99.5 63t-99 69t-75.5 95.5t-30 140q0 137 73.5 206.5t207.5 69.5q88 0 152 -16t110 -44l-40 -128q-41 21 -94 35t-108 14q-77 0 -112.5 -32t-35.5 -100q0 -54 30.5 -90.5 t76 -68t98.5 -63t99 -75.5t76 -104.5t30 -152.5q0 -59 -19 -112.5t-58.5 -93t-98.5 -63t-137 -23.5q-94 0 -162.5 18t-115.5 49z" />
<glyph unicode="t" horiz-adv-x="585" d="M19 927v138h130v211l154 49v-260h229v-138h-229v-635q0 -93 22 -135t73 -42q43 0 73.5 9.5t67.5 24.5l30 -121q-47 -24 -103.5 -38t-118.5 -14q-106 0 -152 69.5t-46 224.5v657h-130z" />
<glyph unicode="u" horiz-adv-x="923" d="M110 374v691h154v-652q0 -162 33 -231t120 -69q45 0 80 18t63 48t49 68t34 79v739h154v-762q0 -77 5 -159.5t15 -143.5h-108l-38 149h-6q-37 -71 -105 -123t-170 -52q-69 0 -120 17t-87 62t-54.5 123t-18.5 198z" />
<glyph unicode="v" horiz-adv-x="825" d="M8 1065h175l201 -624l42 -211h5l38 215l187 620h161l-364 -1089h-73z" />
<glyph unicode="w" horiz-adv-x="1256" d="M10 1065h165l164 -620l25 -207h4l39 211l174 616h114l189 -622l38 -205h5l32 209l144 618h145l-283 -1089h-87l-216 699l-30 179h-4l-30 -181l-208 -697h-87z" />
<glyph unicode="x" horiz-adv-x="876" d="M41 0l302 545l-282 520h184l157 -305l43 -119l45 119l162 305h168l-283 -512l300 -553h-175l-178 335l-47 127l-49 -127l-179 -335h-168z" />
<glyph unicode="y" horiz-adv-x="800" d="M15 1065h174l201 -689l45 -205h10l32 205l162 689h156l-254 -957q-30 -115 -60 -215t-64.5 -173.5t-78.5 -115t-104 -41.5q-59 0 -104 20l26 145q30 -11 59.5 -4.5t56 36t49 88t39.5 152.5z" />
<glyph unicode="z" horiz-adv-x="766" d="M69 0v138l395 697l75 92h-470v138h622v-138l-399 -703l-73 -86h472v-138h-622z" />
<glyph unicode="{" horiz-adv-x="600" d="M92 433v138q65 0 100.5 42.5t35.5 136.5v526q0 100 39.5 158.5t128.5 58.5h157v-138h-82q-49 0 -69 -27t-20 -95v-520q0 -93 -35.5 -142t-84.5 -59v-14q49 -8 84.5 -65t35.5 -146v-517q0 -65 20 -93.5t71 -28.5h80v-138h-157q-168 0 -168 215v517q0 108 -35 149.5 t-101 41.5z" />
<glyph unicode="|" horiz-adv-x="404" d="M138 -277v1768h130v-1768h-130z" />
<glyph unicode="}" horiz-adv-x="600" d="M47 -352h81q51 0 71 28t20 94v517q0 89 35.5 146t84.5 65v14q-49 10 -84.5 59t-35.5 142v520q0 69 -20 95.5t-69 26.5h-83v138h158q89 0 128 -58.5t39 -158.5v-526q0 -94 35.5 -136.5t101.5 -42.5v-138q-66 0 -101.5 -40.5t-35.5 -150.5v-517q0 -215 -167 -215h-158v138z " />
<glyph unicode="~" horiz-adv-x="882" d="M49 769q77 70 139 97.5t115 27.5q49 0 91.5 -18t81 -38.5t75.5 -38t75 -17.5q30 0 64 14.5t70 55.5l73 -128q-69 -57 -122 -79.5t-97 -22.5q-47 0 -86.5 18t-77 40.5t-74.5 40.5t-78 18q-38 0 -81.5 -21t-96.5 -75z" />
<glyph unicode="&#xa1;" horiz-adv-x="525" d="M187 0zM187 961q0 -59 29 -89t78 -30t77.5 29.5t28.5 89.5q0 62 -28.5 92t-77.5 30t-78 -30t-29 -92zM215 305v-739h159v739l-31 376h-95z" />
<glyph unicode="&#xa2;" d="M162 532q0 243 80.5 384t234.5 168v194h139v-189q57 -4 101.5 -17t81.5 -35l-41 -134q-34 18 -73 30t-82 17v-837q53 5 96 24t72 42l42 -122q-38 -32 -90 -50.5t-107 -25.5v-194h-139v192q-87 13 -147 57.5t-97 116t-54 168t-17 211.5zM321 532q0 -76 10 -143.5 t31.5 -120.5t55 -91.5t82.5 -52.5v819q-91 -24 -135 -123.5t-44 -287.5z" />
<glyph unicode="&#xa3;" d="M89 0v147h5q53 2 91.5 28t64 67t37 93.5t11.5 103.5q0 73 -13 127t-29 107h-167v138h118q-21 62 -36 133.5t-15 167.5q0 207 96.5 305.5t263.5 98.5q104 0 180.5 -17t130.5 -42l-52 -140q-41 20 -103.5 36.5t-151.5 16.5q-98 0 -151.5 -66t-53.5 -198q0 -90 18.5 -159 t40.5 -136h272v-138h-222q15 -49 24.5 -101t9.5 -121q0 -61 -18 -133.5t-50 -116.5l-83 -75v-8l126 29h429v-147h-773z" />
<glyph unicode="&#xa4;" d="M6 382l145 146l64 41q-59 79 -59 193q0 55 15.5 103.5t43.5 89.5l-64 39l-145 148l92 91l147 -142l40 -67q79 62 194 62q56 0 105.5 -15.5t88.5 -46.5l40 67l149 142l90 -91l-143 -148l-65 -39q59 -83 59 -193q0 -119 -59 -193l65 -41l143 -146l-90 -92l-149 145l-38 63 q-83 -59 -196 -59q-115 0 -194 59l-40 -63l-147 -145zM287 762q0 -87 53.5 -143t138.5 -56q86 0 140 56t54 143q0 84 -54 141.5t-140 57.5q-85 0 -138.5 -57.5t-53.5 -141.5z" />
<glyph unicode="&#xa5;" d="M6 1491h187l269 -650l28 -130h4l28 135l260 645h173l-350 -796h170v-124h-212v-152h212v-123h-212v-296h-161v296h-213v123h213v152h-213v124h169z" />
<glyph unicode="&#xa6;" horiz-adv-x="402" d="M136 -277v730h130v-730h-130zM136 760v731h130v-731h-130z" />
<glyph unicode="&#xa7;" horiz-adv-x="862" d="M96 752q0 65 27.5 130t77.5 114l71 33q-46 36 -79 87t-33 140q0 114 71.5 187t211.5 73q89 0 155.5 -17t112.5 -40l-38 -132q-45 21 -99 36t-114 15q-77 0 -112 -36.5t-35 -89.5q0 -55 34.5 -89.5t84.5 -61t108 -52t108.5 -64t84 -96.5t33.5 -150q0 -65 -25 -132.5 t-74 -116.5l-77 -30q44 -35 78.5 -87t34.5 -139q0 -128 -80 -194t-210 -66q-90 0 -153.5 16t-110.5 46l40 130q41 -24 94.5 -38.5t112.5 -14.5q153 0 153 129q0 51 -33.5 84.5t-83.5 60t-109 52t-109 65t-84 98t-34 150.5zM250 756q0 -49 20 -84.5t54 -62t77.5 -46.5 t90.5 -41q47 30 84.5 87.5t37.5 125.5q0 51 -20.5 85t-55 58.5t-78 44.5t-90.5 42q-51 -30 -85.5 -81t-34.5 -128z" />
<glyph unicode="&#xa8;" horiz-adv-x="776" d="M128 1390q0 49 24.5 77.5t66.5 28.5q43 0 67.5 -28.5t24.5 -77.5q0 -44 -24.5 -71.5t-67.5 -27.5q-42 0 -66.5 27.5t-24.5 71.5zM467 1390q0 49 24.5 77.5t66.5 28.5q43 0 67.5 -28.5t24.5 -77.5q0 -44 -24.5 -71.5t-67.5 -27.5q-42 0 -66.5 27.5t-24.5 71.5z" />
<glyph unicode="&#xa9;" horiz-adv-x="1475" d="M106 624q0 149 50.5 266.5t137 198t201 124t244.5 43.5t245 -43.5t201.5 -124t136.5 -198t50 -266.5t-50 -266.5t-136.5 -199t-201.5 -124t-245 -42.5q-144 0 -260.5 42.5t-199.5 124t-128 199t-45 266.5zM234 624q0 -124 39.5 -219.5t107.5 -160.5t159.5 -99.5 t198.5 -34.5q104 0 197 34.5t161 99.5t107.5 160.5t39.5 219.5t-39.5 219.5t-107.5 160.5t-161 99.5t-197 34.5q-106 0 -198 -34.5t-160 -99.5t-107.5 -160.5t-39.5 -219.5zM439 624q0 164 82 252.5t216 88.5q66 0 106.5 -13t93.5 -36l-47 -117q-40 18 -75 27t-61 9 q-75 0 -118.5 -48t-43.5 -163q0 -211 177 -211q81 0 143 34l38 -117q-43 -24 -94 -36.5t-119 -12.5q-144 0 -221 93t-77 250z" />
<glyph unicode="&#xaa;" horiz-adv-x="672" d="M77 1004q0 70 29.5 116.5t80.5 74.5t118 37.5t146 5.5q5 85 -13.5 121t-85.5 36q-62 0 -116.5 -13.5t-90.5 -31.5l-35 101q45 24 116.5 40.5t161.5 16.5q113 0 153 -55.5t42 -159.5q-2 -147 -8 -268.5t17 -215.5h-106l-26 90h-7q-20 -37 -62 -67.5t-112 -30.5 q-96 0 -149 54t-53 149zM211 1016q0 -43 23.5 -71.5t70.5 -28.5q63 0 96.5 31t49.5 63v120q-44 3 -87 1.5t-76.5 -11.5t-55 -34.5t-21.5 -69.5z" />
<glyph unicode="&#xab;" horiz-adv-x="821" d="M61 551l276 490l106 -72l-175 -328l-81 -88l81 -76l188 -321l-109 -75zM380 551l270 486l102 -70l-171 -326l-81 -88l81 -76l181 -319l-102 -73z" />
<glyph unicode="&#xac;" horiz-adv-x="882" d="M77 685v148h730v-407h-138v259h-592z" />
<glyph unicode="&#xad;" horiz-adv-x="618" d="M100 535v146h420v-146h-420z" />
<glyph unicode="&#xae;" horiz-adv-x="1258" d="M153 1044q0 116 38.5 203.5t103.5 148.5t151 91.5t182 30.5q100 0 187.5 -30.5t151.5 -91.5t101.5 -149t37.5 -203t-38.5 -204.5t-103.5 -150.5t-151.5 -91.5t-184.5 -30.5q-100 0 -186 30.5t-150 91.5t-101.5 150.5t-37.5 204.5zM268 1044q0 -93 29 -163t78 -116.5 t113.5 -69t139.5 -22.5q79 0 145 22.5t114 68t75.5 114.5t27.5 166q0 92 -28.5 161t-77.5 116t-115 69t-141 22q-79 0 -145 -22t-114 -69t-74.5 -116t-26.5 -161zM443 809v467q30 8 82 13.5t99 5.5q75 0 129 -32t54 -109q0 -57 -36 -88t-92 -35l51 -23l132 -199h-110 l-128 187l-87 28v-215h-94zM537 1077h61q108 0 109 73q0 64 -104 64q-16 0 -36 -1t-30 -8v-128z" />
<glyph unicode="&#xaf;" horiz-adv-x="772" d="M128 1242v128h518v-128h-518z" />
<glyph unicode="&#xb0;" horiz-adv-x="728" d="M132 1216q0 134 68 217t182 83q110 0 180 -77.5t70 -222.5t-70 -222.5t-180 -77.5q-114 0 -182 77.5t-68 222.5zM254 1216q0 -83 34.5 -135t93.5 -52q57 0 93.5 52.5t36.5 134.5q0 83 -36.5 135.5t-93.5 52.5q-58 0 -93 -52.5t-35 -135.5z" />
<glyph unicode="&#xb1;" horiz-adv-x="882" d="M75 384v142h734v-142h-734zM75 856v143h295v330h144v-330h295v-143h-295v-224h-144v224h-295z" />
<glyph unicode="&#xb2;" horiz-adv-x="702" d="M94 809v68q44 45 103 114t112 148t89.5 162t36.5 158q0 63 -33.5 97.5t-82.5 34.5q-47 0 -90.5 -15t-72.5 -36l-43 110q43 34 105.5 51.5t124.5 17.5q108 0 167 -62t59 -177q0 -69 -18.5 -133.5t-49 -127.5t-72 -124t-86.5 -120l-79 -68v-5l98 33h239v-126h-507zM94 809z " />
<glyph unicode="&#xb3;" horiz-adv-x="702" d="M122 795zM122 833l27 118q32 -16 69.5 -25.5t82.5 -9.5q81 0 122 43.5t39 121.5q2 69 -35 111.5t-124 42.5h-94v49l163 254l63 57l-88 -12h-223v120h449v-67l-175 -269l-44 -36v-6l42 6q96 0 150.5 -67t51.5 -183q2 -130 -77.5 -208.5t-207.5 -78.5q-61 0 -108 10.5 t-83 28.5z" />
<glyph unicode="&#xb4;" horiz-adv-x="521" d="M128 1216l100 318h166v-45l-175 -273h-91z" />
<glyph unicode="&#xb5;" d="M113 -426v1491h153v-643q0 -153 44 -231t143 -78q90 0 149.5 53t88.5 143v756h152v-718q0 -87 4.5 -175.5t21.5 -171.5h-109l-49 132h-6q-34 -69 -102 -113.5t-166 -44.5q-79 0 -123 28t-74 71h-10l38 -215v-284h-155z" />
<glyph unicode="&#xb6;" horiz-adv-x="858" d="M61 1077q0 84 20.5 159.5t59 132t92.5 89.5t125 33h87v-1768h-130v937q-57 0 -103 33t-80 90.5t-52.5 133t-18.5 160.5zM592 -277v1768h130v-1768h-130z" />
<glyph unicode="&#xb7;" horiz-adv-x="453" d="M121 628q0 59 28.5 89t77.5 30t78 -29.5t29 -89.5q0 -62 -29 -92t-78 -30t-77.5 30t-28.5 92zM122 506z" />
<glyph unicode="&#xb8;" horiz-adv-x="557" d="M128 -435l12 103q82 -12 114.5 3.5t32.5 58.5q0 59 -147 79l86 191h106l-40 -92q139 -32 139 -160q0 -49 -21.5 -89.5t-62 -66t-96 -32.5t-123.5 5z" />
<glyph unicode="&#xb9;" horiz-adv-x="702" d="M96 809zM96 1499l266 220h87v-789h160v-121h-473v121h179v548l13 76l-49 -59l-126 -85z" />
<glyph unicode="&#xba;" horiz-adv-x="687" d="M73 1154q0 98 20 167t57 113t87 63t108 19q57 0 107 -18t87.5 -59.5t58 -112t20.5 -172.5t-20.5 -172t-58 -111.5t-87.5 -60t-107 -18.5t-107.5 18.5t-87.5 60t-57 111.5t-20 172zM211 1154q0 -138 37 -191.5t97 -53.5q30 0 54.5 11t41.5 37.5t26.5 74.5t9.5 122 q0 73 -9.5 121t-26.5 75.5t-42 38.5t-54 11q-32 0 -56.5 -11t-41.5 -38.5t-26.5 -75.5t-9.5 -121z" />
<glyph unicode="&#xbb;" horiz-adv-x="821" d="M59 967l103 70l281 -466l-270 -486l-104 68l171 329l81 87l-81 77zM366 969l109 72l285 -470l-274 -490l-110 70l177 331l81 87l-81 77z" />
<glyph unicode="&#xbc;" horiz-adv-x="1453" d="M72 1289l264 217h87v-910h-136v672l13 76l-47 -62l-125 -87zM73 0zM255 34l821 1484l104 -57l-818 -1487zM734 205v71l386 640h95v-593h139v-118h-139v-205h-130v205h-351zM870 315l88 8h127v266l15 114h-8l-39 -106l-125 -218z" />
<glyph unicode="&#xbd;" horiz-adv-x="1492" d="M72 1289l264 217h87v-910h-136v672l13 76l-47 -62l-125 -87zM73 0zM255 34l821 1484l104 -57l-818 -1487zM889 0v68q44 45 103 114t112 148t89.5 162t36.5 158q0 63 -33.5 97.5t-82.5 34.5q-47 0 -90.5 -15t-72.5 -36l-43 110q43 34 105.5 51.5t124.5 17.5q108 0 167 -62 t59 -177q0 -69 -18.5 -133.5t-49 -127.5t-72 -124t-86.5 -120l-79 -68v-5l98 33h239v-126h-507z" />
<glyph unicode="&#xbe;" horiz-adv-x="1512" d="M100 0zM101 620l27 118q32 -16 69.5 -25.5t82.5 -9.5q81 0 122 43.5t39 121.5q2 69 -35 111.5t-124 42.5h-94v49l163 254l63 57l-88 -12h-223v120h449v-67l-175 -269l-44 -36v-6l42 6q96 0 150.5 -67t51.5 -183q2 -130 -77.5 -208.5t-207.5 -78.5q-61 0 -108 10.5 t-83 28.5zM315 34l821 1484l104 -57l-818 -1487zM795 205v71l386 640h95v-593h139v-118h-139v-205h-130v205h-351zM931 315l88 8h127v266l15 114h-8l-39 -106l-125 -218z" />
<glyph unicode="&#xbf;" horiz-adv-x="760" d="M59 0zM59 -117q0 91 23.5 164t57.5 133t75 116t75.5 114.5t58 125.5t23.5 153h128q6 -94 -12 -167t-50 -133.5t-69 -113.5t-71 -110t-56.5 -119.5t-22.5 -141.5q0 -97 42.5 -157t144.5 -60q62 0 121.5 22.5t106.5 56.5l60 -120q-63 -42 -139 -69.5t-185 -27.5 q-153 0 -232 89.5t-79 244.5zM319 969q0 62 28.5 92t77.5 30t78 -30t29 -92q0 -59 -28.5 -89t-78.5 -30q-49 0 -77.5 29.5t-28.5 89.5z" />
<glyph unicode="&#xc0;" horiz-adv-x="1006" d="M10 0l450 1514h87l449 -1514h-165l-122 417h-422l-119 -417h-158zM10 0zM234 1809v44h211l198 -251h-139zM330 561h341l-130 459l-41 224h-4l-40 -228z" />
<glyph unicode="&#xc1;" horiz-adv-x="1006" d="M10 0l450 1514h87l449 -1514h-165l-122 417h-422l-119 -417h-158zM10 0zM330 561h341l-130 459l-41 224h-4l-40 -228zM360 1602l198 251h211v-44l-279 -207h-130z" />
<glyph unicode="&#xc2;" horiz-adv-x="1006" d="M10 0l450 1514h87l449 -1514h-165l-122 417h-422l-119 -417h-158zM10 0zM226 1591v47l228 215h106l217 -217v-45h-140l-100 104l-32 75l-33 -73l-110 -106h-136zM330 561h341l-130 459l-41 224h-4l-40 -228z" />
<glyph unicode="&#xc3;" horiz-adv-x="1006" d="M10 0l450 1514h87l449 -1514h-165l-122 417h-422l-119 -417h-158zM10 0zM213 1661q59 73 109 99.5t95 26.5q34 0 65 -10.5t60 -22.5t55.5 -22.5t54.5 -10.5q24 0 45.5 8.5t45.5 34.5l55 -79q-51 -59 -95.5 -80.5t-82.5 -21.5q-33 0 -62.5 10.5t-58 22.5t-56.5 22t-57 10 q-31 0 -59.5 -12.5t-62.5 -48.5zM330 561h341l-130 459l-41 224h-4l-40 -228z" />
<glyph unicode="&#xc4;" horiz-adv-x="1006" d="M10 0l450 1514h87l449 -1514h-165l-122 417h-422l-119 -417h-158zM10 0zM236 1691q0 45 26.5 72.5t73.5 27.5q44 0 71 -27.5t27 -72.5t-27 -71.5t-71 -26.5q-47 0 -73.5 26.5t-26.5 71.5zM330 561h341l-130 459l-41 224h-4l-40 -228zM572 1691q0 45 27 72.5t72 27.5 q46 0 72.5 -27.5t26.5 -72.5t-26.5 -71.5t-72.5 -26.5q-45 0 -72 26.5t-27 71.5z" />
<glyph unicode="&#xc5;" horiz-adv-x="1006" d="M10 0l435 1463q-63 17 -96.5 60.5t-33.5 112.5q0 79 45 130t146 49q92 2 142.5 -44t50.5 -135q0 -66 -34.5 -112t-101.5 -61l433 -1463h-165l-122 417h-422l-119 -417h-158zM330 561h341l-130 459l-41 224h-4l-40 -228zM431 1636q0 -39 18 -63t57 -24q77 0 77 87 q0 91 -77 94q-75 -3 -75 -94z" />
<glyph unicode="&#xc6;" horiz-adv-x="1453" d="M-38 0l713 1491h667v-147h-505v-505h462v-146h-462v-546h513v-147h-673v424h-351l-192 -424h-172zM0 0zM396 567h281v687h-6l-55 -208z" />
<glyph unicode="&#xc7;" horiz-adv-x="974" d="M92 746q0 213 43.5 359.5t115.5 238t167.5 132t195.5 40.5q102 0 169 -14.5t116 -36.5l-39 -144q-43 24 -100 36.5t-132 12.5t-140.5 -33.5t-117 -107t-81 -192.5t-29.5 -291q0 -311 106.5 -466.5t283.5 -155.5q73 0 130 20t98 47l38 -134q-44 -38 -110.5 -57t-140.5 -24 l-31 -68q139 -32 139 -160q0 -83 -60.5 -137t-163.5 -54q-43 0 -78 8l15 83q49 -4 77.5 2.5t43.5 19.5t19 29t4 31q0 59 -146 79l74 170q-101 9 -188 56.5t-148.5 140t-95.5 233t-34 337.5z" />
<glyph unicode="&#xc8;" horiz-adv-x="913" d="M136 0v1491h663v-147h-503v-505h462v-146h-462v-546h513v-147h-673zM136 0zM160 1809v44h211l198 -251h-139z" />
<glyph unicode="&#xc9;" horiz-adv-x="913" d="M136 0v1491h663v-147h-503v-505h462v-146h-462v-546h513v-147h-673zM136 0zM352 1602l198 251h211v-44l-279 -207h-130z" />
<glyph unicode="&#xca;" horiz-adv-x="913" d="M136 0v1491h663v-147h-503v-505h462v-146h-462v-546h513v-147h-673zM136 0zM181 1591v47l228 215h106l217 -217v-45h-140l-100 104l-32 75l-33 -73l-110 -106h-136z" />
<glyph unicode="&#xcb;" horiz-adv-x="913" d="M136 0v1491h663v-147h-503v-505h462v-146h-462v-546h513v-147h-673zM136 0zM191 1691q0 45 26.5 72.5t73.5 27.5q44 0 71 -27.5t27 -72.5t-27 -71.5t-71 -26.5q-47 0 -73.5 26.5t-26.5 71.5zM527 1691q0 45 27 72.5t72 27.5q46 0 72.5 -27.5t26.5 -72.5t-26.5 -71.5 t-72.5 -26.5q-45 0 -72 26.5t-27 71.5z" />
<glyph unicode="&#xcc;" horiz-adv-x="496" d="M-2 1809v44h211l198 -251h-139zM0 0zM168 0v1491h160v-1491h-160z" />
<glyph unicode="&#xcd;" horiz-adv-x="496" d="M102 0zM102 1602l198 251h211v-44l-279 -207h-130zM168 0v1491h160v-1491h-160z" />
<glyph unicode="&#xce;" horiz-adv-x="496" d="M-28 1591v47l228 215h106l217 -217v-45h-140l-100 104l-32 75l-33 -73l-110 -106h-136zM0 0zM168 0v1491h160v-1491h-160z" />
<glyph unicode="&#xcf;" horiz-adv-x="496" d="M-17 1691q0 45 26.5 72.5t73.5 27.5q44 0 71 -27.5t27 -72.5t-27 -71.5t-71 -26.5q-47 0 -73.5 26.5t-26.5 71.5zM0 0zM168 0v1491h160v-1491h-160zM319 1691q0 45 27 72.5t72 27.5q46 0 72.5 -27.5t26.5 -72.5t-26.5 -71.5t-72.5 -26.5q-45 0 -72 26.5t-27 71.5z" />
<glyph unicode="&#xd0;" horiz-adv-x="1130" d="M-2 711v124h151v656q34 7 75.5 10t84.5 4t84.5 2t77.5 1q156 0 264 -53t176.5 -152.5t98 -237.5t29.5 -309q0 -153 -28.5 -294t-96.5 -247.5t-180 -170t-281 -63.5q-28 0 -70 1t-87.5 4.5t-85 5.5t-61.5 6v713h-151zM309 136q8 -2 30.5 -3t47 -2t47 -2t33.5 -1 q117 0 196 51t124.5 137t65 200t19.5 242q0 114 -17.5 222.5t-61 192t-119 136t-195.5 52.5h-45t-48.5 -2t-44 -4.5t-32.5 -4.5v-515h249v-124h-249v-575z" />
<glyph unicode="&#xd1;" horiz-adv-x="1145" d="M136 0v1514h96l552 -967l88 -224h8l-24 224v944h154v-1515h-98l-548 969l-92 235h-6l24 -235v-945h-154zM136 0zM288 1661q59 73 109 99.5t95 26.5q34 0 65 -10.5t60 -22.5t55.5 -22.5t54.5 -10.5q24 0 45.5 8.5t45.5 34.5l55 -79q-51 -59 -95.5 -80.5t-82.5 -21.5 q-33 0 -62.5 10.5t-58 22.5t-56.5 22t-57 10q-31 0 -59.5 -12.5t-62.5 -48.5z" />
<glyph unicode="&#xd2;" horiz-adv-x="1168" d="M92 0zM92 746q0 379 121.5 574.5t369.5 195.5q135 0 228.5 -54t152 -154.5t86 -243t27.5 -318.5q0 -380 -122 -576t-372 -196q-132 0 -225.5 54.5t-153 154.5t-86 243t-26.5 320zM260 746q0 -126 18 -239t56 -198t100 -136t149 -51q161 0 243.5 153t82.5 471 q0 123 -17.5 236t-56 199.5t-100.5 137.5t-152 51q-158 0 -240.5 -153.5t-82.5 -470.5zM301 1809v44h211l198 -251h-139z" />
<glyph unicode="&#xd3;" horiz-adv-x="1168" d="M92 0zM92 746q0 379 121.5 574.5t369.5 195.5q135 0 228.5 -54t152 -154.5t86 -243t27.5 -318.5q0 -380 -122 -576t-372 -196q-132 0 -225.5 54.5t-153 154.5t-86 243t-26.5 320zM260 746q0 -126 18 -239t56 -198t100 -136t149 -51q161 0 243.5 153t82.5 471 q0 123 -17.5 236t-56 199.5t-100.5 137.5t-152 51q-158 0 -240.5 -153.5t-82.5 -470.5zM516 1602l198 251h211v-44l-279 -207h-130z" />
<glyph unicode="&#xd4;" horiz-adv-x="1168" d="M92 0zM92 746q0 379 121.5 574.5t369.5 195.5q135 0 228.5 -54t152 -154.5t86 -243t27.5 -318.5q0 -380 -122 -576t-372 -196q-132 0 -225.5 54.5t-153 154.5t-86 243t-26.5 320zM260 746q0 -126 18 -239t56 -198t100 -136t149 -51q161 0 243.5 153t82.5 471 q0 123 -17.5 236t-56 199.5t-100.5 137.5t-152 51q-158 0 -240.5 -153.5t-82.5 -470.5zM305 1591v47l228 215h106l217 -217v-45h-140l-100 104l-32 75l-33 -73l-110 -106h-136z" />
<glyph unicode="&#xd5;" horiz-adv-x="1168" d="M92 0zM92 746q0 379 121.5 574.5t369.5 195.5q135 0 228.5 -54t152 -154.5t86 -243t27.5 -318.5q0 -380 -122 -576t-372 -196q-132 0 -225.5 54.5t-153 154.5t-86 243t-26.5 320zM260 746q0 -126 18 -239t56 -198t100 -136t149 -51q161 0 243.5 153t82.5 471 q0 123 -17.5 236t-56 199.5t-100.5 137.5t-152 51q-158 0 -240.5 -153.5t-82.5 -470.5zM296 1661q59 73 109 99.5t95 26.5q34 0 65 -10.5t60 -22.5t55.5 -22.5t54.5 -10.5q24 0 45.5 8.5t45.5 34.5l55 -79q-51 -59 -95.5 -80.5t-82.5 -21.5q-33 0 -62.5 10.5t-58 22.5 t-56.5 22t-57 10q-31 0 -59.5 -12.5t-62.5 -48.5z" />
<glyph unicode="&#xd6;" horiz-adv-x="1168" d="M92 0zM92 746q0 379 121.5 574.5t369.5 195.5q135 0 228.5 -54t152 -154.5t86 -243t27.5 -318.5q0 -380 -122 -576t-372 -196q-132 0 -225.5 54.5t-153 154.5t-86 243t-26.5 320zM260 746q0 -126 18 -239t56 -198t100 -136t149 -51q161 0 243.5 153t82.5 471 q0 123 -17.5 236t-56 199.5t-100.5 137.5t-152 51q-158 0 -240.5 -153.5t-82.5 -470.5zM315 1691q0 45 26.5 72.5t73.5 27.5q44 0 71 -27.5t27 -72.5t-27 -71.5t-71 -26.5q-47 0 -73.5 26.5t-26.5 71.5zM651 1691q0 45 27 72.5t72 27.5q46 0 72.5 -27.5t26.5 -72.5 t-26.5 -71.5t-72.5 -26.5q-45 0 -72 26.5t-27 71.5z" />
<glyph unicode="&#xd7;" horiz-adv-x="882" d="M113 443l236 279l-234 272l107 99l221 -260l224 260l104 -99l-232 -272l232 -277l-104 -96l-224 260l-224 -262z" />
<glyph unicode="&#xd8;" horiz-adv-x="1168" d="M92 746q0 379 121.5 574.5t369.5 195.5q96 0 172 -28.5t131 -81.5l64 112l102 -57l-87 -156q59 -102 85.5 -242.5t26.5 -316.5q0 -380 -122 -576t-372 -196q-185 0 -298 107l-57 -107l-104 60l81 147q-59 102 -86 244t-27 321zM260 746q0 -104 11.5 -199.5t37.5 -176.5 l490 878q-39 57 -92 89.5t-124 32.5q-158 0 -240.5 -153.5t-82.5 -470.5zM372 236q39 -55 91.5 -84.5t119.5 -29.5q161 0 243.5 153t82.5 471q0 102 -11.5 195.5t-37.5 172.5z" />
<glyph unicode="&#xd9;" horiz-adv-x="1109" d="M136 0zM136 458v1033h160v-950q0 -116 15 -194.5t49 -127t85 -70t126 -21.5q140 0 194.5 97.5t54.5 315.5v950h153v-999q0 -270 -105.5 -390.5t-298.5 -120.5q-226 0 -329.5 117t-103.5 360zM286 1809v44h211l198 -251h-139z" />
<glyph unicode="&#xda;" horiz-adv-x="1109" d="M136 0zM136 458v1033h160v-950q0 -116 15 -194.5t49 -127t85 -70t126 -21.5q140 0 194.5 97.5t54.5 315.5v950h153v-999q0 -270 -105.5 -390.5t-298.5 -120.5q-226 0 -329.5 117t-103.5 360zM465 1602l198 251h211v-44l-279 -207h-130z" />
<glyph unicode="&#xdb;" horiz-adv-x="1109" d="M136 0zM136 458v1033h160v-950q0 -116 15 -194.5t49 -127t85 -70t126 -21.5q140 0 194.5 97.5t54.5 315.5v950h153v-999q0 -270 -105.5 -390.5t-298.5 -120.5q-226 0 -329.5 117t-103.5 360zM284 1591v47l228 215h106l217 -217v-45h-140l-100 104l-32 75l-33 -73 l-110 -106h-136z" />
<glyph unicode="&#xdc;" horiz-adv-x="1109" d="M136 0zM136 458v1033h160v-950q0 -116 15 -194.5t49 -127t85 -70t126 -21.5q140 0 194.5 97.5t54.5 315.5v950h153v-999q0 -270 -105.5 -390.5t-298.5 -120.5q-226 0 -329.5 117t-103.5 360zM290 1691q0 45 26.5 72.5t73.5 27.5q44 0 71 -27.5t27 -72.5t-27 -71.5 t-71 -26.5q-47 0 -73.5 26.5t-26.5 71.5zM626 1691q0 45 27 72.5t72 27.5q46 0 72.5 -27.5t26.5 -72.5t-26.5 -71.5t-72.5 -26.5q-45 0 -72 26.5t-27 71.5z" />
<glyph unicode="&#xdd;" horiz-adv-x="968" d="M10 0zM10 1491h188l269 -650l27 -130h4l28 135l260 645h173l-392 -897v-594h-160v592zM403 1602l198 251h211v-44l-279 -207h-130z" />
<glyph unicode="&#xde;" horiz-adv-x="962" d="M138 0v1491h160v-166q66 6 137 6q85 0 167.5 -20t150 -71t109 -140.5t41.5 -227.5q0 -135 -39 -229t-104 -151t-149.5 -83.5t-173.5 -26.5h-28t-40.5 1t-41.5 3t-29 4v-390h-160zM298 537q9 -5 27 -6t37.5 -3t37 -2h26.5q60 0 115 15t97.5 54t69.5 106.5t27 172.5 q0 87 -25 146.5t-64 96.5t-92.5 53.5t-110.5 16.5q-43 0 -82.5 -2.5t-62.5 -9.5v-638z" />
<glyph unicode="&#xdf;" horiz-adv-x="1038" d="M34 927v138h130v53q0 211 88.5 298.5t239.5 87.5q71 0 131 -19.5t106 -57t72 -91.5t26 -124q0 -71 -34.5 -121t-74 -90t-73 -80.5t-33.5 -91.5q0 -49 26.5 -83.5t66 -64t86 -60.5t86 -74t66 -103t26.5 -150q0 -59 -21 -116.5t-61.5 -102.5t-100.5 -73t-138 -28 q-79 0 -129 13t-97 43l42 130q45 -26 78 -38t92 -12q73 0 127 49.5t54 130.5q0 66 -26.5 109.5t-67 76.5t-86 62t-86 66t-67 88.5t-26.5 130.5q0 70 34 118.5t74.5 90t74.5 82t34 91.5q0 37 -16 66.5t-41.5 50t-56.5 32.5t-63 12q-47 0 -80.5 -14.5t-55 -48t-32.5 -92.5 t-11 -148v-1063h-153v927h-130z" />
<glyph unicode="&#xe0;" horiz-adv-x="851" d="M61 0zM61 285q0 91 31.5 153t87.5 100.5t134 54.5t174 16h42t45 -2q6 66 6 117q0 122 -36 170.5t-132 48.5q-59 0 -129.5 -18t-117.5 -45l-51 122q62 38 150.5 59t185.5 21q90 0 144.5 -26.5t85 -72.5t40 -104.5t9.5 -122.5q0 -128 -5 -249t-5 -230q0 -81 5 -150.5 t21 -130.5h-118l-36 126h-9q-32 -55 -93.5 -96t-166.5 -41q-115 0 -188.5 80t-73.5 220zM222 303q0 -86 41.5 -132.5t106.5 -46.5q90 0 139 42.5t68 93.5v226q-21 2 -42 3t-43 1q-51 0 -100 -8.5t-87.5 -29.5t-60.5 -57.5t-22 -91.5zM232 1489v45h177l110 -318h-87z" />
<glyph unicode="&#xe1;" horiz-adv-x="851" d="M61 0zM61 285q0 91 31.5 153t87.5 100.5t134 54.5t174 16h42t45 -2q6 66 6 117q0 122 -36 170.5t-132 48.5q-59 0 -129.5 -18t-117.5 -45l-51 122q62 38 150.5 59t185.5 21q90 0 144.5 -26.5t85 -72.5t40 -104.5t9.5 -122.5q0 -128 -5 -249t-5 -230q0 -81 5 -150.5 t21 -130.5h-118l-36 126h-9q-32 -55 -93.5 -96t-166.5 -41q-115 0 -188.5 80t-73.5 220zM222 303q0 -86 41.5 -132.5t106.5 -46.5q90 0 139 42.5t68 93.5v226q-21 2 -42 3t-43 1q-51 0 -100 -8.5t-87.5 -29.5t-60.5 -57.5t-22 -91.5zM313 1216l100 318h166v-45l-175 -273 h-91z" />
<glyph unicode="&#xe2;" horiz-adv-x="851" d="M61 0zM61 285q0 91 31.5 153t87.5 100.5t134 54.5t174 16h42t45 -2q6 66 6 117q0 122 -36 170.5t-132 48.5q-59 0 -129.5 -18t-117.5 -45l-51 122q62 38 150.5 59t185.5 21q90 0 144.5 -26.5t85 -72.5t40 -104.5t9.5 -122.5q0 -128 -5 -249t-5 -230q0 -81 5 -150.5 t21 -130.5h-118l-36 126h-9q-32 -55 -93.5 -96t-166.5 -41q-115 0 -188.5 80t-73.5 220zM194 1171l211 388h74l190 -388h-134l-69 141l-34 123l-36 -123l-76 -141h-126zM222 303q0 -86 41.5 -132.5t106.5 -46.5q90 0 139 42.5t68 93.5v226q-21 2 -42 3t-43 1 q-51 0 -100 -8.5t-87.5 -29.5t-60.5 -57.5t-22 -91.5z" />
<glyph unicode="&#xe3;" horiz-adv-x="851" d="M61 0zM61 285q0 91 31.5 153t87.5 100.5t134 54.5t174 16h42t45 -2q6 66 6 117q0 122 -36 170.5t-132 48.5q-59 0 -129.5 -18t-117.5 -45l-51 122q62 38 150.5 59t185.5 21q90 0 144.5 -26.5t85 -72.5t40 -104.5t9.5 -122.5q0 -128 -5 -249t-5 -230q0 -81 5 -150.5 t21 -130.5h-118l-36 126h-9q-32 -55 -93.5 -96t-166.5 -41q-115 0 -188.5 80t-73.5 220zM171 1390q57 73 102 99.5t81 26.5q30 0 55.5 -12.5t50 -26.5t47 -27t48.5 -13q18 0 38.5 10t43.5 35l49 -80q-51 -61 -90 -85t-74 -24q-30 0 -55.5 12t-50 26.5t-47.5 26.5t-49 12 q-24 0 -47 -12t-51 -41zM222 303q0 -86 41.5 -132.5t106.5 -46.5q90 0 139 42.5t68 93.5v226q-21 2 -42 3t-43 1q-51 0 -100 -8.5t-87.5 -29.5t-60.5 -57.5t-22 -91.5z" />
<glyph unicode="&#xe4;" horiz-adv-x="851" d="M61 0zM61 285q0 91 31.5 153t87.5 100.5t134 54.5t174 16h42t45 -2q6 66 6 117q0 122 -36 170.5t-132 48.5q-59 0 -129.5 -18t-117.5 -45l-51 122q62 38 150.5 59t185.5 21q90 0 144.5 -26.5t85 -72.5t40 -104.5t9.5 -122.5q0 -128 -5 -249t-5 -230q0 -81 5 -150.5 t21 -130.5h-118l-36 126h-9q-32 -55 -93.5 -96t-166.5 -41q-115 0 -188.5 80t-73.5 220zM166 1390q0 49 24.5 77.5t66.5 28.5q43 0 67.5 -28.5t24.5 -77.5q0 -44 -24.5 -71.5t-67.5 -27.5q-42 0 -66.5 27.5t-24.5 71.5zM222 303q0 -86 41.5 -132.5t106.5 -46.5 q90 0 139 42.5t68 93.5v226q-21 2 -42 3t-43 1q-51 0 -100 -8.5t-87.5 -29.5t-60.5 -57.5t-22 -91.5zM505 1390q0 49 24.5 77.5t66.5 28.5q43 0 67.5 -28.5t24.5 -77.5q0 -44 -24.5 -71.5t-67.5 -27.5q-42 0 -66.5 27.5t-24.5 71.5z" />
<glyph unicode="&#xe5;" horiz-adv-x="851" d="M61 0zM61 285q0 91 31.5 153t87.5 100.5t134 54.5t174 16h42t45 -2q6 66 6 117q0 122 -36 170.5t-132 48.5q-59 0 -129.5 -18t-117.5 -45l-51 122q62 38 150.5 59t185.5 21q90 0 144.5 -26.5t85 -72.5t40 -104.5t9.5 -122.5q0 -128 -5 -249t-5 -230q0 -81 5 -150.5 t21 -130.5h-118l-36 126h-9q-32 -55 -93.5 -96t-166.5 -41q-115 0 -188.5 80t-73.5 220zM222 303q0 -86 41.5 -132.5t106.5 -46.5q90 0 139 42.5t68 93.5v226q-21 2 -42 3t-43 1q-51 0 -100 -8.5t-87.5 -29.5t-60.5 -57.5t-22 -91.5zM252 1370q0 89 47 139t128 50 q77 0 126.5 -44.5t49.5 -144.5q0 -86 -47.5 -137t-128.5 -51t-128 48t-47 140zM354 1370q0 -49 21 -73.5t52 -24.5q34 0 53.5 23.5t19.5 74.5t-22 75.5t-51 24.5q-31 0 -52 -23.5t-21 -76.5z" />
<glyph unicode="&#xe6;" horiz-adv-x="1366" d="M61 0zM61 290q0 94 31.5 156.5t86.5 99.5t132 53.5t171 16.5q23 0 46 -1t47 -3q6 65 6 116q0 122 -36 169.5t-132 47.5q-59 0 -131.5 -21t-121.5 -55l-47 119q66 49 154.5 71.5t183.5 22.5q179 0 232 -137q43 77 119 111.5t150 34.5q59 0 117.5 -16t106 -62t76 -128 t28.5 -212q0 -37 -3 -77t-7 -84h-540q2 -196 60 -297.5t202 -101.5q59 0 117 21.5t88 46.5l55 -112q-53 -43 -129.5 -69t-170.5 -26q-106 0 -189.5 46t-123.5 136h-13q-43 -75 -116 -124t-182 -49q-120 0 -193.5 83t-73.5 224zM222 307q0 -75 40.5 -130t105.5 -55 q45 0 80.5 13.5t61 35.5t42.5 49.5t25 54.5v215q-21 2 -42 3t-43 1q-51 0 -100 -8.5t-87.5 -29.5t-60.5 -57.5t-22 -91.5zM730 636h400q5 161 -43 238.5t-135 77.5q-96 0 -153 -76.5t-69 -239.5z" />
<glyph unicode="&#xe7;" horiz-adv-x="758" d="M79 532q0 273 96.5 416t277.5 143q84 0 143.5 -15t102.5 -39l-43 -132q-81 47 -185 47q-115 0 -174 -101t-59 -319q0 -87 13 -162.5t42.5 -132t76.5 -88t118 -31.5q55 0 103 17.5t78 43.5l44 -126q-42 -32 -93 -50t-106 -24l-30 -71q138 -32 138 -160q0 -83 -61 -137 t-163 -54q-42 0 -79 8l16 83q49 -4 77.5 2.5t43.5 19.5t19 29t4 31q0 59 -147 79l75 167q-90 8 -153 52.5t-101 115.5t-56 170t-18 218z" />
<glyph unicode="&#xe8;" horiz-adv-x="878" d="M79 0zM79 532q0 273 100 416t283 143q59 0 118 -15t106 -60t75.5 -126t28.5 -211q0 -36 -3 -77t-7 -86h-542q0 -92 15 -166.5t47 -126.5t82.5 -81t123.5 -29q58 0 114.5 21.5t86.5 50.5l55 -112q-51 -47 -130 -73t-165 -26q-100 0 -174 39.5t-121.5 113.5t-70 176 t-22.5 229zM240 643h403q4 160 -45 234.5t-134 74.5q-98 0 -155 -74.5t-69 -234.5zM268 1489v45h177l110 -318h-87z" />
<glyph unicode="&#xe9;" horiz-adv-x="878" d="M79 0zM79 532q0 273 100 416t283 143q59 0 118 -15t106 -60t75.5 -126t28.5 -211q0 -36 -3 -77t-7 -86h-542q0 -92 15 -166.5t47 -126.5t82.5 -81t123.5 -29q58 0 114.5 21.5t86.5 50.5l55 -112q-51 -47 -130 -73t-165 -26q-100 0 -174 39.5t-121.5 113.5t-70 176 t-22.5 229zM240 643h403q4 160 -45 234.5t-134 74.5q-98 0 -155 -74.5t-69 -234.5zM394 1216l100 318h166v-45l-175 -273h-91z" />
<glyph unicode="&#xea;" horiz-adv-x="878" d="M79 0zM79 532q0 273 100 416t283 143q59 0 118 -15t106 -60t75.5 -126t28.5 -211q0 -36 -3 -77t-7 -86h-542q0 -92 15 -166.5t47 -126.5t82.5 -81t123.5 -29q58 0 114.5 21.5t86.5 50.5l55 -112q-51 -47 -130 -73t-165 -26q-100 0 -174 39.5t-121.5 113.5t-70 176 t-22.5 229zM209 1171l211 388h74l190 -388h-134l-69 141l-34 123l-36 -123l-76 -141h-126zM240 643h403q4 160 -45 234.5t-134 74.5q-98 0 -155 -74.5t-69 -234.5z" />
<glyph unicode="&#xeb;" horiz-adv-x="878" d="M79 0zM79 532q0 273 100 416t283 143q59 0 118 -15t106 -60t75.5 -126t28.5 -211q0 -36 -3 -77t-7 -86h-542q0 -92 15 -166.5t47 -126.5t82.5 -81t123.5 -29q58 0 114.5 21.5t86.5 50.5l55 -112q-51 -47 -130 -73t-165 -26q-100 0 -174 39.5t-121.5 113.5t-70 176 t-22.5 229zM199 1390q0 49 24.5 77.5t66.5 28.5q43 0 67.5 -28.5t24.5 -77.5q0 -44 -24.5 -71.5t-67.5 -27.5q-42 0 -66.5 27.5t-24.5 71.5zM240 643h403q4 160 -45 234.5t-134 74.5q-98 0 -155 -74.5t-69 -234.5zM538 1390q0 49 24.5 77.5t66.5 28.5q43 0 67.5 -28.5 t24.5 -77.5q0 -44 -24.5 -71.5t-67.5 -27.5q-42 0 -66.5 27.5t-24.5 71.5z" />
<glyph unicode="&#xec;" horiz-adv-x="461" d="M10 0zM10 1489v45h177l110 -318h-87zM153 0v1065h154v-1065h-154z" />
<glyph unicode="&#xed;" horiz-adv-x="461" d="M153 0v1065h154v-1065h-154zM153 0zM162 1216l100 318h166v-45l-175 -273h-91z" />
<glyph unicode="&#xee;" horiz-adv-x="461" d="M-10 1171l211 388h74l190 -388h-134l-69 141l-34 123l-36 -123l-76 -141h-126zM0 0zM153 0v1065h154v-1065h-154z" />
<glyph unicode="&#xef;" horiz-adv-x="461" d="M-32 1390q0 49 24.5 77.5t66.5 28.5q43 0 67.5 -28.5t24.5 -77.5q0 -44 -24.5 -71.5t-67.5 -27.5q-42 0 -66.5 27.5t-24.5 71.5zM0 0zM153 0v1065h154v-1065h-154zM307 1390q0 49 24.5 77.5t66.5 28.5q43 0 67.5 -28.5t24.5 -77.5q0 -44 -24.5 -71.5t-67.5 -27.5 q-42 0 -66.5 27.5t-24.5 71.5z" />
<glyph unicode="&#xf0;" d="M87 535q0 121 25.5 222t75.5 175t122 114t163 40q75 0 132 -25.5t88 -64.5q-24 81 -59.5 148.5t-80.5 121.5l-140 -93l-53 81l122 81q-69 55 -143 88l68 93q34 -16 81 -41.5t98 -70.5l127 85l51 -83l-106 -71q43 -49 81.5 -115t68 -152t47 -195t17.5 -243 q0 -183 -31.5 -307.5t-84.5 -202t-124 -112t-155 -34.5q-102 0 -176.5 40.5t-121.5 114.5t-69.5 177t-22.5 229zM245 535q0 -224 68.5 -322t174.5 -98q49 0 91.5 28t73 87.5t49 155.5t18.5 232q0 21 -1 52t-3.5 61.5t-5.5 58t-5 45.5q-30 55 -92 82.5t-123 27.5 q-64 0 -109.5 -29.5t-77 -83.5t-45 -130t-13.5 -167z" />
<glyph unicode="&#xf1;" horiz-adv-x="934" d="M126 0v1065h110l28 -113h6q41 57 110 98t165 41q69 0 121 -19.5t87 -65t53.5 -122.5t18.5 -193v-691h-154v650q0 160 -37.5 231t-133.5 71q-85 0 -140 -51t-81 -126v-775h-153zM126 0zM213 1390q57 73 102 99.5t81 26.5q30 0 55.5 -12.5t50 -26.5t47 -27t48.5 -13 q18 0 38.5 10t43.5 35l49 -80q-51 -61 -90 -85t-74 -24q-30 0 -55.5 12t-50 26.5t-47.5 26.5t-49 12q-24 0 -47 -12t-51 -41z" />
<glyph unicode="&#xf2;" horiz-adv-x="919" d="M79 0zM79 532q0 288 99 423.5t282 135.5q195 0 288 -139t93 -420q0 -290 -100 -424t-281 -134q-196 0 -288.5 139t-92.5 419zM238 532q0 -93 12 -170t38.5 -132t69 -86t102.5 -31q110 0 165.5 99t55.5 320q0 92 -11.5 170t-38 133t-69 86t-102.5 31q-108 0 -165 -100 t-57 -320zM254 1489v45h177l110 -318h-87z" />
<glyph unicode="&#xf3;" horiz-adv-x="919" d="M79 0zM79 532q0 288 99 423.5t282 135.5q195 0 288 -139t93 -420q0 -290 -100 -424t-281 -134q-196 0 -288.5 139t-92.5 419zM238 532q0 -93 12 -170t38.5 -132t69 -86t102.5 -31q110 0 165.5 99t55.5 320q0 92 -11.5 170t-38 133t-69 86t-102.5 31q-108 0 -165 -100 t-57 -320zM384 1216l100 318h166v-45l-175 -273h-91z" />
<glyph unicode="&#xf4;" horiz-adv-x="919" d="M79 0zM79 532q0 288 99 423.5t282 135.5q195 0 288 -139t93 -420q0 -290 -100 -424t-281 -134q-196 0 -288.5 139t-92.5 419zM228 1171l211 388h74l190 -388h-134l-69 141l-34 123l-36 -123l-76 -141h-126zM238 532q0 -93 12 -170t38.5 -132t69 -86t102.5 -31 q110 0 165.5 99t55.5 320q0 92 -11.5 170t-38 133t-69 86t-102.5 31q-108 0 -165 -100t-57 -320z" />
<glyph unicode="&#xf5;" horiz-adv-x="919" d="M79 0zM79 532q0 288 99 423.5t282 135.5q195 0 288 -139t93 -420q0 -290 -100 -424t-281 -134q-196 0 -288.5 139t-92.5 419zM205 1390q57 73 102 99.5t81 26.5q30 0 55.5 -12.5t50 -26.5t47 -27t48.5 -13q18 0 38.5 10t43.5 35l49 -80q-51 -61 -90 -85t-74 -24 q-30 0 -55.5 12t-50 26.5t-47.5 26.5t-49 12q-24 0 -47 -12t-51 -41zM238 532q0 -93 12 -170t38.5 -132t69 -86t102.5 -31q110 0 165.5 99t55.5 320q0 92 -11.5 170t-38 133t-69 86t-102.5 31q-108 0 -165 -100t-57 -320z" />
<glyph unicode="&#xf6;" horiz-adv-x="919" d="M79 0zM79 532q0 288 99 423.5t282 135.5q195 0 288 -139t93 -420q0 -290 -100 -424t-281 -134q-196 0 -288.5 139t-92.5 419zM197 1390q0 49 24.5 77.5t66.5 28.5q43 0 67.5 -28.5t24.5 -77.5q0 -44 -24.5 -71.5t-67.5 -27.5q-42 0 -66.5 27.5t-24.5 71.5zM238 532 q0 -93 12 -170t38.5 -132t69 -86t102.5 -31q110 0 165.5 99t55.5 320q0 92 -11.5 170t-38 133t-69 86t-102.5 31q-108 0 -165 -100t-57 -320zM536 1390q0 49 24.5 77.5t66.5 28.5q43 0 67.5 -28.5t24.5 -77.5q0 -44 -24.5 -71.5t-67.5 -27.5q-42 0 -66.5 27.5t-24.5 71.5z " />
<glyph unicode="&#xf7;" horiz-adv-x="882" d="M75 652v143h732v-143h-732zM339 362q0 59 28.5 89.5t77.5 30.5t77.5 -30t28.5 -90q0 -61 -28.5 -91.5t-77.5 -30.5t-77.5 30.5t-28.5 91.5zM339 1086q0 59 28.5 89t77.5 30t77.5 -29.5t28.5 -89.5q0 -62 -28.5 -91.5t-77.5 -29.5t-77.5 29.5t-28.5 91.5z" />
<glyph unicode="&#xf8;" horiz-adv-x="927" d="M85 532q0 279 99 419t283 140q124 0 208 -62l41 68l104 -64l-58 -102q43 -71 64.5 -171t21.5 -228q0 -282 -99 -420t-282 -138q-132 0 -219 69l-45 -73l-105 68l64 109q-77 140 -77 385zM245 532q0 -63 4.5 -120.5t16.5 -106.5l335 585q-26 30 -59 46t-75 16 q-108 0 -165 -100t-57 -320zM321 185q55 -73 146 -72q110 0 165.5 100t55.5 319q0 69 -5.5 129.5t-20.5 109.5z" />
<glyph unicode="&#xf9;" horiz-adv-x="923" d="M110 0zM110 374v691h154v-652q0 -162 33 -231t120 -69q45 0 80 18t63 48t49 68t34 79v739h154v-762q0 -77 5 -159.5t15 -143.5h-108l-38 149h-6q-37 -71 -105 -123t-170 -52q-69 0 -120 17t-87 62t-54.5 123t-18.5 198zM243 1489v45h177l110 -318h-87z" />
<glyph unicode="&#xfa;" horiz-adv-x="923" d="M110 0zM110 374v691h154v-652q0 -162 33 -231t120 -69q45 0 80 18t63 48t49 68t34 79v739h154v-762q0 -77 5 -159.5t15 -143.5h-108l-38 149h-6q-37 -71 -105 -123t-170 -52q-69 0 -120 17t-87 62t-54.5 123t-18.5 198zM382 1216l100 318h166v-45l-175 -273h-91z" />
<glyph unicode="&#xfb;" horiz-adv-x="923" d="M110 0zM110 374v691h154v-652q0 -162 33 -231t120 -69q45 0 80 18t63 48t49 68t34 79v739h154v-762q0 -77 5 -159.5t15 -143.5h-108l-38 149h-6q-37 -71 -105 -123t-170 -52q-69 0 -120 17t-87 62t-54.5 123t-18.5 198zM222 1171l211 388h74l190 -388h-134l-69 141 l-34 123l-36 -123l-76 -141h-126z" />
<glyph unicode="&#xfc;" horiz-adv-x="923" d="M110 0zM110 374v691h154v-652q0 -162 33 -231t120 -69q45 0 80 18t63 48t49 68t34 79v739h154v-762q0 -77 5 -159.5t15 -143.5h-108l-38 149h-6q-37 -71 -105 -123t-170 -52q-69 0 -120 17t-87 62t-54.5 123t-18.5 198zM194 1390q0 49 24.5 77.5t66.5 28.5 q43 0 67.5 -28.5t24.5 -77.5q0 -44 -24.5 -71.5t-67.5 -27.5q-42 0 -66.5 27.5t-24.5 71.5zM533 1390q0 49 24.5 77.5t66.5 28.5q43 0 67.5 -28.5t24.5 -77.5q0 -44 -24.5 -71.5t-67.5 -27.5q-42 0 -66.5 27.5t-24.5 71.5z" />
<glyph unicode="&#xfd;" horiz-adv-x="800" d="M15 0zM15 1065h174l201 -689l45 -205h10l32 205l162 689h156l-254 -957q-30 -115 -60 -215t-64.5 -173.5t-78.5 -115t-104 -41.5q-59 0 -104 20l26 145q30 -11 59.5 -4.5t56 36t49 88t39.5 152.5zM366 1216l100 318h166v-45l-175 -273h-91z" />
<glyph unicode="&#xfe;" horiz-adv-x="925" d="M126 -426v1917h153v-511h6q34 51 91 81t138 30q168 0 251 -126t83 -412q0 -134 -28 -241t-78.5 -182t-123.5 -115.5t-162 -40.5q-62 0 -101.5 9t-75.5 27v-436h-153zM279 166q30 -26 67.5 -39.5t98.5 -13.5q113 0 178 115t65 328q0 90 -11.5 162t-36 124t-65 81t-98.5 29 q-75 0 -125.5 -48t-72.5 -133v-605z" />
<glyph unicode="&#xff;" horiz-adv-x="800" d="M15 0zM15 1065h174l201 -689l45 -205h10l32 205l162 689h156l-254 -957q-30 -115 -60 -215t-64.5 -173.5t-78.5 -115t-104 -41.5q-59 0 -104 20l26 145q30 -11 59.5 -4.5t56 36t49 88t39.5 152.5zM140 1390q0 49 24.5 77.5t66.5 28.5q43 0 67.5 -28.5t24.5 -77.5 q0 -44 -24.5 -71.5t-67.5 -27.5q-42 0 -66.5 27.5t-24.5 71.5zM479 1390q0 49 24.5 77.5t66.5 28.5q43 0 67.5 -28.5t24.5 -77.5q0 -44 -24.5 -71.5t-67.5 -27.5q-42 0 -66.5 27.5t-24.5 71.5z" />
<glyph unicode="&#x100;" horiz-adv-x="1006" d="M10 0l450 1514h87l449 -1514h-165l-122 417h-422l-119 -417h-158zM10 0zM228 1663v132h551v-132h-551zM330 561h341l-130 459l-41 224h-4l-40 -228z" />
<glyph unicode="&#x101;" horiz-adv-x="851" d="M61 0zM61 285q0 91 31.5 153t87.5 100.5t134 54.5t174 16h42t45 -2q6 66 6 117q0 122 -36 170.5t-132 48.5q-59 0 -129.5 -18t-117.5 -45l-51 122q62 38 150.5 59t185.5 21q90 0 144.5 -26.5t85 -72.5t40 -104.5t9.5 -122.5q0 -128 -5 -249t-5 -230q0 -81 5 -150.5 t21 -130.5h-118l-36 126h-9q-32 -55 -93.5 -96t-166.5 -41q-115 0 -188.5 80t-73.5 220zM162 1242v128h518v-128h-518zM222 303q0 -86 41.5 -132.5t106.5 -46.5q90 0 139 42.5t68 93.5v226q-21 2 -42 3t-43 1q-51 0 -100 -8.5t-87.5 -29.5t-60.5 -57.5t-22 -91.5z" />
<glyph unicode="&#x102;" horiz-adv-x="1006" d="M10 0l450 1514h87l449 -1514h-165l-122 417h-422l-119 -417h-158zM10 0zM203 1813l81 42q30 -72 89.5 -117t140.5 -45q83 0 137 48t82 114l77 -34q-32 -134 -116 -200t-182 -66q-92 0 -180.5 62t-128.5 196zM330 561h341l-130 459l-41 224h-4l-40 -228z" />
<glyph unicode="&#x103;" horiz-adv-x="851" d="M61 0zM61 285q0 91 31.5 153t87.5 100.5t134 54.5t174 16h42t45 -2q6 66 6 117q0 122 -36 170.5t-132 48.5q-59 0 -129.5 -18t-117.5 -45l-51 122q62 38 150.5 59t185.5 21q90 0 144.5 -26.5t85 -72.5t40 -104.5t9.5 -122.5q0 -128 -5 -249t-5 -230q0 -81 5 -150.5 t21 -130.5h-118l-36 126h-9q-32 -55 -93.5 -96t-166.5 -41q-115 0 -188.5 80t-73.5 220zM160 1489l83 38q30 -77 81 -122.5t113 -45.5q59 0 105 45t73 123l79 -31q-4 -56 -26 -106t-56.5 -87t-80.5 -59.5t-97 -22.5q-99 0 -175 70t-99 198zM222 303q0 -86 41.5 -132.5 t106.5 -46.5q90 0 139 42.5t68 93.5v226q-21 2 -42 3t-43 1q-51 0 -100 -8.5t-87.5 -29.5t-60.5 -57.5t-22 -91.5z" />
<glyph unicode="&#x104;" horiz-adv-x="1006" d="M10 0l450 1514h87l449 -1514h-44q-47 -34 -73.5 -81t-26.5 -106q2 -62 41.5 -95t118.5 -1l21 -85q-24 -24 -67.5 -36.5t-83.5 -12.5q-85 0 -134 51t-51 132q2 81 40 139.5t104 94.5h-10l-122 417h-422l-119 -417h-158zM330 561h341l-130 459l-41 224h-4l-40 -228z" />
<glyph unicode="&#x105;" horiz-adv-x="851" d="M61 285q0 91 31.5 153t87.5 100.5t134 54.5t174 16h42t45 -2q6 66 6 119q0 122 -36 169.5t-132 47.5q-59 0 -129.5 -18t-117.5 -45l-51 122q62 38 150.5 59t185.5 21q90 0 144.5 -26.5t85 -72.5t40 -104.5t9.5 -122.5q0 -128 -5 -249t-5 -230q0 -81 5 -150.5t21 -130.5 h-41q-45 -34 -70.5 -80t-25.5 -103q3 -62 42.5 -95t117.5 -1l21 -85q-24 -24 -67.5 -36.5t-83.5 -12.5q-86 0 -136 51t-50 132q0 89 47 149.5t122 96.5l-30 110h-9q-32 -55 -93.5 -96t-166.5 -41q-115 0 -188.5 80t-73.5 220zM222 303q0 -86 40.5 -132.5t105.5 -46.5 q90 0 140 42.5t69 93.5v226q-21 2 -43 3t-44 1q-51 0 -100 -8.5t-86.5 -29.5t-59.5 -57.5t-22 -91.5z" />
<glyph unicode="&#x106;" horiz-adv-x="974" d="M92 0zM92 746q0 213 43.5 359.5t115.5 238t167.5 132t195.5 40.5q102 0 169 -14.5t116 -36.5l-39 -144q-43 24 -100 36.5t-132 12.5t-140.5 -33.5t-117 -107t-81 -192.5t-29.5 -291q0 -311 106.5 -467.5t283.5 -156.5q73 0 130 20t98 47l38 -132q-53 -45 -134 -64 t-170 -19q-114 0 -209.5 42.5t-165 135.5t-107.5 240t-38 354zM508 1602l198 251h211v-44l-279 -207h-130z" />
<glyph unicode="&#x107;" horiz-adv-x="758" d="M79 0zM79 532q0 273 96.5 416t277.5 143q84 0 143.5 -15t102.5 -39l-43 -134q-85 49 -185 49q-115 0 -174 -101t-59 -319q0 -87 13 -163.5t42.5 -133t76.5 -89.5t118 -33q55 0 103 19t78 45l44 -124q-53 -41 -121 -60t-143 -19q-102 0 -172 39.5t-113.5 113.5t-64 177 t-20.5 228zM394 1216l100 318h166v-45l-175 -273h-91z" />
<glyph unicode="&#x108;" horiz-adv-x="974" d="M92 0zM92 746q0 213 43.5 359.5t115.5 238t167.5 132t195.5 40.5q102 0 169 -14.5t116 -36.5l-39 -144q-43 24 -100 36.5t-132 12.5t-140.5 -33.5t-117 -107t-81 -192.5t-29.5 -291q0 -311 106.5 -467.5t283.5 -156.5q73 0 130 20t98 47l38 -132q-53 -45 -134 -64 t-170 -19q-114 0 -209.5 42.5t-165 135.5t-107.5 240t-38 354zM315 1591v47l228 215h106l217 -217v-45h-140l-100 104l-32 75l-33 -73l-110 -106h-136z" />
<glyph unicode="&#x109;" horiz-adv-x="758" d="M79 0zM79 532q0 273 96.5 416t277.5 143q84 0 143.5 -15t102.5 -39l-43 -134q-85 49 -185 49q-115 0 -174 -101t-59 -319q0 -87 13 -163.5t42.5 -133t76.5 -89.5t118 -33q55 0 103 19t78 45l44 -124q-53 -41 -121 -60t-143 -19q-102 0 -172 39.5t-113.5 113.5t-64 177 t-20.5 228zM187 1171l211 388h74l190 -388h-134l-69 141l-34 123l-36 -123l-76 -141h-126z" />
<glyph unicode="&#x10c;" horiz-adv-x="974" d="M92 0zM92 746q0 213 43.5 359.5t115.5 238t167.5 132t195.5 40.5q102 0 169 -14.5t116 -36.5l-39 -144q-43 24 -100 36.5t-132 12.5t-140.5 -33.5t-117 -107t-81 -192.5t-29.5 -291q0 -311 106.5 -467.5t283.5 -156.5q73 0 130 20t98 47l38 -132q-53 -45 -134 -64 t-170 -19q-114 0 -209.5 42.5t-165 135.5t-107.5 240t-38 354zM326 1809v44h147l99 -107l31 -72l32 70l106 109h140v-47l-225 -217h-113z" />
<glyph unicode="&#x10d;" horiz-adv-x="758" d="M79 0zM79 532q0 273 96.5 416t277.5 143q84 0 143.5 -15t102.5 -39l-43 -134q-85 49 -185 49q-115 0 -174 -101t-59 -319q0 -87 13 -163.5t42.5 -133t76.5 -89.5t118 -33q55 0 103 19t78 45l44 -124q-53 -41 -121 -60t-143 -19q-102 0 -172 39.5t-113.5 113.5t-64 177 t-20.5 228zM194 1559h144l67 -140l35 -124l37 124l77 140h130l-211 -388h-81z" />
<glyph unicode="&#x10e;" horiz-adv-x="1118" d="M136 0zM136 -2v1493q35 7 76.5 10t84 4t84 2t77.5 1q156 0 264.5 -53t176.5 -152.5t97.5 -237.5t29.5 -309q0 -153 -28.5 -294t-96.5 -247.5t-180 -170t-280 -63.5q-28 0 -70.5 1t-88.5 4.5t-85 5.5t-61 6zM189 1809v44h147l99 -107l31 -72l32 70l106 109h140v-47 l-225 -217h-113zM296 136q9 -2 31 -3t46.5 -2t47 -2t32.5 -1q118 0 196.5 51t124.5 137t65 200t19 242q0 114 -16.5 222.5t-60.5 192t-119 136t-195 52.5h-46t-48.5 -2t-43.5 -4.5t-33 -4.5v-1214z" />
<glyph unicode="&#x10f;" horiz-adv-x="988" d="M79 0zM79 530q0 273 103 413.5t285 140.5q61 0 97.5 -7.5t78.5 -24.5v439h154v-1125q0 -108 2 -196.5t14 -173.5h-104l-34 128h-8q-31 -64 -94.5 -107t-153.5 -43q-173 0 -256.5 134t-83.5 422zM238 528q0 -93 12 -169t36.5 -131t64 -85t96.5 -30q153 0 196 181v602 q-30 26 -67 37.5t-99 11.5q-113 0 -176 -101.5t-63 -315.5zM861 1120q31 77 45.5 175t14.5 196h154q-5 -61 -22 -125.5t-40.5 -119.5t-48 -96.5t-39.5 -60.5z" />
<glyph unicode="&#x110;" horiz-adv-x="1130" d="M-2 711v124h151v656q34 7 75.5 10t84.5 4t84.5 2t77.5 1q156 0 264 -53t176.5 -152.5t98 -237.5t29.5 -309q0 -153 -28.5 -294t-96.5 -247.5t-180 -170t-281 -63.5q-28 0 -70 1t-87.5 4.5t-85 5.5t-61.5 6v713h-151zM0 0zM309 136q8 -2 30.5 -3t47 -2t47 -2t33.5 -1 q117 0 196 51t124.5 137t65 200t19.5 242q0 114 -17.5 222.5t-61 192t-119 136t-195.5 52.5h-45t-48.5 -2t-44 -4.5t-32.5 -4.5v-515h249v-124h-249v-575z" />
<glyph unicode="&#x111;" horiz-adv-x="923" d="M79 530q0 273 103 413.5t285 140.5q61 0 97.5 -7.5t78.5 -24.5v171h-267v123h267v145h154v-145h136v-123h-136v-857q0 -108 2 -196.5t14 -173.5h-104l-34 128h-8q-31 -64 -94.5 -107t-153.5 -43q-173 0 -256.5 134t-83.5 422zM238 528q0 -93 12 -169t36.5 -131t64 -85 t96.5 -30q153 0 196 181v602q-30 26 -67 37.5t-99 11.5q-113 0 -176 -101.5t-63 -315.5z" />
<glyph unicode="&#x112;" horiz-adv-x="913" d="M136 0v1491h663v-147h-503v-505h462v-146h-462v-546h513v-147h-673zM136 0zM179 1663v132h551v-132h-551z" />
<glyph unicode="&#x113;" horiz-adv-x="878" d="M79 0zM79 532q0 273 100 416t283 143q59 0 118 -15t106 -60t75.5 -126t28.5 -211q0 -36 -3 -77t-7 -86h-542q0 -92 15 -166.5t47 -126.5t82.5 -81t123.5 -29q58 0 114.5 21.5t86.5 50.5l55 -112q-51 -47 -130 -73t-165 -26q-100 0 -174 39.5t-121.5 113.5t-70 176 t-22.5 229zM181 1242v128h518v-128h-518zM240 643h403q4 160 -45 234.5t-134 74.5q-98 0 -155 -74.5t-69 -234.5z" />
<glyph unicode="&#x116;" horiz-adv-x="913" d="M136 0v1491h663v-147h-503v-505h462v-146h-462v-546h513v-147h-673zM136 0zM354 1697q0 45 29.5 78.5t84.5 33.5t86.5 -33.5t31.5 -78.5q0 -49 -31 -80.5t-87 -31.5q-55 0 -84.5 31.5t-29.5 80.5z" />
<glyph unicode="&#x117;" horiz-adv-x="878" d="M79 0zM79 532q0 273 100 416t283 143q59 0 118 -15t106 -60t75.5 -126t28.5 -211q0 -36 -3 -77t-7 -86h-542q0 -92 15 -166.5t47 -126.5t82.5 -81t123.5 -29q58 0 114.5 21.5t86.5 50.5l55 -112q-51 -47 -130 -73t-165 -26q-100 0 -174 39.5t-121.5 113.5t-70 176 t-22.5 229zM240 643h403q4 160 -45 234.5t-134 74.5q-98 0 -155 -74.5t-69 -234.5zM356 1388q0 51 28.5 83.5t75.5 32.5t78 -31.5t31 -84.5q0 -51 -31 -79.5t-78 -28.5t-75.5 30t-28.5 78z" />
<glyph unicode="&#x118;" horiz-adv-x="913" d="M136 0v1491h663v-147h-503v-505h462v-146h-462v-546h513v-147h-65q-47 -34 -74 -81t-27 -106q2 -62 41.5 -95t118.5 -1l22 -85q-24 -24 -68 -36.5t-84 -12.5q-85 0 -135 51t-50 132t39.5 139.5t104.5 94.5h-496z" />
<glyph unicode="&#x119;" horiz-adv-x="870" d="M79 532q0 273 100 416t283 143q68 0 134 -20.5t114 -82t69.5 -174.5t0.5 -298h-544q0 -92 15 -166.5t47 -128t83.5 -82.5t124.5 -29q58 0 114.5 23t86.5 52l55 -112q-40 -39 -100 -63q-46 -32 -76 -73q-39 -53 -37 -124q0 -59 39.5 -92.5t120.5 2.5l21 -91 q-26 -26 -70 -37.5t-87 -11.5q-81 0 -128 51t-47 138q0 92 53 155q21 26 51 49q-18 -2 -35 -2q-100 0 -174 39.5t-121.5 113.5t-70 176t-22.5 229zM240 643h403q4 160 -45 236t-134 76q-98 0 -155 -76t-69 -236z" />
<glyph unicode="&#x11a;" horiz-adv-x="913" d="M136 0v1491h663v-147h-503v-505h462v-146h-462v-546h513v-147h-673zM136 0zM185 1809v44h147l99 -107l31 -72l32 70l106 109h140v-47l-225 -217h-113z" />
<glyph unicode="&#x11b;" horiz-adv-x="878" d="M79 0zM79 532q0 273 100 416t283 143q59 0 118 -15t106 -60t75.5 -126t28.5 -211q0 -36 -3 -77t-7 -86h-542q0 -92 15 -166.5t47 -126.5t82.5 -81t123.5 -29q58 0 114.5 21.5t86.5 50.5l55 -112q-51 -47 -130 -73t-165 -26q-100 0 -174 39.5t-121.5 113.5t-70 176 t-22.5 229zM209 1559h144l67 -140l35 -124l37 124l77 140h130l-211 -388h-81zM240 643h403q4 160 -45 234.5t-134 74.5q-98 0 -155 -74.5t-69 -234.5z" />
<glyph unicode="&#x11c;" horiz-adv-x="1047" d="M92 0zM92 746q0 209 44.5 354.5t120 238t172.5 135t199 42.5t171.5 -13.5t118.5 -37.5l-38 -144q-43 24 -101.5 36.5t-135.5 12.5q-75 0 -142.5 -32.5t-122.5 -105.5t-86.5 -192.5t-31.5 -293.5q0 -320 101 -472t278 -152q110 0 184 53v434l-276 41v94h412v-657 q-59 -55 -153.5 -84t-189.5 -29q-120 0 -216.5 44.5t-165 140t-105.5 240t-37 347.5zM341 1591v47l228 215h106l217 -217v-45h-140l-100 104l-32 75l-33 -73l-110 -106h-136z" />
<glyph unicode="&#x11d;" horiz-adv-x="919" d="M79 0zM79 528q0 275 105.5 415.5t311.5 140.5q100 0 173 -19t128 -45v-1069q0 -207 -91.5 -304.5t-266.5 -97.5q-106 0 -174.5 18t-111.5 41l45 132q42 -19 93.5 -36t125.5 -17q130 0 178 72.5t48 242.5v79h-7q-34 -49 -87 -77t-136 -28q-173 0 -253.5 133t-80.5 419z M232 1171l211 388h74l190 -388h-134l-69 141l-34 123l-36 -123l-76 -141h-126zM238 530q0 -89 11 -164.5t36.5 -132t65 -87.5t96.5 -31q81 0 128 43t68 127v627q-64 34 -164 33q-108 0 -174.5 -98.5t-66.5 -316.5z" />
<glyph unicode="&#x11e;" horiz-adv-x="1047" d="M92 0zM92 746q0 209 44.5 354.5t120 238t172.5 135t199 42.5t171.5 -13.5t118.5 -37.5l-38 -144q-43 24 -101.5 36.5t-135.5 12.5q-75 0 -142.5 -32.5t-122.5 -105.5t-86.5 -192.5t-31.5 -293.5q0 -320 101 -472t278 -152q110 0 184 53v434l-276 41v94h412v-657 q-59 -55 -153.5 -84t-189.5 -29q-120 0 -216.5 44.5t-165 140t-105.5 240t-37 347.5zM299 1813l81 42q30 -72 89.5 -117t140.5 -45q83 0 137 48t82 114l77 -34q-32 -134 -116 -200t-182 -66q-92 0 -180.5 62t-128.5 196z" />
<glyph unicode="&#x11f;" horiz-adv-x="919" d="M79 0zM79 528q0 275 105.5 415.5t311.5 140.5q100 0 173 -19t128 -45v-1069q0 -207 -91.5 -304.5t-266.5 -97.5q-106 0 -174.5 18t-111.5 41l45 132q42 -19 93.5 -36t125.5 -17q130 0 178 72.5t48 242.5v79h-7q-34 -49 -87 -77t-136 -28q-173 0 -253.5 133t-80.5 419z M201 1489l83 38q30 -77 81 -122.5t113 -45.5q59 0 105 45t73 123l79 -31q-4 -56 -26 -106t-56.5 -87t-80.5 -59.5t-97 -22.5q-99 0 -175 70t-99 198zM238 530q0 -89 11 -164.5t36.5 -132t65 -87.5t96.5 -31q81 0 128 43t68 127v627q-64 34 -164 33q-108 0 -174.5 -98.5 t-66.5 -316.5z" />
<glyph unicode="&#x122;" horiz-adv-x="1047" d="M92 0zM92 746q0 209 44.5 354.5t120 238t172.5 135t199 42.5t171.5 -13.5t118.5 -37.5l-38 -144q-43 24 -101.5 36.5t-135.5 12.5q-75 0 -142.5 -32.5t-122.5 -105.5t-86.5 -192.5t-31.5 -293.5q0 -320 101 -472t278 -152q110 0 184 53v434l-276 41v94h412v-657 q-59 -55 -153.5 -84t-189.5 -29q-120 0 -216.5 44.5t-165 140t-105.5 240t-37 347.5zM506 -217q0 44 27.5 71.5t66.5 27.5q46 0 80.5 -35.5t34.5 -123.5q0 -55 -16 -96.5t-38.5 -72.5t-47 -49.5t-44.5 -26.5l-57 58q37 28 61.5 67t21.5 90q-36 -4 -62.5 19.5t-26.5 70.5z " />
<glyph unicode="&#x123;" horiz-adv-x="919" d="M79 528q0 275 105.5 415.5t311.5 140.5q100 0 173 -19t128 -45v-1069q0 -207 -91.5 -304.5t-266.5 -97.5q-106 0 -174.5 18t-111.5 41l45 132q42 -19 93.5 -36t125.5 -17q130 0 178 72.5t48 242.5v79h-7q-34 -49 -87 -77t-136 -28q-173 0 -253.5 133t-80.5 419zM238 530 q0 -89 11 -164.5t36.5 -132t65 -87.5t96.5 -31q81 0 128 43t68 127v627q-64 34 -164 33q-108 0 -174.5 -98.5t-66.5 -316.5zM390 1357q0 51 16 92.5t38.5 72.5t47 51t43.5 29l55 -64q-35 -19 -59.5 -61t-24.5 -93q37 11 63.5 -14.5t26.5 -72.5q0 -45 -26.5 -72.5 t-65.5 -27.5q-46 0 -80 36.5t-34 123.5z" />
<glyph unicode="&#x124;" horiz-adv-x="1140" d="M136 0v1491h160v-656h550v656h160v-1491h-160v688h-550v-688h-160zM136 0zM292 1591v47l228 215h106l217 -217v-45h-140l-100 104l-32 75l-33 -73l-110 -106h-136z" />
<glyph unicode="&#x125;" horiz-adv-x="937" d="M126 0v1491h153v-526h6q43 55 105.5 90.5t156.5 35.5q71 0 123 -19.5t86 -66t51.5 -124.5t17.5 -193v-688h-154v648q0 149 -35 226.5t-140 77.5q-75 0 -135 -53t-82 -135v-764h-153zM126 0zM207 1591v47l228 215h106l217 -217v-45h-140l-100 104l-32 75l-33 -73 l-110 -106h-136z" />
<glyph unicode="&#x126;" horiz-adv-x="1168" d="M17 1118v128h134v245h160v-245h549v245h160v-245h134v-128h-134v-1118h-160v688h-549v-688h-160v1118h-134zM311 835h549v283h-549v-283z" />
<glyph unicode="&#x127;" horiz-adv-x="939" d="M-8 1223v123h136v145h153v-145h275v-123h-275v-258h6q43 55 106 90.5t156 35.5q71 0 123 -19.5t86 -66t51.5 -124.5t17.5 -193v-688h-154v648q0 149 -35 226.5t-140 77.5q-75 0 -135 -53t-82 -135v-764h-153v1223h-136z" />
<glyph unicode="&#x12a;" horiz-adv-x="496" d="M-25 1663v132h551v-132h-551zM0 0zM168 0v1491h160v-1491h-160z" />
<glyph unicode="&#x12b;" horiz-adv-x="461" d="M-25 1242v128h518v-128h-518zM0 0zM153 0v1065h154v-1065h-154z" />
<glyph unicode="&#x12e;" horiz-adv-x="498" d="M49 -232q0 75 39.5 135.5t104.5 96.5h-25v1491h160v-1491h-27q-43 -32 -69.5 -78t-24.5 -111q0 -60 38 -94t119 -2l22 -83q-26 -26 -70 -37.5t-84 -11.5q-81 0 -132 49t-51 136z" />
<glyph unicode="&#x12f;" horiz-adv-x="461" d="M30 -230q0 75 37 134.5t101 95.5h-15v1065h154v-1065h-30q-43 -34 -70.5 -82t-25.5 -107q0 -30 12 -54.5t32 -39.5t50 -15t68 21l19 -91q-26 -26 -70 -37.5t-87 -11.5q-81 0 -128 50t-47 137zM124 1388q0 51 28.5 83.5t75.5 32.5t78 -31.5t31 -84.5q0 -51 -31 -79.5 t-78 -28.5t-75.5 30t-28.5 78z" />
<glyph unicode="&#x130;" horiz-adv-x="496" d="M132 0zM132 1697q0 45 29.5 78.5t84.5 33.5t86.5 -33.5t31.5 -78.5q0 -49 -31 -80.5t-87 -31.5q-55 0 -84.5 31.5t-29.5 80.5zM168 0v1491h160v-1491h-160z" />
<glyph unicode="&#x131;" horiz-adv-x="461" d="M153 0v1065h154v-1065h-154z" />
<glyph unicode="&#x134;" horiz-adv-x="512" d="M-55 12l34 139q21 -13 47.5 -19t54.5 -6q39 0 62 17t35.5 48t16 74.5t3.5 98.5v1127h160v-1156q0 -175 -56.5 -265.5t-197.5 -90.5q-34 0 -82 8.5t-77 24.5zM0 0zM0 1591v47l228 215h106l217 -217v-45h-140l-100 104l-32 75l-33 -73l-110 -106h-136z" />
<glyph unicode="&#x135;" horiz-adv-x="457" d="M2 0zM2 1171l211 388h74l190 -388h-134l-69 141l-34 123l-36 -123l-76 -141h-126zM14 -309q47 0 76 19.5t45 59t20 97.5t4 137v1061h154v-1122q0 -220 -70.5 -317t-228.5 -73v138z" />
<glyph unicode="&#x136;" horiz-adv-x="1049" d="M136 0v1491h160v-694l74 30l388 664h183l-390 -643l-74 -68l88 -85l431 -695h-201l-423 691h-76v-691h-160zM136 0zM400 -217q0 44 27.5 71.5t66.5 27.5q46 0 80.5 -35.5t34.5 -123.5q0 -55 -16 -96.5t-38.5 -72.5t-47 -49.5t-44.5 -26.5l-57 58q37 28 61.5 67t21.5 90 q-36 -4 -62.5 19.5t-26.5 70.5z" />
<glyph unicode="&#x137;" horiz-adv-x="825" d="M126 0v1491h153v-908l70 31l249 451h177l-251 -431l-75 -67l88 -83l274 -484h-185l-268 479h-79v-479h-153zM126 0zM311 -217q0 44 27.5 71.5t66.5 27.5q46 0 80.5 -35.5t34.5 -123.5q0 -55 -16 -96.5t-38.5 -72.5t-47 -49.5t-44.5 -26.5l-57 58q37 28 61.5 67t21.5 90 q-36 -4 -62.5 19.5t-26.5 70.5z" />
<glyph unicode="&#x139;" horiz-adv-x="882" d="M136 0v1491h160v-1344h558v-147h-718zM136 0zM171 1602l198 251h211v-44l-279 -207h-130z" />
<glyph unicode="&#x13a;" horiz-adv-x="496" d="M136 0zM136 203v1288h154v-1237q0 -75 20 -107t56 -32q45 0 105 23l15 -123q-28 -17 -78 -28t-91 -11q-81 0 -131 50.5t-50 176.5zM147 1602l198 251h211v-44l-279 -207h-130z" />
<glyph unicode="&#x13b;" horiz-adv-x="882" d="M136 0v1491h160v-1344h558v-147h-718zM136 0zM328 -217q0 44 27.5 71.5t66.5 27.5q46 0 80.5 -35.5t34.5 -123.5q0 -55 -16 -96.5t-38.5 -72.5t-47 -49.5t-44.5 -26.5l-57 58q37 28 61.5 67t21.5 90q-36 -4 -62.5 19.5t-26.5 70.5z" />
<glyph unicode="&#x13c;" horiz-adv-x="496" d="M136 0zM136 203v1288h154v-1237q0 -75 20 -107t56 -32q45 0 105 23l15 -123q-28 -17 -78 -28t-91 -11q-81 0 -131 50.5t-50 176.5zM196 -217q0 44 27.5 71.5t66.5 27.5q46 0 80.5 -35.5t34.5 -123.5q0 -55 -16 -96.5t-38.5 -72.5t-47 -49.5t-44.5 -26.5l-57 58 q37 28 61.5 67t21.5 90q-36 -4 -62.5 19.5t-26.5 70.5z" />
<glyph unicode="&#x13d;" horiz-adv-x="882" d="M136 0v1491h160v-1344h558v-147h-718zM136 0zM542 1120q31 77 45.5 175t14.5 196h154q-5 -61 -22 -125.5t-40.5 -119.5t-48 -96.5t-39.5 -60.5z" />
<glyph unicode="&#x13e;" horiz-adv-x="508" d="M136 0zM136 203v1288h154v-1237q0 -75 20 -107t56 -32q45 0 105 23l15 -123q-28 -17 -78 -28t-91 -11q-81 0 -131 50.5t-50 176.5zM353 1120q31 77 45.5 175t14.5 196h154q-5 -61 -22 -125.5t-40.5 -119.5t-48 -96.5t-39.5 -60.5z" />
<glyph unicode="&#x141;" horiz-adv-x="890" d="M32 449v169l110 102v771h161v-624l191 179v-177l-191 -174v-548h557v-147h-718v549z" />
<glyph unicode="&#x142;" horiz-adv-x="498" d="M17 445v169l128 116v761h153v-617l181 167v-177l-181 -163v-447q0 -75 20.5 -107t55.5 -32q45 0 105 23l15 -123q-28 -17 -78 -28t-90 -11q-82 0 -131.5 50.5t-49.5 176.5v358z" />
<glyph unicode="&#x143;" horiz-adv-x="1145" d="M136 0v1514h96l552 -967l88 -224h8l-24 224v944h154v-1515h-98l-548 969l-92 235h-6l24 -235v-945h-154zM136 0zM498 1602l198 251h211v-44l-279 -207h-130z" />
<glyph unicode="&#x144;" horiz-adv-x="934" d="M126 0v1065h110l28 -113h6q41 57 110 98t165 41q69 0 121 -19.5t87 -65t53.5 -122.5t18.5 -193v-691h-154v650q0 160 -37.5 231t-133.5 71q-85 0 -140 -51t-81 -126v-775h-153zM126 0zM413 1216l100 318h166v-45l-175 -273h-91z" />
<glyph unicode="&#x145;" horiz-adv-x="1145" d="M136 0v1514h96l552 -967l88 -224h8l-24 224v944h154v-1515h-98l-548 969l-92 235h-6l24 -235v-945h-154zM136 0zM475 -217q0 44 27.5 71.5t66.5 27.5q46 0 80.5 -35.5t34.5 -123.5q0 -55 -16 -96.5t-38.5 -72.5t-47 -49.5t-44.5 -26.5l-57 58q37 28 61.5 67t21.5 90 q-36 -4 -62.5 19.5t-26.5 70.5z" />
<glyph unicode="&#x146;" horiz-adv-x="934" d="M126 0v1065h110l28 -113h6q41 57 110 98t165 41q69 0 121 -19.5t87 -65t53.5 -122.5t18.5 -193v-691h-154v650q0 160 -37.5 231t-133.5 71q-85 0 -140 -51t-81 -126v-775h-153zM126 0zM364 -217q0 44 27.5 71.5t66.5 27.5q46 0 80.5 -35.5t34.5 -123.5q0 -55 -16 -96.5 t-38.5 -72.5t-47 -49.5t-44.5 -26.5l-57 58q37 28 61.5 67t21.5 90q-36 -4 -62.5 19.5t-26.5 70.5z" />
<glyph unicode="&#x147;" horiz-adv-x="1145" d="M136 0v1514h96l552 -967l88 -224h8l-24 224v944h154v-1515h-98l-548 969l-92 235h-6l24 -235v-945h-154zM136 0zM299 1809v44h147l99 -107l31 -72l32 70l106 109h140v-47l-225 -217h-113z" />
<glyph unicode="&#x148;" horiz-adv-x="934" d="M126 0v1065h110l28 -113h6q41 57 110 98t165 41q69 0 121 -19.5t87 -65t53.5 -122.5t18.5 -193v-691h-154v650q0 160 -37.5 231t-133.5 71q-85 0 -140 -51t-81 -126v-775h-153zM126 0zM226 1559h144l67 -140l35 -124l37 124l77 140h130l-211 -388h-81z" />
<glyph unicode="&#x14c;" horiz-adv-x="1168" d="M92 0zM92 746q0 379 121.5 574.5t369.5 195.5q135 0 228.5 -54t152 -154.5t86 -243t27.5 -318.5q0 -380 -122 -576t-372 -196q-132 0 -225.5 54.5t-153 154.5t-86 243t-26.5 320zM260 746q0 -126 18 -239t56 -198t100 -136t149 -51q161 0 243.5 153t82.5 471 q0 123 -17.5 236t-56 199.5t-100.5 137.5t-152 51q-158 0 -240.5 -153.5t-82.5 -470.5zM317 1663v132h551v-132h-551z" />
<glyph unicode="&#x14d;" horiz-adv-x="919" d="M79 0zM79 532q0 288 99 423.5t282 135.5q195 0 288 -139t93 -420q0 -290 -100 -424t-281 -134q-196 0 -288.5 139t-92.5 419zM201 1242v128h518v-128h-518zM238 532q0 -93 12 -170t38.5 -132t69 -86t102.5 -31q110 0 165.5 99t55.5 320q0 92 -11.5 170t-38 133t-69 86 t-102.5 31q-108 0 -165 -100t-57 -320z" />
<glyph unicode="&#x150;" horiz-adv-x="1168" d="M92 0zM92 746q0 379 121.5 574.5t369.5 195.5q135 0 228.5 -54t152 -154.5t86 -243t27.5 -318.5q0 -380 -122 -576t-372 -196q-132 0 -225.5 54.5t-153 154.5t-86 243t-26.5 320zM260 746q0 -126 18 -239t56 -198t100 -136t149 -51q161 0 243.5 153t82.5 471 q0 123 -17.5 236t-56 199.5t-100.5 137.5t-152 51q-158 0 -240.5 -153.5t-82.5 -470.5zM400 1579l108 232h173v-35l-171 -197h-110zM626 1579l172 232h183v-35l-245 -197h-110z" />
<glyph unicode="&#x151;" horiz-adv-x="919" d="M79 0zM79 532q0 288 99 423.5t282 135.5q195 0 288 -139t93 -420q0 -290 -100 -424t-281 -134q-196 0 -288.5 139t-92.5 419zM238 532q0 -93 12 -170t38.5 -132t69 -86t102.5 -31q110 0 165.5 99t55.5 320q0 92 -11.5 170t-38 133t-69 86t-102.5 31q-108 0 -165 -100 t-57 -320zM290 1216l59 275h148v-34l-124 -241h-83zM485 1216l126 275h160v-34l-196 -241h-90z" />
<glyph unicode="&#x152;" horiz-adv-x="1592" d="M92 746q0 376 124.5 573t364.5 197q77 0 129 -7t105 -18h663v-147h-502v-505h459v-146h-459v-546h513v-147h-674q-42 -10 -101.5 -18t-132.5 -8q-128 0 -220.5 54.5t-152 155.5t-88 243t-28.5 319zM260 746q0 -126 18 -239t58 -198t104 -136t156 -51q49 0 100.5 4 t118.5 30v1171q-46 24 -105.5 33.5t-123.5 9.5q-156 0 -241 -153.5t-85 -470.5z" />
<glyph unicode="&#x153;" horiz-adv-x="1473" d="M79 532q0 273 99 416t282 143q108 0 182 -48.5t116 -135.5q43 81 118.5 132.5t180.5 51.5q59 0 117.5 -16t105.5 -61t75.5 -126t28.5 -211q0 -36 -3 -76t-7 -85h-545q2 -185 65 -295.5t207 -110.5q58 0 117.5 24t88.5 53l56 -112q-51 -49 -133 -75t-171 -26 q-106 0 -183 51.5t-120 134.5q-91 -185 -298 -186q-194 0 -286.5 145t-92.5 413zM238 532q0 -83 12 -158.5t38.5 -133t69 -92.5t102.5 -35q219 0 219 419q0 84 -11.5 159t-37 134t-68 93t-102.5 34q-222 0 -222 -420zM833 641h405q4 160 -45 237t-136 77q-96 0 -155 -77 t-69 -237z" />
<glyph unicode="&#x154;" horiz-adv-x="1022" d="M136 0v1476q71 16 154.5 24t154.5 8q83 0 157.5 -20.5t130 -68t88.5 -125.5t33 -195q0 -177 -73.5 -283.5t-194.5 -142.5l81 -79l294 -594h-186l-319 650l-160 31v-681h-160zM136 0zM296 788h128q122 0 191.5 74.5t69.5 228.5q0 117 -58 193.5t-174 76.5q-42 0 -88 -3 t-69 -10v-560zM345 1602l198 251h211v-44l-279 -207h-130z" />
<glyph unicode="&#x155;" horiz-adv-x="583" d="M126 0v1065h108l28 -113h6q30 61 78 96.5t116 35.5q49 0 111 -19l-30 -156q-55 19 -98 20q-69 0 -111 -39.5t-55 -105.5v-784h-153zM126 0zM234 1216l100 318h166v-45l-175 -273h-91z" />
<glyph unicode="&#x156;" horiz-adv-x="1022" d="M136 0v1476q71 16 154.5 24t154.5 8q83 0 157.5 -20.5t130 -68t88.5 -125.5t33 -195q0 -177 -73.5 -283.5t-194.5 -142.5l81 -79l294 -594h-186l-319 650l-160 31v-681h-160zM136 0zM296 788h128q122 0 191.5 74.5t69.5 228.5q0 117 -58 193.5t-174 76.5q-42 0 -88 -3 t-69 -10v-560zM409 -217q0 44 27.5 71.5t66.5 27.5q46 0 80.5 -35.5t34.5 -123.5q0 -55 -16 -96.5t-38.5 -72.5t-47 -49.5t-44.5 -26.5l-57 58q37 28 61.5 67t21.5 90q-36 -4 -62.5 19.5t-26.5 70.5z" />
<glyph unicode="&#x157;" horiz-adv-x="583" d="M126 0v1065h108l28 -113h6q30 61 78 96.5t116 35.5q49 0 111 -19l-30 -156q-55 19 -98 20q-69 0 -111 -39.5t-55 -105.5v-784h-153zM126 0zM134 -217q0 44 27.5 71.5t66.5 27.5q46 0 80.5 -35.5t34.5 -123.5q0 -55 -16 -96.5t-38.5 -72.5t-47 -49.5t-44.5 -26.5l-57 58 q37 28 61.5 67t21.5 90q-36 -4 -62.5 19.5t-26.5 70.5z" />
<glyph unicode="&#x158;" horiz-adv-x="1022" d="M136 0v1476q71 16 154.5 24t154.5 8q83 0 157.5 -20.5t130 -68t88.5 -125.5t33 -195q0 -177 -73.5 -283.5t-194.5 -142.5l81 -79l294 -594h-186l-319 650l-160 31v-681h-160zM136 0zM156 1809v44h147l99 -107l31 -72l32 70l106 109h140v-47l-225 -217h-113zM296 788h128 q122 0 191.5 74.5t69.5 228.5q0 117 -58 193.5t-174 76.5q-42 0 -88 -3t-69 -10v-560z" />
<glyph unicode="&#x159;" horiz-adv-x="583" d="M83 0zM83 1559h144l67 -140l35 -124l37 124l77 140h130l-211 -388h-81zM126 0v1065h108l28 -113h6q30 61 78 96.5t116 35.5q49 0 111 -19l-30 -156q-55 19 -98 20q-69 0 -111 -39.5t-55 -105.5v-784h-153z" />
<glyph unicode="&#x15a;" horiz-adv-x="911" d="M71 0zM71 51l55 147q40 -28 113.5 -52t167.5 -24q119 0 193.5 58t74.5 184q0 83 -42.5 145t-106.5 114t-137.5 102t-137.5 110.5t-106.5 140t-42.5 189.5q0 179 107.5 265t280.5 86q106 0 189 -19t134 -48l-51 -142q-38 24 -109.5 43.5t-164.5 19.5q-116 0 -171 -57 t-55 -142q0 -75 42.5 -132t106.5 -108t137.5 -103.5t137.5 -116t106.5 -144.5t42.5 -193q0 -187 -110.5 -293.5t-313.5 -106.5q-128 0 -209.5 23.5t-130.5 53.5zM396 1602l198 251h211v-44l-279 -207h-130z" />
<glyph unicode="&#x15b;" horiz-adv-x="719" d="M61 0zM61 41l47 134q43 -26 101.5 -44t120.5 -18q70 0 119 35t49 114q0 66 -29.5 108.5t-75.5 77t-99.5 63t-99 69t-75.5 95.5t-30 140q0 137 73.5 206.5t207.5 69.5q88 0 152 -16t110 -44l-40 -128q-41 21 -94 35t-108 14q-77 0 -112.5 -32t-35.5 -100q0 -54 30.5 -90.5 t76 -68t98.5 -63t99 -75.5t76 -104.5t30 -152.5q0 -59 -19 -112.5t-58.5 -93t-98.5 -63t-137 -23.5q-94 0 -162.5 18t-115.5 49zM305 1216l100 318h166v-45l-175 -273h-91z" />
<glyph unicode="&#x15c;" horiz-adv-x="911" d="M71 0zM71 51l55 147q40 -28 113.5 -52t167.5 -24q119 0 193.5 58t74.5 184q0 83 -42.5 145t-106.5 114t-137.5 102t-137.5 110.5t-106.5 140t-42.5 189.5q0 179 107.5 265t280.5 86q106 0 189 -19t134 -48l-51 -142q-38 24 -109.5 43.5t-164.5 19.5q-116 0 -171 -57 t-55 -142q0 -75 42.5 -132t106.5 -108t137.5 -103.5t137.5 -116t106.5 -144.5t42.5 -193q0 -187 -110.5 -293.5t-313.5 -106.5q-128 0 -209.5 23.5t-130.5 53.5zM209 1591v47l228 215h106l217 -217v-45h-140l-100 104l-32 75l-33 -73l-110 -106h-136z" />
<glyph unicode="&#x15d;" horiz-adv-x="719" d="M61 0zM61 41l47 134q43 -26 101.5 -44t120.5 -18q70 0 119 35t49 114q0 66 -29.5 108.5t-75.5 77t-99.5 63t-99 69t-75.5 95.5t-30 140q0 137 73.5 206.5t207.5 69.5q88 0 152 -16t110 -44l-40 -128q-41 21 -94 35t-108 14q-77 0 -112.5 -32t-35.5 -100q0 -54 30.5 -90.5 t76 -68t98.5 -63t99 -75.5t76 -104.5t30 -152.5q0 -59 -19 -112.5t-58.5 -93t-98.5 -63t-137 -23.5q-94 0 -162.5 18t-115.5 49zM132 1171l211 388h74l190 -388h-134l-69 141l-34 123l-36 -123l-76 -141h-126z" />
<glyph unicode="&#x15e;" horiz-adv-x="911" d="M71 51l55 147q40 -28 113.5 -52t167.5 -24q119 0 193.5 58t74.5 184q0 83 -42.5 145t-106.5 114t-137.5 102t-137.5 110.5t-106.5 140t-42.5 189.5q0 179 107.5 265t280.5 86q106 0 189 -19t134 -48l-51 -142q-38 24 -109.5 43.5t-164.5 19.5q-116 0 -171 -57t-55 -142 q0 -75 42.5 -132t106.5 -108t137.5 -103.5t137.5 -116t106.5 -144.5t42.5 -193q0 -166 -88.5 -268t-248.5 -125l-31 -73q138 -32 138 -160q0 -83 -60.5 -137t-162.5 -54q-43 0 -79 8l14 83q49 -4 78 2.5t43.5 19.5t19 29t4.5 31q0 59 -147 79l73 165q-120 4 -196.5 25.5 t-120.5 51.5z" />
<glyph unicode="&#x15f;" horiz-adv-x="719" d="M61 41l47 134q43 -26 101.5 -43t120.5 -17q70 0 119 34t49 113q0 66 -29.5 108.5t-75.5 77t-99.5 63t-99 69t-75.5 95.5t-30 140q0 137 73.5 206.5t207.5 69.5q88 0 152 -16t110 -44l-40 -128q-41 21 -94 35t-108 14q-77 0 -112.5 -32t-35.5 -100q0 -54 30.5 -90.5 t76 -68t98.5 -63t99 -75.5t76 -104.5t30 -152.5q0 -106 -62 -187t-185 -98l-33 -73q139 -32 140 -160q0 -83 -61 -137t-164 -54q-43 0 -78 8l15 83q48 -4 77 2.5t44 19.5t19 29t4 31q0 59 -146 79l74 167q-77 4 -135.5 21.5t-99.5 43.5z" />
<glyph unicode="&#x160;" horiz-adv-x="911" d="M71 0zM71 51l55 147q40 -28 113.5 -52t167.5 -24q119 0 193.5 58t74.5 184q0 83 -42.5 145t-106.5 114t-137.5 102t-137.5 110.5t-106.5 140t-42.5 189.5q0 179 107.5 265t280.5 86q106 0 189 -19t134 -48l-51 -142q-38 24 -109.5 43.5t-164.5 19.5q-116 0 -171 -57 t-55 -142q0 -75 42.5 -132t106.5 -108t137.5 -103.5t137.5 -116t106.5 -144.5t42.5 -193q0 -187 -110.5 -293.5t-313.5 -106.5q-128 0 -209.5 23.5t-130.5 53.5zM222 1809v44h147l99 -107l31 -72l32 70l106 109h140v-47l-225 -217h-113z" />
<glyph unicode="&#x161;" horiz-adv-x="719" d="M61 0zM61 41l47 134q43 -26 101.5 -44t120.5 -18q70 0 119 35t49 114q0 66 -29.5 108.5t-75.5 77t-99.5 63t-99 69t-75.5 95.5t-30 140q0 137 73.5 206.5t207.5 69.5q88 0 152 -16t110 -44l-40 -128q-41 21 -94 35t-108 14q-77 0 -112.5 -32t-35.5 -100q0 -54 30.5 -90.5 t76 -68t98.5 -63t99 -75.5t76 -104.5t30 -152.5q0 -59 -19 -112.5t-58.5 -93t-98.5 -63t-137 -23.5q-94 0 -162.5 18t-115.5 49zM118 1559h144l67 -140l35 -124l37 124l77 140h130l-211 -388h-81z" />
<glyph unicode="&#x162;" horiz-adv-x="951" d="M30 0zM30 1344v147h892v-147h-366v-1344h-160v1344h-366zM372 -217q0 44 27.5 71.5t66.5 27.5q46 0 80.5 -35.5t34.5 -123.5q0 -55 -16 -96.5t-38.5 -72.5t-47 -49.5t-44.5 -26.5l-57 58q37 28 61.5 67t21.5 90q-36 -4 -62.5 19.5t-26.5 70.5z" />
<glyph unicode="&#x163;" horiz-adv-x="585" d="M19 0zM19 927v138h130v211l154 49v-260h229v-138h-229v-635q0 -93 22 -135t73 -42q43 0 73.5 9.5t67.5 24.5l30 -121q-47 -24 -103.5 -38t-118.5 -14q-106 0 -152 69.5t-46 224.5v657h-130zM222 -217q0 44 27.5 71.5t66.5 27.5q46 0 80.5 -35.5t34.5 -123.5 q0 -55 -16 -96.5t-38.5 -72.5t-47 -49.5t-44.5 -26.5l-57 58q37 28 61.5 67t21.5 90q-36 -4 -62.5 19.5t-26.5 70.5z" />
<glyph unicode="&#x164;" horiz-adv-x="951" d="M30 0zM30 1344v147h892v-147h-366v-1344h-160v1344h-366zM201 1809v44h147l99 -107l31 -72l32 70l106 109h140v-47l-225 -217h-113z" />
<glyph unicode="&#x165;" horiz-adv-x="587" d="M19 0zM19 927v138h130v211l154 49v-260h229v-138h-229v-635q0 -93 22 -135t73 -42q43 0 73.5 9.5t67.5 24.5l30 -121q-47 -24 -103.5 -38t-118.5 -14q-106 0 -152 69.5t-46 224.5v657h-130zM357 1150q31 77 45.5 175t14.5 196h154q-5 -61 -22 -125.5t-40.5 -119.5 t-48 -96.5t-39.5 -60.5z" />
<glyph unicode="&#x16a;" horiz-adv-x="1109" d="M136 0zM136 458v1033h160v-950q0 -116 15 -194.5t49 -127t85 -70t126 -21.5q140 0 194.5 97.5t54.5 315.5v950h153v-999q0 -270 -105.5 -390.5t-298.5 -120.5q-226 0 -329.5 117t-103.5 360zM284 1663v132h551v-132h-551z" />
<glyph unicode="&#x16b;" horiz-adv-x="923" d="M110 0zM110 374v691h154v-652q0 -162 33 -231t120 -69q45 0 80 18t63 48t49 68t34 79v739h154v-762q0 -77 5 -159.5t15 -143.5h-108l-38 149h-6q-37 -71 -105 -123t-170 -52q-69 0 -120 17t-87 62t-54.5 123t-18.5 198zM201 1242v128h518v-128h-518z" />
<glyph unicode="&#x16c;" horiz-adv-x="1109" d="M136 0zM136 458v1033h160v-950q0 -116 15 -194.5t49 -127t85 -70t126 -21.5q140 0 194.5 97.5t54.5 315.5v950h153v-999q0 -270 -105.5 -390.5t-298.5 -120.5q-226 0 -329.5 117t-103.5 360zM252 1813l81 42q30 -72 89.5 -117t140.5 -45q83 0 137 48t82 114l77 -34 q-32 -134 -116 -200t-182 -66q-92 0 -180.5 62t-128.5 196z" />
<glyph unicode="&#x16d;" horiz-adv-x="923" d="M110 0zM110 374v691h154v-652q0 -162 33 -231t120 -69q45 0 80 18t63 48t49 68t34 79v739h154v-762q0 -77 5 -159.5t15 -143.5h-108l-38 149h-6q-37 -71 -105 -123t-170 -52q-69 0 -120 17t-87 62t-54.5 123t-18.5 198zM185 1489l83 38q30 -77 81 -122.5t113 -45.5 q59 0 105 45t73 123l79 -31q-4 -56 -26 -106t-56.5 -87t-80.5 -59.5t-97 -22.5q-99 0 -175 70t-99 198z" />
<glyph unicode="&#x16e;" horiz-adv-x="1109" d="M136 0zM136 458v1033h160v-950q0 -116 15 -194.5t49 -127t85 -70t126 -21.5q140 0 194.5 97.5t54.5 315.5v950h153v-999q0 -270 -105.5 -390.5t-298.5 -120.5q-226 0 -329.5 117t-103.5 360zM370 1636q0 79 44.5 130t146.5 51q92 0 142.5 -46t50.5 -135q0 -77 -48.5 -127 t-144.5 -50q-95 0 -143 48t-48 129zM484 1636q0 -39 18.5 -63t58.5 -24q77 0 77 87q0 91 -77 91t-77 -91z" />
<glyph unicode="&#x16f;" horiz-adv-x="923" d="M110 0zM110 374v691h154v-652q0 -162 33 -231t120 -69q45 0 80 18t63 48t49 68t34 79v739h154v-762q0 -77 5 -159.5t15 -143.5h-108l-38 149h-6q-37 -71 -105 -123t-170 -52q-69 0 -120 17t-87 62t-54.5 123t-18.5 198zM279 1370q0 89 47 139t128 50q77 0 126.5 -44.5 t49.5 -144.5q0 -86 -47.5 -137t-128.5 -51t-128 48t-47 140zM381 1370q0 -49 21 -73.5t52 -24.5q34 0 53.5 23.5t19.5 74.5t-22 75.5t-51 24.5q-31 0 -52 -23.5t-21 -76.5z" />
<glyph unicode="&#x170;" horiz-adv-x="1109" d="M136 0zM136 458v1033h160v-950q0 -116 15 -194.5t49 -127t85 -70t126 -21.5q140 0 194.5 97.5t54.5 315.5v950h153v-999q0 -270 -105.5 -390.5t-298.5 -120.5q-226 0 -329.5 117t-103.5 360zM354 1579l108 232h173v-35l-171 -197h-110zM580 1579l172 232h183v-35 l-245 -197h-110z" />
<glyph unicode="&#x171;" horiz-adv-x="923" d="M110 0zM110 374v691h154v-652q0 -162 33 -231t120 -69q45 0 80 18t63 48t49 68t34 79v739h154v-762q0 -77 5 -159.5t15 -143.5h-108l-38 149h-6q-37 -71 -105 -123t-170 -52q-69 0 -120 17t-87 62t-54.5 123t-18.5 198zM288 1216l59 275h148v-34l-124 -241h-83zM483 1216 l126 275h160v-34l-196 -241h-90z" />
<glyph unicode="&#x172;" horiz-adv-x="1109" d="M136 458v1033h160v-950q0 -116 15 -194.5t49 -127t85 -70t126 -21.5q140 0 194.5 97.5t54.5 315.5v950h153v-999q0 -207 -62.5 -325t-177.5 -161q-49 -36 -76 -83t-27 -110q0 -30 11 -54.5t30.5 -39.5t48 -17.5t66.5 13.5l23 -85q-24 -21 -69 -34t-84 -13q-83 0 -132 52 t-51 135q2 64 30.5 118.5t82.5 92.5h-17q-226 0 -329.5 117t-103.5 360z" />
<glyph unicode="&#x173;" horiz-adv-x="923" d="M110 374v691h154v-652q0 -162 33 -231t120 -69q45 0 80 18t63 48t49 68t34 79v739h154v-762q0 -77 5 -159.5t15 -143.5h-27q-48 -34 -80.5 -79t-30.5 -108q0 -30 11 -54.5t32.5 -39.5t51 -15t65.5 21l23 -91q-26 -26 -71 -38.5t-86 -12.5q-81 0 -129 51t-48 138 q0 90 48 147t129 93l-34 137h-6q-37 -71 -105 -123t-170 -52q-69 0 -120 17t-87 62t-54.5 123t-18.5 198z" />
<glyph unicode="&#x178;" horiz-adv-x="968" d="M10 0zM10 1491h188l269 -650l27 -130h4l28 135l260 645h173l-392 -897v-594h-160v592zM224 1691q0 45 26.5 72.5t73.5 27.5q44 0 71 -27.5t27 -72.5t-27 -71.5t-71 -26.5q-47 0 -73.5 26.5t-26.5 71.5zM560 1691q0 45 27 72.5t72 27.5q46 0 72.5 -27.5t26.5 -72.5 t-26.5 -71.5t-72.5 -26.5q-45 0 -72 26.5t-27 71.5z" />
<glyph unicode="&#x179;" horiz-adv-x="934" d="M61 0v147l593 1111l70 86h-663v147h813v-147l-595 -1118l-68 -79h663v-147h-813zM61 0zM368 1602l198 251h211v-44l-279 -207h-130z" />
<glyph unicode="&#x17a;" horiz-adv-x="766" d="M69 0v138l395 697l75 92h-470v138h622v-138l-399 -703l-73 -86h472v-138h-622zM69 0zM311 1216l100 318h166v-45l-175 -273h-91z" />
<glyph unicode="&#x17b;" horiz-adv-x="934" d="M61 0v147l593 1111l70 86h-663v147h813v-147l-595 -1118l-68 -79h663v-147h-813zM61 0zM356 1697q0 45 29.5 78.5t84.5 33.5t86.5 -33.5t31.5 -78.5q0 -49 -31 -80.5t-87 -31.5q-55 0 -84.5 31.5t-29.5 80.5z" />
<glyph unicode="&#x17c;" horiz-adv-x="766" d="M69 0v138l395 697l75 92h-470v138h622v-138l-399 -703l-73 -86h472v-138h-622zM69 0zM286 1388q0 51 28.5 83.5t75.5 32.5t78 -31.5t31 -84.5q0 -51 -31 -79.5t-78 -28.5t-75.5 30t-28.5 78z" />
<glyph unicode="&#x17d;" horiz-adv-x="934" d="M61 0v147l593 1111l70 86h-663v147h813v-147l-595 -1118l-68 -79h663v-147h-813zM61 0zM175 1809v44h147l99 -107l31 -72l32 70l106 109h140v-47l-225 -217h-113z" />
<glyph unicode="&#x17e;" horiz-adv-x="766" d="M69 0v138l395 697l75 92h-470v138h622v-138l-399 -703l-73 -86h472v-138h-622zM69 0zM136 1559h144l67 -140l35 -124l37 124l77 140h130l-211 -388h-81z" />
<glyph unicode="&#x17f;" horiz-adv-x="437" d="M34 927v138h130v59q0 201 57.5 290.5t193.5 89.5q59 0 104.5 -7.5t92.5 -29.5l-39 -127q-41 16 -71.5 21t-60.5 5q-43 0 -67.5 -17.5t-37.5 -54t-16 -92.5t-3 -137v-1065h-153v927h-130z" />
<glyph unicode="&#x192;" d="M-66 -398l42 130q39 -17 74 -27t78 -10q63 0 97.5 77t55.5 245l113 910h-142v138h163l20 142q21 156 75.5 232.5t182.5 76.5q57 0 115.5 -11.5t103.5 -32.5l-43 -128q-77 34 -153 34q-64 0 -89.5 -54t-40.5 -172l-11 -87h207v-138h-229l-131 -1000q-10 -79 -30 -145.5 t-51.5 -117t-78.5 -79t-113 -28.5q-51 0 -112 12t-103 33z" />
<glyph unicode="&#x1f4;" horiz-adv-x="1047" d="M92 0zM92 746q0 209 44.5 354.5t120 238t172.5 135t199 42.5t171.5 -13.5t118.5 -37.5l-38 -144q-43 24 -101.5 36.5t-135.5 12.5q-75 0 -142.5 -32.5t-122.5 -105.5t-86.5 -192.5t-31.5 -293.5q0 -320 101 -472t278 -152q110 0 184 53v434l-276 41v94h412v-657 q-59 -55 -153.5 -84t-189.5 -29q-120 0 -216.5 44.5t-165 140t-105.5 240t-37 347.5zM528 1602l198 251h211v-44l-279 -207h-130z" />
<glyph unicode="&#x1f5;" horiz-adv-x="919" d="M79 0zM79 528q0 275 105.5 415.5t311.5 140.5q100 0 173 -19t128 -45v-1069q0 -207 -91.5 -304.5t-266.5 -97.5q-106 0 -174.5 18t-111.5 41l45 132q42 -19 93.5 -36t125.5 -17q130 0 178 72.5t48 242.5v79h-7q-34 -49 -87 -77t-136 -28q-173 0 -253.5 133t-80.5 419z M238 530q0 -89 11 -164.5t36.5 -132t65 -87.5t96.5 -31q81 0 128 43t68 127v627q-64 34 -164 33q-108 0 -174.5 -98.5t-66.5 -316.5zM424 1216l100 318h166v-45l-175 -273h-91z" />
<glyph unicode="&#x218;" horiz-adv-x="911" d="M71 0zM71 51l55 147q40 -28 113.5 -52t167.5 -24q119 0 193.5 58t74.5 184q0 83 -42.5 145t-106.5 114t-137.5 102t-137.5 110.5t-106.5 140t-42.5 189.5q0 179 107.5 265t280.5 86q106 0 189 -19t134 -48l-51 -142q-38 24 -109.5 43.5t-164.5 19.5q-116 0 -171 -57 t-55 -142q0 -75 42.5 -132t106.5 -108t137.5 -103.5t137.5 -116t106.5 -144.5t42.5 -193q0 -187 -110.5 -293.5t-313.5 -106.5q-128 0 -209.5 23.5t-130.5 53.5zM335 -217q0 44 27.5 71.5t66.5 27.5q46 0 80.5 -35.5t34.5 -123.5q0 -55 -16 -96.5t-38.5 -72.5t-47 -49.5 t-44.5 -26.5l-57 58q37 28 61.5 67t21.5 90q-36 -4 -62.5 19.5t-26.5 70.5z" />
<glyph unicode="&#x219;" horiz-adv-x="719" d="M61 0zM61 41l47 134q43 -26 101.5 -44t120.5 -18q70 0 119 35t49 114q0 66 -29.5 108.5t-75.5 77t-99.5 63t-99 69t-75.5 95.5t-30 140q0 137 73.5 206.5t207.5 69.5q88 0 152 -16t110 -44l-40 -128q-41 21 -94 35t-108 14q-77 0 -112.5 -32t-35.5 -100q0 -54 30.5 -90.5 t76 -68t98.5 -63t99 -75.5t76 -104.5t30 -152.5q0 -59 -19 -112.5t-58.5 -93t-98.5 -63t-137 -23.5q-94 0 -162.5 18t-115.5 49zM250 -217q0 44 27.5 71.5t66.5 27.5q46 0 80.5 -35.5t34.5 -123.5q0 -55 -16 -96.5t-38.5 -72.5t-47 -49.5t-44.5 -26.5l-57 58q37 28 61.5 67 t21.5 90q-36 -4 -62.5 19.5t-26.5 70.5z" />
<glyph unicode="&#x237;" horiz-adv-x="457" d="M8 -309q47 0 76 19.5t45 59t20 97.5t4 137v1061h154v-1122q0 -220 -70.5 -317t-228.5 -73v138z" />
<glyph unicode="&#x2bc;" horiz-adv-x="344" d="M66 1069zM66 1404q0 49 28 76.5t70 27.5q51 0 83 -35.5t32 -106.5q0 -69 -17 -120t-41.5 -86.5t-52.5 -57.5t-46 -33l-49 65q36 24 62.5 67t24.5 100q-38 -6 -66 22t-28 81z" />
<glyph unicode="&#x2c6;" horiz-adv-x="730" d="M128 1171l211 388h74l190 -388h-134l-69 141l-34 123l-36 -123l-76 -141h-126z" />
<glyph unicode="&#x2c7;" horiz-adv-x="744" d="M128 1559h144l67 -140l35 -124l37 124l77 140h130l-211 -388h-81z" />
<glyph unicode="&#x2d8;" horiz-adv-x="789" d="M128 1489l83 38q30 -77 81 -122.5t113 -45.5q59 0 105 45t73 123l79 -31q-4 -56 -26 -106t-56.5 -87t-80.5 -59.5t-97 -22.5q-99 0 -175 70t-99 198z" />
<glyph unicode="&#x2d9;" horiz-adv-x="468" d="M128 1388q0 51 28.5 83.5t75.5 32.5t78 -31.5t31 -84.5q0 -51 -31 -79.5t-78 -28.5t-75.5 30t-28.5 78z" />
<glyph unicode="&#x2da;" horiz-adv-x="606" d="M128 1370q0 89 47 139t128 50q77 0 126.5 -44.5t49.5 -144.5q0 -86 -47.5 -137t-128.5 -51t-128 48t-47 140zM230 1370q0 -49 21 -73.5t52 -24.5q34 0 53.5 23.5t19.5 74.5t-22 75.5t-51 24.5q-31 0 -52 -23.5t-21 -76.5z" />
<glyph unicode="&#x2db;" horiz-adv-x="591" d="M128 -232q0 92 52 154.5t133 98.5h102q-61 -35 -97.5 -87t-36.5 -119q2 -61 42.5 -94.5t119.5 -1.5l21 -85q-24 -24 -67 -36.5t-84 -12.5q-85 0 -135 51t-50 132z" />
<glyph unicode="&#x2dc;" horiz-adv-x="770" d="M128 1390q57 73 102 99.5t81 26.5q30 0 55.5 -12.5t50 -26.5t47 -27t48.5 -13q18 0 38.5 10t43.5 35l49 -80q-51 -61 -90 -85t-74 -24q-30 0 -55.5 12t-50 26.5t-47.5 26.5t-49 12q-24 0 -47 -12t-51 -41z" />
<glyph unicode="&#x2dd;" horiz-adv-x="736" d="M128 1216l59 275h148v-34l-124 -241h-83zM323 1216l126 275h160v-34l-196 -241h-90z" />
<glyph unicode="&#x301;" horiz-adv-x="4" d="M-718 1216l100 318h166v-45l-175 -273h-91zM-451 1216z" />
<glyph unicode="&#x394;" horiz-adv-x="977" d="M24 0v79l427 1435h75l435 -1435v-79h-937zM193 138h591l-258 856l-38 244h-6l-45 -248z" />
<glyph unicode="&#x3a9;" horiz-adv-x="1362" d="M124 0v138h193l160 -20v57l-91 21q-53 32 -101.5 89.5t-83.5 135t-56 174t-21 206.5q0 168 39.5 300t111.5 225t174 141.5t230 48.5q134 0 238.5 -53t176 -149t109 -229t37.5 -293q0 -115 -23.5 -209.5t-61 -170t-84.5 -129t-91 -85.5l-96 -23v-57l162 20h194v-138h-496 v248q48 12 105.5 48t107 103.5t82 167.5t32.5 236q0 102 -22.5 204.5t-70 182.5t-121 130t-178.5 50q-187 0 -287 -146.5t-100 -426.5q0 -135 31 -232.5t77.5 -165t104.5 -104.5t113 -47v-248h-494z" />
<glyph unicode="&#x3c0;" horiz-adv-x="1138" d="M51 912q34 77 87 115t145 38h756v-138h-143v-689q0 -59 16.5 -83.5t39.5 -24.5q16 0 38 5t36 10l35 -113q-30 -12 -73 -26t-98 -14q-87 0 -116.5 61.5t-29.5 172.5v701h-309v-927h-154v927h-27q-64 0 -112 -88z" />
<glyph unicode="&#x401;" horiz-adv-x="913" d="M136 0v1491h663v-147h-503v-505h462v-146h-462v-546h513v-147h-673zM136 0zM191 1691q0 45 26.5 72.5t73.5 27.5q44 0 71 -27.5t27 -72.5t-27 -71.5t-71 -26.5q-47 0 -73.5 26.5t-26.5 71.5zM527 1691q0 45 27 72.5t72 27.5q46 0 72.5 -27.5t26.5 -72.5t-26.5 -71.5 t-72.5 -26.5q-45 0 -72 26.5t-27 71.5z" />
<glyph unicode="&#x402;" horiz-adv-x="1252" d="M30 1344v147h897v-147h-369v-460q21 8 83 27.5t158 19.5q70 0 135 -20.5t116 -71.5t82 -137t31 -220q0 -256 -99 -377.5t-302 -121.5q-55 0 -81.5 1t-39.5 6v146q24 -4 49.5 -5t71.5 -1q232 0 232 337q0 91 -17.5 152.5t-52 98t-80 51.5t-98.5 15q-30 0 -60 -5.5 t-55.5 -14t-44.5 -15.5t-28 -12v-737h-160v1344h-368z" />
<glyph unicode="&#x403;" horiz-adv-x="760" d="M136 0v1491h652v-147h-492v-1344h-160zM136 0zM335 1602l198 251h211v-44l-279 -207h-130z" />
<glyph unicode="&#x404;" horiz-adv-x="998" d="M92 746q0 213 43.5 359.5t115.5 238t167.5 132t195.5 40.5q102 0 172 -14.5t119 -36.5l-41 -144q-40 24 -100.5 36.5t-135.5 12.5q-68 0 -130.5 -27.5t-111.5 -90.5t-82.5 -163.5t-41.5 -245.5h516v-146h-518q10 -287 117 -431t277 -144q75 0 132 20t96 47l38 -132 q-53 -45 -136 -64t-172 -19q-114 0 -209.5 42.5t-165 135.5t-107.5 240t-38 354z" />
<glyph unicode="&#x405;" horiz-adv-x="911" d="M71 0zM71 51l55 147q40 -28 113.5 -52t167.5 -24q119 0 193.5 58t74.5 184q0 83 -42.5 145t-106.5 114t-137.5 102t-137.5 110.5t-106.5 140t-42.5 189.5q0 179 107.5 265t280.5 86q106 0 189 -19t134 -48l-51 -142q-38 24 -109.5 43.5t-164.5 19.5q-116 0 -171 -57 t-55 -142q0 -75 42.5 -132t106.5 -108t137.5 -103.5t137.5 -116t106.5 -144.5t42.5 -193q0 -187 -110.5 -293.5t-313.5 -106.5q-128 0 -209.5 23.5t-130.5 53.5z" />
<glyph unicode="&#x406;" horiz-adv-x="496" d="M168 0v1491h160v-1491h-160zM168 0z" />
<glyph unicode="&#x407;" horiz-adv-x="502" d="M41 1689q0 47 25.5 74.5t67.5 27.5q43 0 67.5 -27.5t24.5 -74.5t-24.5 -73.5t-67.5 -26.5q-42 0 -67.5 26.5t-25.5 73.5zM171 0v1491h159v-1491h-159zM277 1689q0 47 24.5 74.5t66.5 27.5q43 0 68.5 -27.5t25.5 -74.5t-25.5 -73.5t-68.5 -26.5q-42 0 -66.5 26.5 t-24.5 73.5z" />
<glyph unicode="&#x408;" horiz-adv-x="512" d="M-55 12l34 139q21 -13 47.5 -19t54.5 -6q39 0 62 17t35.5 48t16 74.5t3.5 98.5v1127h160v-1156q0 -175 -56.5 -265.5t-197.5 -90.5q-34 0 -82 8.5t-77 24.5zM0 0z" />
<glyph unicode="&#x409;" horiz-adv-x="1590" d="M-8 10l23 146q42 -12 78.5 5.5t68.5 98.5q24 57 44 154.5t36 246t26.5 353t14.5 477.5h650v-579q28 6 80 12.5t93 6.5q85 0 162.5 -20.5t137 -71.5t95 -137t35.5 -218q0 -130 -33 -224t-95 -155.5t-149.5 -91.5t-195.5 -30q-24 0 -59 1t-74.5 4.5t-81 8.5t-75.5 15v1332 h-336q-17 -429 -45 -716t-85 -443q-37 -102 -90 -148.5t-121 -46.5q-62 0 -104 20zM933 140q26 -6 66 -8t81 -2q130 0 209 83t79 256q0 92 -22.5 152t-62 96.5t-92.5 51.5t-114 15q-14 0 -35.5 -2t-41.5 -4.5t-39.5 -7t-27.5 -6.5v-624z" />
<glyph unicode="&#x40a;" horiz-adv-x="1665" d="M136 0v1491h160v-624h550v624h160v-624q8 2 28.5 5.5t46 5.5t52 4t45.5 2q84 0 161 -17t137 -64t96 -130t36 -213q0 -128 -34 -218.5t-96 -148t-148 -84t-192 -26.5q-24 0 -60.5 1t-75.5 4.5t-80.5 9.5t-75.5 14v708h-550v-720h-160zM1006 142q24 -8 66 -10t84 -2 q128 0 205.5 75.5t77.5 241.5q0 90 -22 146.5t-61 88t-91.5 43.5t-110.5 12q-14 0 -36.5 -2t-45 -4.5t-40.5 -6.5t-26 -6v-576z" />
<glyph unicode="&#x40b;" horiz-adv-x="1290" d="M30 1344v147h897v-147h-369v-498q45 32 121.5 61.5t174.5 29.5q75 0 135.5 -20.5t103.5 -68t66 -127.5t23 -199v-522h-160v496q0 160 -48.5 227t-156.5 67q-77 0 -146.5 -26.5t-112.5 -68.5v-695h-160v1344h-368z" />
<glyph unicode="&#x40c;" horiz-adv-x="1049" d="M136 0v1491h160v-694l74 30l388 664h183l-390 -643l-74 -68l88 -85l431 -695h-201l-423 691h-76v-691h-160zM136 0zM390 1602l198 251h211v-44l-279 -207h-130z" />
<glyph unicode="&#x40e;" horiz-adv-x="953" d="M6 0zM6 1491h187l293 -765l40 -189h11l34 196l221 758h165l-305 -969q-47 -149 -82 -251.5t-70.5 -164t-77.5 -89t-105 -27.5q-55 0 -91.5 10t-67.5 34l47 137q34 -24 61.5 -29.5t50.5 -5.5q47 0 79 65t55 185zM209 1817l153 36q4 -79 43.5 -125.5t108.5 -46.5 q68 0 105 46.5t43 123.5l137 -32q-17 -122 -87 -188t-200 -66q-126 0 -208.5 60t-94.5 192z" />
<glyph unicode="&#x40f;" horiz-adv-x="1120" d="M136 0v1491h160v-1344h529v1344h159v-1491h-345l-27 -382h-100l-35 382h-341z" />
<glyph unicode="&#x410;" horiz-adv-x="1006" d="M10 0l450 1514h87l449 -1514h-165l-122 417h-422l-119 -417h-158zM10 0zM330 561h341l-130 459l-41 224h-4l-40 -228z" />
<glyph unicode="&#x411;" horiz-adv-x="947" d="M136 12v1479h667v-147h-507v-458q31 6 74 12.5t83 6.5q90 0 169 -20.5t137 -69.5t92.5 -133t34.5 -211q0 -128 -33 -220.5t-91.5 -151t-139.5 -87.5t-179 -29q-30 0 -69 1t-80.5 4.5t-83.5 9.5t-74 14zM296 142q24 -8 71.5 -10t90.5 -2q115 0 187.5 74.5t72.5 236.5 q0 102 -22.5 165t-61 97t-90.5 44.5t-111 10.5q-15 0 -34 -2t-39.5 -4t-37.5 -6t-26 -7v-597z" />
<glyph unicode="&#x412;" horiz-adv-x="1002" d="M136 0zM136 10v1468q64 12 150 21t187 9q73 0 145.5 -14t129.5 -52t92.5 -107t35.5 -183q0 -55 -13 -110.5t-40.5 -104.5t-69.5 -87.5t-101 -57.5v-8q51 -10 98 -35t83 -69t57.5 -106t21.5 -150q0 -115 -36.5 -199.5t-99.5 -137.5t-145 -78.5t-173 -25.5h-70t-83.5 3.5 t-88 8.5t-80.5 15zM296 145q13 -5 33 -7t44.5 -4t50.5 -3t47 -1q57 0 106 18t86.5 54t59 88.5t21.5 122.5q0 87 -26.5 141.5t-69.5 84.5t-97.5 41t-111.5 11h-143v-546zM296 829h88q30 0 68 2t64 6q79 32 135 103.5t56 175.5q0 71 -19 118.5t-52 75t-77.5 39.5t-94.5 12 q-55 0 -100 -3t-68 -8v-521z" />
<glyph unicode="&#x413;" horiz-adv-x="760" d="M136 0v1491h652v-147h-492v-1344h-160z" />
<glyph unicode="&#x414;" horiz-adv-x="1154" d="M6 147h124q12 24 41.5 111t58 250t50 407t18.5 576h657v-1344h155v-422h-114l-25 275h-826l-25 -275h-114v422zM298 147h497v1197h-344q-10 -471 -54.5 -762.5t-98.5 -434.5z" />
<glyph unicode="&#x415;" horiz-adv-x="913" d="M136 0v1491h663v-147h-503v-505h462v-146h-462v-546h513v-147h-673zM136 0z" />
<glyph unicode="&#x416;" horiz-adv-x="1392" d="M-4 0l366 669l83 79l-79 75l-345 668h188l328 -668h75v668h152v-694l73 30l328 664h179l-334 -648l-71 -68l87 -84l371 -691h-198l-358 693h-77v-693h-152v718l-71 -30l-358 -688h-187z" />
<glyph unicode="&#x417;" horiz-adv-x="923" d="M66 30l42 145q43 -24 111 -38.5t167 -14.5q57 0 108 20t89.5 58t61 97t22.5 136q0 138 -73.5 201t-197.5 73q-21 2 -37 2h-40h-87v139h38q33 0 79.5 2t74.5 8q86 21 146 88.5t60 169.5q0 140 -68 197t-172 57q-83 0 -147 -15t-105 -38l-42 130q38 24 126.5 46.5 t199.5 22.5q73 0 140.5 -17t120 -58t84.5 -113t32 -178q0 -108 -54 -203t-168 -142v-8q120 -24 189 -114.5t69 -243.5q0 -124 -37.5 -211.5t-100.5 -143.5t-145.5 -83t-171.5 -27q-114 0 -189.5 15t-124.5 41z" />
<glyph unicode="&#x418;" horiz-adv-x="1158" d="M136 0v1491h160v-991l-15 -191h9l74 200l554 982h104v-1491h-160v976l14 195h-7l-74 -200l-553 -971h-106z" />
<glyph unicode="&#x419;" horiz-adv-x="1158" d="M136 0v1491h160v-991l-15 -191h9l74 200l554 982h104v-1491h-160v976l14 195h-7l-74 -200l-553 -971h-106zM136 0zM292 1817l153 36q4 -79 43.5 -125.5t108.5 -46.5q68 0 105 46.5t43 123.5l137 -32q-17 -122 -87 -188t-200 -66q-126 0 -208.5 60t-94.5 192z" />
<glyph unicode="&#x41a;" horiz-adv-x="1049" d="M136 0v1491h160v-694l74 30l388 664h183l-390 -643l-74 -68l88 -85l431 -695h-201l-423 691h-76v-691h-160zM136 0z" />
<glyph unicode="&#x41b;" horiz-adv-x="1069" d="M-8 10l23 148q42 -12 78.5 4.5t68.5 97.5q24 57 44 154.5t36 246t26.5 353t14.5 477.5h650v-1491h-160v1344h-336q-17 -429 -45 -716t-85 -443q-37 -102 -90 -148.5t-121 -46.5q-62 0 -104 20z" />
<glyph unicode="&#x41c;" horiz-adv-x="1356" d="M136 0v1491h134l360 -733l53 -175h5l51 177l341 731h141v-1491h-160v980l19 225h-9l-67 -211l-301 -647h-53l-315 647l-67 211h-8l30 -225v-980h-154zM136 0z" />
<glyph unicode="&#x41d;" horiz-adv-x="1140" d="M136 0v1491h160v-656h550v656h160v-1491h-160v688h-550v-688h-160zM136 0z" />
<glyph unicode="&#x41e;" horiz-adv-x="1168" d="M92 0zM92 746q0 379 121.5 574.5t369.5 195.5q135 0 228.5 -54t152 -154.5t86 -243t27.5 -318.5q0 -380 -122 -576t-372 -196q-132 0 -225.5 54.5t-153 154.5t-86 243t-26.5 320zM260 746q0 -126 18 -239t56 -198t100 -136t149 -51q161 0 243.5 153t82.5 471 q0 123 -17.5 236t-56 199.5t-100.5 137.5t-152 51q-158 0 -240.5 -153.5t-82.5 -470.5z" />
<glyph unicode="&#x41f;" horiz-adv-x="1120" d="M136 0v1491h848v-1491h-159v1344h-529v-1344h-160z" />
<glyph unicode="&#x420;" horiz-adv-x="959" d="M136 0v1476q69 18 145.5 25t151.5 7q85 0 167.5 -19t149.5 -70t109 -140.5t42 -228.5q0 -134 -39 -228t-104 -152t-149.5 -85t-173.5 -27h-28t-40.5 1.5t-41.5 3.5t-29 4v-567h-160zM136 0zM296 713q9 -4 27 -5t37.5 -2t37 -1h26.5q60 0 115 15t97.5 54t69.5 106t27 170 q0 90 -25 149t-64 95.5t-92.5 51.5t-110.5 15q-43 0 -82.5 -3t-62.5 -10v-635z" />
<glyph unicode="&#x421;" horiz-adv-x="974" d="M92 0zM92 746q0 213 43.5 359.5t115.5 238t167.5 132t195.5 40.5q102 0 169 -14.5t116 -36.5l-39 -144q-43 24 -100 36.5t-132 12.5t-140.5 -33.5t-117 -107t-81 -192.5t-29.5 -291q0 -311 106.5 -467.5t283.5 -156.5q73 0 130 20t98 47l38 -132q-53 -45 -134 -64 t-170 -19q-114 0 -209.5 42.5t-165 135.5t-107.5 240t-38 354z" />
<glyph unicode="&#x422;" horiz-adv-x="951" d="M30 0zM30 1344v147h892v-147h-366v-1344h-160v1344h-366z" />
<glyph unicode="&#x423;" horiz-adv-x="953" d="M6 1491h187l293 -765l40 -189h11l34 196l221 758h165l-305 -969q-47 -149 -82 -251.5t-70.5 -164t-77.5 -89t-105 -27.5q-55 0 -91.5 10t-67.5 34l47 137q34 -24 61.5 -29.5t50.5 -5.5q47 0 79 65t55 185z" />
<glyph unicode="&#x424;" horiz-adv-x="1347" d="M66 746q0 300 112 456.5t304 156.5q23 0 58 -2t54 -7v184h160v-190q30 10 75 12.5t72 2.5q83 0 153 -35t121.5 -107.5t79 -184.5t27.5 -266q0 -158 -32 -272t-87 -189t-130.5 -112t-160.5 -37q-19 0 -58 3t-60 12v-214h-160v209q-30 -6 -70 -8t-77 -2q-83 0 -152 31.5 t-120 103t-80 183.5t-29 272zM230 746q0 -211 65 -331.5t187 -120.5q18 0 55.5 1t60.5 12v905q-21 4 -50.5 6.5t-53.5 2.5q-118 0 -191 -117.5t-73 -357.5zM750 301q16 -5 46.5 -6t53.5 -1q119 0 193.5 116t74.5 356q0 102 -16 185.5t-47 143t-76.5 93t-104.5 33.5 q-24 0 -62.5 -2.5t-61.5 -13.5v-904z" />
<glyph unicode="&#x425;" horiz-adv-x="1064" d="M41 0l392 758l-358 733h191l232 -505l43 -126l42 126l246 505h177l-372 -718l388 -773h-187l-258 535l-49 132l-44 -132l-265 -535h-178zM41 0z" />
<glyph unicode="&#x426;" horiz-adv-x="1173" d="M136 0v1491h160v-1344h515v1344h160v-1344h157v-422h-110l-28 275h-854z" />
<glyph unicode="&#x427;" horiz-adv-x="1036" d="M118 935v556h159v-520q0 -156 53.5 -216t155.5 -60q75 0 144 27.5t112 72.5v696h159v-1491h-159v639q-43 -33 -120 -62.5t-171 -29.5q-68 0 -128.5 17t-106 61t-72 118t-26.5 192z" />
<glyph unicode="&#x428;" horiz-adv-x="1488" d="M136 0v1491h160v-1344h369v1344h160v-1344h368v1344h159v-1491h-1216z" />
<glyph unicode="&#x429;" horiz-adv-x="1556" d="M136 0v1491h160v-1344h369v1344h160v-1344h368v1344h159v-1344h160v-422h-112l-26 275h-1238z" />
<glyph unicode="&#x42a;" horiz-adv-x="1092" d="M-2 1344v147h435v-579q12 2 33.5 6t46 6.5t50 4.5t44.5 2q84 0 161.5 -20.5t137 -71.5t95.5 -137t36 -220q0 -133 -34 -226.5t-95.5 -154t-149 -89.5t-193.5 -29q-24 0 -60 1t-75.5 4.5t-81 8.5t-76.5 15v1332h-274zM433 142q24 -6 66 -9t82 -3q128 0 208 81t80 258 q0 94 -23 155t-62.5 96.5t-93.5 49.5t-111 14q-14 0 -36.5 -2t-44 -4.5t-39.5 -7l-26 -6.5v-622z" />
<glyph unicode="&#x42b;" horiz-adv-x="1323" d="M136 12v1479h160v-579q19 4 64 11.5t87 7.5q83 0 158.5 -19.5t133.5 -69.5t91.5 -137t33.5 -221q0 -260 -120 -380.5t-335 -120.5q-49 0 -126.5 5.5t-146.5 23.5zM296 145q43 -15 128 -15q128 0 200.5 83t72.5 256q0 94 -21.5 154t-59 96.5t-88.5 50.5t-111 14 q-30 0 -67 -6.5t-54 -13.5v-619zM1029 0v1491h160v-1491h-160z" />
<glyph unicode="&#x42c;" horiz-adv-x="955" d="M136 12v1479h160v-579q26 6 80.5 12.5t94.5 6.5q85 0 162.5 -20.5t137.5 -71.5t95 -137t35 -218q0 -130 -33 -224t-95 -155.5t-149 -91.5t-196 -30q-23 0 -59.5 1t-75.5 4.5t-80.5 8.5t-76.5 15zM296 142q26 -6 67.5 -9t81.5 -3q130 0 209 83t79 256q0 92 -22.5 152 t-62 96.5t-93 51.5t-112.5 15q-15 0 -36 -2t-43.5 -4.5t-40.5 -7t-27 -6.5v-622z" />
<glyph unicode="&#x42d;" horiz-adv-x="990" d="M63 1435q60 39 142 60t171 21q118 0 213.5 -41.5t164.5 -133t107 -238t38 -355.5q0 -211 -43 -359.5t-117 -240t-174.5 -133t-217.5 -41.5q-87 0 -158 15t-120 39l44 145q41 -21 106.5 -36t136.5 -15q72 0 139.5 30.5t120.5 97.5t86 174.5t37 263.5h-487v143h487 q-10 270 -113.5 404.5t-265.5 134.5q-81 0 -142.5 -19.5t-107.5 -47.5z" />
<glyph unicode="&#x42e;" horiz-adv-x="1530" d="M136 0v1491h160v-656h202q11 330 126 505.5t347 175.5q130 0 220.5 -54t144.5 -154.5t78.5 -243t24.5 -318.5q0 -377 -111.5 -574.5t-358.5 -197.5q-126 0 -213 50.5t-145 144t-85.5 224.5t-29.5 295h-200v-688h-160zM660 746q0 -126 16.5 -239t52 -199t95.5 -136 t147 -50q161 0 231 152t70 472q0 123 -14 237t-48.5 199.5t-91.5 136.5t-147 51q-160 0 -235.5 -153.5t-75.5 -470.5z" />
<glyph unicode="&#x42f;" horiz-adv-x="981" d="M41 0l262 539l102 89q-124 32 -201.5 138t-77.5 291q0 132 36 219t97.5 139t145 72.5t176.5 20.5q58 0 129.5 -6t135.5 -26v-1476h-161v654l-169 -45l-290 -609h-185zM294 1057q0 -165 78.5 -237t198.5 -72h114v600q-24 8 -51 10.5t-65 2.5q-55 0 -104.5 -14t-87.5 -49 t-60.5 -93.5t-22.5 -147.5z" />
<glyph unicode="&#x430;" horiz-adv-x="851" d="M61 0zM61 285q0 91 31.5 153t87.5 100.5t134 54.5t174 16h42t45 -2q6 66 6 117q0 122 -36 170.5t-132 48.5q-59 0 -129.5 -18t-117.5 -45l-51 122q62 38 150.5 59t185.5 21q90 0 144.5 -26.5t85 -72.5t40 -104.5t9.5 -122.5q0 -128 -5 -249t-5 -230q0 -81 5 -150.5 t21 -130.5h-118l-36 126h-9q-32 -55 -93.5 -96t-166.5 -41q-115 0 -188.5 80t-73.5 220zM222 303q0 -86 41.5 -132.5t106.5 -46.5q90 0 139 42.5t68 93.5v226q-21 2 -42 3t-43 1q-51 0 -100 -8.5t-87.5 -29.5t-60.5 -57.5t-22 -91.5z" />
<glyph unicode="&#x431;" horiz-adv-x="919" d="M79 646q0 183 15.5 313t44.5 219.5t70 142.5t92 83.5t111.5 43.5t128.5 22q89 10 142.5 25t85.5 51l11 -151q-17 -17 -38.5 -28.5t-51.5 -20.5t-69.5 -14t-92.5 -9q-72 -6 -126.5 -27.5t-94 -69.5t-62.5 -131t-32 -211h4q55 100 123.5 138.5t171.5 38.5q158 0 243.5 -124 t85.5 -381q0 -296 -100 -439t-279 -143q-96 0 -167 37.5t-119 117.5t-72.5 207.5t-24.5 309.5zM238 530q0 -87 13 -162.5t40.5 -132t69 -89.5t99.5 -33q110 0 165.5 104t55.5 324q0 175 -46.5 278t-152.5 103q-126 0 -185 -102t-59 -290z" />
<glyph unicode="&#x432;" horiz-adv-x="858" d="M126 2v1061q59 4 129.5 10.5t168.5 6.5q173 0 247.5 -65t74.5 -198q0 -74 -35.5 -144t-118.5 -106v-9q102 -23 145 -86t43 -171q0 -167 -98.5 -241.5t-291.5 -74.5q-73 0 -139 5.5t-125 11.5zM279 132q32 -4 60.5 -6t71.5 -2q108 0 158.5 44.5t50.5 144.5q0 77 -42.5 127 t-155.5 50h-143v-358zM279 612h158q30 0 57.5 13.5t50 36.5t35 54.5t12.5 65.5q0 83 -39 121t-136 38q-51 0 -80.5 -2t-57.5 -4v-323z" />
<glyph unicode="&#x433;" horiz-adv-x="630" d="M126 0v1065h506v-138h-353v-927h-153z" />
<glyph unicode="&#x434;" horiz-adv-x="934" d="M6 138h100q13 24 35.5 86.5t44 175t37 276t17.5 389.5h535v-927h126v-408h-106l-26 270h-631l-28 -270h-104v408zM262 138h360v789h-240q-4 -92 -12 -200.5t-23 -216.5t-36 -205.5t-49 -166.5z" />
<glyph unicode="&#x435;" horiz-adv-x="878" d="M79 0zM79 532q0 273 100 416t283 143q59 0 118 -15t106 -60t75.5 -126t28.5 -211q0 -36 -3 -77t-7 -86h-542q0 -92 15 -166.5t47 -126.5t82.5 -81t123.5 -29q58 0 114.5 21.5t86.5 50.5l55 -112q-51 -47 -130 -73t-165 -26q-100 0 -174 39.5t-121.5 113.5t-70 176 t-22.5 229zM240 643h403q4 160 -45 234.5t-134 74.5q-98 0 -155 -74.5t-69 -234.5z" />
<glyph unicode="&#x436;" horiz-adv-x="1142" d="M0 0l262 488l57 63l-87 81l-213 433h162l221 -460h88v460h153v-482l79 31l221 451h160l-223 -433l-69 -67l88 -86l245 -479h-177l-239 479h-85v-479h-153v500l-79 -29l-238 -471h-173z" />
<glyph unicode="&#x437;" horiz-adv-x="746" d="M55 41l41 132q40 -26 96 -38.5t115 -12.5q104 0 156.5 48.5t52.5 140.5q0 77 -49.5 121.5t-163.5 44.5h-96v132h116q31 0 59.5 13.5t51 37t36.5 55t14 65.5q0 83 -44 121t-133 38q-66 0 -120.5 -19t-84.5 -40l-45 122q53 34 125 54.5t163 20.5q141 0 216 -65t75 -195 q0 -81 -40 -148.5t-110 -97.5v-8q97 -24 140 -90t43 -175q0 -134 -89.5 -224.5t-274.5 -90.5q-86 0 -144.5 16t-105.5 42z" />
<glyph unicode="&#x438;" horiz-adv-x="934" d="M126 0v1065h153v-632l-13 -156h9l70 174l364 614h100v-1065h-153v614l13 161h-9l-74 -179l-360 -596h-100z" />
<glyph unicode="&#x439;" horiz-adv-x="934" d="M126 0v1065h153v-632l-13 -156h9l70 174l364 614h100v-1065h-153v614l13 161h-9l-74 -179l-360 -596h-100zM126 0zM205 1455l130 41q10 -98 52 -139.5t97 -41.5t96.5 44.5t52.5 133.5l117 -34q-17 -128 -93 -195t-178 -67q-48 0 -94 14t-83.5 44.5t-63 79.5t-33.5 120z " />
<glyph unicode="&#x43a;" horiz-adv-x="823" d="M126 0v1065h153v-482l73 31l260 451h163l-253 -429l-75 -69l92 -85l272 -482h-183l-270 479h-79v-479h-153z" />
<glyph unicode="&#x43b;" horiz-adv-x="866" d="M-12 10l22 135q45 -13 80.5 5t61 111t41.5 283.5t22 520.5h527v-1065h-154v927h-232q-7 -181 -17.5 -350.5t-37 -299.5t-75.5 -207.5t-130 -77.5q-37 0 -62.5 4t-45.5 14z" />
<glyph unicode="&#x43c;" horiz-adv-x="1111" d="M126 0v1065h153l233 -462l46 -139h5l51 143l215 458h157v-1065h-153v632l15 203h-9l-64 -181l-198 -409h-55l-207 409l-57 181h-10l16 -201v-634h-138z" />
<glyph unicode="&#x43d;" horiz-adv-x="923" d="M126 0v1065h153v-451h369v451h153v-1065h-153v475h-369v-475h-153z" />
<glyph unicode="&#x43e;" horiz-adv-x="919" d="M79 0zM79 532q0 288 99 423.5t282 135.5q195 0 288 -139t93 -420q0 -290 -100 -424t-281 -134q-196 0 -288.5 139t-92.5 419zM238 532q0 -93 12 -170t38.5 -132t69 -86t102.5 -31q110 0 165.5 99t55.5 320q0 92 -11.5 170t-38 133t-69 86t-102.5 31q-108 0 -165 -100 t-57 -320z" />
<glyph unicode="&#x43f;" horiz-adv-x="915" d="M126 0v1065h664v-1065h-154v927h-357v-927h-153z" />
<glyph unicode="&#x440;" horiz-adv-x="925" d="M126 0zM126 -426v1491h108l24 -115h8q79 140 248 141q168 0 252 -126t84 -412q0 -134 -27.5 -241t-78.5 -183t-125 -115.5t-163 -39.5q-62 0 -98.5 8t-78.5 30v-438h-153zM279 168q30 -26 67.5 -40.5t98.5 -14.5q113 0 179.5 115t66.5 328q0 90 -12 162t-37.5 124t-65 81 t-97.5 29q-156 0 -200 -190v-594z" />
<glyph unicode="&#x441;" horiz-adv-x="758" d="M79 0zM79 532q0 273 96.5 416t277.5 143q84 0 143.5 -15t102.5 -39l-43 -134q-85 49 -185 49q-115 0 -174 -101t-59 -319q0 -87 13 -163.5t42.5 -133t76.5 -89.5t118 -33q55 0 103 19t78 45l44 -124q-53 -41 -121 -60t-143 -19q-102 0 -172 39.5t-113.5 113.5t-64 177 t-20.5 228z" />
<glyph unicode="&#x442;" horiz-adv-x="681" d="M2 927v138h677v-138h-262v-927h-153v927h-262z" />
<glyph unicode="&#x443;" horiz-adv-x="800" d="M15 0zM15 1065h174l201 -689l45 -205h10l32 205l162 689h156l-254 -957q-30 -115 -60 -215t-64.5 -173.5t-78.5 -115t-104 -41.5q-59 0 -104 20l26 145q30 -11 59.5 -4.5t56 36t49 88t39.5 152.5z" />
<glyph unicode="&#x444;" horiz-adv-x="1171" d="M71 532q0 283 92.5 416.5t264.5 133.5q49 0 84 -9v418h148v-420q31 6 55 8.5t45 2.5q86 0 149.5 -28t106.5 -89.5t64 -162.5t21 -249q0 -287 -90.5 -433t-256.5 -146q-17 0 -47 3.5t-47 12.5v-416h-148v418q-30 -13 -61.5 -15.5t-56.5 -2.5q-158 0 -240.5 133t-82.5 425z M224 532q0 -195 50 -310.5t159 -115.5q20 0 39.5 2t43.5 10v823q-37 9 -79 9q-100 0 -156.5 -97t-56.5 -321zM656 113q17 -4 37 -5.5t46 -1.5q209 0 208 447q0 196 -47.5 296.5t-169.5 100.5q-21 0 -36 -1.5t-38 -9.5v-826z" />
<glyph unicode="&#x445;" horiz-adv-x="876" d="M41 0l302 545l-282 520h184l157 -305l43 -119l45 119l162 305h168l-283 -512l300 -553h-175l-178 335l-47 127l-49 -127l-179 -335h-168zM41 0z" />
<glyph unicode="&#x446;" horiz-adv-x="941" d="M126 0v1065h153v-927h351v927h154v-927h123v-408h-106l-26 270h-649z" />
<glyph unicode="&#x447;" horiz-adv-x="843" d="M77 705v360h153v-311q0 -53 5 -95.5t20 -74t43 -47t72 -15.5q75 0 122 19.5t73 41.5v482h153v-1065h-153v447q-26 -19 -80 -41t-146 -22q-61 0 -110.5 15.5t-82.5 52t-51 98.5t-18 155z" />
<glyph unicode="&#x448;" horiz-adv-x="1264" d="M126 0v1065h153v-927h277v927h153v-927h277v927h154v-1065h-1014z" />
<glyph unicode="&#x449;" horiz-adv-x="1296" d="M126 0v1065h153v-927h277v927h153v-927h277v927h154v-927h123v-415h-107l-26 277h-1004z" />
<glyph unicode="&#x44a;" horiz-adv-x="866" d="M0 927v138h341v-407q41 9 80 12t73 3q89 0 151 -24.5t100.5 -67t55 -101t16.5 -124.5q0 -194 -92.5 -281t-298.5 -87q-121 0 -239 12v927h-187zM341 138q30 -6 61 -9t56 -3q104 0 152 52t48 159q0 96 -46.5 150t-149.5 54q-28 0 -60 -3t-61 -12v-388z" />
<glyph unicode="&#x44b;" horiz-adv-x="1145" d="M126 0v1065h153v-407q42 9 80.5 12t73.5 3q87 0 146.5 -24.5t94.5 -67t50 -101t15 -124.5q0 -194 -86 -281t-287 -87q-124 0 -240 12zM279 138q63 -12 117 -12q102 0 142.5 54t40.5 157q0 96 -39.5 150t-139.5 54q-28 0 -59.5 -3t-61.5 -12v-388zM867 0v1065h153v-1065 h-153z" />
<glyph unicode="&#x44c;" horiz-adv-x="802" d="M126 0v1065h153v-407q42 9 80.5 12t73.5 3q89 0 151 -24.5t100 -67t55 -101t17 -124.5q0 -194 -93.5 -281t-294.5 -87q-126 0 -242 12zM279 138q63 -12 117 -12q201 0 200 211q0 96 -47 150t-149 54q-28 0 -59.5 -3t-61.5 -12v-388z" />
<glyph unicode="&#x44d;" horiz-adv-x="791" d="M59 26l43 136q40 -24 96 -36.5t107 -12.5q236 0 248 358h-352v132h352q-6 167 -66.5 258t-171.5 91q-69 0 -119.5 -19t-82.5 -43l-54 122q49 36 120 57.5t162 21.5q191 0 281.5 -139t90.5 -420q0 -278 -103.5 -418t-290.5 -140q-164 0 -260 52z" />
<glyph unicode="&#x44e;" horiz-adv-x="1236" d="M126 0v1065h153v-447h166q15 236 101 353.5t259 117.5q189 0 271.5 -146t82.5 -411q0 -282 -87.5 -419t-268.5 -137q-187 0 -268.5 130t-91.5 373h-164v-479h-153zM594 532q0 -85 10 -160.5t34 -133t65 -90.5t102 -33q104 0 149 97t45 320q0 92 -9.5 169t-32 132t-60 86 t-94.5 31q-110 0 -159.5 -103t-49.5 -315z" />
<glyph unicode="&#x44f;" horiz-adv-x="823" d="M32 0l198 366l68 77q-87 17 -148 89.5t-61 195.5q0 191 103.5 277t282.5 86q66 0 124.5 -10t111.5 -22v-1059h-153v441l-130 -26l-215 -415h-181zM250 737q0 -97 61 -152t164 -50l83 4v394q-20 10 -48 14.5t-50 4.5q-102 0 -156 -53t-54 -162z" />
<glyph unicode="&#x451;" horiz-adv-x="878" d="M79 0zM79 532q0 273 100 416t283 143q59 0 118 -15t106 -60t75.5 -126t28.5 -211q0 -36 -3 -77t-7 -86h-542q0 -92 15 -166.5t47 -126.5t82.5 -81t123.5 -29q58 0 114.5 21.5t86.5 50.5l55 -112q-51 -47 -130 -73t-165 -26q-100 0 -174 39.5t-121.5 113.5t-70 176 t-22.5 229zM201 1349q0 49 24.5 77.5t66.5 28.5q43 0 67.5 -28.5t24.5 -77.5q0 -44 -24.5 -71.5t-67.5 -27.5q-42 0 -66.5 27.5t-24.5 71.5zM240 643h403q4 160 -45 234.5t-134 74.5q-98 0 -155 -74.5t-69 -234.5zM540 1349q0 49 24.5 77.5t66.5 28.5q43 0 67.5 -28.5 t24.5 -77.5q0 -44 -24.5 -71.5t-67.5 -27.5q-42 0 -66.5 27.5t-24.5 71.5z" />
<glyph unicode="&#x452;" horiz-adv-x="943" d="M-4 941v124h138v426h153v-426h274v-124h-274v-300h7q43 57 105.5 91t156.5 34q71 0 122.5 -19t86 -63.5t51.5 -119t17 -184.5v-441q0 -216 -70 -308.5t-228 -69.5v138q46 0 75 17.5t45 55t20 94.5t4 134v319q0 167 -35 238t-142 71q-75 0 -133 -49t-82 -128v-451h-153 v941h-138z" />
<glyph unicode="&#x453;" horiz-adv-x="630" d="M126 0v1065h506v-138h-353v-927h-153zM126 0zM301 1216l100 318h166v-45l-175 -273h-91z" />
<glyph unicode="&#x454;" horiz-adv-x="800" d="M79 532q0 271 112 414t299 143q81 0 139.5 -13t103.5 -39l-40 -134q-43 24 -92.5 35.5t-100.5 11.5q-115 0 -181.5 -85t-80.5 -258h388v-132h-388q4 -73 22.5 -138t51.5 -114.5t82 -78.5t120 -29q57 0 108 18t81 42l45 -124q-49 -36 -123 -55.5t-146 -19.5 q-101 0 -177 39.5t-126 112.5t-73.5 176t-23.5 228z" />
<glyph unicode="&#x455;" horiz-adv-x="719" d="M61 0zM61 41l47 134q43 -26 101.5 -44t120.5 -18q70 0 119 35t49 114q0 66 -29.5 108.5t-75.5 77t-99.5 63t-99 69t-75.5 95.5t-30 140q0 137 73.5 206.5t207.5 69.5q88 0 152 -16t110 -44l-40 -128q-41 21 -94 35t-108 14q-77 0 -112.5 -32t-35.5 -100q0 -54 30.5 -90.5 t76 -68t98.5 -63t99 -75.5t76 -104.5t30 -152.5q0 -59 -19 -112.5t-58.5 -93t-98.5 -63t-137 -23.5q-94 0 -162.5 18t-115.5 49z" />
<glyph unicode="&#x456;" horiz-adv-x="461" d="M124 0zM124 1388q0 51 28.5 83.5t75.5 32.5t78 -31.5t31 -84.5q0 -51 -31 -79.5t-78 -28.5t-75.5 30t-28.5 78zM151 0v1065h154v-1065h-154z" />
<glyph unicode="&#x457;" horiz-adv-x="491" d="M47 1350q0 49 22.5 76t64.5 27q43 0 65.5 -26.5t22.5 -76.5q0 -45 -22.5 -72.5t-65.5 -27.5q-42 0 -64.5 27.5t-22.5 72.5zM162 0v1065h153v-1065h-153zM270 1350q0 49 22.5 76t65.5 27q42 0 64.5 -26.5t22.5 -76.5q0 -45 -22.5 -72.5t-64.5 -27.5q-43 0 -65.5 27.5 t-22.5 72.5z" />
<glyph unicode="&#x458;" horiz-adv-x="457" d="M8 0zM8 -309q47 0 76 19.5t45 59t20 97.5t4 137v1061h154v-1122q0 -220 -70.5 -317t-228.5 -73v138zM124 1388q0 51 28.5 83.5t75.5 32.5t78 -31.5t31 -84.5q0 -51 -31 -79.5t-78 -28.5t-75.5 30t-28.5 78z" />
<glyph unicode="&#x459;" horiz-adv-x="1270" d="M-8 10l23 135q44 -13 79.5 5t61 111t41.5 283.5t22 520.5h527v-407q42 9 80 12t73 3q89 0 151 -24.5t100.5 -67t55.5 -101t17 -124.5q0 -194 -94 -281t-294 -87q-126 0 -243 12v927h-232q-6 -181 -17 -350.5t-37.5 -299.5t-75.5 -207.5t-130 -77.5q-37 0 -62.5 4 t-45.5 14zM746 138q63 -12 116 -12q201 0 201 211q0 96 -47 150t-149 54q-28 0 -60 -3t-61 -12v-388z" />
<glyph unicode="&#x45a;" horiz-adv-x="1321" d="M126 0v1065h153v-445h367v445h153v-415q42 8 80.5 10t72.5 2q89 0 151 -22t100.5 -63.5t55.5 -98t17 -122.5q0 -194 -92.5 -281t-295.5 -87q-126 0 -242 12v482h-367v-482h-153zM799 136q32 -6 61.5 -8t55.5 -2q201 0 200 206q0 197 -196 198q-28 0 -59.5 -2t-61.5 -10 v-382z" />
<glyph unicode="&#x45b;" horiz-adv-x="943" d="M-4 941v124h138v426h153v-426h274v-124h-274v-300h7q43 57 105.5 91t156.5 34q71 0 122.5 -20t86 -67t51.5 -124.5t17 -192.5v-362h-154v332q0 148 -35 222t-142 74q-75 0 -134 -50t-81 -131v-447h-153v941h-138z" />
<glyph unicode="&#x45c;" horiz-adv-x="823" d="M126 0v1065h153v-482l73 31l260 451h163l-253 -429l-75 -69l92 -85l272 -482h-183l-270 479h-79v-479h-153zM126 0zM337 1216l100 318h166v-45l-175 -273h-91z" />
<glyph unicode="&#x45e;" horiz-adv-x="800" d="M15 0zM15 1065h174l201 -689l45 -205h10l32 205l162 689h156l-254 -957q-30 -115 -60 -215t-64.5 -173.5t-78.5 -115t-104 -41.5q-59 0 -104 20l26 145q30 -11 59.5 -4.5t56 36t49 88t39.5 152.5zM145 1455l130 41q10 -98 52 -139.5t97 -41.5t96.5 44.5t52.5 133.5 l117 -34q-17 -128 -93 -195t-178 -67q-48 0 -94 14t-83.5 44.5t-63 79.5t-33.5 120z" />
<glyph unicode="&#x45f;" horiz-adv-x="915" d="M126 0v1065h153v-918h357v918h154v-1065h-251l-27 -382h-101l-35 382h-250z" />
<glyph unicode="&#x462;" horiz-adv-x="1073" d="M0 1175v140h254v221h159v-221h353v-140h-353v-266q8 2 29.5 5.5t46.5 5.5t50.5 4.5t46.5 2.5q85 0 163 -20.5t137 -70.5t95.5 -136t36.5 -218q0 -256 -128 -377.5t-345 -121.5q-24 0 -60 1t-75.5 4.5t-81 8.5t-74.5 15v1163h-254zM413 142q24 -6 65.5 -9t84.5 -3 q125 0 206 81t81 258q0 94 -23.5 154t-63 95.5t-92.5 48.5t-110 13q-15 0 -37 -2.5t-44 -4.5t-40 -6.5t-27 -6.5v-618z" />
<glyph unicode="&#x463;" horiz-adv-x="866" d="M0 933v132h187v426h154v-426h275v-132h-275v-275q41 9 80 12t73 3q89 0 151 -24.5t100.5 -67t55 -101t16.5 -124.5q0 -194 -92.5 -281t-296.5 -87q-123 0 -241 12v933h-187zM341 136q30 -6 60 -8t57 -2q104 0 152 57t48 154q0 85 -46.5 144.5t-149.5 59.5q-28 0 -60 -3 t-61 -12v-390z" />
<glyph unicode="&#x472;" horiz-adv-x="1168" d="M92 746q0 379 121.5 574.5t369.5 195.5q135 0 228.5 -54t152 -154.5t86 -243t27.5 -318.5q0 -380 -122 -576t-372 -196q-132 0 -225.5 54.5t-153 154.5t-86 243t-26.5 320zM260 685q4 -115 24.5 -217t60 -179.5t97.5 -122t141 -44.5q151 0 234.5 138t91.5 425h-649z M260 829h649q-6 110 -27.5 208.5t-60.5 171.5t-97.5 117t-140.5 44q-146 0 -229.5 -134.5t-93.5 -406.5z" />
<glyph unicode="&#x473;" horiz-adv-x="919" d="M79 532q0 279 99 419t282 140q195 0 288 -146t93 -413q0 -282 -99 -420t-282 -138q-196 0 -288.5 146t-92.5 412zM238 467q6 -181 69 -267.5t153 -86.5q40 0 79.5 17t69.5 58.5t49 108.5t23 170h-443zM238 594h443q-10 193 -70 275.5t-151 82.5q-43 0 -81 -18t-68 -59.5 t-49.5 -109.5t-23.5 -171z" />
<glyph unicode="&#x474;" horiz-adv-x="1036" d="M-6 1491h179l289 -1020l40 -229h2l28 233l128 539q37 158 68.5 255t67 149t79 70t103.5 18q57 0 93.5 -12t66.5 -31l-45 -138q-32 19 -58.5 26.5t-50.5 7.5q-49 0 -82 -67t-65 -184l-300 -1132h-84z" />
<glyph unicode="&#x475;" horiz-adv-x="872" d="M10 1065h177l199 -616l42 -211h5l38 215l53 186q30 104 56.5 186t57.5 138.5t70.5 86.5t94.5 30q34 0 60.5 -4.5t48.5 -14.5l-22 -143q-24 9 -44.5 14t-42 -9t-44 -52t-48.5 -113l-255 -782h-72z" />
<glyph unicode="&#x48a;" horiz-adv-x="1187" d="M136 0v1491h160v-991l-15 -191h9l74 200l554 982h104v-1353h177v-44l-158 -371h-106l77 277h-150v976l14 195h-7l-74 -200l-553 -971h-106zM287 1817l154 36q4 -79 43.5 -125.5t107.5 -46.5t105.5 46.5t44.5 123.5l136 -32q-17 -122 -87.5 -188t-200.5 -66 q-126 0 -207.5 60t-95.5 192z" />
<glyph unicode="&#x48b;" horiz-adv-x="970" d="M126 0v1065h153v-632l-13 -156h9l70 174l364 614h100v-927h171v-44l-157 -371h-107l76 277h-136v614l13 161h-9l-74 -179l-360 -596h-100zM207 1455l130 41q10 -98 52 -139.5t97 -41.5t96.5 44.5t51.5 133.5l118 -34q-17 -128 -93 -195t-177 -67q-49 0 -95 14t-83.5 44.5 t-63 79.5t-33.5 120z" />
<glyph unicode="&#x48c;" horiz-adv-x="977" d="M0 1363v124h156v174h159v-174h250v-124h-250v-451q24 6 77 12.5t94 6.5q85 0 163.5 -21.5t139.5 -72.5t97 -137t36 -218q0 -256 -127.5 -377.5t-347.5 -121.5q-24 0 -59.5 1t-75.5 4.5t-81.5 8.5t-74.5 15v1351h-156zM315 142q24 -6 66.5 -9t85.5 -3q126 0 206.5 81 t80.5 258q0 94 -23.5 155t-64 96.5t-93.5 49.5t-111 14q-15 0 -37.5 -2t-43.5 -4.5t-39.5 -7t-26.5 -6.5v-622z" />
<glyph unicode="&#x48d;" horiz-adv-x="866" d="M0 0zM0 933v132h187v426h154v-426h275v-132h-275v-275q41 9 80 12t73 3q89 0 151 -24.5t100.5 -67t55 -101t16.5 -124.5q0 -194 -92.5 -281t-296.5 -87q-123 0 -241 12v933h-187zM341 136q30 -6 60 -8t57 -2q104 0 152 57t48 154q0 85 -46.5 144.5t-149.5 59.5 q-28 0 -60 -3t-61 -12v-390z" />
<glyph unicode="&#x48e;" horiz-adv-x="959" d="M136 0v1476q69 18 145.5 25t151.5 7q85 0 167.5 -19t149.5 -70t109 -140.5t42 -228.5q0 -152 -51 -253.5t-132 -157.5l125 -198l-99 -69l-137 211q-81 -26 -172 -25h-28t-40.5 1.5t-41.5 3.5t-29 4v-567h-160zM296 716q9 -5 27 -6t37.5 -3t37 -2h26.5q30 0 60 2t57 13 l-126 205l77 59l134 -220q49 39 78 107t29 179q0 90 -25 149t-64 95.5t-92.5 51.5t-110.5 15q-43 0 -82.5 -3t-62.5 -10v-632z" />
<glyph unicode="&#x48f;" horiz-adv-x="925" d="M126 -426v1491h108l24 -115h8q79 140 248 141q168 0 252 -126t84 -412q0 -160 -39.5 -280t-109.5 -194l98 -134l-94 -75l-100 136q-68 -32 -149 -32q-62 0 -98.5 8t-78.5 30v-438h-153zM279 168q30 -26 67.5 -40.5t98.5 -14.5q47 0 85 19l-104 149l72 60l105 -145 q43 55 65.5 146t22.5 214q0 90 -12 162t-37.5 124t-65 81t-97.5 29q-156 0 -200 -190v-594z" />
<glyph unicode="&#x490;" horiz-adv-x="760" d="M136 0v1491h516l29 285h107v-432h-492v-1344h-160z" />
<glyph unicode="&#x491;" horiz-adv-x="630" d="M126 0v1065h370l30 285h106v-423h-353v-927h-153z" />
<glyph unicode="&#x492;" horiz-adv-x="829" d="M15 681v134h168v676h652v-147h-492v-529h366v-134h-366v-681h-160v681h-168z" />
<glyph unicode="&#x493;" horiz-adv-x="651" d="M0 471v123h145v471h507v-138h-354v-333h294v-123h-294v-471h-153v471h-145z" />
<glyph unicode="&#x494;" horiz-adv-x="990" d="M136 0v1491h652v-147h-492v-588q21 8 84 26.5t152 18.5q73 0 139 -22.5t117 -80t82 -155.5t31 -249q0 -294 -100 -430t-303 -136q-55 0 -80.5 2t-37.5 4v146q24 -4 50 -5t72 -1q120 0 175.5 102.5t55.5 302.5q0 108 -18 180.5t-50.5 115.5t-78 61t-100.5 18 q-58 0 -112.5 -16t-77.5 -26v-612h-160z" />
<glyph unicode="&#x495;" horiz-adv-x="915" d="M126 0v1065h506v-138h-353v-390q21 8 73.5 26t141.5 18q66 0 126.5 -21t107.5 -75t74 -149.5t27 -239.5q0 -279 -88.5 -410t-284.5 -131q-56 0 -81.5 2t-37.5 6v139q21 -5 44.5 -7t69.5 -2q116 0 167 97t51 287q0 104 -16.5 175t-46 113t-71 60t-92.5 18q-57 0 -102 -16 t-62 -25v-402h-153z" />
<glyph unicode="&#x496;" horiz-adv-x="1443" d="M-4 0l366 669l83 79l-79 75l-345 668h188l328 -668h75v668h152v-694l73 30l328 664h179l-334 -648l-71 -68l87 -84l293 -544h114v-422h-112l-26 275h-96l-358 693h-77v-693h-152v718l-71 -30l-358 -688h-187z" />
<glyph unicode="&#x497;" horiz-adv-x="1207" d="M0 0l262 488l57 63l-87 81l-213 433h162l221 -460h88v460h153v-482l77 31l223 451h160l-223 -433l-69 -67l88 -86l172 -341h130v-408h-104l-28 270h-102l-239 479h-85v-479h-153v500l-79 -29l-238 -471h-173z" />
<glyph unicode="&#x498;" horiz-adv-x="923" d="M66 30l42 145q43 -24 111 -38.5t167 -14.5q57 0 108 20t89.5 58t61 97t22.5 136q0 138 -73.5 201t-197.5 73q-21 2 -37 2h-40h-87v139h38q33 0 79.5 2t74.5 8q86 21 146 88.5t60 169.5q0 140 -68 197t-172 57q-83 0 -147 -16.5t-105 -38.5l-42 132q38 24 126.5 46.5 t199.5 22.5q73 0 140.5 -17t120 -58t84.5 -113t32 -178q0 -108 -54 -203t-168 -142v-8q120 -24 189 -114.5t69 -243.5q0 -108 -30 -191.5t-81 -140t-120 -89.5t-148 -42l-25 -358h-101l-32 356q-79 4 -135.5 19t-96.5 37z" />
<glyph unicode="&#x499;" horiz-adv-x="746" d="M55 41l41 132q40 -26 92 -37.5t113 -11.5q209 0 208 187q0 77 -49 121.5t-164 44.5h-91v132h112q30 0 59 13.5t51 37t36 55t14 65.5q0 83 -43.5 121t-132.5 38q-66 0 -117.5 -19t-81.5 -40l-45 122q53 34 125 54.5t163 20.5q141 0 216 -65t75 -195q0 -81 -40 -148.5 t-110 -97.5v-8q97 -24 140 -90t43 -175q0 -115 -64 -199t-198 -107l-25 -374h-101l-33 367q-62 5 -108 19.5t-85 36.5z" />
<glyph unicode="&#x49a;" horiz-adv-x="1075" d="M136 0v1491h160v-694l74 30l388 664h183l-390 -643l-74 -68l88 -85l340 -548h154v-422h-114l-25 275h-125l-423 691h-76v-691h-160z" />
<glyph unicode="&#x49b;" horiz-adv-x="872" d="M126 0v1065h153v-482l73 31l260 451h163l-253 -429l-75 -69l92 -85l191 -344h126v-408h-104l-28 270h-96l-270 479h-79v-479h-153z" />
<glyph unicode="&#x49c;" horiz-adv-x="1187" d="M138 0v1491h160v-694l94 8v270h124v-255l37 7l348 664h181l-354 -641l-74 -70l88 -85l394 -695h-199l-379 691h-42v-276h-124v276h-94v-691h-160z" />
<glyph unicode="&#x49d;" horiz-adv-x="939" d="M126 0v1065h153v-482l83 7v266h111v-249l43 7l210 451h162l-207 -429l-76 -69l90 -85l225 -482h-176l-224 479h-47v-270h-111v270h-83v-479h-153z" />
<glyph unicode="&#x49e;" horiz-adv-x="1147" d="M0 1214v134h234v143h160v-143h202v-130h-202v-421l83 30l381 664h183l-383 -641l-79 -70l90 -85l426 -695h-201l-417 691h-83v-691h-160v1214h-234z" />
<glyph unicode="&#x49f;" horiz-adv-x="825" d="M-10 1182v123h138v186h153v-186h272v-123h-272v-599l71 31l249 451h177l-252 -431l-75 -67l88 -83l274 -484h-185l-268 479h-79v-479h-153v1182h-138z" />
<glyph unicode="&#x4a0;" horiz-adv-x="1187" d="M0 1344v147h435v-694l74 30l387 664h184l-389 -643l-75 -68l87 -85l433 -695h-203l-421 691h-77v-691h-160v1335v9h-275z" />
<glyph unicode="&#x4a1;" horiz-adv-x="885" d="M0 927v138h341v-482l74 31l258 451h164l-254 -429l-74 -69l92 -83l275 -484h-183l-271 479h-81v-479h-154v927h-187z" />
<glyph unicode="&#x4a2;" horiz-adv-x="1209" d="M136 0v1491h160v-656h550v656h160v-1344h157v-422h-111l-26 275h-180v688h-550v-688h-160zM136 0z" />
<glyph unicode="&#x4a3;" horiz-adv-x="945" d="M126 0v1065h153v-451h369v451h153v-927h128v-408h-104l-28 270h-149v475h-369v-475h-153z" />
<glyph unicode="&#x4a4;" horiz-adv-x="1469" d="M136 0v1491h160v-656h550v656h652v-147h-492v-1344h-160v688h-550v-688h-160z" />
<glyph unicode="&#x4a5;" horiz-adv-x="1151" d="M126 0v1065h153v-451h369v451h506v-138h-353v-927h-153v475h-369v-475h-153z" />
<glyph unicode="&#x4a6;" horiz-adv-x="1675" d="M136 0v1491h848v-735q21 10 82.5 27.5t151.5 17.5q73 0 140 -22.5t118 -80t81 -155.5t30 -249q0 -292 -99.5 -429t-300.5 -137q-55 0 -81 1t-39 5v146q21 -4 48 -5t76 -1q117 0 172.5 102.5t55.5 300.5q0 108 -18.5 180.5t-50 116.5t-77.5 62t-100 18q-57 0 -113 -16 t-76 -26v-612h-159v1344h-529v-1344h-160z" />
<glyph unicode="&#x4a7;" horiz-adv-x="1422" d="M126 0v1065h664v-524q21 8 73.5 24t142.5 16q65 0 126 -22t106.5 -77.5t73.5 -148.5t28 -235q0 -281 -88.5 -412t-286.5 -131q-55 0 -80 2t-37 6v139q20 -5 46 -7t73 -2q116 0 168 101.5t52 282.5q0 102 -17.5 172t-47 113t-71 62t-92.5 19q-57 0 -104.5 -16t-64.5 -25 v-402h-154v927h-357v-927h-153z" />
<glyph unicode="&#x4a8;" horiz-adv-x="1409" d="M92 746q0 386 132 578t381 192v-146q-158 0 -251.5 -150.5t-93.5 -471.5q0 -132 27.5 -247t77.5 -199.5t120.5 -132t157.5 -47.5q16 0 41 1t42 7q-53 43 -94.5 110t-70.5 151t-45 181t-16 199q0 337 113 507.5t292 170.5q201 0 296.5 -157.5t95.5 -443.5 q0 -132 -21.5 -246t-57.5 -207.5t-85 -163t-104 -109.5q12 -4 24 -2t22 2q58 0 106 15.5t79 41.5l50 -130q-34 -32 -86.5 -53.5t-141.5 -21.5q-56 0 -113 17t-100 47q-95 -63 -228 -64q-132 0 -234 53.5t-172.5 153.5t-106.5 243t-36 322zM669 754q0 -77 13 -161 t40.5 -161.5t69 -143.5t96.5 -107q45 32 88.5 90.5t76.5 141.5t54 189.5t21 232.5q0 98 -11 183t-36.5 148t-67.5 99t-104 36q-100 0 -170 -132t-70 -415z" />
<glyph unicode="&#x4a9;" horiz-adv-x="1149" d="M79 532q0 267 94.5 412t288.5 147v-139q-224 -5 -224 -417q0 -90 16 -167.5t49.5 -134t83.5 -88.5t115 -32q19 0 43 5.5t38 17.5q-57 47 -99.5 159t-42.5 256q0 100 16 193t52 164.5t98 114t153 42.5q83 0 140 -36.5t93 -98t52 -144.5t16 -177q0 -85 -17.5 -164t-45 -143 t-62.5 -110.5t-72 -69.5q43 -24 97.5 -10t93.5 56l48 -115q-30 -36 -83 -57.5t-115 -21.5q-53 0 -102 18t-83 57q-51 -45 -114 -60t-122 -15q-196 0 -300.5 146t-104.5 412zM601 545q0 -122 36 -228t98 -159q69 45 117.5 166t48.5 283q0 64 -8.5 121.5t-26.5 102.5 t-44.5 70.5t-63.5 25.5q-49 0 -79.5 -30t-47.5 -81.5t-23.5 -121.5t-6.5 -149z" />
<glyph unicode="&#x4aa;" horiz-adv-x="974" d="M92 746q0 213 43.5 359.5t115.5 238t167.5 132t195.5 40.5q102 0 169 -14.5t116 -36.5l-39 -144q-43 24 -100 36.5t-132 12.5t-140.5 -33.5t-117 -107t-81 -192.5t-29.5 -291q0 -311 106.5 -464.5t283.5 -153.5q73 0 130 17t98 44l38 -132q-42 -36 -104 -55t-133 -26 l-25 -358h-101l-31 363q-96 15 -175 67t-136.5 144.5t-88 230.5t-30.5 323z" />
<glyph unicode="&#x4ab;" horiz-adv-x="758" d="M79 532q0 273 96.5 416t277.5 143q84 0 143.5 -15t102.5 -39l-43 -132q-81 47 -185 47q-115 0 -174 -101t-59 -319q0 -87 13 -162.5t42.5 -132t76.5 -89.5t118 -33q55 0 103 18t78 44l44 -124q-36 -30 -81.5 -46.5t-94.5 -25.5l-25 -363h-101l-31 363q-82 13 -139.5 57.5 t-94 116t-52 167t-15.5 210.5z" />
<glyph unicode="&#x4ac;" horiz-adv-x="955" d="M30 1344v147h897v-147h-371v-1197h162v-422h-111l-26 275h-185v1344h-366z" />
<glyph unicode="&#x4ad;" horiz-adv-x="681" d="M2 927v138h677v-138h-262v-789h128v-408h-104l-28 270h-149v927h-262z" />
<glyph unicode="&#x4ae;" horiz-adv-x="968" d="M10 0zM10 1491h188l269 -650l27 -130h4l28 135l260 645h173l-392 -897v-594h-160v592z" />
<glyph unicode="&#x4af;" horiz-adv-x="832" d="M10 1065h179l199 -681l45 -235h4l38 239l179 677h166l-320 -1065v-426h-153v426z" />
<glyph unicode="&#x4b0;" horiz-adv-x="968" d="M10 1491h188l269 -650l27 -130h4l28 135l260 645h173l-388 -884h256v-125h-260v-482h-160v482h-260v125h253z" />
<glyph unicode="&#x4b1;" horiz-adv-x="832" d="M10 1065h179l199 -681l45 -235h4l38 239l179 677h166l-320 -1065h205v-124h-205v-302h-153v302h-205v124h205z" />
<glyph unicode="&#x4b2;" horiz-adv-x="1128" d="M41 0l392 758l-358 733h191l232 -505l43 -126l42 126l246 505h177l-372 -718l313 -626h165v-422h-113l-26 275h-138l-258 535l-49 132l-44 -132l-265 -535h-178z" />
<glyph unicode="&#x4b3;" horiz-adv-x="906" d="M41 0l302 545l-282 520h184l157 -305l43 -119l45 119l162 305h168l-283 -512l223 -415h132v-408h-104l-28 270h-98l-178 335l-47 127l-49 -127l-179 -335h-168z" />
<glyph unicode="&#x4b4;" horiz-adv-x="1435" d="M30 1344v147h826v-147h-298v-1197h515v1344h160v-1344h157v-422h-110l-28 275h-854v1344h-368z" />
<glyph unicode="&#x4b5;" horiz-adv-x="1083" d="M2 927v138h652v-138h-235v-789h352v927h154v-927h125v-408h-107l-25 270h-652v927h-264z" />
<glyph unicode="&#x4b6;" horiz-adv-x="1102" d="M118 935v556h159v-520q0 -156 53.5 -216t155.5 -60q75 0 144 27.5t112 72.5v696h159v-1344h158v-422h-112l-25 275h-180v639q-43 -33 -120 -62.5t-171 -29.5q-68 0 -128.5 17t-106 61t-72 118t-26.5 192z" />
<glyph unicode="&#x4b7;" horiz-adv-x="880" d="M77 705v360h153v-311q0 -53 5 -95.5t20 -74t43 -47t72 -15.5q75 0 122 19.5t73 41.5v482h153v-927h130v-408h-104l-28 270h-151v447q-26 -19 -80 -41t-146 -22q-61 0 -110.5 15.5t-82.5 52t-51 98.5t-18 155z" />
<glyph unicode="&#x4b8;" horiz-adv-x="1059" d="M118 941v550h159v-515q0 -141 45.5 -208t144.5 -73v274h121v-264q53 11 100 35t76 55v696h161v-1491h-161v639q-30 -21 -75.5 -41.5t-100.5 -34.5v-254h-121v238h-9q-77 0 -139.5 19.5t-107.5 65t-69 121.5t-24 188z" />
<glyph unicode="&#x4b9;" horiz-adv-x="862" d="M77 742v323h153v-301q0 -53 4 -96.5t18 -76.5t38.5 -53t65.5 -24v281h111v-275q41 8 71.5 25.5t47.5 33.5v486h153v-1065h-153v447q-17 -14 -47 -30.5t-72 -26.5v-245h-111v229h-11q-65 0 -115.5 17.5t-85 60t-51 112.5t-16.5 178z" />
<glyph unicode="&#x4ba;" horiz-adv-x="1036" d="M136 0v1491h160v-639q45 30 121.5 60.5t174.5 30.5q75 0 135.5 -19t103.5 -67t66 -126.5t23 -200.5v-530h-160v502q0 151 -49 223t-158 72q-77 0 -145.5 -26.5t-111.5 -69.5v-701h-160z" />
<glyph unicode="&#x4bb;" horiz-adv-x="937" d="M126 0v1491h153v-526h6q43 55 105.5 90.5t156.5 35.5q71 0 123 -19.5t86 -66t51.5 -124.5t17.5 -193v-688h-154v648q0 149 -35 226.5t-140 77.5q-75 0 -135 -53t-82 -135v-764h-153zM126 0z" />
<glyph unicode="&#x4bc;" horiz-adv-x="1345" d="M2 929q0 61 15 103.5t38 73.5h148q-30 -31 -43 -75.5t-13 -83.5q0 -30 6.5 -54t25.5 -41t55 -26t96 -3q10 331 130.5 512t346.5 181q219 0 327 -156.5t108 -443.5q0 -55 -3 -113.5t-12 -123.5h-729q13 -283 103 -420t273 -137q77 0 142.5 28.5t109.5 58.5l47 -134 q-59 -43 -140 -72t-190 -29q-229 0 -365.5 168.5t-147.5 536.5h-60q-146 0 -209 65t-59 185zM496 823h581q5 30 5 58v58q0 85 -15 163t-48 137.5t-85 95t-125 35.5q-158 0 -232.5 -146.5t-80.5 -400.5z" />
<glyph unicode="&#x4bd;" horiz-adv-x="1069" d="M10 760q2 79 26.5 127t57.5 80h146q-38 -30 -65.5 -79t-27.5 -122q0 -50 27 -88.5t105 -31.5q21 219 118 332t261 113q60 0 118.5 -15t105.5 -60t75.5 -126t28.5 -211q0 -36 -3 -77t-7 -86h-541q0 -92 14.5 -166.5t46.5 -126.5t82 -81t125 -29q57 0 114 21.5t86 50.5 l56 -112q-51 -47 -130 -73t-167 -26q-99 0 -171 38.5t-120 108.5t-71 169.5t-25 223.5h-19q-128 0 -188 66t-58 180zM437 643h402q4 160 -44.5 234.5t-134.5 74.5q-97 0 -155 -74.5t-68 -234.5z" />
<glyph unicode="&#x4be;" horiz-adv-x="1335" d="M2 929q0 61 15 103.5t38 73.5h148q-30 -31 -43 -75.5t-13 -83.5q0 -30 6.5 -54t25.5 -41t55 -26t96 -3q10 331 130.5 512t346.5 181q219 0 327 -156.5t108 -443.5q0 -55 -3 -113.5t-12 -123.5h-729q13 -283 103 -419t273 -136q77 0 142.5 27.5t109.5 57.5l47 -134 q-51 -37 -117 -63.5t-151 -35.5l-25 -358h-100l-32 358q-190 30 -298.5 201.5t-119.5 501.5h-60q-146 0 -209 65t-59 185zM496 823h571q6 57 6 116q0 85 -13.5 163t-44.5 137.5t-82 95t-124 35.5q-158 0 -232.5 -146.5t-80.5 -400.5z" />
<glyph unicode="&#x4bf;" horiz-adv-x="1069" d="M12 760q3 79 27 127t57 80h146q-38 -30 -65.5 -79t-27.5 -122q0 -26 6.5 -48.5t21 -41t40 -27t64.5 -3.5q21 219 118 332t261 113q60 0 118.5 -15t105.5 -60t75.5 -126t28.5 -211q0 -36 -3 -77t-7 -86h-541q2 -185 61.5 -293t206.5 -108q57 0 114 20.5t86 49.5l56 -112 q-41 -37 -97.5 -61t-119.5 -36l-26 -358h-100l-32 361q-159 30 -232 172.5t-77 364.5h-19q-128 0 -188 65t-58 179zM439 643h402q5 160 -44 234.5t-135 74.5q-97 0 -155 -74.5t-68 -234.5z" />
<glyph unicode="&#x4c0;" horiz-adv-x="496" d="M168 0v1491h160v-1491h-160zM168 0z" />
<glyph unicode="&#x4c3;" horiz-adv-x="1030" d="M136 0v1491h160v-694l74 30l388 664h183l-374 -609l-98 -81h102q89 -26 153 -71t104.5 -119t59.5 -184t19 -267v-40q0 -167 -27.5 -279.5t-78.5 -180t-125.5 -93t-166.5 -14.5v146q68 0 114 23.5t73.5 78t39.5 140.5t12 210q0 149 -21.5 252t-67 167t-116 92.5 t-169.5 28.5h-78v-691h-160z" />
<glyph unicode="&#x4c4;" horiz-adv-x="829" d="M126 0v1065h153v-500l73 29l257 471h166l-255 -447l-64 -57l72 -12q75 -21 121 -69.5t71.5 -113.5t34.5 -142t9 -153v-37q0 -144 -27.5 -242.5t-77.5 -154.5t-118 -74.5t-149 -5.5v138q104 -16 162 72t58 267q0 230 -66.5 330t-189.5 105h-77v-469h-153z" />
<glyph unicode="&#x4c5;" horiz-adv-x="1083" d="M-8 10l23 146q42 -12 78.5 5.5t68.5 98.5q24 57 44 154.5t36 246t26.5 353t14.5 477.5h650v-1353h162v-44l-158 -371h-106l76 277h-134v1344h-336q-17 -429 -45 -716t-85 -443q-37 -102 -90 -148.5t-121 -46.5q-62 0 -104 20z" />
<glyph unicode="&#x4c6;" horiz-adv-x="900" d="M-12 10l22 135q45 -13 80.5 5t61 111t41.5 283.5t22 520.5h527v-927h167v-44l-157 -371h-106l76 277h-134v927h-232q-7 -181 -17.5 -350.5t-37 -299.5t-75.5 -207.5t-130 -77.5q-37 0 -62.5 4t-45.5 14z" />
<glyph unicode="&#x4c7;" horiz-adv-x="1140" d="M136 0v1491h160v-656h550v656h160v-1491v-59q0 -220 -69.5 -315t-229.5 -73v138q49 0 76.5 19.5t41.5 58t17.5 96.5t3.5 135v688h-550v-688h-160z" />
<glyph unicode="&#x4c8;" horiz-adv-x="923" d="M126 0v1065h153v-451h369v451h153v-1126q0 -196 -59 -290t-186 -92q-12 0 -25 1t-29 3v134q96 -2 121 73.5t25 231.5v475h-369v-475h-153z" />
<glyph unicode="&#x4c9;" horiz-adv-x="1171" d="M136 0v1491h160v-656h550v656h160v-1353h174v-44l-158 -371h-106l76 277h-146v688h-550v-688h-160z" />
<glyph unicode="&#x4ca;" horiz-adv-x="959" d="M126 0v1065h153v-451h369v451h153v-927h168v-44l-158 -371h-106l77 277h-134v475h-369v-475h-153z" />
<glyph unicode="&#x4cb;" horiz-adv-x="1036" d="M118 935v556h159v-520q0 -156 53.5 -216t155.5 -60q75 0 144 27.5t112 72.5v696h159v-1491h-183l-27 -275h-112v422h163v492q-43 -33 -120 -62.5t-171 -29.5q-68 0 -128.5 17t-106 61t-72 118t-26.5 192z" />
<glyph unicode="&#x4cc;" horiz-adv-x="843" d="M77 746v319h153v-287q0 -55 5 -101.5t20 -79t43 -51t72 -18.5q75 0 123 18.5t72 41.5v477h153v-1065h-160l-26 -270h-106v408h139v315q-28 -18 -81 -40.5t-149 -22.5q-64 0 -112 16t-80.5 56t-49 109.5t-16.5 174.5z" />
<glyph unicode="&#x4cd;" horiz-adv-x="1386" d="M136 0v1491h134l360 -733l53 -175h5l51 177l341 731h141v-1353h176v-44l-157 -371h-106l76 277h-149v980l19 225h-9l-67 -211l-301 -647h-53l-315 647l-67 211h-8l30 -225v-980h-154z" />
<glyph unicode="&#x4ce;" horiz-adv-x="1145" d="M126 0v1065h153l233 -462l46 -139h5l51 143l215 458h157v-927h168v-44l-158 -371h-106l77 277h-134v632l15 203h-9l-64 -181l-198 -409h-55l-207 409l-57 181h-10l16 -201v-634h-138z" />
<glyph unicode="&#x4cf;" horiz-adv-x="435" d="M142 0v1491h154v-1491h-154zM142 0z" />
<glyph unicode="&#x4d0;" horiz-adv-x="1006" d="M10 0l450 1514h87l449 -1514h-165l-122 417h-422l-119 -417h-158zM10 0zM205 1817l153 36q4 -79 43.5 -125.5t108.5 -46.5q68 0 105 46.5t43 123.5l137 -32q-17 -122 -87 -188t-200 -66q-126 0 -208.5 60t-94.5 192zM330 561h341l-130 459l-41 224h-4l-40 -228z" />
<glyph unicode="&#x4d1;" horiz-adv-x="851" d="M61 0zM61 285q0 91 31.5 153t87.5 100.5t134 54.5t174 16h42t45 -2q6 66 6 117q0 122 -36 170.5t-132 48.5q-59 0 -129.5 -18t-117.5 -45l-51 122q62 38 150.5 59t185.5 21q90 0 144.5 -26.5t85 -72.5t40 -104.5t9.5 -122.5q0 -128 -5 -249t-5 -230q0 -81 5 -150.5 t21 -130.5h-118l-36 126h-9q-32 -55 -93.5 -96t-166.5 -41q-115 0 -188.5 80t-73.5 220zM149 1455l130 41q10 -98 52 -139.5t97 -41.5t96.5 44.5t52.5 133.5l117 -34q-17 -128 -93 -195t-178 -67q-48 0 -94 14t-83.5 44.5t-63 79.5t-33.5 120zM222 303q0 -86 41.5 -132.5 t106.5 -46.5q90 0 139 42.5t68 93.5v226q-21 2 -42 3t-43 1q-51 0 -100 -8.5t-87.5 -29.5t-60.5 -57.5t-22 -91.5z" />
<glyph unicode="&#x4d2;" horiz-adv-x="1006" d="M10 0l450 1514h87l449 -1514h-165l-122 417h-422l-119 -417h-158zM10 0zM234 1691q0 45 26.5 72.5t73.5 27.5q44 0 71 -27.5t27 -72.5t-27 -71.5t-71 -26.5q-47 0 -73.5 26.5t-26.5 71.5zM330 561h341l-130 459l-41 224h-4l-40 -228zM570 1691q0 45 27 72.5t72 27.5 q46 0 72.5 -27.5t26.5 -72.5t-26.5 -71.5t-72.5 -26.5q-45 0 -72 26.5t-27 71.5z" />
<glyph unicode="&#x4d3;" horiz-adv-x="851" d="M61 0zM61 285q0 91 31.5 153t87.5 100.5t134 54.5t174 16h42t45 -2q6 66 6 117q0 122 -36 170.5t-132 48.5q-59 0 -129.5 -18t-117.5 -45l-51 122q62 38 150.5 59t185.5 21q90 0 144.5 -26.5t85 -72.5t40 -104.5t9.5 -122.5q0 -128 -5 -249t-5 -230q0 -81 5 -150.5 t21 -130.5h-118l-36 126h-9q-32 -55 -93.5 -96t-166.5 -41q-115 0 -188.5 80t-73.5 220zM160 1349q0 49 24.5 77.5t66.5 28.5q43 0 67.5 -28.5t24.5 -77.5q0 -44 -24.5 -71.5t-67.5 -27.5q-42 0 -66.5 27.5t-24.5 71.5zM222 303q0 -86 41.5 -132.5t106.5 -46.5 q90 0 139 42.5t68 93.5v226q-21 2 -42 3t-43 1q-51 0 -100 -8.5t-87.5 -29.5t-60.5 -57.5t-22 -91.5zM499 1349q0 49 24.5 77.5t66.5 28.5q43 0 67.5 -28.5t24.5 -77.5q0 -44 -24.5 -71.5t-67.5 -27.5q-42 0 -66.5 27.5t-24.5 71.5z" />
<glyph unicode="&#x4d4;" horiz-adv-x="1453" d="M-38 0l713 1491h667v-147h-505v-505h462v-146h-462v-546h513v-147h-673v424h-351l-192 -424h-172zM396 567h281v687h-6l-55 -208z" />
<glyph unicode="&#x4d5;" horiz-adv-x="1366" d="M61 290q0 94 31.5 156.5t86.5 99.5t132 53.5t171 16.5q23 0 46 -1t47 -3q6 65 6 116q0 122 -36 169.5t-132 47.5q-59 0 -131.5 -21t-121.5 -55l-47 119q66 49 154.5 71.5t183.5 22.5q179 0 232 -137q43 77 119 111.5t150 34.5q59 0 117.5 -16t106 -62t76 -128t28.5 -212 q0 -37 -3 -77t-7 -84h-540q2 -196 60 -297.5t202 -101.5q59 0 117 21.5t88 46.5l55 -112q-53 -43 -129.5 -69t-170.5 -26q-106 0 -189.5 46t-123.5 136h-13q-43 -75 -116 -124t-182 -49q-120 0 -193.5 83t-73.5 224zM222 307q0 -75 40.5 -130t105.5 -55q45 0 80.5 13.5 t61 35.5t42.5 49.5t25 54.5v215q-21 2 -42 3t-43 1q-51 0 -100 -8.5t-87.5 -29.5t-60.5 -57.5t-22 -91.5zM730 636h400q5 161 -43 238.5t-135 77.5q-96 0 -153 -76.5t-69 -239.5z" />
<glyph unicode="&#x4d6;" horiz-adv-x="913" d="M136 0v1491h663v-147h-503v-505h462v-146h-462v-546h513v-147h-673zM136 0zM169 1817l153 36q4 -79 43.5 -125.5t108.5 -46.5q68 0 105 46.5t43 123.5l137 -32q-17 -122 -87 -188t-200 -66q-126 0 -208.5 60t-94.5 192z" />
<glyph unicode="&#x4d7;" horiz-adv-x="878" d="M79 0zM79 532q0 273 100 416t283 143q59 0 118 -15t106 -60t75.5 -126t28.5 -211q0 -36 -3 -77t-7 -86h-542q0 -92 15 -166.5t47 -126.5t82.5 -81t123.5 -29q58 0 114.5 21.5t86.5 50.5l55 -112q-51 -47 -130 -73t-165 -26q-100 0 -174 39.5t-121.5 113.5t-70 176 t-22.5 229zM179 1455l130 41q10 -98 52 -139.5t97 -41.5t96.5 44.5t52.5 133.5l117 -34q-17 -128 -93 -195t-178 -67q-48 0 -94 14t-83.5 44.5t-63 79.5t-33.5 120zM240 643h403q4 160 -45 234.5t-134 74.5q-98 0 -155 -74.5t-69 -234.5z" />
<glyph unicode="&#x4d8;" horiz-adv-x="1094" d="M87 586q0 57 3.5 117.5t13.5 127.5h739q-14 272 -97.5 405.5t-257.5 133.5q-79 0 -152.5 -29t-113.5 -57l-47 135q55 36 142.5 66.5t196.5 30.5q121 0 212 -43.5t153 -136t93.5 -239.5t31.5 -351q0 -368 -116.5 -570t-363.5 -202q-108 0 -190 42.5t-137 121.5t-82.5 193 t-27.5 255zM248 558q0 -87 15.5 -167t50.5 -140t87 -94.5t127 -34.5q156 0 234.5 143.5t80.5 422.5h-587q-4 -32 -6 -65t-2 -65z" />
<glyph unicode="&#x4d9;" horiz-adv-x="868" d="M79 433q0 36 3 74t7 81h545q-6 187 -64 275.5t-204 88.5q-59 0 -116 -20t-86 -50l-58 114q53 43 133 69t170 26q197 0 289 -148t92 -411q0 -282 -98 -420t-270 -138q-59 0 -120.5 20.5t-111.5 73t-80.5 140.5t-30.5 225zM228 460q-9 -167 48 -257t148 -90q96 0 153 88.5 t53 258.5h-402z" />
<glyph unicode="&#x4da;" horiz-adv-x="1094" d="M87 0zM87 586q0 57 3.5 117.5t13.5 127.5h739q-14 272 -97.5 405.5t-257.5 133.5q-79 0 -152.5 -29t-113.5 -57l-47 135q55 36 142.5 66.5t196.5 30.5q121 0 212 -43.5t153 -136t93.5 -239.5t31.5 -351q0 -368 -116.5 -570t-363.5 -202q-108 0 -190 42.5t-137 121.5 t-82.5 193t-27.5 255zM248 558q0 -87 15.5 -167t50.5 -140t87 -94.5t127 -34.5q156 0 234.5 143.5t80.5 422.5h-587q-4 -32 -6 -65t-2 -65zM262 1691q0 45 26.5 72.5t73.5 27.5q44 0 71 -27.5t27 -72.5t-27 -71.5t-71 -26.5q-47 0 -73.5 26.5t-26.5 71.5zM598 1691 q0 45 27 72.5t72 27.5q46 0 72.5 -27.5t26.5 -72.5t-26.5 -71.5t-72.5 -26.5q-45 0 -72 26.5t-27 71.5z" />
<glyph unicode="&#x4db;" horiz-adv-x="868" d="M79 0zM79 433q0 36 3 74t7 81h545q-6 187 -64 275.5t-204 88.5q-59 0 -116 -20t-86 -50l-58 114q53 43 133 69t170 26q197 0 289 -148t92 -411q0 -282 -98 -420t-270 -138q-59 0 -120.5 20.5t-111.5 73t-80.5 140.5t-30.5 225zM160 1349q0 49 24.5 77.5t66.5 28.5 q43 0 67.5 -28.5t24.5 -77.5q0 -44 -24.5 -71.5t-67.5 -27.5q-42 0 -66.5 27.5t-24.5 71.5zM228 460q-9 -167 48 -257t148 -90q96 0 153 88.5t53 258.5h-402zM499 1349q0 49 24.5 77.5t66.5 28.5q43 0 67.5 -28.5t24.5 -77.5q0 -44 -24.5 -71.5t-67.5 -27.5 q-42 0 -66.5 27.5t-24.5 71.5z" />
<glyph unicode="&#x4dc;" horiz-adv-x="1392" d="M-4 0l366 669l83 79l-79 75l-345 668h188l328 -668h75v668h152v-694l73 30l328 664h179l-334 -648l-71 -68l87 -84l371 -691h-198l-358 693h-77v-693h-152v718l-71 -30l-358 -688h-187zM0 0zM424 1691q0 45 26.5 72.5t73.5 27.5q44 0 71 -27.5t27 -72.5t-27 -71.5 t-71 -26.5q-47 0 -73.5 26.5t-26.5 71.5zM760 1691q0 45 27 72.5t72 27.5q46 0 72.5 -27.5t26.5 -72.5t-26.5 -71.5t-72.5 -26.5q-45 0 -72 26.5t-27 71.5z" />
<glyph unicode="&#x4dd;" horiz-adv-x="1142" d="M0 0l262 488l57 63l-87 81l-213 433h162l221 -460h88v460h153v-482l79 31l221 451h160l-223 -433l-69 -67l88 -86l245 -479h-177l-239 479h-85v-479h-153v500l-79 -29l-238 -471h-173zM0 0zM309 1349q0 49 24.5 77.5t66.5 28.5q43 0 67.5 -28.5t24.5 -77.5 q0 -44 -24.5 -71.5t-67.5 -27.5q-42 0 -66.5 27.5t-24.5 71.5zM648 1349q0 49 24.5 77.5t66.5 28.5q43 0 67.5 -28.5t24.5 -77.5q0 -44 -24.5 -71.5t-67.5 -27.5q-42 0 -66.5 27.5t-24.5 71.5z" />
<glyph unicode="&#x4de;" horiz-adv-x="923" d="M66 0zM66 30l42 145q43 -24 111 -38.5t167 -14.5q57 0 108 20t89.5 58t61 97t22.5 136q0 138 -73.5 201t-197.5 73q-21 2 -37 2h-40h-87v139h38q33 0 79.5 2t74.5 8q86 21 146 88.5t60 169.5q0 140 -68 197t-172 57q-83 0 -147 -15t-105 -38l-42 130q38 24 126.5 46.5 t199.5 22.5q73 0 140.5 -17t120 -58t84.5 -113t32 -178q0 -108 -54 -203t-168 -142v-8q120 -24 189 -114.5t69 -243.5q0 -124 -37.5 -211.5t-100.5 -143.5t-145.5 -83t-171.5 -27q-114 0 -189.5 15t-124.5 41zM149 1691q0 45 26.5 72.5t73.5 27.5q44 0 71 -27.5t27 -72.5 t-27 -71.5t-71 -26.5q-47 0 -73.5 26.5t-26.5 71.5zM485 1691q0 45 27 72.5t72 27.5q46 0 72.5 -27.5t26.5 -72.5t-26.5 -71.5t-72.5 -26.5q-45 0 -72 26.5t-27 71.5z" />
<glyph unicode="&#x4df;" horiz-adv-x="746" d="M55 0zM55 41l41 132q40 -26 96 -38.5t115 -12.5q104 0 156.5 48.5t52.5 140.5q0 77 -49.5 121.5t-163.5 44.5h-96v132h116q31 0 59.5 13.5t51 37t36.5 55t14 65.5q0 83 -44 121t-133 38q-66 0 -120.5 -19t-84.5 -40l-45 122q53 34 125 54.5t163 20.5q141 0 216 -65 t75 -195q0 -81 -40 -148.5t-110 -97.5v-8q97 -24 140 -90t43 -175q0 -134 -89.5 -224.5t-274.5 -90.5q-86 0 -144.5 16t-105.5 42zM81 1349q0 49 24.5 77.5t66.5 28.5q43 0 67.5 -28.5t24.5 -77.5q0 -44 -24.5 -71.5t-67.5 -27.5q-42 0 -66.5 27.5t-24.5 71.5zM420 1349 q0 49 24.5 77.5t66.5 28.5q43 0 67.5 -28.5t24.5 -77.5q0 -44 -24.5 -71.5t-67.5 -27.5q-42 0 -66.5 27.5t-24.5 71.5z" />
<glyph unicode="&#x4e0;" horiz-adv-x="959" d="M87 43l41 146q43 -28 116 -47.5t148 -19.5q143 0 224 87t81 228q0 146 -84.5 218.5t-246.5 72.5h-149v58l313 486l75 91l-105 -19h-404v147h715v-62l-338 -515l-64 -64v-7l62 17q83 0 154.5 -27.5t122.5 -78.5t79.5 -127t28.5 -174q0 -115 -33 -203t-92.5 -150t-146 -94 t-190.5 -32q-85 0 -171.5 19t-135.5 50z" />
<glyph unicode="&#x4e1;" horiz-adv-x="817" d="M59 -396l45 136q41 -24 94.5 -36.5t114.5 -12.5q59 0 109.5 22.5t87.5 64t57.5 100.5t20.5 128q0 153 -72.5 228t-202.5 75h-122v55l248 482l79 93l-111 -12h-341v138h629v-61l-269 -508l-62 -61v-4l58 12q66 -4 124.5 -32.5t101.5 -81t68.5 -127t25.5 -172.5 q0 -115 -33.5 -204.5t-90.5 -150.5t-136.5 -91.5t-170.5 -30.5q-75 0 -139 14t-113 37z" />
<glyph unicode="&#x4e2;" horiz-adv-x="1158" d="M136 0v1491h160v-991l-15 -191h9l74 200l554 982h104v-1491h-160v976l14 195h-7l-74 -200l-553 -971h-106zM136 0zM313 1663v132h551v-132h-551z" />
<glyph unicode="&#x4e3;" horiz-adv-x="934" d="M126 0v1065h153v-632l-13 -156h9l70 174l364 614h100v-1065h-153v614l13 161h-9l-74 -179l-360 -596h-100zM126 0zM213 1242v128h518v-128h-518z" />
<glyph unicode="&#x4e4;" horiz-adv-x="1158" d="M136 0v1491h160v-991l-15 -191h9l74 200l554 982h104v-1491h-160v976l14 195h-7l-74 -200l-553 -971h-106zM136 0zM317 1691q0 45 26.5 72.5t73.5 27.5q44 0 71 -27.5t27 -72.5t-27 -71.5t-71 -26.5q-47 0 -73.5 26.5t-26.5 71.5zM653 1691q0 45 27 72.5t72 27.5 q46 0 72.5 -27.5t26.5 -72.5t-26.5 -71.5t-72.5 -26.5q-45 0 -72 26.5t-27 71.5z" />
<glyph unicode="&#x4e5;" horiz-adv-x="934" d="M126 0v1065h153v-632l-13 -156h9l70 174l364 614h100v-1065h-153v614l13 161h-9l-74 -179l-360 -596h-100zM126 0zM215 1349q0 49 24.5 77.5t66.5 28.5q43 0 67.5 -28.5t24.5 -77.5q0 -44 -24.5 -71.5t-67.5 -27.5q-42 0 -66.5 27.5t-24.5 71.5zM554 1349q0 49 24.5 77.5 t66.5 28.5q43 0 67.5 -28.5t24.5 -77.5q0 -44 -24.5 -71.5t-67.5 -27.5q-42 0 -66.5 27.5t-24.5 71.5z" />
<glyph unicode="&#x4e6;" horiz-adv-x="1168" d="M92 0zM92 746q0 379 121.5 574.5t369.5 195.5q135 0 228.5 -54t152 -154.5t86 -243t27.5 -318.5q0 -380 -122 -576t-372 -196q-132 0 -225.5 54.5t-153 154.5t-86 243t-26.5 320zM260 746q0 -126 18 -239t56 -198t100 -136t149 -51q161 0 243.5 153t82.5 471 q0 123 -17.5 236t-56 199.5t-100.5 137.5t-152 51q-158 0 -240.5 -153.5t-82.5 -470.5zM317 1691q0 45 26.5 72.5t73.5 27.5q44 0 71 -27.5t27 -72.5t-27 -71.5t-71 -26.5q-47 0 -73.5 26.5t-26.5 71.5zM653 1691q0 45 27 72.5t72 27.5q46 0 72.5 -27.5t26.5 -72.5 t-26.5 -71.5t-72.5 -26.5q-45 0 -72 26.5t-27 71.5z" />
<glyph unicode="&#x4e7;" horiz-adv-x="919" d="M79 0zM79 532q0 288 99 423.5t282 135.5q195 0 288 -139t93 -420q0 -290 -100 -424t-281 -134q-196 0 -288.5 139t-92.5 419zM199 1349q0 49 24.5 77.5t66.5 28.5q43 0 67.5 -28.5t24.5 -77.5q0 -44 -24.5 -71.5t-67.5 -27.5q-42 0 -66.5 27.5t-24.5 71.5zM238 532 q0 -93 12 -170t38.5 -132t69 -86t102.5 -31q110 0 165.5 99t55.5 320q0 92 -11.5 170t-38 133t-69 86t-102.5 31q-108 0 -165 -100t-57 -320zM538 1349q0 49 24.5 77.5t66.5 28.5q43 0 67.5 -28.5t24.5 -77.5q0 -44 -24.5 -71.5t-67.5 -27.5q-42 0 -66.5 27.5t-24.5 71.5z " />
<glyph unicode="&#x4e8;" horiz-adv-x="1168" d="M92 0zM92 746q0 379 121.5 574.5t369.5 195.5q135 0 228.5 -54t152 -154.5t86 -243t27.5 -318.5q0 -380 -122 -576t-372 -196q-132 0 -225.5 54.5t-153 154.5t-86 243t-26.5 320zM260 685q4 -115 24.5 -217t60 -179.5t97.5 -122t141 -44.5q151 0 234.5 138t91.5 425h-649 zM260 829h649q-6 110 -27.5 208.5t-60.5 171.5t-97.5 117t-140.5 44q-146 0 -229.5 -134.5t-93.5 -406.5z" />
<glyph unicode="&#x4e9;" horiz-adv-x="919" d="M79 0zM79 532q0 279 99 419t282 140q195 0 288 -146t93 -413q0 -282 -99 -420t-282 -138q-196 0 -288.5 146t-92.5 412zM238 467q6 -181 69 -267.5t153 -86.5q40 0 79.5 17t69.5 58.5t49 108.5t23 170h-443zM238 594h443q-10 193 -70 275.5t-151 82.5q-43 0 -81 -18 t-68 -59.5t-49.5 -109.5t-23.5 -171z" />
<glyph unicode="&#x4ea;" horiz-adv-x="1168" d="M92 0zM92 746q0 379 121.5 574.5t369.5 195.5q135 0 228.5 -54t152 -154.5t86 -243t27.5 -318.5q0 -380 -122 -576t-372 -196q-132 0 -225.5 54.5t-153 154.5t-86 243t-26.5 320zM260 685q4 -115 24.5 -217t60 -179.5t97.5 -122t141 -44.5q151 0 234.5 138t91.5 425h-649 zM260 829h649q-6 110 -27.5 208.5t-60.5 171.5t-97.5 117t-140.5 44q-146 0 -229.5 -134.5t-93.5 -406.5zM317 1691q0 45 26.5 72.5t73.5 27.5q44 0 71 -27.5t27 -72.5t-27 -71.5t-71 -26.5q-47 0 -73.5 26.5t-26.5 71.5zM653 1691q0 45 27 72.5t72 27.5q46 0 72.5 -27.5 t26.5 -72.5t-26.5 -71.5t-72.5 -26.5q-45 0 -72 26.5t-27 71.5z" />
<glyph unicode="&#x4eb;" horiz-adv-x="919" d="M79 0zM79 532q0 279 99 419t282 140q195 0 288 -146t93 -413q0 -282 -99 -420t-282 -138q-196 0 -288.5 146t-92.5 412zM197 1349q0 49 24.5 77.5t66.5 28.5q43 0 67.5 -28.5t24.5 -77.5q0 -44 -24.5 -71.5t-67.5 -27.5q-42 0 -66.5 27.5t-24.5 71.5zM238 467 q6 -181 69 -267.5t153 -86.5q40 0 79.5 17t69.5 58.5t49 108.5t23 170h-443zM238 594h443q-10 193 -70 275.5t-151 82.5q-43 0 -81 -18t-68 -59.5t-49.5 -109.5t-23.5 -171zM536 1349q0 49 24.5 77.5t66.5 28.5q43 0 67.5 -28.5t24.5 -77.5q0 -44 -24.5 -71.5t-67.5 -27.5 q-42 0 -66.5 27.5t-24.5 71.5z" />
<glyph unicode="&#x4ec;" horiz-adv-x="990" d="M63 0zM63 1435q60 39 142 60t171 21q118 0 213.5 -41.5t164.5 -133t107 -238t38 -355.5q0 -211 -43 -359.5t-117 -240t-174.5 -133t-217.5 -41.5q-87 0 -158 15t-120 39l44 145q41 -21 106.5 -36t136.5 -15q72 0 139.5 30.5t120.5 97.5t86 174.5t37 263.5h-487v143h487 q-10 270 -113.5 404.5t-265.5 134.5q-81 0 -142.5 -19.5t-107.5 -47.5zM128 1691q0 45 26.5 72.5t73.5 27.5q44 0 71 -27.5t27 -72.5t-27 -71.5t-71 -26.5q-47 0 -73.5 26.5t-26.5 71.5zM464 1691q0 45 27 72.5t72 27.5q46 0 72.5 -27.5t26.5 -72.5t-26.5 -71.5t-72.5 -26.5 q-45 0 -72 26.5t-27 71.5z" />
<glyph unicode="&#x4ed;" horiz-adv-x="791" d="M59 0zM59 26l43 136q40 -24 96 -36.5t107 -12.5q236 0 248 358h-352v132h352q-6 167 -66.5 258t-171.5 91q-69 0 -119.5 -19t-82.5 -43l-54 122q49 36 120 57.5t162 21.5q191 0 281.5 -139t90.5 -420q0 -278 -103.5 -418t-290.5 -140q-164 0 -260 52zM81 1349 q0 49 24.5 77.5t66.5 28.5q43 0 67.5 -28.5t24.5 -77.5q0 -44 -24.5 -71.5t-67.5 -27.5q-42 0 -66.5 27.5t-24.5 71.5zM420 1349q0 49 24.5 77.5t66.5 28.5q43 0 67.5 -28.5t24.5 -77.5q0 -44 -24.5 -71.5t-67.5 -27.5q-42 0 -66.5 27.5t-24.5 71.5z" />
<glyph unicode="&#x4ee;" horiz-adv-x="953" d="M6 0zM6 1491h187l293 -765l40 -189h11l34 196l221 758h165l-305 -969q-47 -149 -82 -251.5t-70.5 -164t-77.5 -89t-105 -27.5q-55 0 -91.5 10t-67.5 34l47 137q34 -24 61.5 -29.5t50.5 -5.5q47 0 79 65t55 185zM232 1663v132h551v-132h-551z" />
<glyph unicode="&#x4ef;" horiz-adv-x="800" d="M15 0zM15 1065h174l201 -689l45 -205h10l32 205l162 689h156l-254 -957q-30 -115 -60 -215t-64.5 -173.5t-78.5 -115t-104 -41.5q-59 0 -104 20l26 145q30 -11 59.5 -4.5t56 36t49 88t39.5 152.5zM158 1242v128h518v-128h-518z" />
<glyph unicode="&#x4f0;" horiz-adv-x="953" d="M6 0zM6 1491h187l293 -765l40 -189h11l34 196l221 758h165l-305 -969q-47 -149 -82 -251.5t-70.5 -164t-77.5 -89t-105 -27.5q-55 0 -91.5 10t-67.5 34l47 137q34 -24 61.5 -29.5t50.5 -5.5q47 0 79 65t55 185zM236 1691q0 45 26.5 72.5t73.5 27.5q44 0 71 -27.5 t27 -72.5t-27 -71.5t-71 -26.5q-47 0 -73.5 26.5t-26.5 71.5zM572 1691q0 45 27 72.5t72 27.5q46 0 72.5 -27.5t26.5 -72.5t-26.5 -71.5t-72.5 -26.5q-45 0 -72 26.5t-27 71.5z" />
<glyph unicode="&#x4f1;" horiz-adv-x="800" d="M15 0zM15 1065h174l201 -689l45 -205h10l32 205l162 689h156l-254 -957q-30 -115 -60 -215t-64.5 -173.5t-78.5 -115t-104 -41.5q-59 0 -104 20l26 145q30 -11 59.5 -4.5t56 36t49 88t39.5 152.5zM160 1349q0 49 24.5 77.5t66.5 28.5q43 0 67.5 -28.5t24.5 -77.5 q0 -44 -24.5 -71.5t-67.5 -27.5q-42 0 -66.5 27.5t-24.5 71.5zM499 1349q0 49 24.5 77.5t66.5 28.5q43 0 67.5 -28.5t24.5 -77.5q0 -44 -24.5 -71.5t-67.5 -27.5q-42 0 -66.5 27.5t-24.5 71.5z" />
<glyph unicode="&#x4f2;" horiz-adv-x="953" d="M6 0zM6 1491h187l293 -765l40 -189h11l34 196l221 758h165l-305 -969q-47 -149 -82 -251.5t-70.5 -164t-77.5 -89t-105 -27.5q-55 0 -91.5 10t-67.5 34l47 137q34 -24 61.5 -29.5t50.5 -5.5q47 0 79 65t55 185zM296 1579l108 232h173v-35l-171 -197h-110zM522 1579 l172 232h183v-35l-245 -197h-110z" />
<glyph unicode="&#x4f3;" horiz-adv-x="800" d="M15 0zM15 1065h174l201 -689l45 -205h10l32 205l162 689h156l-254 -957q-30 -115 -60 -215t-64.5 -173.5t-78.5 -115t-104 -41.5q-59 0 -104 20l26 145q30 -11 59.5 -4.5t56 36t49 88t39.5 152.5zM264 1216l59 275h148v-34l-124 -241h-83zM459 1216l126 275h160v-34 l-196 -241h-90z" />
<glyph unicode="&#x4f4;" horiz-adv-x="1036" d="M118 0zM118 935v556h159v-520q0 -156 53.5 -216t155.5 -60q75 0 144 27.5t112 72.5v696h159v-1491h-159v639q-43 -33 -120 -62.5t-171 -29.5q-68 0 -128.5 17t-106 61t-72 118t-26.5 192zM254 1691q0 45 26.5 72.5t73.5 27.5q44 0 71 -27.5t27 -72.5t-27 -71.5t-71 -26.5 q-47 0 -73.5 26.5t-26.5 71.5zM590 1691q0 45 27 72.5t72 27.5q46 0 72.5 -27.5t26.5 -72.5t-26.5 -71.5t-72.5 -26.5q-45 0 -72 26.5t-27 71.5z" />
<glyph unicode="&#x4f5;" horiz-adv-x="843" d="M77 0zM77 705v360h153v-311q0 -53 5 -95.5t20 -74t43 -47t72 -15.5q75 0 122 19.5t73 41.5v482h153v-1065h-153v447q-26 -19 -80 -41t-146 -22q-61 0 -110.5 15.5t-82.5 52t-51 98.5t-18 155zM136 1349q0 49 24.5 77.5t66.5 28.5q43 0 67.5 -28.5t24.5 -77.5 q0 -44 -24.5 -71.5t-67.5 -27.5q-42 0 -66.5 27.5t-24.5 71.5zM475 1349q0 49 24.5 77.5t66.5 28.5q43 0 67.5 -28.5t24.5 -77.5q0 -44 -24.5 -71.5t-67.5 -27.5q-42 0 -66.5 27.5t-24.5 71.5z" />
<glyph unicode="&#x4f6;" horiz-adv-x="760" d="M136 0v1491h652v-147h-492v-1197h162v-422h-111l-26 275h-185z" />
<glyph unicode="&#x4f7;" horiz-adv-x="630" d="M126 0v1065h506v-138h-353v-789h132v-408h-104l-28 270h-153z" />
<glyph unicode="&#x4f8;" horiz-adv-x="1323" d="M136 0zM136 12v1479h160v-579q19 4 64 11.5t87 7.5q83 0 158.5 -19.5t133.5 -69.5t91.5 -137t33.5 -221q0 -260 -120 -380.5t-335 -120.5q-49 0 -126.5 5.5t-146.5 23.5zM296 145q43 -15 128 -15q128 0 200.5 83t72.5 256q0 94 -21.5 154t-59 96.5t-88.5 50.5t-111 14 q-30 0 -67 -6.5t-54 -13.5v-619zM388 1691q0 45 26.5 72.5t73.5 27.5q44 0 71 -27.5t27 -72.5t-27 -71.5t-71 -26.5q-47 0 -73.5 26.5t-26.5 71.5zM724 1691q0 45 27 72.5t72 27.5q46 0 72.5 -27.5t26.5 -72.5t-26.5 -71.5t-72.5 -26.5q-45 0 -72 26.5t-27 71.5zM1029 0 v1491h160v-1491h-160z" />
<glyph unicode="&#x4f9;" horiz-adv-x="1145" d="M126 0v1065h153v-407q42 9 80.5 12t73.5 3q87 0 146.5 -24.5t94.5 -67t50 -101t15 -124.5q0 -194 -86 -281t-287 -87q-124 0 -240 12zM126 0zM279 138q63 -12 117 -12q102 0 142.5 54t40.5 157q0 96 -39.5 150t-139.5 54q-28 0 -59.5 -3t-61.5 -12v-388zM301 1349 q0 49 24.5 77.5t66.5 28.5q43 0 67.5 -28.5t24.5 -77.5q0 -44 -24.5 -71.5t-67.5 -27.5q-42 0 -66.5 27.5t-24.5 71.5zM640 1349q0 49 24.5 77.5t66.5 28.5q43 0 67.5 -28.5t24.5 -77.5q0 -44 -24.5 -71.5t-67.5 -27.5q-42 0 -66.5 27.5t-24.5 71.5zM867 0v1065h153v-1065 h-153z" />
<glyph unicode="&#x4fc;" horiz-adv-x="1059" d="M41 0l392 758l-358 733h191l232 -505l43 -126l42 126l246 505h177l-372 -718l233 -458q106 -209 106 -381q0 -217 -75 -306.5t-236 -70.5v138q51 0 81 17.5t46 46t20 67t4 78.5q0 106 -26.5 186.5t-60.5 147.5l-147 297l-51 132l-44 -132l-265 -535h-178z" />
<glyph unicode="&#x4fd;" horiz-adv-x="880" d="M41 0l302 545l-282 520h189l152 -294l47 -132l49 132l158 294h173l-286 -512l162 -285q49 -89 77.5 -176.5t28.5 -168.5q0 -205 -80.5 -295t-238.5 -67v138q96 -2 131 45t35 143q0 87 -27.5 164t-61.5 138l-77 134l-53 126l-51 -126l-175 -323h-172z" />
<glyph unicode="&#x510;" horiz-adv-x="951" d="M104 419q0 160 67 251.5t185 117.5v9q-55 20 -96 58.5t-67.5 86.5t-39.5 101.5t-13 106.5q0 98 31.5 167t85.5 114t126.5 65t153.5 20q95 0 178.5 -22t123.5 -53l-44 -136q-47 26 -113 45.5t-129 19.5q-115 0 -179.5 -53.5t-64.5 -180.5q0 -62 19 -109t51 -82.5t73.5 -58 t84.5 -30.5q28 -4 68.5 -6t69.5 -2h30v-139h-87h-37t-36 -2q-126 -10 -199.5 -72t-73.5 -207q0 -150 78 -228t211 -78q72 0 141 22t105 45l49 -130q-45 -30 -126.5 -57.5t-194.5 -27.5q-196 0 -313.5 108.5t-117.5 336.5z" />
<glyph unicode="&#x511;" horiz-adv-x="750" d="M79 298q0 109 41.5 170.5t137.5 94.5v8q-71 30 -109.5 93.5t-38.5 150.5q0 132 78 198.5t210 66.5q100 0 169 -20.5t124 -53.5l-48 -124q-37 24 -87 41.5t-113 17.5q-179 0 -179 -161q0 -34 14 -65.5t37.5 -55t52 -37t58.5 -13.5h117v-130h-96q-115 0 -165 -45.5 t-50 -122.5q0 -81 53.5 -136t157.5 -55q63 0 118 15.5t91 39.5l41 -128q-41 -26 -104 -46t-152 -20q-181 0 -269.5 85t-88.5 232z" />
<glyph unicode="&#x512;" horiz-adv-x="1071" d="M-8 10l25 146q18 -6 38 -6.5t39 10.5t37 34t35 66q24 57 44 154.5t36 246t25.5 353t13.5 477.5h650v-1550q0 -220 -69 -315t-230 -73v138q47 0 75 17t43 54t18 96t3 142v1344h-336q-17 -429 -45 -716t-85 -443q-39 -102 -91 -148.5t-120 -46.5q-64 0 -106 20z" />
<glyph unicode="&#x513;" horiz-adv-x="866" d="M-12 10l22 135q45 -13 80.5 5t61 111t41.5 283.5t22 520.5h527v-1126q0 -196 -59 -290t-187 -92q-12 0 -25 1t-28 3v134q96 -2 120.5 73.5t24.5 229.5v929h-232q-7 -181 -17.5 -350.5t-37 -299.5t-75.5 -207.5t-130 -77.5q-37 0 -62.5 4t-45.5 14z" />
<glyph unicode="&#x51c;" horiz-adv-x="1431" d="M10 1491h173l205 -987l25 -248h4l26 253l238 982h92l239 -985l25 -250h2l30 253l189 982h161l-333 -1515h-98l-236 983l-30 228h-6l-31 -230l-236 -981h-100z" />
<glyph unicode="&#x51d;" horiz-adv-x="1256" d="M10 1065h165l164 -620l25 -207h4l39 211l174 616h114l189 -622l38 -205h5l32 209l144 618h145l-283 -1089h-87l-216 699l-30 179h-4l-30 -181l-208 -697h-87z" />
<glyph unicode="&#x524;" horiz-adv-x="1187" d="M136 0v1491h848v-1344h160v-422h-111l-25 275h-183v1344h-529v-1344h-160z" />
<glyph unicode="&#x525;" horiz-adv-x="953" d="M126 0v1065h664v-927h130v-408h-105l-27 270h-152v927h-357v-927h-153z" />
<glyph unicode="&#x526;" horiz-adv-x="1109" d="M136 0v1491h160v-639q45 30 121.5 60.5t174.5 30.5q75 0 135.5 -19t103.5 -67t66 -126.5t23 -200.5v-383h155v-422h-110l-26 275h-179v502q0 151 -49 223t-158 72q-77 0 -145.5 -26.5t-111.5 -69.5v-701h-160z" />
<glyph unicode="&#x527;" horiz-adv-x="985" d="M126 0v1491h153v-526h6q43 55 105.5 90.5t156.5 35.5q71 0 123 -19.5t86 -66t51.5 -124.5t17.5 -193v-550h127v-408h-104l-28 270h-149v648q0 149 -35 226.5t-140 77.5q-75 0 -135 -53t-82 -135v-764h-153z" />
<glyph unicode="&#x1e30;" horiz-adv-x="1049" d="M136 0v1491h160v-694l74 30l388 664h183l-390 -643l-74 -68l88 -85l431 -695h-201l-423 691h-76v-691h-160zM136 0zM356 1602l198 251h211v-44l-279 -207h-130z" />
<glyph unicode="&#x1e31;" horiz-adv-x="825" d="M126 0v1491h153v-908l70 31l249 451h177l-251 -431l-75 -67l88 -83l274 -484h-185l-268 479h-79v-479h-153zM126 0zM409 1216l100 318h166v-45l-175 -273h-91z" />
<glyph unicode="&#x1e3e;" horiz-adv-x="1356" d="M136 0v1491h134l360 -733l53 -175h5l51 177l341 731h141v-1491h-160v980l19 225h-9l-67 -211l-301 -647h-53l-315 647l-67 211h-8l30 -225v-980h-154zM136 0zM573 1602l198 251h211v-44l-279 -207h-130z" />
<glyph unicode="&#x1e3f;" horiz-adv-x="1386" d="M126 0v1065h108l28 -113h6q45 61 107 100t157 39q82 0 134 -35.5t82 -124.5q38 75 109.5 117.5t156.5 42.5q71 0 121 -18t80.5 -64t45.5 -122t15 -190v-697h-154v677q0 138 -26.5 206.5t-122.5 68.5q-81 0 -128.5 -50t-66.5 -136v-766h-154v632q0 86 -5 146.5t-22.5 99 t-47 56.5t-78.5 18q-73 0 -123 -56.5t-69 -129.5v-766h-153zM126 0zM630 1216l100 318h166v-45l-175 -273h-91z" />
<glyph unicode="&#x1e54;" horiz-adv-x="959" d="M136 0v1476q69 18 145.5 25t151.5 7q85 0 167.5 -19t149.5 -70t109 -140.5t42 -228.5q0 -134 -39 -228t-104 -152t-149.5 -85t-173.5 -27h-28t-40.5 1.5t-41.5 3.5t-29 4v-567h-160zM136 0zM296 713q9 -4 27 -5t37.5 -2t37 -1h26.5q60 0 115 15t97.5 54t69.5 106t27 170 q0 90 -25 149t-64 95.5t-92.5 51.5t-110.5 15q-43 0 -82.5 -3t-62.5 -10v-635zM350 1602l198 251h211v-44l-279 -207h-130z" />
<glyph unicode="&#x1e55;" horiz-adv-x="925" d="M126 0zM126 -426v1491h108l24 -115h8q79 140 248 141q168 0 252 -126t84 -412q0 -134 -27.5 -241t-78.5 -183t-125 -115.5t-163 -39.5q-62 0 -98.5 8t-78.5 30v-438h-153zM279 168q30 -26 67.5 -40.5t98.5 -14.5q113 0 179.5 115t66.5 328q0 90 -12 162t-37.5 124t-65 81 t-97.5 29q-156 0 -200 -190v-594zM394 1216l100 318h166v-45l-175 -273h-91z" />
<glyph unicode="&#x1e9e;" horiz-adv-x="1111" d="M134 0v1069q0 100 17 183t60 142t115 90.5t183 31.5q140 0 245.5 -44.5t180.5 -112.5l-266 -441l-57 -62v-4l55 15q166 -4 255.5 -112.5t89.5 -301.5q0 -229 -102.5 -354t-293.5 -125q-17 0 -47 2.5t-62 7t-61 11.5t-48 20l26 143q15 -10 39.5 -19t51 -13t52 -6t45.5 -2 q113 0 172 88t59 229q0 148 -71 226t-219 78h-95v115l277 451q-34 35 -100 53t-135 18q-73 0 -113 -28.5t-60 -77.5t-25.5 -115t-5.5 -141v-1014h-162z" />
<glyph unicode="&#x2000;" horiz-adv-x="1058" />
<glyph unicode="&#x2001;" horiz-adv-x="2117" />
<glyph unicode="&#x2002;" horiz-adv-x="1058" />
<glyph unicode="&#x2003;" horiz-adv-x="2117" />
<glyph unicode="&#x2004;" horiz-adv-x="705" />
<glyph unicode="&#x2005;" horiz-adv-x="529" />
<glyph unicode="&#x2006;" horiz-adv-x="352" />
<glyph unicode="&#x2007;" horiz-adv-x="352" />
<glyph unicode="&#x2008;" horiz-adv-x="264" />
<glyph unicode="&#x2009;" horiz-adv-x="423" />
<glyph unicode="&#x200a;" horiz-adv-x="117" />
<glyph unicode="&#x2010;" horiz-adv-x="618" d="M100 535v146h420v-146h-420z" />
<glyph unicode="&#x2011;" horiz-adv-x="618" d="M100 535v146h420v-146h-420zM100 535z" />
<glyph unicode="&#x2012;" horiz-adv-x="618" d="M100 535v146h420v-146h-420z" />
<glyph unicode="&#x2013;" horiz-adv-x="1128" d="M198 539v146h733v-146h-733z" />
<glyph unicode="&#x2014;" horiz-adv-x="1409" d="M203 539v146h1004v-146h-1004z" />
<glyph unicode="&#x2018;" horiz-adv-x="344" d="M66 1361q0 71 18 122t43.5 87t52.5 57t46 32l49 -70q-37 -26 -63.5 -68.5t-24.5 -99.5q41 6 65.5 -22.5t24.5 -77.5t-26.5 -78t-69.5 -29q-49 0 -82 36t-33 111z" />
<glyph unicode="&#x2019;" horiz-adv-x="344" d="M66 1404q0 49 28 76.5t70 27.5q51 0 83 -35.5t32 -106.5q0 -69 -17 -120t-41.5 -86.5t-52.5 -57.5t-46 -33l-49 65q36 24 62.5 67t24.5 100q-38 -6 -66 22t-28 81z" />
<glyph unicode="&#x201a;" horiz-adv-x="344" d="M66 0zM66 107q0 49 28 76.5t70 27.5q51 0 83 -35.5t32 -106.5q0 -69 -17 -120t-41.5 -86.5t-52.5 -57.5t-46 -33l-49 65q36 24 62.5 67t24.5 100q-38 -6 -66 22t-28 81z" />
<glyph unicode="&#x201c;" horiz-adv-x="612" d="M66 1214zM66 1361q0 71 18 122t43.5 87t52.5 57t46 32l49 -70q-37 -26 -63.5 -68.5t-24.5 -99.5q41 6 65.5 -22.5t24.5 -77.5t-26.5 -78t-69.5 -29q-49 0 -82 36t-33 111zM334 1361q0 71 18 122t43.5 87t52.5 57t46 32l49 -70q-37 -26 -63.5 -68.5t-24.5 -99.5 q41 6 65.5 -22.5t24.5 -77.5t-26.5 -78t-69.5 -29q-49 0 -82 36t-33 111z" />
<glyph unicode="&#x201d;" horiz-adv-x="612" d="M66 1069zM66 1404q0 49 28 76.5t70 27.5q51 0 83 -35.5t32 -106.5q0 -69 -17 -120t-41.5 -86.5t-52.5 -57.5t-46 -33l-49 65q36 24 62.5 67t24.5 100q-38 -6 -66 22t-28 81zM334 1404q0 49 28 76.5t70 27.5q51 0 83 -35.5t32 -106.5q0 -69 -17 -120t-41.5 -86.5 t-52.5 -57.5t-46 -33l-49 65q36 24 62.5 67t24.5 100q-38 -6 -66 22t-28 81z" />
<glyph unicode="&#x201e;" horiz-adv-x="612" d="M66 0zM66 107q0 49 28 76.5t70 27.5q51 0 83 -35.5t32 -106.5q0 -69 -17 -120t-41.5 -86.5t-52.5 -57.5t-46 -33l-49 65q36 24 62.5 67t24.5 100q-38 -6 -66 22t-28 81zM334 107q0 49 28 76.5t70 27.5q51 0 83 -35.5t32 -106.5q0 -69 -17 -120t-41.5 -86.5t-52.5 -57.5 t-46 -33l-49 65q36 24 62.5 67t24.5 100q-38 -6 -66 22t-28 81z" />
<glyph unicode="&#x2020;" horiz-adv-x="838" d="M69 925v138h218l77 -24l-21 101v351h153v-351l-21 -101l76 24h220v-138h-222l-74 22l21 -91v-856l-27 -426h-101l-25 428v854l21 91l-77 -22h-218z" />
<glyph unicode="&#x2021;" horiz-adv-x="838" d="M69 376v140h218l77 -24l-21 89v277l21 89l-77 -22h-218v138h218l77 -24l-21 99v353h153v-353l-21 -99l76 24h220v-138h-222l-74 22l21 -89v-277l-21 -89l74 24h222v-140h-220l-76 24l21 -97v-303l-27 -426h-99l-27 428v301l21 97l-77 -24h-218z" />
<glyph unicode="&#x2022;" horiz-adv-x="772" d="M145 662q0 135 67 216t176 81q106 0 174 -78t68 -219q0 -140 -68 -218t-174 -78q-108 0 -175.5 78t-67.5 218z" />
<glyph unicode="&#x2026;" horiz-adv-x="1398" d="M130 0zM130 96q0 59 28.5 89t77.5 30t78 -29.5t29 -89.5q0 -62 -29 -92t-78 -30t-77.5 30t-28.5 92zM605 96q0 59 28.5 89t77.5 30t78 -29.5t29 -89.5q0 -62 -29 -92t-78 -30t-77.5 30t-28.5 92zM1082 96q0 59 28.5 89t77.5 30t78 -29.5t29 -89.5q0 -62 -29 -92t-78 -30 t-77.5 30t-28.5 92z" />
<glyph unicode="&#x202f;" horiz-adv-x="423" />
<glyph unicode="&#x2030;" horiz-adv-x="2018" d="M118 0zM118 1154q0 98 20 167t57 113t87 63t108 19q57 0 107 -18t87.5 -59.5t58 -112t20.5 -172.5t-20.5 -172t-58 -111.5t-87.5 -60t-107 -18.5t-107.5 18.5t-87.5 60t-57 111.5t-20 172zM202 38l908 1480l99 -63l-908 -1481zM256 1154q0 -138 37 -191.5t97 -53.5 q30 0 54.5 11t41.5 37.5t26.5 74.5t9.5 122q0 73 -9.5 121t-26.5 75.5t-42 38.5t-54 11q-32 0 -56.5 -11t-41.5 -38.5t-26.5 -75.5t-9.5 -121zM752 364q0 98 20 167t57 113t87 63t108 19q57 0 107 -18t87.5 -59.5t58 -112t20.5 -172.5t-20.5 -172t-58 -111.5t-87.5 -60 t-107 -18.5t-107.5 18.5t-87.5 60t-57 111.5t-20 172zM890 364q0 -138 37 -191.5t97 -53.5q30 0 54.5 11t41.5 37.5t26.5 74.5t9.5 122q0 73 -9.5 121t-26.5 75.5t-42 38.5t-54 11q-32 0 -56.5 -11t-41.5 -38.5t-26.5 -75.5t-9.5 -121zM1383 364q0 98 20 167t57 113t87 63 t108 19q57 0 107 -18t87.5 -59.5t58 -112t20.5 -172.5t-20.5 -172t-58 -111.5t-87.5 -60t-107 -18.5t-107.5 18.5t-87.5 60t-57 111.5t-20 172zM1521 364q0 -138 37 -191.5t97 -53.5q30 0 54.5 11t41.5 37.5t26.5 74.5t9.5 122q0 73 -9.5 121t-26.5 75.5t-42 38.5t-54 11 q-32 0 -56.5 -11t-41.5 -38.5t-26.5 -75.5t-9.5 -121z" />
<glyph unicode="&#x2039;" horiz-adv-x="512" d="M61 551l276 490l106 -70l-175 -330l-81 -88l81 -76l185 -324l-106 -72z" />
<glyph unicode="&#x203a;" horiz-adv-x="514" d="M59 967l109 74l283 -470l-272 -490l-106 70l172 331l83 87l-83 77z" />
<glyph unicode="&#x2044;" horiz-adv-x="317" d="M-303 34l821 1484l104 -57l-818 -1487z" />
<glyph unicode="&#x205f;" horiz-adv-x="529" />
<glyph unicode="&#x2081;" horiz-adv-x="702" d="M96 477l266 220h87v-789h160v-121h-473v121h179v548l13 76l-49 -59l-126 -85z" />
<glyph unicode="&#x2082;" horiz-adv-x="702" d="M94 -145q44 45 103 114t112 148t89.5 162t36.5 158q0 63 -33.5 97.5t-82.5 34.5q-47 0 -90.5 -15t-72.5 -36l-43 110q43 34 105.5 51.5t124.5 17.5q108 0 167 -62t59 -177q0 -69 -18.5 -133.5t-49 -127.5t-72 -124t-86.5 -120l-79 -68v-5l98 33h239v-126h-507v68z" />
<glyph unicode="&#x2083;" horiz-adv-x="702" d="M122 -189l27 118q32 -16 69.5 -25.5t82.5 -9.5q81 0 122 43.5t39 121.5q2 69 -35 111.5t-124 42.5h-94v49l163 254l63 57l-88 -12h-223v120h449v-67l-175 -269l-44 -36v-6l42 6q96 0 150.5 -67t51.5 -183q2 -130 -77.5 -208.5t-207.5 -78.5q-61 0 -108 10.5t-83 28.5z " />
<glyph unicode="&#x2084;" horiz-adv-x="702" d="M51 -8v71l386 640h95v-593h139v-118h-139v-205h-130v205h-351zM187 102l88 8h127v266l15 114h-8l-39 -106l-125 -218z" />
<glyph unicode="&#x20ac;" d="M26 547l33 132h92v67v41.5t2 43.5h-127l33 134h107q21 156 66 258t109 167t142 95.5t165 30.5t149.5 -11.5t111.5 -34.5l-42 -141q-40 19 -91.5 30t-123.5 11q-57 0 -108.5 -21.5t-94 -67t-74.5 -120.5t-49 -196h475l-32 -134h-456q-2 -17 -2 -43v-42v-34t2 -33h422 l-32 -132h-380q31 -224 120 -324.5t230 -100.5q134 0 217 59l37 -128q-51 -43 -128 -61t-156 -18q-196 0 -321.5 134t-159.5 439h-136z" />
<glyph unicode="&#x20b4;" d="M87 543v132h714v-132h-390q-37 -45 -68.5 -120.5t-31.5 -143.5q0 -75 44.5 -120.5t153.5 -45.5q81 0 133.5 16t92.5 44l47 -126q-38 -30 -109.5 -51.5t-193.5 -21.5q-164 0 -246 75t-82 209q0 40 11 84t26 83t31.5 70t28.5 48h-161zM87 827v132h401q42 55 68.5 127.5 t26.5 138.5q0 75 -39.5 114t-132.5 39q-69 0 -114 -17t-86 -40l-51 132q51 30 111.5 46.5t169.5 16.5q296 0 296 -266q0 -81 -28 -158.5t-63 -132.5h155v-132h-714z" />
<glyph unicode="&#x20b6;" d="M61 303v128h126v152h-126v128h126v765q66 18 142 25t150 7q82 0 159.5 -19t137 -70t95.5 -138.5t36 -223.5q0 -135 -37 -225t-99 -146t-142 -79.5t-165 -23.5l-121 -2v-150h283v-128h-283v-303h-156v303h-126zM343 718h121q51 0 101.5 14t90 52.5t64 103t24.5 167.5 q0 87 -20.5 146t-56 96.5t-82 54t-99.5 16.5q-43 0 -81.5 -2.5t-61.5 -8.5v-639z" />
<glyph unicode="&#x20b7;" d="M61 0zM61 303v128h126v152h-126v128h126v765q66 18 142 25t150 7q82 0 159.5 -19t137 -70t95.5 -138.5t36 -223.5q0 -135 -37 -225t-99 -146t-142 -79.5t-165 -23.5l-121 -2v-150h283v-128h-283v-303h-156v303h-126zM343 718h121q51 0 101.5 14t90 52.5t64 103 t24.5 167.5q0 87 -20.5 146t-56 96.5t-82 54t-99.5 16.5q-43 0 -81.5 -2.5t-61.5 -8.5v-639z" />
<glyph unicode="&#x20b9;" d="M61 0zM61 303v128h126v152h-126v128h126v765q66 18 142 25t150 7q82 0 159.5 -19t137 -70t95.5 -138.5t36 -223.5q0 -135 -37 -225t-99 -146t-142 -79.5t-165 -23.5l-121 -2v-150h283v-128h-283v-303h-156v303h-126zM343 718h121q51 0 101.5 14t90 52.5t64 103 t24.5 167.5q0 87 -20.5 146t-56 96.5t-82 54t-99.5 16.5q-43 0 -81.5 -2.5t-61.5 -8.5v-639z" />
<glyph unicode="&#x20ba;" d="M61 0zM61 303v128h126v152h-126v128h126v765q66 18 142 25t150 7q82 0 159.5 -19t137 -70t95.5 -138.5t36 -223.5q0 -135 -37 -225t-99 -146t-142 -79.5t-165 -23.5l-121 -2v-150h283v-128h-283v-303h-156v303h-126zM343 718h121q51 0 101.5 14t90 52.5t64 103 t24.5 167.5q0 87 -20.5 146t-56 96.5t-82 54t-99.5 16.5q-43 0 -81.5 -2.5t-61.5 -8.5v-639z" />
<glyph unicode="&#x20bb;" d="M61 0zM61 303v128h126v152h-126v128h126v765q66 18 142 25t150 7q82 0 159.5 -19t137 -70t95.5 -138.5t36 -223.5q0 -135 -37 -225t-99 -146t-142 -79.5t-165 -23.5l-121 -2v-150h283v-128h-283v-303h-156v303h-126zM343 718h121q51 0 101.5 14t90 52.5t64 103 t24.5 167.5q0 87 -20.5 146t-56 96.5t-82 54t-99.5 16.5q-43 0 -81.5 -2.5t-61.5 -8.5v-639z" />
<glyph unicode="&#x20bc;" d="M61 0zM61 303v128h126v152h-126v128h126v765q66 18 142 25t150 7q82 0 159.5 -19t137 -70t95.5 -138.5t36 -223.5q0 -135 -37 -225t-99 -146t-142 -79.5t-165 -23.5l-121 -2v-150h283v-128h-283v-303h-156v303h-126zM343 718h121q51 0 101.5 14t90 52.5t64 103 t24.5 167.5q0 87 -20.5 146t-56 96.5t-82 54t-99.5 16.5q-43 0 -81.5 -2.5t-61.5 -8.5v-639z" />
<glyph unicode="&#x20bd;" d="M61 0zM61 303v128h126v152h-126v128h126v765q66 18 142 25t150 7q82 0 159.5 -19t137 -70t95.5 -138.5t36 -223.5q0 -135 -37 -225t-99 -146t-142 -79.5t-165 -23.5l-121 -2v-150h283v-128h-283v-303h-156v303h-126zM343 718h121q51 0 101.5 14t90 52.5t64 103 t24.5 167.5q0 87 -20.5 146t-56 96.5t-82 54t-99.5 16.5q-43 0 -81.5 -2.5t-61.5 -8.5v-639z" />
<glyph unicode="&#x20be;" d="M61 0zM61 303v128h126v152h-126v128h126v765q66 18 142 25t150 7q82 0 159.5 -19t137 -70t95.5 -138.5t36 -223.5q0 -135 -37 -225t-99 -146t-142 -79.5t-165 -23.5l-121 -2v-150h283v-128h-283v-303h-156v303h-126zM343 718h121q51 0 101.5 14t90 52.5t64 103 t24.5 167.5q0 87 -20.5 146t-56 96.5t-82 54t-99.5 16.5q-43 0 -81.5 -2.5t-61.5 -8.5v-639z" />
<glyph unicode="&#x20bf;" d="M61 0zM61 303v128h126v152h-126v128h126v765q66 18 142 25t150 7q82 0 159.5 -19t137 -70t95.5 -138.5t36 -223.5q0 -135 -37 -225t-99 -146t-142 -79.5t-165 -23.5l-121 -2v-150h283v-128h-283v-303h-156v303h-126zM343 718h121q51 0 101.5 14t90 52.5t64 103 t24.5 167.5q0 87 -20.5 146t-56 96.5t-82 54t-99.5 16.5q-43 0 -81.5 -2.5t-61.5 -8.5v-639z" />
<glyph unicode="&#x20c0;" d="M61 0zM61 303v128h126v152h-126v128h126v765q66 18 142 25t150 7q82 0 159.5 -19t137 -70t95.5 -138.5t36 -223.5q0 -135 -37 -225t-99 -146t-142 -79.5t-165 -23.5l-121 -2v-150h283v-128h-283v-303h-156v303h-126zM343 718h121q51 0 101.5 14t90 52.5t64 103 t24.5 167.5q0 87 -20.5 146t-56 96.5t-82 54t-99.5 16.5q-43 0 -81.5 -2.5t-61.5 -8.5v-639z" />
<glyph unicode="&#x20c1;" d="M61 0zM61 303v128h126v152h-126v128h126v765q66 18 142 25t150 7q82 0 159.5 -19t137 -70t95.5 -138.5t36 -223.5q0 -135 -37 -225t-99 -146t-142 -79.5t-165 -23.5l-121 -2v-150h283v-128h-283v-303h-156v303h-126zM343 718h121q51 0 101.5 14t90 52.5t64 103 t24.5 167.5q0 87 -20.5 146t-56 96.5t-82 54t-99.5 16.5q-43 0 -81.5 -2.5t-61.5 -8.5v-639z" />
<glyph unicode="&#x20c2;" d="M61 0zM61 303v128h126v152h-126v128h126v765q66 18 142 25t150 7q82 0 159.5 -19t137 -70t95.5 -138.5t36 -223.5q0 -135 -37 -225t-99 -146t-142 -79.5t-165 -23.5l-121 -2v-150h283v-128h-283v-303h-156v303h-126zM343 718h121q51 0 101.5 14t90 52.5t64 103 t24.5 167.5q0 87 -20.5 146t-56 96.5t-82 54t-99.5 16.5q-43 0 -81.5 -2.5t-61.5 -8.5v-639z" />
<glyph unicode="&#x20c3;" d="M61 0zM61 303v128h126v152h-126v128h126v765q66 18 142 25t150 7q82 0 159.5 -19t137 -70t95.5 -138.5t36 -223.5q0 -135 -37 -225t-99 -146t-142 -79.5t-165 -23.5l-121 -2v-150h283v-128h-283v-303h-156v303h-126zM343 718h121q51 0 101.5 14t90 52.5t64 103 t24.5 167.5q0 87 -20.5 146t-56 96.5t-82 54t-99.5 16.5q-43 0 -81.5 -2.5t-61.5 -8.5v-639z" />
<glyph unicode="&#x20c4;" d="M61 0zM61 303v128h126v152h-126v128h126v765q66 18 142 25t150 7q82 0 159.5 -19t137 -70t95.5 -138.5t36 -223.5q0 -135 -37 -225t-99 -146t-142 -79.5t-165 -23.5l-121 -2v-150h283v-128h-283v-303h-156v303h-126zM343 718h121q51 0 101.5 14t90 52.5t64 103 t24.5 167.5q0 87 -20.5 146t-56 96.5t-82 54t-99.5 16.5q-43 0 -81.5 -2.5t-61.5 -8.5v-639z" />
<glyph unicode="&#x20c5;" d="M61 0zM61 303v128h126v152h-126v128h126v765q66 18 142 25t150 7q82 0 159.5 -19t137 -70t95.5 -138.5t36 -223.5q0 -135 -37 -225t-99 -146t-142 -79.5t-165 -23.5l-121 -2v-150h283v-128h-283v-303h-156v303h-126zM343 718h121q51 0 101.5 14t90 52.5t64 103 t24.5 167.5q0 87 -20.5 146t-56 96.5t-82 54t-99.5 16.5q-43 0 -81.5 -2.5t-61.5 -8.5v-639z" />
<glyph unicode="&#x20c6;" d="M61 0zM61 303v128h126v152h-126v128h126v765q66 18 142 25t150 7q82 0 159.5 -19t137 -70t95.5 -138.5t36 -223.5q0 -135 -37 -225t-99 -146t-142 -79.5t-165 -23.5l-121 -2v-150h283v-128h-283v-303h-156v303h-126zM343 718h121q51 0 101.5 14t90 52.5t64 103 t24.5 167.5q0 87 -20.5 146t-56 96.5t-82 54t-99.5 16.5q-43 0 -81.5 -2.5t-61.5 -8.5v-639z" />
<glyph unicode="&#x20c7;" d="M61 0zM61 303v128h126v152h-126v128h126v765q66 18 142 25t150 7q82 0 159.5 -19t137 -70t95.5 -138.5t36 -223.5q0 -135 -37 -225t-99 -146t-142 -79.5t-165 -23.5l-121 -2v-150h283v-128h-283v-303h-156v303h-126zM343 718h121q51 0 101.5 14t90 52.5t64 103 t24.5 167.5q0 87 -20.5 146t-56 96.5t-82 54t-99.5 16.5q-43 0 -81.5 -2.5t-61.5 -8.5v-639z" />
<glyph unicode="&#x20c8;" d="M61 0zM61 303v128h126v152h-126v128h126v765q66 18 142 25t150 7q82 0 159.5 -19t137 -70t95.5 -138.5t36 -223.5q0 -135 -37 -225t-99 -146t-142 -79.5t-165 -23.5l-121 -2v-150h283v-128h-283v-303h-156v303h-126zM343 718h121q51 0 101.5 14t90 52.5t64 103 t24.5 167.5q0 87 -20.5 146t-56 96.5t-82 54t-99.5 16.5q-43 0 -81.5 -2.5t-61.5 -8.5v-639z" />
<glyph unicode="&#x20c9;" d="M61 0zM61 303v128h126v152h-126v128h126v765q66 18 142 25t150 7q82 0 159.5 -19t137 -70t95.5 -138.5t36 -223.5q0 -135 -37 -225t-99 -146t-142 -79.5t-165 -23.5l-121 -2v-150h283v-128h-283v-303h-156v303h-126zM343 718h121q51 0 101.5 14t90 52.5t64 103 t24.5 167.5q0 87 -20.5 146t-56 96.5t-82 54t-99.5 16.5q-43 0 -81.5 -2.5t-61.5 -8.5v-639z" />
<glyph unicode="&#x20ca;" d="M61 0zM61 303v128h126v152h-126v128h126v765q66 18 142 25t150 7q82 0 159.5 -19t137 -70t95.5 -138.5t36 -223.5q0 -135 -37 -225t-99 -146t-142 -79.5t-165 -23.5l-121 -2v-150h283v-128h-283v-303h-156v303h-126zM343 718h121q51 0 101.5 14t90 52.5t64 103 t24.5 167.5q0 87 -20.5 146t-56 96.5t-82 54t-99.5 16.5q-43 0 -81.5 -2.5t-61.5 -8.5v-639z" />
<glyph unicode="&#x20cb;" d="M61 0zM61 303v128h126v152h-126v128h126v765q66 18 142 25t150 7q82 0 159.5 -19t137 -70t95.5 -138.5t36 -223.5q0 -135 -37 -225t-99 -146t-142 -79.5t-165 -23.5l-121 -2v-150h283v-128h-283v-303h-156v303h-126zM343 718h121q51 0 101.5 14t90 52.5t64 103 t24.5 167.5q0 87 -20.5 146t-56 96.5t-82 54t-99.5 16.5q-43 0 -81.5 -2.5t-61.5 -8.5v-639z" />
<glyph unicode="&#x20cc;" d="M61 0zM61 303v128h126v152h-126v128h126v765q66 18 142 25t150 7q82 0 159.5 -19t137 -70t95.5 -138.5t36 -223.5q0 -135 -37 -225t-99 -146t-142 -79.5t-165 -23.5l-121 -2v-150h283v-128h-283v-303h-156v303h-126zM343 718h121q51 0 101.5 14t90 52.5t64 103 t24.5 167.5q0 87 -20.5 146t-56 96.5t-82 54t-99.5 16.5q-43 0 -81.5 -2.5t-61.5 -8.5v-639z" />
<glyph unicode="&#x20cd;" d="M61 0zM61 303v128h126v152h-126v128h126v765q66 18 142 25t150 7q82 0 159.5 -19t137 -70t95.5 -138.5t36 -223.5q0 -135 -37 -225t-99 -146t-142 -79.5t-165 -23.5l-121 -2v-150h283v-128h-283v-303h-156v303h-126zM343 718h121q51 0 101.5 14t90 52.5t64 103 t24.5 167.5q0 87 -20.5 146t-56 96.5t-82 54t-99.5 16.5q-43 0 -81.5 -2.5t-61.5 -8.5v-639z" />
<glyph unicode="&#x20ce;" d="M61 0zM61 303v128h126v152h-126v128h126v765q66 18 142 25t150 7q82 0 159.5 -19t137 -70t95.5 -138.5t36 -223.5q0 -135 -37 -225t-99 -146t-142 -79.5t-165 -23.5l-121 -2v-150h283v-128h-283v-303h-156v303h-126zM343 718h121q51 0 101.5 14t90 52.5t64 103 t24.5 167.5q0 87 -20.5 146t-56 96.5t-82 54t-99.5 16.5q-43 0 -81.5 -2.5t-61.5 -8.5v-639z" />
<glyph unicode="&#x20cf;" d="M61 0zM61 303v128h126v152h-126v128h126v765q66 18 142 25t150 7q82 0 159.5 -19t137 -70t95.5 -138.5t36 -223.5q0 -135 -37 -225t-99 -146t-142 -79.5t-165 -23.5l-121 -2v-150h283v-128h-283v-303h-156v303h-126zM343 718h121q51 0 101.5 14t90 52.5t64 103 t24.5 167.5q0 87 -20.5 146t-56 96.5t-82 54t-99.5 16.5q-43 0 -81.5 -2.5t-61.5 -8.5v-639z" />
<glyph unicode="&#x2113;" horiz-adv-x="1064" d="M156 464l181 158v541q0 93 21.5 160t58 110t86.5 63t109 20q101 0 167.5 -63t66.5 -190q0 -159 -85.5 -335t-278.5 -363v-299q0 -93 35.5 -128.5t87.5 -35.5q53 0 117 22.5t107 46.5l35 -108q-47 -30 -122 -59.5t-150 -29.5q-134 0 -194.5 65t-60.5 203v222l-107 -94z M482 735q119 139 173 267t54 250q0 73 -29.5 104.5t-67.5 31.5q-26 0 -49.5 -7t-42 -29.5t-28.5 -62t-10 -102.5v-452z" />
<glyph unicode="&#x2116;" horiz-adv-x="1756" d="M134 0v1514h96l526 -973l90 -234h8l-27 223v961h153v-1515h-96l-524 976l-90 245h-8l25 -234v-963h-153zM1108 1154q0 98 20 167t57.5 113t87.5 63t105 19q57 0 107.5 -18t87.5 -59.5t57 -112t20 -172.5t-20 -172t-57 -111.5t-87.5 -60t-107.5 -18.5q-55 0 -105 18.5 t-87.5 60t-57.5 111.5t-20 172zM1140 522v143h490v-143h-490zM1246 1154q0 -138 37.5 -191.5t94.5 -53.5q30 0 54.5 11t42.5 37.5t27.5 74.5t9.5 122q0 73 -9.5 121t-27.5 75.5t-42.5 38.5t-54.5 11t-54.5 -11t-41 -38.5t-26.5 -75.5t-10 -121z" />
<glyph unicode="&#x2122;" horiz-adv-x="1556" d="M75 1352v139h604v-139h-226v-628h-152v628h-226zM746 724v767h150l175 -355l47 -124l51 128l160 351h153v-767h-142v356l21 219h-9l-66 -181l-142 -298h-73l-144 296l-63 183h-8l28 -217v-358h-138z" />
<glyph unicode="&#x212e;" horiz-adv-x="1277" d="M94 551q0 126 39.5 233.5t111.5 186.5t173.5 124t224.5 45q132 0 233.5 -47t171.5 -127t106.5 -186.5t40.5 -228.5h-860v-385q132 -125 308 -125q264 0 412 255l73 -44q-91 -141 -210 -214.5t-275 -73.5q-126 0 -228 45.5t-173 124.5t-109.5 186.5t-38.5 230.5zM335 628 h620v309q-134 128 -314 128q-183 0 -306 -128v-309z" />
<glyph unicode="&#x2202;" horiz-adv-x="885" d="M41 392q0 138 28.5 264t86 221.5t142.5 152t198 56.5q69 0 104.5 -14.5t66.5 -42.5h8q-6 104 -43.5 174.5t-92.5 112t-121 56t-131 10.5l28 134q120 2 215.5 -28.5t163.5 -106.5t104.5 -200t36.5 -312q0 -236 -34.5 -405.5t-94.5 -278t-143.5 -160t-182.5 -51.5 q-167 0 -253 108.5t-86 309.5zM201 380q0 -51 10.5 -99.5t33.5 -85.5t59.5 -59.5t87.5 -22.5q83 0 137 68.5t86.5 177t46 241.5t13.5 262q-32 41 -73 63t-110 22q-59 0 -112.5 -37.5t-92.5 -111.5t-62.5 -179t-23.5 -239z" />
<glyph unicode="&#x220f;" horiz-adv-x="1151" d="M136 -426v1917h880v-1917h-160v1770h-560v-1770h-160z" />
<glyph unicode="&#x2211;" horiz-adv-x="882" d="M34 -279l377 748l60 63l-62 69l-375 743v147h789v-147h-644l75 -76l358 -723l-374 -748l-67 -76h652v-147h-789v147z" />
<glyph unicode="&#x2212;" horiz-adv-x="882" d="M75 652v143h732v-143h-732z" />
<glyph unicode="&#x2215;" horiz-adv-x="882" d="M-20 34l821 1484l104 -57l-818 -1487zM0 0z" />
<glyph unicode="&#x221a;" horiz-adv-x="882" d="M-12 811v139h306l149 -448l43 -278h4l32 282l247 985h143l-388 -1515h-68l-273 835h-195z" />
<glyph unicode="&#x221e;" horiz-adv-x="1479" d="M89 737q0 192 85.5 301.5t225.5 109.5q124 0 210.5 -68t139.5 -173q75 130 165.5 185.5t194.5 55.5q126 0 203 -102.5t77 -285.5q0 -195 -86 -304t-227 -109q-61 0 -113 21.5t-94.5 57.5t-78 83t-61.5 100q-61 -125 -150.5 -193.5t-191.5 -68.5q-61 0 -116 26.5 t-95.5 77.5t-64 124t-23.5 162zM238 744q0 -53 12 -100.5t35.5 -82.5t57 -55t76.5 -20q39 0 74 21t68 54t62 75.5t52 87.5q-24 59 -52.5 111.5t-61.5 91t-73.5 61t-85.5 22.5q-36 0 -65.5 -21.5t-52 -59t-34.5 -85t-12 -100.5zM807 790q21 -57 49 -111.5t63.5 -98t75.5 -69 t85 -25.5q70 0 116 75t46 195q0 47 -9.5 92.5t-28.5 81t-51.5 58t-77.5 22.5q-70 0 -139 -59t-129 -161z" />
<glyph unicode="&#x222b;" horiz-adv-x="604" d="M-81 -400l40 130q77 -35 151 -35q69 0 92.5 51t23.5 179v1272q0 166 56.5 242.5t184.5 76.5q59 0 114 -11.5t98 -30.5l-40 -128q-37 16 -73 24t-78 8q-64 0 -86 -50t-22 -176v-1276q0 -166 -60 -242.5t-184 -76.5q-63 0 -120 12t-97 31z" />
<glyph unicode="&#x2248;" horiz-adv-x="882" d="M49 445zM49 592q77 70 139 97.5t115 27.5q49 0 91.5 -18t81 -38.5t75.5 -38t75 -17.5q30 0 64 14.5t70 55.5l73 -128q-69 -57 -122 -79.5t-97 -22.5q-47 0 -86.5 18t-77 40.5t-74.5 40.5t-78 18q-38 0 -81.5 -21t-96.5 -75zM49 946q77 70 139 97.5t115 27.5 q49 0 91.5 -18t81 -38.5t75.5 -38t75 -17.5q30 0 64 14.5t70 55.5l73 -128q-69 -57 -122 -79.5t-97 -22.5q-47 0 -86.5 18t-77 40.5t-74.5 40.5t-78 18q-38 0 -81.5 -21t-96.5 -75z" />
<glyph unicode="&#x2260;" horiz-adv-x="876" d="M71 475v143h259l75 211h-334v142h385l105 295h140l-107 -295h209v-142h-260l-76 -211h336v-143h-388l-119 -335h-136l119 335h-208z" />
<glyph unicode="&#x2264;" horiz-adv-x="882" d="M69 907v62l638 476l83 -116l-406 -309l-158 -81l156 -67l417 -307l-81 -116zM98 492l81 117l620 -434l-81 -118z" />
<glyph unicode="&#x2265;" horiz-adv-x="882" d="M71 1329l80 116l650 -459v-61l-639 -476l-83 116l407 309l157 81l-155 67zM89 173l620 441l83 -116l-617 -441z" />
<glyph unicode="&#x25ca;" horiz-adv-x="882" d="M61 728l341 786h71l347 -775l-347 -763h-71zM217 752l181 -407l49 -194h2l47 198l169 369l-181 408l-47 193h-4l-47 -197z" />
<glyph unicode="&#x25fc;" horiz-adv-x="1064" d="M0 0v1065h1065v-1065h-1065z" />
<glyph unicode="&#x2c67;" horiz-adv-x="1209" d="M136 0v1491h160v-656h550v656h160v-1344h157v-422h-111l-26 275h-180v688h-550v-688h-160z" />
<glyph unicode="&#x2c68;" horiz-adv-x="994" d="M126 0v1491h153v-526h6q43 55 105.5 90.5t156.5 35.5q71 0 123 -19.5t86 -66t51.5 -124.5t17.5 -193v-550h127v-408h-104l-28 270h-149v648q0 149 -35 226.5t-140 77.5q-75 0 -135 -53t-82 -135v-764h-153z" />
<glyph unicode="&#xf401;" horiz-adv-x="4" d="M-839 1602l198 251h211v-44l-279 -207h-130zM-431 1602z" />
<glyph unicode="&#xf406;" horiz-adv-x="862" d="M128 1813l81 42q30 -72 89.5 -117t140.5 -45q83 0 137 48t82 114l77 -34q-32 -134 -116 -200t-182 -66q-92 0 -180.5 62t-128.5 196z" />
<glyph unicode="&#xf407;" horiz-adv-x="557" d="M128 0zM128 -435l12 103q82 -12 114.5 3.5t32.5 58.5q0 59 -147 79l86 191h106l-40 -92q139 -32 139 -160q0 -49 -21.5 -89.5t-62 -66t-96 -32.5t-123.5 5z" />
<glyph unicode="&#xf408;" horiz-adv-x="807" d="M128 1591v47l228 215h106l217 -217v-45h-140l-100 104l-32 75l-33 -73l-110 -106h-136z" />
<glyph unicode="&#xf409;" horiz-adv-x="465" d="M130 -118zM130 -217q0 44 27.5 71.5t66.5 27.5q46 0 80.5 -35.5t34.5 -123.5q0 -55 -16 -96.5t-38.5 -72.5t-47 -49.5t-44.5 -26.5l-57 58q37 28 61.5 67t21.5 90q-36 -4 -62.5 19.5t-26.5 70.5z" />
<glyph unicode="&#xf40a;" horiz-adv-x="344" d="M66 1069zM66 1404q0 49 28 76.5t70 27.5q51 0 83 -35.5t32 -106.5q0 -69 -17 -120t-41.5 -86.5t-52.5 -57.5t-46 -33l-49 65q36 24 62.5 67t24.5 100q-38 -6 -66 22t-28 81z" />
<glyph unicode="&#xf40b;" horiz-adv-x="486" d="M128 1697q0 45 29.5 78.5t84.5 33.5t86.5 -33.5t31.5 -78.5q0 -49 -31 -80.5t-87 -31.5q-55 0 -84.5 31.5t-29.5 80.5z" />
<glyph unicode="&#xf40c;" horiz-adv-x="638" d="M128 1636q0 79 44.5 130t146.5 51q92 0 142.5 -46t50.5 -135q0 -77 -48.5 -127t-144.5 -50q-95 0 -143 48t-48 129zM242 1636q0 -39 18.5 -63t58.5 -24q77 0 77 87q0 91 -77 91t-77 -91z" />
<glyph unicode="&#xf40d;" horiz-adv-x="840" d="M128 1661q59 73 109 99.5t95 26.5q34 0 65 -10.5t60 -22.5t55.5 -22.5t54.5 -10.5q24 0 45.5 8.5t45.5 34.5l55 -79q-51 -59 -95.5 -80.5t-82.5 -21.5q-33 0 -62.5 10.5t-58 22.5t-56.5 22t-57 10q-31 0 -59.5 -12.5t-62.5 -48.5z" />
<glyph unicode="&#xf40e;" horiz-adv-x="591" d="M128 0zM128 -232q0 92 52 154.5t133 98.5h102q-61 -35 -97.5 -87t-36.5 -119q2 -61 42.5 -94.5t119.5 -1.5l21 -85q-24 -24 -67 -36.5t-84 -12.5q-85 0 -135 51t-50 132z" />
<glyph unicode="&#xf486;" horiz-adv-x="1002" d="M136 0zM136 10v1468q64 12 150 21t187 9q73 0 145.5 -14t129.5 -52t92.5 -107t35.5 -183q0 -55 -13 -110.5t-40.5 -104.5t-69.5 -87.5t-101 -57.5v-8q51 -10 98 -35t83 -69t57.5 -106t21.5 -150q0 -115 -36.5 -199.5t-99.5 -137.5t-145 -78.5t-173 -25.5h-70t-83.5 3.5 t-88 8.5t-80.5 15zM296 145q13 -5 33 -7t44.5 -4t50.5 -3t47 -1q57 0 106 18t86.5 54t59 88.5t21.5 122.5q0 87 -26.5 141.5t-69.5 84.5t-97.5 41t-111.5 11h-143v-546zM296 829h88q30 0 68 2t64 6q79 32 135 103.5t56 175.5q0 71 -19 118.5t-52 75t-77.5 39.5t-94.5 12 q-55 0 -100 -3t-68 -8v-521zM326 1602l198 251h211v-44l-279 -207h-130z" />
<glyph unicode="&#xf487;" horiz-adv-x="923" d="M126 0zM126 55v1436h153v-507h6q87 106 233 107q164 0 246 -130t82 -412q0 -287 -110 -427.5t-310 -140.5q-97 0 -178.5 22.5t-121.5 51.5zM279 156q30 -17 73.5 -26.5t92.5 -9.5q110 0 175 105t65 324q0 92 -11.5 165.5t-35.5 126.5t-63.5 82t-95.5 29q-77 0 -126.5 -46 t-73.5 -124v-626zM433 1216l100 318h166v-45l-175 -273h-91z" />
<glyph unicode="&#xf488;" horiz-adv-x="878" d="M136 0v1491h663v-147h-503v-527h468v-146h-468v-671h-160zM136 0zM324 1602l198 251h211v-44l-279 -207h-130z" />
<glyph unicode="&#xf489;" horiz-adv-x="547" d="M34 0zM34 927v138h130v59q0 201 57.5 290.5t195.5 89.5q55 0 100.5 -6.5t91.5 -27.5l-38 -133q-39 17 -71.5 23t-62.5 6q-43 0 -66.5 -17.5t-35.5 -54t-15 -92.5t-3 -137h222v-138h-222v-927h-153v927h-130zM299 1602l198 251h211v-44l-279 -207h-130z" />
<glyph unicode="&#xf49e;" horiz-adv-x="1043" d="M-4 1118v132h146v241h161v-241h376v-132h-376v-266q44 30 120.5 60.5t174.5 30.5q75 0 136 -19t103.5 -67t66 -126.5t23.5 -200.5v-530h-161v502q0 151 -48.5 223t-156.5 72q-77 0 -146.5 -26.5t-111.5 -69.5v-701h-161v1118h-146z" />
<glyph unicode="&#xf49f;" horiz-adv-x="939" d="M-8 1223v123h136v145h153v-145h275v-123h-275v-258h6q43 55 106 90.5t156 35.5q71 0 123 -19.5t86 -66t51.5 -124.5t17.5 -193v-688h-154v648q0 149 -35 226.5t-140 77.5q-75 0 -135 -53t-82 -135v-764h-153v1223h-136zM0 0z" />
<glyph unicode="&#xf4c6;" horiz-adv-x="1036" d="M118 935v556h159v-520q0 -156 53.5 -216t155.5 -60q75 0 144 27.5t112 72.5v696h159v-1550q0 -220 -72.5 -315t-232.5 -73v138q49 0 78 19.5t44 58t19.5 96.5t4.5 135v639q-43 -33 -120 -62.5t-171 -29.5q-68 0 -128.5 17t-106 61t-72 118t-26.5 192z" />
<glyph unicode="&#xf4c7;" horiz-adv-x="843" d="M77 705v360h153v-311q0 -53 5 -95.5t20 -74t43 -47t72 -15.5q75 0 122 19.5t73 41.5v482h153v-1126q0 -196 -58.5 -290t-186.5 -92q-12 0 -25 1t-29 3v134q96 -2 121 73.5t25 231.5v447q-26 -19 -80 -41t-146 -22q-61 0 -110.5 15.5t-82.5 52t-51 98.5t-18 155z" />
<glyph unicode="&#xf4cc;" horiz-adv-x="953" d="M6 0zM6 1491h187l293 -765l40 -189h11l34 196l221 758h165l-305 -969q-47 -149 -82 -251.5t-70.5 -164t-77.5 -89t-105 -27.5q-55 0 -91.5 10t-67.5 34l47 137q34 -24 61.5 -29.5t50.5 -5.5q47 0 79 65t55 185zM350 1602l198 251h211v-44l-279 -207h-130z" />
<glyph unicode="&#xf4cd;" horiz-adv-x="800" d="M15 0zM15 1065h174l201 -689l45 -205h10l32 205l162 689h156l-254 -957q-30 -115 -60 -215t-64.5 -173.5t-78.5 -115t-104 -41.5q-59 0 -104 20l26 145q30 -11 59.5 -4.5t56 36t49 88t39.5 152.5zM352 1216l100 318h166v-45l-175 -273h-91z" />
<glyph unicode="&#xf4d6;" horiz-adv-x="990" d="M63 0zM63 1435q60 39 142 60t171 21q118 0 213.5 -41.5t164.5 -133t107 -238t38 -355.5q0 -211 -43 -359.5t-117 -240t-174.5 -133t-217.5 -41.5q-87 0 -158 15t-120 39l44 145q41 -21 106.5 -36t136.5 -15q72 0 139.5 30.5t120.5 97.5t86 174.5t37 263.5h-487v143h487 q-10 270 -113.5 404.5t-265.5 134.5q-81 0 -142.5 -19.5t-107.5 -47.5zM277 1697q0 45 29.5 78.5t84.5 33.5t86.5 -33.5t31.5 -78.5q0 -49 -31 -80.5t-87 -31.5q-55 0 -84.5 31.5t-29.5 80.5z" />
<glyph unicode="&#xf4d7;" horiz-adv-x="791" d="M59 0zM59 26l43 136q40 -24 96 -36.5t107 -12.5q236 0 248 358h-352v132h352q-6 167 -66.5 258t-171.5 91q-69 0 -119.5 -19t-82.5 -43l-54 122q49 36 120 57.5t162 21.5q191 0 281.5 -139t90.5 -420q0 -278 -103.5 -418t-290.5 -140q-164 0 -260 52zM224 1388 q0 51 28.5 83.5t75.5 32.5t78 -31.5t31 -84.5q0 -51 -31 -79.5t-78 -28.5t-75.5 30t-28.5 78z" />
<glyph unicode="&#xf50a;" horiz-adv-x="923" d="M66 30l42 145q43 -24 111 -38.5t167 -14.5q57 0 108 20t89.5 58t61 97t22.5 136q0 138 -73.5 201t-197.5 73q-21 2 -37 2h-40h-87v139h38q33 0 79.5 2t74.5 8q86 21 146 88.5t60 169.5q0 140 -68 197t-172 57q-83 0 -147 -16.5t-105 -38.5l-42 132q38 24 126.5 46.5 t199.5 22.5q73 0 140.5 -17t120 -58t84.5 -113t32 -178q0 -108 -54 -203t-168 -142v-8q120 -24 189 -114.5t69 -243.5q0 -108 -30 -191.5t-81 -140t-120 -89.5t-148 -42l-25 -358h-101l-32 356q-79 4 -135.5 19t-96.5 37z" />
<glyph unicode="&#xf50b;" horiz-adv-x="746" d="M55 0zM55 41l41 132q40 -26 92 -37.5t113 -11.5q209 0 208 187q0 77 -49 121.5t-164 44.5h-91v132h112q30 0 59 13.5t51 37t36 55t14 65.5q0 83 -43.5 121t-132.5 38q-66 0 -117.5 -19t-81.5 -40l-45 122q53 34 125 54.5t163 20.5q141 0 216 -65t75 -195 q0 -81 -40 -148.5t-110 -97.5v-8q97 -24 140 -90t43 -175q0 -115 -64 -199t-198 -107l-25 -374h-101l-33 367q-62 5 -108 19.5t-85 36.5z" />
<glyph unicode="&#xf50c;" horiz-adv-x="974" d="M92 0zM92 746q0 213 43.5 359.5t115.5 238t167.5 132t195.5 40.5q102 0 169 -14.5t116 -36.5l-39 -144q-43 24 -100 36.5t-132 12.5t-140.5 -33.5t-117 -107t-81 -192.5t-29.5 -291q0 -311 106.5 -466.5t283.5 -155.5q73 0 130 20t98 47l38 -134q-44 -38 -110.5 -57 t-140.5 -24l-31 -68q139 -32 139 -160q0 -83 -60.5 -137t-163.5 -54q-43 0 -78 8l15 83q49 -4 77.5 2.5t43.5 19.5t19 29t4 31q0 59 -146 79l74 170q-101 9 -188 56.5t-148.5 140t-95.5 233t-34 337.5z" />
<glyph unicode="&#xf50d;" horiz-adv-x="758" d="M79 0zM79 532q0 273 96.5 416t277.5 143q84 0 143.5 -15t102.5 -39l-43 -132q-81 47 -185 47q-115 0 -174 -101t-59 -319q0 -87 13 -162.5t42.5 -132t76.5 -88t118 -31.5q55 0 103 17.5t78 43.5l44 -126q-42 -32 -93 -50t-106 -24l-30 -71q138 -32 138 -160 q0 -83 -61 -137t-163 -54q-42 0 -79 8l16 83q49 -4 77.5 2.5t43.5 19.5t19 29t4 31q0 59 -147 79l75 167q-90 8 -153 52.5t-101 115.5t-56 170t-18 218z" />
<glyph unicode="&#xf50e;" horiz-adv-x="1006" d="M10 0l450 1514h87l449 -1514h-165l-122 417h-422l-119 -417h-158zM10 0zM232 1663v132h551v-132h-551zM330 561h341l-130 459l-41 224h-4l-40 -228z" />
<glyph unicode="&#xf50f;" horiz-adv-x="851" d="M61 0zM61 285q0 91 31.5 153t87.5 100.5t134 54.5t174 16h42t45 -2q6 66 6 117q0 122 -36 170.5t-132 48.5q-59 0 -129.5 -18t-117.5 -45l-51 122q62 38 150.5 59t185.5 21q90 0 144.5 -26.5t85 -72.5t40 -104.5t9.5 -122.5q0 -128 -5 -249t-5 -230q0 -81 5 -150.5 t21 -130.5h-118l-36 126h-9q-32 -55 -93.5 -96t-166.5 -41q-115 0 -188.5 80t-73.5 220zM164 1242v128h518v-128h-518zM222 303q0 -86 41.5 -132.5t106.5 -46.5q90 0 139 42.5t68 93.5v226q-21 2 -42 3t-43 1q-51 0 -100 -8.5t-87.5 -29.5t-60.5 -57.5t-22 -91.5z" />
<glyph unicode="&#xf510;" horiz-adv-x="913" d="M136 0v1491h663v-147h-503v-505h462v-146h-462v-546h513v-147h-673zM136 0zM185 1663v132h551v-132h-551z" />
<glyph unicode="&#xf511;" horiz-adv-x="878" d="M79 0zM79 532q0 273 100 416t283 143q59 0 118 -15t106 -60t75.5 -126t28.5 -211q0 -36 -3 -77t-7 -86h-542q0 -92 15 -166.5t47 -126.5t82.5 -81t123.5 -29q58 0 114.5 21.5t86.5 50.5l55 -112q-51 -47 -130 -73t-165 -26q-100 0 -174 39.5t-121.5 113.5t-70 176 t-22.5 229zM183 1242v128h518v-128h-518zM240 643h403q4 160 -45 234.5t-134 74.5q-98 0 -155 -74.5t-69 -234.5z" />
<glyph unicode="&#xf512;" horiz-adv-x="913" d="M136 0v1491h663v-147h-503v-505h462v-146h-462v-546h513v-147h-673zM136 0zM179 1899v132h551v-132h-551zM187 1691q0 45 26.5 72.5t73.5 27.5q44 0 71 -27.5t27 -72.5t-27 -71.5t-71 -26.5q-47 0 -73.5 26.5t-26.5 71.5zM523 1691q0 45 27 72.5t72 27.5q46 0 72.5 -27.5 t26.5 -72.5t-26.5 -71.5t-72.5 -26.5q-45 0 -72 26.5t-27 71.5z" />
<glyph unicode="&#xf513;" horiz-adv-x="878" d="M79 0zM79 532q0 273 100 416t283 143q59 0 118 -15t106 -60t75.5 -126t28.5 -211q0 -36 -3 -77t-7 -86h-542q0 -92 15 -166.5t47 -126.5t82.5 -81t123.5 -29q58 0 114.5 21.5t86.5 50.5l55 -112q-51 -47 -130 -73t-165 -26q-100 0 -174 39.5t-121.5 113.5t-70 176 t-22.5 229zM177 1588v132h551v-132h-551zM194 1309q0 49 24.5 77.5t66.5 28.5q43 0 67.5 -28.5t24.5 -77.5q0 -44 -24.5 -71.5t-67.5 -27.5q-42 0 -66.5 27.5t-24.5 71.5zM240 643h403q4 160 -45 234.5t-134 74.5q-98 0 -155 -74.5t-69 -234.5zM533 1309q0 49 24.5 77.5 t66.5 28.5q43 0 67.5 -28.5t24.5 -77.5q0 -44 -24.5 -71.5t-67.5 -27.5q-42 0 -66.5 27.5t-24.5 71.5z" />
<glyph unicode="&#xf514;" horiz-adv-x="913" d="M136 0v1491h663v-147h-503v-505h462v-146h-462v-546h513v-147h-673zM136 0zM166 2081l153 36q4 -79 43.5 -125.5t108.5 -46.5q68 0 105 46.5t43 123.5l137 -32q-17 -122 -87 -188t-200 -66q-126 0 -208.5 60t-94.5 192zM191 1691q0 45 26.5 72.5t73.5 27.5q44 0 71 -27.5 t27 -72.5t-27 -71.5t-71 -26.5q-47 0 -73.5 26.5t-26.5 71.5zM527 1691q0 45 27 72.5t72 27.5q46 0 72.5 -27.5t26.5 -72.5t-26.5 -71.5t-72.5 -26.5q-45 0 -72 26.5t-27 71.5z" />
<glyph unicode="&#xf515;" horiz-adv-x="878" d="M79 0zM79 532q0 273 100 416t283 143q59 0 118 -15t106 -60t75.5 -126t28.5 -211q0 -36 -3 -77t-7 -86h-542q0 -92 15 -166.5t47 -126.5t82.5 -81t123.5 -29q58 0 114.5 21.5t86.5 50.5l55 -112q-51 -47 -130 -73t-165 -26q-100 0 -174 39.5t-121.5 113.5t-70 176 t-22.5 229zM156 1742l153 36q4 -79 43.5 -125.5t108.5 -46.5q68 0 105 46.5t43 123.5l137 -32q-17 -122 -87 -188t-200 -66q-126 0 -208.5 60t-94.5 192zM191 1309q0 49 24.5 77.5t66.5 28.5q43 0 67.5 -28.5t24.5 -77.5q0 -44 -24.5 -71.5t-67.5 -27.5q-42 0 -66.5 27.5 t-24.5 71.5zM240 643h403q4 160 -45 234.5t-134 74.5q-98 0 -155 -74.5t-69 -234.5zM530 1309q0 49 24.5 77.5t66.5 28.5q43 0 67.5 -28.5t24.5 -77.5q0 -44 -24.5 -71.5t-67.5 -27.5q-42 0 -66.5 27.5t-24.5 71.5z" />
<glyph unicode="&#xf516;" horiz-adv-x="923" d="M66 0zM66 30l42 145q43 -24 111 -38.5t167 -14.5q57 0 108 20t89.5 58t61 97t22.5 136q0 138 -73.5 201t-197.5 73q-21 2 -37 2h-40h-87v139h38q33 0 79.5 2t74.5 8q86 21 146 88.5t60 169.5q0 140 -68 197t-172 57q-83 0 -147 -15t-105 -38l-42 130q38 24 126.5 46.5 t199.5 22.5q73 0 140.5 -17t120 -58t84.5 -113t32 -178q0 -108 -54 -203t-168 -142v-8q120 -24 189 -114.5t69 -243.5q0 -124 -37.5 -211.5t-100.5 -143.5t-145.5 -83t-171.5 -27q-114 0 -189.5 15t-124.5 41zM154 1809v44h147l99 -107l31 -72l32 70l106 109h140v-47 l-225 -217h-113z" />
<glyph unicode="&#xf517;" horiz-adv-x="746" d="M55 0zM55 41l41 132q40 -26 96 -38.5t115 -12.5q104 0 156.5 48.5t52.5 140.5q0 77 -49.5 121.5t-163.5 44.5h-96v132h116q31 0 59.5 13.5t51 37t36.5 55t14 65.5q0 83 -44 121t-133 38q-66 0 -120.5 -19t-84.5 -40l-45 122q53 34 125 54.5t163 20.5q141 0 216 -65 t75 -195q0 -81 -40 -148.5t-110 -97.5v-8q97 -24 140 -90t43 -175q0 -134 -89.5 -224.5t-274.5 -90.5q-86 0 -144.5 16t-105.5 42zM124 1559h144l67 -140l35 -124l37 124l77 140h130l-211 -388h-81z" />
<glyph unicode="&#xf518;" horiz-adv-x="1168" d="M92 0zM92 746q0 379 121.5 574.5t369.5 195.5q135 0 228.5 -54t152 -154.5t86 -243t27.5 -318.5q0 -380 -122 -576t-372 -196q-132 0 -225.5 54.5t-153 154.5t-86 243t-26.5 320zM260 746q0 -126 18 -239t56 -198t100 -136t149 -51q161 0 243.5 153t82.5 471 q0 123 -17.5 236t-56 199.5t-100.5 137.5t-152 51q-158 0 -240.5 -153.5t-82.5 -470.5zM317 1663v132h551v-132h-551z" />
<glyph unicode="&#xf519;" horiz-adv-x="919" d="M79 0zM79 532q0 288 99 423.5t282 135.5q195 0 288 -139t93 -420q0 -290 -100 -424t-281 -134q-196 0 -288.5 139t-92.5 419zM203 1242v128h518v-128h-518zM238 532q0 -93 12 -170t38.5 -132t69 -86t102.5 -31q110 0 165.5 99t55.5 320q0 92 -11.5 170t-38 133t-69 86 t-102.5 31q-108 0 -165 -100t-57 -320z" />
<glyph unicode="&#xf51a;" horiz-adv-x="1168" d="M92 0zM92 746q0 379 121.5 574.5t369.5 195.5q135 0 228.5 -54t152 -154.5t86 -243t27.5 -318.5q0 -380 -122 -576t-372 -196q-132 0 -225.5 54.5t-153 154.5t-86 243t-26.5 320zM260 746q0 -126 18 -239t56 -198t100 -136t149 -51q161 0 243.5 153t82.5 471 q0 123 -17.5 236t-56 199.5t-100.5 137.5t-152 51q-158 0 -240.5 -153.5t-82.5 -470.5zM284 1817l153 36q4 -79 43.5 -125.5t108.5 -46.5q68 0 105 46.5t43 123.5l137 -32q-17 -122 -87 -188t-200 -66q-126 0 -208.5 60t-94.5 192z" />
<glyph unicode="&#xf51b;" horiz-adv-x="919" d="M79 0zM79 532q0 288 99 423.5t282 135.5q195 0 288 -139t93 -420q0 -290 -100 -424t-281 -134q-196 0 -288.5 139t-92.5 419zM185 1455l130 41q10 -98 52 -139.5t97 -41.5t96.5 44.5t52.5 133.5l117 -34q-17 -128 -93 -195t-178 -67q-48 0 -94 14t-83.5 44.5t-63 79.5 t-33.5 120zM238 532q0 -93 12 -170t38.5 -132t69 -86t102.5 -31q110 0 165.5 99t55.5 320q0 92 -11.5 170t-38 133t-69 86t-102.5 31q-108 0 -165 -100t-57 -320z" />
</font>
</defs>
</svg>
