<?xml version="1.0" standalone="no"?>
<!DOCTYPE svg PUBLIC "-//W3C//DTD SVG 1.1//EN" "http://www.w3.org/Graphics/SVG/1.1/DTD/svg11.dtd" >
<svg xmlns="http://www.w3.org/2000/svg" xmlns:xlink="http://www.w3.org/1999/xlink" version="1.1">
<metadata></metadata>
<defs>
<font id="pt_sansbold_italic" horiz-adv-x="1160" >
<font-face units-per-em="2048" ascent="1536" descent="-512" />
<missing-glyph horiz-adv-x="538" />
<glyph unicode="fi" horiz-adv-x="1120" d="M-275 -384l72 195q37 -15 73 -19.5t92 -4.5q68 0 105 53.5t55 159.5l128 846h-142l45 219h139l13 59q42 203 161.5 295.5t306.5 92.5q140 0 243.5 -23.5t161.5 -61.5l-107 -198q-47 30 -120 48t-165 18q-59 0 -98.5 -16t-65.5 -47t-41.5 -73.5t-27.5 -93.5h540 l-160 -1065h-262l128 846h-287l-128 -846q-17 -108 -44 -191.5t-70.5 -139t-108.5 -84t-159 -28.5q-77 0 -150.5 12t-126.5 47z" />
<glyph unicode="fl" horiz-adv-x="1189" d="M-275 -384l72 195q37 -15 73 -19.5t92 -4.5q68 0 105 53.5t55 159.5l130 846h-142l46 219h138l13 59q42 201 155 297.5t337 96.5q47 0 106.5 -4t117 -9t107.5 -11.5t77 -13.5l-191 -1135l-7 -42t-3 -35q0 -75 57 -75q24 0 48.5 5t59.5 17l-8 -189q-19 -8 -46.5 -18 t-62 -17.5t-72 -12t-70.5 -4.5q-94 0 -143 36.5t-49 121.5q0 41 8 81l179 1069q-24 7 -68 12t-87 5q-94 0 -134.5 -65t-61.5 -169h153l-42 -219h-153l-130 -846q-19 -108 -46 -191.5t-69.5 -139t-107.5 -84t-159 -28.5q-77 0 -150.5 12t-126.5 47z" />
<glyph unicode="&#xd;" horiz-adv-x="538" />
<glyph unicode=" "  horiz-adv-x="538" />
<glyph unicode="&#x09;" horiz-adv-x="538" />
<glyph unicode="&#xa0;" horiz-adv-x="538" />
<glyph unicode="!" horiz-adv-x="602" d="M158 140q0 75 47 119t123 44q79 0 125.5 -44t46.5 -119q0 -74 -46.5 -119t-125.5 -45q-77 0 -123.5 45t-46.5 119zM294 443l19 347l149 701h273l-149 -701l-126 -347h-166z" />
<glyph unicode="&#x22;" horiz-adv-x="752" d="M148 1031l99 460h230l-168 -460h-161zM149 1031zM447 1031l99 460h230l-168 -460h-161z" />
<glyph unicode="#" d="M102 437l47 206h160l53 226h-153l47 206h155l75 307h227l-74 -307h190l74 307h227l-73 -307h153l-54 -206h-148l-53 -226h146l-51 -206h-145l-76 -329h-228l76 329h-189l-77 -329h-228l77 329h-158zM537 643h189l54 226h-190z" />
<glyph unicode="$" d="M126 92l100 206q30 -20 90 -48t142 -43l100 470q-48 32 -95.5 69.5t-84.5 85.5t-59.5 109t-22.5 141q0 102 35 178.5t96 130.5t140 83.5t168 39.5l43 190h210l-41 -192q82 -10 143.5 -30.5t106.5 -44.5l-106 -216q-30 17 -81 34t-114 27l-91 -432q49 -35 98 -73t87.5 -88 t61.5 -112.5t23 -143.5q0 -102 -33.5 -182t-94.5 -138t-145 -91.5t-184 -45.5l-39 -189h-211l41 192q-111 15 -179 48.5t-104 64.5zM573 1116q0 -61 35 -105t91 -86l76 366q-102 -5 -152 -53.5t-50 -121.5zM579 201q114 8 167 65t53 134q0 69 -38.5 116t-95.5 89z" />
<glyph unicode="%" horiz-adv-x="1711" d="M118 0zM118 1063q0 115 39.5 200t103.5 141.5t141.5 84t154.5 27.5q140 0 213.5 -65t73.5 -191q0 -121 -36 -209t-98 -145.5t-142 -85.5t-165 -28q-132 0 -208.5 73.5t-76.5 197.5zM171 118l1226 1402l156 -140l-1227 -1410zM352 1075q-2 -46 21.5 -75t67.5 -29 q71 0 120 73.5t49 188.5q0 104 -92 104q-36 0 -65.5 -21t-53 -56t-36.5 -83.5t-11 -101.5zM894 273q0 115 39.5 200t103.5 141.5t141.5 84t154.5 27.5q140 0 213.5 -65t73.5 -191q0 -121 -36 -209t-98 -145.5t-142 -85.5t-165 -28q-132 0 -208.5 73.5t-76.5 197.5zM1128 285 q-2 -46 21.5 -75t67.5 -29q71 0 120 73.5t49 188.5q0 104 -92 104q-36 0 -65.5 -21t-53 -56t-36.5 -83.5t-11 -101.5z" />
<glyph unicode="&#x26;" horiz-adv-x="1667" d="M156 345q0 98 39 185.5t104 159.5t147 131t170 101q-37 71 -46 128.5t-9 114.5q0 71 23 134.5t74 112.5t130 78.5t188 29.5q85 0 139 -21t86 -56t43.5 -78.5t11.5 -86.5q0 -108 -86 -207.5t-245 -186.5q46 -115 96 -211t119 -189q55 53 110 133t102 163l168 -107 q-20 -39 -52.5 -84.5t-67 -92.5t-70 -88.5t-62.5 -70.5q51 -61 111 -116t121 -81l-185 -203q-33 12 -67 36.5t-67 53t-62.5 61t-51.5 61.5q-91 -71 -211.5 -125t-280.5 -54q-98 0 -176 29t-132 79t-82.5 118t-28.5 149zM433 396q0 -89 57 -140t170 -51q82 0 159 35t124 77 q-79 114 -140 225.5t-102 211.5q-126 -85 -197 -171.5t-71 -186.5zM817 1178q0 -46 8 -79.5t31 -84.5q89 53 138.5 104t49.5 109q0 41 -19 64.5t-73 23.5q-66 0 -100.5 -41t-34.5 -96z" />
<glyph unicode="'" horiz-adv-x="463" d="M193 1031l99 460h230l-168 -460h-161z" />
<glyph unicode="(" horiz-adv-x="659" d="M132 185q0 205 49 397.5t131 364t191 316.5t227 253l137 -114q-99 -110 -186 -248t-150.5 -293.5t-101 -323t-37.5 -336.5q0 -134 19.5 -265.5t86.5 -284.5l-163 -115q-61 81 -100 165t-62.5 167t-32 162.5t-8.5 154.5z" />
<glyph unicode=")" horiz-adv-x="659" d="M-164 -352q95 107 182.5 246.5t152.5 297t103.5 323.5t38.5 326q0 177 -25.5 312.5t-82.5 241.5l185 119q96 -128 139.5 -288.5t43.5 -353.5q0 -205 -48 -399t-130 -366.5t-189.5 -319.5t-226.5 -256z" />
<glyph unicode="*" horiz-adv-x="758" d="M166 1156v159h126l125 -37l-106 94l-59 106l136 79l59 -98l32 -126l33 118l59 104l134 -75l-64 -110l-100 -92l136 34h122v-156h-116l-130 35l107 -100l53 -89l-136 -80l-57 98l-43 136l-28 -123l-61 -104l-138 79l63 104l96 79l-117 -35h-126z" />
<glyph unicode="+" horiz-adv-x="1075" d="M124 601v238h345v360h249v-360h347v-238h-347v-365h-249v365h-345z" />
<glyph unicode="," horiz-adv-x="459" d="M-55 -201q61 24 112.5 77.5t70.5 113.5q-36 2 -68 35.5t-32 89.5q0 86 54 132.5t129 46.5t112 -49t35 -113q-2 -104 -42.5 -182t-97 -132t-117 -87.5t-101.5 -45.5z" />
<glyph unicode="-" horiz-adv-x="730" d="M120 502l53 222h508l-53 -222h-508z" />
<glyph unicode="." horiz-adv-x="534" d="M71 140q0 75 46.5 119t122.5 44q79 0 126 -44t47 -119q0 -74 -47 -119t-126 -45q-77 0 -123 45t-46 119z" />
<glyph unicode="/" horiz-adv-x="825" d="M-164 -201l1084 1717l183 -97l-1086 -1722z" />
<glyph unicode="0" d="M118 488q0 221 49.5 409.5t139 327t212 217t267.5 78.5q83 0 156.5 -25t128.5 -85t87.5 -160t32.5 -246q0 -198 -46 -384.5t-132 -330.5t-211 -231.5t-280 -87.5q-104 0 -181 40.5t-126 109.5t-73 164.5t-24 203.5zM382 490q0 -88 14.5 -143t39 -87t58.5 -43.5t73 -11.5 q75 0 139.5 70t113.5 183t78 254.5t29 286.5q0 66 -7.5 119t-27.5 90.5t-54.5 57.5t-87.5 20q-71 0 -137 -66t-118 -175.5t-82.5 -254t-30.5 -300.5z" />
<glyph unicode="1" d="M124 0l49 234h280l181 841l61 146l-124 -126l-207 -132l-83 163l548 390h149l-273 -1282h275l-49 -234h-807z" />
<glyph unicode="2" d="M77 0l29 142q59 56 140.5 131.5t168.5 162t171.5 179t150.5 182t107.5 172.5t41.5 151q0 71 -36.5 115.5t-138.5 44.5q-65 0 -135 -31t-137 -80l-65 201q102 75 205.5 112.5t240.5 37.5q158 0 244 -90t86 -237q0 -120 -55.5 -242t-140.5 -239.5t-187 -221.5t-194 -187 l-126 -88v-10l149 29h382l-49 -234h-852z" />
<glyph unicode="3" d="M87 36l122 236q43 -28 104 -44.5t143 -16.5q83 0 143.5 23.5t101.5 62t60 88.5t19 101q0 102 -54.5 148.5t-197.5 46.5h-148l31 148l313 351l136 96l-161 -20h-339l51 235h774l-33 -151l-364 -405l-103 -57v-11l86 13q42 -4 90 -25.5t88.5 -63t67.5 -106.5t27 -159 q0 -121 -39.5 -223t-118.5 -176t-196 -115.5t-271 -41.5q-91 0 -185 17t-147 49z" />
<glyph unicode="4" d="M59 415l33 158l837 929h217l-183 -868h224l-47 -219h-224l-87 -415h-246l88 415h-612zM349 620l133 14h236l70 329l55 179h-6l-102 -154l-268 -287z" />
<glyph unicode="5" d="M77 34l119 226q42 -21 96.5 -35t135.5 -14q90 0 154 25.5t105 68t61.5 98t20.5 117.5q0 106 -65 151t-216 45l-165 -7l165 782h697l-55 -260h-468l-61 -294l78 8q85 0 150 -27.5t110 -76.5t68.5 -117t23.5 -147q0 -294 -166 -450.5t-477 -156.5q-43 0 -87.5 5.5t-86 14 t-77 20t-60.5 24.5z" />
<glyph unicode="6" d="M132 449q0 218 81 406.5t214.5 330t303.5 229t351 105.5l15 -219q-106 -17 -208.5 -60.5t-191 -110.5t-156.5 -152.5t-104 -182.5q57 61 141 93t174 32q164 0 255.5 -103.5t91.5 -273.5q0 -116 -34 -220t-103.5 -182t-174 -124.5t-242.5 -46.5q-69 0 -142 24.5t-133.5 81 t-99 148t-38.5 225.5zM382 467q0 -115 47.5 -188.5t147.5 -73.5q122 0 192 80.5t70 208.5q0 85 -43.5 138t-145.5 53q-81 0 -151.5 -35.5t-106.5 -91.5q-4 -20 -7 -47t-3 -44z" />
<glyph unicode="7" d="M132 0l701 1148l108 104l-124 -21h-500l53 260h916l-16 -81l-863 -1410h-275z" />
<glyph unicode="8" d="M115 326q0 81 28 150t74.5 125.5t108.5 99.5t130 68q-31 28 -57.5 56.5t-46.5 65t-31.5 84t-11.5 111.5q0 104 39.5 186.5t107.5 136.5t157.5 82.5t189.5 28.5q179 0 272.5 -92.5t93.5 -236.5q0 -75 -24.5 -136t-66 -112t-95.5 -92.5t-114 -72.5q96 -75 137.5 -159 t41.5 -182q0 -108 -39.5 -194.5t-109.5 -147.5t-168.5 -93t-214.5 -32q-83 0 -157 23.5t-128 68t-85 110.5t-31 154zM364 376q0 -74 44.5 -122.5t147.5 -48.5q47 0 91 12.5t77.5 37t53 62t19.5 88.5q0 48 -16.5 86.5t-43 69.5t-62.5 58t-74 50q-108 -55 -172.5 -128.5 t-64.5 -164.5zM561 1089q0 -75 46.5 -127.5t118.5 -94.5q38 28 72.5 60t61 65.5t42.5 70t16 71.5q0 77 -38.5 114.5t-108.5 37.5q-90 0 -150 -50.5t-60 -146.5z" />
<glyph unicode="9" d="M211 971q0 128 42.5 230t118 173t177 108.5t220.5 37.5q89 0 166 -27.5t133 -86t89.5 -147t33.5 -209.5q0 -170 -44 -314t-117 -261t-170.5 -208.5t-204 -155.5t-216 -99.5t-207.5 -41.5l-13 217q118 21 221 67.5t186 109t144 140t94 161.5q-61 -49 -133.5 -73.5 t-174.5 -24.5q-59 0 -121.5 22.5t-111 70t-80.5 125.5t-32 186zM471 1012q0 -61 15.5 -102t43.5 -67t61 -36t69 -10q82 0 152 25.5t110 67.5q7 24 12 66.5t5 61.5q0 122 -48 197.5t-156 75.5q-51 0 -98 -16.5t-84 -50t-59.5 -86.5t-22.5 -126z" />
<glyph unicode=":" horiz-adv-x="668" d="M191 166q0 75 47 118.5t124 43.5q79 0 126 -44t47 -118t-47 -119t-126 -45q-77 0 -124 45t-47 119zM352 912q0 75 46.5 118t123.5 43q79 0 126 -43.5t47 -117.5q0 -75 -47 -119.5t-126 -44.5q-77 0 -123.5 44.5t-46.5 119.5z" />
<glyph unicode=";" horiz-adv-x="653" d="M110 -201q62 24 114 77.5t70 113.5q-36 2 -68.5 35.5t-32.5 89.5q0 86 55 132.5t128 46.5q75 0 112.5 -49t35.5 -113q-2 -104 -42.5 -182t-97 -132t-117 -87.5t-101.5 -45.5zM337 912q0 75 47 118t122 43q80 0 126.5 -43.5t46.5 -117.5q0 -75 -46.5 -119.5t-126.5 -44.5 q-76 0 -122.5 44.5t-46.5 119.5z" />
<glyph unicode="&#x3c;" horiz-adv-x="1075" d="M108 607v149l823 492l121 -191l-477 -297l-193 -75l191 -65l490 -292l-122 -192z" />
<glyph unicode="=" horiz-adv-x="1075" d="M124 398v238h941v-238h-941zM124 398zM124 806v238h941v-238h-941z" />
<glyph unicode="&#x3e;" horiz-adv-x="1075" d="M128 1059l120 189l834 -470v-150l-824 -492l-120 194l476 294l193 77l-191 63z" />
<glyph unicode="?" horiz-adv-x="915" d="M175 140q0 75 46.5 119t123.5 44q79 0 126 -44t47 -119q0 -74 -47 -119t-126 -45q-77 0 -123.5 45t-46.5 119zM242 1393q88 53 190.5 90t248.5 37q179 0 262 -75t83 -203q0 -114 -33.5 -191.5t-87 -136t-117.5 -104.5t-122.5 -97t-105 -114.5t-64.5 -155.5h-226 q13 115 52.5 197t92 142.5t110.5 106.5t106 88.5t80.5 87.5t32.5 104q0 57 -33.5 89.5t-118.5 32.5q-66 0 -145 -29t-138 -69z" />
<glyph unicode="@" horiz-adv-x="2254" d="M213 502q0 232 83.5 420t223.5 320t325.5 203t392.5 71q195 0 363.5 -56t292 -161.5t194 -258t70.5 -345.5q0 -137 -49.5 -256.5t-132 -206.5t-194.5 -138t-240 -51q-53 0 -99 11.5t-78 39.5t-47 72.5t-8 110.5h-9q-32 -45 -68 -87.5t-80.5 -75.5t-97.5 -52t-118 -19 q-53 0 -99 22t-80 62.5t-54.5 98t-20.5 128.5q0 132 43 256.5t115.5 220.5t169.5 154.5t205 58.5q75 0 126 -22.5t95 -58.5l67 68h149l-104 -578q-5 -26 -7 -47.5t-2 -39.5q0 -102 78 -102q55 0 110 25.5t97.5 79t68 134t25.5 192.5q0 160 -53 273.5t-145.5 187 t-218.5 107.5t-269 34q-166 0 -309.5 -59.5t-249 -165t-165.5 -249.5t-60 -311t50 -299t147.5 -225.5t238.5 -144t325 -50.5q61 0 140 16t143 46l66 -204q-89 -43 -178.5 -60t-207.5 -17q-209 0 -384 59.5t-303 176.5t-200.5 291t-72.5 401zM941 424q0 -70 30.5 -116 t99.5 -46q30 0 64 18t66 49t61 69.5t53 80.5l55 294q-30 24 -60 38t-72 14q-64 0 -118.5 -37.5t-94 -95.5t-62 -129t-22.5 -139z" />
<glyph unicode="A" horiz-adv-x="1238" d="M-81 0l829 1502h204l194 -1502h-279l-42 330h-435l-177 -330h-294zM512 565h301l-33 331l2 234h-11l-86 -236z" />
<glyph unicode="B" horiz-adv-x="1209" d="M43 10l311 1470q40 6 91 13t109 11t118.5 6t117.5 2q98 0 182.5 -20t145 -63t95.5 -110t35 -160q0 -71 -23.5 -135.5t-67 -116t-104.5 -85.5t-137 -44v-12q41 -8 81 -30.5t72 -57.5t51.5 -83t19.5 -107q0 -136 -53.5 -233t-143 -158t-208.5 -89.5t-251 -28.5h-89t-116 3 t-123.5 9.5t-112.5 18.5zM356 232q8 -4 30.5 -6t49 -3t54.5 -2.5t47 -1.5q53 0 109.5 13t102.5 43t75.5 76.5t29.5 115.5q0 53 -23.5 87t-62 54t-88.5 27.5t-103 7.5h-136zM490 864h91q31 0 71.5 1.5t67.5 6.5q38 6 82 20.5t79 42.5t58.5 70.5t23.5 106.5q0 91 -61 125.5 t-154 34.5q-55 0 -102.5 -2t-72.5 -7z" />
<glyph unicode="C" horiz-adv-x="1142" d="M124 579q0 252 70 430t185 291.5t263 166.5t303 53q122 0 208.5 -18t135.5 -41l-109 -247q-42 24 -102 35t-151 11q-109 0 -203 -44.5t-162 -127t-107.5 -202.5t-39.5 -270q0 -181 90.5 -283.5t242.5 -102.5q95 0 158 20t118 51l5 -240q-143 -91 -350 -91 q-140 0 -244.5 46.5t-174 130t-103 194t-33.5 238.5z" />
<glyph unicode="D" horiz-adv-x="1319" d="M43 -2l315 1493q44 7 97.5 11t99.5 6t79 2q19 0 54.5 1t77.5 1q130 0 237 -32.5t182 -101t117 -175t42 -253.5q0 -94 -16 -201.5t-54 -216t-105.5 -208.5t-168.5 -176.5t-242.5 -124t-329.5 -47.5q-32 0 -64 1.5t-45 1.5q-42 2 -94 5.5t-104 6.5t-78 7zM370 242 q9 -2 27 -3t39.5 -2t40.5 -1h29q149 0 253.5 67t169.5 168.5t94 219.5t29 221q0 171 -71.5 255.5t-236.5 84.5q-43 0 -90 -2t-73 -6z" />
<glyph unicode="E" horiz-adv-x="1071" d="M43 0l315 1491h276h563l-55 -260h-563l-75 -347h514l-57 -260h-510l-79 -364h573l-53 -260h-573h-276z" />
<glyph unicode="F" horiz-adv-x="1041" d="M43 0l315 1491h276h563l-55 -260h-563l-79 -369h518l-53 -259h-518l-128 -603h-276z" />
<glyph unicode="G" horiz-adv-x="1245" d="M124 575q0 246 67 424.5t182 294.5t268.5 171t323.5 55q122 0 216.5 -20t143.5 -41l-111 -245q-45 20 -112 33t-163 13q-113 0 -209 -42.5t-166 -125t-109.5 -205.5t-39.5 -280q0 -176 83 -276.5t224 -100.5q104 0 183 53l60 284l-217 34l38 177h447l-140 -665 q-96 -75 -201.5 -109t-226.5 -34q-118 0 -217 40.5t-171 117.5t-112.5 190t-40.5 257z" />
<glyph unicode="H" horiz-adv-x="1328" d="M43 0l315 1491h276l-128 -607h518l128 607h277l-315 -1491h-277l132 624h-518l-132 -624h-276z" />
<glyph unicode="I" horiz-adv-x="591" d="M75 0l315 1491h275l-316 -1491h-274z" />
<glyph unicode="J" horiz-adv-x="689" d="M-108 24l106 238q49 -28 115 -28q45 0 74.5 18t50 50.5t33 76t25.5 96.5l213 1016h277l-233 -1091q-18 -89 -48 -166.5t-79.5 -135t-122.5 -91t-177 -33.5q-59 0 -125.5 13t-108.5 37z" />
<glyph unicode="K" horiz-adv-x="1262" d="M43 0l315 1491h276l-140 -660l67 23l504 637h332l-537 -633l-127 -74l94 -83l323 -701h-309l-288 636h-100l-134 -636h-276z" />
<glyph unicode="L" horiz-adv-x="1053" d="M43 0l315 1491h276l-262 -1231h620l-53 -260h-620h-276z" />
<glyph unicode="M" horiz-adv-x="1632" d="M43 0l315 1491h245l224 -682l27 -170h10l99 174l502 678h267l-316 -1491h-274l163 773l95 294h-14l-140 -240l-419 -552h-88l-200 558l-39 234h-10l-21 -292l-164 -775h-262z" />
<glyph unicode="N" horiz-adv-x="1343" d="M43 0l319 1502h191l367 -797l66 -232h13l15 232l168 786h263l-321 -1501h-191l-364 790l-71 238h-10l-19 -238l-164 -780h-262z" />
<glyph unicode="O" horiz-adv-x="1370" d="M124 558q0 198 54 374t154.5 307t242 206t315.5 75q116 0 208.5 -33.5t157.5 -105t101 -180t36 -258.5q0 -200 -54.5 -376.5t-153.5 -309.5t-236.5 -210t-302.5 -77q-252 0 -386 148t-136 440zM415 567q0 -153 58.5 -245t193.5 -92q97 0 177.5 58.5t137.5 157.5t88 227 t31 266q0 169 -66 245t-181 76q-96 0 -176 -55t-138 -149.5t-91.5 -221.5t-33.5 -267z" />
<glyph unicode="P" horiz-adv-x="1171" d="M43 0l313 1476q89 16 190.5 26t203.5 10q108 0 201 -24.5t162 -75.5t107 -131t38 -190q0 -166 -57 -278t-151.5 -181t-216.5 -98.5t-247 -29.5h-33.5t-46.5 1t-46.5 4t-33.5 5l-107 -514h-276zM482 764q8 -2 23 -4t33 -3t34 -1h24q73 0 140 16t118 51t82 92.5t31 141.5 q0 61 -20 101.5t-54.5 63t-80.5 30.5t-96 8q-39 0 -74 -3t-59 -7z" />
<glyph unicode="Q" horiz-adv-x="1370" d="M124 558q0 198 54 374t154.5 307t242 206t315.5 75q116 0 208.5 -33.5t157.5 -105t101 -180t36 -258.5q0 -200 -54.5 -376.5t-153.5 -309.5t-236.5 -210t-302.5 -77q-252 0 -386 148t-136 440zM341 -330l53 251q59 12 120 13q85 0 164.5 -21t161.5 -46t169.5 -46.5 t187.5 -21.5q45 0 92.5 6t98.5 18l-53 -254q-98 -27 -194 -27h-7q-102 0 -196.5 22.5t-180.5 48t-164.5 48t-155.5 22.5q-49 0 -96 -13zM415 567q0 -153 58.5 -245t193.5 -92q97 0 177.5 58.5t137.5 157.5t88 227t31 266q0 169 -66 245t-181 76q-96 0 -176 -55t-138 -149.5 t-91.5 -221.5t-33.5 -267z" />
<glyph unicode="R" horiz-adv-x="1243" d="M43 0l313 1476q102 18 206.5 27t187.5 9q98 0 185 -23.5t151 -71t101.5 -123.5t37.5 -178q0 -118 -35.5 -203.5t-93 -144.5t-131 -92t-150.5 -44l84 -65l207 -567h-307l-205 583l-147 29l-128 -612h-276zM490 809h113q62 0 121.5 12t105.5 42.5t74.5 81.5t28.5 130 q0 73 -49 125t-158 52q-43 0 -80 -3t-63 -7z" />
<glyph unicode="S" horiz-adv-x="1085" d="M-4 59l142 248q21 -13 55.5 -28t78 -28t94.5 -21t103 -8q59 0 112 9t92.5 31.5t62 57t22.5 85.5q0 57 -38.5 97.5t-96.5 77t-125 76t-126 92.5t-97.5 128.5t-38.5 184.5q0 124 43.5 211t118.5 142.5t175 80.5t215 25q62 0 123.5 -6t117 -18t102.5 -27.5t79 -35.5 l-141 -242q-40 26 -118.5 52.5t-175.5 26.5q-49 0 -96 -10t-82.5 -31.5t-57 -55t-21.5 -80.5q0 -61 38 -104.5t96.5 -80t126 -75t126 -89.5t96.5 -123t38 -176q0 -126 -43.5 -216.5t-123.5 -147.5t-191.5 -84t-247.5 -27q-75 0 -142 9t-125 21t-101.5 28.5t-68.5 30.5z" />
<glyph unicode="T" horiz-adv-x="1164" d="M205 1231l55 260h1101l-54 -260h-413l-262 -1231h-274l260 1231h-413z" />
<glyph unicode="U" horiz-adv-x="1281" d="M134 370q0 43 5.5 87.5t16.5 93.5l200 940h274l-195 -938q-17 -81 -18 -131q0 -102 53.5 -145t155.5 -43q128 0 198 75t107 240l199 942h260l-201 -963q-33 -153 -83.5 -258.5t-123.5 -171.5t-171 -95t-225 -29q-124 0 -209 29t-139.5 82t-79 125.5t-24.5 159.5z" />
<glyph unicode="V" horiz-adv-x="1232" d="M215 1491h303l96 -873l-16 -254h9l94 254l460 873h311l-842 -1501h-199z" />
<glyph unicode="W" horiz-adv-x="1758" d="M232 1491h292l6 -831l-30 -264h12l82 269l422 826h187l63 -831l-28 -264h10l85 269l350 826h298l-709 -1501h-195l-78 827l17 229h-12l-82 -231l-424 -825h-193z" />
<glyph unicode="X" horiz-adv-x="1294" d="M-51 0l596 760l-240 731h300l128 -430l21 -152l79 152l317 430h332l-560 -720l267 -771h-297l-153 460l-26 158l-85 -158l-343 -460h-336z" />
<glyph unicode="Y" horiz-adv-x="1211" d="M226 1491h306l139 -560l-4 -158h8l67 162l372 556h317l-662 -935l-117 -556h-276l116 553z" />
<glyph unicode="Z" horiz-adv-x="1102" d="M-24 0l56 260l767 886l123 85h-684l54 260h982l-53 -260l-772 -892l-119 -79h684l-55 -260h-983z" />
<glyph unicode="[" horiz-adv-x="668" d="M4 -490l418 1981h474l-46 -233h-224l-321 -1514h223l-51 -234h-473z" />
<glyph unicode="\" horiz-adv-x="902" d="M77 1423l219 91l710 -1717l-216 -95z" />
<glyph unicode="]" horiz-adv-x="666" d="M-166 -490l51 234h223l320 1514h-223l47 233h476l-419 -1981h-475z" />
<glyph unicode="^" horiz-adv-x="1075" d="M149 880l418 622h149l394 -622h-279l-152 260l-47 149l-53 -151l-164 -258h-266z" />
<glyph unicode="_" horiz-adv-x="945" d="M-98 -250h946v-227h-946v227z" />
<glyph unicode="`" horiz-adv-x="506" d="M575 1470l15 64h274l52 -329h-147z" />
<glyph unicode="a" horiz-adv-x="1071" d="M71 307q0 156 39 298.5t122 251t210 173.5t302 65q74 0 162 -14t171 -37l-132 -618q-16 -81 -23.5 -164t-7.5 -158q0 -30 1 -56.5t3 -49.5h-194l-29 183h-10q-24 -39 -60.5 -75.5t-81.5 -68t-95 -49.5t-103 -18q-140 0 -207 91.5t-67 245.5zM341 358q0 -69 22.5 -119 t81.5 -50q39 0 72.5 16.5t62.5 41.5t51.5 55t39.5 56l107 496q-24 10 -54.5 16t-61.5 6q-76 0 -135.5 -46t-101 -120t-63 -166.5t-21.5 -185.5z" />
<glyph unicode="b" horiz-adv-x="1089" d="M47 59l302 1432h263l-133 -613h9q28 38 64 75t79.5 68t95 50.5t112.5 19.5q116 0 173 -81t57 -215q0 -203 -56 -356.5t-148 -256.5t-207 -155.5t-232 -52.5q-130 0 -229 25t-150 60zM341 224q24 -17 58 -24t74 -7q53 0 110.5 35.5t105.5 103.5t79 167t31 225 q0 146 -86 148q-42 0 -83.5 -23.5t-79.5 -59t-69.5 -76t-49.5 -77.5z" />
<glyph unicode="c" horiz-adv-x="876" d="M73 337q0 179 51 319.5t135 237t191.5 149t220.5 52.5q100 0 158.5 -19t105.5 -43l-98 -208q-40 24 -84 31.5t-95 7.5q-57 0 -111.5 -37t-98 -97.5t-69 -142t-25.5 -165.5q0 -108 46.5 -164.5t123.5 -56.5q64 0 118.5 19.5t96.5 45.5l49 -179q-68 -51 -158.5 -84 t-180.5 -33q-102 0 -173 30t-116 81t-66 117t-21 139z" />
<glyph unicode="d" horiz-adv-x="1079" d="M79 321q0 149 40.5 288t114 246.5t179 171.5t233.5 64q61 0 101.5 -8t77.5 -24l91 432h262l-237 -1117q-19 -89 -27.5 -165.5t-8.5 -145.5v-32t2 -33h-179l-29 183h-8q-24 -39 -61.5 -75.5t-82.5 -68t-95 -49.5t-98 -18q-132 0 -203.5 94t-71.5 257zM349 341 q0 -61 28 -106.5t79 -45.5q32 0 64.5 16.5t62 41.5t53.5 55t39 56l103 481q-26 17 -59.5 25t-88.5 8q-63 0 -115.5 -44t-88.5 -118t-56.5 -169.5t-20.5 -199.5z" />
<glyph unicode="e" horiz-adv-x="992" d="M73 354q0 170 53 307.5t139.5 233t195 148t216.5 52.5q87 0 150 -22.5t103.5 -62t60 -90.5t19.5 -109q0 -87 -45 -153t-125 -110t-192.5 -66t-247.5 -22q-16 0 -31 1t-32 1q-4 -26 -6.5 -46t-2.5 -36q0 -96 50 -143.5t142 -47.5q94 0 168 28t113 55l55 -170 q-66 -55 -170.5 -93.5t-242.5 -38.5q-173 0 -271.5 101.5t-98.5 282.5zM374 628q60 0 127.5 4t124.5 20.5t95.5 47t38.5 84.5q0 32 -23.5 65t-97.5 33q-94 0 -163 -73t-102 -181z" />
<glyph unicode="f" horiz-adv-x="626" d="M-275 -384l72 195q37 -15 73 -19.5t92 -4.5q68 0 105 54.5t57 175.5l134 829h-150l48 219h136l27 142q15 79 39 138t63 98t95.5 58t139.5 19q35 0 78.5 -3t85.5 -10t82.5 -18t73.5 -26l-62 -193q-49 19 -100.5 25t-100.5 6q-68 0 -99 -40t-43 -125l-13 -71h213l-43 -219 h-204l-158 -919q-12 -79 -35.5 -145.5t-65 -117t-105.5 -79t-158 -28.5q-77 0 -150.5 12t-126.5 47z" />
<glyph unicode="g" horiz-adv-x="1075" d="M-21 -356l98 194q19 -9 44.5 -20t58.5 -23t77 -19.5t101 -7.5q106 0 169 66t91 181l40 166h-8q-49 -77 -133 -137.5t-191 -60.5q-116 0 -186.5 86.5t-70.5 231.5q0 164 46.5 307.5t130.5 251t199.5 169.5t253.5 62q130 0 226.5 -22.5t156.5 -50.5l-215 -1018 q-28 -126 -74.5 -212t-111.5 -139.5t-149.5 -76.5t-186.5 -23q-75 0 -133.5 10t-103.5 25.5t-77.5 31.5t-51.5 28zM339 352q0 -69 28.5 -109t75.5 -40q36 0 74.5 22.5t73.5 56t62.5 75t45.5 78.5l91 415q-24 12 -59.5 17t-72.5 5q-68 0 -126.5 -41t-101 -111t-67 -165 t-24.5 -203z" />
<glyph unicode="h" horiz-adv-x="1124" d="M38 0l316 1491h262l-134 -613h8q28 34 67 72t87.5 70t104.5 53.5t123 21.5q101 0 157.5 -51.5t56.5 -181.5q0 -79 -25 -200l-141 -662h-262l128 605q21 94 21 155q0 55 -21.5 79.5t-65.5 24.5q-41 0 -85.5 -25.5t-85 -63.5t-73.5 -81.5t-50 -79.5l-125 -614h-263z" />
<glyph unicode="i" horiz-adv-x="544" d="M57 0l226 1065h262l-226 -1065h-262zM57 0zM324 1368q0 70 45.5 108t116.5 38q69 0 116 -38.5t47 -107.5t-48 -108t-115 -39q-71 0 -116.5 39t-45.5 108z" />
<glyph unicode="j" horiz-adv-x="518" d="M-238 -424l51 226q12 -1 23 -1q39 0 68 11q39 13 65.5 43t44.5 75.5t31 103.5l217 1031h264l-236 -1110q-40 -191 -136.5 -292.5t-259.5 -101.5q-66 0 -132 15zM0 0zM301 1368q0 70 45.5 108t116.5 38q69 0 116 -38.5t47 -107.5t-48 -108t-115 -39q-71 0 -116.5 39 t-45.5 108z" />
<glyph unicode="k" horiz-adv-x="990" d="M38 0l316 1491h262l-188 -879l78 27l301 426h292l-317 -429l-128 -80l96 -81l162 -475h-282l-153 441h-85l-91 -441h-263z" />
<glyph unicode="l" horiz-adv-x="579" d="M71 140q0 49 12 114l262 1237h262l-249 -1176q-6 -30 -6 -53q0 -22 6 -38q14 -30 47 -31q59 0 113 24l-6 -189q-39 -24 -111.5 -39t-142.5 -15q-92 0 -139.5 35.5t-47.5 130.5z" />
<glyph unicode="m" horiz-adv-x="1632" d="M38 0l226 1065h205l-13 -187h8q32 34 69.5 72t84.5 70t104.5 53.5t125.5 21.5q84 0 128 -62q40 -57 40 -147v-17q32 41 73 81t89.5 72.5t102.5 52.5t112 20q97 0 149.5 -45.5t52.5 -171.5q0 -92 -32 -239l-134 -639h-262l126 598q10 49 17 92t7 74q0 49 -18.5 74.5 t-60.5 25.5q-35 0 -69.5 -19.5t-67 -51t-59 -67t-40.5 -68.5l-138 -658h-261l121 579q12 60 20 105.5t8 81.5q0 98 -75 98q-36 0 -72 -18.5t-67.5 -49t-58 -65t-42.5 -66.5l-136 -665h-263z" />
<glyph unicode="n" horiz-adv-x="1109" d="M38 0l226 1065h198l-11 -187h9q28 34 65.5 72t86 70t109.5 53.5t137 21.5q96 0 153.5 -52.5t57.5 -173.5q0 -32 -3 -68.5t-14 -78.5l-153 -722h-263l142 660q12 60 12 104q0 47 -19 73.5t-70 26.5q-39 0 -77 -18.5t-72 -51t-64 -72t-51 -79.5l-136 -643h-263z" />
<glyph unicode="o" horiz-adv-x="1055" d="M73 345q0 169 47.5 307t127.5 236t185.5 152.5t220.5 54.5q102 0 172 -32t114 -85t63 -121.5t19 -140.5q0 -167 -46.5 -304t-125.5 -235t-183 -152.5t-220 -54.5q-100 0 -170 33t-116 86t-67 120.5t-21 135.5zM343 382q0 -192 139 -193q50 0 99 45t87.5 117.5t61 164 t22.5 183.5q0 85 -28.5 131t-107.5 46q-51 0 -100 -43t-87.5 -112t-62 -158.5t-23.5 -180.5z" />
<glyph unicode="p" horiz-adv-x="1077" d="M-55 -426l315 1491h193l-10 -187h8q31 40 69 79t85 69.5t100 49.5t115 19q108 0 174.5 -75t66.5 -234q0 -181 -48 -331t-128 -258t-187.5 -167.5t-224.5 -59.5q-55 0 -104.5 11t-72.5 27l-91 -434h-260zM341 226q53 -37 119 -37q65 0 125.5 45t106 119.5t72 173.5 t26.5 208q0 62 -28.5 101.5t-78.5 39.5q-38 0 -74 -19.5t-68 -48t-57.5 -65t-44.5 -70.5z" />
<glyph unicode="q" horiz-adv-x="1067" d="M61 296q0 163 52.5 307.5t143 253t211 171.5t254.5 63q102 0 199 -22.5t150 -52.5l-313 -1442h-256l130 592h-8q-21 -36 -52 -70.5t-70.5 -63t-86.5 -45.5t-100 -17q-71 0 -118.5 27t-77.5 72.5t-44 104t-14 122.5zM332 330q0 -66 25 -103.5t67 -37.5q41 0 81 24.5 t75.5 62t64 81t46.5 82.5l84 411q-30 12 -62 17t-63 5q-63 0 -122 -46t-101.5 -122t-68.5 -173.5t-26 -200.5z" />
<glyph unicode="r" horiz-adv-x="730" d="M38 0l226 1065h194l2 -187h9q47 85 114 144.5t169 59.5q45 0 106 -17l-66 -228q-20 6 -39.5 10.5t-41.5 4.5q-87 0 -160.5 -56.5t-111.5 -130.5l-138 -665h-263z" />
<glyph unicode="s" horiz-adv-x="843" d="M-2 41l83 209q43 -24 110 -42.5t141 -18.5q75 0 114.5 29.5t41.5 88.5q0 42 -25.5 73t-65 59t-84.5 56.5t-84.5 65.5t-65 88.5t-25.5 123.5q0 70 27.5 130t78 102.5t122 66t160.5 23.5q124 0 204.5 -18t127.5 -46l-72 -200q-42 19 -103 32t-127 13q-68 0 -107.5 -23.5 t-39.5 -74.5q0 -34 25.5 -60.5t65 -55t84 -57t84 -69t65 -92.5t25.5 -125q0 -177 -115 -263t-306 -86q-108 0 -199 20t-140 51z" />
<glyph unicode="t" horiz-adv-x="681" d="M85 846l51 219h139l42 201l279 78l-59 -279h249l-49 -219h-247l-104 -482q-13 -57 -14 -94q0 -46 21.5 -63.5t64.5 -17.5q40 0 73.5 9t69.5 28v-196q-24 -12 -56.5 -24t-71 -19.5t-79 -12t-75.5 -4.5q-108 0 -166.5 50.5t-58.5 152.5q0 20 3 43.5t7 49.5l124 580h-143z " />
<glyph unicode="u" horiz-adv-x="1089" d="M83 205q0 79 21 171l148 689h262l-140 -658q-12 -64 -12 -106q0 -43 17 -66.5t60 -23.5q36 0 73 18.5t71.5 47t63 63t48.5 69.5l136 656h262l-134 -639q-11 -42 -18.5 -100t-14.5 -118q-6 -60 -8 -116q-1 -28 -1 -51t1 -41h-211l-10 191h-9q-30 -40 -69.5 -79t-87 -71.5 t-104.5 -51.5t-120 -19q-100 0 -162 50.5t-62 184.5z" />
<glyph unicode="v" horiz-adv-x="953" d="M85 1065h289l71 -559l4 -163h7l64 169l291 553h297l-652 -1075h-162z" />
<glyph unicode="w" horiz-adv-x="1443" d="M98 1065h268l34 -535l-12 -189h10l73 191l281 533h195l69 -545l-2 -177h10l65 179l246 543h256l-543 -1075h-194l-74 596v134h-9l-55 -137l-320 -593h-200z" />
<glyph unicode="x" horiz-adv-x="1055" d="M-87 0l441 545l-192 520h296l81 -228l28 -149l93 149l186 228h304l-415 -512l212 -553h-289l-102 256l-32 157l-96 -157l-211 -256h-304z" />
<glyph unicode="y" horiz-adv-x="962" d="M-36 -405l70 209q13 -6 27 -8.5t26 -2.5q51 0 104.5 49.5t106.5 157.5l-200 1065h300l62 -598l2 -166h13l57 168l291 596h278l-511 -957q-64 -119 -120.5 -219t-114 -172.5t-119 -113t-132.5 -40.5q-94 0 -140 32z" />
<glyph unicode="z" horiz-adv-x="925" d="M-28 0l47 230l479 509l152 96h-503l51 230h792l-49 -230l-490 -518l-136 -87h498l-49 -230h-792z" />
<glyph unicode="{" horiz-adv-x="758" d="M138 394l47 213q77 0 128 44t71 137l93 445q24 116 89.5 188t181.5 72h242l-49 -235h-102q-55 0 -86 -29.5t-46 -98.5l-87 -414q-19 -94 -72.5 -142t-110.5 -58l-4 -22q53 -8 83.5 -64t11.5 -145l-87 -413q-15 -69 4 -98.5t77 -29.5h100l-51 -234h-243q-106 0 -147 67 t-13 191l92 437q24 108 -9.5 148.5t-112.5 40.5z" />
<glyph unicode="|" horiz-adv-x="494" d="M201 -277v1768h225v-1768h-225z" />
<glyph unicode="}" horiz-adv-x="764" d="M-160 -490l52 234h102q53 0 82.5 29t45.5 99l89 415q19 94 71.5 142t111.5 59l6 21q-55 8 -87 63.5t-12 145.5l87 412q14 66 -4 97t-75 31h-98l47 235h240q106 0 148 -67t16 -190l-93 -437q-24 -108 10.5 -149t113.5 -41l-45 -213q-162 0 -201 -181l-95 -445 q-24 -115 -93.5 -187.5t-183.5 -72.5h-235z" />
<glyph unicode="~" horiz-adv-x="1075" d="M96 805q100 81 180 111.5t148 30.5q62 0 115 -17.5t102.5 -37.5t97 -38.5t96.5 -18.5q39 0 79.5 12.5t84.5 48.5l100 -219q-77 -57 -141 -80.5t-119 -23.5q-59 0 -110.5 19.5t-99.5 42.5t-96.5 42.5t-104.5 19.5q-50 0 -109 -22.5t-130 -82.5z" />
<glyph unicode="&#xa1;" horiz-adv-x="602" d="M-22 -426l149 701l126 347h166l-19 -347l-149 -701h-273zM0 0zM213 925q0 74 46.5 119t125.5 45q77 0 123.5 -45t46.5 -119q0 -75 -47 -119t-123 -44q-79 0 -125.5 44t-46.5 119z" />
<glyph unicode="&#xa2;" d="M198 337q0 160 40.5 288.5t109.5 224t161 155.5t192 79l41 194h244l-43 -196q98 -19 154 -49l-95 -208q-24 12 -55 20.5t-65 12.5l-138 -649q46 10 88 25.5t69 31.5l51 -179q-45 -36 -109.5 -62.5t-133.5 -39.5l-40 -198h-245l40 194q-71 15 -121.5 48.5t-82.5 82 t-47 106t-15 119.5zM456 422q0 -89 30 -138.5t77 -68.5l134 633q-47 -19 -90.5 -57.5t-77 -94t-53.5 -125t-20 -149.5z" />
<glyph unicode="&#xa3;" d="M63 0l52 232h5q63 2 122 30t103.5 76t71 112t26.5 138v21t-2 21h-250l49 220h150q-10 42 -19 92t-9 119q0 119 45.5 206.5t122.5 143.5t175 82.5t202 26.5q96 0 182 -20t136 -53l-89 -207q-37 18 -100 34.5t-148 16.5q-51 0 -98.5 -18.5t-83 -52t-57 -80.5t-21.5 -107 q0 -62 9 -103.5t21 -79.5h299l-50 -220h-202q0 -8 1 -13t1 -14q0 -106 -44.5 -194t-97.5 -134l-101 -64l-2 -13l143 32h464l-51 -230h-955z" />
<glyph unicode="&#xa4;" d="M83 319l165 167l75 36q-26 45 -40.5 97t-14.5 116q0 62 16.5 115t43.5 102l-80 36l-165 166l162 171l166 -164l40 -79q43 32 102 48t122 16q61 0 122 -16t102 -46l42 77l167 164l164 -171l-164 -166l-79 -33q30 -45 42.5 -101.5t12.5 -118.5q0 -63 -13.5 -120t-41.5 -95 l79 -34l164 -167l-164 -170l-167 164l-38 79q-41 -30 -103.5 -47t-124.5 -17q-63 0 -122 16t-102 46l-40 -77l-166 -164zM500 737q0 -81 49 -132.5t128 -51.5t127 51.5t48 132.5q0 77 -48 130t-127 53t-128 -53t-49 -130z" />
<glyph unicode="&#xa5;" d="M138 256l37 170h264l25 121h-261l35 171h181l-218 773h323l143 -560l-7 -158h11l64 162l368 556h303l-548 -773h186l-36 -171h-266l-26 -121h266l-37 -170h-266l-53 -256h-277l53 256h-264z" />
<glyph unicode="&#xa6;" horiz-adv-x="482" d="M128 -277v730h228v-730h-228zM128 760v731h228v-731h-228z" />
<glyph unicode="&#xa7;" horiz-adv-x="1075" d="M89 63l92 199q43 -24 108 -48.5t152 -24.5q75 0 119.5 29.5t44.5 79.5q0 35 -33 58.5t-82 44.5t-108 45.5t-107.5 58.5t-81.5 84t-33 124q0 96 51 163t119 116l103 34q-47 35 -70.5 82.5t-25.5 101.5q0 63 30.5 120.5t86 99.5t133.5 66t169 24q120 0 198.5 -24t134.5 -55 l-79 -201q-43 24 -114 42.5t-142 18.5q-75 0 -115.5 -30.5t-40.5 -79.5q0 -37 33.5 -59t82 -40.5t106.5 -37.5t107 -51t81.5 -81.5t32.5 -126.5q0 -102 -52 -176t-115 -119l-110 -33q49 -34 72.5 -78t21.5 -112q-2 -147 -117 -227t-304 -80q-118 0 -207.5 29t-140.5 64z M431 748q0 -66 47.5 -102.5t153.5 -70.5q49 26 94 68t45 103q0 36 -12.5 59.5t-38 42.5t-66 35t-93.5 35q-47 -26 -88.5 -68.5t-41.5 -101.5z" />
<glyph unicode="&#xa8;" horiz-adv-x="521" d="M384 1386q0 71 39 110.5t101 39.5t101.5 -39.5t39.5 -110.5q0 -68 -39.5 -106t-101.5 -38q-61 0 -100.5 38t-39.5 106zM827 1388q0 69 39 108.5t101 39.5t101.5 -39.5t39.5 -108.5q0 -68 -39.5 -107t-101.5 -39q-61 0 -100.5 39t-39.5 107z" />
<glyph unicode="&#xa9;" horiz-adv-x="1780" d="M171 618q0 177 59.5 318t162.5 241.5t244 154.5t302 54q162 0 301.5 -54t244 -154.5t164 -241.5t59.5 -318t-59.5 -318.5t-164 -242t-244 -154.5t-301.5 -54q-177 0 -319.5 54t-242.5 154.5t-153 242t-53 318.5zM380 618q0 -132 41 -239t117 -180t177.5 -112.5 t223.5 -39.5t225.5 39.5t179 112.5t117 180t41.5 239t-41.5 238.5t-117 180t-179 113t-225.5 39.5t-223.5 -39.5t-177.5 -113t-117 -180t-41 -238.5zM581 618q0 193 97 298.5t257 105.5q79 0 140 -18t116 -49l-69 -186q-38 18 -69 25t-61 7q-61 0 -97.5 -40.5t-36.5 -142.5 q0 -183 150 -183q40 0 72 7t64 25l61 -188q-46 -30 -117.5 -48t-152.5 -18q-173 0 -263.5 109t-90.5 296z" />
<glyph unicode="&#xaa;" horiz-adv-x="853" d="M128 982q0 73 31.5 120.5t85 77.5t124 43t147.5 13q26 0 51 -1.5t51 -3.5q16 53 -3 86t-89 33q-81 0 -137.5 -14.5t-101.5 -32.5l-29 132q59 30 152.5 51.5t215.5 21.5q128 0 180 -53t52 -132q0 -53 -14.5 -120t-33 -138t-32.5 -138t-14 -118h-191l-6 98h-6 q-31 -37 -88.5 -71.5t-146.5 -34.5q-49 0 -86 15t-62 40.5t-37.5 58t-12.5 67.5zM366 1031q0 -28 16 -46t46 -18q64 0 94.5 24.5t52.5 49.5l15 75q-17 2 -35 3t-35 1q-63 0 -108.5 -19t-45.5 -70z" />
<glyph unicode="&#xab;" horiz-adv-x="990" d="M63 551l427 490l128 -136l-226 -269l-117 -83l77 -78l127 -262l-178 -132zM460 551l426 490l128 -136l-226 -269l-117 -83l77 -78l128 -262l-179 -132z" />
<glyph unicode="&#xac;" horiz-adv-x="1122" d="M140 639v239h942v-482h-255v243h-687z" />
<glyph unicode="&#xad;" horiz-adv-x="730" d="M120 502l53 222h508l-53 -222h-508z" />
<glyph unicode="&#xae;" horiz-adv-x="1475" d="M250 961q0 142 47.5 254t131 188.5t192.5 117t231 40.5q126 0 235.5 -40.5t190.5 -117t128 -188.5t47 -254q0 -145 -48 -257t-130 -188.5t-192 -116t-231 -39.5q-126 0 -236 39.5t-191.5 116t-128 188.5t-46.5 257zM449 961q0 -102 33.5 -180t88.5 -129t127.5 -77 t153.5 -26q85 0 158.5 24.5t127 76t84 129t30.5 182.5q0 102 -31.5 178.5t-86 128t-128 77t-154.5 25.5q-90 0 -164 -27.5t-128 -81.5t-82.5 -129t-28.5 -171zM632 685v553q35 10 96.5 15t117.5 5q89 0 153 -36.5t64 -128.5q0 -69 -43.5 -105t-107.5 -41l59 -29l139 -233 h-130l-134 222l-102 32v-254h-112zM744 1004h71q62 0 96 18.5t34 66.5q1 74 -122 74q-24 0 -45.5 -1t-33.5 -8v-150z" />
<glyph unicode="&#xaf;" horiz-adv-x="666" d="M626 1205l41 197h656l-41 -197h-656z" />
<glyph unicode="&#xb0;" horiz-adv-x="932" d="M258 1167q0 79 27.5 144t75.5 112t111 72t135 25q73 0 137.5 -23t113.5 -69t77 -112t28 -149t-28 -147.5t-77 -110t-114 -69t-137 -23.5t-135 23.5t-111 69t-75.5 110t-27.5 147.5zM471 1167q0 -69 40 -108t98 -39t100.5 39.5t42.5 107.5q0 69 -42.5 110.5t-100.5 41.5 q-57 0 -97.5 -41.5t-40.5 -110.5z" />
<glyph unicode="&#xb1;" horiz-adv-x="1075" d="M124 301v238h939v-238h-939zM124 862v239h345v352h249v-352h345v-239h-345v-226h-249v226h-345z" />
<glyph unicode="&#xb2;" horiz-adv-x="855" d="M205 809l31 152q61 38 142 93t154 117t123 127t50 122q0 37 -20.5 58t-75.5 21t-108.5 -18t-94.5 -42l-29 195q79 44 163 64.5t156 20.5q122 0 188 -55.5t66 -157.5q0 -128 -81 -235t-217 -208l-105 -53v-9l121 23h216l-47 -215h-632zM205 809z" />
<glyph unicode="&#xb3;" horiz-adv-x="855" d="M221 845l85 192q86 -41 177 -41q106 0 149 39.5t43 88.5q0 43 -31 64t-133 21h-87l17 81l183 173l95 51l-118 -13h-231l45 202h573l-29 -132l-218 -197l-75 -37v-10l60 6q74 -2 128 -53t51 -136q0 -90 -33 -156t-91 -108.5t-136.5 -64t-169.5 -21.5q-77 0 -144 13.5 t-110 37.5zM222 795z" />
<glyph unicode="&#xb4;" horiz-adv-x="506" d="M685 1205l177 329h266l-12 -64l-283 -265h-148z" />
<glyph unicode="&#xb5;" horiz-adv-x="1154" d="M-73 -426l315 1491h264l-124 -581q-15 -66 -16 -126q0 -75 34.5 -114t108.5 -39q95 0 161.5 51t109.5 138l145 671h262l-154 -718q-17 -87 -31 -175.5t-12 -171.5h-191l-37 158h-6q-51 -75 -129 -129.5t-184 -54.5q-81 0 -119.5 36.5t-55.5 91.5h-10l-8 -244l-61 -284 h-262z" />
<glyph unicode="&#xb6;" horiz-adv-x="1145" d="M132 1061q0 85 27.5 162.5t79 137.5t124 95t161.5 35h157v-1768h-225v903q-71 0 -130.5 35.5t-103 95.5t-67 138t-23.5 166zM848 -277v1768h227v-1768h-227z" />
<glyph unicode="&#xb7;" horiz-adv-x="538" d="M156 509zM156 672q0 75 46.5 119t122.5 44q79 0 126 -44t47 -119q0 -74 -47 -119t-126 -45q-77 0 -123 45t-46 119z" />
<glyph unicode="&#xb8;" horiz-adv-x="772" d="M502 -435l43 103q108 -10 149 13t41 53q0 68 -166 63l159 203h168l-69 -92q73 -4 111 -44.5t38 -101.5q0 -55 -24.5 -95.5t-66.5 -67.5t-98.5 -39.5t-119.5 -12.5q-81 0 -165 18z" />
<glyph unicode="&#xb9;" horiz-adv-x="855" d="M253 809l45 213h198l77 349l40 98l-77 -67l-134 -79l-72 155l375 241h172l-148 -697h176l-45 -213h-607zM254 809z" />
<glyph unicode="&#xba;" horiz-adv-x="849" d="M128 1063q0 115 39.5 200t103.5 141.5t141.5 84t154.5 27.5q140 0 213.5 -65t73.5 -191q0 -121 -36 -209t-98 -145.5t-142 -85.5t-165 -28q-132 0 -208.5 73.5t-76.5 197.5zM362 1075q-2 -46 21.5 -75t67.5 -29q71 0 120 73.5t49 188.5q0 104 -92 104q-36 0 -65.5 -21 t-53 -56t-36.5 -83.5t-11 -101.5z" />
<glyph unicode="&#xbb;" horiz-adv-x="990" d="M41 211l229 271l118 87l-75 83l-132 264l183 125l234 -470l-425 -490zM433 211l229 271l118 87l-75 83l-132 264l183 125l234 -470l-425 -490z" />
<glyph unicode="&#xbc;" horiz-adv-x="1788" d="M257 1272l380 234h175l-195 -910h-234l120 563l43 97l-75 -67l-134 -77zM258 0zM399 83l918 1440l181 -107l-915 -1446zM866 166l31 143l563 603h186l-117 -557h153l-40 -189h-154l-36 -166h-204l35 166h-417zM1108 339l112 16h106l37 184l38 113h-10l-69 -104l-128 -142 z" />
<glyph unicode="&#xbd;" horiz-adv-x="1835" d="M257 1272l380 234h175l-195 -910h-234l120 563l43 97l-75 -67l-134 -77zM258 0zM401 83l918 1440l181 -107l-915 -1446zM1023 0l31 152q61 38 142 93t154 117t123 127t50 122q0 37 -20.5 58t-75.5 21t-108.5 -18t-94.5 -42l-29 195q79 44 163 64.5t156 20.5 q122 0 188 -55.5t66 -157.5q0 -128 -81 -235t-217 -208l-105 -53v-9l121 23h216l-47 -215h-632z" />
<glyph unicode="&#xbe;" horiz-adv-x="1839" d="M146 632l85 192q86 -41 177 -41q106 0 149 39.5t43 88.5q0 43 -31 64t-133 21h-87l17 81l183 173l95 51l-118 -13h-231l45 202h573l-29 -132l-218 -197l-75 -37v-10l60 6q74 -2 128 -53t51 -136q0 -90 -33 -156t-91 -108.5t-136.5 -64t-169.5 -21.5q-77 0 -144 13.5 t-110 37.5zM147 0zM452 83l918 1440l181 -107l-915 -1446zM920 166l31 143l563 603h186l-117 -557h153l-40 -189h-154l-36 -166h-204l35 166h-417zM1162 339l112 16h106l37 184l38 113h-10l-69 -104l-128 -142z" />
<glyph unicode="&#xbf;" horiz-adv-x="915" d="M-48 -173q0 114 33.5 191.5t87 136t117.5 104.5t122.5 97t105 114.5t64.5 155.5h226q-13 -115 -52.5 -197t-92 -142.5t-110.5 -106.5t-106 -88.5t-80.5 -87.5t-32.5 -104q0 -57 33.5 -89.5t118.5 -32.5q66 0 145 29t138 69l67 -200q-88 -53 -190.5 -90t-248.5 -37 q-179 0 -262 75t-83 203zM0 0zM460 929q0 74 47 119t126 45q77 0 123.5 -45t46.5 -119q0 -75 -46.5 -119t-123.5 -44q-79 0 -126 44t-47 119z" />
<glyph unicode="&#xc0;" horiz-adv-x="1238" d="M-81 0l829 1502h204l194 -1502h-279l-42 330h-435l-177 -330h-294zM0 0zM512 565h301l-33 331l2 234h-11l-86 -236zM577 1789l13 64h298l160 -251h-192z" />
<glyph unicode="&#xc1;" horiz-adv-x="1238" d="M-81 0l829 1502h204l194 -1502h-279l-42 330h-435l-177 -330h-294zM0 0zM512 565h301l-33 331l2 234h-11l-86 -236zM673 1602l267 251h333l-12 -64l-366 -187h-222z" />
<glyph unicode="&#xc2;" horiz-adv-x="1238" d="M-81 0l829 1502h204l194 -1502h-279l-42 330h-435l-177 -330h-294zM0 0zM501 1571l18 86l309 196h186l215 -198l-17 -84h-187l-96 88l-28 73l-57 -71l-144 -90h-199zM512 565h301l-33 331l2 234h-11l-86 -236z" />
<glyph unicode="&#xc3;" horiz-adv-x="1238" d="M-81 0l829 1502h204l194 -1502h-279l-42 330h-435l-177 -330h-294zM0 0zM512 565h301l-33 331l2 234h-11l-86 -236zM513 1704q81 74 147 102t124 28q44 0 85.5 -11.5t81 -25.5t77 -25.5t76.5 -11.5q32 0 64 10t66 41l21 -143q-71 -57 -128 -79t-108 -22q-45 0 -84.5 12 t-78 24.5t-75.5 24.5t-78 12q-38 0 -79.5 -15t-90.5 -56z" />
<glyph unicode="&#xc4;" horiz-adv-x="1238" d="M-81 0l829 1502h204l194 -1502h-279l-42 330h-435l-177 -330h-294zM0 0zM512 565h301l-33 331l2 234h-11l-86 -236zM525 1699q0 62 42.5 93t111.5 31q68 0 110 -30.5t42 -93.5q0 -61 -42.5 -90.5t-109.5 -29.5q-69 0 -111.5 29.5t-42.5 90.5zM959 1699q0 62 43 93t110 31 q69 0 111.5 -30.5t42.5 -93.5q0 -61 -42.5 -90.5t-111.5 -29.5q-68 0 -110.5 29.5t-42.5 90.5z" />
<glyph unicode="&#xc5;" horiz-adv-x="1238" d="M-81 0l814 1476q-68 24 -96 66.5t-28 99.5q0 39 12.5 73.5t44 61.5t83.5 42t133 15q149 0 210.5 -51t61.5 -141q0 -68 -43.5 -118t-153.5 -63l189 -1461h-279l-42 330h-435l-177 -330h-294zM512 565h301l-33 331l2 234h-11l-86 -236zM788 1642q0 -65 94 -65 q53 0 74.5 16.5t21.5 48.5q0 71 -96 71q-94 0 -94 -71z" />
<glyph unicode="&#xc6;" horiz-adv-x="1758" d="M-140 0l1164 1491h283h577l-55 -260h-561l-75 -347h513l-56 -260h-510l-77 -364h573l-55 -260h-557h-294l77 362h-364l-272 -362h-311zM616 598h242l111 530h-12l-95 -199z" />
<glyph unicode="&#xc7;" horiz-adv-x="1142" d="M124 579q0 252 70 430t185 291.5t263 166.5t303 53q122 0 208.5 -18t135.5 -41l-109 -247q-42 24 -102 35t-151 11q-109 0 -203 -44.5t-162 -127t-107.5 -202.5t-39.5 -270q0 -181 90.5 -283.5t242.5 -102.5q95 0 158 20t118 51l5 -240q-139 -89 -334 -91l-47 -62 q73 -4 111 -43.5t38 -100.5q0 -55 -24.5 -95.5t-66 -67.5t-98.5 -39.5t-120 -12.5q-81 0 -165 18l43 103q108 -10 149 13t41 53q0 36 -42.5 49.5t-123.5 11.5l147 188q-104 21 -182 75.5t-129 133t-76.5 177t-25.5 208.5z" />
<glyph unicode="&#xc8;" horiz-adv-x="1071" d="M43 0l315 1491h276h563l-55 -260h-563l-75 -347h514l-57 -260h-510l-79 -364h573l-53 -260h-573h-276zM43 0zM494 1789l13 64h298l160 -251h-192z" />
<glyph unicode="&#xc9;" horiz-adv-x="1071" d="M43 0l315 1491h276h563l-55 -260h-563l-75 -347h514l-57 -260h-510l-79 -364h573l-53 -260h-573h-276zM43 0zM637 1602l267 251h333l-12 -64l-366 -187h-222z" />
<glyph unicode="&#xca;" horiz-adv-x="1071" d="M43 0l315 1491h276h563l-55 -260h-563l-75 -347h514l-57 -260h-510l-79 -364h573l-53 -260h-573h-276zM43 0zM439 1571l18 86l309 196h186l215 -198l-17 -84h-187l-96 88l-28 73l-57 -71l-144 -90h-199z" />
<glyph unicode="&#xcb;" horiz-adv-x="1071" d="M43 0l315 1491h276h563l-55 -260h-563l-75 -347h514l-57 -260h-510l-79 -364h573l-53 -260h-573h-276zM43 0zM448 1699q0 62 42.5 93t111.5 31q68 0 110 -30.5t42 -93.5q0 -61 -42.5 -90.5t-109.5 -29.5q-69 0 -111.5 29.5t-42.5 90.5zM882 1699q0 62 43 93t110 31 q69 0 111.5 -30.5t42.5 -93.5q0 -61 -42.5 -90.5t-111.5 -29.5q-68 0 -110.5 29.5t-42.5 90.5z" />
<glyph unicode="&#xcc;" horiz-adv-x="591" d="M75 0l315 1491h275l-316 -1491h-274zM75 0zM240 1789l13 64h298l160 -251h-192z" />
<glyph unicode="&#xcd;" horiz-adv-x="591" d="M75 0l315 1491h275l-316 -1491h-274zM75 0zM381 1602l267 251h333l-12 -64l-366 -187h-222z" />
<glyph unicode="&#xce;" horiz-adv-x="591" d="M75 0l315 1491h275l-316 -1491h-274zM75 0zM186 1571l18 86l309 196h186l215 -198l-17 -84h-187l-96 88l-28 73l-57 -71l-144 -90h-199z" />
<glyph unicode="&#xcf;" horiz-adv-x="591" d="M75 0l315 1491h275l-316 -1491h-274zM75 0zM196 1699q0 62 42.5 93t111.5 31q68 0 110 -30.5t42 -93.5q0 -61 -42.5 -90.5t-109.5 -29.5q-69 0 -111.5 29.5t-42.5 90.5zM630 1699q0 62 43 93t110 31q69 0 111.5 -30.5t42.5 -93.5q0 -61 -42.5 -90.5t-111.5 -29.5 q-68 0 -110.5 29.5t-42.5 90.5z" />
<glyph unicode="&#xd0;" horiz-adv-x="1362" d="M49 683l36 171h181l134 637q45 7 98 11t101.5 6t77.5 2q21 0 55 1t75 1q132 0 238.5 -32.5t182 -101t117 -175t41.5 -253.5q0 -94 -15.5 -201.5t-54 -216t-105.5 -208.5t-168.5 -176.5t-243 -124t-328.5 -47.5q-32 0 -61.5 1.5t-47.5 1.5q-39 2 -93 5.5t-106.5 6.5 t-77.5 7l145 685h-181zM413 245q8 -2 26.5 -3.5t39.5 -2.5t40.5 -1h29.5q149 -2 253.5 65t169.5 168.5t94 219.5t29 221q0 171 -71.5 255.5t-239.5 84.5q-40 0 -87 -2t-73 -6l-83 -390h282l-37 -171h-282z" />
<glyph unicode="&#xd1;" horiz-adv-x="1343" d="M43 0l319 1502h191l367 -797l66 -232h13l15 232l168 786h263l-321 -1501h-191l-364 790l-71 238h-10l-19 -238l-164 -780h-262zM43 0zM551 1704q81 74 147 102t124 28q44 0 85.5 -11.5t81 -25.5t77 -25.5t76.5 -11.5q32 0 64 10t66 41l21 -143q-71 -57 -128 -79t-108 -22 q-45 0 -84.5 12t-78 24.5t-75.5 24.5t-78 12q-38 0 -79.5 -15t-90.5 -56z" />
<glyph unicode="&#xd2;" horiz-adv-x="1370" d="M124 0zM124 558q0 198 54 374t154.5 307t242 206t315.5 75q116 0 208.5 -33.5t157.5 -105t101 -180t36 -258.5q0 -200 -54.5 -376.5t-153.5 -309.5t-236.5 -210t-302.5 -77q-252 0 -386 148t-136 440zM415 567q0 -153 58.5 -245t193.5 -92q97 0 177.5 58.5t137.5 157.5 t88 227t31 266q0 169 -66 245t-181 76q-96 0 -176 -55t-138 -149.5t-91.5 -221.5t-33.5 -267zM617 1789l13 64h298l160 -251h-192z" />
<glyph unicode="&#xd3;" horiz-adv-x="1370" d="M124 0zM124 558q0 198 54 374t154.5 307t242 206t315.5 75q116 0 208.5 -33.5t157.5 -105t101 -180t36 -258.5q0 -200 -54.5 -376.5t-153.5 -309.5t-236.5 -210t-302.5 -77q-252 0 -386 148t-136 440zM415 567q0 -153 58.5 -245t193.5 -92q97 0 177.5 58.5t137.5 157.5 t88 227t31 266q0 169 -66 245t-181 76q-96 0 -176 -55t-138 -149.5t-91.5 -221.5t-33.5 -267zM780 1602l267 251h333l-12 -64l-366 -187h-222z" />
<glyph unicode="&#xd4;" horiz-adv-x="1370" d="M124 0zM124 558q0 198 54 374t154.5 307t242 206t315.5 75q116 0 208.5 -33.5t157.5 -105t101 -180t36 -258.5q0 -200 -54.5 -376.5t-153.5 -309.5t-236.5 -210t-302.5 -77q-252 0 -386 148t-136 440zM415 567q0 -153 58.5 -245t193.5 -92q97 0 177.5 58.5t137.5 157.5 t88 227t31 266q0 169 -66 245t-181 76q-96 0 -176 -55t-138 -149.5t-91.5 -221.5t-33.5 -267zM576 1571l18 86l309 196h186l215 -198l-17 -84h-187l-96 88l-28 73l-57 -71l-144 -90h-199z" />
<glyph unicode="&#xd5;" horiz-adv-x="1370" d="M124 0zM124 558q0 198 54 374t154.5 307t242 206t315.5 75q116 0 208.5 -33.5t157.5 -105t101 -180t36 -258.5q0 -200 -54.5 -376.5t-153.5 -309.5t-236.5 -210t-302.5 -77q-252 0 -386 148t-136 440zM415 567q0 -153 58.5 -245t193.5 -92q97 0 177.5 58.5t137.5 157.5 t88 227t31 266q0 169 -66 245t-181 76q-96 0 -176 -55t-138 -149.5t-91.5 -221.5t-33.5 -267zM570 1704q81 74 147 102t124 28q44 0 85.5 -11.5t81 -25.5t77 -25.5t76.5 -11.5q32 0 64 10t66 41l21 -143q-71 -57 -128 -79t-108 -22q-45 0 -84.5 12t-78 24.5t-75.5 24.5 t-78 12q-38 0 -79.5 -15t-90.5 -56z" />
<glyph unicode="&#xd6;" horiz-adv-x="1370" d="M124 0zM124 558q0 198 54 374t154.5 307t242 206t315.5 75q116 0 208.5 -33.5t157.5 -105t101 -180t36 -258.5q0 -200 -54.5 -376.5t-153.5 -309.5t-236.5 -210t-302.5 -77q-252 0 -386 148t-136 440zM415 567q0 -153 58.5 -245t193.5 -92q97 0 177.5 58.5t137.5 157.5 t88 227t31 266q0 169 -66 245t-181 76q-96 0 -176 -55t-138 -149.5t-91.5 -221.5t-33.5 -267zM575 1699q0 62 42.5 93t111.5 31q68 0 110 -30.5t42 -93.5q0 -61 -42.5 -90.5t-109.5 -29.5q-69 0 -111.5 29.5t-42.5 90.5zM1009 1699q0 62 43 93t110 31q69 0 111.5 -30.5 t42.5 -93.5q0 -61 -42.5 -90.5t-111.5 -29.5q-68 0 -110.5 29.5t-42.5 90.5z" />
<glyph unicode="&#xd7;" horiz-adv-x="1075" d="M140 443l279 279l-274 270l166 173l279 -277l277 277l168 -173l-277 -270l277 -275l-168 -175l-277 279l-281 -281z" />
<glyph unicode="&#xd8;" horiz-adv-x="1370" d="M122 126l71 89q-34 69 -51.5 154t-17.5 189q0 198 54 374t154.5 307t242 206t315.5 75q183 0 303 -85l57 69l154 -132l-79 -96q32 -63 50 -146.5t18 -186.5q0 -200 -54.5 -376.5t-153.5 -309.5t-236.5 -210t-302.5 -77q-192 0 -318 87l-58 -67zM415 526q0 -20 4 -38 l591 722q-62 50 -156 50q-96 0 -176 -55t-138 -149.5t-91.5 -221.5t-33.5 -267v-41zM509 281q59 -51 158 -51q97 0 177.5 58.5t137.5 157.5t88 227t31 266v31t-2 29z" />
<glyph unicode="&#xd9;" horiz-adv-x="1281" d="M134 0zM134 370q0 43 5.5 87.5t16.5 93.5l200 940h274l-195 -938q-17 -81 -18 -131q0 -102 53.5 -145t155.5 -43q128 0 198 75t107 240l199 942h260l-201 -963q-33 -153 -83.5 -258.5t-123.5 -171.5t-171 -95t-225 -29q-124 0 -209 29t-139.5 82t-79 125.5t-24.5 159.5z M573 1789l13 64h298l160 -251h-192z" />
<glyph unicode="&#xda;" horiz-adv-x="1281" d="M134 0zM134 370q0 43 5.5 87.5t16.5 93.5l200 940h274l-195 -938q-17 -81 -18 -131q0 -102 53.5 -145t155.5 -43q128 0 198 75t107 240l199 942h260l-201 -963q-33 -153 -83.5 -258.5t-123.5 -171.5t-171 -95t-225 -29q-124 0 -209 29t-139.5 82t-79 125.5t-24.5 159.5z M771 1602l267 251h333l-12 -64l-366 -187h-222z" />
<glyph unicode="&#xdb;" horiz-adv-x="1281" d="M134 0zM134 370q0 43 5.5 87.5t16.5 93.5l200 940h274l-195 -938q-17 -81 -18 -131q0 -102 53.5 -145t155.5 -43q128 0 198 75t107 240l199 942h260l-201 -963q-33 -153 -83.5 -258.5t-123.5 -171.5t-171 -95t-225 -29q-124 0 -209 29t-139.5 82t-79 125.5t-24.5 159.5z M545 1571l18 86l309 196h186l215 -198l-17 -84h-187l-96 88l-28 73l-57 -71l-144 -90h-199z" />
<glyph unicode="&#xdc;" horiz-adv-x="1281" d="M134 0zM134 370q0 43 5.5 87.5t16.5 93.5l200 940h274l-195 -938q-17 -81 -18 -131q0 -102 53.5 -145t155.5 -43q128 0 198 75t107 240l199 942h260l-201 -963q-33 -153 -83.5 -258.5t-123.5 -171.5t-171 -95t-225 -29q-124 0 -209 29t-139.5 82t-79 125.5t-24.5 159.5z M545 1699q0 62 42.5 93t111.5 31q68 0 110 -30.5t42 -93.5q0 -61 -42.5 -90.5t-109.5 -29.5q-69 0 -111.5 29.5t-42.5 90.5zM979 1699q0 62 43 93t110 31q69 0 111.5 -30.5t42.5 -93.5q0 -61 -42.5 -90.5t-111.5 -29.5q-68 0 -110.5 29.5t-42.5 90.5z" />
<glyph unicode="&#xdd;" horiz-adv-x="1211" d="M226 0zM226 1491h306l139 -560l-4 -158h8l67 162l372 556h317l-662 -935l-117 -556h-276l116 553zM694 1602l267 251h333l-12 -64l-366 -187h-222z" />
<glyph unicode="&#xde;" horiz-adv-x="1171" d="M43 0l317 1491h274l-31 -151q28 2 55 2h55q109 0 202 -24.5t162 -75.5t107.5 -131t38.5 -191q0 -166 -57.5 -278t-152.5 -181t-216.5 -97.5t-247.5 -28.5h-32.5t-47 1t-47 2t-32.5 3l-71 -341h-276zM445 596q8 -2 23.5 -4t33.5 -3t33.5 -2t25.5 -1q72 0 138.5 15 t118 49.5t82.5 92.5t31 141q0 63 -20.5 102.5t-54 62t-80 31.5t-97.5 9q-38 0 -73 -3.5t-59 -8.5q-26 -121 -51 -240t-51 -241z" />
<glyph unicode="&#xdf;" horiz-adv-x="1294" d="M-275 -384l72 195q37 -15 73 -19.5t92 -4.5q68 0 105 53.5t55 159.5l150 848h-174l42 217h173l13 59q26 122 74.5 196.5t117 116t153.5 56.5t185 15q108 0 183 -23.5t121.5 -63t68 -91.5t21.5 -112q0 -75 -24.5 -128t-61 -91t-80 -66t-79.5 -53.5t-60.5 -53t-24.5 -64.5 q0 -36 24.5 -59.5t60.5 -42.5t79.5 -40.5t80 -54.5t61 -82.5t24.5 -126.5q0 -84 -37.5 -155t-102 -122t-153 -80t-191.5 -29q-87 0 -172 24.5t-138 60.5l119 207q45 -28 95 -49.5t122 -21.5q33 0 64.5 11t57 30.5t41.5 48t16 64.5q0 41 -24.5 67.5t-61.5 48t-81 43.5 t-81.5 53t-62 75.5t-24.5 113.5q0 61 24.5 107t62 80t80.5 60.5t80 52t61.5 54t24.5 67.5q0 49 -38.5 79t-110.5 30q-102 0 -164 -55.5t-85 -181.5l-189 -1039q-19 -108 -45 -191.5t-69.5 -139t-107.5 -84t-158 -28.5q-77 0 -150.5 12t-126.5 47z" />
<glyph unicode="&#xe0;" horiz-adv-x="1071" d="M71 0zM71 307q0 156 39 298.5t122 251t210 173.5t302 65q74 0 162 -14t171 -37l-132 -618q-16 -81 -23.5 -164t-7.5 -158q0 -30 1 -56.5t3 -49.5h-194l-29 183h-10q-24 -39 -60.5 -75.5t-81.5 -68t-95 -49.5t-103 -18q-140 0 -207 91.5t-67 245.5zM341 358 q0 -69 22.5 -119t81.5 -50q39 0 72.5 16.5t62.5 41.5t51.5 55t39.5 56l107 496q-24 10 -54.5 16t-61.5 6q-76 0 -135.5 -46t-101 -120t-63 -166.5t-21.5 -185.5zM486 1470l15 64h274l52 -329h-147z" />
<glyph unicode="&#xe1;" horiz-adv-x="1071" d="M71 0zM71 307q0 156 39 298.5t122 251t210 173.5t302 65q74 0 162 -14t171 -37l-132 -618q-16 -81 -23.5 -164t-7.5 -158q0 -30 1 -56.5t3 -49.5h-194l-29 183h-10q-24 -39 -60.5 -75.5t-81.5 -68t-95 -49.5t-103 -18q-140 0 -207 91.5t-67 245.5zM341 358 q0 -69 22.5 -119t81.5 -50q39 0 72.5 16.5t62.5 41.5t51.5 55t39.5 56l107 496q-24 10 -54.5 16t-61.5 6q-76 0 -135.5 -46t-101 -120t-63 -166.5t-21.5 -185.5zM636 1205l177 329h266l-12 -64l-283 -265h-148z" />
<glyph unicode="&#xe2;" horiz-adv-x="1071" d="M71 0zM71 307q0 156 39 298.5t122 251t210 173.5t302 65q74 0 162 -14t171 -37l-132 -618q-16 -81 -23.5 -164t-7.5 -158q0 -30 1 -56.5t3 -49.5h-194l-29 183h-10q-24 -39 -60.5 -75.5t-81.5 -68t-95 -49.5t-103 -18q-140 0 -207 91.5t-67 245.5zM341 358 q0 -69 22.5 -119t81.5 -50q39 0 72.5 16.5t62.5 41.5t51.5 55t39.5 56l107 496q-24 10 -54.5 16t-61.5 6q-76 0 -135.5 -46t-101 -120t-63 -166.5t-21.5 -185.5zM405 1171l332 388h175l143 -388h-205l-51 141l-9 104l-57 -104l-121 -141h-207z" />
<glyph unicode="&#xe3;" horiz-adv-x="1071" d="M71 0zM71 307q0 156 39 298.5t122 251t210 173.5t302 65q74 0 162 -14t171 -37l-132 -618q-16 -81 -23.5 -164t-7.5 -158q0 -30 1 -56.5t3 -49.5h-194l-29 183h-10q-24 -39 -60.5 -75.5t-81.5 -68t-95 -49.5t-103 -18q-140 0 -207 91.5t-67 245.5zM341 358 q0 -69 22.5 -119t81.5 -50q39 0 72.5 16.5t62.5 41.5t51.5 55t39.5 56l107 496q-24 10 -54.5 16t-61.5 6q-76 0 -135.5 -46t-101 -120t-63 -166.5t-21.5 -185.5zM420 1402q75 79 131 108.5t103 29.5q39 0 71.5 -15t66 -32t66 -31.5t71.5 -14.5q30 0 64.5 12.5t77.5 44.5 l9 -149q-68 -69 -121 -95.5t-98 -26.5q-38 0 -72.5 13.5t-68.5 31t-68 31.5t-73 14q-32 0 -70 -13t-81 -47z" />
<glyph unicode="&#xe4;" horiz-adv-x="1071" d="M71 0zM71 307q0 156 39 298.5t122 251t210 173.5t302 65q74 0 162 -14t171 -37l-132 -618q-16 -81 -23.5 -164t-7.5 -158q0 -30 1 -56.5t3 -49.5h-194l-29 183h-10q-24 -39 -60.5 -75.5t-81.5 -68t-95 -49.5t-103 -18q-140 0 -207 91.5t-67 245.5zM341 358 q0 -69 22.5 -119t81.5 -50q39 0 72.5 16.5t62.5 41.5t51.5 55t39.5 56l107 496q-24 10 -54.5 16t-61.5 6q-76 0 -135.5 -46t-101 -120t-63 -166.5t-21.5 -185.5zM365 1386q0 71 39 110.5t101 39.5t101.5 -39.5t39.5 -110.5q0 -68 -39.5 -106t-101.5 -38q-61 0 -100.5 38 t-39.5 106zM808 1388q0 69 39 108.5t101 39.5t101.5 -39.5t39.5 -108.5q0 -68 -39.5 -107t-101.5 -39q-61 0 -100.5 39t-39.5 107z" />
<glyph unicode="&#xe5;" horiz-adv-x="1071" d="M71 0zM71 307q0 156 39 298.5t122 251t210 173.5t302 65q74 0 162 -14t171 -37l-132 -618q-16 -81 -23.5 -164t-7.5 -158q0 -30 1 -56.5t3 -49.5h-194l-29 183h-10q-24 -39 -60.5 -75.5t-81.5 -68t-95 -49.5t-103 -18q-140 0 -207 91.5t-67 245.5zM341 358 q0 -69 22.5 -119t81.5 -50q39 0 72.5 16.5t62.5 41.5t51.5 55t39.5 56l107 496q-24 10 -54.5 16t-61.5 6q-76 0 -135.5 -46t-101 -120t-63 -166.5t-21.5 -185.5zM543 1378q0 89 61 147t176 58q109 0 172.5 -52.5t63.5 -152.5q0 -83 -62.5 -141.5t-173.5 -58.5 q-113 0 -175 54t-62 146zM697 1378q0 -34 24.5 -52.5t58.5 -18.5q37 0 60.5 17.5t23.5 53.5t-25 54.5t-59 18.5t-58.5 -17.5t-24.5 -55.5z" />
<glyph unicode="&#xe6;" horiz-adv-x="1583" d="M36 252q0 104 47 178t128 121t187 69.5t228 22.5h35t36 -2q24 81 23 125q0 51 -32 76t-109 25q-70 0 -148.5 -17t-147.5 -45l-38 199q88 42 202 62t220 20q97 0 165.5 -31t96.5 -96q61 65 153.5 100.5t189.5 35.5q89 0 152 -20t102 -56.5t57.5 -84.5t18.5 -105 q0 -120 -56.5 -192t-152.5 -113.5t-221.5 -57t-262.5 -15.5q-2 -16 -3 -32.5t-1 -30.5q0 -96 49.5 -147.5t161.5 -51.5q81 0 152.5 22.5t113.5 48.5l49 -183q-73 -51 -182 -79t-218 -28q-141 0 -227 51.5t-123 142.5h-10q-69 -77 -158 -129t-210 -52q-71 0 -121 22.5 t-81.5 59.5t-48 86.5t-16.5 100.5zM307 315q0 -57 29.5 -82.5t78.5 -25.5q38 0 73.5 15.5t65 38t53 47t39.5 44.5l19 123q-17 2 -35 2h-36q-122 0 -204.5 -39.5t-82.5 -122.5zM952 622q68 0 138.5 3t128 19t93.5 49t36 91q0 37 -25.5 67.5t-95.5 30.5q-113 0 -178 -76 t-97 -184z" />
<glyph unicode="&#xe7;" horiz-adv-x="876" d="M73 337q0 179 51 319.5t135 237t191.5 149t220.5 52.5q100 0 158.5 -19t105.5 -43l-98 -208q-40 24 -84 31.5t-95 7.5q-57 0 -111.5 -37t-98 -97.5t-69 -142t-25.5 -165.5q0 -108 46.5 -164.5t123.5 -56.5q64 0 118.5 19.5t96.5 45.5l49 -179q-55 -40 -123.5 -69.5 t-140.5 -41.5l-51 -68q73 -4 111 -43.5t38 -100.5q0 -55 -24.5 -95.5t-66 -67.5t-98.5 -39.5t-120 -12.5q-81 0 -164 18l42 103q109 -10 150 13t41 53q0 36 -43 49.5t-124 11.5l141 182q-77 13 -130 45.5t-87.5 80.5t-50 107.5t-15.5 124.5z" />
<glyph unicode="&#xe8;" horiz-adv-x="992" d="M73 0zM73 354q0 170 53 307.5t139.5 233t195 148t216.5 52.5q87 0 150 -22.5t103.5 -62t60 -90.5t19.5 -109q0 -87 -45 -153t-125 -110t-192.5 -66t-247.5 -22q-16 0 -31 1t-32 1q-4 -26 -6.5 -46t-2.5 -36q0 -96 50 -143.5t142 -47.5q94 0 168 28t113 55l55 -170 q-66 -55 -170.5 -93.5t-242.5 -38.5q-173 0 -271.5 101.5t-98.5 282.5zM374 628q60 0 127.5 4t124.5 20.5t95.5 47t38.5 84.5q0 32 -23.5 65t-97.5 33q-94 0 -163 -73t-102 -181zM443 1470l15 64h274l52 -329h-147z" />
<glyph unicode="&#xe9;" horiz-adv-x="992" d="M73 0zM73 354q0 170 53 307.5t139.5 233t195 148t216.5 52.5q87 0 150 -22.5t103.5 -62t60 -90.5t19.5 -109q0 -87 -45 -153t-125 -110t-192.5 -66t-247.5 -22q-16 0 -31 1t-32 1q-4 -26 -6.5 -46t-2.5 -36q0 -96 50 -143.5t142 -47.5q94 0 168 28t113 55l55 -170 q-66 -55 -170.5 -93.5t-242.5 -38.5q-173 0 -271.5 101.5t-98.5 282.5zM374 628q60 0 127.5 4t124.5 20.5t95.5 47t38.5 84.5q0 32 -23.5 65t-97.5 33q-94 0 -163 -73t-102 -181zM602 1205l177 329h266l-12 -64l-283 -265h-148z" />
<glyph unicode="&#xea;" horiz-adv-x="992" d="M73 0zM73 354q0 170 53 307.5t139.5 233t195 148t216.5 52.5q87 0 150 -22.5t103.5 -62t60 -90.5t19.5 -109q0 -87 -45 -153t-125 -110t-192.5 -66t-247.5 -22q-16 0 -31 1t-32 1q-4 -26 -6.5 -46t-2.5 -36q0 -96 50 -143.5t142 -47.5q94 0 168 28t113 55l55 -170 q-66 -55 -170.5 -93.5t-242.5 -38.5q-173 0 -271.5 101.5t-98.5 282.5zM356 1171l332 388h175l143 -388h-205l-51 141l-9 104l-57 -104l-121 -141h-207zM374 628q60 0 127.5 4t124.5 20.5t95.5 47t38.5 84.5q0 32 -23.5 65t-97.5 33q-94 0 -163 -73t-102 -181z" />
<glyph unicode="&#xeb;" horiz-adv-x="992" d="M73 0zM73 354q0 170 53 307.5t139.5 233t195 148t216.5 52.5q87 0 150 -22.5t103.5 -62t60 -90.5t19.5 -109q0 -87 -45 -153t-125 -110t-192.5 -66t-247.5 -22q-16 0 -31 1t-32 1q-4 -26 -6.5 -46t-2.5 -36q0 -96 50 -143.5t142 -47.5q94 0 168 28t113 55l55 -170 q-66 -55 -170.5 -93.5t-242.5 -38.5q-173 0 -271.5 101.5t-98.5 282.5zM350 1386q0 71 39 110.5t101 39.5t101.5 -39.5t39.5 -110.5q0 -68 -39.5 -106t-101.5 -38q-61 0 -100.5 38t-39.5 106zM374 628q60 0 127.5 4t124.5 20.5t95.5 47t38.5 84.5q0 32 -23.5 65t-97.5 33 q-94 0 -163 -73t-102 -181zM793 1388q0 69 39 108.5t101 39.5t101.5 -39.5t39.5 -108.5q0 -68 -39.5 -107t-101.5 -39q-61 0 -100.5 39t-39.5 107z" />
<glyph unicode="&#xec;" horiz-adv-x="544" d="M57 0l226 1065h262l-226 -1065h-262zM57 0zM223 1470l15 64h274l52 -329h-147z" />
<glyph unicode="&#xed;" horiz-adv-x="544" d="M57 0l226 1065h262l-226 -1065h-262zM57 0zM329 1205l177 329h266l-12 -64l-283 -265h-148z" />
<glyph unicode="&#xee;" horiz-adv-x="544" d="M57 0l226 1065h262l-226 -1065h-262zM57 0zM102 1171l332 388h175l143 -388h-205l-51 141l-9 104l-57 -104l-121 -141h-207z" />
<glyph unicode="&#xef;" horiz-adv-x="544" d="M57 0l226 1065h262l-226 -1065h-262zM57 0zM118 1386q0 71 39 110.5t101 39.5t101.5 -39.5t39.5 -110.5q0 -68 -39.5 -106t-101.5 -38q-61 0 -100.5 38t-39.5 106zM561 1388q0 69 39 108.5t101 39.5t101.5 -39.5t39.5 -108.5q0 -68 -39.5 -107t-101.5 -39 q-61 0 -100.5 39t-39.5 107z" />
<glyph unicode="&#xf0;" horiz-adv-x="1081" d="M79 366q0 149 43.5 277t117 222t170 146t206.5 52q146 0 215 -81q4 68 -9 124.5t-36 105.5l-160 -66l-68 114l149 63q-38 38 -84 65.5t-95 44.5l207 87q96 -36 174 -114l156 64l59 -115l-136 -58q36 -66 57.5 -147t21.5 -177q0 -262 -50 -451.5t-135 -312t-197 -181 t-236 -58.5q-170 0 -270 101.5t-100 294.5zM349 376q0 -89 35 -138t98 -49q83 0 141 60t94.5 146.5t53.5 184t15 172.5q-16 43 -55.5 68.5t-96.5 25.5q-63 0 -115 -41t-89.5 -107t-59 -150t-21.5 -172z" />
<glyph unicode="&#xf1;" horiz-adv-x="1109" d="M30 0l226 1065h198l-11 -187h9q28 34 65.5 72t86 70t109.5 53.5t137 21.5q96 0 153.5 -52.5t57.5 -173.5q0 -32 -3 -68.5t-14 -78.5l-153 -722h-263l142 660q12 60 12 104q0 47 -19 73.5t-70 26.5q-39 0 -77 -18.5t-72 -51t-64 -72t-51 -79.5l-136 -643h-263zM30 0z M433 1402q75 79 131 108.5t103 29.5q39 0 71.5 -15t66 -32t66 -31.5t71.5 -14.5q30 0 64.5 12.5t77.5 44.5l9 -149q-68 -69 -121 -95.5t-98 -26.5q-38 0 -72.5 13.5t-68.5 31t-68 31.5t-73 14q-32 0 -70 -13t-81 -47z" />
<glyph unicode="&#xf2;" horiz-adv-x="1055" d="M73 0zM73 345q0 169 47.5 307t127.5 236t185.5 152.5t220.5 54.5q102 0 172 -32t114 -85t63 -121.5t19 -140.5q0 -167 -46.5 -304t-125.5 -235t-183 -152.5t-220 -54.5q-100 0 -170 33t-116 86t-67 120.5t-21 135.5zM343 382q0 -192 139 -193q50 0 99 45t87.5 117.5 t61 164t22.5 183.5q0 85 -28.5 131t-107.5 46q-51 0 -100 -43t-87.5 -112t-62 -158.5t-23.5 -180.5zM460 1470l15 64h274l52 -329h-147z" />
<glyph unicode="&#xf3;" horiz-adv-x="1055" d="M73 0zM73 345q0 169 47.5 307t127.5 236t185.5 152.5t220.5 54.5q102 0 172 -32t114 -85t63 -121.5t19 -140.5q0 -167 -46.5 -304t-125.5 -235t-183 -152.5t-220 -54.5q-100 0 -170 33t-116 86t-67 120.5t-21 135.5zM343 382q0 -192 139 -193q50 0 99 45t87.5 117.5 t61 164t22.5 183.5q0 85 -28.5 131t-107.5 46q-51 0 -100 -43t-87.5 -112t-62 -158.5t-23.5 -180.5zM598 1205l177 329h266l-12 -64l-283 -265h-148z" />
<glyph unicode="&#xf4;" horiz-adv-x="1055" d="M73 0zM73 345q0 169 47.5 307t127.5 236t185.5 152.5t220.5 54.5q102 0 172 -32t114 -85t63 -121.5t19 -140.5q0 -167 -46.5 -304t-125.5 -235t-183 -152.5t-220 -54.5q-100 0 -170 33t-116 86t-67 120.5t-21 135.5zM343 382q0 -192 139 -193q50 0 99 45t87.5 117.5 t61 164t22.5 183.5q0 85 -28.5 131t-107.5 46q-51 0 -100 -43t-87.5 -112t-62 -158.5t-23.5 -180.5zM349 1171l332 388h175l143 -388h-205l-51 141l-9 104l-57 -104l-121 -141h-207z" />
<glyph unicode="&#xf5;" horiz-adv-x="1055" d="M73 0zM73 345q0 169 47.5 307t127.5 236t185.5 152.5t220.5 54.5q102 0 172 -32t114 -85t63 -121.5t19 -140.5q0 -167 -46.5 -304t-125.5 -235t-183 -152.5t-220 -54.5q-100 0 -170 33t-116 86t-67 120.5t-21 135.5zM343 382q0 -192 139 -193q50 0 99 45t87.5 117.5 t61 164t22.5 183.5q0 85 -28.5 131t-107.5 46q-51 0 -100 -43t-87.5 -112t-62 -158.5t-23.5 -180.5zM382 1402q75 79 131 108.5t103 29.5q39 0 71.5 -15t66 -32t66 -31.5t71.5 -14.5q30 0 64.5 12.5t77.5 44.5l9 -149q-68 -69 -121 -95.5t-98 -26.5q-38 0 -72.5 13.5 t-68.5 31t-68 31.5t-73 14q-32 0 -70 -13t-81 -47z" />
<glyph unicode="&#xf6;" horiz-adv-x="1055" d="M73 0zM73 345q0 169 47.5 307t127.5 236t185.5 152.5t220.5 54.5q102 0 172 -32t114 -85t63 -121.5t19 -140.5q0 -167 -46.5 -304t-125.5 -235t-183 -152.5t-220 -54.5q-100 0 -170 33t-116 86t-67 120.5t-21 135.5zM343 382q0 -192 139 -193q50 0 99 45t87.5 117.5 t61 164t22.5 183.5q0 85 -28.5 131t-107.5 46q-51 0 -100 -43t-87.5 -112t-62 -158.5t-23.5 -180.5zM352 1386q0 71 39 110.5t101 39.5t101.5 -39.5t39.5 -110.5q0 -68 -39.5 -106t-101.5 -38q-61 0 -100.5 38t-39.5 106zM795 1388q0 69 39 108.5t101 39.5t101.5 -39.5 t39.5 -108.5q0 -68 -39.5 -107t-101.5 -39q-61 0 -100.5 39t-39.5 107z" />
<glyph unicode="&#xf7;" horiz-adv-x="1075" d="M124 601v238h941v-238h-941zM422 309q0 75 47 118.5t123 43.5q79 0 125.5 -43.5t46.5 -118.5t-46.5 -119.5t-125.5 -44.5q-77 0 -123.5 44.5t-46.5 119.5zM422 1134q0 74 47 117.5t123 43.5q79 0 125.5 -44t46.5 -117q0 -75 -46.5 -120t-125.5 -45q-77 0 -123.5 45 t-46.5 120z" />
<glyph unicode="&#xf8;" horiz-adv-x="1055" d="M0 77l100 114q-27 71 -27 154q0 169 47.5 307t127.5 236t185.5 152.5t220.5 54.5q69 0 122 -15t93 -41l72 81l136 -126l-89 -100q34 -81 34 -178q0 -167 -46.5 -304t-125.5 -235t-183 -152.5t-220 -54.5q-73 0 -129 18t-99 48l-79 -87zM343 413l375 422q-35 41 -102 41 q-49 0 -96 -39.5t-84.5 -103.5t-63 -147.5t-29.5 -172.5zM374 242q35 -53 108 -53q48 0 95 41.5t84.5 109t62 152.5t28.5 173z" />
<glyph unicode="&#xf9;" horiz-adv-x="1089" d="M83 0zM83 205q0 79 21 171l148 689h262l-140 -658q-12 -64 -12 -106q0 -43 17 -66.5t60 -23.5q36 0 73 18.5t71.5 47t63 63t48.5 69.5l136 656h262l-134 -639q-11 -42 -18.5 -100t-14 -118.5t-8.5 -116t0 -91.5h-211l-10 191h-9q-30 -40 -69.5 -79t-87 -71.5 t-104.5 -51.5t-120 -19q-100 0 -162 50.5t-62 184.5zM453 1470l15 64h274l52 -329h-147z" />
<glyph unicode="&#xfa;" horiz-adv-x="1089" d="M83 0zM83 205q0 79 21 171l148 689h262l-140 -658q-12 -64 -12 -106q0 -43 17 -66.5t60 -23.5q36 0 73 18.5t71.5 47t63 63t48.5 69.5l136 656h262l-134 -639q-11 -42 -18.5 -100t-14 -118.5t-8.5 -116t0 -91.5h-211l-10 191h-9q-30 -40 -69.5 -79t-87 -71.5 t-104.5 -51.5t-120 -19q-100 0 -162 50.5t-62 184.5zM572 1205l177 329h266l-12 -64l-283 -265h-148z" />
<glyph unicode="&#xfb;" horiz-adv-x="1089" d="M83 0zM83 205q0 79 21 171l148 689h262l-140 -658q-12 -64 -12 -106q0 -43 17 -66.5t60 -23.5q36 0 73 18.5t71.5 47t63 63t48.5 69.5l136 656h262l-134 -639q-11 -42 -18.5 -100t-14 -118.5t-8.5 -116t0 -91.5h-211l-10 191h-9q-30 -40 -69.5 -79t-87 -71.5 t-104.5 -51.5t-120 -19q-100 0 -162 50.5t-62 184.5zM362 1171l332 388h175l143 -388h-205l-51 141l-9 104l-57 -104l-121 -141h-207z" />
<glyph unicode="&#xfc;" horiz-adv-x="1089" d="M83 0zM83 205q0 79 21 171l148 689h262l-140 -658q-12 -64 -12 -106q0 -43 17 -66.5t60 -23.5q36 0 73 18.5t71.5 47t63 63t48.5 69.5l136 656h262l-134 -639q-11 -42 -18.5 -100t-14 -118.5t-8.5 -116t0 -91.5h-211l-10 191h-9q-30 -40 -69.5 -79t-87 -71.5 t-104.5 -51.5t-120 -19q-100 0 -162 50.5t-62 184.5zM369 1386q0 71 39 110.5t101 39.5t101.5 -39.5t39.5 -110.5q0 -68 -39.5 -106t-101.5 -38q-61 0 -100.5 38t-39.5 106zM812 1388q0 69 39 108.5t101 39.5t101.5 -39.5t39.5 -108.5q0 -68 -39.5 -107t-101.5 -39 q-61 0 -100.5 39t-39.5 107z" />
<glyph unicode="&#xfd;" horiz-adv-x="962" d="M-36 -405l70 209q13 -6 27 -8.5t26 -2.5q51 0 104.5 49.5t106.5 157.5l-200 1065h300l62 -598l2 -166h13l57 168l291 596h278l-511 -957q-64 -119 -120.5 -219t-114 -172.5t-119 -113t-132.5 -40.5q-94 0 -140 32zM0 0zM527 1205l177 329h266l-12 -64l-283 -265h-148z " />
<glyph unicode="&#xfe;" horiz-adv-x="1077" d="M-55 -426l407 1917h262l-132 -571h8q26 35 57.5 66.5t72 55t89.5 38.5t111 15q108 0 174.5 -75t66.5 -234q0 -181 -48 -331t-128 -258t-187.5 -167.5t-224.5 -59.5q-55 0 -104.5 11t-72.5 27l-91 -434h-260zM341 226q53 -37 119 -37q65 0 124 45t102.5 119.5t69.5 173.5 t26 208q0 62 -24.5 101.5t-74.5 39.5q-38 0 -74 -19.5t-68 -48t-57.5 -65t-44.5 -70.5z" />
<glyph unicode="&#xff;" horiz-adv-x="962" d="M-36 -405l70 209q13 -6 27 -8.5t26 -2.5q51 0 104.5 49.5t106.5 157.5l-200 1065h300l62 -598l2 -166h13l57 168l291 596h278l-511 -957q-64 -119 -120.5 -219t-114 -172.5t-119 -113t-132.5 -40.5q-94 0 -140 32zM0 0zM280 1386q0 71 39 110.5t101 39.5t101.5 -39.5 t39.5 -110.5q0 -68 -39.5 -106t-101.5 -38q-61 0 -100.5 38t-39.5 106zM723 1388q0 69 39 108.5t101 39.5t101.5 -39.5t39.5 -108.5q0 -68 -39.5 -107t-101.5 -39q-61 0 -100.5 39t-39.5 107z" />
<glyph unicode="&#x100;" horiz-adv-x="1238" d="M-81 0l829 1502h204l194 -1502h-279l-42 330h-435l-177 -330h-294zM0 0zM512 565h301l-33 331l2 234h-11l-86 -236zM520 1634l38 189h697l-40 -189h-695z" />
<glyph unicode="&#x101;" horiz-adv-x="1071" d="M71 0zM71 307q0 156 39 298.5t122 251t210 173.5t302 65q74 0 162 -14t171 -37l-132 -618q-16 -81 -23.5 -164t-7.5 -158q0 -30 1 -56.5t3 -49.5h-194l-29 183h-10q-24 -39 -60.5 -75.5t-81.5 -68t-95 -49.5t-103 -18q-140 0 -207 91.5t-67 245.5zM341 358 q0 -69 22.5 -119t81.5 -50q39 0 72.5 16.5t62.5 41.5t51.5 55t39.5 56l107 496q-24 10 -54.5 16t-61.5 6q-76 0 -135.5 -46t-101 -120t-63 -166.5t-21.5 -185.5zM388 1205l41 197h656l-41 -197h-656z" />
<glyph unicode="&#x102;" horiz-adv-x="1238" d="M-81 0l829 1502h204l194 -1502h-279l-42 330h-435l-177 -330h-294zM0 0zM512 565h301l-33 331l2 234h-11l-86 -236zM529 1785l102 79q38 -55 93.5 -85.5t139.5 -30.5q117 0 195.5 32.5t137.5 83.5l105 -69q-36 -63 -85.5 -109t-106.5 -74.5t-122 -42.5t-132 -14 q-55 0 -107 16t-95.5 46.5t-77 73.5t-47.5 94z" />
<glyph unicode="&#x103;" horiz-adv-x="1071" d="M71 0zM71 307q0 156 39 298.5t122 251t210 173.5t302 65q74 0 162 -14t171 -37l-132 -618q-16 -81 -23.5 -164t-7.5 -158q0 -30 1 -56.5t3 -49.5h-194l-29 183h-10q-24 -39 -60.5 -75.5t-81.5 -68t-95 -49.5t-103 -18q-140 0 -207 91.5t-67 245.5zM341 358 q0 -69 22.5 -119t81.5 -50q39 0 72.5 16.5t62.5 41.5t51.5 55t39.5 56l107 496q-24 10 -54.5 16t-61.5 6q-76 0 -135.5 -46t-101 -120t-63 -166.5t-21.5 -185.5zM443 1465l143 69q45 -126 179 -126q84 0 150.5 33t110.5 93l110 -58q-17 -51 -54.5 -101t-90 -88.5t-118.5 -62 t-136 -23.5q-132 0 -211 71.5t-83 192.5z" />
<glyph unicode="&#x104;" horiz-adv-x="1238" d="M-81 0l829 1502h204l194 -1502h-45q-68 -26 -114 -67t-46 -104q0 -72 81 -71q30 0 81 16l11 -132q-39 -28 -106 -49t-136 -21q-102 0 -152.5 46.5t-50.5 119.5q0 51 19 92.5t51 74t73.5 55.5t86.5 40h-32l-42 330h-435l-177 -330h-294zM512 565h301l-33 331l2 234h-11 l-86 -236z" />
<glyph unicode="&#x105;" horiz-adv-x="1071" d="M71 307q0 156 39 298.5t122 251t210 173.5t302 65q74 0 162 -14t171 -37l-132 -618q-16 -81 -23.5 -164t-7.5 -158q0 -30 1 -56.5t3 -49.5h-44q-66 -26 -111 -66t-45 -107q0 -73 79 -73q34 0 83 20l12 -130q-40 -28 -107 -50.5t-137 -22.5q-102 0 -152.5 47t-50.5 120 q0 55 23.5 99.5t63 79t89.5 58t101 37.5l-27 171h-10q-24 -39 -60.5 -75.5t-81.5 -68t-95 -49.5t-103 -18q-140 0 -207 91.5t-67 245.5zM341 358q0 -69 22.5 -119t81.5 -50q39 0 72.5 16.5t62.5 41.5t51.5 55t39.5 56l107 496q-24 10 -54.5 16t-61.5 6q-76 0 -135.5 -46 t-101 -120t-63 -166.5t-21.5 -185.5z" />
<glyph unicode="&#x106;" horiz-adv-x="1142" d="M124 0zM124 579q0 252 70 430t185 291.5t263 166.5t303 53q122 0 208.5 -18t135.5 -41l-109 -247q-42 24 -102 35t-151 11q-109 0 -203 -44.5t-162 -127t-107.5 -202.5t-39.5 -270q0 -181 90.5 -283.5t242.5 -102.5q95 0 158 20t118 51l5 -240q-143 -91 -350 -91 q-140 0 -244.5 46.5t-174 130t-103 194t-33.5 238.5zM794 1602l267 251h333l-12 -64l-366 -187h-222z" />
<glyph unicode="&#x107;" horiz-adv-x="876" d="M73 0zM73 337q0 179 51 319.5t135 237t191.5 149t220.5 52.5q100 0 158.5 -19t105.5 -43l-98 -208q-40 24 -84 31.5t-95 7.5q-57 0 -111.5 -37t-98 -97.5t-69 -142t-25.5 -165.5q0 -108 46.5 -164.5t123.5 -56.5q64 0 118.5 19.5t96.5 45.5l49 -179q-68 -51 -158.5 -84 t-180.5 -33q-102 0 -173 30t-116 81t-66 117t-21 139zM567 1205l177 329h266l-12 -64l-283 -265h-148z" />
<glyph unicode="&#x108;" horiz-adv-x="1142" d="M124 0zM124 579q0 252 70 430t185 291.5t263 166.5t303 53q122 0 208.5 -18t135.5 -41l-109 -247q-42 24 -102 35t-151 11q-109 0 -203 -44.5t-162 -127t-107.5 -202.5t-39.5 -270q0 -181 90.5 -283.5t242.5 -102.5q95 0 158 20t118 51l5 -240q-143 -91 -350 -91 q-140 0 -244.5 46.5t-174 130t-103 194t-33.5 238.5zM578 1571l18 86l309 196h186l215 -198l-17 -84h-187l-96 88l-28 73l-57 -71l-144 -90h-199z" />
<glyph unicode="&#x109;" horiz-adv-x="876" d="M73 0zM73 337q0 179 51 319.5t135 237t191.5 149t220.5 52.5q100 0 158.5 -19t105.5 -43l-98 -208q-40 24 -84 31.5t-95 7.5q-57 0 -111.5 -37t-98 -97.5t-69 -142t-25.5 -165.5q0 -108 46.5 -164.5t123.5 -56.5q64 0 118.5 19.5t96.5 45.5l49 -179q-68 -51 -158.5 -84 t-180.5 -33q-102 0 -173 30t-116 81t-66 117t-21 139zM322 1171l332 388h175l143 -388h-205l-51 141l-9 104l-57 -104l-121 -141h-207z" />
<glyph unicode="&#x10c;" horiz-adv-x="1142" d="M124 0zM124 579q0 252 70 430t185 291.5t263 166.5t303 53q122 0 208.5 -18t135.5 -41l-109 -247q-42 24 -102 35t-151 11q-109 0 -203 -44.5t-162 -127t-107.5 -202.5t-39.5 -270q0 -181 90.5 -283.5t242.5 -102.5q95 0 158 20t118 51l5 -240q-143 -91 -350 -91 q-140 0 -244.5 46.5t-174 130t-103 194t-33.5 238.5zM637 1770l18 83h195l87 -95l26 -65l53 63l137 97h209l-18 -85l-313 -199h-179z" />
<glyph unicode="&#x10d;" horiz-adv-x="876" d="M73 0zM73 337q0 179 51 319.5t135 237t191.5 149t220.5 52.5q100 0 158.5 -19t105.5 -43l-98 -208q-40 24 -84 31.5t-95 7.5q-57 0 -111.5 -37t-98 -97.5t-69 -142t-25.5 -165.5q0 -108 46.5 -164.5t123.5 -56.5q64 0 118.5 19.5t96.5 45.5l49 -179q-68 -51 -158.5 -84 t-180.5 -33q-102 0 -173 30t-116 81t-66 117t-21 139zM404 1559h220l49 -140l10 -104l60 104l119 140h209l-333 -388h-185z" />
<glyph unicode="&#x10e;" horiz-adv-x="1319" d="M43 0zM43 -2l315 1493q44 7 97.5 11t99.5 6t79 2q19 0 54.5 1t77.5 1q130 0 237 -32.5t182 -101t117 -175t42 -253.5q0 -94 -16 -201.5t-54 -216t-105.5 -208.5t-168.5 -176.5t-242.5 -124t-329.5 -47.5q-32 0 -64 1.5t-45 1.5q-42 2 -94 5.5t-104 6.5t-78 7zM370 242 q9 -2 27 -3t39.5 -2t40.5 -1h29q149 0 253.5 67t169.5 168.5t94 219.5t29 221q0 171 -71.5 255.5t-236.5 84.5q-43 0 -90 -2t-73 -6zM519 1770l18 83h195l87 -95l26 -65l53 63l137 97h209l-18 -85l-313 -199h-179z" />
<glyph unicode="&#x10f;" horiz-adv-x="1079" d="M79 0zM79 321q0 149 40.5 288t114 246.5t179 171.5t233.5 64q61 0 101.5 -8t77.5 -24l91 432h262l-237 -1117q-19 -89 -27.5 -165.5t-8.5 -145.5v-32t2 -33h-179l-29 183h-8q-24 -39 -61.5 -75.5t-82.5 -68t-95 -49.5t-98 -18q-132 0 -203.5 94t-71.5 257zM349 341 q0 -61 28 -106.5t79 -45.5q32 0 64.5 16.5t62 41.5t53.5 55t39 56l103 481q-26 17 -59.5 25t-88.5 8q-63 0 -115.5 -44t-88.5 -118t-56.5 -169.5t-20.5 -199.5zM1150 1122q51 77 88.5 174t58.5 195h230q-17 -61 -51.5 -128.5t-75 -128.5t-81.5 -109t-69 -68z" />
<glyph unicode="&#x110;" horiz-adv-x="1362" d="M49 0zM49 683l36 171h181l134 637q45 7 98 11t101.5 6t77.5 2q21 0 55 1t75 1q132 0 238.5 -32.5t182 -101t117 -175t41.5 -253.5q0 -94 -15.5 -201.5t-54 -216t-105.5 -208.5t-168.5 -176.5t-243 -124t-328.5 -47.5q-32 0 -61.5 1.5t-47.5 1.5q-39 2 -93 5.5t-106.5 6.5 t-77.5 7l145 685h-181zM413 245q8 -2 26.5 -3.5t39.5 -2.5t40.5 -1h29.5q149 -2 253.5 65t169.5 168.5t94 219.5t29 221q0 171 -71.5 255.5t-239.5 84.5q-40 0 -87 -2t-73 -6l-83 -390h282l-37 -171h-282z" />
<glyph unicode="&#x111;" horiz-adv-x="1079" d="M79 321q0 149 40.5 288t114 246.5t179 171.5t233.5 64q61 0 101.5 -8t77.5 -24l27 136h-232l36 171h232l28 125h262l-28 -125h220l-37 -171h-219l-173 -821q-19 -89 -27.5 -165.5t-8.5 -145.5v-32t2 -33h-179l-29 183h-8q-24 -39 -61.5 -75.5t-82.5 -68t-95 -49.5 t-98 -18q-132 0 -203.5 94t-71.5 257zM349 341q0 -61 28 -106.5t79 -45.5q32 0 64.5 16.5t62 41.5t53.5 55t39 56l103 481q-26 17 -59.5 25t-88.5 8q-63 0 -115.5 -44t-88.5 -118t-56.5 -169.5t-20.5 -199.5z" />
<glyph unicode="&#x112;" horiz-adv-x="1071" d="M43 0l315 1491h276h563l-55 -260h-563l-75 -347h514l-57 -260h-510l-79 -364h573l-53 -260h-573h-276zM43 0zM445 1634l38 189h697l-40 -189h-695z" />
<glyph unicode="&#x113;" horiz-adv-x="992" d="M73 0zM73 354q0 170 53 307.5t139.5 233t195 148t216.5 52.5q87 0 150 -22.5t103.5 -62t60 -90.5t19.5 -109q0 -87 -45 -153t-125 -110t-192.5 -66t-247.5 -22q-16 0 -31 1t-32 1q-4 -26 -6.5 -46t-2.5 -36q0 -96 50 -143.5t142 -47.5q94 0 168 28t113 55l55 -170 q-66 -55 -170.5 -93.5t-242.5 -38.5q-173 0 -271.5 101.5t-98.5 282.5zM362 1205l41 197h656l-41 -197h-656zM374 628q60 0 127.5 4t124.5 20.5t95.5 47t38.5 84.5q0 32 -23.5 65t-97.5 33q-94 0 -163 -73t-102 -181z" />
<glyph unicode="&#x116;" horiz-adv-x="1071" d="M43 0l315 1491h276h563l-55 -260h-563l-75 -347h514l-57 -260h-510l-79 -364h573l-53 -260h-573h-276zM43 0zM653 1699q0 69 51.5 100.5t125.5 31.5q70 0 123 -31.5t53 -100.5q0 -68 -53 -99t-123 -31q-75 0 -126 31t-51 99z" />
<glyph unicode="&#x117;" horiz-adv-x="992" d="M73 0zM73 354q0 170 53 307.5t139.5 233t195 148t216.5 52.5q87 0 150 -22.5t103.5 -62t60 -90.5t19.5 -109q0 -87 -45 -153t-125 -110t-192.5 -66t-247.5 -22q-16 0 -31 1t-32 1q-4 -26 -6.5 -46t-2.5 -36q0 -96 50 -143.5t142 -47.5q94 0 168 28t113 55l55 -170 q-66 -55 -170.5 -93.5t-242.5 -38.5q-173 0 -271.5 101.5t-98.5 282.5zM374 628q60 0 127.5 4t124.5 20.5t95.5 47t38.5 84.5q0 32 -23.5 65t-97.5 33q-94 0 -163 -73t-102 -181zM578 1368q0 70 45.5 108t116.5 38q69 0 116 -38.5t47 -107.5t-48 -108t-115 -39 q-71 0 -116.5 39t-45.5 108z" />
<glyph unicode="&#x118;" horiz-adv-x="1071" d="M43 0l315 1491h276h563l-55 -260h-563l-75 -347h514l-57 -260h-510l-79 -364h573l-53 -260h-42q-69 -26 -114 -67t-45 -104q0 -72 80 -71q30 0 81 16l10 -132q-38 -28 -104.5 -49t-137.5 -21q-102 0 -152.5 46.5t-50.5 119.5q0 51 19.5 92.5t51.5 74t73.5 55.5t86.5 40 h-329h-276z" />
<glyph unicode="&#x119;" horiz-adv-x="992" d="M73 354q0 170 53 307.5t139.5 233t195 148t216.5 52.5q87 0 150 -22.5t103.5 -62t60 -90.5t19.5 -109q0 -91 -50.5 -159.5t-140 -112t-212.5 -63.5t-270 -14q-4 -26 -6.5 -46t-2.5 -36q0 -96 50 -143.5t142 -47.5q94 0 168 28t113 55l55 -170q-69 -57 -165 -92 q-56 -34 -92 -81t-36 -100q0 -23 8 -42t27.5 -28t49 -5t72.5 24l10 -132q-19 -12 -46.5 -26t-60.5 -24.5t-70 -18.5t-71 -8q-109 0 -153 47t-44 120t51.5 132t123.5 102h-17q-173 0 -271.5 101.5t-98.5 282.5zM374 628q60 0 127.5 4t124.5 20.5t95.5 47t38.5 84.5 q0 32 -23.5 65t-97.5 33q-94 0 -163 -72.5t-102 -181.5z" />
<glyph unicode="&#x11a;" horiz-adv-x="1071" d="M43 0l315 1491h276h563l-55 -260h-563l-75 -347h514l-57 -260h-510l-79 -364h573l-53 -260h-573h-276zM43 0zM474 1770l18 83h195l87 -95l26 -65l53 63l137 97h209l-18 -85l-313 -199h-179z" />
<glyph unicode="&#x11b;" horiz-adv-x="992" d="M73 0zM73 354q0 170 53 307.5t139.5 233t195 148t216.5 52.5q87 0 150 -22.5t103.5 -62t60 -90.5t19.5 -109q0 -87 -45 -153t-125 -110t-192.5 -66t-247.5 -22q-16 0 -31 1t-32 1q-4 -26 -6.5 -46t-2.5 -36q0 -96 50 -143.5t142 -47.5q94 0 168 28t113 55l55 -170 q-66 -55 -170.5 -93.5t-242.5 -38.5q-173 0 -271.5 101.5t-98.5 282.5zM374 628q60 0 127.5 4t124.5 20.5t95.5 47t38.5 84.5q0 32 -23.5 65t-97.5 33q-94 0 -163 -73t-102 -181zM439 1559h220l49 -140l10 -104l60 104l119 140h209l-333 -388h-185z" />
<glyph unicode="&#x11c;" horiz-adv-x="1245" d="M124 0zM124 575q0 246 67 424.5t182 294.5t268.5 171t323.5 55q122 0 216.5 -20t143.5 -41l-111 -245q-45 20 -112 33t-163 13q-113 0 -209 -42.5t-166 -125t-109.5 -205.5t-39.5 -280q0 -176 83 -276.5t224 -100.5q104 0 183 53l60 284l-217 34l38 177h447l-140 -665 q-96 -75 -201.5 -109t-226.5 -34q-118 0 -217 40.5t-171 117.5t-112.5 190t-40.5 257zM610 1571l18 86l309 196h186l215 -198l-17 -84h-187l-96 88l-28 73l-57 -71l-144 -90h-199z" />
<glyph unicode="&#x11d;" horiz-adv-x="1075" d="M-21 -356l98 194q19 -9 44.5 -20t58.5 -23t77 -19.5t101 -7.5q106 0 169 66t91 181l40 166h-8q-49 -77 -133 -137.5t-191 -60.5q-116 0 -186.5 86.5t-70.5 231.5q0 164 46.5 307.5t130.5 251t199.5 169.5t253.5 62q130 0 226.5 -22.5t156.5 -50.5l-215 -1018 q-28 -126 -74.5 -212t-111.5 -139.5t-149.5 -76.5t-186.5 -23q-75 0 -133.5 10t-103.5 25.5t-77.5 31.5t-51.5 28zM0 0zM339 352q0 -69 28.5 -109t75.5 -40q36 0 74.5 22.5t73.5 56t62.5 75t45.5 78.5l91 415q-24 12 -59.5 17t-72.5 5q-68 0 -126.5 -41t-101 -111t-67 -165 t-24.5 -203zM389 1171l332 388h175l143 -388h-205l-51 141l-9 104l-57 -104l-121 -141h-207z" />
<glyph unicode="&#x11e;" horiz-adv-x="1245" d="M124 0zM124 575q0 246 67 424.5t182 294.5t268.5 171t323.5 55q122 0 216.5 -20t143.5 -41l-111 -245q-45 20 -112 33t-163 13q-113 0 -209 -42.5t-166 -125t-109.5 -205.5t-39.5 -280q0 -176 83 -276.5t224 -100.5q104 0 183 53l60 284l-217 34l38 177h447l-140 -665 q-96 -75 -201.5 -109t-226.5 -34q-118 0 -217 40.5t-171 117.5t-112.5 190t-40.5 257zM620 1785l102 79q38 -55 93.5 -85.5t139.5 -30.5q117 0 195.5 32.5t137.5 83.5l105 -69q-36 -63 -85.5 -109t-106.5 -74.5t-122 -42.5t-132 -14q-55 0 -107 16t-95.5 46.5t-77 73.5 t-47.5 94z" />
<glyph unicode="&#x11f;" horiz-adv-x="1075" d="M-21 -356l98 194q19 -9 44.5 -20t58.5 -23t77 -19.5t101 -7.5q106 0 169 66t91 181l40 166h-8q-49 -77 -133 -137.5t-191 -60.5q-116 0 -186.5 86.5t-70.5 231.5q0 164 46.5 307.5t130.5 251t199.5 169.5t253.5 62q130 0 226.5 -22.5t156.5 -50.5l-215 -1018 q-28 -126 -74.5 -212t-111.5 -139.5t-149.5 -76.5t-186.5 -23q-75 0 -133.5 10t-103.5 25.5t-77.5 31.5t-51.5 28zM0 0zM339 352q0 -69 28.5 -109t75.5 -40q36 0 74.5 22.5t73.5 56t62.5 75t45.5 78.5l91 415q-24 12 -59.5 17t-72.5 5q-68 0 -126.5 -41t-101 -111t-67 -165 t-24.5 -203zM411 1465l143 69q45 -126 179 -126q84 0 150.5 33t110.5 93l110 -58q-17 -51 -54.5 -101t-90 -88.5t-118.5 -62t-136 -23.5q-132 0 -211 71.5t-83 192.5z" />
<glyph unicode="&#x122;" horiz-adv-x="1245" d="M124 0zM124 575q0 246 67 424.5t182 294.5t268.5 171t323.5 55q122 0 216.5 -20t143.5 -41l-111 -245q-45 20 -112 33t-163 13q-113 0 -209 -42.5t-166 -125t-109.5 -205.5t-39.5 -280q0 -176 83 -276.5t224 -100.5q104 0 183 53l60 284l-217 34l38 177h447l-140 -665 q-96 -75 -201.5 -109t-226.5 -34q-118 0 -217 40.5t-171 117.5t-112.5 190t-40.5 257zM443 -467q32 15 66 42t50 69q-38 7 -62.5 34t-24.5 82q0 36 14 63.5t36.5 47t50 30t55.5 10.5q81 0 107.5 -44t26.5 -105q0 -77 -31 -136t-73.5 -101.5t-89.5 -69t-81 -36.5z" />
<glyph unicode="&#x123;" horiz-adv-x="1075" d="M-21 -356l98 194q19 -9 44.5 -20t58.5 -23t77 -19.5t101 -7.5q106 0 169 66t91 181l40 166h-8q-49 -77 -133 -137.5t-191 -60.5q-116 0 -186.5 86.5t-70.5 231.5q0 164 46.5 307.5t130.5 251t199.5 169.5t253.5 62q130 0 226.5 -22.5t156.5 -50.5l-215 -1018 q-28 -126 -74.5 -212t-111.5 -139.5t-149.5 -76.5t-186.5 -23q-75 0 -133.5 10t-103.5 25.5t-77.5 31.5t-51.5 28zM339 352q0 -69 28.5 -109t75.5 -40q36 0 74.5 22.5t73.5 56t62.5 75t45.5 78.5l91 415q-24 12 -59.5 17t-72.5 5q-68 0 -126.5 -41t-101 -111t-67 -165 t-24.5 -203zM616 1323q0 77 30.5 135t73 101t89.5 69.5t81 37.5l45 -115q-32 -15 -66 -42t-52 -70q39 -6 63.5 -32.5t24.5 -81.5q0 -36 -13.5 -64t-36 -47t-50 -30t-55.5 -11q-81 0 -107.5 43.5t-26.5 106.5z" />
<glyph unicode="&#x124;" horiz-adv-x="1328" d="M43 0l315 1491h276l-128 -607h518l128 607h277l-315 -1491h-277l132 624h-518l-132 -624h-276zM43 0zM578 1571l18 86l309 196h186l215 -198l-17 -84h-187l-96 88l-28 73l-57 -71l-144 -90h-199z" />
<glyph unicode="&#x125;" horiz-adv-x="1124" d="M38 0l316 1491h262l-134 -613h8q28 34 67 72t87.5 70t104.5 53.5t123 21.5q101 0 157.5 -51.5t56.5 -181.5q0 -79 -25 -200l-141 -662h-262l128 605q21 94 21 155q0 55 -21.5 79.5t-65.5 24.5q-41 0 -85.5 -25.5t-85 -63.5t-73.5 -81.5t-50 -79.5l-125 -614h-263zM38 0z M443 1571l18 86l309 196h186l215 -198l-17 -84h-187l-96 88l-28 73l-57 -71l-144 -90h-199z" />
<glyph unicode="&#x126;" horiz-adv-x="1396" d="M77 0l232 1099h-149l36 175h149l47 217h277l-47 -217h518l47 217h276l-47 -217h153l-35 -175h-154l-232 -1099h-276l132 624h-518l-132 -624h-277zM541 884h518l44 215h-517z" />
<glyph unicode="&#x127;" horiz-adv-x="1124" d="M38 0l252 1195h-148l37 171h147l28 125h262l-28 -125h330l-36 -171h-333l-67 -317h8q28 34 67 72t87.5 70t104.5 53.5t123 21.5q101 0 157.5 -51.5t56.5 -181.5q0 -79 -25 -200l-141 -662h-262l128 605q21 94 21 155q0 55 -21.5 79.5t-65.5 24.5q-41 0 -85.5 -25.5 t-85 -63.5t-73.5 -81.5t-50 -79.5l-125 -614h-263z" />
<glyph unicode="&#x12a;" horiz-adv-x="591" d="M75 0l315 1491h275l-316 -1491h-274zM75 0zM200 1634l38 189h697l-40 -189h-695z" />
<glyph unicode="&#x12b;" horiz-adv-x="544" d="M57 0l226 1065h262l-226 -1065h-262zM57 0zM120 1205l41 197h656l-41 -197h-656z" />
<glyph unicode="&#x12e;" horiz-adv-x="591" d="M-87 -262q0 49 19 89.5t51 73.5t72.5 57.5t82.5 41.5h-63l315 1491h275l-316 -1491h-30q-55 -28 -94.5 -69t-39.5 -99q0 -35 20.5 -54.5t58.5 -19.5q34 0 83 18l11 -132q-39 -28 -106 -50t-137 -22q-101 0 -151.5 46.5t-50.5 119.5z" />
<glyph unicode="&#x12f;" horiz-adv-x="547" d="M-106 -272q0 42 17.5 82.5t50 75.5t74 65t88.5 49h-67l226 1065h262l-226 -1065h-21q-55 -32 -93.5 -80t-38.5 -99q0 -43 35 -64t122 21l14 -132q-19 -12 -47 -26t-61 -24.5t-70 -18.5t-72 -8q-113 0 -153 44t-40 115zM319 1368q0 70 46 108t117 38q68 0 116 -38.5 t48 -107.5t-48.5 -108t-115.5 -39q-71 0 -117 39t-46 108z" />
<glyph unicode="&#x130;" horiz-adv-x="591" d="M75 0l315 1491h275l-316 -1491h-274zM390 1699q0 69 51 100.5t126 31.5q71 0 124 -31.5t53 -100.5q0 -68 -54 -99t-123 -31q-75 0 -126 31t-51 99z" />
<glyph unicode="&#x131;" horiz-adv-x="544" d="M57 0l226 1065h262l-226 -1065h-262z" />
<glyph unicode="&#x134;" horiz-adv-x="689" d="M-108 24l106 238q49 -28 115 -28q45 0 74.5 18t50 50.5t33 76t25.5 96.5l213 1016h277l-233 -1091q-18 -89 -48 -166.5t-79.5 -135t-122.5 -91t-177 -33.5q-59 0 -125.5 13t-108.5 37zM0 0zM303 1571l18 86l309 196h186l215 -198l-17 -84h-187l-96 88l-28 73l-57 -71 l-144 -90h-199z" />
<glyph unicode="&#x135;" horiz-adv-x="518" d="M-238 -424l51 226q53 -4 91.5 9.5t65 43.5t44.5 75.5t31 103.5l217 1031h264l-236 -1110q-40 -191 -136.5 -292.5t-259.5 -101.5q-66 0 -132 15zM0 0zM90 1171l332 388h175l143 -388h-205l-51 141l-9 104l-57 -104l-121 -141h-207z" />
<glyph unicode="&#x136;" horiz-adv-x="1262" d="M43 0l315 1491h276l-140 -660l67 23l504 637h332l-537 -633l-127 -74l94 -83l323 -701h-309l-288 636h-100l-134 -636h-276zM43 0zM295 -467q32 15 66 42t50 69q-38 7 -62.5 34t-24.5 82q0 36 14 63.5t36.5 47t50 30t55.5 10.5q81 0 107.5 -44t26.5 -105q0 -77 -31 -136 t-73.5 -101.5t-89.5 -69t-81 -36.5z" />
<glyph unicode="&#x137;" horiz-adv-x="990" d="M38 0l316 1491h262l-188 -879l78 27l301 426h292l-317 -429l-128 -80l96 -81l162 -475h-282l-153 441h-85l-91 -441h-263zM38 0zM207 -467q32 15 66 42t50 69q-38 7 -62.5 34t-24.5 82q0 36 14 63.5t36.5 47t50 30t55.5 10.5q81 0 107.5 -44t26.5 -105q0 -77 -31 -136 t-73.5 -101.5t-89.5 -69t-81 -36.5z" />
<glyph unicode="&#x139;" horiz-adv-x="1053" d="M43 0l315 1491h276l-262 -1231h620l-53 -260h-620h-276zM43 0zM398 1602l267 251h333l-12 -64l-366 -187h-222z" />
<glyph unicode="&#x13a;" horiz-adv-x="579" d="M71 0zM71 140q0 49 12 114l262 1237h262l-249 -1176q-13 -61 0.5 -91.5t46.5 -30.5q59 0 113 24l-6 -189q-39 -24 -111.5 -39t-142.5 -15q-92 0 -139.5 35.5t-47.5 130.5zM373 1602l267 251h333l-12 -64l-366 -187h-222z" />
<glyph unicode="&#x13b;" horiz-adv-x="1053" d="M43 0l315 1491h276l-262 -1231h620l-53 -260h-620h-276zM43 0zM244 -467q32 15 66 42t50 69q-38 7 -62.5 34t-24.5 82q0 36 14 63.5t36.5 47t50 30t55.5 10.5q81 0 107.5 -44t26.5 -105q0 -77 -31 -136t-73.5 -101.5t-89.5 -69t-81 -36.5z" />
<glyph unicode="&#x13c;" horiz-adv-x="579" d="M32 0zM33 -467q32 15 66 42t50 69q-38 7 -62.5 34t-24.5 82q0 36 14 63.5t36.5 47t50 30t55.5 10.5q81 0 107.5 -44t26.5 -105q0 -77 -31 -136t-73.5 -101.5t-89.5 -69t-81 -36.5zM71 140q0 49 12 114l262 1237h262l-249 -1176q-13 -61 0.5 -91.5t46.5 -30.5q59 0 113 24 l-6 -189q-39 -24 -111.5 -39t-142.5 -15q-92 0 -139.5 35.5t-47.5 130.5z" />
<glyph unicode="&#x13d;" horiz-adv-x="1053" d="M43 0l315 1491h276l-262 -1231h620l-53 -260h-620h-276zM43 0zM797 1122q51 77 88.5 174t58.5 195h230q-17 -61 -51.5 -128.5t-75 -128.5t-81.5 -109t-69 -68z" />
<glyph unicode="&#x13e;" horiz-adv-x="579" d="M71 0zM71 140q0 49 12 114l262 1237h262l-249 -1176q-13 -61 0.5 -91.5t46.5 -30.5q59 0 113 24l-6 -189q-39 -24 -111.5 -39t-142.5 -15q-92 0 -139.5 35.5t-47.5 130.5zM589 1122q51 77 88.5 174t58.5 195h230q-17 -61 -51.5 -128.5t-75 -128.5t-81.5 -109t-69 -68z " />
<glyph unicode="&#x141;" horiz-adv-x="1064" d="M6 419l55 258l154 94l153 720h278l-114 -524l239 145l-58 -266l-236 -143l-93 -443h620l-54 -260h-613h-284l109 514z" />
<glyph unicode="&#x142;" horiz-adv-x="579" d="M-47 396l55 258l183 110l154 727h262l-115 -541l226 139l-58 -266l-223 -135l-79 -373q-13 -61 0.5 -91.5t46.5 -30.5q59 0 113 24l-6 -189q-39 -24 -111.5 -39t-142.5 -15q-92 0 -139.5 35.5t-47.5 130.5q0 49 12 114l53 252z" />
<glyph unicode="&#x143;" horiz-adv-x="1343" d="M43 0l319 1502h191l367 -797l66 -232h13l15 232l168 786h263l-321 -1501h-191l-364 790l-71 238h-10l-19 -238l-164 -780h-262zM43 0zM776 1602l267 251h333l-12 -64l-366 -187h-222z" />
<glyph unicode="&#x144;" horiz-adv-x="1109" d="M30 0l226 1065h198l-11 -187h9q28 34 65.5 72t86 70t109.5 53.5t137 21.5q96 0 153.5 -52.5t57.5 -173.5q0 -32 -3 -68.5t-14 -78.5l-153 -722h-263l142 660q12 60 12 104q0 47 -19 73.5t-70 26.5q-39 0 -77 -18.5t-72 -51t-64 -72t-51 -79.5l-136 -643h-263zM30 0z M634 1205l177 329h266l-12 -64l-283 -265h-148z" />
<glyph unicode="&#x145;" horiz-adv-x="1343" d="M43 0l319 1502h191l367 -797l66 -232h13l15 232l168 786h263l-321 -1501h-191l-364 790l-71 238h-10l-19 -238l-164 -780h-262zM43 0zM358 -467q32 15 66 42t50 69q-38 7 -62.5 34t-24.5 82q0 36 14 63.5t36.5 47t50 30t55.5 10.5q81 0 107.5 -44t26.5 -105 q0 -77 -31 -136t-73.5 -101.5t-89.5 -69t-81 -36.5z" />
<glyph unicode="&#x146;" horiz-adv-x="1109" d="M30 0l226 1065h198l-11 -187h9q28 34 65.5 72t86 70t109.5 53.5t137 21.5q96 0 153.5 -52.5t57.5 -173.5q0 -32 -3 -68.5t-14 -78.5l-153 -722h-263l142 660q12 60 12 104q0 47 -19 73.5t-70 26.5q-39 0 -77 -18.5t-72 -51t-64 -72t-51 -79.5l-136 -643h-263zM30 0z M248 -467q32 15 66 42t50 69q-38 7 -62.5 34t-24.5 82q0 36 14 63.5t36.5 47t50 30t55.5 10.5q81 0 107.5 -44t26.5 -105q0 -77 -31 -136t-73.5 -101.5t-89.5 -69t-81 -36.5z" />
<glyph unicode="&#x147;" horiz-adv-x="1343" d="M43 0l319 1502h191l367 -797l66 -232h13l15 232l168 786h263l-321 -1501h-191l-364 790l-71 238h-10l-19 -238l-164 -780h-262zM43 0zM606 1770l18 83h195l87 -95l26 -65l53 63l137 97h209l-18 -85l-313 -199h-179z" />
<glyph unicode="&#x148;" horiz-adv-x="1109" d="M30 0l226 1065h198l-11 -187h9q28 34 65.5 72t86 70t109.5 53.5t137 21.5q96 0 153.5 -52.5t57.5 -173.5q0 -32 -3 -68.5t-14 -78.5l-153 -722h-263l142 660q12 60 12 104q0 47 -19 73.5t-70 26.5q-39 0 -77 -18.5t-72 -51t-64 -72t-51 -79.5l-136 -643h-263zM30 0z M471 1559h220l49 -140l10 -104l60 104l119 140h209l-333 -388h-185z" />
<glyph unicode="&#x14c;" horiz-adv-x="1370" d="M124 0zM124 558q0 198 54 374t154.5 307t242 206t315.5 75q116 0 208.5 -33.5t157.5 -105t101 -180t36 -258.5q0 -200 -54.5 -376.5t-153.5 -309.5t-236.5 -210t-302.5 -77q-252 0 -386 148t-136 440zM415 567q0 -153 58.5 -245t193.5 -92q97 0 177.5 58.5t137.5 157.5 t88 227t31 266q0 169 -66 245t-181 76q-96 0 -176 -55t-138 -149.5t-91.5 -221.5t-33.5 -267zM590 1634l38 189h697l-40 -189h-695z" />
<glyph unicode="&#x14d;" horiz-adv-x="1055" d="M73 0zM73 345q0 169 47.5 307t127.5 236t185.5 152.5t220.5 54.5q102 0 172 -32t114 -85t63 -121.5t19 -140.5q0 -167 -46.5 -304t-125.5 -235t-183 -152.5t-220 -54.5q-100 0 -170 33t-116 86t-67 120.5t-21 135.5zM343 382q0 -192 139 -193q50 0 99 45t87.5 117.5 t61 164t22.5 183.5q0 85 -28.5 131t-107.5 46q-51 0 -100 -43t-87.5 -112t-62 -158.5t-23.5 -180.5zM366 1205l41 197h656l-41 -197h-656z" />
<glyph unicode="&#x150;" horiz-adv-x="1370" d="M124 0zM124 558q0 198 54 374t154.5 307t242 206t315.5 75q116 0 208.5 -33.5t157.5 -105t101 -180t36 -258.5q0 -200 -54.5 -376.5t-153.5 -309.5t-236.5 -210t-302.5 -77q-252 0 -386 148t-136 440zM415 567q0 -153 58.5 -245t193.5 -92q97 0 177.5 58.5t137.5 157.5 t88 227t31 266q0 169 -66 245t-181 76q-96 0 -176 -55t-138 -149.5t-91.5 -221.5t-33.5 -267zM639 1579l169 232h268l-7 -35l-245 -197h-185zM961 1579l247 232h281l-6 -35l-331 -197h-191z" />
<glyph unicode="&#x151;" horiz-adv-x="1055" d="M73 0zM73 345q0 169 47.5 307t127.5 236t185.5 152.5t220.5 54.5q102 0 172 -32t114 -85t63 -121.5t19 -140.5q0 -167 -46.5 -304t-125.5 -235t-183 -152.5t-220 -54.5q-100 0 -170 33t-116 86t-67 120.5t-21 135.5zM343 382q0 -192 139 -193q50 0 99 45t87.5 117.5 t61 164t22.5 183.5q0 85 -28.5 131t-107.5 46q-51 0 -100 -43t-87.5 -112t-62 -158.5t-23.5 -180.5zM445 1216l128 275h239l-6 -34l-203 -241h-158zM727 1216l206 275h256l-6 -34l-291 -241h-165z" />
<glyph unicode="&#x152;" horiz-adv-x="1867" d="M124 558q0 224 57 403t161.5 303t247.5 190t313 66q81 0 139.5 -8t111.5 -21h840l-55 -260h-563l-75 -347h514l-55 -260h-512l-77 -364h571l-53 -260h-850q-42 -15 -99 -22.5t-116 -7.5q-92 0 -181 28t-160.5 95t-115 181t-43.5 284zM415 567q0 -55 11 -114t39.5 -109 t80.5 -82t135 -32q59 0 105.5 7.5t109.5 32.5l199 937q-38 26 -90.5 39.5t-137.5 13.5q-99 0 -181.5 -50.5t-143 -142t-94 -219.5t-33.5 -281z" />
<glyph unicode="&#x153;" horiz-adv-x="1636" d="M73 345q0 169 47.5 307t128.5 236t186.5 152.5t220.5 54.5q116 0 189 -46.5t114 -128.5q63 75 153.5 125t210.5 50q87 0 150 -22.5t103 -62t59.5 -90.5t19.5 -109q0 -87 -45 -153t-124.5 -110t-192.5 -66t-247 -22q-16 0 -31.5 1t-32.5 1q-4 -26 -6.5 -46t-2.5 -36 q0 -96 50 -143.5t142 -47.5q93 0 168 28t114 55l55 -170q-66 -55 -170.5 -93.5t-242.5 -38.5q-61 0 -110.5 14t-86 38.5t-62 54t-40.5 61.5q-53 -72 -145 -120t-200 -48q-100 0 -170 33t-115 86t-66 120.5t-21 135.5zM343 382q0 -192 139 -193q50 0 99 45t87.5 117.5t61 164 t22.5 183.5q0 85 -28.5 131t-107.5 46q-51 0 -100 -43t-87.5 -112t-62 -158.5t-23.5 -180.5zM1020 628q60 0 127 4t124.5 20.5t96 47t38.5 84.5q0 32 -23.5 65t-98.5 33q-93 0 -162.5 -73t-101.5 -181z" />
<glyph unicode="&#x154;" horiz-adv-x="1243" d="M43 0l313 1476q102 18 206.5 27t187.5 9q98 0 185 -23.5t151 -71t101.5 -123.5t37.5 -178q0 -118 -35.5 -203.5t-93 -144.5t-131 -92t-150.5 -44l84 -65l207 -567h-307l-205 583l-147 29l-128 -612h-276zM43 0zM490 809h113q62 0 121.5 12t105.5 42.5t74.5 81.5t28.5 130 q0 73 -49 125t-158 52q-43 0 -80 -3t-63 -7zM628 1602l267 251h333l-12 -64l-366 -187h-222z" />
<glyph unicode="&#x155;" horiz-adv-x="730" d="M38 0l226 1065h194l2 -187h9q47 85 114 144.5t169 59.5q45 0 106 -17l-66 -228q-20 6 -39.5 10.5t-41.5 4.5q-87 0 -160.5 -56.5t-111.5 -130.5l-138 -665h-263zM38 0zM423 1205l177 329h266l-12 -64l-283 -265h-148z" />
<glyph unicode="&#x156;" horiz-adv-x="1243" d="M43 0l313 1476q102 18 206.5 27t187.5 9q98 0 185 -23.5t151 -71t101.5 -123.5t37.5 -178q0 -118 -35.5 -203.5t-93 -144.5t-131 -92t-150.5 -44l84 -65l207 -567h-307l-205 583l-147 29l-128 -612h-276zM43 0zM303 -467q32 15 66 42t50 69q-38 7 -62.5 34t-24.5 82 q0 36 14 63.5t36.5 47t50 30t55.5 10.5q81 0 107.5 -44t26.5 -105q0 -77 -31 -136t-73.5 -101.5t-89.5 -69t-81 -36.5zM490 809h113q62 0 121.5 12t105.5 42.5t74.5 81.5t28.5 130q0 73 -49 125t-158 52q-43 0 -80 -3t-63 -7z" />
<glyph unicode="&#x157;" horiz-adv-x="730" d="M17 0zM18 -467q32 15 66 42t50 69q-38 7 -62.5 34t-24.5 82q0 36 14 63.5t36.5 47t50 30t55.5 10.5q81 0 107.5 -44t26.5 -105q0 -77 -31 -136t-73.5 -101.5t-89.5 -69t-81 -36.5zM38 0l226 1065h194l2 -187h9q47 85 114 144.5t169 59.5q45 0 106 -17l-66 -228 q-20 6 -39.5 10.5t-41.5 4.5q-87 0 -160.5 -56.5t-111.5 -130.5l-138 -665h-263z" />
<glyph unicode="&#x158;" horiz-adv-x="1243" d="M43 0l313 1476q102 18 206.5 27t187.5 9q98 0 185 -23.5t151 -71t101.5 -123.5t37.5 -178q0 -118 -35.5 -203.5t-93 -144.5t-131 -92t-150.5 -44l84 -65l207 -567h-307l-205 583l-147 29l-128 -612h-276zM43 0zM468 1770l18 83h195l87 -95l26 -65l53 63l137 97h209 l-18 -85l-313 -199h-179zM490 809h113q62 0 121.5 12t105.5 42.5t74.5 81.5t28.5 130q0 73 -49 125t-158 52q-43 0 -80 -3t-63 -7z" />
<glyph unicode="&#x159;" horiz-adv-x="730" d="M38 0l226 1065h194l2 -187h9q47 85 114 144.5t169 59.5q45 0 106 -17l-66 -228q-20 6 -39.5 10.5t-41.5 4.5q-87 0 -160.5 -56.5t-111.5 -130.5l-138 -665h-263zM38 0zM321 1559h220l49 -140l10 -104l60 104l119 140h209l-333 -388h-185z" />
<glyph unicode="&#x15a;" horiz-adv-x="1085" d="M-4 59l142 248q21 -13 55.5 -28t78 -28t94.5 -21t103 -8q59 0 112 9t92.5 31.5t62 57t22.5 85.5q0 57 -38.5 97.5t-96.5 77t-125 76t-126 92.5t-97.5 128.5t-38.5 184.5q0 124 43.5 211t118.5 142.5t175 80.5t215 25q62 0 123.5 -6t117 -18t102.5 -27.5t79 -35.5 l-141 -242q-40 26 -118.5 52.5t-175.5 26.5q-49 0 -96 -10t-82.5 -31.5t-57 -55t-21.5 -80.5q0 -61 38 -104.5t96.5 -80t126 -75t126 -89.5t96.5 -123t38 -176q0 -126 -43.5 -216.5t-123.5 -147.5t-191.5 -84t-247.5 -27q-75 0 -142 9t-125 21t-101.5 28.5t-68.5 30.5zM0 0z M648 1602l267 251h333l-12 -64l-366 -187h-222z" />
<glyph unicode="&#x15b;" horiz-adv-x="843" d="M-2 41l83 209q43 -24 110 -42.5t141 -18.5q75 0 114.5 29.5t41.5 88.5q0 42 -25.5 73t-65 59t-84.5 56.5t-84.5 65.5t-65 88.5t-25.5 123.5q0 70 27.5 130t78 102.5t122 66t160.5 23.5q124 0 204.5 -18t127.5 -46l-72 -200q-42 19 -103 32t-127 13q-68 0 -107.5 -23.5 t-39.5 -74.5q0 -34 25.5 -60.5t65 -55t84 -57t84 -69t65 -92.5t25.5 -125q0 -177 -115 -263t-306 -86q-108 0 -199 20t-140 51zM0 0zM468 1205l177 329h266l-12 -64l-283 -265h-148z" />
<glyph unicode="&#x15c;" horiz-adv-x="1085" d="M-4 59l142 248q21 -13 55.5 -28t78 -28t94.5 -21t103 -8q59 0 112 9t92.5 31.5t62 57t22.5 85.5q0 57 -38.5 97.5t-96.5 77t-125 76t-126 92.5t-97.5 128.5t-38.5 184.5q0 124 43.5 211t118.5 142.5t175 80.5t215 25q62 0 123.5 -6t117 -18t102.5 -27.5t79 -35.5 l-141 -242q-40 26 -118.5 52.5t-175.5 26.5q-49 0 -96 -10t-82.5 -31.5t-57 -55t-21.5 -80.5q0 -61 38 -104.5t96.5 -80t126 -75t126 -89.5t96.5 -123t38 -176q0 -126 -43.5 -216.5t-123.5 -147.5t-191.5 -84t-247.5 -27q-75 0 -142 9t-125 21t-101.5 28.5t-68.5 30.5zM0 0z M460 1571l18 86l309 196h186l215 -198l-17 -84h-187l-96 88l-28 73l-57 -71l-144 -90h-199z" />
<glyph unicode="&#x15d;" horiz-adv-x="843" d="M-2 41l83 209q43 -24 110 -42.5t141 -18.5q75 0 114.5 29.5t41.5 88.5q0 42 -25.5 73t-65 59t-84.5 56.5t-84.5 65.5t-65 88.5t-25.5 123.5q0 70 27.5 130t78 102.5t122 66t160.5 23.5q124 0 204.5 -18t127.5 -46l-72 -200q-42 19 -103 32t-127 13q-68 0 -107.5 -23.5 t-39.5 -74.5q0 -34 25.5 -60.5t65 -55t84 -57t84 -69t65 -92.5t25.5 -125q0 -177 -115 -263t-306 -86q-108 0 -199 20t-140 51zM0 0zM239 1171l332 388h175l143 -388h-205l-51 141l-9 104l-57 -104l-121 -141h-207z" />
<glyph unicode="&#x15e;" horiz-adv-x="1085" d="M36 59l143 252q21 -13 55 -28t78 -28t95 -21t102 -8q59 0 112.5 9.5t93 29.5t62 54.5t22.5 85.5q0 57 -38.5 97.5t-97 77t-125.5 76t-125.5 92.5t-97 128.5t-38.5 184.5q0 124 43.5 211t118.5 142.5t174.5 80.5t215.5 25q61 0 123 -6t117 -18t102 -27.5t79 -35.5 l-140 -242q-41 26 -119.5 52.5t-175.5 26.5q-49 0 -95.5 -10t-82.5 -31.5t-57.5 -55t-21.5 -80.5q0 -61 38 -104.5t97 -80t126 -75t126 -89.5t97 -123t38 -176q0 -115 -36 -199t-102 -141.5t-160 -89.5t-209 -41l-49 -66q73 -4 111 -43.5t38 -100.5q0 -55 -24.5 -95.5 t-66 -67.5t-98 -39.5t-120.5 -12.5q-81 0 -163 18l41 103q108 -10 149.5 13t41.5 53q0 36 -43 49.5t-124 11.5l136 175q-125 8 -224 34t-142 53z" />
<glyph unicode="&#x15f;" horiz-adv-x="843" d="M-2 41l83 209q43 -24 110 -42.5t141 -18.5q75 0 114.5 29.5t41.5 88.5q0 42 -25.5 73t-65 59t-84.5 56.5t-84.5 65.5t-65 88.5t-25.5 123.5q0 70 27.5 130t78 102.5t122 66t160.5 23.5q124 0 204.5 -18t127.5 -46l-72 -200q-42 19 -103 32t-127 13q-68 0 -107.5 -23.5 t-39.5 -74.5q0 -34 25.5 -60.5t65 -55t84 -57t84 -69t65 -92.5t25.5 -125q0 -156 -89.5 -240.5t-242.5 -102.5l-52 -68q73 -4 111.5 -43.5t38.5 -100.5q0 -55 -24.5 -95.5t-66 -67.5t-98 -39.5t-120.5 -12.5q-81 0 -164 18l43 103q108 -10 148.5 13t40.5 53q0 36 -42.5 49.5 t-122.5 11.5l138 177q-83 6 -150.5 23.5t-107.5 43.5z" />
<glyph unicode="&#x160;" horiz-adv-x="1085" d="M-4 59l142 248q21 -13 55.5 -28t78 -28t94.5 -21t103 -8q59 0 112 9t92.5 31.5t62 57t22.5 85.5q0 57 -38.5 97.5t-96.5 77t-125 76t-126 92.5t-97.5 128.5t-38.5 184.5q0 124 43.5 211t118.5 142.5t175 80.5t215 25q62 0 123.5 -6t117 -18t102.5 -27.5t79 -35.5 l-141 -242q-40 26 -118.5 52.5t-175.5 26.5q-49 0 -96 -10t-82.5 -31.5t-57 -55t-21.5 -80.5q0 -61 38 -104.5t96.5 -80t126 -75t126 -89.5t96.5 -123t38 -176q0 -126 -43.5 -216.5t-123.5 -147.5t-191.5 -84t-247.5 -27q-75 0 -142 9t-125 21t-101.5 28.5t-68.5 30.5zM0 0z M519 1770l18 83h195l87 -95l26 -65l53 63l137 97h209l-18 -85l-313 -199h-179z" />
<glyph unicode="&#x161;" horiz-adv-x="843" d="M-2 41l83 209q43 -24 110 -42.5t141 -18.5q75 0 114.5 29.5t41.5 88.5q0 42 -25.5 73t-65 59t-84.5 56.5t-84.5 65.5t-65 88.5t-25.5 123.5q0 70 27.5 130t78 102.5t122 66t160.5 23.5q124 0 204.5 -18t127.5 -46l-72 -200q-42 19 -103 32t-127 13q-68 0 -107.5 -23.5 t-39.5 -74.5q0 -34 25.5 -60.5t65 -55t84 -57t84 -69t65 -92.5t25.5 -125q0 -177 -115 -263t-306 -86q-108 0 -199 20t-140 51zM0 0zM321 1559h220l49 -140l10 -104l60 104l119 140h209l-333 -388h-185z" />
<glyph unicode="&#x162;" horiz-adv-x="1164" d="M205 0zM205 1231l55 260h1101l-54 -260h-413l-262 -1231h-274l260 1231h-413zM254 -467q32 15 66 42t50 69q-38 7 -62.5 34t-24.5 82q0 36 14 63.5t36.5 47t50 30t55.5 10.5q81 0 107.5 -44t26.5 -105q0 -77 -31 -136t-73.5 -101.5t-89.5 -69t-81 -36.5z" />
<glyph unicode="&#x163;" horiz-adv-x="681" d="M77 0zM77 -467q32 15 66 42t50 69q-38 7 -62.5 34t-24.5 82q0 36 14 63.5t36.5 47t50 30t55.5 10.5q81 0 107.5 -44t26.5 -105q0 -77 -31 -136t-73.5 -101.5t-89.5 -69t-81 -36.5zM85 846l51 219h139l42 201l279 78l-59 -279h249l-49 -219h-247l-104 -482 q-13 -57 -14 -94q0 -46 21.5 -63.5t64.5 -17.5q40 0 73.5 9t69.5 28v-196q-24 -12 -56.5 -24t-71 -19.5t-79 -12t-75.5 -4.5q-108 0 -166.5 50.5t-58.5 152.5q0 20 3 43.5t7 49.5l124 580h-143z" />
<glyph unicode="&#x164;" horiz-adv-x="1164" d="M205 0zM205 1231l55 260h1101l-54 -260h-413l-262 -1231h-274l260 1231h-413zM515 1770l18 83h195l87 -95l26 -65l53 63l137 97h209l-18 -85l-313 -199h-179z" />
<glyph unicode="&#x165;" horiz-adv-x="681" d="M85 0zM85 846l51 219h139l42 201l279 78l-59 -279h249l-49 -219h-247l-104 -482q-13 -57 -14 -94q0 -46 21.5 -63.5t64.5 -17.5q40 0 73.5 9t69.5 28v-196q-24 -12 -56.5 -24t-71 -19.5t-79 -12t-75.5 -4.5q-108 0 -166.5 50.5t-58.5 152.5q0 20 3 43.5t7 49.5l124 580 h-143zM609 1171q51 77 88.5 174t58.5 195h230q-17 -61 -51.5 -128.5t-75 -128.5t-81.5 -109t-69 -68z" />
<glyph unicode="&#x16a;" horiz-adv-x="1281" d="M134 0zM134 370q0 43 5.5 87.5t16.5 93.5l200 940h274l-195 -938q-17 -81 -18 -131q0 -102 53.5 -145t155.5 -43q128 0 198 75t107 240l199 942h260l-201 -963q-33 -153 -83.5 -258.5t-123.5 -171.5t-171 -95t-225 -29q-124 0 -209 29t-139.5 82t-79 125.5t-24.5 159.5z M547 1634l38 189h697l-40 -189h-695z" />
<glyph unicode="&#x16b;" horiz-adv-x="1089" d="M83 0zM83 205q0 79 21 171l148 689h262l-140 -658q-12 -64 -12 -106q0 -43 17 -66.5t60 -23.5q36 0 73 18.5t71.5 47t63 63t48.5 69.5l136 656h262l-134 -639q-11 -42 -18.5 -100t-14 -118.5t-8.5 -116t0 -91.5h-211l-10 191h-9q-30 -40 -69.5 -79t-87 -71.5 t-104.5 -51.5t-120 -19q-100 0 -162 50.5t-62 184.5zM368 1205l41 197h656l-41 -197h-656z" />
<glyph unicode="&#x16c;" horiz-adv-x="1281" d="M134 0zM134 370q0 43 5.5 87.5t16.5 93.5l200 940h274l-195 -938q-17 -81 -18 -131q0 -102 53.5 -145t155.5 -43q128 0 198 75t107 240l199 942h260l-201 -963q-33 -153 -83.5 -258.5t-123.5 -171.5t-171 -95t-225 -29q-124 0 -209 29t-139.5 82t-79 125.5t-24.5 159.5z M537 1785l102 79q38 -55 93.5 -85.5t139.5 -30.5q117 0 195.5 32.5t137.5 83.5l105 -69q-36 -63 -85.5 -109t-106.5 -74.5t-122 -42.5t-132 -14q-55 0 -107 16t-95.5 46.5t-77 73.5t-47.5 94z" />
<glyph unicode="&#x16d;" horiz-adv-x="1089" d="M83 0zM83 205q0 79 21 171l148 689h262l-140 -658q-12 -64 -12 -106q0 -43 17 -66.5t60 -23.5q36 0 73 18.5t71.5 47t63 63t48.5 69.5l136 656h262l-134 -639q-11 -42 -18.5 -100t-14 -118.5t-8.5 -116t0 -91.5h-211l-10 191h-9q-30 -40 -69.5 -79t-87 -71.5 t-104.5 -51.5t-120 -19q-100 0 -162 50.5t-62 184.5zM400 1465l143 69q45 -126 179 -126q84 0 150.5 33t110.5 93l110 -58q-17 -51 -54.5 -101t-90 -88.5t-118.5 -62t-136 -23.5q-132 0 -211 71.5t-83 192.5z" />
<glyph unicode="&#x16e;" horiz-adv-x="1281" d="M134 0zM134 370q0 43 5.5 87.5t16.5 93.5l200 940h274l-195 -938q-17 -81 -18 -131q0 -102 53.5 -145t155.5 -43q128 0 198 75t107 240l199 942h260l-201 -963q-33 -153 -83.5 -258.5t-123.5 -171.5t-171 -95t-225 -29q-124 0 -209 29t-139.5 82t-79 125.5t-24.5 159.5z M645 1644q0 39 13 74t44 61.5t83.5 41.5t132.5 15q148 0 210.5 -51t64.5 -141q-2 -38 -16 -72t-45.5 -58.5t-84 -39.5t-129.5 -17q-151 2 -212 54t-61 133zM824 1644q0 -65 94 -65q53 0 74.5 16.5t21.5 48.5q0 71 -96 71q-94 0 -94 -71z" />
<glyph unicode="&#x16f;" horiz-adv-x="1089" d="M83 0zM83 205q0 79 21 171l148 689h262l-140 -658q-12 -64 -12 -106q0 -43 17 -66.5t60 -23.5q36 0 73 18.5t71.5 47t63 63t48.5 69.5l136 656h262l-134 -639q-11 -42 -18.5 -100t-14 -118.5t-8.5 -116t0 -91.5h-211l-10 191h-9q-30 -40 -69.5 -79t-87 -71.5 t-104.5 -51.5t-120 -19q-100 0 -162 50.5t-62 184.5zM466 1378q0 89 61 147t176 58q109 0 172.5 -52.5t63.5 -152.5q0 -83 -62.5 -141.5t-173.5 -58.5q-113 0 -175 54t-62 146zM620 1378q0 -34 24.5 -52.5t58.5 -18.5q37 0 60.5 17.5t23.5 53.5t-25 54.5t-59 18.5 t-58.5 -17.5t-24.5 -55.5z" />
<glyph unicode="&#x170;" horiz-adv-x="1281" d="M134 0zM134 370q0 43 5.5 87.5t16.5 93.5l200 940h274l-195 -938q-17 -81 -18 -131q0 -102 53.5 -145t155.5 -43q128 0 198 75t107 240l199 942h260l-201 -963q-33 -153 -83.5 -258.5t-123.5 -171.5t-171 -95t-225 -29q-124 0 -209 29t-139.5 82t-79 125.5t-24.5 159.5z M585 1579l169 232h268l-7 -35l-245 -197h-185zM907 1579l247 232h281l-6 -35l-331 -197h-191z" />
<glyph unicode="&#x171;" horiz-adv-x="1089" d="M83 0zM83 205q0 79 21 171l148 689h262l-140 -658q-12 -64 -12 -106q0 -43 17 -66.5t60 -23.5q36 0 73 18.5t71.5 47t63 63t48.5 69.5l136 656h262l-134 -639q-11 -42 -18.5 -100t-14 -118.5t-8.5 -116t0 -91.5h-211l-10 191h-9q-30 -40 -69.5 -79t-87 -71.5 t-104.5 -51.5t-120 -19q-100 0 -162 50.5t-62 184.5zM453 1216l128 275h239l-6 -34l-203 -241h-158zM735 1216l206 275h256l-6 -34l-291 -241h-165z" />
<glyph unicode="&#x172;" horiz-adv-x="1281" d="M134 370q0 43 5.5 87.5t16.5 93.5l200 940h274l-195 -938q-17 -81 -18 -131q0 -102 53.5 -145t155.5 -43q128 0 198 75t107 240l199 942h260l-201 -963q-49 -230 -137.5 -353.5t-236.5 -170.5q-49 -30 -82.5 -70t-33.5 -96q0 -37 21.5 -58.5t59.5 -21.5q34 0 80 16 l14 -132q-41 -28 -108 -50.5t-138 -22.5q-102 0 -152 52.5t-50 124.5q0 75 43 131.5t104 96.5q-120 2 -204 32t-136 82t-75.5 124.5t-23.5 157.5z" />
<glyph unicode="&#x173;" horiz-adv-x="1089" d="M83 205q0 79 21 171l148 689h262l-140 -658q-12 -64 -12 -106q0 -43 17 -66.5t60 -23.5q36 0 73 18.5t71.5 47t63 63t48.5 69.5l136 656h262l-134 -639q-11 -42 -18.5 -100t-14 -118.5t-8.5 -116t0 -91.5h-36q-66 -26 -111 -73t-45 -102q0 -24 9 -41.5t27 -26.5t47.5 -4 t74.5 25l10 -132q-18 -12 -46 -26t-61 -24.5t-70.5 -18.5t-70.5 -8q-114 0 -155.5 44t-41.5 115q0 48 21.5 92t57 79t82 63t97.5 44l-10 185h-9q-30 -40 -69.5 -79t-87 -71.5t-104.5 -51.5t-120 -19q-100 0 -162 50.5t-62 184.5z" />
<glyph unicode="&#x178;" horiz-adv-x="1211" d="M226 0zM226 1491h306l139 -560l-4 -158h8l67 162l372 556h317l-662 -935l-117 -556h-276l116 553zM511 1699q0 62 42.5 93t111.5 31q68 0 110 -30.5t42 -93.5q0 -61 -42.5 -90.5t-109.5 -29.5q-69 0 -111.5 29.5t-42.5 90.5zM945 1699q0 62 43 93t110 31 q69 0 111.5 -30.5t42.5 -93.5q0 -61 -42.5 -90.5t-111.5 -29.5q-68 0 -110.5 29.5t-42.5 90.5z" />
<glyph unicode="&#x179;" horiz-adv-x="1102" d="M-24 0l56 260l767 886l123 85h-684l54 260h982l-53 -260l-772 -892l-119 -79h684l-55 -260h-983zM0 0zM639 1602l267 251h333l-12 -64l-366 -187h-222z" />
<glyph unicode="&#x17a;" horiz-adv-x="925" d="M-28 0l47 230l479 509l152 96h-503l51 230h792l-49 -230l-490 -518l-136 -87h498l-49 -230h-792zM0 0zM510 1205l177 329h266l-12 -64l-283 -265h-148z" />
<glyph unicode="&#x17b;" horiz-adv-x="1102" d="M-24 0l56 260l767 886l123 85h-684l54 260h982l-53 -260l-772 -892l-119 -79h684l-55 -260h-983zM0 0zM653 1699q0 69 51.5 100.5t125.5 31.5q70 0 123 -31.5t53 -100.5q0 -68 -53 -99t-123 -31q-75 0 -126 31t-51 99z" />
<glyph unicode="&#x17c;" horiz-adv-x="925" d="M-28 0l47 230l479 509l152 96h-503l51 230h792l-49 -230l-490 -518l-136 -87h498l-49 -230h-792zM0 0zM452 1368q0 70 45.5 108t116.5 38q69 0 116 -38.5t47 -107.5t-48 -108t-115 -39q-71 0 -116.5 39t-45.5 108z" />
<glyph unicode="&#x17d;" horiz-adv-x="1102" d="M-24 0l56 260l767 886l123 85h-684l54 260h982l-53 -260l-772 -892l-119 -79h684l-55 -260h-983zM0 0zM479 1770l18 83h195l87 -95l26 -65l53 63l137 97h209l-18 -85l-313 -199h-179z" />
<glyph unicode="&#x17e;" horiz-adv-x="925" d="M-28 0l47 230l479 509l152 96h-503l51 230h792l-49 -230l-490 -518l-136 -87h498l-49 -230h-792zM0 0zM358 1559h220l49 -140l10 -104l60 104l119 140h209l-333 -388h-185z" />
<glyph unicode="&#x17f;" horiz-adv-x="608" d="M-275 -384l72 195q37 -15 73 -19.5t92 -4.5q68 0 105 53.5t55 159.5l140 846h-164l42 219h163l12 59q43 203 143 293.5t255 90.5q92 0 152 -14t108 -37l-95 -191q-43 16 -77.5 19.5t-65.5 3.5q-85 0 -118.5 -61t-51.5 -163l-183 -1065q-19 -108 -45 -191.5t-69.5 -139 t-107.5 -84t-158 -28.5q-77 0 -150.5 12t-126.5 47z" />
<glyph unicode="&#x192;" d="M-96 -392l45 224q49 -21 93.5 -31t104.5 -10q77 0 119.5 52.5t61.5 173.5l130 814h-166v234h204l24 142q12 79 34.5 138t62 98t101.5 58t154 19q34 0 77 -5t88 -14.5t87.5 -21.5t74.5 -26l-69 -207q-104 40 -201 40q-69 0 -95.5 -32.5t-38.5 -117.5l-11 -71h253v-234 h-293l-152 -904q-13 -79 -37.5 -145.5t-68 -117t-108.5 -79t-159 -28.5q-30 0 -73.5 4t-88.5 10.5t-86.5 16.5t-66.5 20z" />
<glyph unicode="&#x1f4;" horiz-adv-x="1245" d="M124 0zM124 575q0 246 67 424.5t182 294.5t268.5 171t323.5 55q122 0 216.5 -20t143.5 -41l-111 -245q-45 20 -112 33t-163 13q-113 0 -209 -42.5t-166 -125t-109.5 -205.5t-39.5 -280q0 -176 83 -276.5t224 -100.5q104 0 183 53l60 284l-217 34l38 177h447l-140 -665 q-96 -75 -201.5 -109t-226.5 -34q-118 0 -217 40.5t-171 117.5t-112.5 190t-40.5 257zM826 1602l267 251h333l-12 -64l-366 -187h-222z" />
<glyph unicode="&#x1f5;" horiz-adv-x="1075" d="M-21 -356l98 194q19 -9 44.5 -20t58.5 -23t77 -19.5t101 -7.5q106 0 169 66t91 181l40 166h-8q-49 -77 -133 -137.5t-191 -60.5q-116 0 -186.5 86.5t-70.5 231.5q0 164 46.5 307.5t130.5 251t199.5 169.5t253.5 62q130 0 226.5 -22.5t156.5 -50.5l-215 -1018 q-28 -126 -74.5 -212t-111.5 -139.5t-149.5 -76.5t-186.5 -23q-75 0 -133.5 10t-103.5 25.5t-77.5 31.5t-51.5 28zM0 0zM339 352q0 -69 28.5 -109t75.5 -40q36 0 74.5 22.5t73.5 56t62.5 75t45.5 78.5l91 415q-24 12 -59.5 17t-72.5 5q-68 0 -126.5 -41t-101 -111t-67 -165 t-24.5 -203zM610 1205l177 329h266l-12 -64l-283 -265h-148z" />
<glyph unicode="&#x218;" horiz-adv-x="1085" d="M36 0zM37 59l142 248q21 -13 55.5 -28t78 -28t94.5 -21t103 -8q59 0 112 9t92.5 31.5t62 57t22.5 85.5q0 57 -38.5 97.5t-96.5 77t-125 76t-126 92.5t-97.5 128.5t-38.5 184.5q0 124 43.5 211t118.5 142.5t175 80.5t215 25q62 0 123.5 -6t117 -18t102.5 -27.5t79 -35.5 l-141 -242q-40 26 -118.5 52.5t-175.5 26.5q-49 0 -96 -10t-82.5 -31.5t-57 -55t-21.5 -80.5q0 -61 38 -104.5t96.5 -80t126 -75t126 -89.5t96.5 -123t38 -176q0 -126 -43.5 -216.5t-123.5 -147.5t-191.5 -84t-247.5 -27q-75 0 -142 9t-125 21t-101.5 28.5t-68.5 30.5z M258 -467q32 15 66 42t50 69q-38 7 -62.5 34t-24.5 82q0 36 14 63.5t36.5 47t50 30t55.5 10.5q81 0 107.5 -44t26.5 -105q0 -77 -31 -136t-73.5 -101.5t-89.5 -69t-81 -36.5z" />
<glyph unicode="&#x219;" horiz-adv-x="843" d="M-2 41l83 209q43 -24 110 -42.5t141 -18.5q75 0 114.5 29.5t41.5 88.5q0 42 -25.5 73t-65 59t-84.5 56.5t-84.5 65.5t-65 88.5t-25.5 123.5q0 70 27.5 130t78 102.5t122 66t160.5 23.5q124 0 204.5 -18t127.5 -46l-72 -200q-42 19 -103 32t-127 13q-68 0 -107.5 -23.5 t-39.5 -74.5q0 -34 25.5 -60.5t65 -55t84 -57t84 -69t65 -92.5t25.5 -125q0 -177 -115 -263t-306 -86q-108 0 -199 20t-140 51zM0 0zM103 -467q32 15 66 42t50 69q-38 7 -62.5 34t-24.5 82q0 36 14 63.5t36.5 47t50 30t55.5 10.5q81 0 107.5 -44t26.5 -105q0 -77 -31 -136 t-73.5 -101.5t-89.5 -69t-81 -36.5z" />
<glyph unicode="&#x237;" horiz-adv-x="518" d="M-238 -424l51 226q53 -4 91.5 9.5t65 43.5t44.5 75.5t31 103.5l217 1031h264l-236 -1110q-40 -191 -136.5 -292.5t-259.5 -101.5q-66 0 -132 15z" />
<glyph unicode="&#x2bc;" horiz-adv-x="459" d="M211 986zM211 1103q45 19 82 51.5t52 81.5q-38 4 -63.5 35t-23.5 86q0 39 16 67.5t39.5 47.5t51 28.5t52.5 9.5q75 0 107 -38.5t32 -103.5q0 -88 -33 -154t-81 -112.5t-100 -74.5t-90 -41z" />
<glyph unicode="&#x2c6;" horiz-adv-x="917" d="M639 1171l332 388h175l143 -388h-205l-51 141l-9 104l-57 -104l-121 -141h-207z" />
<glyph unicode="&#x2c7;" horiz-adv-x="917" d="M707 1559h220l49 -140l10 -104l60 104l119 140h209l-333 -388h-185z" />
<glyph unicode="&#x2d8;" horiz-adv-x="606" d="M545 1465l143 69q45 -126 179 -126q84 0 150.5 33t110.5 93l110 -58q-17 -51 -54.5 -101t-90 -88.5t-118.5 -62t-136 -23.5q-132 0 -211 71.5t-83 192.5z" />
<glyph unicode="&#x2d9;" horiz-adv-x="565" d="M667 1368q0 70 45.5 108t116.5 38q69 0 116 -38.5t47 -107.5t-48 -108t-115 -39q-71 0 -116.5 39t-45.5 108z" />
<glyph unicode="&#x2da;" horiz-adv-x="853" d="M813 1378q0 89 61 147t176 58q109 0 172.5 -52.5t63.5 -152.5q0 -83 -62.5 -141.5t-173.5 -58.5q-113 0 -175 54t-62 146zM967 1378q0 -34 24.5 -52.5t58.5 -18.5q37 0 60.5 17.5t23.5 53.5t-25 54.5t-59 18.5t-58.5 -17.5t-24.5 -55.5z" />
<glyph unicode="&#x2db;" horiz-adv-x="813" d="M520 -254q0 57 23.5 101.5t61.5 78t86 57t97 38.5h200q-79 -26 -137.5 -70.5t-58.5 -112.5q0 -73 82 -72q30 0 81 17l10 -132q-38 -29 -105.5 -49.5t-137.5 -20.5q-102 0 -152 46.5t-50 118.5z" />
<glyph unicode="&#x2dc;" horiz-adv-x="742" d="M652 1402q75 79 131 108.5t103 29.5q39 0 71.5 -15t66 -32t66 -31.5t71.5 -14.5q30 0 64.5 12.5t77.5 44.5l9 -149q-68 -69 -121 -95.5t-98 -26.5q-38 0 -72.5 13.5t-68.5 31t-68 31.5t-73 14q-32 0 -70 -13t-81 -47z" />
<glyph unicode="&#x2dd;" horiz-adv-x="1010" d="M683 1216l128 275h239l-6 -34l-203 -241h-158zM965 1216l206 275h256l-6 -34l-291 -241h-165z" />
<glyph unicode="&#x301;" horiz-adv-x="4" d="M-361 1205l177 329h266l-12 -64l-283 -265h-148zM0 1205z" />
<glyph unicode="&#x394;" horiz-adv-x="1254" d="M2 0v151l514 1351h167l518 -1351v-151h-1199zM313 248h575l-238 634l-49 213h-11l-51 -215z" />
<glyph unicode="&#x3a9;" horiz-adv-x="1665" d="M156 0v234h224l181 -27v59l-99 19q-64 30 -119.5 79t-96.5 119t-64.5 161t-23.5 202q0 156 50 280t142.5 211.5t222.5 135t287 47.5q166 0 297.5 -49.5t220.5 -139t137 -215.5t48 -279q0 -110 -25.5 -199t-67 -157t-95.5 -116t-112 -78l-104 -21v-59l181 27h225v-234 h-638v433q55 8 113.5 35.5t106.5 75.5t78.5 119.5t30.5 171.5q0 79 -21 155.5t-68 137.5t-122.5 96.5t-186.5 35.5q-189 0 -291.5 -108t-102.5 -323q0 -96 30 -167.5t77 -119.5t105.5 -74.5t115.5 -34.5v-433h-636z" />
<glyph unicode="&#x3c0;" horiz-adv-x="1417" d="M100 839q61 108 150 167t197 59h976l-49 -234h-169l-108 -499q-10 -60 1.5 -83t41.5 -23q21 0 46.5 4t44.5 8l2 -191q-44 -19 -111 -39t-161 -20q-87 0 -122.5 37.5t-35.5 106.5q0 21 3 45t7 49l128 605h-283l-174 -831h-262l174 831h-28q-36 0 -68 -21.5t-68 -72.5z" />
<glyph unicode="&#x401;" horiz-adv-x="1071" d="M43 0l315 1491h276h563l-55 -260h-563l-75 -347h514l-57 -260h-510l-79 -364h573l-53 -260h-573h-276zM43 0zM439 1699q0 62 42.5 93t111.5 31q68 0 110 -30.5t42 -93.5q0 -61 -42.5 -90.5t-109.5 -29.5q-69 0 -111.5 29.5t-42.5 90.5zM873 1699q0 62 43 93t110 31 q69 0 111.5 -30.5t42.5 -93.5q0 -61 -42.5 -90.5t-111.5 -29.5q-68 0 -110.5 29.5t-42.5 90.5z" />
<glyph unicode="&#x402;" horiz-adv-x="1510" d="M205 1231l55 260h1101l-54 -260h-413l-65 -304q36 12 95.5 29t168.5 17q102 0 172 -30.5t114 -85t63 -126t19 -150.5q0 -115 -34 -222t-106.5 -190.5t-186.5 -133.5t-274 -50q-113 0 -138 9l56 248q12 -2 43 -4t65 -2q66 0 119.5 23.5t89 64t55 94t19.5 112.5 q0 104 -51 143.5t-157 39.5q-47 0 -102.5 -12.5t-83.5 -25.5l-143 -675h-274l260 1231h-413z" />
<glyph unicode="&#x403;" horiz-adv-x="927" d="M43 0l315 1491h822l-56 -260h-545l-260 -1231h-276zM43 0zM628 1602l267 251h333l-12 -64l-366 -187h-222z" />
<glyph unicode="&#x404;" horiz-adv-x="1189" d="M124 579q0 252 70 430t185 291.5t263 166.5t303 53q60 0 116.5 -5t106.5 -13.5t88.5 -19t64.5 -21.5l-109 -247q-45 24 -119.5 35t-165.5 11q-165 0 -290 -97.5t-184 -276.5h578l-51 -240h-565v-32q0 -181 90.5 -282.5t242.5 -101.5q95 0 174.5 20t132.5 51l6 -240 q-75 -46 -176 -68.5t-206 -22.5q-140 0 -244.5 46.5t-174 130t-103 194t-33.5 238.5z" />
<glyph unicode="&#x405;" horiz-adv-x="1085" d="M-4 59l142 248q21 -13 55.5 -28t78 -28t94.5 -21t103 -8q59 0 112 9t92.5 31.5t62 57t22.5 85.5q0 57 -38.5 97.5t-96.5 77t-125 76t-126 92.5t-97.5 128.5t-38.5 184.5q0 124 43.5 211t118.5 142.5t175 80.5t215 25q62 0 123.5 -6t117 -18t102.5 -27.5t79 -35.5 l-141 -242q-40 26 -118.5 52.5t-175.5 26.5q-49 0 -96 -10t-82.5 -31.5t-57 -55t-21.5 -80.5q0 -61 38 -104.5t96.5 -80t126 -75t126 -89.5t96.5 -123t38 -176q0 -126 -43.5 -216.5t-123.5 -147.5t-191.5 -84t-247.5 -27q-75 0 -142 9t-125 21t-101.5 28.5t-68.5 30.5zM0 0z " />
<glyph unicode="&#x406;" horiz-adv-x="591" d="M75 0l315 1491h275l-316 -1491h-274zM75 0z" />
<glyph unicode="&#x407;" horiz-adv-x="591" d="M75 0l315 1491h275l-316 -1491h-274zM294 1687q2 63 34 99.5t87 36.5q53 0 86.5 -36.5t33.5 -99.5q0 -61 -33 -96.5t-87 -35.5q-55 0 -87 35.5t-34 96.5zM579 1687q0 63 33.5 99.5t86.5 36.5t87 -36.5t34 -99.5q0 -61 -34 -96.5t-87 -35.5t-86.5 35.5t-33.5 96.5z" />
<glyph unicode="&#x408;" horiz-adv-x="689" d="M-108 24l106 238q49 -28 115 -28q45 0 74.5 18t50 50.5t33 76t25.5 96.5l213 1016h277l-233 -1091q-18 -89 -48 -166.5t-79.5 -135t-122.5 -91t-177 -33.5q-59 0 -125.5 13t-108.5 37zM0 0z" />
<glyph unicode="&#x409;" horiz-adv-x="1894" d="M-102 15l83 251q11 -4 22.5 -6t22.5 -2q36 -2 73 17t69 62q39 47 81.5 136.5t88.5 229.5t96 334t105 454h262h296h277l-114 -534q26 4 80.5 10t100.5 6q98 0 179 -26.5t141 -78t93.5 -125.5t33.5 -172q0 -160 -56 -273t-151.5 -183t-225.5 -103t-277 -33q-28 0 -75.5 1 t-103.5 5.5t-113 10.5t-102 19l257 1216h-295q-49 -202 -93 -368t-87.5 -298t-92.5 -234.5t-107 -179.5q-38 -51 -79.5 -83t-83 -50t-80 -25.5t-72.5 -7.5q-98 0 -153 30zM1110 252q24 -4 59.5 -9t76.5 -5q71 0 133 16t110.5 51.5t77 88.5t28.5 130q0 106 -68 147.5 t-181 41.5q-13 0 -34 -2t-41.5 -4t-38.5 -5t-27 -5z" />
<glyph unicode="&#x40a;" horiz-adv-x="1950" d="M43 0l315 1491h276l-122 -582h517l123 582h277l-119 -566q13 2 35.5 5t49 6t55 4t52.5 1q200 0 320.5 -102t120.5 -298q0 -130 -44 -234t-131 -177t-220.5 -112t-314.5 -39q-28 0 -72.5 1t-104.5 4.5t-116 8.5t-101 13l137 644h-518l-139 -650h-276zM1167 252 q21 -7 60 -10.5t78 -3.5q177 0 261 68t84 200q0 100 -63.5 137.5t-184.5 37.5q-15 0 -36.5 -2l-43 -4t-40.5 -6t-28 -7z" />
<glyph unicode="&#x40b;" horiz-adv-x="1547" d="M205 1231l55 260h1101l-54 -260h-415l-79 -377q60 34 138 60.5t191 26.5q71 0 132 -18t107 -58t73.5 -102t27.5 -149q0 -31 -3 -65.5t-12 -71.5l-99 -477h-277l94 431q4 26 7 47.5t3 43.5q0 169 -175 169q-77 0 -140 -20.5t-116 -52.5l-132 -618h-274l260 1231h-413z" />
<glyph unicode="&#x40c;" horiz-adv-x="1262" d="M43 0l315 1491h276l-140 -660l67 23l504 637h332l-537 -633l-127 -74l94 -83l323 -701h-309l-288 636h-100l-134 -636h-276zM43 0zM679 1602l267 251h333l-12 -64l-366 -187h-222z" />
<glyph unicode="&#x40e;" horiz-adv-x="1162" d="M110 0zM110 36l122 236q30 -16 55.5 -21.5t57.5 -5.5q45 0 87.5 46t83.5 118l-299 1082h305l149 -658l2 -194h12l71 200l347 652h309l-597 -1031q-70 -122 -125.5 -211t-109.5 -147.5t-116 -87.5t-145 -29q-130 0 -209 51zM484 1819l230 43q-5 -60 28.5 -94t92.5 -34 q139 0 181 126l244 -37q-45 -130 -159 -194t-286 -64q-84 0 -145.5 20.5t-102.5 54.5t-61 80t-22 99z" />
<glyph unicode="&#x40f;" horiz-adv-x="1307" d="M43 0l315 1491h276l-262 -1231h497l261 1231h276l-315 -1491h-284h-138l-55 -372h-248l96 372h-143h-276z" />
<glyph unicode="&#x410;" horiz-adv-x="1238" d="M-81 0l829 1502h204l194 -1502h-279l-42 330h-435l-177 -330h-294zM0 0zM512 565h301l-33 331l2 234h-11l-86 -236z" />
<glyph unicode="&#x411;" horiz-adv-x="1166" d="M43 15l313 1476h276h593l-56 -260h-592l-65 -311q36 7 87 13t100 6q117 0 199 -31.5t134 -85t75 -124t23 -145.5q0 -134 -45.5 -240t-134 -181t-216 -114t-289.5 -39q-34 0 -80 2t-107.5 6.5t-118 10.5t-96.5 17zM364 230q21 -6 66 -8.5t88 -2.5q59 0 117 18.5 t103.5 53.5t73 88.5t27.5 122.5q0 111 -65 154t-182 43q-30 0 -72.5 -5.5t-59.5 -10.5z" />
<glyph unicode="&#x412;" horiz-adv-x="1209" d="M43 0zM43 10l311 1470q40 6 91 13t109 11t118.5 6t117.5 2q98 0 182.5 -20t145 -63t95.5 -110t35 -160q0 -71 -23.5 -135.5t-67 -116t-104.5 -85.5t-137 -44v-12q41 -8 81 -30.5t72 -57.5t51.5 -83t19.5 -107q0 -136 -53.5 -233t-143 -158t-208.5 -89.5t-251 -28.5h-89 t-116 3t-123.5 9.5t-112.5 18.5zM356 232q8 -4 30.5 -6t49 -3t54.5 -2.5t47 -1.5q53 0 109.5 13t102.5 43t75.5 76.5t29.5 115.5q0 53 -23.5 87t-62 54t-88.5 27.5t-103 7.5h-136zM490 864h91q31 0 71.5 1.5t67.5 6.5q38 6 82 20.5t79 42.5t58.5 70.5t23.5 106.5 q0 91 -61 125.5t-154 34.5q-55 0 -102.5 -2t-72.5 -7z" />
<glyph unicode="&#x413;" horiz-adv-x="927" d="M43 0l315 1491h822l-56 -260h-545l-260 -1231h-276z" />
<glyph unicode="&#x414;" horiz-adv-x="1411" d="M-136 -266l110 526h150q18 24 71 103.5t116 227.5t133 369.5t125 530.5h248h325h277l-263 -1231h181l-112 -526h-194l26 266h-910l-88 -266h-195zM422 260h460l204 971h-311q-90 -383 -185.5 -624t-167.5 -347z" />
<glyph unicode="&#x415;" horiz-adv-x="1071" d="M43 0l315 1491h276h563l-55 -260h-563l-75 -347h514l-57 -260h-510l-79 -364h573l-53 -260h-573h-276zM43 0z" />
<glyph unicode="&#x416;" horiz-adv-x="1709" d="M-98 0l503 654l130 83l-82 78l-208 676h298l175 -637h85l134 637h264l-140 -662l73 23l415 639h327l-466 -654l-113 -73l89 -89l240 -675h-307l-209 648h-88l-136 -648h-264l142 673l-69 -25l-455 -648h-338z" />
<glyph unicode="&#x417;" horiz-adv-x="1079" d="M-36 49l123 254q43 -24 124 -48.5t200 -24.5q51 0 106.5 13t100 41.5t73.5 75.5t29 115q0 104 -73.5 141.5t-209.5 41.5h-81h-55l48 230h49q19 0 45 1t52.5 3t52 4.5t42.5 4.5q42 6 85 20t76 39.5t54.5 62t21.5 87.5q0 68 -52.5 107t-154.5 39q-90 0 -172 -25.5 t-135 -48.5l-19 247q26 12 69.5 27.5t98 28.5t118 22t127.5 9q90 0 164 -20t130 -60.5t86.5 -101t30.5 -139.5q0 -147 -79.5 -257.5t-237.5 -147.5v-10q40 -12 78.5 -35t67.5 -59t47 -87.5t18 -121.5q0 -130 -51.5 -224.5t-139.5 -157.5t-207.5 -94t-253.5 -31t-239.5 23.5 t-156.5 55.5z" />
<glyph unicode="&#x418;" horiz-adv-x="1358" d="M43 0l315 1491h276l-167 -796l-65 -197h13l141 211l690 782h213l-315 -1491h-277l170 811l62 191h-13l-136 -205l-694 -797h-213z" />
<glyph unicode="&#x419;" horiz-adv-x="1358" d="M43 0l315 1491h276l-167 -796l-65 -197h13l141 211l690 782h213l-315 -1491h-277l170 811l62 191h-13l-136 -205l-694 -797h-213zM43 0zM618 1819l230 43q-5 -60 28.5 -94t92.5 -34q139 0 181 126l244 -37q-45 -130 -159 -194t-286 -64q-84 0 -145.5 20.5t-102.5 54.5 t-61 80t-22 99z" />
<glyph unicode="&#x41a;" horiz-adv-x="1262" d="M43 0l315 1491h276l-140 -660l67 23l504 637h332l-537 -633l-127 -74l94 -83l323 -701h-309l-288 636h-100l-134 -636h-276zM43 0z" />
<glyph unicode="&#x41b;" horiz-adv-x="1275" d="M-102 15l83 251q11 -4 22.5 -6t22.5 -2q36 -2 73 17t69 62q39 47 81.5 136.5t88.5 229.5t96 334t105 454h262h296h277l-315 -1491h-275l260 1231h-298q-49 -202 -93 -368t-87.5 -298t-92.5 -234.5t-107 -179.5q-38 -51 -79.5 -83t-83 -50t-80 -25.5t-72.5 -7.5 q-98 0 -153 30z" />
<glyph unicode="&#x41c;" horiz-adv-x="1632" d="M43 0l315 1491h245l224 -682l27 -170h10l99 174l502 678h267l-316 -1491h-274l163 773l95 294h-14l-140 -240l-419 -552h-88l-200 558l-39 234h-10l-21 -292l-164 -775h-262zM43 0z" />
<glyph unicode="&#x41d;" horiz-adv-x="1328" d="M43 0l315 1491h276l-128 -607h518l128 607h277l-315 -1491h-277l132 624h-518l-132 -624h-276zM43 0z" />
<glyph unicode="&#x41e;" horiz-adv-x="1370" d="M124 0zM124 558q0 198 54 374t154.5 307t242 206t315.5 75q116 0 208.5 -33.5t157.5 -105t101 -180t36 -258.5q0 -200 -54.5 -376.5t-153.5 -309.5t-236.5 -210t-302.5 -77q-252 0 -386 148t-136 440zM415 567q0 -153 58.5 -245t193.5 -92q97 0 177.5 58.5t137.5 157.5 t88 227t31 266q0 169 -66 245t-181 76q-96 0 -176 -55t-138 -149.5t-91.5 -221.5t-33.5 -267z" />
<glyph unicode="&#x41f;" horiz-adv-x="1305" d="M43 0l315 1491h276h494h278l-315 -1491h-278l260 1231h-494l-260 -1231h-276z" />
<glyph unicode="&#x420;" horiz-adv-x="1171" d="M43 0l313 1476q89 16 190.5 26t203.5 10q108 0 201 -24.5t162 -75.5t107 -131t38 -190q0 -166 -57 -278t-151.5 -181t-216.5 -98.5t-247 -29.5h-33.5t-46.5 1t-46.5 4t-33.5 5l-107 -514h-276zM43 0zM482 764q8 -2 23 -4t33 -3t34 -1h24q73 0 140 16t118 51t82 92.5 t31 141.5q0 61 -20 101.5t-54.5 63t-80.5 30.5t-96 8q-39 0 -74 -3t-59 -7z" />
<glyph unicode="&#x421;" horiz-adv-x="1142" d="M124 0zM124 579q0 252 70 430t185 291.5t263 166.5t303 53q122 0 208.5 -18t135.5 -41l-109 -247q-42 24 -102 35t-151 11q-109 0 -203 -44.5t-162 -127t-107.5 -202.5t-39.5 -270q0 -181 90.5 -283.5t242.5 -102.5q95 0 158 20t118 51l5 -240q-143 -91 -350 -91 q-140 0 -244.5 46.5t-174 130t-103 194t-33.5 238.5z" />
<glyph unicode="&#x422;" horiz-adv-x="1164" d="M205 0zM205 1231l55 260h1101l-54 -260h-413l-262 -1231h-274l260 1231h-413z" />
<glyph unicode="&#x423;" horiz-adv-x="1162" d="M110 36l122 236q30 -16 55.5 -21.5t57.5 -5.5q45 0 87.5 46t83.5 118l-299 1082h305l149 -658l2 -194h12l71 200l347 652h309l-597 -1031q-70 -122 -125.5 -211t-109.5 -147.5t-116 -87.5t-145 -29q-130 0 -209 51z" />
<glyph unicode="&#x424;" horiz-adv-x="1639" d="M108 586q0 191 50.5 337t139 243t206.5 147t252 50q28 0 66 -3t62 -8l38 182h273l-39 -188q41 10 82.5 13.5t73.5 3.5q167 0 267 -109.5t100 -322.5q0 -171 -46 -313.5t-129 -247t-199 -162t-259 -57.5q-36 0 -74.5 3.5t-66.5 11.5l-45 -209h-272l44 209 q-42 -8 -74 -11.5t-85 -3.5q-73 0 -139 27t-116 81t-80 136t-30 191zM388 628q0 -65 15.5 -111t42.5 -75t63 -42.5t77 -13.5q16 0 48.5 1t58.5 9l153 726q-21 4 -48 5t-50 1q-77 0 -142 -33.5t-114 -98.5t-76.5 -157.5t-27.5 -210.5zM941 390q17 -4 42 -4h50q77 0 143 35 t116 100t79 158.5t29 210.5q0 238 -195 238q-24 0 -55.5 -2t-54.5 -8z" />
<glyph unicode="&#x425;" horiz-adv-x="1294" d="M-51 0l596 760l-240 731h300l128 -430l21 -152l79 152l317 430h332l-560 -720l267 -771h-297l-153 460l-26 158l-85 -158l-343 -460h-336zM0 0z" />
<glyph unicode="&#x426;" horiz-adv-x="1394" d="M43 0l315 1491h276l-262 -1231h490l262 1231h276l-260 -1231h179l-114 -526h-193l25 266h-228h-490h-276z" />
<glyph unicode="&#x427;" horiz-adv-x="1240" d="M207 841q0 66 15 135l108 515h275l-99 -462q-6 -29 -7 -51.5t-1 -46.5q0 -83 39.5 -124t129.5 -41q77 0 144 17.5t114 53.5l138 654h277l-316 -1491h-276l128 601q-30 -14 -62 -29.5t-70.5 -28.5t-86.5 -20t-108 -7q-75 0 -137.5 18.5t-108 59t-71 102.5t-25.5 145z" />
<glyph unicode="&#x428;" horiz-adv-x="1756" d="M43 0l315 1491h276l-262 -1231h335l262 1231h275l-260 -1231h335l260 1231h276l-315 -1491h-274h-335h-277h-335h-276z" />
<glyph unicode="&#x429;" horiz-adv-x="1850" d="M43 0l315 1491h276l-262 -1231h335l262 1231h275l-260 -1231h335l260 1231h276l-262 -1231h187l-110 -526h-194l26 266h-236h-335h-277h-335h-276z" />
<glyph unicode="&#x42a;" horiz-adv-x="1345" d="M173 1231l53 260h321h278l-114 -534q28 4 82.5 10t100.5 6q203 0 323 -106.5t120 -295.5q0 -136 -44.5 -246t-132 -187t-220.5 -118t-308 -41q-28 0 -73 1t-104 5.5t-116.5 10.5t-102.5 19l258 1216h-321zM563 252q20 -7 55.5 -10.5t76.5 -3.5q68 0 131.5 16t112.5 51.5 t78 89.5t29 131q0 55 -19 91.5t-52.5 58t-78 29.5t-95.5 8q-15 0 -36 -2t-42.5 -4t-39.5 -5t-27 -5z" />
<glyph unicode="&#x42b;" horiz-adv-x="1628" d="M43 15l313 1476h276l-112 -534l70 10t91 6q102 0 182 -28.5t134.5 -81t82.5 -123.5t28 -157q0 -140 -47 -252t-136.5 -191t-219.5 -120t-296 -41h-55.5t-34.5 2q-38 0 -83 4.5t-97 10.5t-96 19zM368 252q45 -13 116 -14q70 0 130.5 19.5t105 57t70 90.5t25.5 123 q0 185 -225 185q-28 0 -68 -5t-58 -11zM1136 0l315 1491h276l-315 -1491h-276z" />
<glyph unicode="&#x42c;" horiz-adv-x="1154" d="M43 15l313 1476h276l-112 -534q26 4 80 10t101 6q98 0 179 -26.5t140.5 -78t92.5 -125.5t33 -172q0 -160 -55.5 -273t-151.5 -183t-226 -103t-276 -33q-28 0 -73 1t-103 5.5t-116 10.5t-102 19zM368 252q24 -4 60 -9t76 -5q71 0 134 16t111 51.5t76.5 88.5t28.5 130 q0 106 -68 147.5t-181 41.5q-12 0 -34 -2t-42 -4t-38 -5t-27 -5z" />
<glyph unicode="&#x42d;" horiz-adv-x="1175" d="M-26 41l128 253q40 -24 115 -44t177 -20q94 0 177 30t147 84t107.5 129.5t60.5 165.5h-560l48 235h535q6 81 -4.5 152t-45 123t-99.5 81.5t-168 29.5q-106 0 -180.5 -24t-130.5 -54l-9 247q82 38 176.5 64.5t203.5 26.5q149 0 254.5 -46.5t170.5 -125t94.5 -180 t29.5 -211.5q0 -211 -51 -392t-156.5 -313t-267 -207t-383.5 -75q-55 0 -109.5 6.5t-103.5 16t-89.5 22.5t-66.5 26z" />
<glyph unicode="&#x42e;" horiz-adv-x="1839" d="M43 0l315 1491h276l-128 -607h182q90 313 272 474.5t422 161.5q232 0 357 -140t125 -386q0 -207 -50 -393t-146.5 -326.5t-239 -222.5t-327.5 -82q-119 0 -205.5 41.5t-141.5 115.5t-81.5 171.5t-26.5 213.5q0 55 6 112h-201l-132 -624h-276zM927 530q0 -136 51 -218 t174 -82q96 0 174 63t132 166.5t83.5 238.5t29.5 280q0 134 -55 208t-170 74q-94 0 -170.5 -60t-132 -161.5t-86 -233.5t-30.5 -275z" />
<glyph unicode="&#x42f;" horiz-adv-x="1185" d="M-63 0l391 500l141 94q-38 16 -80 46.5t-76 75t-55.5 106.5t-21.5 145q0 160 62 264t161 167t225.5 88.5t256.5 25.5q32 0 65 -2q2 0 30.5 -1t76.5 -5t92.5 -10.5t78.5 -17.5l-313 -1476h-274l126 590l-150 -39l-415 -551h-321zM528 986q0 -102 63 -154t165 -52h104 l101 462q-24 4 -49.5 7t-61.5 3q-58 0 -115.5 -11.5t-103 -41.5t-74.5 -82t-29 -131z" />
<glyph unicode="&#x430;" horiz-adv-x="1071" d="M71 0zM71 307q0 156 39 298.5t122 251t210 173.5t302 65q74 0 162 -14t171 -37l-132 -618q-16 -81 -23.5 -164t-7.5 -158q0 -30 1 -56.5t3 -49.5h-194l-29 183h-10q-24 -39 -60.5 -75.5t-81.5 -68t-95 -49.5t-103 -18q-140 0 -207 91.5t-67 245.5zM341 358 q0 -69 22.5 -119t81.5 -50q39 0 72.5 16.5t62.5 41.5t51.5 55t39.5 56l107 496q-24 10 -54.5 16t-61.5 6q-76 0 -135.5 -46t-101 -120t-63 -166.5t-21.5 -185.5z" />
<glyph unicode="&#x431;" horiz-adv-x="1075" d="M89 386q0 223 49 416.5t134.5 338.5t202.5 232.5t255 98.5q175 14 285.5 27t155.5 50l-27 -246q-43 -30 -126 -45.5t-230 -26.5q-70 -6 -132 -22t-115 -58.5t-98 -117t-79 -198.5h10q153 207 384 206q83 0 141 -24.5t94 -68t52 -104t16 -133.5q0 -170 -46 -307.5 t-126 -233t-185.5 -148t-221.5 -52.5q-100 0 -174 31t-122 85t-72.5 131t-24.5 169zM360 392q0 -40 6 -77.5t22.5 -65t46 -44t74.5 -16.5q51 0 101 34.5t91 95.5t65 144.5t24 186.5q0 32 -7.5 63t-24 55t-45 39.5t-67.5 15.5q-57 0 -109.5 -33.5t-91 -91t-62 -136 t-23.5 -170.5z" />
<glyph unicode="&#x432;" horiz-adv-x="990" d="M71 321q0 43 6 89t17 99l21 105q24 102 70.5 188t114.5 149t156.5 97t193.5 34q94 0 158 -15t103 -44t56 -69t17 -94q0 -51 -19.5 -96.5t-51 -84t-76.5 -68.5t-95 -44l-3 -9q88 -10 134.5 -52t46.5 -132q0 -93 -38.5 -165.5t-105.5 -122.5t-158.5 -76.5t-198.5 -26.5 q-77 0 -140.5 19t-110 59.5t-72 104.5t-25.5 155zM319 339q0 -142 143 -143q81 0 137.5 42.5t56.5 121.5q0 47 -38.5 78t-135.5 22l-147 -11l-7 -30q-9 -40 -9 -80zM364 614l160 16q26 2 59 13t61.5 29.5t48.5 45t20 62.5q0 43 -19 66t-87 23q-172 0 -225 -196z" />
<glyph unicode="&#x433;" horiz-adv-x="872" d="M28 262q0 100 41 165t103 106.5t133 67t133 49t103.5 51t41.5 74.5q0 49 -27.5 69t-88.5 20q-96 0 -157.5 -17.5t-106.5 -39.5l-32 199q34 18 79.5 32t96.5 24.5t103 16t97 5.5q85 0 144 -19t95.5 -52t52 -78t15.5 -96q0 -104 -41.5 -169t-103 -107.5t-133.5 -68 t-133 -50.5t-103 -56.5t-42 -82.5q0 -55 41 -85.5t102 -30.5q73 0 140 19.5t110 47.5l57 -171q-69 -51 -163.5 -83t-184.5 -32q-102 0 -172 24.5t-114.5 66t-65 94t-20.5 107.5z" />
<glyph unicode="&#x434;" horiz-adv-x="1067" d="M79 396q0 134 39.5 254.5t112 213.5t172 147t221.5 54q57 0 91.5 -10.5t59.5 -28.5h11q-12 153 -120 228t-276 73l43 193q315 9 466 -154t151 -470q0 -234 -49 -407.5t-132 -288.5t-189.5 -172.5t-221.5 -57.5q-194 0 -286.5 116.5t-92.5 309.5zM349 392q0 -81 33 -142 t104 -61q79 0 134 59t90.5 148.5t52.5 196t17 202.5q-30 26 -63.5 38.5t-84.5 12.5q-55 0 -106 -31t-90.5 -89.5t-63 -143t-23.5 -190.5z" />
<glyph unicode="&#x435;" horiz-adv-x="992" d="M73 0zM73 354q0 170 53 307.5t139.5 233t195 148t216.5 52.5q87 0 150 -22.5t103.5 -62t60 -90.5t19.5 -109q0 -87 -45 -153t-125 -110t-192.5 -66t-247.5 -22q-16 0 -31 1t-32 1q-4 -26 -6.5 -46t-2.5 -36q0 -96 50 -143.5t142 -47.5q94 0 168 28t113 55l55 -170 q-66 -55 -170.5 -93.5t-242.5 -38.5q-173 0 -271.5 101.5t-98.5 282.5zM374 628q60 0 127.5 4t124.5 20.5t95.5 47t38.5 84.5q0 32 -23.5 65t-97.5 33q-94 0 -163 -73t-102 -181z" />
<glyph unicode="&#x436;" horiz-adv-x="1612" d="M-53 28l70 212q38 -10 68 -10q79 0 138.5 72t93.5 245q9 43 11 77t2 64q0 109 -44 144t-118 22l-26 190q96 26 171 25q128 0 194 -74.5t66 -234.5q0 -30 -2 -60.5t-6 -67.5h161l91 433h252l-93 -433h148q30 124 74 208.5t97 136.5t112.5 74t119.5 22q65 0 139 -27 l-56 -192q-24 6 -45 6q-65 0 -123 -62.5t-94 -226.5q-19 -83 -19 -154q0 -55 10.5 -97.5t33 -70t54.5 -36t75 5.5l25 -191q-100 -34 -175 -34q-73 0 -123.5 28.5t-82.5 77.5t-46 116t-14 142q0 21 1.5 40t3.5 41h-156l-92 -439h-251l93 439h-155q-32 -122 -77.5 -208 t-100 -139.5t-115 -77.5t-124.5 -24q-42 0 -82.5 10t-83.5 28z" />
<glyph unicode="&#x437;" horiz-adv-x="866" d="M-43 61l98 201q43 -28 106 -48.5t142 -20.5q99 0 155 46t56 117q0 46 -40.5 66.5t-162.5 20.5h-98l41 189h122q35 0 70.5 11t62 30.5t43.5 45t17 54.5q0 51 -33.5 72.5t-113.5 21.5q-70 0 -119 -13t-102 -37l-45 195q34 19 78.5 32t95 22t102.5 13.5t100 4.5 q171 0 242.5 -60.5t71.5 -167.5q0 -51 -17.5 -97t-47 -82t-69 -63.5t-84.5 -42.5v-8q90 -21 122 -75.5t32 -121.5q0 -91 -38.5 -163.5t-106.5 -122.5t-160.5 -77t-201.5 -27q-102 0 -186.5 26t-131.5 59z" />
<glyph unicode="&#x438;" horiz-adv-x="1089" d="M83 0zM83 205q0 79 21 171l148 689h262l-140 -658q-12 -64 -12 -106q0 -43 17 -66.5t60 -23.5q36 0 73 18.5t71.5 47t63 63t48.5 69.5l136 656h262l-134 -639q-11 -42 -18.5 -100t-14 -118.5t-8.5 -116t0 -91.5h-211l-10 191h-9q-30 -40 -69.5 -79t-87 -71.5 t-104.5 -51.5t-120 -19q-100 0 -162 50.5t-62 184.5z" />
<glyph unicode="&#x439;" horiz-adv-x="1089" d="M83 0zM83 205q0 79 21 171l148 689h262l-140 -658q-12 -64 -12 -106q0 -43 17 -66.5t60 -23.5q36 0 73 18.5t71.5 47t63 63t48.5 69.5l136 656h262l-134 -639q-11 -42 -18.5 -100t-14 -118.5t-8.5 -116t0 -91.5h-211l-10 191h-9q-30 -40 -69.5 -79t-87 -71.5 t-104.5 -51.5t-120 -19q-100 0 -162 50.5t-62 184.5zM390 1445l234 55q-5 -84 20.5 -118t78.5 -34q56 0 98 34t71 116l187 -53q-53 -139 -161.5 -206.5t-238.5 -67.5q-62 0 -117 15t-94.5 48.5t-61 84.5t-16.5 126z" />
<glyph unicode="&#x43a;" horiz-adv-x="1004" d="M32 0l226 1065h262l-98 -453l76 27l297 426h287l-311 -405l-123 -81l98 -83l168 -496h-280l-155 441h-93l-92 -441h-262z" />
<glyph unicode="&#x43b;" horiz-adv-x="1069" d="M-100 19l81 231q37 -11 62 -12q42 2 79.5 38.5t77.5 129t86 252t106 407.5h688l-226 -1065h-262l181 846h-196q-53 -198 -103 -357t-109.5 -271t-133 -171t-172.5 -59q-115 0 -159 31z" />
<glyph unicode="&#x43c;" horiz-adv-x="1364" d="M32 0l226 1065h260l142 -400l33 -135h6l87 139l300 396h290l-226 -1065h-251l103 488l63 221h-10l-120 -183l-262 -330h-96l-136 330l-39 183h-12l-20 -219l-102 -490h-236z" />
<glyph unicode="&#x43d;" horiz-adv-x="1102" d="M32 0l226 1065h262l-87 -398h331l86 398h264l-226 -1065h-264l89 415h-331l-88 -415h-262z" />
<glyph unicode="&#x43e;" horiz-adv-x="1055" d="M73 0zM73 345q0 169 47.5 307t127.5 236t185.5 152.5t220.5 54.5q102 0 172 -32t114 -85t63 -121.5t19 -140.5q0 -167 -46.5 -304t-125.5 -235t-183 -152.5t-220 -54.5q-100 0 -170 33t-116 86t-67 120.5t-21 135.5zM343 382q0 -192 139 -193q50 0 99 45t87.5 117.5 t61 164t22.5 183.5q0 85 -28.5 131t-107.5 46q-51 0 -100 -43t-87.5 -112t-62 -158.5t-23.5 -180.5z" />
<glyph unicode="&#x43f;" horiz-adv-x="1109" d="M30 0l226 1065h198l-11 -187h9q28 34 65.5 72t86 70t109.5 53.5t137 21.5q96 0 153.5 -52.5t57.5 -173.5q0 -32 -3 -68.5t-14 -78.5l-153 -722h-263l142 660q12 60 12 104q0 47 -19 73.5t-70 26.5q-39 0 -77 -18.5t-72 -51t-64 -72t-51 -79.5l-136 -643h-263zM30 0z" />
<glyph unicode="&#x440;" horiz-adv-x="1077" d="M-55 -426l315 1491h193l-10 -187h8q31 40 69 79t85 69.5t100 49.5t115 19q108 0 174.5 -75t66.5 -234q0 -181 -48 -331t-128 -258t-187.5 -167.5t-224.5 -59.5q-55 0 -104.5 11t-72.5 27l-91 -434h-260zM0 0zM341 226q53 -37 119 -37q65 0 125.5 45t106 119.5t72 173.5 t26.5 208q0 62 -28.5 101.5t-78.5 39.5q-38 0 -74 -19.5t-68 -48t-57.5 -65t-44.5 -70.5z" />
<glyph unicode="&#x441;" horiz-adv-x="876" d="M73 0zM73 337q0 179 51 319.5t135 237t191.5 149t220.5 52.5q100 0 158.5 -19t105.5 -43l-98 -208q-40 24 -84 31.5t-95 7.5q-57 0 -111.5 -37t-98 -97.5t-69 -142t-25.5 -165.5q0 -108 46.5 -164.5t123.5 -56.5q64 0 118.5 19.5t96.5 45.5l49 -179q-68 -51 -158.5 -84 t-180.5 -33q-102 0 -173 30t-116 81t-66 117t-21 139z" />
<glyph unicode="&#x442;" horiz-adv-x="1632" d="M38 0l226 1065h205l-13 -187h8q32 34 69.5 72t84.5 70t104.5 53.5t125.5 21.5q85 0 128.5 -62t39.5 -164q32 41 73 81t89.5 72.5t102.5 52.5t112 20q97 0 149.5 -45.5t52.5 -171.5q0 -92 -32 -239l-134 -639h-262l126 598q10 49 17 92t7 74q0 49 -18.5 74.5t-60.5 25.5 q-35 0 -69.5 -19.5t-67 -51t-59 -67t-40.5 -68.5l-138 -658h-261l121 579q12 60 20 105.5t8 81.5q0 98 -75 98q-36 0 -72 -18.5t-67.5 -49t-58 -65t-42.5 -66.5l-136 -665h-263zM38 0z" />
<glyph unicode="&#x443;" horiz-adv-x="962" d="M-36 -405l70 209q13 -6 27 -8.5t26 -2.5q51 0 104.5 49.5t106.5 157.5l-200 1065h300l62 -598l2 -166h13l57 168l291 596h278l-511 -957q-64 -119 -120.5 -219t-114 -172.5t-119 -113t-132.5 -40.5q-94 0 -140 32zM0 0z" />
<glyph unicode="&#x444;" horiz-adv-x="1467" d="M61 317q0 189 49.5 333.5t130 241t185 145.5t215.5 49q55 0 96 -9l88 414h257l-88 -416q37 7 66 9t56 2q168 0 248.5 -92.5t80.5 -245.5q0 -198 -51.5 -345t-133.5 -243.5t-184.5 -143t-203.5 -46.5q-19 0 -53.5 3t-56.5 12l-87 -411h-258l87 414q-34 -11 -63.5 -14.5 t-54.5 -3.5q-164 0 -244.5 96t-80.5 251zM326 370q0 -89 39.5 -138t113.5 -49q21 0 39.5 3t42.5 10l142 666q-19 4 -37 8t-42 4q-49 0 -101 -36.5t-95.5 -103.5t-72.5 -159.5t-29 -204.5zM797 191q14 -4 33.5 -6t41.5 -2q53 0 108 35.5t99.5 102.5t72.5 166t28 224 q0 79 -39.5 121t-128.5 42q-21 0 -35 -3.5t-38 -10.5z" />
<glyph unicode="&#x445;" horiz-adv-x="1055" d="M-87 0l441 545l-192 520h296l81 -228l28 -149l93 149l186 228h304l-415 -512l212 -553h-289l-102 256l-32 157l-96 -157l-211 -256h-304zM0 0z" />
<glyph unicode="&#x446;" horiz-adv-x="1140" d="M83 205q0 79 21 171l148 689h262l-140 -656q-12 -64 -12 -108q0 -43 17 -66.5t60 -23.5q36 0 73 18.5t71.5 47t63 63t48.5 69.5l136 656h262l-146 -683q-12 -62 -12 -99t15 -51.5t54 -14.5h106l-130 -459h-202l65 242q-91 0 -130.5 50t-21.5 141h-10q-24 -36 -61 -75 t-84.5 -71.5t-106.5 -53.5t-122 -21q-100 0 -162 50.5t-62 184.5z" />
<glyph unicode="&#x447;" horiz-adv-x="1032" d="M113 573q0 61 15 130l77 362h262l-52 -242q-10 -45 -15.5 -81.5t-5.5 -66.5q0 -59 24.5 -89t81.5 -30q62 0 108 19t75 43l99 447h262l-227 -1065h-261l87 417q-37 -24 -103.5 -52t-169.5 -28q-55 0 -101.5 11.5t-82 39t-54.5 72t-19 113.5z" />
<glyph unicode="&#x448;" horiz-adv-x="1592" d="M83 187q0 92 32 239l135 639h262l-126 -598q-11 -51 -17.5 -91.5t-6.5 -72.5q0 -94 57 -94q37 0 73 19.5t67 49t55.5 63t39.5 66.5l136 658h265l-124 -579q-26 -120 -26 -181q0 -96 66 -96q28 0 61 18t63.5 46t58.5 61.5t45 65.5l136 665h262l-158 -744 q-16 -81 -25.5 -162.5t-13.5 -158.5h-215l-7 181h-9q-32 -39 -68 -75.5t-79.5 -65t-95.5 -45t-117 -16.5q-77 0 -125 53t-43 157q-64 -83 -152.5 -146.5t-207.5 -63.5q-96 0 -147 43.5t-51 164.5z" />
<glyph unicode="&#x449;" horiz-adv-x="1642" d="M83 187q0 92 32 239l135 639h262l-126 -598q-11 -51 -17.5 -91.5t-6.5 -72.5q0 -94 57 -94q37 0 73 19.5t67 49t55.5 63t39.5 66.5l136 658h265l-124 -579q-26 -120 -26 -181q0 -96 66 -96q28 0 61 18t63.5 46t58.5 61.5t45 65.5l136 665h262l-146 -683q-6 -30 -11 -54.5 t-5 -44.5q0 -37 16 -51.5t55 -14.5h108l-132 -459h-200l64 242q-92 0 -131.5 50t-21.5 141h-8q-64 -87 -156 -149.5t-220 -62.5q-77 0 -126 53t-44 157q-64 -83 -152.5 -146.5t-205.5 -63.5q-96 0 -147 43.5t-51 164.5z" />
<glyph unicode="&#x44a;" horiz-adv-x="1089" d="M87 846l47 219h505l-109 -396q51 16 112 24t112 8q151 0 222.5 -62t71.5 -177q0 -100 -45.5 -187.5t-125.5 -151.5t-185.5 -101t-227.5 -37q-81 0 -136.5 17t-89 47t-48.5 70.5t-15 87.5q0 26 4 51t10 53l141 535h-243zM445 279q0 -75 96 -74q47 0 89.5 14.5t75.5 41 t52.5 63t19.5 78.5q0 51 -26 77.5t-98 26.5q-42 0 -87 -10t-75 -27l-39 -141q-4 -15 -6 -26.5t-2 -22.5z" />
<glyph unicode="&#x44b;" horiz-adv-x="1437" d="M77 183q0 30 6 67l179 815h262l-89 -392q42 10 101.5 19t104.5 9q158 0 223 -64t65 -166q0 -108 -46 -198t-123 -154t-179 -99t-215 -35q-151 0 -220 52t-69 146zM347 272q0 -68 84 -67q44 0 85.5 14.5t72.5 40t50 61t19 77.5q0 60 -28.5 84t-101.5 24q-38 0 -71 -7 t-63 -17l-40 -179q-2 -9 -4.5 -15.5t-2.5 -15.5zM961 0l226 1065h262l-226 -1065h-262z" />
<glyph unicode="&#x44c;" horiz-adv-x="988" d="M79 191v29t4 30l181 815h262l-91 -396q47 12 105 22t127 10q87 0 142 -20.5t86.5 -53.5t41.5 -74t10 -84q0 -102 -40 -191t-114.5 -154t-177.5 -102t-231 -37q-88 0 -146.5 17t-94 46t-50 66t-14.5 77zM349 287q-4 -83 102 -82q45 0 85.5 14.5t71.5 42.5t50 64t19 81 q0 55 -28.5 77t-101.5 22q-43 0 -82 -9t-69 -24l-40 -158q-2 -8 -4.5 -14.5t-2.5 -13.5z" />
<glyph unicode="&#x44d;" horiz-adv-x="921" d="M-49 55l100 197q43 -28 104.5 -45.5t127.5 -17.5q252 0 309 260h-381l34 181h377q2 17 3 34t1 31q0 93 -44.5 137t-119.5 44q-98 0 -156 -18.5t-108 -42.5l-60 173q86 51 182.5 79t199.5 28q181 0 274.5 -96t93.5 -269q0 -201 -50 -344.5t-133 -236t-191.5 -136 t-228.5 -43.5q-102 0 -193.5 24.5t-140.5 60.5z" />
<glyph unicode="&#x44e;" horiz-adv-x="1488" d="M32 0l226 1065h262l-87 -409h153q61 207 195.5 323t313.5 116q102 0 170 -32t109.5 -85t60 -121.5t18.5 -140.5q0 -163 -45 -300t-121.5 -236t-178.5 -154.5t-218 -55.5q-102 0 -169 33t-108.5 86t-58.5 120.5t-17 135.5q0 24 1 46t3 46h-155l-92 -437h-262zM797 382 q0 -96 27.5 -144.5t97.5 -48.5q49 0 96 45t83.5 117.5t58.5 164t22 183.5q0 85 -24 131t-103 46q-51 0 -98.5 -43t-82.5 -112t-56 -158.5t-21 -180.5z" />
<glyph unicode="&#x44f;" horiz-adv-x="1024" d="M-69 0l256 339l122 74q-71 19 -122 79.5t-51 157.5q0 98 41.5 180t114 140.5t171 91.5t212.5 33q53 0 107.5 -6.5t102.5 -17t87.5 -22.5t62.5 -20l-218 -1029h-261l83 388l-135 -26l-259 -362h-314zM407 677q0 -69 40.5 -102.5t148.5 -33.5l75 4l66 301q-10 4 -39 11 t-72 7q-94 0 -156.5 -49t-62.5 -138z" />
<glyph unicode="&#x451;" horiz-adv-x="992" d="M73 0zM73 354q0 170 53 307.5t139.5 233t195 148t216.5 52.5q87 0 150 -22.5t103.5 -62t60 -90.5t19.5 -109q0 -87 -45 -153t-125 -110t-192.5 -66t-247.5 -22q-16 0 -31 1t-32 1q-4 -26 -6.5 -46t-2.5 -36q0 -96 50 -143.5t142 -47.5q94 0 168 28t113 55l55 -170 q-66 -55 -170.5 -93.5t-242.5 -38.5q-173 0 -271.5 101.5t-98.5 282.5zM365 1345q0 71 39 110.5t101 39.5t101.5 -39.5t39.5 -110.5q0 -68 -39.5 -106t-101.5 -38q-61 0 -100.5 38t-39.5 106zM374 628q60 0 127.5 4t124.5 20.5t95.5 47t38.5 84.5q0 32 -23.5 65t-97.5 33 q-94 0 -163 -73t-102 -181zM808 1347q0 69 39 108.5t101 39.5t101.5 -39.5t39.5 -108.5q0 -68 -39.5 -107t-101.5 -39q-61 0 -100.5 39t-39.5 107z" />
<glyph unicode="&#x452;" horiz-adv-x="1087" d="M59 0l191 894h-150l36 171h149l89 426h262l-91 -426h331l-37 -171h-330l-64 -298h8q29 28 64.5 57.5t82 55.5t101.5 41.5t122 15.5q99 0 151 -50.5t52 -174.5q0 -85 -24 -206l-71 -335q-49 -226 -143.5 -334.5t-255.5 -108.5q-30 0 -60.5 3t-64.5 12l49 237 q50 -5 86.5 4.5t60 34t39.5 63t27 89.5l64 301q17 79 17 130q0 55 -21.5 85.5t-70.5 30.5q-36 0 -75.5 -16.5t-74.5 -44.5t-65 -63t-47 -74l-75 -349h-262z" />
<glyph unicode="&#x453;" horiz-adv-x="872" d="M28 0zM28 262q0 100 41 165t103 106.5t133 67t133 49t103.5 51t41.5 74.5q0 49 -27.5 69t-88.5 20q-96 0 -157.5 -17.5t-106.5 -39.5l-32 199q34 18 79.5 32t96.5 24.5t103 16t97 5.5q85 0 144 -19t95.5 -52t52 -78t15.5 -96q0 -104 -41.5 -169t-103 -107.5t-133.5 -68 t-133 -50.5t-103 -56.5t-42 -82.5q0 -55 41 -85.5t102 -30.5q73 0 140 19.5t110 47.5l57 -171q-69 -51 -163.5 -83t-184.5 -32q-102 0 -172 24.5t-114.5 66t-65 94t-20.5 107.5zM470 1205l177 329h266l-12 -64l-283 -265h-148z" />
<glyph unicode="&#x454;" horiz-adv-x="915" d="M73 364q0 181 54 318.5t142.5 229.5t200 137.5t227.5 45.5q110 0 169 -19t101 -43l-89 -194q-45 24 -87.5 30.5t-93.5 6.5q-90 0 -176 -61t-135 -176h400l-40 -183h-403v-43q0 -102 47 -163t161 -61q71 0 129.5 23.5t101.5 51.5l55 -166q-75 -62 -177 -95t-204 -33 q-88 0 -158 28t-120 80t-77.5 124.5t-27.5 161.5z" />
<glyph unicode="&#x455;" horiz-adv-x="843" d="M-2 41l83 209q43 -24 110 -42.5t141 -18.5q75 0 114.5 29.5t41.5 88.5q0 42 -25.5 73t-65 59t-84.5 56.5t-84.5 65.5t-65 88.5t-25.5 123.5q0 70 27.5 130t78 102.5t122 66t160.5 23.5q124 0 204.5 -18t127.5 -46l-72 -200q-42 19 -103 32t-127 13q-68 0 -107.5 -23.5 t-39.5 -74.5q0 -34 25.5 -60.5t65 -55t84 -57t84 -69t65 -92.5t25.5 -125q0 -177 -115 -263t-306 -86q-108 0 -199 20t-140 51zM0 0z" />
<glyph unicode="&#x456;" horiz-adv-x="544" d="M57 0l226 1065h262l-226 -1065h-262zM57 0zM322 1368q0 70 45.5 108t116.5 38q69 0 116 -38.5t47 -107.5t-48 -108t-115 -39q-71 0 -116.5 39t-45.5 108z" />
<glyph unicode="&#x457;" horiz-adv-x="642" d="M81 0l226 1065h262l-226 -1065h-262zM217 1346q0 68 35 105.5t95 37.5t95 -37.5t35 -105.5q0 -69 -35 -105t-95 -36q-61 0 -95.5 36t-34.5 105zM524 1346q0 68 34 105.5t96 37.5q59 0 94.5 -37.5t35.5 -105.5q0 -69 -35.5 -105t-96.5 -36q-59 0 -93.5 36t-34.5 105z" />
<glyph unicode="&#x458;" horiz-adv-x="518" d="M-238 -424l51 226q53 -4 91.5 9.5t65 43.5t44.5 75.5t31 103.5l217 1031h264l-236 -1110q-40 -191 -136.5 -292.5t-259.5 -101.5q-66 0 -132 15zM0 0zM299 1368q0 70 45.5 108t116.5 38q69 0 116 -38.5t47 -107.5t-48 -108t-115 -39q-71 0 -116.5 39t-45.5 108z" />
<glyph unicode="&#x459;" horiz-adv-x="1541" d="M-100 19l81 229q57 -19 102 -2.5t90.5 103t96.5 256.5t122 460h683l-87 -396q47 12 105.5 22t127.5 10q87 0 142.5 -20.5t86 -53.5t41.5 -74t11 -84q0 -102 -40.5 -191t-115 -154t-178 -102t-231.5 -37q-87 0 -145.5 18t-94 47t-50.5 66t-15 77v29t4 28l133 596h-192 q-53 -198 -103 -357t-109.5 -271t-133 -171t-172.5 -59q-115 0 -159 31zM903 281q0 -77 103 -76q44 0 84 15.5t71.5 43.5t50.5 65t19 82q0 55 -29 75t-101 20q-42 0 -82.5 -8t-71.5 -23l-38 -158q-2 -10 -4 -18.5t-2 -17.5z" />
<glyph unicode="&#x45a;" horiz-adv-x="1573" d="M32 0l226 1065h262l-89 -409h323l87 409h262l-87 -398q49 12 109 23t127 11q88 0 142.5 -20.5t85 -53.5t41.5 -74t11 -84q0 -102 -40.5 -191t-114.5 -154t-177 -102t-231 -37q-87 0 -145 17t-93.5 46t-52 65t-16.5 76q0 35 7 67l38 181h-321l-92 -437h-262zM933 281 q0 -77 104 -76q45 0 85.5 15.5t71.5 42.5t48.5 64t17.5 82q0 55 -28.5 76t-101.5 21q-42 0 -81 -8t-69 -23l-41 -160q-2 -10 -4 -17.5t-2 -16.5z" />
<glyph unicode="&#x45b;" horiz-adv-x="1075" d="M59 0l191 894h-150l36 171h149l89 426h262l-91 -426h331l-37 -171h-330l-62 -287h9q72 66 160.5 112.5t203.5 46.5q87 0 140.5 -50.5t53.5 -183.5q0 -42 -5 -90t-19 -107l-70 -335h-262l64 307q10 42 16 76t6 64q0 49 -19.5 74.5t-68.5 25.5q-42 0 -81.5 -17.5t-73.5 -47 t-62 -66t-47 -75.5l-71 -341h-262z" />
<glyph unicode="&#x45c;" horiz-adv-x="1004" d="M32 0l226 1065h262l-98 -453l76 27l297 426h287l-311 -405l-123 -81l98 -83l168 -496h-280l-155 441h-93l-92 -441h-262zM32 0zM561 1205l177 329h266l-12 -64l-283 -265h-148z" />
<glyph unicode="&#x45e;" horiz-adv-x="962" d="M-36 -405l70 209q13 -6 27 -8.5t26 -2.5q51 0 104.5 49.5t106.5 157.5l-200 1065h300l62 -598l2 -166h13l57 168l291 596h278l-511 -957q-64 -119 -120.5 -219t-114 -172.5t-119 -113t-132.5 -40.5q-94 0 -140 32zM0 0zM354 1445l234 55q-5 -84 20.5 -118t78.5 -34 q56 0 98 34t71 116l187 -53q-53 -139 -161.5 -206.5t-238.5 -67.5q-62 0 -117 15t-94.5 48.5t-61 84.5t-16.5 126z" />
<glyph unicode="&#x45f;" horiz-adv-x="1089" d="M83 205q0 79 21 171l148 689h262l-140 -658q-12 -64 -12 -106q0 -43 17 -66.5t60 -23.5q36 0 73 18.5t71.5 47t63 63t48.5 69.5l136 656h262l-134 -639q-11 -42 -18.5 -100t-14 -118.5t-8.5 -116t0 -91.5h-211l-10 191h-9q-30 -40 -69.5 -79t-87 -71.5t-104.5 -51.5 t-120 -19q-100 0 -162 50.5t-62 184.5zM307 -426l95 351h194l-47 -351h-242z" />
<glyph unicode="&#x462;" horiz-adv-x="1333" d="M164 1140l51 236h287l37 168h276l-35 -168h407l-53 -236h-406l-43 -197q24 4 82 11t105 7q97 0 177.5 -26t139.5 -75t92.5 -122t33.5 -171q0 -153 -52.5 -264.5t-146.5 -182.5t-223 -106t-284 -35q-30 0 -77.5 1t-103.5 5.5t-113 10.5t-102 19l238 1125h-287zM539 252 q21 -7 58 -10.5t78 -3.5q63 0 126 15t112.5 48.5t79 87.5t29.5 133q0 110 -69 150.5t-180 40.5q-13 0 -34 -2t-41.5 -4t-38.5 -5t-27 -5z" />
<glyph unicode="&#x463;" horiz-adv-x="1502" d="M38 0l226 1065h198l-11 -179h9q24 39 53.5 76t69 67t92.5 48t122 18q87 0 137 -48t50 -159q0 -36 -6.5 -76.5t-16.5 -89.5l-14 -53q49 12 107 22t126 10q88 0 143 -20.5t85.5 -53.5t41.5 -74t11 -84q0 -102 -40.5 -191t-114 -154t-177 -102t-230.5 -37q-104 0 -168 23.5 t-97 61.5t-40.5 85.5t2.5 94.5l92 410q19 84 19 130q0 75 -57 74q-30 0 -59.5 -19.5t-58 -52t-52.5 -72t-43 -77.5l-136 -643h-263zM869 315q-23 -110 96 -110q45 0 85.5 15.5t72 42.5t50 64t18.5 82q0 55 -28.5 76t-101.5 21q-43 0 -82.5 -8t-69.5 -23z" />
<glyph unicode="&#x472;" horiz-adv-x="1370" d="M124 558q0 198 52 374t151 307t238.5 206t316.5 75q113 0 208 -33.5t162 -105t104 -180t37 -258.5q0 -200 -53.5 -376.5t-150 -309.5t-231.5 -210t-302 -77q-251 0 -390.5 148t-141.5 440zM415 567q0 -153 63 -245t197 -92q69 0 128 30t108.5 84t86.5 126.5t61 159.5 h-642q-2 -16 -2 -31.5v-31.5zM456 867h643q0 17 1 35t1 37q0 169 -70 245t-185 76q-69 0 -129.5 -28.5t-109.5 -81.5t-87 -125.5t-64 -157.5z" />
<glyph unicode="&#x473;" horiz-adv-x="1055" d="M73 345q0 169 47.5 307t128.5 236t186.5 152.5t220.5 54.5q102 0 172.5 -32t113 -85t61.5 -121.5t19 -140.5q0 -167 -46.5 -304t-126.5 -235t-184 -152.5t-220 -54.5q-100 0 -170 33t-115 86t-66 120.5t-21 135.5zM343 382q0 -192 139 -193q68 0 127.5 73t97.5 181h-362 q-2 -17 -2 -32v-29zM382 616h364q6 40 6 83q0 85 -28.5 131t-107.5 46q-35 0 -68.5 -20.5t-64 -56t-57 -82t-44.5 -101.5z" />
<glyph unicode="&#x474;" horiz-adv-x="1285" d="M215 1491h303l96 -875l-18 -252h9l92 254l240 488q59 123 112.5 201.5t108 123.5t114 62t132.5 17q75 0 127 -14t90 -35l-113 -243q-30 16 -56.5 24t-56.5 8q-49 0 -90.5 -39.5t-86.5 -124.5l-588 -1096h-199z" />
<glyph unicode="&#x475;" horiz-adv-x="985" d="M85 1065h287l71 -559v-163h8l65 169l80 150q59 116 110.5 196.5t102.5 130.5t105.5 72.5t120.5 22.5q49 0 90.5 -9.5t69.5 -26.5l-83 -221q-17 6 -32 11t-32 5q-36 0 -74.5 -30.5t-89.5 -111.5l-428 -711h-162z" />
<glyph unicode="&#x48a;" horiz-adv-x="1453" d="M43 0l315 1491h276l-167 -796l-65 -197h13l141 211l690 782h213l-264 -1239h236l-12 -67l-291 -462h-191l152 277h-222l170 811l62 191h-13l-136 -205l-694 -797h-213zM590 1819l230 43q-5 -60 28.5 -94t92.5 -34q139 0 181 126l244 -37q-45 -130 -159 -194t-287 -64 q-83 0 -145 20.5t-102.5 54.5t-60.5 80t-22 99z" />
<glyph unicode="&#x48b;" horiz-adv-x="1193" d="M83 205q0 79 21 171l148 689h262l-140 -658q-12 -64 -12 -106q0 -43 17 -66.5t60 -23.5q36 0 73 18.5t71.5 47t63 63t48.5 69.5l136 656h262l-134 -639q-8 -36 -16 -79.5t-14 -94.5h246l-12 -67l-289 -462h-193l152 277h-126l-10 191h-9q-30 -40 -69.5 -79t-87 -71.5 t-104.5 -51.5t-120 -19q-100 0 -162 50.5t-62 184.5zM390 1445l234 55q-4 -84 21.5 -118t78.5 -34q55 0 96.5 34t71.5 116l188 -53q-54 -139 -162.5 -206.5t-238.5 -67.5q-61 0 -117 15t-95 48.5t-60 84.5t-17 126z" />
<glyph unicode="&#x48c;" horiz-adv-x="1230" d="M113 15l271 1282h-191l41 194h192l36 170h275l-36 -170h272l-42 -194h-271l-72 -340q24 4 80 10t103 6q72 0 150 -18t142.5 -63.5t106.5 -123t42 -195.5q0 -285 -181 -439.5t-525 -154.5q-30 0 -77 1t-103 5.5t-112 10.5t-101 19zM437 252q21 -7 58 -10.5t76 -3.5 q73 0 135.5 18.5t110 53.5t75.5 88t28 124q0 110 -68 150.5t-179 40.5q-30 0 -77 -6t-64 -10z" />
<glyph unicode="&#x48d;" horiz-adv-x="988" d="M47 872l42 193h177l96 426h262l-98 -426h373l-43 -193h-374l-47 -203q47 12 105 22t127 10q87 0 142 -20.5t86.5 -53.5t41.5 -74t10 -84q0 -102 -40 -191t-114.5 -154t-177.5 -102t-231 -37q-102 0 -166.5 23.5t-97.5 61.5t-40 85.5t3 94.5l139 622h-175zM356 315 q-11 -53 11.5 -82.5t83.5 -29.5q45 0 85.5 15.5t71.5 43.5t50 65t19 82q0 55 -28.5 76t-101.5 21q-43 0 -82 -8t-69 -23z" />
<glyph unicode="&#x48e;" horiz-adv-x="1171" d="M43 0l313 1476q89 16 190.5 26t203.5 10q108 0 201 -24.5t162 -75.5t107 -131t38 -190q0 -196 -78.5 -317.5t-201.5 -185.5l87 -181l-189 -92l-101 207q-47 -10 -94 -14t-95 -4h-33.5t-46.5 1t-46.5 4t-33.5 5l-107 -514h-276zM482 764q8 -2 23 -4t33 -3t34 -1h24 q30 0 58.5 2t58.5 8l-85 186l120 58l89 -199q59 37 94.5 95.5t35.5 150.5q0 61 -20 101.5t-54.5 63t-80.5 30.5t-96 8q-39 0 -74 -3t-59 -7z" />
<glyph unicode="&#x48f;" horiz-adv-x="1077" d="M-55 -426l315 1491h193l-10 -187h8q31 40 69 79t85 69.5t100 49.5t115 19q108 0 174.5 -75t66.5 -234q0 -232 -76 -410t-197 -282l74 -132l-174 -128l-87 156q-63 -19 -128 -20q-55 0 -104.5 11t-72.5 27l-91 -434h-260zM341 226q53 -37 119 -37q34 0 70 14l-63 114 l104 73l61 -113q71 75 114.5 196t43.5 262q0 62 -28.5 101.5t-78.5 39.5q-38 0 -74 -19.5t-68 -48t-57.5 -65t-44.5 -70.5z" />
<glyph unicode="&#x490;" horiz-adv-x="927" d="M43 0l315 1491h603l110 324h177l-124 -584h-545l-260 -1231h-276z" />
<glyph unicode="&#x491;" horiz-adv-x="804" d="M32 0l226 1065h435l110 323h177l-118 -553h-380l-177 -835h-273z" />
<glyph unicode="&#x492;" horiz-adv-x="1041" d="M51 626l43 199h191l143 666h822l-55 -260h-545l-87 -406h455l-40 -199h-456l-132 -626h-277l132 626h-194z" />
<glyph unicode="&#x493;" horiz-adv-x="885" d="M15 413l36 170h152l102 482h642l-40 -219h-381l-57 -263h348l-35 -170h-351l-90 -413h-262l87 413h-151z" />
<glyph unicode="&#x494;" horiz-adv-x="1191" d="M43 0l315 1491h822l-56 -260h-545l-91 -432q38 14 105 30.5t163 16.5q175 0 276.5 -101.5t101.5 -297.5q0 -128 -33.5 -257t-108 -230.5t-195 -165.5t-295.5 -64q-110 0 -138 8l53 250q28 -7 115 -7q77 0 135.5 33t97 88.5t57.5 129t19 154.5q0 108 -55.5 154t-159.5 46 q-49 0 -105.5 -11.5t-85.5 -27.5l-116 -547h-276z" />
<glyph unicode="&#x495;" horiz-adv-x="1012" d="M38 0l226 1065h643l-45 -219h-383l-64 -303q36 12 104.5 32.5t177.5 20.5q132 0 206.5 -73.5t74.5 -207.5q0 -201 -46 -343.5t-127 -234t-193 -135t-244 -43.5q-53 0 -80.5 3t-42.5 10l51 215q15 -4 41.5 -6.5t71.5 -2.5q51 0 103.5 27t96 81.5t71 137t27.5 198.5 q0 81 -43.5 117.5t-107.5 36.5q-61 0 -110.5 -12t-75.5 -27l-69 -337h-263z" />
<glyph unicode="&#x496;" horiz-adv-x="1748" d="M-98 0l503 654l130 83l-82 78l-208 676h298l175 -637h85l134 637h264l-140 -662l73 23l415 639h327l-466 -654l-113 -73l89 -89l148 -415h167l-112 -526h-194l26 266h-102l-209 648h-88l-136 -648h-264l142 673l-69 -25l-455 -648h-338z" />
<glyph unicode="&#x497;" horiz-adv-x="1639" d="M-53 28l70 212q38 -10 68 -10q79 0 138.5 72t93.5 245q9 43 11 77t2 64q0 109 -44 144t-118 22l-26 190q96 26 171 25q128 0 194 -74.5t66 -234.5q0 -30 -2 -60.5t-6 -67.5h161l91 433h252l-93 -433h148q30 124 74 208.5t97 136.5t112.5 74t119.5 22q65 0 139 -27 l-56 -192q-24 6 -45 6q-65 0 -123 -62.5t-94 -226.5q-19 -83 -19 -154q0 -55 10.5 -97.5t33 -70t54.5 -36t75 5.5l83 -61l-115 -400h-200l61 236q-65 4 -112.5 33.5t-76 79t-42.5 114t-14 137.5q0 21 1.5 40t3.5 41h-156l-92 -439h-251l93 439h-155q-32 -122 -77.5 -208 t-100 -139.5t-115 -77.5t-124.5 -24q-42 0 -82.5 10t-83.5 28z" />
<glyph unicode="&#x498;" horiz-adv-x="1079" d="M-36 49l123 254q43 -24 124 -48.5t200 -24.5q51 0 106.5 13t100 41.5t73.5 75.5t29 115q0 104 -73.5 141.5t-209.5 41.5h-136l48 230h49q19 0 45 1t52.5 3t52 4.5t42.5 4.5q42 6 85 20t76 39.5t54.5 62t21.5 87.5q0 68 -52.5 107t-154.5 39q-90 0 -172 -25.5t-135 -48.5 l-19 247q26 12 69.5 27.5t98 28.5t118 22t127.5 9q90 0 164 -20t130 -60.5t86.5 -101t30.5 -139.5q0 -147 -79.5 -257.5t-237.5 -147.5v-10q40 -12 78.5 -35t67.5 -59t47 -87.5t18 -121.5q0 -117 -41.5 -205.5t-115 -151.5t-174 -97.5t-214.5 -46.5l-54 -348h-247l92 346 q-100 8 -177 29t-117 46z" />
<glyph unicode="&#x499;" horiz-adv-x="866" d="M-43 61l98 203q43 -28 106 -48t142 -20q99 0 155 42.5t56 110.5q0 49 -40.5 69.5t-162.5 20.5h-98l41 193h122q35 0 71.5 11t64 29.5t45.5 44t18 54.5q0 51 -36.5 72t-116.5 21q-70 0 -119 -12.5t-102 -36.5l-45 197q34 19 78.5 32t95 22t102.5 13.5t100 4.5 q171 0 242.5 -60.5t71.5 -167.5q0 -51 -17.5 -97t-47 -82t-69 -63.5t-84.5 -42.5v-8q90 -21 122 -75.5t32 -121.5q0 -158 -105.5 -256t-274.5 -122l-55 -360h-247l91 353q-75 11 -136 32t-98 48z" />
<glyph unicode="&#x49a;" horiz-adv-x="1292" d="M43 0l315 1491h276l-140 -660l67 23l504 637h332l-537 -633l-127 -74l94 -83l202 -441h225l-110 -526h-197l26 266h-132l-288 636h-100l-134 -636h-276z" />
<glyph unicode="&#x49b;" horiz-adv-x="1017" d="M32 0l226 1065h262l-98 -453l76 27l297 426h287l-311 -405l-123 -81l98 -83l93 -277h187l-136 -461h-199l63 242h-120l-155 441h-93l-92 -441h-262z" />
<glyph unicode="&#x49c;" horiz-adv-x="1471" d="M43 0l315 1491h276l-140 -660l98 6l62 285h187l-55 -266l34 4l458 631h324l-482 -629l-126 -78l97 -83l253 -701h-296l-223 636h-86l-58 -270h-187l55 270h-96l-134 -636h-276z" />
<glyph unicode="&#x49d;" horiz-adv-x="1149" d="M32 0l226 1065h262l-98 -453l92 6l53 258h153l-51 -240l40 5l273 424h278l-261 -405l-145 -81l98 -83l119 -496h-276l-102 441h-65l-53 -252h-153l53 252h-89l-92 -441h-262z" />
<glyph unicode="&#x49e;" horiz-adv-x="1420" d="M166 1148l45 222h266l25 121h276l-26 -121h189l-40 -199h-192l-70 -340l109 29l483 631h318l-514 -631l-153 -76l108 -83l299 -701h-303l-270 636h-120l-134 -636h-275l244 1148h-265z" />
<glyph unicode="&#x49f;" horiz-adv-x="990" d="M38 0l245 1163h-161l36 170h161l35 158h262l-35 -158h315l-36 -170h-315l-117 -551l78 27l301 426h292l-317 -429l-128 -80l96 -81l162 -475h-282l-153 441h-85l-91 -441h-263z" />
<glyph unicode="&#x4a0;" horiz-adv-x="1469" d="M181 1231l55 260h599l-140 -660l63 23l508 637h331l-536 -631l-128 -76l93 -83l324 -701h-309l-287 636h-100l-134 -636h-278l262 1231h-323z" />
<glyph unicode="&#x4a1;" horiz-adv-x="1067" d="M51 846l47 219h483l-95 -453l61 29l329 424h299l-327 -405l-137 -81l98 -83l167 -496h-275l-154 441h-98l-93 -441h-262l181 846h-224z" />
<glyph unicode="&#x4a2;" horiz-adv-x="1417" d="M43 0l315 1491h276l-128 -607h518l128 607h277l-260 -1231h177l-113 -526h-194l26 266h-228l132 624h-518l-132 -624h-276zM43 0z" />
<glyph unicode="&#x4a3;" horiz-adv-x="1126" d="M38 0l226 1065h262l-87 -398h332l85 398h264l-181 -846h162l-136 -461h-201l65 242h-199l90 415h-332l-87 -415h-263z" />
<glyph unicode="&#x4a4;" horiz-adv-x="1722" d="M43 0l315 1491h276l-128 -607h518l128 607h822l-55 -260h-545l-260 -1231h-277l132 624h-518l-132 -624h-276z" />
<glyph unicode="&#x4a5;" horiz-adv-x="1392" d="M38 0l226 1065h262l-87 -398h332l85 398h646l-47 -219h-382l-179 -846h-264l90 415h-332l-87 -415h-263z" />
<glyph unicode="&#x4a6;" horiz-adv-x="1950" d="M43 0l315 1491h1048l-148 -692q37 12 105 29.5t166 17.5q73 0 141 -21.5t120.5 -69.5t83 -122.5t30.5 -183.5q0 -140 -35 -270t-111.5 -230t-197.5 -159.5t-292 -59.5q-57 0 -87.5 2t-44.5 6l53 250q12 -5 44.5 -6t73.5 -1q77 0 135 33t95 88.5t56 128t19 153.5 q0 59 -15.5 98.5t-44.5 63t-70 32t-89 8.5q-49 2 -104.5 -11.5t-83.5 -27.5l-114 -547h-278l260 1231h-494l-260 -1231h-276z" />
<glyph unicode="&#x4a7;" horiz-adv-x="1601" d="M38 0l226 1065h198l-11 -187h9q28 34 65.5 72t86 70t109.5 53.5t137 21.5q96 0 153.5 -52.5t57.5 -173.5q0 -32 -3 -68.5t-14 -78.5l-34 -171q37 13 94 29t134 16q153 0 237 -75.5t84 -228.5q0 -179 -43.5 -315.5t-120 -229t-182 -139.5t-229.5 -47q-47 0 -83.5 7.5 t-52.5 14.5l51 212q38 -14 113 -14q51 0 101 29.5t88.5 85t63 134t24.5 179.5q0 89 -33 128t-128 39q-45 0 -91 -13.5t-74 -25.5l-72 -337h-263l142 660q12 60 12 104q0 47 -19 73.5t-70 26.5q-39 0 -77 -18.5t-72 -51t-64 -72t-51 -79.5l-136 -643h-263z" />
<glyph unicode="&#x4a8;" horiz-adv-x="1786" d="M124 588q0 234 67 409.5t180 292t260 173.5t304 57l-55 -260q-90 0 -174 -45.5t-148 -128t-103.5 -201.5t-39.5 -263q0 -108 24.5 -184t67 -122t100.5 -66t126 -20q24 0 53 5t51 17q-19 16 -43.5 52.5t-46 88.5t-36 122.5t-14.5 153.5q0 197 55 343.5t145.5 243t208 145 t240.5 48.5q70 0 143.5 -20.5t135.5 -71t101.5 -136t39.5 -217.5q0 -122 -30 -239t-85.5 -218.5t-136.5 -182.5t-185 -132q11 -4 22.5 -3t24.5 1q61 0 121 17t103 47l36 -228q-53 -43 -127 -69.5t-182 -26.5q-81 0 -159.5 23.5t-130.5 79.5q-79 -51 -160.5 -77t-193.5 -26 q-170 0 -278.5 61t-170 152.5t-86 200t-24.5 204.5zM988 693q0 -37 4 -84.5t18 -99t42 -99.5t72 -84q73 40 137 105t112 146t74.5 175t26.5 195q0 118 -40.5 180t-134.5 62q-51 0 -106 -32.5t-101 -93.5t-75 -155t-29 -215z" />
<glyph unicode="&#x4a9;" horiz-adv-x="1422" d="M73 405q0 132 42.5 254.5t122 216t193.5 153.5t254 66l-49 -235q-57 -4 -110 -38t-93.5 -91.5t-65 -134t-24.5 -165.5q0 -126 57.5 -184t131.5 -58q45 0 73 20q-26 45 -39 119t-13 132q0 108 36.5 215t103.5 191t160.5 135t209.5 51q164 0 244.5 -80t80.5 -224 q0 -116 -41.5 -220t-103 -188t-134 -144t-133.5 -86q48 -38 115.5 -48.5t111.5 -4.5l-59 -191q-45 -13 -98 -13q-49 0 -98 10.5t-94 31t-82 49t-63 66.5q-38 -16 -97 -28t-118 -12q-201 0 -311 114t-110 321zM805 460q0 -45 11 -96t34 -94q38 21 84 66.5t87.5 103.5 t69 128.5t27.5 144.5q0 62 -22.5 91t-73.5 29q-44 0 -83.5 -27.5t-69.5 -78t-47 -118.5t-17 -149z" />
<glyph unicode="&#x4aa;" horiz-adv-x="1142" d="M124 579q0 252 70 430t185 291.5t263 166.5t303 53q122 0 208.5 -18t135.5 -41l-109 -247q-42 24 -102 35t-151 11q-109 0 -203 -44.5t-162 -127t-107.5 -202.5t-39.5 -270q0 -181 90.5 -282.5t242.5 -101.5q95 0 158 20t118 51l5 -242q-118 -77 -285 -89l-53 -344h-248 l94 357q-104 21 -182 75.5t-129 133t-76.5 177t-25.5 208.5z" />
<glyph unicode="&#x4ab;" horiz-adv-x="876" d="M73 337q0 179 51 319.5t135 237t191.5 149t220.5 52.5q100 0 158.5 -19t105.5 -43l-98 -208q-40 24 -84 31.5t-95 7.5q-57 0 -111.5 -37t-98 -97.5t-69 -142t-25.5 -165.5q0 -108 46.5 -164.5t123.5 -56.5q64 0 118.5 19.5t96.5 45.5l49 -179q-55 -40 -122.5 -68.5 t-137.5 -42.5l-53 -348h-247l93 357q-65 17 -112 51.5t-78 81t-44.5 103t-13.5 116.5z" />
<glyph unicode="&#x4ac;" horiz-adv-x="1164" d="M205 1231l55 260h1101l-54 -260h-413l-206 -971h179l-113 -526h-193l25 266h-228l260 1231h-413z" />
<glyph unicode="&#x4ad;" horiz-adv-x="1695" d="M38 0l226 1065h205l-13 -187h8q32 34 69.5 72t84.5 70t104.5 53.5t125.5 21.5q85 0 128.5 -62t39.5 -164q32 41 73 81t89.5 72.5t102.5 52.5t112 20q97 0 149.5 -45.5t52.5 -171.5q0 -92 -32 -239l-89 -422h196l-136 -459h-201l64 242h-230l126 598q10 49 17 92t7 74 q0 49 -18.5 74.5t-60.5 25.5q-35 0 -69.5 -19.5t-67 -51t-59 -67t-40.5 -68.5l-138 -658h-261l121 579q12 60 20 105.5t8 81.5q0 98 -75 98q-36 0 -72 -18.5t-67.5 -49t-58 -65t-42.5 -66.5l-136 -665h-263z" />
<glyph unicode="&#x4ae;" horiz-adv-x="1211" d="M226 0zM226 1491h306l139 -560l-4 -158h8l67 162l372 556h317l-662 -935l-117 -556h-276l116 553z" />
<glyph unicode="&#x4af;" horiz-adv-x="953" d="M85 1065h295l55 -632l-9 -199h11l72 203l302 628h297l-594 -1067l-92 -424h-262l90 424z" />
<glyph unicode="&#x4b0;" horiz-adv-x="1211" d="M153 433l43 193h275l-245 865h306l139 -560l-4 -158h8l67 162l372 556h317l-614 -865h284l-42 -193h-315l-92 -433h-276l91 433h-314z" />
<glyph unicode="&#x4b1;" horiz-adv-x="985" d="M6 -171l37 171h238l-163 1065h293l56 -632l-9 -199h11l72 203l302 628h297l-595 -1065h237l-36 -171h-237l-56 -255h-262l54 255h-239z" />
<glyph unicode="&#x4b2;" horiz-adv-x="1358" d="M-51 0l596 760l-240 731h300l128 -430l21 -152l79 152l317 430h332l-560 -720l177 -511h206l-112 -526h-194l25 266h-132l-153 460l-26 158l-85 -158l-343 -460h-336z" />
<glyph unicode="&#x4b3;" horiz-adv-x="1055" d="M-87 0l441 545l-192 520h296l81 -228l28 -149l93 149l186 228h304l-415 -512l129 -334h165l-137 -461h-199l63 242h-98l-102 256l-32 157l-96 -157l-211 -256h-304z" />
<glyph unicode="&#x4b4;" horiz-adv-x="1709" d="M205 1231l55 260h976l-56 -260h-288l-207 -971h490l262 1231h276l-260 -1231h179l-114 -526h-193l25 266h-994l260 1231h-411z" />
<glyph unicode="&#x4b5;" horiz-adv-x="1140" d="M83 0zM83 205q0 79 21 171l148 689h262l-140 -656q-12 -64 -12 -108q0 -43 17 -66.5t60 -23.5q36 0 73 18.5t71.5 47t63 63t48.5 69.5l136 656h262l-146 -683q-12 -62 -12 -99t15 -51.5t54 -14.5h106l-130 -459h-202l65 242q-91 0 -130.5 50t-21.5 141h-10 q-24 -36 -61 -75t-84.5 -71.5t-106.5 -53.5t-122 -21q-100 0 -162 50.5t-62 184.5zM362 1205l41 197h656l-41 -197h-656z" />
<glyph unicode="&#x4b6;" horiz-adv-x="1328" d="M207 841q0 66 15 135l108 515h275l-99 -462q-6 -29 -7 -51.5t-1 -46.5q0 -83 39.5 -124t129.5 -41q77 0 144 17.5t114 53.5l138 654h277l-260 -1231h176l-112 -526h-194l26 266h-228l128 601q-30 -14 -62 -29.5t-70.5 -28.5t-86.5 -20t-108 -7q-75 0 -137.5 18.5t-108 59 t-71 102.5t-25.5 145z" />
<glyph unicode="&#x4b7;" horiz-adv-x="1055" d="M113 573q0 61 15 130l77 362h262l-52 -242q-10 -45 -15.5 -81.5t-5.5 -66.5q0 -59 24.5 -89t81.5 -30q62 0 108 19t75 43l99 447h262l-182 -846h175l-136 -461h-200l63 242h-208l87 417q-37 -24 -103.5 -52t-169.5 -28q-55 0 -101.5 11.5t-82 39t-54.5 72t-19 113.5z" />
<glyph unicode="&#x4b8;" horiz-adv-x="1317" d="M209 843q0 66 15 139l106 509h275l-99 -462q-12 -58 -12 -102q0 -69 31 -109t105 -52l53 250h191l-51 -238q53 10 100.5 24.5t78.5 34.5l140 654h274l-315 -1491h-274l125 601q-31 -17 -76 -35.5t-107 -30.5l-58 -275h-187l53 256q-170 2 -269 81.5t-99 245.5z" />
<glyph unicode="&#x4b9;" horiz-adv-x="1100" d="M113 575q0 61 15 128l77 362h262l-54 -252q-8 -40 -12.5 -72t-4.5 -60q0 -55 19.5 -85.5t66.5 -39.5l57 267h154l-57 -254q39 10 69 24t49 27l94 445h264l-226 -1065h-264l89 417q-36 -24 -117 -49l-51 -242h-153l45 213q-13 -2 -27 -2h-28q-122 0 -194.5 54t-72.5 184z " />
<glyph unicode="&#x4ba;" horiz-adv-x="1240" d="M43 0l315 1491h276l-128 -601q60 32 136 59t191 27q69 0 130 -18.5t109 -58t75.5 -101t27.5 -150.5q0 -66 -14 -134l-109 -514h-274l100 467q4 26 7 48t3 43q0 167 -172 166q-80 0 -143.5 -20.5t-114.5 -51.5l-139 -652h-276z" />
<glyph unicode="&#x4bb;" horiz-adv-x="1124" d="M38 0l316 1491h262l-134 -613h8q28 34 67 72t87.5 70t104.5 53.5t123 21.5q101 0 157.5 -51.5t56.5 -181.5q0 -79 -25 -200l-141 -662h-262l128 605q21 94 21 155q0 55 -21.5 79.5t-65.5 24.5q-41 0 -85.5 -25.5t-85 -63.5t-73.5 -81.5t-50 -79.5l-125 -614h-263zM38 0z " />
<glyph unicode="&#x4bc;" horiz-adv-x="1620" d="M124 890q0 69 23.5 127t55.5 93h236q-34 -26 -55.5 -61t-21.5 -73q0 -19 4 -39.5t20 -35.5t47 -24.5t83 -7.5q38 163 105 285t159 203.5t204.5 122t238.5 40.5q110 0 191.5 -34.5t135.5 -96.5t80.5 -148.5t26.5 -188.5q0 -95 -22.5 -201.5t-69.5 -222.5h-807 q-2 -16 -3 -35.5t-1 -36.5q0 -65 15 -124.5t50 -104t91.5 -71t139.5 -26.5q90 0 176 28.5t160 78.5l18 -248q-94 -59 -188 -89t-220 -30q-130 0 -226.5 41.5t-161.5 118.5t-97 183t-32 238v37.5t3 39.5h-71q-151 0 -219 75t-68 187zM797 869h569q12 43 19.5 86.5t7.5 85.5 q0 47 -10.5 90.5t-35 77t-63 52.5t-93.5 19q-136 0 -240.5 -103.5t-153.5 -307.5z" />
<glyph unicode="&#x4bd;" horiz-adv-x="1224" d="M10 691q0 77 42 135t90 83h224q-47 -26 -86.5 -67t-41.5 -96q0 -17 5 -35t16 -33.5t33.5 -25t59.5 -9.5q36 106 96.5 190.5t135 142t159 88.5t166.5 31q87 0 150 -22.5t103.5 -62t60 -90.5t19.5 -109q0 -87 -45 -153t-125 -110t-193 -66t-247 -22q-16 0 -31 1t-32 1 q-4 -26 -6 -46t-2 -36q0 -96 49.5 -143.5t141.5 -47.5q94 0 168 28t113 55l56 -170q-66 -55 -171 -93.5t-243 -38.5q-173 0 -271.5 101.5t-98.5 282.5q0 26 1 51.5t3 50.5h-19q-75 0 -127.5 19t-86 51t-50 74.5t-16.5 90.5zM607 628q60 0 127 4t124.5 20.5t95.5 47t38 84.5 q0 32 -23.5 65t-96.5 33q-94 0 -163 -73t-102 -181z" />
<glyph unicode="&#x4be;" horiz-adv-x="1620" d="M124 890q0 69 23.5 127t55.5 93h236q-34 -26 -55.5 -61t-21.5 -73q0 -19 4 -39.5t20 -35.5t47 -24.5t83 -7.5q38 163 105 285t159 203.5t204.5 122t238.5 40.5q110 0 191.5 -34.5t135.5 -96.5t80.5 -148.5t26.5 -188.5q0 -95 -22.5 -201.5t-69.5 -222.5h-807 q-2 -16 -3 -35.5t-1 -36.5q0 -65 15 -124.5t50 -104t91.5 -70t139.5 -25.5q90 0 176 29t160 78l18 -250q-81 -51 -162 -79.5t-181 -37.5l-53 -344h-248l94 357q-189 43 -282 192t-93 374v37.5t3 39.5h-71q-151 0 -219 75t-68 187zM797 869h569q12 43 19.5 86.5t7.5 85.5 q0 47 -10.5 90.5t-35 77t-63 52.5t-93.5 19q-136 0 -240.5 -103.5t-153.5 -307.5z" />
<glyph unicode="&#x4bf;" horiz-adv-x="1224" d="M10 691q0 77 42 135t90 83h224q-47 -26 -86.5 -67t-41.5 -96q0 -17 5 -35t16 -33.5t33.5 -25t59.5 -9.5q36 106 96.5 190.5t135 142t159 88.5t166.5 31q87 0 150 -22.5t103.5 -62t60 -90.5t19.5 -109q0 -87 -45 -153t-125 -110t-193 -66t-247 -22q-16 0 -31 1t-32 1 q-4 -26 -6 -46t-2 -36q0 -96 49.5 -143.5t141.5 -47.5q94 0 168 28t113 55l56 -170q-53 -45 -131 -78.5t-180 -47.5l-54 -348h-247l92 355q-126 28 -195 123t-69 248q0 26 1 51.5t3 50.5h-19q-75 0 -127.5 19t-86 51t-50 74.5t-16.5 90.5zM607 628q60 0 127 4t124.5 20.5 t95.5 47t38 84.5q0 32 -23.5 65t-96.5 33q-94 0 -163 -73t-102 -181z" />
<glyph unicode="&#x4c0;" horiz-adv-x="591" d="M75 0l315 1491h275l-316 -1491h-274zM75 0z" />
<glyph unicode="&#x4c3;" horiz-adv-x="1258" d="M43 0l315 1491h276l-140 -660l69 25l504 635h330l-515 -601l-140 -81h101q33 -4 79.5 -21t88 -60t71.5 -114t30 -183v-61q0 -164 -45 -308.5t-128 -254.5t-203 -174t-272 -64h-32t-32 3l51 239q102 0 175 51t118.5 133t67 184.5t21.5 204.5q0 83 -21.5 133t-62 76.5 t-97 34.5t-128.5 8h-71l-134 -636h-276z" />
<glyph unicode="&#x4c4;" horiz-adv-x="1022" d="M38 0l226 1065h262l-100 -462l74 29l331 433h289l-336 -419l-119 -69l81 -4q87 -28 124 -115.5t37 -195.5q0 -83 -19 -166l-8 -37q-55 -260 -174.5 -380t-290.5 -120q-69 0 -130 15l52 217q10 -2 17.5 -2h17.5q191 -4 248 268q10 47 13 87.5t3 74.5q0 196 -172 212h-72 l-91 -431h-263z" />
<glyph unicode="&#x4c5;" horiz-adv-x="1343" d="M-102 15l83 251q11 -4 22.5 -6t22.5 -2q36 -2 73 17t69 62q39 47 81.5 136.5t88.5 229.5t96 334t105 454h276h282h277l-264 -1239h209l-14 -67l-289 -462h-191l151 277h-192l260 1231h-298q-49 -202 -93 -368t-87.5 -298t-92.5 -234.5t-107 -179.5q-38 -51 -79.5 -83 t-83 -50t-80 -25.5t-72.5 -7.5q-98 0 -153 30z" />
<glyph unicode="&#x4c6;" horiz-adv-x="1132" d="M-100 19l81 231q37 -11 62 -12q42 2 79.5 38.5t77.5 129t86 252t106 407.5h688l-175 -813h209l-13 -67l-290 -462h-191l151 277h-179l181 846h-196q-53 -198 -103 -357t-109.5 -271t-133 -171t-172.5 -59q-115 0 -159 31z" />
<glyph unicode="&#x4c7;" horiz-adv-x="1328" d="M43 0l315 1491h276l-128 -607h518l128 607h277l-315 -1491q-49 -230 -139.5 -335.5t-256.5 -105.5q-60 0 -130 13l48 239q54 -4 88 5t55.5 33.5t34.5 62t23 88.5l132 624h-518l-132 -624h-276z" />
<glyph unicode="&#x4c8;" horiz-adv-x="1109" d="M38 0l226 1065h262l-87 -398h332l85 398h264l-236 -1110q-43 -193 -135.5 -295.5t-252.5 -102.5q-30 0 -60.5 3t-65.5 12l49 237q51 -5 86.5 5.5t60 35t39.5 63t25 89.5l90 413h-332l-87 -415h-263z" />
<glyph unicode="&#x4c9;" horiz-adv-x="1396" d="M43 0l315 1491h276l-128 -607h518l128 607h277l-264 -1239h205l-13 -67l-290 -462h-191l150 277h-189l132 624h-518l-132 -624h-276z" />
<glyph unicode="&#x4ca;" d="M32 0l226 1065h262l-87 -398h331l86 398h264l-175 -813h203l-14 -67l-289 -462h-191l151 277h-175l89 415h-331l-88 -415h-262z" />
<glyph unicode="&#x4cb;" horiz-adv-x="1240" d="M207 841q0 66 15 135l108 515h275l-99 -462q-6 -29 -7 -51.5t-1 -46.5q0 -83 39.5 -124t129.5 -41q77 0 144 17.5t114 53.5l138 654h277l-316 -1491h-225l-88 -266h-193l108 526h177l73 341q-30 -14 -62 -29.5t-70.5 -28.5t-86.5 -20t-108 -7q-75 0 -137.5 18.5t-108 59 t-71 102.5t-25.5 145z" />
<glyph unicode="&#x4cc;" horiz-adv-x="1028" d="M113 598q0 28 3.5 60.5t11.5 67.5l73 339h261l-47 -219q-8 -41 -12.5 -72.5t-4.5 -60.5q0 -55 23.5 -83.5t82.5 -28.5q60 0 107 16.5t80 38.5l87 409h261l-226 -1065h-255l-62 -242h-221l117 451h202l52 232q-37 -24 -104 -47.5t-174 -23.5q-122 0 -188.5 53.5 t-66.5 174.5z" />
<glyph unicode="&#x4cd;" horiz-adv-x="1701" d="M43 0l315 1491h245l224 -682l27 -170h10l99 174l502 678h267l-265 -1239h209l-13 -67l-289 -462h-192l151 277h-191l163 773l95 294h-14l-140 -240l-419 -552h-88l-200 558l-39 234h-10l-21 -292l-164 -775h-262z" />
<glyph unicode="&#x4ce;" horiz-adv-x="1433" d="M32 0l226 1065h260l142 -400l33 -135h6l87 139l300 396h290l-175 -813h213l-12 -67l-290 -462h-192l151 277h-172l103 488l63 221h-10l-120 -183l-262 -330h-96l-136 330l-39 183h-12l-20 -219l-102 -490h-236z" />
<glyph unicode="&#x4cf;" horiz-adv-x="518" d="M38 0l316 1491h262l-315 -1491h-263zM38 0z" />
<glyph unicode="&#x4d0;" horiz-adv-x="1238" d="M-81 0l829 1502h204l194 -1502h-279l-42 330h-435l-177 -330h-294zM0 0zM512 565h301l-33 331l2 234h-11l-86 -236zM526 1819l230 43q-5 -60 28.5 -94t92.5 -34q139 0 181 126l244 -37q-45 -130 -159 -194t-286 -64q-84 0 -145.5 20.5t-102.5 54.5t-61 80t-22 99z" />
<glyph unicode="&#x4d1;" horiz-adv-x="1071" d="M71 0zM71 307q0 156 39 298.5t122 251t210 173.5t302 65q74 0 162 -14t171 -37l-132 -618q-16 -81 -23.5 -164t-7.5 -158q0 -30 1 -56.5t3 -49.5h-194l-29 183h-10q-24 -39 -60.5 -75.5t-81.5 -68t-95 -49.5t-103 -18q-140 0 -207 91.5t-67 245.5zM341 358 q0 -69 22.5 -119t81.5 -50q39 0 72.5 16.5t62.5 41.5t51.5 55t39.5 56l107 496q-24 10 -54.5 16t-61.5 6q-76 0 -135.5 -46t-101 -120t-63 -166.5t-21.5 -185.5zM435 1445l234 55q-5 -84 20.5 -118t78.5 -34q56 0 98 34t71 116l187 -53q-53 -139 -161.5 -206.5t-238.5 -67.5 q-62 0 -117 15t-94.5 48.5t-61 84.5t-16.5 126z" />
<glyph unicode="&#x4d2;" horiz-adv-x="1238" d="M-81 0l829 1502h204l194 -1502h-279l-42 330h-435l-177 -330h-294zM0 0zM512 565h301l-33 331l2 234h-11l-86 -236zM515 1699q0 62 42.5 93t111.5 31q68 0 110 -30.5t42 -93.5q0 -61 -42.5 -90.5t-109.5 -29.5q-69 0 -111.5 29.5t-42.5 90.5zM949 1699q0 62 43 93t110 31 q69 0 111.5 -30.5t42.5 -93.5q0 -61 -42.5 -90.5t-111.5 -29.5q-68 0 -110.5 29.5t-42.5 90.5z" />
<glyph unicode="&#x4d3;" horiz-adv-x="1071" d="M71 0zM71 307q0 156 39 298.5t122 251t210 173.5t302 65q74 0 162 -14t171 -37l-132 -618q-16 -81 -23.5 -164t-7.5 -158q0 -30 1 -56.5t3 -49.5h-194l-29 183h-10q-24 -39 -60.5 -75.5t-81.5 -68t-95 -49.5t-103 -18q-140 0 -207 91.5t-67 245.5zM341 358 q0 -69 22.5 -119t81.5 -50q39 0 72.5 16.5t62.5 41.5t51.5 55t39.5 56l107 496q-24 10 -54.5 16t-61.5 6q-76 0 -135.5 -46t-101 -120t-63 -166.5t-21.5 -185.5zM388 1345q0 71 39 110.5t101 39.5t101.5 -39.5t39.5 -110.5q0 -68 -39.5 -106t-101.5 -38q-61 0 -100.5 38 t-39.5 106zM831 1347q0 69 39 108.5t101 39.5t101.5 -39.5t39.5 -108.5q0 -68 -39.5 -107t-101.5 -39q-61 0 -100.5 39t-39.5 107z" />
<glyph unicode="&#x4d4;" horiz-adv-x="1758" d="M-140 0l1164 1491h283h577l-55 -260h-561l-75 -347h513l-56 -260h-510l-77 -364h573l-55 -260h-557h-294l77 362h-364l-272 -362h-311zM0 0zM616 598h242l111 530h-12l-95 -199z" />
<glyph unicode="&#x4d5;" horiz-adv-x="1583" d="M36 0zM36 252q0 104 47 178t128 121t187 69.5t228 22.5h35t36 -2q24 81 23 125q0 51 -32 76t-109 25q-70 0 -148.5 -17t-147.5 -45l-38 199q88 42 202 62t220 20q97 0 165.5 -31t96.5 -96q61 65 153.5 100.5t189.5 35.5q89 0 152 -20t102 -56.5t57.5 -84.5t18.5 -105 q0 -120 -56.5 -192t-152.5 -113.5t-221.5 -57t-262.5 -15.5q-2 -16 -3 -32.5t-1 -30.5q0 -96 49.5 -147.5t161.5 -51.5q81 0 152.5 22.5t113.5 48.5l49 -183q-73 -51 -182 -79t-218 -28q-141 0 -227 51.5t-123 142.5h-10q-69 -77 -158 -129t-210 -52q-71 0 -121 22.5 t-81.5 59.5t-48 86.5t-16.5 100.5zM307 315q0 -57 29.5 -82.5t78.5 -25.5q38 0 73.5 15.5t65 38t53 47t39.5 44.5l19 123q-17 2 -35 2h-36q-122 0 -204.5 -39.5t-82.5 -122.5zM952 622q68 0 138.5 3t128 19t93.5 49t36 91q0 37 -25.5 67.5t-95.5 30.5q-113 0 -178 -76 t-97 -184z" />
<glyph unicode="&#x4d6;" horiz-adv-x="1071" d="M43 0l315 1491h276h563l-55 -260h-563l-75 -347h514l-57 -260h-510l-79 -364h573l-53 -260h-573h-276zM43 0zM460 1819l230 43q-5 -60 28.5 -94t92.5 -34q139 0 181 126l244 -37q-45 -130 -159 -194t-286 -64q-84 0 -145.5 20.5t-102.5 54.5t-61 80t-22 99z" />
<glyph unicode="&#x4d7;" horiz-adv-x="992" d="M73 0zM73 354q0 170 53 307.5t139.5 233t195 148t216.5 52.5q87 0 150 -22.5t103.5 -62t60 -90.5t19.5 -109q0 -87 -45 -153t-125 -110t-192.5 -66t-247.5 -22q-16 0 -31 1t-32 1q-4 -26 -6.5 -46t-2.5 -36q0 -96 50 -143.5t142 -47.5q94 0 168 28t113 55l55 -170 q-66 -55 -170.5 -93.5t-242.5 -38.5q-173 0 -271.5 101.5t-98.5 282.5zM374 628q60 0 127.5 4t124.5 20.5t95.5 47t38.5 84.5q0 32 -23.5 65t-97.5 33q-94 0 -163 -73t-102 -181zM399 1445l234 55q-5 -84 20.5 -118t78.5 -34q56 0 98 34t71 116l187 -53 q-53 -139 -161.5 -206.5t-238.5 -67.5q-62 0 -117 15t-94.5 48.5t-61 84.5t-16.5 126z" />
<glyph unicode="&#x4d8;" horiz-adv-x="1275" d="M108 473q0 183 77 399h819q2 12 2 24.5v25.5q0 73 -14 134.5t-47 107.5t-88.5 71t-138.5 25q-51 0 -100 -9t-92.5 -24t-80 -31t-61.5 -31l-8 249q73 41 177.5 73.5t230.5 32.5q116 0 209 -34.5t161.5 -106.5t105.5 -180t37 -254q0 -189 -46 -364.5t-136.5 -311 t-227.5 -217.5t-320 -82q-116 0 -201 37.5t-142.5 103.5t-86.5 158.5t-29 203.5zM380 471q0 -108 48.5 -184t161.5 -76q77 0 138.5 30.5t109.5 86.5t82.5 132.5t50.5 169.5h-573q-10 -40 -14 -80.5t-4 -78.5z" />
<glyph unicode="&#x4d9;" horiz-adv-x="1043" d="M49 270q0 169 128 263.5t413 94.5q72 0 156 -6q4 24 6 42.5t2 36.5q0 94 -61 134.5t-148 40.5t-158.5 -20.5t-114.5 -42.5l-57 186q73 45 175 70.5t224 25.5q99 0 173.5 -30t124 -81t73 -119t23.5 -145q0 -179 -46 -318.5t-128 -235t-194 -146t-244 -50.5 q-83 0 -148 24.5t-108.5 65t-67 95t-23.5 115.5zM307 311q0 -47 28.5 -84.5t105.5 -37.5q102 0 168 73.5t96 188.5q-34 5 -67 8t-65 3q-113 0 -189.5 -36t-76.5 -115z" />
<glyph unicode="&#x4da;" horiz-adv-x="1275" d="M108 0zM108 473q0 183 77 399h819q2 12 2 24.5v25.5q0 73 -14 134.5t-47 107.5t-88.5 71t-138.5 25q-51 0 -100 -9t-92.5 -24t-80 -31t-61.5 -31l-8 249q73 41 177.5 73.5t230.5 32.5q116 0 209 -34.5t161.5 -106.5t105.5 -180t37 -254q0 -189 -46 -364.5t-136.5 -311 t-227.5 -217.5t-320 -82q-116 0 -201 37.5t-142.5 103.5t-86.5 158.5t-29 203.5zM380 471q0 -108 48.5 -184t161.5 -76q77 0 138.5 30.5t109.5 86.5t82.5 132.5t50.5 169.5h-573q-10 -40 -14 -80.5t-4 -78.5zM517 1699q0 62 42.5 93t111.5 31q68 0 110 -30.5t42 -93.5 q0 -61 -42.5 -90.5t-109.5 -29.5q-69 0 -111.5 29.5t-42.5 90.5zM951 1699q0 62 43 93t110 31q69 0 111.5 -30.5t42.5 -93.5q0 -61 -42.5 -90.5t-111.5 -29.5q-68 0 -110.5 29.5t-42.5 90.5z" />
<glyph unicode="&#x4db;" horiz-adv-x="1043" d="M49 0zM49 270q0 169 128 263.5t413 94.5q72 0 156 -6q4 24 6 42.5t2 36.5q0 94 -61 134.5t-148 40.5t-158.5 -20.5t-114.5 -42.5l-57 186q73 45 175 70.5t224 25.5q99 0 173.5 -30t124 -81t73 -119t23.5 -145q0 -179 -46 -318.5t-128 -235t-194 -146t-244 -50.5 q-83 0 -148 24.5t-108.5 65t-67 95t-23.5 115.5zM271 1345q0 71 39 110.5t101 39.5t101.5 -39.5t39.5 -110.5q0 -68 -39.5 -106t-101.5 -38q-61 0 -100.5 38t-39.5 106zM307 311q0 -47 28.5 -84.5t105.5 -37.5q102 0 168 73.5t96 188.5q-34 5 -67 8t-65 3q-113 0 -189.5 -36 t-76.5 -115zM714 1347q0 69 39 108.5t101 39.5t101.5 -39.5t39.5 -108.5q0 -68 -39.5 -107t-101.5 -39q-61 0 -100.5 39t-39.5 107z" />
<glyph unicode="&#x4dc;" horiz-adv-x="1709" d="M-98 0l503 654l130 83l-82 78l-208 676h298l175 -637h85l134 637h264l-140 -662l73 23l415 639h327l-466 -654l-113 -73l89 -89l240 -675h-307l-209 648h-88l-136 -648h-264l142 673l-69 -25l-455 -648h-338zM0 0zM750 1699q0 62 42.5 93t111.5 31q68 0 110 -30.5 t42 -93.5q0 -61 -42.5 -90.5t-109.5 -29.5q-69 0 -111.5 29.5t-42.5 90.5zM1184 1699q0 62 43 93t110 31q69 0 111.5 -30.5t42.5 -93.5q0 -61 -42.5 -90.5t-111.5 -29.5q-68 0 -110.5 29.5t-42.5 90.5z" />
<glyph unicode="&#x4dd;" horiz-adv-x="1612" d="M-53 28l70 212q38 -10 68 -10q79 0 138.5 72t93.5 245q9 43 11 77t2 64q0 109 -44 144t-118 22l-26 190q96 26 171 25q128 0 194 -74.5t66 -234.5q0 -30 -2 -60.5t-6 -67.5h161l91 433h252l-93 -433h148q30 124 74 208.5t97 136.5t112.5 74t119.5 22q65 0 139 -27 l-56 -192q-24 6 -45 6q-65 0 -123 -62.5t-94 -226.5q-19 -83 -19 -154q0 -55 10.5 -97.5t33 -70t54.5 -36t75 5.5l25 -191q-100 -34 -175 -34q-73 0 -123.5 28.5t-82.5 77.5t-46 116t-14 142q0 21 1.5 40t3.5 41h-156l-92 -439h-251l93 439h-155q-32 -122 -77.5 -208 t-100 -139.5t-115 -77.5t-124.5 -24q-42 0 -82.5 10t-83.5 28zM0 0zM644 1345q0 71 39 110.5t101 39.5t101.5 -39.5t39.5 -110.5q0 -68 -39.5 -106t-101.5 -38q-61 0 -100.5 38t-39.5 106zM1087 1347q0 69 39 108.5t101 39.5t101.5 -39.5t39.5 -108.5q0 -68 -39.5 -107 t-101.5 -39q-61 0 -100.5 39t-39.5 107z" />
<glyph unicode="&#x4de;" horiz-adv-x="1079" d="M-36 49l123 254q43 -24 124 -48.5t200 -24.5q51 0 106.5 13t100 41.5t73.5 75.5t29 115q0 104 -73.5 141.5t-209.5 41.5h-81h-55l48 230h49q19 0 45 1t52.5 3t52 4.5t42.5 4.5q42 6 85 20t76 39.5t54.5 62t21.5 87.5q0 68 -52.5 107t-154.5 39q-90 0 -172 -25.5 t-135 -48.5l-19 247q26 12 69.5 27.5t98 28.5t118 22t127.5 9q90 0 164 -20t130 -60.5t86.5 -101t30.5 -139.5q0 -147 -79.5 -257.5t-237.5 -147.5v-10q40 -12 78.5 -35t67.5 -59t47 -87.5t18 -121.5q0 -130 -51.5 -224.5t-139.5 -157.5t-207.5 -94t-253.5 -31t-239.5 23.5 t-156.5 55.5zM0 0zM395 1699q0 62 42.5 93t111.5 31q68 0 110 -30.5t42 -93.5q0 -61 -42.5 -90.5t-109.5 -29.5q-69 0 -111.5 29.5t-42.5 90.5zM829 1699q0 62 43 93t110 31q69 0 111.5 -30.5t42.5 -93.5q0 -61 -42.5 -90.5t-111.5 -29.5q-68 0 -110.5 29.5t-42.5 90.5z" />
<glyph unicode="&#x4df;" horiz-adv-x="866" d="M-43 61l98 201q43 -28 106 -48.5t142 -20.5q99 0 155 46t56 117q0 46 -40.5 66.5t-162.5 20.5h-98l41 189h122q35 0 70.5 11t62 30.5t43.5 45t17 54.5q0 51 -33.5 72.5t-113.5 21.5q-70 0 -119 -13t-102 -37l-45 195q34 19 78.5 32t95 22t102.5 13.5t100 4.5 q171 0 242.5 -60.5t71.5 -167.5q0 -51 -17.5 -97t-47 -82t-69 -63.5t-84.5 -42.5v-8q90 -21 122 -75.5t32 -121.5q0 -91 -38.5 -163.5t-106.5 -122.5t-160.5 -77t-201.5 -27q-102 0 -186.5 26t-131.5 59zM0 0zM213 1345q0 71 39 110.5t101 39.5t101.5 -39.5t39.5 -110.5 q0 -68 -39.5 -106t-101.5 -38q-61 0 -100.5 38t-39.5 106zM656 1347q0 69 39 108.5t101 39.5t101.5 -39.5t39.5 -108.5q0 -68 -39.5 -107t-101.5 -39q-61 0 -100.5 39t-39.5 107z" />
<glyph unicode="&#x4e0;" horiz-adv-x="1124" d="M6 53l122 256q51 -32 136 -55.5t164 -23.5q88 0 153 22.5t107 59.5t63.5 84t21.5 96q0 104 -65 146.5t-235 42.5h-177l27 124l384 370l113 93l-125 -28h-410l54 251h871l-35 -160l-419 -402l-108 -67v-10l98 24q63 -2 122 -26.5t102.5 -68.5t69 -105.5t25.5 -138.5 q0 -132 -47 -236.5t-133 -178t-209 -113t-271 -39.5q-45 0 -101 5.5t-112 15t-105 25.5t-81 37z" />
<glyph unicode="&#x4e1;" horiz-adv-x="925" d="M-164 -352l117 190q49 -32 113 -51t127 -19q71 0 137 21.5t115 62t78.5 95.5t29.5 126q0 102 -68 146.5t-243 44.5h-106l24 100l317 390l139 110l-152 -18h-344l46 219h803l-32 -149l-368 -398l-94 -62v-5l64 7q53 0 104.5 -20.5t91.5 -59.5t65 -97.5t25 -133.5 q0 -143 -53.5 -253.5t-144 -187t-207.5 -117t-245 -40.5q-102 0 -191.5 25.5t-147.5 73.5z" />
<glyph unicode="&#x4e2;" horiz-adv-x="1358" d="M43 0l315 1491h276l-167 -796l-65 -197h13l141 211l690 782h213l-315 -1491h-277l170 811l62 191h-13l-136 -205l-694 -797h-213zM43 0zM590 1634l38 189h697l-40 -189h-695z" />
<glyph unicode="&#x4e3;" horiz-adv-x="1089" d="M83 0zM83 205q0 79 21 171l148 689h262l-140 -658q-12 -64 -12 -106q0 -43 17 -66.5t60 -23.5q36 0 73 18.5t71.5 47t63 63t48.5 69.5l136 656h262l-134 -639q-11 -42 -18.5 -100t-14 -118.5t-8.5 -116t0 -91.5h-211l-10 191h-9q-30 -40 -69.5 -79t-87 -71.5 t-104.5 -51.5t-120 -19q-100 0 -162 50.5t-62 184.5zM360 1205l41 197h656l-41 -197h-656z" />
<glyph unicode="&#x4e4;" horiz-adv-x="1358" d="M43 0l315 1491h276l-167 -796l-65 -197h13l141 211l690 782h213l-315 -1491h-277l170 811l62 191h-13l-136 -205l-694 -797h-213zM43 0zM578 1699q0 62 42.5 93t111.5 31q68 0 110 -30.5t42 -93.5q0 -61 -42.5 -90.5t-109.5 -29.5q-69 0 -111.5 29.5t-42.5 90.5z M1012 1699q0 62 43 93t110 31q69 0 111.5 -30.5t42.5 -93.5q0 -61 -42.5 -90.5t-111.5 -29.5q-68 0 -110.5 29.5t-42.5 90.5z" />
<glyph unicode="&#x4e5;" horiz-adv-x="1089" d="M83 0zM83 205q0 79 21 171l148 689h262l-140 -658q-12 -64 -12 -106q0 -43 17 -66.5t60 -23.5q36 0 73 18.5t71.5 47t63 63t48.5 69.5l136 656h262l-134 -639q-11 -42 -18.5 -100t-14 -118.5t-8.5 -116t0 -91.5h-211l-10 191h-9q-30 -40 -69.5 -79t-87 -71.5 t-104.5 -51.5t-120 -19q-100 0 -162 50.5t-62 184.5zM378 1345q0 71 39 110.5t101 39.5t101.5 -39.5t39.5 -110.5q0 -68 -39.5 -106t-101.5 -38q-61 0 -100.5 38t-39.5 106zM821 1347q0 69 39 108.5t101 39.5t101.5 -39.5t39.5 -108.5q0 -68 -39.5 -107t-101.5 -39 q-61 0 -100.5 39t-39.5 107z" />
<glyph unicode="&#x4e6;" horiz-adv-x="1370" d="M124 0zM124 558q0 198 54 374t154.5 307t242 206t315.5 75q116 0 208.5 -33.5t157.5 -105t101 -180t36 -258.5q0 -200 -54.5 -376.5t-153.5 -309.5t-236.5 -210t-302.5 -77q-252 0 -386 148t-136 440zM415 567q0 -153 58.5 -245t193.5 -92q97 0 177.5 58.5t137.5 157.5 t88 227t31 266q0 169 -66 245t-181 76q-96 0 -176 -55t-138 -149.5t-91.5 -221.5t-33.5 -267zM578 1699q0 62 42.5 93t111.5 31q68 0 110 -30.5t42 -93.5q0 -61 -42.5 -90.5t-109.5 -29.5q-69 0 -111.5 29.5t-42.5 90.5zM1012 1699q0 62 43 93t110 31q69 0 111.5 -30.5 t42.5 -93.5q0 -61 -42.5 -90.5t-111.5 -29.5q-68 0 -110.5 29.5t-42.5 90.5z" />
<glyph unicode="&#x4e7;" horiz-adv-x="1055" d="M73 0zM73 345q0 169 47.5 307t127.5 236t185.5 152.5t220.5 54.5q102 0 172 -32t114 -85t63 -121.5t19 -140.5q0 -167 -46.5 -304t-125.5 -235t-183 -152.5t-220 -54.5q-100 0 -170 33t-116 86t-67 120.5t-21 135.5zM343 382q0 -192 139 -193q50 0 99 45t87.5 117.5 t61 164t22.5 183.5q0 85 -28.5 131t-107.5 46q-51 0 -100 -43t-87.5 -112t-62 -158.5t-23.5 -180.5zM356 1345q0 71 39 110.5t101 39.5t101.5 -39.5t39.5 -110.5q0 -68 -39.5 -106t-101.5 -38q-61 0 -100.5 38t-39.5 106zM799 1347q0 69 39 108.5t101 39.5t101.5 -39.5 t39.5 -108.5q0 -68 -39.5 -107t-101.5 -39q-61 0 -100.5 39t-39.5 107z" />
<glyph unicode="&#x4e8;" horiz-adv-x="1370" d="M124 558q0 198 52 374t151 307t238.5 206t316.5 75q113 0 208 -33.5t162 -105t104 -180t37 -258.5q0 -200 -53.5 -376.5t-150 -309.5t-231.5 -210t-302 -77q-251 0 -390.5 148t-141.5 440zM415 567q0 -153 63 -245t197 -92q69 0 128 30t108.5 84t86.5 126.5t61 159.5 h-642q-2 -16 -2 -31.5v-31.5zM456 867h643q0 17 1 35t1 37q0 169 -70 245t-185 76q-69 0 -129.5 -28.5t-109.5 -81.5t-87 -125.5t-64 -157.5z" />
<glyph unicode="&#x4e9;" horiz-adv-x="1055" d="M73 0zM73 345q0 169 47.5 307t128.5 236t186.5 152.5t220.5 54.5q102 0 172.5 -32t113 -85t61.5 -121.5t19 -140.5q0 -167 -46.5 -304t-126.5 -235t-184 -152.5t-220 -54.5q-100 0 -170 33t-115 86t-66 120.5t-21 135.5zM343 382q0 -192 139 -193q68 0 127.5 73t97.5 181 h-362q-2 -17 -2 -32v-29zM382 616h364q6 40 6 83q0 85 -28.5 131t-107.5 46q-35 0 -68.5 -20.5t-64 -56t-57 -82t-44.5 -101.5z" />
<glyph unicode="&#x4ea;" horiz-adv-x="1370" d="M124 0zM124 558q0 198 52 374t151 307t238.5 206t316.5 75q113 0 208 -33.5t162 -105t104 -180t37 -258.5q0 -200 -53.5 -376.5t-150 -309.5t-231.5 -210t-302 -77q-251 0 -390.5 148t-141.5 440zM415 567q0 -153 63 -245t197 -92q69 0 128 30t108.5 84t86.5 126.5 t61 159.5h-642q-2 -16 -2 -31.5v-31.5zM456 867h643q0 17 1 35t1 37q0 169 -70 245t-185 76q-69 0 -129.5 -28.5t-109.5 -81.5t-87 -125.5t-64 -157.5zM586 1699q0 62 42.5 93t111.5 31q68 0 110 -30.5t42 -93.5q0 -61 -42.5 -90.5t-109.5 -29.5q-69 0 -111.5 29.5 t-42.5 90.5zM1020 1699q0 62 43 93t110 31q69 0 111.5 -30.5t42.5 -93.5q0 -61 -42.5 -90.5t-111.5 -29.5q-68 0 -110.5 29.5t-42.5 90.5z" />
<glyph unicode="&#x4eb;" horiz-adv-x="1055" d="M73 0zM73 345q0 169 47.5 307t128.5 236t186.5 152.5t220.5 54.5q102 0 172.5 -32t113 -85t61.5 -121.5t19 -140.5q0 -167 -46.5 -304t-126.5 -235t-184 -152.5t-220 -54.5q-100 0 -170 33t-115 86t-66 120.5t-21 135.5zM343 382q0 -192 139 -193q68 0 127.5 73t97.5 181 h-362q-2 -17 -2 -32v-29zM348 1345q0 71 39 110.5t101 39.5t101.5 -39.5t39.5 -110.5q0 -68 -39.5 -106t-101.5 -38q-61 0 -100.5 38t-39.5 106zM382 616h364q6 40 6 83q0 85 -28.5 131t-107.5 46q-35 0 -68.5 -20.5t-64 -56t-57 -82t-44.5 -101.5zM791 1347q0 69 39 108.5 t101 39.5t101.5 -39.5t39.5 -108.5q0 -68 -39.5 -107t-101.5 -39q-61 0 -100.5 39t-39.5 107z" />
<glyph unicode="&#x4ec;" horiz-adv-x="1175" d="M-26 41l128 253q40 -24 115 -44t177 -20q94 0 177 30t147 84t107.5 129.5t60.5 165.5h-560l48 235h535q6 81 -4.5 152t-45 123t-99.5 81.5t-168 29.5q-106 0 -180.5 -24t-130.5 -54l-9 247q82 38 176.5 64.5t203.5 26.5q149 0 254.5 -46.5t170.5 -125t94.5 -180 t29.5 -211.5q0 -211 -51 -392t-156.5 -313t-267 -207t-383.5 -75q-55 0 -109.5 6.5t-103.5 16t-89.5 22.5t-66.5 26zM0 0zM377 1699q0 62 42.5 93t111.5 31q68 0 110 -30.5t42 -93.5q0 -61 -42.5 -90.5t-109.5 -29.5q-69 0 -111.5 29.5t-42.5 90.5zM811 1699q0 62 43 93 t110 31q69 0 111.5 -30.5t42.5 -93.5q0 -61 -42.5 -90.5t-111.5 -29.5q-68 0 -110.5 29.5t-42.5 90.5z" />
<glyph unicode="&#x4ed;" horiz-adv-x="921" d="M-49 55l100 197q43 -28 104.5 -45.5t127.5 -17.5q252 0 309 260h-381l34 181h377q2 17 3 34t1 31q0 93 -44.5 137t-119.5 44q-98 0 -156 -18.5t-108 -42.5l-60 173q86 51 182.5 79t199.5 28q181 0 274.5 -96t93.5 -269q0 -201 -50 -344.5t-133 -236t-191.5 -136 t-228.5 -43.5q-102 0 -193.5 24.5t-140.5 60.5zM0 0zM186 1345q0 71 39 110.5t101 39.5t101.5 -39.5t39.5 -110.5q0 -68 -39.5 -106t-101.5 -38q-61 0 -100.5 38t-39.5 106zM629 1347q0 69 39 108.5t101 39.5t101.5 -39.5t39.5 -108.5q0 -68 -39.5 -107t-101.5 -39 q-61 0 -100.5 39t-39.5 107z" />
<glyph unicode="&#x4ee;" horiz-adv-x="1162" d="M110 0zM110 36l122 236q30 -16 55.5 -21.5t57.5 -5.5q45 0 87.5 46t83.5 118l-299 1082h305l149 -658l2 -194h12l71 200l347 652h309l-597 -1031q-70 -122 -125.5 -211t-109.5 -147.5t-116 -87.5t-145 -29q-130 0 -209 51zM480 1634l38 189h697l-40 -189h-695z" />
<glyph unicode="&#x4ef;" horiz-adv-x="962" d="M-36 -405l70 209q13 -6 27 -8.5t26 -2.5q51 0 104.5 49.5t106.5 157.5l-200 1065h300l62 -598l2 -166h13l57 168l291 596h278l-511 -957q-64 -119 -120.5 -219t-114 -172.5t-119 -113t-132.5 -40.5q-94 0 -140 32zM0 0zM270 1205l41 197h656l-41 -197h-656z" />
<glyph unicode="&#x4f0;" horiz-adv-x="1162" d="M110 0zM110 36l122 236q30 -16 55.5 -21.5t57.5 -5.5q45 0 87.5 46t83.5 118l-299 1082h305l149 -658l2 -194h12l71 200l347 652h309l-597 -1031q-70 -122 -125.5 -211t-109.5 -147.5t-116 -87.5t-145 -29q-130 0 -209 51zM505 1699q0 62 42.5 93t111.5 31 q68 0 110 -30.5t42 -93.5q0 -61 -42.5 -90.5t-109.5 -29.5q-69 0 -111.5 29.5t-42.5 90.5zM939 1699q0 62 43 93t110 31q69 0 111.5 -30.5t42.5 -93.5q0 -61 -42.5 -90.5t-111.5 -29.5q-68 0 -110.5 29.5t-42.5 90.5z" />
<glyph unicode="&#x4f1;" horiz-adv-x="962" d="M-36 -405l70 209q13 -6 27 -8.5t26 -2.5q51 0 104.5 49.5t106.5 157.5l-200 1065h300l62 -598l2 -166h13l57 168l291 596h278l-511 -957q-64 -119 -120.5 -219t-114 -172.5t-119 -113t-132.5 -40.5q-94 0 -140 32zM0 0zM288 1345q0 71 39 110.5t101 39.5t101.5 -39.5 t39.5 -110.5q0 -68 -39.5 -106t-101.5 -38q-61 0 -100.5 38t-39.5 106zM731 1347q0 69 39 108.5t101 39.5t101.5 -39.5t39.5 -108.5q0 -68 -39.5 -107t-101.5 -39q-61 0 -100.5 39t-39.5 107z" />
<glyph unicode="&#x4f2;" horiz-adv-x="1162" d="M110 0zM110 36l122 236q30 -16 55.5 -21.5t57.5 -5.5q45 0 87.5 46t83.5 118l-299 1082h305l149 -658l2 -194h12l71 200l347 652h309l-597 -1031q-70 -122 -125.5 -211t-109.5 -147.5t-116 -87.5t-145 -29q-130 0 -209 51zM534 1579l169 232h268l-7 -35l-245 -197h-185z M856 1579l247 232h281l-6 -35l-331 -197h-191z" />
<glyph unicode="&#x4f3;" horiz-adv-x="962" d="M-36 -405l70 209q13 -6 27 -8.5t26 -2.5q51 0 104.5 49.5t106.5 157.5l-200 1065h300l62 -598l2 -166h13l57 168l291 596h278l-511 -957q-64 -119 -120.5 -219t-114 -172.5t-119 -113t-132.5 -40.5q-94 0 -140 32zM0 0zM387 1216l128 275h239l-6 -34l-203 -241h-158z M669 1216l206 275h256l-6 -34l-291 -241h-165z" />
<glyph unicode="&#x4f4;" horiz-adv-x="1240" d="M207 0zM207 841q0 66 15 135l108 515h275l-99 -462q-6 -29 -7 -51.5t-1 -46.5q0 -83 39.5 -124t129.5 -41q77 0 144 17.5t114 53.5l138 654h277l-316 -1491h-276l128 601q-30 -14 -62 -29.5t-70.5 -28.5t-86.5 -20t-108 -7q-75 0 -137.5 18.5t-108 59t-71 102.5 t-25.5 145zM517 1699q0 62 42.5 93t111.5 31q68 0 110 -30.5t42 -93.5q0 -61 -42.5 -90.5t-109.5 -29.5q-69 0 -111.5 29.5t-42.5 90.5zM951 1699q0 62 43 93t110 31q69 0 111.5 -30.5t42.5 -93.5q0 -61 -42.5 -90.5t-111.5 -29.5q-68 0 -110.5 29.5t-42.5 90.5z" />
<glyph unicode="&#x4f5;" horiz-adv-x="1032" d="M113 0zM113 573q0 61 15 130l77 362h262l-52 -242q-10 -45 -15.5 -81.5t-5.5 -66.5q0 -59 24.5 -89t81.5 -30q62 0 108 19t75 43l99 447h262l-227 -1065h-261l87 417q-37 -24 -103.5 -52t-169.5 -28q-55 0 -101.5 11.5t-82 39t-54.5 72t-19 113.5zM321 1345 q0 71 39 110.5t101 39.5t101.5 -39.5t39.5 -110.5q0 -68 -39.5 -106t-101.5 -38q-61 0 -100.5 38t-39.5 106zM764 1347q0 69 39 108.5t101 39.5t101.5 -39.5t39.5 -108.5q0 -68 -39.5 -107t-101.5 -39q-61 0 -100.5 39t-39.5 107z" />
<glyph unicode="&#x4f6;" horiz-adv-x="927" d="M43 0l315 1491h822l-56 -260h-545l-205 -971h177l-112 -526h-194l25 266h-227z" />
<glyph unicode="&#x4f7;" horiz-adv-x="885" d="M28 262q0 100 41 165t103 106.5t135 68t134 50t103 51t42 75.5q0 49 -29 69t-90 20q-96 0 -157.5 -18t-106.5 -40l-32 197q34 18 79.5 32t96.5 24.5t103 16t97 5.5q85 0 144 -19t95.5 -52t52 -78t15.5 -96q0 -104 -41.5 -169t-103 -107.5t-133.5 -68t-133 -50.5 t-103 -56.5t-42 -82.5q0 -55 41 -85.5t102 -30.5q28 0 63 7t69 17.5t63 23.5t45 25l122 -113l-112 -391h-201l63 261q-36 -24 -81.5 -36.5t-107.5 -12.5q-81 0 -143.5 24.5t-105 66t-65 94t-22.5 107.5z" />
<glyph unicode="&#x4f8;" horiz-adv-x="1628" d="M43 0zM43 15l313 1476h276l-112 -534l70 10t91 6q102 0 182 -28.5t134.5 -81t82.5 -123.5t28 -157q0 -140 -47 -252t-136.5 -191t-219.5 -120t-296 -41h-55.5t-34.5 2q-38 0 -83 4.5t-97 10.5t-96 19zM368 252q45 -13 116 -14q70 0 130.5 19.5t105 57t70 90.5t25.5 123 q0 185 -225 185q-28 0 -68 -5t-58 -11zM703 1699q0 62 42.5 93t111.5 31q68 0 110 -30.5t42 -93.5q0 -61 -42.5 -90.5t-109.5 -29.5q-69 0 -111.5 29.5t-42.5 90.5zM1136 0l315 1491h276l-315 -1491h-276zM1137 1699q0 62 43 93t110 31q69 0 111.5 -30.5t42.5 -93.5 q0 -61 -42.5 -90.5t-111.5 -29.5q-68 0 -110.5 29.5t-42.5 90.5z" />
<glyph unicode="&#x4f9;" horiz-adv-x="1437" d="M77 0zM77 183q0 30 6 67l179 815h262l-89 -392q42 10 101.5 19t104.5 9q158 0 223 -64t65 -166q0 -108 -46 -198t-123 -154t-179 -99t-215 -35q-151 0 -220 52t-69 146zM347 272q0 -68 84 -67q44 0 85.5 14.5t72.5 40t50 61t19 77.5q0 60 -28.5 84t-101.5 24 q-38 0 -71 -7t-63 -17l-40 -179q-2 -9 -4.5 -15.5t-2.5 -15.5zM531 1345q0 71 39 110.5t101 39.5t101.5 -39.5t39.5 -110.5q0 -68 -39.5 -106t-101.5 -38q-61 0 -100.5 38t-39.5 106zM961 0l226 1065h262l-226 -1065h-262zM974 1347q0 69 39 108.5t101 39.5t101.5 -39.5 t39.5 -108.5q0 -68 -39.5 -107t-101.5 -39q-61 0 -100.5 39t-39.5 107z" />
<glyph unicode="&#x4fc;" horiz-adv-x="1294" d="M-51 0l594 760l-238 731h302l128 -430l21 -152l77 150l319 432h330l-557 -718l155 -454q32 -81 50 -154t18 -163q0 -113 -28.5 -197t-81 -138.5t-126 -81t-160.5 -26.5q-73 0 -140 15l50 237q69 -7 110 5.5t64.5 39t32.5 65t9 83.5q0 17 -5.5 44t-13 56.5t-17 59 t-17.5 55.5l-90 241l-22 158l-83 -158l-347 -460h-334z" />
<glyph unicode="&#x4fd;" horiz-adv-x="1055" d="M-87 0l441 545l-192 520h298l81 -228l26 -149l93 149l183 228h307l-415 -512l115 -281q30 -68 43.5 -128.5t13.5 -141.5q0 -104 -33 -185t-90.5 -137t-135 -85.5t-166.5 -29.5q-62 0 -122 13l45 217q106 -17 168.5 36.5t62.5 149.5q0 45 -7 84t-24 84l-44 107l-39 153 l-94 -153l-211 -256h-304z" />
<glyph unicode="&#x510;" horiz-adv-x="1077" d="M75 364q0 102 31.5 179t85 130t119 83t134.5 39v12q-71 30 -120.5 94t-49.5 176q0 120 52.5 204.5t134 136.5t182 75t195.5 23q60 0 119.5 -8t111.5 -22t92.5 -30.5t60.5 -30.5l-124 -234q-44 24 -117 44.5t-145 20.5q-55 0 -104.5 -10t-86.5 -33.5t-58 -59t-21 -86.5 q0 -79 42.5 -115t110.5 -53q32 -11 83 -11h87h49l-49 -230h-55h-41.5t-37.5 -2q-85 -2 -156.5 -13t-123.5 -36.5t-81 -71t-29 -118.5q0 -96 68 -141.5t169 -45.5q102 0 191.5 22.5t142.5 54.5l26 -230q-61 -45 -179.5 -76t-251.5 -31q-87 0 -169 23.5t-146 71.5t-103 122.5 t-39 176.5z" />
<glyph unicode="&#x511;" horiz-adv-x="900" d="M53 252q0 110 66 191t188 120v8q-57 24 -85.5 75t-28.5 116q0 66 29.5 124.5t82.5 102.5t128.5 69.5t169.5 25.5q126 0 214 -26.5t142 -63.5l-101 -197q-32 24 -89.5 45.5t-144.5 21.5q-77 0 -124 -36t-51 -93q-4 -49 31.5 -77t105.5 -28h123l-40 -183h-100 q-130 0 -185.5 -39.5t-60.5 -94.5q-4 -51 31.5 -84t124.5 -33q82 0 152 19t123 49l21 -191q-55 -41 -149 -69t-195 -28q-104 0 -177 19.5t-117.5 55.5t-64 86t-19.5 115z" />
<glyph unicode="&#x512;" horiz-adv-x="1277" d="M-102 15l83 251q24 -8 51 -8q35 0 67.5 17t66.5 60q39 43 80 132t87.5 229.5t97.5 337.5t108 457h262h298h277l-326 -1536q-40 -193 -130.5 -294.5t-257.5 -101.5q-57 0 -127 13l48 239q53 -4 87.5 5t55 31.5t33 61t25.5 91.5l260 1231h-298q-49 -202 -94 -370 t-89.5 -302.5t-92.5 -235.5t-104 -172q-43 -51 -85.5 -84t-82.5 -51t-77.5 -24.5t-69.5 -6.5q-98 0 -153 30z" />
<glyph unicode="&#x513;" horiz-adv-x="1069" d="M-100 19l81 231q37 -11 62 -12q42 2 79.5 38.5t77.5 129t86 252t106 407.5h688l-226 -1065q-51 -226 -144.5 -334.5t-253.5 -108.5q-31 0 -61.5 3t-64.5 12l50 232q51 -4 86.5 6.5t59 36t39.5 65t27 90.5l181 844h-196q-53 -198 -103 -357t-109.5 -271t-133 -171 t-172.5 -59q-115 0 -159 31z" />
<glyph unicode="&#x51c;" horiz-adv-x="1758" d="M232 1491h292l6 -831l-30 -264h12l82 269l422 826h187l63 -831l-28 -264h10l85 269l350 826h298l-709 -1501h-195l-78 827l17 229h-12l-82 -231l-424 -825h-193z" />
<glyph unicode="&#x51d;" horiz-adv-x="1443" d="M98 1065h268l34 -535l-12 -189h10l73 191l281 533h195l69 -545l-2 -177h10l65 179l246 543h256l-543 -1075h-194l-74 596v134h-9l-55 -137l-320 -593h-200z" />
<glyph unicode="&#x524;" horiz-adv-x="1394" d="M43 0l315 1491h276h492h280l-260 -1231h179l-113 -526h-194l26 266h-231l260 1231h-494l-260 -1231h-276z" />
<glyph unicode="&#x525;" horiz-adv-x="1162" d="M28 0l226 1065h197l-10 -187h8q28 34 65 72t86.5 70t110 53.5t137.5 21.5q95 0 153 -52.5t58 -173.5q0 -32 -3.5 -68.5t-14.5 -78.5l-108 -503h213l-136 -461h-201l65 242h-248l140 660q13 60 14 104q0 47 -19 73.5t-70 26.5q-39 0 -77.5 -18.5t-73 -51t-64 -72 t-50.5 -79.5l-136 -643h-262z" />
<glyph unicode="&#x526;" horiz-adv-x="1352" d="M43 0l315 1491h276l-128 -601q60 32 136 59t191 27q69 0 130 -18.5t109 -58t75.5 -101t27.5 -150.5q0 -66 -14 -134l-53 -254h178l-113 -526h-193l26 266h-228l100 467q4 26 7 48t3 43q0 167 -172 166q-80 0 -143.5 -20.5t-114.5 -51.5l-139 -652h-276z" />
<glyph unicode="&#x527;" horiz-adv-x="1145" d="M38 0l316 1491h262l-134 -613h8q28 34 67 72t87.5 70t104.5 53.5t123 21.5q101 0 157.5 -51.5t56.5 -181.5q0 -79 -25 -200l-96 -443h169l-138 -461h-199l63 242h-202l128 605q21 94 21 155q0 55 -21.5 79.5t-65.5 24.5q-41 0 -85.5 -25.5t-85 -63.5t-73.5 -81.5 t-50 -79.5l-125 -614h-263z" />
<glyph unicode="&#x1e30;" horiz-adv-x="1262" d="M43 0l315 1491h276l-140 -660l67 23l504 637h332l-537 -633l-127 -74l94 -83l323 -701h-309l-288 636h-100l-134 -636h-276zM43 0zM662 1602l267 251h333l-12 -64l-366 -187h-222z" />
<glyph unicode="&#x1e31;" horiz-adv-x="990" d="M38 0l316 1491h262l-188 -879l78 27l301 426h292l-317 -429l-128 -80l96 -81l162 -475h-282l-153 441h-85l-91 -441h-263zM38 0zM679 1205l177 329h266l-12 -64l-283 -265h-148z" />
<glyph unicode="&#x1e3e;" horiz-adv-x="1632" d="M43 0l315 1491h245l224 -682l27 -170h10l99 174l502 678h267l-316 -1491h-274l163 773l95 294h-14l-140 -240l-419 -552h-88l-200 558l-39 234h-10l-21 -292l-164 -775h-262zM43 0zM890 1602l267 251h333l-12 -64l-366 -187h-222z" />
<glyph unicode="&#x1e3f;" horiz-adv-x="1632" d="M38 0l226 1065h205l-13 -187h8q32 34 69.5 72t84.5 70t104.5 53.5t125.5 21.5q85 0 128.5 -62t39.5 -164q32 41 73 81t89.5 72.5t102.5 52.5t112 20q97 0 149.5 -45.5t52.5 -171.5q0 -92 -32 -239l-134 -639h-262l126 598q10 49 17 92t7 74q0 49 -18.5 74.5t-60.5 25.5 q-35 0 -69.5 -19.5t-67 -51t-59 -67t-40.5 -68.5l-138 -658h-261l121 579q12 60 20 105.5t8 81.5q0 98 -75 98q-36 0 -72 -18.5t-67.5 -49t-58 -65t-42.5 -66.5l-136 -665h-263zM38 0zM881 1205l177 329h266l-12 -64l-283 -265h-148z" />
<glyph unicode="&#x1e54;" horiz-adv-x="1171" d="M43 0l313 1476q89 16 190.5 26t203.5 10q108 0 201 -24.5t162 -75.5t107 -131t38 -190q0 -166 -57 -278t-151.5 -181t-216.5 -98.5t-247 -29.5h-33.5t-46.5 1t-46.5 4t-33.5 5l-107 -514h-276zM43 0zM482 764q8 -2 23 -4t33 -3t34 -1h24q73 0 140 16t118 51t82 92.5 t31 141.5q0 61 -20 101.5t-54.5 63t-80.5 30.5t-96 8q-39 0 -74 -3t-59 -7zM628 1602l267 251h333l-12 -64l-366 -187h-222z" />
<glyph unicode="&#x1e55;" horiz-adv-x="1077" d="M-55 -426l315 1491h193l-10 -187h8q31 40 69 79t85 69.5t100 49.5t115 19q108 0 174.5 -75t66.5 -234q0 -181 -48 -331t-128 -258t-187.5 -167.5t-224.5 -59.5q-55 0 -104.5 11t-72.5 27l-91 -434h-260zM0 0zM341 226q53 -37 119 -37q65 0 125.5 45t106 119.5t72 173.5 t26.5 208q0 62 -28.5 101.5t-78.5 39.5q-38 0 -74 -19.5t-68 -48t-57.5 -65t-44.5 -70.5zM604 1205l177 329h266l-12 -64l-283 -265h-148z" />
<glyph unicode="&#x1e9e;" horiz-adv-x="1413" d="M43 0l215 1018q26 122 71 214.5t118 156.5t176 96.5t244 32.5q109 0 192 -18t147 -46.5t110.5 -66t85.5 -75.5l-358 -381l-87 -62l-2 -11l80 18q158 -13 233.5 -105t75.5 -234q0 -139 -51 -244.5t-136.5 -177.5t-199.5 -108.5t-237 -36.5q-30 0 -72.5 4.5t-85 13t-79 19 t-52.5 21.5l110 242q19 -10 46 -17.5t56.5 -12t59.5 -7.5t53 -3q51 0 104.5 15t96 46.5t69 82t26.5 118.5q0 100 -67 144.5t-227 44.5h-108l38 177l353 356q-32 34 -89.5 53t-136.5 19q-70 0 -119.5 -26.5t-84 -74t-57 -114.5t-38.5 -149l-199 -922h-274z" />
<glyph unicode="&#x2000;" horiz-adv-x="1082" />
<glyph unicode="&#x2001;" horiz-adv-x="2165" />
<glyph unicode="&#x2002;" horiz-adv-x="1082" />
<glyph unicode="&#x2003;" horiz-adv-x="2165" />
<glyph unicode="&#x2004;" horiz-adv-x="721" />
<glyph unicode="&#x2005;" horiz-adv-x="541" />
<glyph unicode="&#x2006;" horiz-adv-x="360" />
<glyph unicode="&#x2007;" horiz-adv-x="360" />
<glyph unicode="&#x2008;" horiz-adv-x="270" />
<glyph unicode="&#x2009;" horiz-adv-x="433" />
<glyph unicode="&#x200a;" horiz-adv-x="120" />
<glyph unicode="&#x2010;" horiz-adv-x="730" d="M120 502l53 222h508l-53 -222h-508z" />
<glyph unicode="&#x2011;" horiz-adv-x="730" d="M120 502l53 222h508l-53 -222h-508z" />
<glyph unicode="&#x2012;" horiz-adv-x="730" d="M120 502l53 222h508l-53 -222h-508z" />
<glyph unicode="&#x2013;" horiz-adv-x="1335" d="M224 502l53 222h892l-53 -222h-892z" />
<glyph unicode="&#x2014;" horiz-adv-x="1658" d="M224 502l53 222h1216l-54 -222h-1215z" />
<glyph unicode="&#x2018;" horiz-adv-x="457" d="M211 1333q0 86 36 152t86.5 111.5t100.5 72t80 32.5l39 -114q-42 -17 -79 -54t-50 -80q37 0 59.5 -32.5t22.5 -76.5q0 -84 -48.5 -124t-105.5 -40q-37 0 -63.5 13.5t-43.5 36t-25.5 49t-8.5 54.5z" />
<glyph unicode="&#x2019;" horiz-adv-x="459" d="M211 1103q45 19 82 51.5t52 81.5q-38 4 -63.5 35t-23.5 86q0 39 16 67.5t39.5 47.5t51 28.5t52.5 9.5q75 0 107 -38.5t32 -103.5q0 -88 -33 -154t-81 -112.5t-100 -74.5t-90 -41z" />
<glyph unicode="&#x201a;" horiz-adv-x="480" d="M17 0zM18 -137q45 19 82 51.5t52 81.5q-38 4 -63.5 35t-23.5 86q0 39 16 67.5t39.5 47.5t51 28.5t52.5 9.5q75 0 107 -38.5t32 -103.5q0 -88 -33 -154t-81 -112.5t-100 -74.5t-90 -41z" />
<glyph unicode="&#x201c;" horiz-adv-x="807" d="M211 1180zM211 1333q0 86 36 152t86.5 111.5t100.5 72t80 32.5l39 -114q-42 -17 -79 -54t-50 -80q37 0 59.5 -32.5t22.5 -76.5q0 -84 -48.5 -124t-105.5 -40q-37 0 -63.5 13.5t-43.5 36t-25.5 49t-8.5 54.5zM560 1333q0 86 36 152t86.5 111.5t100.5 72t80 32.5l39 -114 q-42 -17 -79 -54t-50 -80q37 0 59.5 -32.5t22.5 -76.5q0 -84 -48.5 -124t-105.5 -40q-37 0 -63.5 13.5t-43.5 36t-25.5 49t-8.5 54.5z" />
<glyph unicode="&#x201d;" horiz-adv-x="807" d="M211 986zM211 1103q45 19 82 51.5t52 81.5q-38 4 -63.5 35t-23.5 86q0 39 16 67.5t39.5 47.5t51 28.5t52.5 9.5q75 0 107 -38.5t32 -103.5q0 -88 -33 -154t-81 -112.5t-100 -74.5t-90 -41zM558 1103q45 19 82 51.5t52 81.5q-38 4 -63.5 35t-23.5 86q0 39 16 67.5 t39.5 47.5t51 28.5t52.5 9.5q75 0 107 -38.5t32 -103.5q0 -88 -33 -154t-81 -112.5t-100 -74.5t-90 -41z" />
<glyph unicode="&#x201e;" horiz-adv-x="827" d="M17 0zM18 -137q45 19 82 51.5t52 81.5q-38 4 -63.5 35t-23.5 86q0 39 16 67.5t39.5 47.5t51 28.5t52.5 9.5q75 0 107 -38.5t32 -103.5q0 -88 -33 -154t-81 -112.5t-100 -74.5t-90 -41zM362 -137q45 19 82 51.5t52 81.5q-38 4 -63.5 35t-23.5 86q0 39 16 67.5t39.5 47.5 t51 28.5t52.5 9.5q75 0 107 -38.5t32 -103.5q0 -88 -33 -154t-81 -112.5t-100 -74.5t-90 -41z" />
<glyph unicode="&#x2020;" horiz-adv-x="1043" d="M185 854l51 239h235l98 -34l-8 114l67 318h250l-69 -318l-55 -114l113 34h234l-51 -239h-239l-93 34l10 -106l-165 -782l-124 -426h-185l59 428l166 780l51 106l-108 -34h-237z" />
<glyph unicode="&#x2021;" horiz-adv-x="1043" d="M69 309l51 238h234l97 -31l-8 96l36 178l51 96l-108 -32h-237l51 239h235l98 -32l-8 106l67 324h250l-69 -324l-53 -106l111 32h234l-51 -239h-239l-93 32l10 -96l-35 -178l-54 -96l107 31h238l-49 -238h-236l-96 32l9 -107l-49 -234l-126 -426h-181l57 428l49 232 l53 107l-110 -32h-236z" />
<glyph unicode="&#x2022;" horiz-adv-x="962" d="M209 662q0 73 25.5 132.5t69 102t102 67t126.5 24.5q69 0 128.5 -22.5t103 -64t69 -102t25.5 -137.5q0 -76 -25.5 -135.5t-69 -101t-103 -64t-128.5 -22.5q-68 0 -126.5 22.5t-102 64t-69 101t-25.5 135.5z" />
<glyph unicode="&#x2026;" horiz-adv-x="1636" d="M38 140q0 75 47 119t124 44q79 0 126 -44t47 -119q0 -74 -47.5 -119t-125.5 -45q-77 0 -124 45t-47 119zM588 140q0 75 46.5 119t123.5 44q79 0 126 -44t47 -119q0 -74 -47 -119t-126 -45q-77 0 -123.5 45t-46.5 119zM1140 140q0 75 46.5 119t123.5 44q79 0 125.5 -44 t46.5 -119q0 -74 -47 -119t-125 -45q-77 0 -123.5 45t-46.5 119z" />
<glyph unicode="&#x202f;" horiz-adv-x="433" />
<glyph unicode="&#x2030;" horiz-adv-x="2435" d="M118 0zM118 1063q0 115 39.5 200t103.5 141.5t141.5 84t154.5 27.5q140 0 213.5 -65t73.5 -191q0 -121 -36 -209t-98 -145.5t-142 -85.5t-165 -28q-132 0 -208.5 73.5t-76.5 197.5zM138 118l1226 1402l156 -140l-1227 -1410zM352 1075q-2 -46 21.5 -75t67.5 -29 q71 0 120 73.5t49 188.5q0 104 -92 104q-36 0 -65.5 -21t-53 -56t-36.5 -83.5t-11 -101.5zM833 273q0 115 39.5 200t103.5 141.5t141.5 84t154.5 27.5q140 0 213.5 -65t73.5 -191q0 -121 -36 -209t-98 -145.5t-142 -85.5t-165 -28q-132 0 -208.5 73.5t-76.5 197.5zM1067 285 q-2 -46 21.5 -75t67.5 -29q71 0 120 73.5t49 188.5q0 104 -92 104q-36 0 -65.5 -21t-53 -56t-36.5 -83.5t-11 -101.5zM1619 273q0 115 39.5 200t103.5 141.5t141.5 84t154.5 27.5q140 0 213.5 -65t73.5 -191q0 -121 -36 -209t-98 -145.5t-142 -85.5t-165 -28 q-132 0 -208.5 73.5t-76.5 197.5zM1853 285q-2 -46 21.5 -75t67.5 -29q71 0 120 73.5t49 188.5q0 104 -92 104q-36 0 -65.5 -21t-53 -56t-36.5 -83.5t-11 -101.5z" />
<glyph unicode="&#x2039;" horiz-adv-x="638" d="M85 551l427 490l127 -136l-226 -269l-117 -83l76 -78l128 -262l-179 -132z" />
<glyph unicode="&#x203a;" horiz-adv-x="624" d="M66 211l230 271l117 87l-74 83l-132 264l183 125l234 -470l-426 -490z" />
<glyph unicode="&#x2044;" horiz-adv-x="391" d="M-294 83l918 1440l181 -107l-915 -1446z" />
<glyph unicode="&#x205f;" horiz-adv-x="541" />
<glyph unicode="&#x2081;" horiz-adv-x="855" d="M36 -213l45 213h198l77 349l40 98l-77 -67l-134 -79l-72 155l375 241h172l-148 -697h176l-45 -213h-607z" />
<glyph unicode="&#x2082;" horiz-adv-x="855" d="M-12 -213l31 152q61 38 142 93t154 117t123 127t50 122q0 37 -20.5 58t-75.5 21t-108.5 -18t-94.5 -42l-29 195q79 44 163 64.5t156 20.5q122 0 188 -55.5t66 -157.5q0 -128 -81 -235t-217 -208l-105 -53v-9l121 23h216l-47 -215h-632z" />
<glyph unicode="&#x2083;" horiz-adv-x="855" d="M4 -177l85 192q86 -41 177 -41q106 0 149 39.5t43 88.5q0 43 -31 64t-133 21h-87l17 81l183 173l95 51l-118 -13h-231l45 202h573l-29 -132l-218 -197l-75 -37v-10l60 6q74 -2 128 -53t51 -136q0 -90 -33 -156t-91 -108.5t-136.5 -64t-169.5 -21.5q-77 0 -144 13.5 t-110 37.5z" />
<glyph unicode="&#x2084;" horiz-adv-x="855" d="M-41 -47l31 143l563 603h186l-117 -557h153l-40 -189h-154l-36 -166h-204l35 166h-417zM201 126l112 16h106l37 184l38 113h-10l-69 -104l-128 -142z" />
<glyph unicode="&#x20ac;" d="M-12 492l108 199h136q8 63 22 122h-201l111 199h155q73 162 177 272q120 124 262.5 180t270.5 56q104 0 180.5 -20t127.5 -49l-112 -193q-38 19 -95 30t-136 11q-83 0 -175.5 -44.5t-170.5 -136.5q-41 -47 -73 -106h541l-98 -199h-520q-14 -57 -21 -122h473l-98 -199 h-379q4 -47 13 -87q14 -66 51.5 -114.5t98.5 -74t154 -25.5q79 0 142.5 19.5t119.5 49.5l37 -194q-73 -47 -177.5 -71.5t-206.5 -24.5q-126 0 -216.5 39.5t-150 109.5t-86.5 166q-28 94 -28 207h-236z" />
<glyph unicode="&#x20b4;" d="M136 492l43 193h910l-43 -193h-503q-37 -34 -73.5 -85t-36.5 -100q0 -24 7 -44.5t26.5 -37t53 -26.5t87.5 -10q106 0 174.5 21.5t119.5 47.5l13 -207q-55 -30 -152 -55.5t-258 -25.5q-162 0 -249 68t-87 192q0 42 12.5 84t32 77t38.5 61.5t32 39.5h-147zM203 805l42 194 h505q36 33 73 85t37 113q0 49 -29.5 76.5t-104.5 27.5q-81 0 -142.5 -17.5t-114.5 -43.5l-32 205q38 16 73 30t76.5 24.5t95 15.5t125.5 5q166 0 241.5 -62.5t75.5 -173.5q0 -55 -12.5 -98.5t-31.5 -79t-41.5 -62t-42.5 -45.5h158l-42 -194h-909z" />
<glyph unicode="&#x20b6;" d="M34 264l43 194h163l26 123h-166l45 194h162l149 701q93 16 182.5 26t198.5 10q96 0 177 -22.5t139.5 -69t91.5 -118t33 -166.5q0 -156 -56.5 -261.5t-146 -170.5t-199.5 -94t-214 -29l-144 -2l-26 -121h331l-41 -194h-331l-55 -264h-254l56 264h-164zM563 782h110 q57 0 118 16.5t111 52t81 89.5t31 131q0 102 -47.5 154.5t-157.5 52.5q-43 0 -80.5 -3t-63.5 -7z" />
<glyph unicode="&#x20b7;" d="M34 0zM34 264l43 194h163l26 123h-166l45 194h162l149 701q93 16 182.5 26t198.5 10q96 0 177 -22.5t139.5 -69t91.5 -118t33 -166.5q0 -156 -56.5 -261.5t-146 -170.5t-199.5 -94t-214 -29l-144 -2l-26 -121h331l-41 -194h-331l-55 -264h-254l56 264h-164zM563 782h110 q57 0 118 16.5t111 52t81 89.5t31 131q0 102 -47.5 154.5t-157.5 52.5q-43 0 -80.5 -3t-63.5 -7z" />
<glyph unicode="&#x20b9;" d="M34 0zM34 264l43 194h163l26 123h-166l45 194h162l149 701q93 16 182.5 26t198.5 10q96 0 177 -22.5t139.5 -69t91.5 -118t33 -166.5q0 -156 -56.5 -261.5t-146 -170.5t-199.5 -94t-214 -29l-144 -2l-26 -121h331l-41 -194h-331l-55 -264h-254l56 264h-164zM563 782h110 q57 0 118 16.5t111 52t81 89.5t31 131q0 102 -47.5 154.5t-157.5 52.5q-43 0 -80.5 -3t-63.5 -7z" />
<glyph unicode="&#x20ba;" d="M34 0zM34 264l43 194h163l26 123h-166l45 194h162l149 701q93 16 182.5 26t198.5 10q96 0 177 -22.5t139.5 -69t91.5 -118t33 -166.5q0 -156 -56.5 -261.5t-146 -170.5t-199.5 -94t-214 -29l-144 -2l-26 -121h331l-41 -194h-331l-55 -264h-254l56 264h-164zM563 782h110 q57 0 118 16.5t111 52t81 89.5t31 131q0 102 -47.5 154.5t-157.5 52.5q-43 0 -80.5 -3t-63.5 -7z" />
<glyph unicode="&#x20bb;" d="M34 0zM34 264l43 194h163l26 123h-166l45 194h162l149 701q93 16 182.5 26t198.5 10q96 0 177 -22.5t139.5 -69t91.5 -118t33 -166.5q0 -156 -56.5 -261.5t-146 -170.5t-199.5 -94t-214 -29l-144 -2l-26 -121h331l-41 -194h-331l-55 -264h-254l56 264h-164zM563 782h110 q57 0 118 16.5t111 52t81 89.5t31 131q0 102 -47.5 154.5t-157.5 52.5q-43 0 -80.5 -3t-63.5 -7z" />
<glyph unicode="&#x20bc;" d="M34 0zM34 264l43 194h163l26 123h-166l45 194h162l149 701q93 16 182.5 26t198.5 10q96 0 177 -22.5t139.5 -69t91.5 -118t33 -166.5q0 -156 -56.5 -261.5t-146 -170.5t-199.5 -94t-214 -29l-144 -2l-26 -121h331l-41 -194h-331l-55 -264h-254l56 264h-164zM563 782h110 q57 0 118 16.5t111 52t81 89.5t31 131q0 102 -47.5 154.5t-157.5 52.5q-43 0 -80.5 -3t-63.5 -7z" />
<glyph unicode="&#x20bd;" d="M34 0zM34 264l43 194h163l26 123h-166l45 194h162l149 701q93 16 182.5 26t198.5 10q96 0 177 -22.5t139.5 -69t91.5 -118t33 -166.5q0 -156 -56.5 -261.5t-146 -170.5t-199.5 -94t-214 -29l-144 -2l-26 -121h331l-41 -194h-331l-55 -264h-254l56 264h-164zM563 782h110 q57 0 118 16.5t111 52t81 89.5t31 131q0 102 -47.5 154.5t-157.5 52.5q-43 0 -80.5 -3t-63.5 -7z" />
</font>
</defs>
</svg>
